{
	"asset":{
		"generator":"Khronos glTF Blender I/O v4.3.47",
		"version":"2.0"
	},
	"scene":0,
	"scenes":[
		{
			"name":"Scene",
			"nodes":[
				0
			]
		}
	],
	"nodes":[
		{
			"mesh":0,
			"name":"Prop_OrkBarricade_v01"
		}
	],
	"materials":[
		{
			"doubleSided":true,
			"name":"lambert4",
			"normalTexture":{
				"index":0
			},
			"pbrMetallicRoughness":{
				"baseColorTexture":{
					"index":1
				},
				"metallicRoughnessTexture":{
					"index":2
				}
			}
		}
	],
	"meshes":[
		{
			"name":"Prop_OrkBarricade_v01",
			"primitives":[
				{
					"attributes":{
						"POSITION":0,
						"NORMAL":1,
						"TEXCOORD_0":2
					},
					"indices":3,
					"material":0
				}
			]
		}
	],
	"textures":[
		{
			"sampler":0,
			"source":0
		},
		{
			"sampler":0,
			"source":1
		},
		{
			"sampler":0,
			"source":2
		}
	],
	"images":[
		{
			"mimeType":"image/png",
			"name":"Prop_OrkBarricade_v01_Normal",
			"uri":"Prop_OrkBarricade_v01_Normal.png"
		},
		{
			"mimeType":"image/png",
			"name":"Prop_OrkBarricade_v01_BaseColor",
			"uri":"Prop_OrkBarricade_v01_BaseColor.png"
		},
		{
			"mimeType":"image/png",
			"name":"Prop_OrkBarricade_v01_Metallic-Prop_OrkBarricade_v01_Roughness",
			"uri":"Prop_OrkBarricade_v01_Metallic-Prop_OrkBarricade_v01_Roughness.png"
		}
	],
	"accessors":[
		{
			"bufferView":0,
			"componentType":5126,
			"count":2465,
			"max":[
				1.3033599853515625,
				2.0183205604553223,
				0.7122964262962341
			],
			"min":[
				-2.3870785236358643,
				-0.02355778031051159,
				-0.8105041980743408
			],
			"type":"VEC3"
		},
		{
			"bufferView":1,
			"componentType":5126,
			"count":2465,
			"type":"VEC3"
		},
		{
			"bufferView":2,
			"componentType":5126,
			"count":2465,
			"type":"VEC2"
		},
		{
			"bufferView":3,
			"componentType":5123,
			"count":8040,
			"type":"SCALAR"
		}
	],
	"bufferViews":[
		{
			"buffer":0,
			"byteLength":29580,
			"byteOffset":0,
			"target":34962
		},
		{
			"buffer":0,
			"byteLength":29580,
			"byteOffset":29580,
			"target":34962
		},
		{
			"buffer":0,
			"byteLength":19720,
			"byteOffset":59160,
			"target":34962
		},
		{
			"buffer":0,
			"byteLength":16080,
			"byteOffset":78880,
			"target":34963
		}
	],
	"samplers":[
		{
			"magFilter":9729,
			"minFilter":9987
		}
	],
	"buffers":[
		{
			"byteLength":94960,
			"uri":"Prop_OrkBarricade_v01.bin"
		}
	]
}
