{
	"asset":{
		"generator":"Khronos glTF Blender I/O v4.3.47",
		"version":"2.0"
	},
	"scene":0,
	"scenes":[
		{
			"name":"Scene",
			"nodes":[
				0,
				1,
				2,
				3,
				4,
				5
			]
		}
	],
	"nodes":[
		{
			"mesh":0,
			"name":"Box_Down",
			"translation":[
				0,
				0.0151925478130579,
				0
			]
		},
		{
			"mesh":1,
			"name":"Box_B",
			"translation":[
				2.1301209926605225e-05,
				0.4942898750305176,
				-0.4672224223613739
			]
		},
		{
			"mesh":2,
			"name":"Box_F",
			"translation":[
				5.4717063903808594e-05,
				0.4943659007549286,
				0.45778000354766846
			]
		},
		{
			"mesh":3,
			"name":"Box_R",
			"translation":[
				0.4610283076763153,
				0.49431127309799194,
				0
			]
		},
		{
			"mesh":4,
			"name":"Box_L",
			"translation":[
				-0.46468815207481384,
				0.4943110942840576,
				0
			]
		},
		{
			"mesh":5,
			"name":"Box_Up",
			"translation":[
				6.726707215420902e-05,
				0.9499316215515137,
				4.2234772990923375e-05
			]
		}
	],
	"materials":[
		{
			"doubleSided":true,
			"name":"Material.002",
			"normalTexture":{
				"index":0
			},
			"pbrMetallicRoughness":{
				"baseColorTexture":{
					"index":1
				},
				"metallicRoughnessTexture":{
					"index":2
				}
			}
		}
	],
	"meshes":[
		{
			"name":"Cube.003",
			"primitives":[
				{
					"attributes":{
						"POSITION":0,
						"NORMAL":1,
						"TEXCOORD_0":2
					},
					"indices":3,
					"material":0
				}
			]
		},
		{
			"name":"Cube.065",
			"primitives":[
				{
					"attributes":{
						"POSITION":4,
						"NORMAL":5,
						"TEXCOORD_0":6
					},
					"indices":7,
					"material":0
				}
			]
		},
		{
			"name":"Cube.066",
			"primitives":[
				{
					"attributes":{
						"POSITION":8,
						"NORMAL":9,
						"TEXCOORD_0":10
					},
					"indices":11,
					"material":0
				}
			]
		},
		{
			"name":"Cube.067",
			"primitives":[
				{
					"attributes":{
						"POSITION":12,
						"NORMAL":13,
						"TEXCOORD_0":14
					},
					"indices":15,
					"material":0
				}
			]
		},
		{
			"name":"Cube.068",
			"primitives":[
				{
					"attributes":{
						"POSITION":16,
						"NORMAL":17,
						"TEXCOORD_0":18
					},
					"indices":19,
					"material":0
				}
			]
		},
		{
			"name":"Cube.069",
			"primitives":[
				{
					"attributes":{
						"POSITION":20,
						"NORMAL":21,
						"TEXCOORD_0":22
					},
					"indices":23,
					"material":0
				}
			]
		}
	],
	"textures":[
		{
			"sampler":0,
			"source":0
		},
		{
			"sampler":0,
			"source":1
		},
		{
			"sampler":0,
			"source":2
		}
	],
	"images":[
		{
			"mimeType":"image/png",
			"name":"P_Box_1_n",
			"uri":"P_Box_1_n.png"
		},
		{
			"mimeType":"image/png",
			"name":"P_Box_1_bc",
			"uri":"P_Box_1_bc.png"
		},
		{
			"mimeType":"image/png",
			"name":"P_Box_1_m.png-P_Box_1_r.png",
			"uri":"P_Box_1_m_png-P_Box_1_r_png.png"
		}
	],
	"accessors":[
		{
			"bufferView":0,
			"componentType":5126,
			"count":24,
			"max":[
				0.5,
				0.020881442353129387,
				0.5
			],
			"min":[
				-0.5,
				-0.020881442353129387,
				-0.5
			],
			"type":"VEC3"
		},
		{
			"bufferView":1,
			"componentType":5126,
			"count":24,
			"type":"VEC3"
		},
		{
			"bufferView":2,
			"componentType":5126,
			"count":24,
			"type":"VEC2"
		},
		{
			"bufferView":3,
			"componentType":5123,
			"count":36,
			"type":"SCALAR"
		},
		{
			"bufferView":4,
			"componentType":5126,
			"count":96,
			"max":[
				0.4999786913394928,
				0.5000213384628296,
				0.04200097918510437
			],
			"min":[
				-0.5000212788581848,
				-0.49997878074645996,
				-0.0327775776386261
			],
			"type":"VEC3"
		},
		{
			"bufferView":5,
			"componentType":5126,
			"count":96,
			"type":"VEC3"
		},
		{
			"bufferView":6,
			"componentType":5126,
			"count":96,
			"type":"VEC2"
		},
		{
			"bufferView":7,
			"componentType":5123,
			"count":180,
			"type":"SCALAR"
		},
		{
			"bufferView":8,
			"componentType":5126,
			"count":96,
			"max":[
				0.4999452829360962,
				0.4999452531337738,
				0.04221999645233154
			],
			"min":[
				-0.5000547170639038,
				-0.5000547766685486,
				-0.05398750305175781
			],
			"type":"VEC3"
		},
		{
			"bufferView":9,
			"componentType":5126,
			"count":96,
			"type":"VEC3"
		},
		{
			"bufferView":10,
			"componentType":5126,
			"count":96,
			"type":"VEC2"
		},
		{
			"bufferView":11,
			"componentType":5123,
			"count":180,
			"type":"SCALAR"
		},
		{
			"bufferView":12,
			"componentType":5126,
			"count":72,
			"max":[
				0.03897169232368469,
				0.49999988079071045,
				0.5
			],
			"min":[
				-0.05385386943817139,
				-0.5000001788139343,
				-0.5
			],
			"type":"VEC3"
		},
		{
			"bufferView":13,
			"componentType":5126,
			"count":72,
			"type":"VEC3"
		},
		{
			"bufferView":14,
			"componentType":5126,
			"count":72,
			"type":"VEC2"
		},
		{
			"bufferView":15,
			"componentType":5123,
			"count":132,
			"type":"SCALAR"
		},
		{
			"bufferView":16,
			"componentType":5126,
			"count":72,
			"max":[
				0.0494171679019928,
				0.5000000596046448,
				0.5
			],
			"min":[
				-0.03531184792518616,
				-0.5,
				-0.5
			],
			"type":"VEC3"
		},
		{
			"bufferView":17,
			"componentType":5126,
			"count":72,
			"type":"VEC3"
		},
		{
			"bufferView":18,
			"componentType":5126,
			"count":72,
			"type":"VEC2"
		},
		{
			"bufferView":19,
			"componentType":5123,
			"count":132,
			"type":"SCALAR"
		},
		{
			"bufferView":20,
			"componentType":5126,
			"count":170,
			"max":[
				0.49993273615837097,
				0.04437953233718872,
				0.49995777010917664
			],
			"min":[
				-0.5000672936439514,
				-0.05109727382659912,
				-0.5000422596931458
			],
			"type":"VEC3"
		},
		{
			"bufferView":21,
			"componentType":5126,
			"count":170,
			"type":"VEC3"
		},
		{
			"bufferView":22,
			"componentType":5126,
			"count":170,
			"type":"VEC2"
		},
		{
			"bufferView":23,
			"componentType":5123,
			"count":336,
			"type":"SCALAR"
		}
	],
	"bufferViews":[
		{
			"buffer":0,
			"byteLength":288,
			"byteOffset":0,
			"target":34962
		},
		{
			"buffer":0,
			"byteLength":288,
			"byteOffset":288,
			"target":34962
		},
		{
			"buffer":0,
			"byteLength":192,
			"byteOffset":576,
			"target":34962
		},
		{
			"buffer":0,
			"byteLength":72,
			"byteOffset":768,
			"target":34963
		},
		{
			"buffer":0,
			"byteLength":1152,
			"byteOffset":840,
			"target":34962
		},
		{
			"buffer":0,
			"byteLength":1152,
			"byteOffset":1992,
			"target":34962
		},
		{
			"buffer":0,
			"byteLength":768,
			"byteOffset":3144,
			"target":34962
		},
		{
			"buffer":0,
			"byteLength":360,
			"byteOffset":3912,
			"target":34963
		},
		{
			"buffer":0,
			"byteLength":1152,
			"byteOffset":4272,
			"target":34962
		},
		{
			"buffer":0,
			"byteLength":1152,
			"byteOffset":5424,
			"target":34962
		},
		{
			"buffer":0,
			"byteLength":768,
			"byteOffset":6576,
			"target":34962
		},
		{
			"buffer":0,
			"byteLength":360,
			"byteOffset":7344,
			"target":34963
		},
		{
			"buffer":0,
			"byteLength":864,
			"byteOffset":7704,
			"target":34962
		},
		{
			"buffer":0,
			"byteLength":864,
			"byteOffset":8568,
			"target":34962
		},
		{
			"buffer":0,
			"byteLength":576,
			"byteOffset":9432,
			"target":34962
		},
		{
			"buffer":0,
			"byteLength":264,
			"byteOffset":10008,
			"target":34963
		},
		{
			"buffer":0,
			"byteLength":864,
			"byteOffset":10272,
			"target":34962
		},
		{
			"buffer":0,
			"byteLength":864,
			"byteOffset":11136,
			"target":34962
		},
		{
			"buffer":0,
			"byteLength":576,
			"byteOffset":12000,
			"target":34962
		},
		{
			"buffer":0,
			"byteLength":264,
			"byteOffset":12576,
			"target":34963
		},
		{
			"buffer":0,
			"byteLength":2040,
			"byteOffset":12840,
			"target":34962
		},
		{
			"buffer":0,
			"byteLength":2040,
			"byteOffset":14880,
			"target":34962
		},
		{
			"buffer":0,
			"byteLength":1360,
			"byteOffset":16920,
			"target":34962
		},
		{
			"buffer":0,
			"byteLength":672,
			"byteOffset":18280,
			"target":34963
		}
	],
	"samplers":[
		{
			"magFilter":9729,
			"minFilter":9987
		}
	],
	"buffers":[
		{
			"byteLength":18952,
			"uri":"P_Box1_Destroy.bin"
		}
	]
}
