{
	"asset":{
		"generator":"Khronos glTF Blender I/O v4.4.56",
		"version":"2.0"
	},
	"scene":0,
	"scenes":[
		{
			"name":"Scene",
			"nodes":[
				7
			]
		}
	],
	"nodes":[
		{
			"name":"ParateAlta",
			"translation":[
				0,
				0.28289085626602173,
				0
			]
		},
		{
			"children":[
				0
			],
			"name":"ParteBajaOnda",
			"translation":[
				0,
				0.329994261264801,
				0
			]
		},
		{
			"name":"Plano",
			"rotation":[
				1,
				0,
				7.549790126404332e-08,
				0
			],
			"translation":[
				0,
				0.329994261264801,
				0
			]
		},
		{
			"children":[
				1,
				2
			],
			"name":"BerserkAll",
			"rotation":[
				0,
				1.1920928955078125e-07,
				0,
				1
			]
		},
		{
			"mesh":0,
			"name":"Cylinder",
			"skin":0
		},
		{
			"mesh":1,
			"name":"Cylinder.001",
			"skin":0
		},
		{
			"mesh":2,
			"name":"Plane",
			"skin":0
		},
		{
			"children":[
				4,
				5,
				6,
				3
			],
			"name":"Armature.001"
		}
	],
	"animations":[
		{
			"channels":[
				{
					"sampler":0,
					"target":{
						"node":3,
						"path":"translation"
					}
				},
				{
					"sampler":1,
					"target":{
						"node":3,
						"path":"rotation"
					}
				},
				{
					"sampler":2,
					"target":{
						"node":3,
						"path":"scale"
					}
				},
				{
					"sampler":3,
					"target":{
						"node":1,
						"path":"translation"
					}
				},
				{
					"sampler":4,
					"target":{
						"node":1,
						"path":"rotation"
					}
				},
				{
					"sampler":5,
					"target":{
						"node":1,
						"path":"scale"
					}
				},
				{
					"sampler":6,
					"target":{
						"node":0,
						"path":"translation"
					}
				},
				{
					"sampler":7,
					"target":{
						"node":0,
						"path":"rotation"
					}
				},
				{
					"sampler":8,
					"target":{
						"node":0,
						"path":"scale"
					}
				},
				{
					"sampler":9,
					"target":{
						"node":2,
						"path":"translation"
					}
				},
				{
					"sampler":10,
					"target":{
						"node":2,
						"path":"rotation"
					}
				},
				{
					"sampler":11,
					"target":{
						"node":2,
						"path":"scale"
					}
				}
			],
			"name":"AttackPolv",
			"samplers":[
				{
					"input":18,
					"interpolation":"STEP",
					"output":19
				},
				{
					"input":18,
					"interpolation":"STEP",
					"output":20
				},
				{
					"input":18,
					"interpolation":"STEP",
					"output":21
				},
				{
					"input":18,
					"interpolation":"STEP",
					"output":22
				},
				{
					"input":18,
					"interpolation":"STEP",
					"output":23
				},
				{
					"input":18,
					"interpolation":"STEP",
					"output":24
				},
				{
					"input":18,
					"interpolation":"STEP",
					"output":25
				},
				{
					"input":18,
					"interpolation":"STEP",
					"output":26
				},
				{
					"input":18,
					"interpolation":"STEP",
					"output":27
				},
				{
					"input":18,
					"interpolation":"STEP",
					"output":28
				},
				{
					"input":29,
					"interpolation":"LINEAR",
					"output":30
				},
				{
					"input":29,
					"interpolation":"LINEAR",
					"output":31
				}
			]
		},
		{
			"channels":[
				{
					"sampler":0,
					"target":{
						"node":3,
						"path":"translation"
					}
				},
				{
					"sampler":1,
					"target":{
						"node":3,
						"path":"rotation"
					}
				},
				{
					"sampler":2,
					"target":{
						"node":3,
						"path":"scale"
					}
				},
				{
					"sampler":3,
					"target":{
						"node":1,
						"path":"translation"
					}
				},
				{
					"sampler":4,
					"target":{
						"node":1,
						"path":"rotation"
					}
				},
				{
					"sampler":5,
					"target":{
						"node":1,
						"path":"scale"
					}
				},
				{
					"sampler":6,
					"target":{
						"node":0,
						"path":"translation"
					}
				},
				{
					"sampler":7,
					"target":{
						"node":0,
						"path":"rotation"
					}
				},
				{
					"sampler":8,
					"target":{
						"node":0,
						"path":"scale"
					}
				},
				{
					"sampler":9,
					"target":{
						"node":2,
						"path":"translation"
					}
				},
				{
					"sampler":10,
					"target":{
						"node":2,
						"path":"rotation"
					}
				},
				{
					"sampler":11,
					"target":{
						"node":2,
						"path":"scale"
					}
				}
			],
			"name":"AttackTank",
			"samplers":[
				{
					"input":32,
					"interpolation":"STEP",
					"output":33
				},
				{
					"input":32,
					"interpolation":"STEP",
					"output":34
				},
				{
					"input":32,
					"interpolation":"STEP",
					"output":35
				},
				{
					"input":32,
					"interpolation":"STEP",
					"output":36
				},
				{
					"input":32,
					"interpolation":"STEP",
					"output":37
				},
				{
					"input":32,
					"interpolation":"STEP",
					"output":38
				},
				{
					"input":32,
					"interpolation":"STEP",
					"output":39
				},
				{
					"input":32,
					"interpolation":"STEP",
					"output":40
				},
				{
					"input":32,
					"interpolation":"STEP",
					"output":41
				},
				{
					"input":32,
					"interpolation":"STEP",
					"output":42
				},
				{
					"input":32,
					"interpolation":"STEP",
					"output":43
				},
				{
					"input":32,
					"interpolation":"STEP",
					"output":44
				}
			]
		},
		{
			"channels":[
				{
					"sampler":0,
					"target":{
						"node":3,
						"path":"translation"
					}
				},
				{
					"sampler":1,
					"target":{
						"node":3,
						"path":"rotation"
					}
				},
				{
					"sampler":2,
					"target":{
						"node":3,
						"path":"scale"
					}
				},
				{
					"sampler":3,
					"target":{
						"node":1,
						"path":"translation"
					}
				},
				{
					"sampler":4,
					"target":{
						"node":1,
						"path":"rotation"
					}
				},
				{
					"sampler":5,
					"target":{
						"node":1,
						"path":"scale"
					}
				},
				{
					"sampler":6,
					"target":{
						"node":0,
						"path":"translation"
					}
				},
				{
					"sampler":7,
					"target":{
						"node":0,
						"path":"rotation"
					}
				},
				{
					"sampler":8,
					"target":{
						"node":0,
						"path":"scale"
					}
				},
				{
					"sampler":9,
					"target":{
						"node":2,
						"path":"translation"
					}
				},
				{
					"sampler":10,
					"target":{
						"node":2,
						"path":"rotation"
					}
				},
				{
					"sampler":11,
					"target":{
						"node":2,
						"path":"scale"
					}
				}
			],
			"name":"BerserkParticles",
			"samplers":[
				{
					"input":45,
					"interpolation":"STEP",
					"output":46
				},
				{
					"input":47,
					"interpolation":"LINEAR",
					"output":48
				},
				{
					"input":47,
					"interpolation":"LINEAR",
					"output":49
				},
				{
					"input":47,
					"interpolation":"LINEAR",
					"output":50
				},
				{
					"input":45,
					"interpolation":"STEP",
					"output":51
				},
				{
					"input":47,
					"interpolation":"LINEAR",
					"output":52
				},
				{
					"input":47,
					"interpolation":"LINEAR",
					"output":53
				},
				{
					"input":47,
					"interpolation":"LINEAR",
					"output":54
				},
				{
					"input":47,
					"interpolation":"LINEAR",
					"output":55
				},
				{
					"input":47,
					"interpolation":"LINEAR",
					"output":56
				},
				{
					"input":47,
					"interpolation":"LINEAR",
					"output":57
				},
				{
					"input":47,
					"interpolation":"LINEAR",
					"output":58
				}
			]
		},
		{
			"channels":[
				{
					"sampler":0,
					"target":{
						"node":3,
						"path":"translation"
					}
				},
				{
					"sampler":1,
					"target":{
						"node":3,
						"path":"rotation"
					}
				},
				{
					"sampler":2,
					"target":{
						"node":3,
						"path":"scale"
					}
				},
				{
					"sampler":3,
					"target":{
						"node":1,
						"path":"translation"
					}
				},
				{
					"sampler":4,
					"target":{
						"node":1,
						"path":"rotation"
					}
				},
				{
					"sampler":5,
					"target":{
						"node":1,
						"path":"scale"
					}
				},
				{
					"sampler":6,
					"target":{
						"node":0,
						"path":"translation"
					}
				},
				{
					"sampler":7,
					"target":{
						"node":0,
						"path":"rotation"
					}
				},
				{
					"sampler":8,
					"target":{
						"node":0,
						"path":"scale"
					}
				},
				{
					"sampler":9,
					"target":{
						"node":2,
						"path":"translation"
					}
				},
				{
					"sampler":10,
					"target":{
						"node":2,
						"path":"rotation"
					}
				},
				{
					"sampler":11,
					"target":{
						"node":2,
						"path":"scale"
					}
				}
			],
			"name":"BerserkTank.001",
			"samplers":[
				{
					"input":32,
					"interpolation":"STEP",
					"output":59
				},
				{
					"input":32,
					"interpolation":"STEP",
					"output":60
				},
				{
					"input":32,
					"interpolation":"STEP",
					"output":61
				},
				{
					"input":32,
					"interpolation":"STEP",
					"output":62
				},
				{
					"input":32,
					"interpolation":"STEP",
					"output":63
				},
				{
					"input":32,
					"interpolation":"STEP",
					"output":64
				},
				{
					"input":32,
					"interpolation":"STEP",
					"output":65
				},
				{
					"input":32,
					"interpolation":"STEP",
					"output":66
				},
				{
					"input":32,
					"interpolation":"STEP",
					"output":67
				},
				{
					"input":32,
					"interpolation":"STEP",
					"output":68
				},
				{
					"input":32,
					"interpolation":"STEP",
					"output":69
				},
				{
					"input":32,
					"interpolation":"STEP",
					"output":70
				}
			]
		},
		{
			"channels":[
				{
					"sampler":0,
					"target":{
						"node":3,
						"path":"translation"
					}
				},
				{
					"sampler":1,
					"target":{
						"node":3,
						"path":"rotation"
					}
				},
				{
					"sampler":2,
					"target":{
						"node":3,
						"path":"scale"
					}
				},
				{
					"sampler":3,
					"target":{
						"node":1,
						"path":"translation"
					}
				},
				{
					"sampler":4,
					"target":{
						"node":1,
						"path":"rotation"
					}
				},
				{
					"sampler":5,
					"target":{
						"node":1,
						"path":"scale"
					}
				},
				{
					"sampler":6,
					"target":{
						"node":0,
						"path":"translation"
					}
				},
				{
					"sampler":7,
					"target":{
						"node":0,
						"path":"rotation"
					}
				},
				{
					"sampler":8,
					"target":{
						"node":0,
						"path":"scale"
					}
				},
				{
					"sampler":9,
					"target":{
						"node":2,
						"path":"translation"
					}
				},
				{
					"sampler":10,
					"target":{
						"node":2,
						"path":"rotation"
					}
				},
				{
					"sampler":11,
					"target":{
						"node":2,
						"path":"scale"
					}
				}
			],
			"name":"DashTank",
			"samplers":[
				{
					"input":71,
					"interpolation":"STEP",
					"output":72
				},
				{
					"input":71,
					"interpolation":"STEP",
					"output":73
				},
				{
					"input":71,
					"interpolation":"STEP",
					"output":74
				},
				{
					"input":71,
					"interpolation":"STEP",
					"output":75
				},
				{
					"input":71,
					"interpolation":"STEP",
					"output":76
				},
				{
					"input":71,
					"interpolation":"STEP",
					"output":77
				},
				{
					"input":71,
					"interpolation":"STEP",
					"output":78
				},
				{
					"input":71,
					"interpolation":"STEP",
					"output":79
				},
				{
					"input":71,
					"interpolation":"STEP",
					"output":80
				},
				{
					"input":71,
					"interpolation":"STEP",
					"output":81
				},
				{
					"input":71,
					"interpolation":"STEP",
					"output":82
				},
				{
					"input":71,
					"interpolation":"STEP",
					"output":83
				}
			]
		},
		{
			"channels":[
				{
					"sampler":0,
					"target":{
						"node":3,
						"path":"translation"
					}
				},
				{
					"sampler":1,
					"target":{
						"node":3,
						"path":"rotation"
					}
				},
				{
					"sampler":2,
					"target":{
						"node":3,
						"path":"scale"
					}
				},
				{
					"sampler":3,
					"target":{
						"node":1,
						"path":"translation"
					}
				},
				{
					"sampler":4,
					"target":{
						"node":1,
						"path":"rotation"
					}
				},
				{
					"sampler":5,
					"target":{
						"node":1,
						"path":"scale"
					}
				},
				{
					"sampler":6,
					"target":{
						"node":0,
						"path":"translation"
					}
				},
				{
					"sampler":7,
					"target":{
						"node":0,
						"path":"rotation"
					}
				},
				{
					"sampler":8,
					"target":{
						"node":0,
						"path":"scale"
					}
				},
				{
					"sampler":9,
					"target":{
						"node":2,
						"path":"translation"
					}
				},
				{
					"sampler":10,
					"target":{
						"node":2,
						"path":"rotation"
					}
				},
				{
					"sampler":11,
					"target":{
						"node":2,
						"path":"scale"
					}
				}
			],
			"name":"DeadTank",
			"samplers":[
				{
					"input":84,
					"interpolation":"STEP",
					"output":85
				},
				{
					"input":84,
					"interpolation":"STEP",
					"output":86
				},
				{
					"input":84,
					"interpolation":"STEP",
					"output":87
				},
				{
					"input":84,
					"interpolation":"STEP",
					"output":88
				},
				{
					"input":84,
					"interpolation":"STEP",
					"output":89
				},
				{
					"input":84,
					"interpolation":"STEP",
					"output":90
				},
				{
					"input":84,
					"interpolation":"STEP",
					"output":91
				},
				{
					"input":84,
					"interpolation":"STEP",
					"output":92
				},
				{
					"input":84,
					"interpolation":"STEP",
					"output":93
				},
				{
					"input":84,
					"interpolation":"STEP",
					"output":94
				},
				{
					"input":84,
					"interpolation":"STEP",
					"output":95
				},
				{
					"input":84,
					"interpolation":"STEP",
					"output":96
				}
			]
		},
		{
			"channels":[
				{
					"sampler":0,
					"target":{
						"node":3,
						"path":"translation"
					}
				},
				{
					"sampler":1,
					"target":{
						"node":3,
						"path":"rotation"
					}
				},
				{
					"sampler":2,
					"target":{
						"node":3,
						"path":"scale"
					}
				},
				{
					"sampler":3,
					"target":{
						"node":1,
						"path":"translation"
					}
				},
				{
					"sampler":4,
					"target":{
						"node":1,
						"path":"rotation"
					}
				},
				{
					"sampler":5,
					"target":{
						"node":1,
						"path":"scale"
					}
				},
				{
					"sampler":6,
					"target":{
						"node":0,
						"path":"translation"
					}
				},
				{
					"sampler":7,
					"target":{
						"node":0,
						"path":"rotation"
					}
				},
				{
					"sampler":8,
					"target":{
						"node":0,
						"path":"scale"
					}
				},
				{
					"sampler":9,
					"target":{
						"node":2,
						"path":"translation"
					}
				},
				{
					"sampler":10,
					"target":{
						"node":2,
						"path":"rotation"
					}
				},
				{
					"sampler":11,
					"target":{
						"node":2,
						"path":"scale"
					}
				}
			],
			"name":"DetectTank",
			"samplers":[
				{
					"input":97,
					"interpolation":"STEP",
					"output":98
				},
				{
					"input":97,
					"interpolation":"STEP",
					"output":99
				},
				{
					"input":97,
					"interpolation":"STEP",
					"output":100
				},
				{
					"input":97,
					"interpolation":"STEP",
					"output":101
				},
				{
					"input":97,
					"interpolation":"STEP",
					"output":102
				},
				{
					"input":97,
					"interpolation":"STEP",
					"output":103
				},
				{
					"input":97,
					"interpolation":"STEP",
					"output":104
				},
				{
					"input":97,
					"interpolation":"STEP",
					"output":105
				},
				{
					"input":97,
					"interpolation":"STEP",
					"output":106
				},
				{
					"input":97,
					"interpolation":"STEP",
					"output":107
				},
				{
					"input":97,
					"interpolation":"STEP",
					"output":108
				},
				{
					"input":97,
					"interpolation":"STEP",
					"output":109
				}
			]
		},
		{
			"channels":[
				{
					"sampler":0,
					"target":{
						"node":3,
						"path":"translation"
					}
				},
				{
					"sampler":1,
					"target":{
						"node":3,
						"path":"rotation"
					}
				},
				{
					"sampler":2,
					"target":{
						"node":3,
						"path":"scale"
					}
				},
				{
					"sampler":3,
					"target":{
						"node":1,
						"path":"translation"
					}
				},
				{
					"sampler":4,
					"target":{
						"node":1,
						"path":"rotation"
					}
				},
				{
					"sampler":5,
					"target":{
						"node":1,
						"path":"scale"
					}
				},
				{
					"sampler":6,
					"target":{
						"node":0,
						"path":"translation"
					}
				},
				{
					"sampler":7,
					"target":{
						"node":0,
						"path":"rotation"
					}
				},
				{
					"sampler":8,
					"target":{
						"node":0,
						"path":"scale"
					}
				},
				{
					"sampler":9,
					"target":{
						"node":2,
						"path":"translation"
					}
				},
				{
					"sampler":10,
					"target":{
						"node":2,
						"path":"rotation"
					}
				},
				{
					"sampler":11,
					"target":{
						"node":2,
						"path":"scale"
					}
				}
			],
			"name":"HitTank",
			"samplers":[
				{
					"input":84,
					"interpolation":"STEP",
					"output":110
				},
				{
					"input":84,
					"interpolation":"STEP",
					"output":111
				},
				{
					"input":84,
					"interpolation":"STEP",
					"output":112
				},
				{
					"input":84,
					"interpolation":"STEP",
					"output":113
				},
				{
					"input":84,
					"interpolation":"STEP",
					"output":114
				},
				{
					"input":84,
					"interpolation":"STEP",
					"output":115
				},
				{
					"input":84,
					"interpolation":"STEP",
					"output":116
				},
				{
					"input":84,
					"interpolation":"STEP",
					"output":117
				},
				{
					"input":84,
					"interpolation":"STEP",
					"output":118
				},
				{
					"input":84,
					"interpolation":"STEP",
					"output":119
				},
				{
					"input":84,
					"interpolation":"STEP",
					"output":120
				},
				{
					"input":84,
					"interpolation":"STEP",
					"output":121
				}
			]
		},
		{
			"channels":[
				{
					"sampler":0,
					"target":{
						"node":3,
						"path":"translation"
					}
				},
				{
					"sampler":1,
					"target":{
						"node":3,
						"path":"rotation"
					}
				},
				{
					"sampler":2,
					"target":{
						"node":3,
						"path":"scale"
					}
				},
				{
					"sampler":3,
					"target":{
						"node":1,
						"path":"translation"
					}
				},
				{
					"sampler":4,
					"target":{
						"node":1,
						"path":"rotation"
					}
				},
				{
					"sampler":5,
					"target":{
						"node":1,
						"path":"scale"
					}
				},
				{
					"sampler":6,
					"target":{
						"node":0,
						"path":"translation"
					}
				},
				{
					"sampler":7,
					"target":{
						"node":0,
						"path":"rotation"
					}
				},
				{
					"sampler":8,
					"target":{
						"node":0,
						"path":"scale"
					}
				},
				{
					"sampler":9,
					"target":{
						"node":2,
						"path":"translation"
					}
				},
				{
					"sampler":10,
					"target":{
						"node":2,
						"path":"rotation"
					}
				},
				{
					"sampler":11,
					"target":{
						"node":2,
						"path":"scale"
					}
				}
			],
			"name":"Idle",
			"samplers":[
				{
					"input":122,
					"interpolation":"STEP",
					"output":123
				},
				{
					"input":122,
					"interpolation":"STEP",
					"output":124
				},
				{
					"input":122,
					"interpolation":"STEP",
					"output":125
				},
				{
					"input":122,
					"interpolation":"STEP",
					"output":126
				},
				{
					"input":122,
					"interpolation":"STEP",
					"output":127
				},
				{
					"input":122,
					"interpolation":"STEP",
					"output":128
				},
				{
					"input":122,
					"interpolation":"STEP",
					"output":129
				},
				{
					"input":122,
					"interpolation":"STEP",
					"output":130
				},
				{
					"input":122,
					"interpolation":"STEP",
					"output":131
				},
				{
					"input":122,
					"interpolation":"STEP",
					"output":132
				},
				{
					"input":122,
					"interpolation":"STEP",
					"output":133
				},
				{
					"input":122,
					"interpolation":"STEP",
					"output":134
				}
			]
		},
		{
			"channels":[
				{
					"sampler":0,
					"target":{
						"node":3,
						"path":"translation"
					}
				},
				{
					"sampler":1,
					"target":{
						"node":3,
						"path":"rotation"
					}
				},
				{
					"sampler":2,
					"target":{
						"node":3,
						"path":"scale"
					}
				},
				{
					"sampler":3,
					"target":{
						"node":1,
						"path":"translation"
					}
				},
				{
					"sampler":4,
					"target":{
						"node":1,
						"path":"rotation"
					}
				},
				{
					"sampler":5,
					"target":{
						"node":1,
						"path":"scale"
					}
				},
				{
					"sampler":6,
					"target":{
						"node":0,
						"path":"translation"
					}
				},
				{
					"sampler":7,
					"target":{
						"node":0,
						"path":"rotation"
					}
				},
				{
					"sampler":8,
					"target":{
						"node":0,
						"path":"scale"
					}
				},
				{
					"sampler":9,
					"target":{
						"node":2,
						"path":"translation"
					}
				},
				{
					"sampler":10,
					"target":{
						"node":2,
						"path":"rotation"
					}
				},
				{
					"sampler":11,
					"target":{
						"node":2,
						"path":"scale"
					}
				}
			],
			"name":"IdleTank.001",
			"samplers":[
				{
					"input":135,
					"interpolation":"STEP",
					"output":136
				},
				{
					"input":135,
					"interpolation":"STEP",
					"output":137
				},
				{
					"input":135,
					"interpolation":"STEP",
					"output":138
				},
				{
					"input":135,
					"interpolation":"STEP",
					"output":139
				},
				{
					"input":135,
					"interpolation":"STEP",
					"output":140
				},
				{
					"input":135,
					"interpolation":"STEP",
					"output":141
				},
				{
					"input":135,
					"interpolation":"STEP",
					"output":142
				},
				{
					"input":135,
					"interpolation":"STEP",
					"output":143
				},
				{
					"input":135,
					"interpolation":"STEP",
					"output":144
				},
				{
					"input":135,
					"interpolation":"STEP",
					"output":145
				},
				{
					"input":135,
					"interpolation":"STEP",
					"output":146
				},
				{
					"input":135,
					"interpolation":"STEP",
					"output":147
				}
			]
		},
		{
			"channels":[
				{
					"sampler":0,
					"target":{
						"node":3,
						"path":"translation"
					}
				},
				{
					"sampler":1,
					"target":{
						"node":3,
						"path":"rotation"
					}
				},
				{
					"sampler":2,
					"target":{
						"node":3,
						"path":"scale"
					}
				},
				{
					"sampler":3,
					"target":{
						"node":1,
						"path":"translation"
					}
				},
				{
					"sampler":4,
					"target":{
						"node":1,
						"path":"rotation"
					}
				},
				{
					"sampler":5,
					"target":{
						"node":1,
						"path":"scale"
					}
				},
				{
					"sampler":6,
					"target":{
						"node":0,
						"path":"translation"
					}
				},
				{
					"sampler":7,
					"target":{
						"node":0,
						"path":"rotation"
					}
				},
				{
					"sampler":8,
					"target":{
						"node":0,
						"path":"scale"
					}
				},
				{
					"sampler":9,
					"target":{
						"node":2,
						"path":"translation"
					}
				},
				{
					"sampler":10,
					"target":{
						"node":2,
						"path":"rotation"
					}
				},
				{
					"sampler":11,
					"target":{
						"node":2,
						"path":"scale"
					}
				}
			],
			"name":"StuneTank",
			"samplers":[
				{
					"input":148,
					"interpolation":"STEP",
					"output":149
				},
				{
					"input":148,
					"interpolation":"STEP",
					"output":150
				},
				{
					"input":148,
					"interpolation":"STEP",
					"output":151
				},
				{
					"input":148,
					"interpolation":"STEP",
					"output":152
				},
				{
					"input":148,
					"interpolation":"STEP",
					"output":153
				},
				{
					"input":148,
					"interpolation":"STEP",
					"output":154
				},
				{
					"input":148,
					"interpolation":"STEP",
					"output":155
				},
				{
					"input":148,
					"interpolation":"STEP",
					"output":156
				},
				{
					"input":148,
					"interpolation":"STEP",
					"output":157
				},
				{
					"input":148,
					"interpolation":"STEP",
					"output":158
				},
				{
					"input":148,
					"interpolation":"STEP",
					"output":159
				},
				{
					"input":148,
					"interpolation":"STEP",
					"output":160
				}
			]
		},
		{
			"channels":[
				{
					"sampler":0,
					"target":{
						"node":3,
						"path":"translation"
					}
				},
				{
					"sampler":1,
					"target":{
						"node":3,
						"path":"rotation"
					}
				},
				{
					"sampler":2,
					"target":{
						"node":3,
						"path":"scale"
					}
				},
				{
					"sampler":3,
					"target":{
						"node":1,
						"path":"translation"
					}
				},
				{
					"sampler":4,
					"target":{
						"node":1,
						"path":"rotation"
					}
				},
				{
					"sampler":5,
					"target":{
						"node":1,
						"path":"scale"
					}
				},
				{
					"sampler":6,
					"target":{
						"node":0,
						"path":"translation"
					}
				},
				{
					"sampler":7,
					"target":{
						"node":0,
						"path":"rotation"
					}
				},
				{
					"sampler":8,
					"target":{
						"node":0,
						"path":"scale"
					}
				},
				{
					"sampler":9,
					"target":{
						"node":2,
						"path":"translation"
					}
				},
				{
					"sampler":10,
					"target":{
						"node":2,
						"path":"rotation"
					}
				},
				{
					"sampler":11,
					"target":{
						"node":2,
						"path":"scale"
					}
				}
			],
			"name":"WaaghTank",
			"samplers":[
				{
					"input":161,
					"interpolation":"STEP",
					"output":162
				},
				{
					"input":161,
					"interpolation":"STEP",
					"output":163
				},
				{
					"input":161,
					"interpolation":"STEP",
					"output":164
				},
				{
					"input":161,
					"interpolation":"STEP",
					"output":165
				},
				{
					"input":161,
					"interpolation":"STEP",
					"output":166
				},
				{
					"input":161,
					"interpolation":"STEP",
					"output":167
				},
				{
					"input":161,
					"interpolation":"STEP",
					"output":168
				},
				{
					"input":161,
					"interpolation":"STEP",
					"output":169
				},
				{
					"input":161,
					"interpolation":"STEP",
					"output":170
				},
				{
					"input":161,
					"interpolation":"STEP",
					"output":171
				},
				{
					"input":161,
					"interpolation":"STEP",
					"output":172
				},
				{
					"input":161,
					"interpolation":"STEP",
					"output":173
				}
			]
		},
		{
			"channels":[
				{
					"sampler":0,
					"target":{
						"node":3,
						"path":"translation"
					}
				},
				{
					"sampler":1,
					"target":{
						"node":3,
						"path":"rotation"
					}
				},
				{
					"sampler":2,
					"target":{
						"node":3,
						"path":"scale"
					}
				},
				{
					"sampler":3,
					"target":{
						"node":1,
						"path":"translation"
					}
				},
				{
					"sampler":4,
					"target":{
						"node":1,
						"path":"rotation"
					}
				},
				{
					"sampler":5,
					"target":{
						"node":1,
						"path":"scale"
					}
				},
				{
					"sampler":6,
					"target":{
						"node":0,
						"path":"translation"
					}
				},
				{
					"sampler":7,
					"target":{
						"node":0,
						"path":"rotation"
					}
				},
				{
					"sampler":8,
					"target":{
						"node":0,
						"path":"scale"
					}
				},
				{
					"sampler":9,
					"target":{
						"node":2,
						"path":"translation"
					}
				},
				{
					"sampler":10,
					"target":{
						"node":2,
						"path":"rotation"
					}
				},
				{
					"sampler":11,
					"target":{
						"node":2,
						"path":"scale"
					}
				}
			],
			"name":"WalkTank",
			"samplers":[
				{
					"input":32,
					"interpolation":"STEP",
					"output":174
				},
				{
					"input":32,
					"interpolation":"STEP",
					"output":175
				},
				{
					"input":32,
					"interpolation":"STEP",
					"output":176
				},
				{
					"input":32,
					"interpolation":"STEP",
					"output":177
				},
				{
					"input":32,
					"interpolation":"STEP",
					"output":178
				},
				{
					"input":32,
					"interpolation":"STEP",
					"output":179
				},
				{
					"input":32,
					"interpolation":"STEP",
					"output":180
				},
				{
					"input":32,
					"interpolation":"STEP",
					"output":181
				},
				{
					"input":32,
					"interpolation":"STEP",
					"output":182
				},
				{
					"input":32,
					"interpolation":"STEP",
					"output":183
				},
				{
					"input":32,
					"interpolation":"STEP",
					"output":184
				},
				{
					"input":32,
					"interpolation":"STEP",
					"output":185
				}
			]
		}
	],
	"materials":[
		{
			"alphaMode":"BLEND",
			"doubleSided":true,
			"emissiveTexture":{
				"index":0
			},
			"name":"BerserkPart",
			"pbrMetallicRoughness":{
				"baseColorTexture":{
					"index":1
				},
				"metallicFactor":0
			}
		}
	],
	"meshes":[
		{
			"name":"Cylinder.001",
			"primitives":[
				{
					"attributes":{
						"POSITION":0,
						"NORMAL":1,
						"TEXCOORD_0":2,
						"JOINTS_0":3,
						"WEIGHTS_0":4
					},
					"indices":5,
					"material":0
				}
			]
		},
		{
			"name":"Cylinder.002",
			"primitives":[
				{
					"attributes":{
						"POSITION":7,
						"NORMAL":8,
						"TEXCOORD_0":9,
						"JOINTS_0":10,
						"WEIGHTS_0":11
					},
					"indices":5,
					"material":0
				}
			]
		},
		{
			"name":"Plane",
			"primitives":[
				{
					"attributes":{
						"POSITION":12,
						"NORMAL":13,
						"TEXCOORD_0":14,
						"JOINTS_0":15,
						"WEIGHTS_0":16
					},
					"indices":17,
					"material":0
				}
			]
		}
	],
	"textures":[
		{
			"sampler":0,
			"source":0
		},
		{
			"sampler":0,
			"source":0
		}
	],
	"images":[
		{
			"mimeType":"image/png",
			"name":"ParticulaTankBerserk",
			"uri":"ParticulaTankBerserk.png"
		}
	],
	"skins":[
		{
			"inverseBindMatrices":6,
			"joints":[
				3,
				1,
				0,
				2
			],
			"name":"Armature.001"
		}
	],
	"accessors":[
		{
			"bufferView":0,
			"componentType":5126,
			"count":52,
			"max":[
				1.2494781017303467,
				2.4029104709625244,
				1.2220808267593384
			],
			"min":[
				-1.2494781017303467,
				-0.06419280171394348,
				-1.258655071258545
			],
			"type":"VEC3"
		},
		{
			"bufferView":1,
			"componentType":5126,
			"count":52,
			"type":"VEC3"
		},
		{
			"bufferView":2,
			"componentType":5126,
			"count":52,
			"type":"VEC2"
		},
		{
			"bufferView":3,
			"componentType":5121,
			"count":52,
			"type":"VEC4"
		},
		{
			"bufferView":4,
			"componentType":5126,
			"count":52,
			"type":"VEC4"
		},
		{
			"bufferView":5,
			"componentType":5123,
			"count":78,
			"type":"SCALAR"
		},
		{
			"bufferView":6,
			"componentType":5126,
			"count":4,
			"type":"MAT4"
		},
		{
			"bufferView":7,
			"componentType":5126,
			"count":52,
			"max":[
				1.628279209136963,
				1.4898757934570312,
				1.592576026916504
			],
			"min":[
				-1.628279209136963,
				-0.05947259068489075,
				-1.6402384042739868
			],
			"type":"VEC3"
		},
		{
			"bufferView":8,
			"componentType":5126,
			"count":52,
			"type":"VEC3"
		},
		{
			"bufferView":9,
			"componentType":5126,
			"count":52,
			"type":"VEC2"
		},
		{
			"bufferView":10,
			"componentType":5121,
			"count":52,
			"type":"VEC4"
		},
		{
			"bufferView":11,
			"componentType":5126,
			"count":52,
			"type":"VEC4"
		},
		{
			"bufferView":12,
			"componentType":5126,
			"count":4,
			"max":[
				1.8272377252578735,
				-0.004721641540527344,
				1.8272377252578735
			],
			"min":[
				-1.8272377252578735,
				-0.004721641540527344,
				-1.8272377252578735
			],
			"type":"VEC3"
		},
		{
			"bufferView":13,
			"componentType":5126,
			"count":4,
			"type":"VEC3"
		},
		{
			"bufferView":14,
			"componentType":5126,
			"count":4,
			"type":"VEC2"
		},
		{
			"bufferView":15,
			"componentType":5121,
			"count":4,
			"type":"VEC4"
		},
		{
			"bufferView":16,
			"componentType":5126,
			"count":4,
			"type":"VEC4"
		},
		{
			"bufferView":17,
			"componentType":5123,
			"count":6,
			"type":"SCALAR"
		},
		{
			"bufferView":18,
			"componentType":5126,
			"count":2,
			"max":[
				1.7666666666666666
			],
			"min":[
				0
			],
			"type":"SCALAR"
		},
		{
			"bufferView":19,
			"componentType":5126,
			"count":2,
			"type":"VEC3"
		},
		{
			"bufferView":20,
			"componentType":5126,
			"count":2,
			"type":"VEC4"
		},
		{
			"bufferView":21,
			"componentType":5126,
			"count":2,
			"type":"VEC3"
		},
		{
			"bufferView":22,
			"componentType":5126,
			"count":2,
			"type":"VEC3"
		},
		{
			"bufferView":23,
			"componentType":5126,
			"count":2,
			"type":"VEC4"
		},
		{
			"bufferView":24,
			"componentType":5126,
			"count":2,
			"type":"VEC3"
		},
		{
			"bufferView":25,
			"componentType":5126,
			"count":2,
			"type":"VEC3"
		},
		{
			"bufferView":26,
			"componentType":5126,
			"count":2,
			"type":"VEC4"
		},
		{
			"bufferView":27,
			"componentType":5126,
			"count":2,
			"type":"VEC3"
		},
		{
			"bufferView":28,
			"componentType":5126,
			"count":2,
			"type":"VEC3"
		},
		{
			"bufferView":29,
			"componentType":5126,
			"count":107,
			"max":[
				1.7666666666666666
			],
			"min":[
				0
			],
			"type":"SCALAR"
		},
		{
			"bufferView":30,
			"componentType":5126,
			"count":107,
			"type":"VEC4"
		},
		{
			"bufferView":31,
			"componentType":5126,
			"count":107,
			"type":"VEC3"
		},
		{
			"bufferView":32,
			"componentType":5126,
			"count":2,
			"max":[
				1.9833333333333334
			],
			"min":[
				0
			],
			"type":"SCALAR"
		},
		{
			"bufferView":33,
			"componentType":5126,
			"count":2,
			"type":"VEC3"
		},
		{
			"bufferView":34,
			"componentType":5126,
			"count":2,
			"type":"VEC4"
		},
		{
			"bufferView":35,
			"componentType":5126,
			"count":2,
			"type":"VEC3"
		},
		{
			"bufferView":36,
			"componentType":5126,
			"count":2,
			"type":"VEC3"
		},
		{
			"bufferView":37,
			"componentType":5126,
			"count":2,
			"type":"VEC4"
		},
		{
			"bufferView":38,
			"componentType":5126,
			"count":2,
			"type":"VEC3"
		},
		{
			"bufferView":39,
			"componentType":5126,
			"count":2,
			"type":"VEC3"
		},
		{
			"bufferView":40,
			"componentType":5126,
			"count":2,
			"type":"VEC4"
		},
		{
			"bufferView":41,
			"componentType":5126,
			"count":2,
			"type":"VEC3"
		},
		{
			"bufferView":42,
			"componentType":5126,
			"count":2,
			"type":"VEC3"
		},
		{
			"bufferView":43,
			"componentType":5126,
			"count":2,
			"type":"VEC4"
		},
		{
			"bufferView":44,
			"componentType":5126,
			"count":2,
			"type":"VEC3"
		},
		{
			"bufferView":45,
			"componentType":5126,
			"count":2,
			"max":[
				2
			],
			"min":[
				0
			],
			"type":"SCALAR"
		},
		{
			"bufferView":46,
			"componentType":5126,
			"count":2,
			"type":"VEC3"
		},
		{
			"bufferView":47,
			"componentType":5126,
			"count":121,
			"max":[
				2
			],
			"min":[
				0
			],
			"type":"SCALAR"
		},
		{
			"bufferView":48,
			"componentType":5126,
			"count":121,
			"type":"VEC4"
		},
		{
			"bufferView":49,
			"componentType":5126,
			"count":121,
			"type":"VEC3"
		},
		{
			"bufferView":50,
			"componentType":5126,
			"count":121,
			"type":"VEC3"
		},
		{
			"bufferView":51,
			"componentType":5126,
			"count":2,
			"type":"VEC4"
		},
		{
			"bufferView":52,
			"componentType":5126,
			"count":121,
			"type":"VEC3"
		},
		{
			"bufferView":53,
			"componentType":5126,
			"count":121,
			"type":"VEC3"
		},
		{
			"bufferView":54,
			"componentType":5126,
			"count":121,
			"type":"VEC4"
		},
		{
			"bufferView":55,
			"componentType":5126,
			"count":121,
			"type":"VEC3"
		},
		{
			"bufferView":56,
			"componentType":5126,
			"count":121,
			"type":"VEC3"
		},
		{
			"bufferView":57,
			"componentType":5126,
			"count":121,
			"type":"VEC4"
		},
		{
			"bufferView":58,
			"componentType":5126,
			"count":121,
			"type":"VEC3"
		},
		{
			"bufferView":59,
			"componentType":5126,
			"count":2,
			"type":"VEC3"
		},
		{
			"bufferView":60,
			"componentType":5126,
			"count":2,
			"type":"VEC4"
		},
		{
			"bufferView":61,
			"componentType":5126,
			"count":2,
			"type":"VEC3"
		},
		{
			"bufferView":62,
			"componentType":5126,
			"count":2,
			"type":"VEC3"
		},
		{
			"bufferView":63,
			"componentType":5126,
			"count":2,
			"type":"VEC4"
		},
		{
			"bufferView":64,
			"componentType":5126,
			"count":2,
			"type":"VEC3"
		},
		{
			"bufferView":65,
			"componentType":5126,
			"count":2,
			"type":"VEC3"
		},
		{
			"bufferView":66,
			"componentType":5126,
			"count":2,
			"type":"VEC4"
		},
		{
			"bufferView":67,
			"componentType":5126,
			"count":2,
			"type":"VEC3"
		},
		{
			"bufferView":68,
			"componentType":5126,
			"count":2,
			"type":"VEC3"
		},
		{
			"bufferView":69,
			"componentType":5126,
			"count":2,
			"type":"VEC4"
		},
		{
			"bufferView":70,
			"componentType":5126,
			"count":2,
			"type":"VEC3"
		},
		{
			"bufferView":71,
			"componentType":5126,
			"count":2,
			"max":[
				0.9833333333333333
			],
			"min":[
				0
			],
			"type":"SCALAR"
		},
		{
			"bufferView":72,
			"componentType":5126,
			"count":2,
			"type":"VEC3"
		},
		{
			"bufferView":73,
			"componentType":5126,
			"count":2,
			"type":"VEC4"
		},
		{
			"bufferView":74,
			"componentType":5126,
			"count":2,
			"type":"VEC3"
		},
		{
			"bufferView":75,
			"componentType":5126,
			"count":2,
			"type":"VEC3"
		},
		{
			"bufferView":76,
			"componentType":5126,
			"count":2,
			"type":"VEC4"
		},
		{
			"bufferView":77,
			"componentType":5126,
			"count":2,
			"type":"VEC3"
		},
		{
			"bufferView":78,
			"componentType":5126,
			"count":2,
			"type":"VEC3"
		},
		{
			"bufferView":79,
			"componentType":5126,
			"count":2,
			"type":"VEC4"
		},
		{
			"bufferView":80,
			"componentType":5126,
			"count":2,
			"type":"VEC3"
		},
		{
			"bufferView":81,
			"componentType":5126,
			"count":2,
			"type":"VEC3"
		},
		{
			"bufferView":82,
			"componentType":5126,
			"count":2,
			"type":"VEC4"
		},
		{
			"bufferView":83,
			"componentType":5126,
			"count":2,
			"type":"VEC3"
		},
		{
			"bufferView":84,
			"componentType":5126,
			"count":2,
			"max":[
				0.48333333333333334
			],
			"min":[
				0
			],
			"type":"SCALAR"
		},
		{
			"bufferView":85,
			"componentType":5126,
			"count":2,
			"type":"VEC3"
		},
		{
			"bufferView":86,
			"componentType":5126,
			"count":2,
			"type":"VEC4"
		},
		{
			"bufferView":87,
			"componentType":5126,
			"count":2,
			"type":"VEC3"
		},
		{
			"bufferView":88,
			"componentType":5126,
			"count":2,
			"type":"VEC3"
		},
		{
			"bufferView":89,
			"componentType":5126,
			"count":2,
			"type":"VEC4"
		},
		{
			"bufferView":90,
			"componentType":5126,
			"count":2,
			"type":"VEC3"
		},
		{
			"bufferView":91,
			"componentType":5126,
			"count":2,
			"type":"VEC3"
		},
		{
			"bufferView":92,
			"componentType":5126,
			"count":2,
			"type":"VEC4"
		},
		{
			"bufferView":93,
			"componentType":5126,
			"count":2,
			"type":"VEC3"
		},
		{
			"bufferView":94,
			"componentType":5126,
			"count":2,
			"type":"VEC3"
		},
		{
			"bufferView":95,
			"componentType":5126,
			"count":2,
			"type":"VEC4"
		},
		{
			"bufferView":96,
			"componentType":5126,
			"count":2,
			"type":"VEC3"
		},
		{
			"bufferView":97,
			"componentType":5126,
			"count":2,
			"max":[
				1.4833333333333334
			],
			"min":[
				0
			],
			"type":"SCALAR"
		},
		{
			"bufferView":98,
			"componentType":5126,
			"count":2,
			"type":"VEC3"
		},
		{
			"bufferView":99,
			"componentType":5126,
			"count":2,
			"type":"VEC4"
		},
		{
			"bufferView":100,
			"componentType":5126,
			"count":2,
			"type":"VEC3"
		},
		{
			"bufferView":101,
			"componentType":5126,
			"count":2,
			"type":"VEC3"
		},
		{
			"bufferView":102,
			"componentType":5126,
			"count":2,
			"type":"VEC4"
		},
		{
			"bufferView":103,
			"componentType":5126,
			"count":2,
			"type":"VEC3"
		},
		{
			"bufferView":104,
			"componentType":5126,
			"count":2,
			"type":"VEC3"
		},
		{
			"bufferView":105,
			"componentType":5126,
			"count":2,
			"type":"VEC4"
		},
		{
			"bufferView":106,
			"componentType":5126,
			"count":2,
			"type":"VEC3"
		},
		{
			"bufferView":107,
			"componentType":5126,
			"count":2,
			"type":"VEC3"
		},
		{
			"bufferView":108,
			"componentType":5126,
			"count":2,
			"type":"VEC4"
		},
		{
			"bufferView":109,
			"componentType":5126,
			"count":2,
			"type":"VEC3"
		},
		{
			"bufferView":110,
			"componentType":5126,
			"count":2,
			"type":"VEC3"
		},
		{
			"bufferView":111,
			"componentType":5126,
			"count":2,
			"type":"VEC4"
		},
		{
			"bufferView":112,
			"componentType":5126,
			"count":2,
			"type":"VEC3"
		},
		{
			"bufferView":113,
			"componentType":5126,
			"count":2,
			"type":"VEC3"
		},
		{
			"bufferView":114,
			"componentType":5126,
			"count":2,
			"type":"VEC4"
		},
		{
			"bufferView":115,
			"componentType":5126,
			"count":2,
			"type":"VEC3"
		},
		{
			"bufferView":116,
			"componentType":5126,
			"count":2,
			"type":"VEC3"
		},
		{
			"bufferView":117,
			"componentType":5126,
			"count":2,
			"type":"VEC4"
		},
		{
			"bufferView":118,
			"componentType":5126,
			"count":2,
			"type":"VEC3"
		},
		{
			"bufferView":119,
			"componentType":5126,
			"count":2,
			"type":"VEC3"
		},
		{
			"bufferView":120,
			"componentType":5126,
			"count":2,
			"type":"VEC4"
		},
		{
			"bufferView":121,
			"componentType":5126,
			"count":2,
			"type":"VEC3"
		},
		{
			"bufferView":122,
			"componentType":5126,
			"count":2,
			"max":[
				2.5
			],
			"min":[
				0
			],
			"type":"SCALAR"
		},
		{
			"bufferView":123,
			"componentType":5126,
			"count":2,
			"type":"VEC3"
		},
		{
			"bufferView":124,
			"componentType":5126,
			"count":2,
			"type":"VEC4"
		},
		{
			"bufferView":125,
			"componentType":5126,
			"count":2,
			"type":"VEC3"
		},
		{
			"bufferView":126,
			"componentType":5126,
			"count":2,
			"type":"VEC3"
		},
		{
			"bufferView":127,
			"componentType":5126,
			"count":2,
			"type":"VEC4"
		},
		{
			"bufferView":128,
			"componentType":5126,
			"count":2,
			"type":"VEC3"
		},
		{
			"bufferView":129,
			"componentType":5126,
			"count":2,
			"type":"VEC3"
		},
		{
			"bufferView":130,
			"componentType":5126,
			"count":2,
			"type":"VEC4"
		},
		{
			"bufferView":131,
			"componentType":5126,
			"count":2,
			"type":"VEC3"
		},
		{
			"bufferView":132,
			"componentType":5126,
			"count":2,
			"type":"VEC3"
		},
		{
			"bufferView":133,
			"componentType":5126,
			"count":2,
			"type":"VEC4"
		},
		{
			"bufferView":134,
			"componentType":5126,
			"count":2,
			"type":"VEC3"
		},
		{
			"bufferView":135,
			"componentType":5126,
			"count":2,
			"max":[
				3.9833333333333334
			],
			"min":[
				0
			],
			"type":"SCALAR"
		},
		{
			"bufferView":136,
			"componentType":5126,
			"count":2,
			"type":"VEC3"
		},
		{
			"bufferView":137,
			"componentType":5126,
			"count":2,
			"type":"VEC4"
		},
		{
			"bufferView":138,
			"componentType":5126,
			"count":2,
			"type":"VEC3"
		},
		{
			"bufferView":139,
			"componentType":5126,
			"count":2,
			"type":"VEC3"
		},
		{
			"bufferView":140,
			"componentType":5126,
			"count":2,
			"type":"VEC4"
		},
		{
			"bufferView":141,
			"componentType":5126,
			"count":2,
			"type":"VEC3"
		},
		{
			"bufferView":142,
			"componentType":5126,
			"count":2,
			"type":"VEC3"
		},
		{
			"bufferView":143,
			"componentType":5126,
			"count":2,
			"type":"VEC4"
		},
		{
			"bufferView":144,
			"componentType":5126,
			"count":2,
			"type":"VEC3"
		},
		{
			"bufferView":145,
			"componentType":5126,
			"count":2,
			"type":"VEC3"
		},
		{
			"bufferView":146,
			"componentType":5126,
			"count":2,
			"type":"VEC4"
		},
		{
			"bufferView":147,
			"componentType":5126,
			"count":2,
			"type":"VEC3"
		},
		{
			"bufferView":148,
			"componentType":5126,
			"count":2,
			"max":[
				2.4833333333333334
			],
			"min":[
				0
			],
			"type":"SCALAR"
		},
		{
			"bufferView":149,
			"componentType":5126,
			"count":2,
			"type":"VEC3"
		},
		{
			"bufferView":150,
			"componentType":5126,
			"count":2,
			"type":"VEC4"
		},
		{
			"bufferView":151,
			"componentType":5126,
			"count":2,
			"type":"VEC3"
		},
		{
			"bufferView":152,
			"componentType":5126,
			"count":2,
			"type":"VEC3"
		},
		{
			"bufferView":153,
			"componentType":5126,
			"count":2,
			"type":"VEC4"
		},
		{
			"bufferView":154,
			"componentType":5126,
			"count":2,
			"type":"VEC3"
		},
		{
			"bufferView":155,
			"componentType":5126,
			"count":2,
			"type":"VEC3"
		},
		{
			"bufferView":156,
			"componentType":5126,
			"count":2,
			"type":"VEC4"
		},
		{
			"bufferView":157,
			"componentType":5126,
			"count":2,
			"type":"VEC3"
		},
		{
			"bufferView":158,
			"componentType":5126,
			"count":2,
			"type":"VEC3"
		},
		{
			"bufferView":159,
			"componentType":5126,
			"count":2,
			"type":"VEC4"
		},
		{
			"bufferView":160,
			"componentType":5126,
			"count":2,
			"type":"VEC3"
		},
		{
			"bufferView":161,
			"componentType":5126,
			"count":2,
			"max":[
				0.8166666666666667
			],
			"min":[
				0
			],
			"type":"SCALAR"
		},
		{
			"bufferView":162,
			"componentType":5126,
			"count":2,
			"type":"VEC3"
		},
		{
			"bufferView":163,
			"componentType":5126,
			"count":2,
			"type":"VEC4"
		},
		{
			"bufferView":164,
			"componentType":5126,
			"count":2,
			"type":"VEC3"
		},
		{
			"bufferView":165,
			"componentType":5126,
			"count":2,
			"type":"VEC3"
		},
		{
			"bufferView":166,
			"componentType":5126,
			"count":2,
			"type":"VEC4"
		},
		{
			"bufferView":167,
			"componentType":5126,
			"count":2,
			"type":"VEC3"
		},
		{
			"bufferView":168,
			"componentType":5126,
			"count":2,
			"type":"VEC3"
		},
		{
			"bufferView":169,
			"componentType":5126,
			"count":2,
			"type":"VEC4"
		},
		{
			"bufferView":170,
			"componentType":5126,
			"count":2,
			"type":"VEC3"
		},
		{
			"bufferView":171,
			"componentType":5126,
			"count":2,
			"type":"VEC3"
		},
		{
			"bufferView":172,
			"componentType":5126,
			"count":2,
			"type":"VEC4"
		},
		{
			"bufferView":173,
			"componentType":5126,
			"count":2,
			"type":"VEC3"
		},
		{
			"bufferView":174,
			"componentType":5126,
			"count":2,
			"type":"VEC3"
		},
		{
			"bufferView":175,
			"componentType":5126,
			"count":2,
			"type":"VEC4"
		},
		{
			"bufferView":176,
			"componentType":5126,
			"count":2,
			"type":"VEC3"
		},
		{
			"bufferView":177,
			"componentType":5126,
			"count":2,
			"type":"VEC3"
		},
		{
			"bufferView":178,
			"componentType":5126,
			"count":2,
			"type":"VEC4"
		},
		{
			"bufferView":179,
			"componentType":5126,
			"count":2,
			"type":"VEC3"
		},
		{
			"bufferView":180,
			"componentType":5126,
			"count":2,
			"type":"VEC3"
		},
		{
			"bufferView":181,
			"componentType":5126,
			"count":2,
			"type":"VEC4"
		},
		{
			"bufferView":182,
			"componentType":5126,
			"count":2,
			"type":"VEC3"
		},
		{
			"bufferView":183,
			"componentType":5126,
			"count":2,
			"type":"VEC3"
		},
		{
			"bufferView":184,
			"componentType":5126,
			"count":2,
			"type":"VEC4"
		},
		{
			"bufferView":185,
			"componentType":5126,
			"count":2,
			"type":"VEC3"
		}
	],
	"bufferViews":[
		{
			"buffer":0,
			"byteLength":624,
			"byteOffset":0,
			"target":34962
		},
		{
			"buffer":0,
			"byteLength":624,
			"byteOffset":624,
			"target":34962
		},
		{
			"buffer":0,
			"byteLength":416,
			"byteOffset":1248,
			"target":34962
		},
		{
			"buffer":0,
			"byteLength":208,
			"byteOffset":1664,
			"target":34962
		},
		{
			"buffer":0,
			"byteLength":832,
			"byteOffset":1872,
			"target":34962
		},
		{
			"buffer":0,
			"byteLength":156,
			"byteOffset":2704,
			"target":34963
		},
		{
			"buffer":0,
			"byteLength":256,
			"byteOffset":2860
		},
		{
			"buffer":0,
			"byteLength":624,
			"byteOffset":3116,
			"target":34962
		},
		{
			"buffer":0,
			"byteLength":624,
			"byteOffset":3740,
			"target":34962
		},
		{
			"buffer":0,
			"byteLength":416,
			"byteOffset":4364,
			"target":34962
		},
		{
			"buffer":0,
			"byteLength":208,
			"byteOffset":4780,
			"target":34962
		},
		{
			"buffer":0,
			"byteLength":832,
			"byteOffset":4988,
			"target":34962
		},
		{
			"buffer":0,
			"byteLength":48,
			"byteOffset":5820,
			"target":34962
		},
		{
			"buffer":0,
			"byteLength":48,
			"byteOffset":5868,
			"target":34962
		},
		{
			"buffer":0,
			"byteLength":32,
			"byteOffset":5916,
			"target":34962
		},
		{
			"buffer":0,
			"byteLength":16,
			"byteOffset":5948,
			"target":34962
		},
		{
			"buffer":0,
			"byteLength":64,
			"byteOffset":5964,
			"target":34962
		},
		{
			"buffer":0,
			"byteLength":12,
			"byteOffset":6028,
			"target":34963
		},
		{
			"buffer":0,
			"byteLength":8,
			"byteOffset":6040
		},
		{
			"buffer":0,
			"byteLength":24,
			"byteOffset":6048
		},
		{
			"buffer":0,
			"byteLength":32,
			"byteOffset":6072
		},
		{
			"buffer":0,
			"byteLength":24,
			"byteOffset":6104
		},
		{
			"buffer":0,
			"byteLength":24,
			"byteOffset":6128
		},
		{
			"buffer":0,
			"byteLength":32,
			"byteOffset":6152
		},
		{
			"buffer":0,
			"byteLength":24,
			"byteOffset":6184
		},
		{
			"buffer":0,
			"byteLength":24,
			"byteOffset":6208
		},
		{
			"buffer":0,
			"byteLength":32,
			"byteOffset":6232
		},
		{
			"buffer":0,
			"byteLength":24,
			"byteOffset":6264
		},
		{
			"buffer":0,
			"byteLength":24,
			"byteOffset":6288
		},
		{
			"buffer":0,
			"byteLength":428,
			"byteOffset":6312
		},
		{
			"buffer":0,
			"byteLength":1712,
			"byteOffset":6740
		},
		{
			"buffer":0,
			"byteLength":1284,
			"byteOffset":8452
		},
		{
			"buffer":0,
			"byteLength":8,
			"byteOffset":9736
		},
		{
			"buffer":0,
			"byteLength":24,
			"byteOffset":9744
		},
		{
			"buffer":0,
			"byteLength":32,
			"byteOffset":9768
		},
		{
			"buffer":0,
			"byteLength":24,
			"byteOffset":9800
		},
		{
			"buffer":0,
			"byteLength":24,
			"byteOffset":9824
		},
		{
			"buffer":0,
			"byteLength":32,
			"byteOffset":9848
		},
		{
			"buffer":0,
			"byteLength":24,
			"byteOffset":9880
		},
		{
			"buffer":0,
			"byteLength":24,
			"byteOffset":9904
		},
		{
			"buffer":0,
			"byteLength":32,
			"byteOffset":9928
		},
		{
			"buffer":0,
			"byteLength":24,
			"byteOffset":9960
		},
		{
			"buffer":0,
			"byteLength":24,
			"byteOffset":9984
		},
		{
			"buffer":0,
			"byteLength":32,
			"byteOffset":10008
		},
		{
			"buffer":0,
			"byteLength":24,
			"byteOffset":10040
		},
		{
			"buffer":0,
			"byteLength":8,
			"byteOffset":10064
		},
		{
			"buffer":0,
			"byteLength":24,
			"byteOffset":10072
		},
		{
			"buffer":0,
			"byteLength":484,
			"byteOffset":10096
		},
		{
			"buffer":0,
			"byteLength":1936,
			"byteOffset":10580
		},
		{
			"buffer":0,
			"byteLength":1452,
			"byteOffset":12516
		},
		{
			"buffer":0,
			"byteLength":1452,
			"byteOffset":13968
		},
		{
			"buffer":0,
			"byteLength":32,
			"byteOffset":15420
		},
		{
			"buffer":0,
			"byteLength":1452,
			"byteOffset":15452
		},
		{
			"buffer":0,
			"byteLength":1452,
			"byteOffset":16904
		},
		{
			"buffer":0,
			"byteLength":1936,
			"byteOffset":18356
		},
		{
			"buffer":0,
			"byteLength":1452,
			"byteOffset":20292
		},
		{
			"buffer":0,
			"byteLength":1452,
			"byteOffset":21744
		},
		{
			"buffer":0,
			"byteLength":1936,
			"byteOffset":23196
		},
		{
			"buffer":0,
			"byteLength":1452,
			"byteOffset":25132
		},
		{
			"buffer":0,
			"byteLength":24,
			"byteOffset":26584
		},
		{
			"buffer":0,
			"byteLength":32,
			"byteOffset":26608
		},
		{
			"buffer":0,
			"byteLength":24,
			"byteOffset":26640
		},
		{
			"buffer":0,
			"byteLength":24,
			"byteOffset":26664
		},
		{
			"buffer":0,
			"byteLength":32,
			"byteOffset":26688
		},
		{
			"buffer":0,
			"byteLength":24,
			"byteOffset":26720
		},
		{
			"buffer":0,
			"byteLength":24,
			"byteOffset":26744
		},
		{
			"buffer":0,
			"byteLength":32,
			"byteOffset":26768
		},
		{
			"buffer":0,
			"byteLength":24,
			"byteOffset":26800
		},
		{
			"buffer":0,
			"byteLength":24,
			"byteOffset":26824
		},
		{
			"buffer":0,
			"byteLength":32,
			"byteOffset":26848
		},
		{
			"buffer":0,
			"byteLength":24,
			"byteOffset":26880
		},
		{
			"buffer":0,
			"byteLength":8,
			"byteOffset":26904
		},
		{
			"buffer":0,
			"byteLength":24,
			"byteOffset":26912
		},
		{
			"buffer":0,
			"byteLength":32,
			"byteOffset":26936
		},
		{
			"buffer":0,
			"byteLength":24,
			"byteOffset":26968
		},
		{
			"buffer":0,
			"byteLength":24,
			"byteOffset":26992
		},
		{
			"buffer":0,
			"byteLength":32,
			"byteOffset":27016
		},
		{
			"buffer":0,
			"byteLength":24,
			"byteOffset":27048
		},
		{
			"buffer":0,
			"byteLength":24,
			"byteOffset":27072
		},
		{
			"buffer":0,
			"byteLength":32,
			"byteOffset":27096
		},
		{
			"buffer":0,
			"byteLength":24,
			"byteOffset":27128
		},
		{
			"buffer":0,
			"byteLength":24,
			"byteOffset":27152
		},
		{
			"buffer":0,
			"byteLength":32,
			"byteOffset":27176
		},
		{
			"buffer":0,
			"byteLength":24,
			"byteOffset":27208
		},
		{
			"buffer":0,
			"byteLength":8,
			"byteOffset":27232
		},
		{
			"buffer":0,
			"byteLength":24,
			"byteOffset":27240
		},
		{
			"buffer":0,
			"byteLength":32,
			"byteOffset":27264
		},
		{
			"buffer":0,
			"byteLength":24,
			"byteOffset":27296
		},
		{
			"buffer":0,
			"byteLength":24,
			"byteOffset":27320
		},
		{
			"buffer":0,
			"byteLength":32,
			"byteOffset":27344
		},
		{
			"buffer":0,
			"byteLength":24,
			"byteOffset":27376
		},
		{
			"buffer":0,
			"byteLength":24,
			"byteOffset":27400
		},
		{
			"buffer":0,
			"byteLength":32,
			"byteOffset":27424
		},
		{
			"buffer":0,
			"byteLength":24,
			"byteOffset":27456
		},
		{
			"buffer":0,
			"byteLength":24,
			"byteOffset":27480
		},
		{
			"buffer":0,
			"byteLength":32,
			"byteOffset":27504
		},
		{
			"buffer":0,
			"byteLength":24,
			"byteOffset":27536
		},
		{
			"buffer":0,
			"byteLength":8,
			"byteOffset":27560
		},
		{
			"buffer":0,
			"byteLength":24,
			"byteOffset":27568
		},
		{
			"buffer":0,
			"byteLength":32,
			"byteOffset":27592
		},
		{
			"buffer":0,
			"byteLength":24,
			"byteOffset":27624
		},
		{
			"buffer":0,
			"byteLength":24,
			"byteOffset":27648
		},
		{
			"buffer":0,
			"byteLength":32,
			"byteOffset":27672
		},
		{
			"buffer":0,
			"byteLength":24,
			"byteOffset":27704
		},
		{
			"buffer":0,
			"byteLength":24,
			"byteOffset":27728
		},
		{
			"buffer":0,
			"byteLength":32,
			"byteOffset":27752
		},
		{
			"buffer":0,
			"byteLength":24,
			"byteOffset":27784
		},
		{
			"buffer":0,
			"byteLength":24,
			"byteOffset":27808
		},
		{
			"buffer":0,
			"byteLength":32,
			"byteOffset":27832
		},
		{
			"buffer":0,
			"byteLength":24,
			"byteOffset":27864
		},
		{
			"buffer":0,
			"byteLength":24,
			"byteOffset":27888
		},
		{
			"buffer":0,
			"byteLength":32,
			"byteOffset":27912
		},
		{
			"buffer":0,
			"byteLength":24,
			"byteOffset":27944
		},
		{
			"buffer":0,
			"byteLength":24,
			"byteOffset":27968
		},
		{
			"buffer":0,
			"byteLength":32,
			"byteOffset":27992
		},
		{
			"buffer":0,
			"byteLength":24,
			"byteOffset":28024
		},
		{
			"buffer":0,
			"byteLength":24,
			"byteOffset":28048
		},
		{
			"buffer":0,
			"byteLength":32,
			"byteOffset":28072
		},
		{
			"buffer":0,
			"byteLength":24,
			"byteOffset":28104
		},
		{
			"buffer":0,
			"byteLength":24,
			"byteOffset":28128
		},
		{
			"buffer":0,
			"byteLength":32,
			"byteOffset":28152
		},
		{
			"buffer":0,
			"byteLength":24,
			"byteOffset":28184
		},
		{
			"buffer":0,
			"byteLength":8,
			"byteOffset":28208
		},
		{
			"buffer":0,
			"byteLength":24,
			"byteOffset":28216
		},
		{
			"buffer":0,
			"byteLength":32,
			"byteOffset":28240
		},
		{
			"buffer":0,
			"byteLength":24,
			"byteOffset":28272
		},
		{
			"buffer":0,
			"byteLength":24,
			"byteOffset":28296
		},
		{
			"buffer":0,
			"byteLength":32,
			"byteOffset":28320
		},
		{
			"buffer":0,
			"byteLength":24,
			"byteOffset":28352
		},
		{
			"buffer":0,
			"byteLength":24,
			"byteOffset":28376
		},
		{
			"buffer":0,
			"byteLength":32,
			"byteOffset":28400
		},
		{
			"buffer":0,
			"byteLength":24,
			"byteOffset":28432
		},
		{
			"buffer":0,
			"byteLength":24,
			"byteOffset":28456
		},
		{
			"buffer":0,
			"byteLength":32,
			"byteOffset":28480
		},
		{
			"buffer":0,
			"byteLength":24,
			"byteOffset":28512
		},
		{
			"buffer":0,
			"byteLength":8,
			"byteOffset":28536
		},
		{
			"buffer":0,
			"byteLength":24,
			"byteOffset":28544
		},
		{
			"buffer":0,
			"byteLength":32,
			"byteOffset":28568
		},
		{
			"buffer":0,
			"byteLength":24,
			"byteOffset":28600
		},
		{
			"buffer":0,
			"byteLength":24,
			"byteOffset":28624
		},
		{
			"buffer":0,
			"byteLength":32,
			"byteOffset":28648
		},
		{
			"buffer":0,
			"byteLength":24,
			"byteOffset":28680
		},
		{
			"buffer":0,
			"byteLength":24,
			"byteOffset":28704
		},
		{
			"buffer":0,
			"byteLength":32,
			"byteOffset":28728
		},
		{
			"buffer":0,
			"byteLength":24,
			"byteOffset":28760
		},
		{
			"buffer":0,
			"byteLength":24,
			"byteOffset":28784
		},
		{
			"buffer":0,
			"byteLength":32,
			"byteOffset":28808
		},
		{
			"buffer":0,
			"byteLength":24,
			"byteOffset":28840
		},
		{
			"buffer":0,
			"byteLength":8,
			"byteOffset":28864
		},
		{
			"buffer":0,
			"byteLength":24,
			"byteOffset":28872
		},
		{
			"buffer":0,
			"byteLength":32,
			"byteOffset":28896
		},
		{
			"buffer":0,
			"byteLength":24,
			"byteOffset":28928
		},
		{
			"buffer":0,
			"byteLength":24,
			"byteOffset":28952
		},
		{
			"buffer":0,
			"byteLength":32,
			"byteOffset":28976
		},
		{
			"buffer":0,
			"byteLength":24,
			"byteOffset":29008
		},
		{
			"buffer":0,
			"byteLength":24,
			"byteOffset":29032
		},
		{
			"buffer":0,
			"byteLength":32,
			"byteOffset":29056
		},
		{
			"buffer":0,
			"byteLength":24,
			"byteOffset":29088
		},
		{
			"buffer":0,
			"byteLength":24,
			"byteOffset":29112
		},
		{
			"buffer":0,
			"byteLength":32,
			"byteOffset":29136
		},
		{
			"buffer":0,
			"byteLength":24,
			"byteOffset":29168
		},
		{
			"buffer":0,
			"byteLength":8,
			"byteOffset":29192
		},
		{
			"buffer":0,
			"byteLength":24,
			"byteOffset":29200
		},
		{
			"buffer":0,
			"byteLength":32,
			"byteOffset":29224
		},
		{
			"buffer":0,
			"byteLength":24,
			"byteOffset":29256
		},
		{
			"buffer":0,
			"byteLength":24,
			"byteOffset":29280
		},
		{
			"buffer":0,
			"byteLength":32,
			"byteOffset":29304
		},
		{
			"buffer":0,
			"byteLength":24,
			"byteOffset":29336
		},
		{
			"buffer":0,
			"byteLength":24,
			"byteOffset":29360
		},
		{
			"buffer":0,
			"byteLength":32,
			"byteOffset":29384
		},
		{
			"buffer":0,
			"byteLength":24,
			"byteOffset":29416
		},
		{
			"buffer":0,
			"byteLength":24,
			"byteOffset":29440
		},
		{
			"buffer":0,
			"byteLength":32,
			"byteOffset":29464
		},
		{
			"buffer":0,
			"byteLength":24,
			"byteOffset":29496
		},
		{
			"buffer":0,
			"byteLength":24,
			"byteOffset":29520
		},
		{
			"buffer":0,
			"byteLength":32,
			"byteOffset":29544
		},
		{
			"buffer":0,
			"byteLength":24,
			"byteOffset":29576
		},
		{
			"buffer":0,
			"byteLength":24,
			"byteOffset":29600
		},
		{
			"buffer":0,
			"byteLength":32,
			"byteOffset":29624
		},
		{
			"buffer":0,
			"byteLength":24,
			"byteOffset":29656
		},
		{
			"buffer":0,
			"byteLength":24,
			"byteOffset":29680
		},
		{
			"buffer":0,
			"byteLength":32,
			"byteOffset":29704
		},
		{
			"buffer":0,
			"byteLength":24,
			"byteOffset":29736
		},
		{
			"buffer":0,
			"byteLength":24,
			"byteOffset":29760
		},
		{
			"buffer":0,
			"byteLength":32,
			"byteOffset":29784
		},
		{
			"buffer":0,
			"byteLength":24,
			"byteOffset":29816
		}
	],
	"samplers":[
		{
			"magFilter":9729,
			"minFilter":9987
		}
	],
	"buffers":[
		{
			"byteLength":29840,
			"uri":"BerserkParticle.bin"
		}
	]
}
