{
	"asset":{
		"generator":"Khronos glTF Blender I/O v4.3.47",
		"version":"2.0"
	},
	"scene":0,
	"scenes":[
		{
			"name":"Scene",
			"nodes":[
				0,
				1,
				2,
				3,
				4,
				5,
				6,
				7,
				8,
				9,
				10
			]
		}
	],
	"nodes":[
		{
			"mesh":0,
			"name":"ala_low",
			"translation":[
				-2.3571300506591797,
				1.4025301933288574,
				0
			]
		},
		{
			"mesh":1,
			"name":"base_low",
			"translation":[
				0,
				0.6499999761581421,
				0
			]
		},
		{
			"mesh":2,
			"name":"baseHolo_low",
			"translation":[
				-0.5460060238838196,
				1.1736927032470703,
				0.3065537214279175
			]
		},
		{
			"mesh":3,
			"name":"boton1_low",
			"translation":[
				0.5740450620651245,
				1.1271045207977295,
				-0.3870047628879547
			]
		},
		{
			"mesh":4,
			"name":"boton2_low",
			"translation":[
				0.3340565264225006,
				1.138816237449646,
				-0.38789671659469604
			]
		},
		{
			"mesh":5,
			"name":"boton3_low",
			"translation":[
				0.10754474997520447,
				1.1271045207977295,
				-0.39012613892555237
			]
		},
		{
			"mesh":6,
			"name":"panel_low",
			"translation":[
				-0.530036211013794,
				1.1291531324386597,
				-0.32284536957740784
			]
		},
		{
			"mesh":7,
			"name":"pantalla_low",
			"translation":[
				0.4540995955467224,
				1.3993186950683594,
				0.2609875202178955
			]
		},
		{
			"mesh":8,
			"name":"ala3_low",
			"translation":[
				2.2976505756378174,
				1.4025301933288574,
				0
			]
		},
		{
			"mesh":9,
			"name":"ala2_low",
			"translation":[
				0.02177506685256958,
				1.4025301933288574,
				-1.9797860383987427
			]
		},
		{
			"mesh":10,
			"name":"ala4_low",
			"translation":[
				0.02177506685256958,
				1.4025301933288574,
				1.9357186555862427
			]
		}
	],
	"materials":[
		{
			"doubleSided":true,
			"emissiveFactor":[
				1,
				1,
				1
			],
			"emissiveTexture":{
				"index":0
			},
			"name":"MesaMejora",
			"normalTexture":{
				"index":1
			},
			"pbrMetallicRoughness":{
				"baseColorTexture":{
					"index":2
				},
				"metallicRoughnessTexture":{
					"index":3
				}
			}
		}
	],
	"meshes":[
		{
			"name":"Cube.008",
			"primitives":[
				{
					"attributes":{
						"POSITION":0,
						"NORMAL":1,
						"TEXCOORD_0":2
					},
					"indices":3,
					"material":0
				}
			]
		},
		{
			"name":"Cube.001",
			"primitives":[
				{
					"attributes":{
						"POSITION":4,
						"NORMAL":5,
						"TEXCOORD_0":6
					},
					"indices":7,
					"material":0
				}
			]
		},
		{
			"name":"Cylinder",
			"primitives":[
				{
					"attributes":{
						"POSITION":8,
						"NORMAL":9,
						"TEXCOORD_0":10
					},
					"indices":11,
					"material":0
				}
			]
		},
		{
			"name":"Sphere.003",
			"primitives":[
				{
					"attributes":{
						"POSITION":12,
						"NORMAL":13,
						"TEXCOORD_0":14
					},
					"indices":15,
					"material":0
				}
			]
		},
		{
			"name":"Sphere.004",
			"primitives":[
				{
					"attributes":{
						"POSITION":16,
						"NORMAL":17,
						"TEXCOORD_0":18
					},
					"indices":15,
					"material":0
				}
			]
		},
		{
			"name":"Sphere.005",
			"primitives":[
				{
					"attributes":{
						"POSITION":19,
						"NORMAL":20,
						"TEXCOORD_0":21
					},
					"indices":22,
					"material":0
				}
			]
		},
		{
			"name":"Cube",
			"primitives":[
				{
					"attributes":{
						"POSITION":23,
						"NORMAL":24,
						"TEXCOORD_0":25
					},
					"indices":26,
					"material":0
				}
			]
		},
		{
			"name":"Cube.004",
			"primitives":[
				{
					"attributes":{
						"POSITION":27,
						"NORMAL":28,
						"TEXCOORD_0":29
					},
					"indices":30,
					"material":0
				}
			]
		},
		{
			"name":"Cube.003",
			"primitives":[
				{
					"attributes":{
						"POSITION":31,
						"NORMAL":32,
						"TEXCOORD_0":33
					},
					"indices":34,
					"material":0
				}
			]
		},
		{
			"name":"Cube.005",
			"primitives":[
				{
					"attributes":{
						"POSITION":35,
						"NORMAL":36,
						"TEXCOORD_0":37
					},
					"indices":38,
					"material":0
				}
			]
		},
		{
			"name":"Cube.006",
			"primitives":[
				{
					"attributes":{
						"POSITION":39,
						"NORMAL":40,
						"TEXCOORD_0":41
					},
					"indices":38,
					"material":0
				}
			]
		}
	],
	"textures":[
		{
			"sampler":0,
			"source":0
		},
		{
			"sampler":0,
			"source":1
		},
		{
			"sampler":0,
			"source":2
		},
		{
			"sampler":0,
			"source":3
		}
	],
	"images":[
		{
			"mimeType":"image/png",
			"name":"P_MesaMejoras_1_e.png",
			"uri":"P_MesaMejoras_1_e_png.png"
		},
		{
			"mimeType":"image/png",
			"name":"P_MesaMejoras_1_n.png",
			"uri":"P_MesaMejoras_1_n_png.png"
		},
		{
			"mimeType":"image/png",
			"name":"P_MesaMejoras_1_bc.png",
			"uri":"P_MesaMejoras_1_bc_png.png"
		},
		{
			"mimeType":"image/png",
			"name":"P_MesaMejoras_1_m.png-P_MesaMejoras_1_r.png",
			"uri":"P_MesaMejoras_1_m_png-P_MesaMejoras_1_r_png.png"
		}
	],
	"accessors":[
		{
			"bufferView":0,
			"componentType":5126,
			"count":186,
			"max":[
				1.3265477418899536,
				0.3494549095630646,
				0.7954772114753723
			],
			"min":[
				-1.286920428276062,
				-0.39215874671936035,
				-0.7954586148262024
			],
			"type":"VEC3"
		},
		{
			"bufferView":1,
			"componentType":5126,
			"count":186,
			"type":"VEC3"
		},
		{
			"bufferView":2,
			"componentType":5126,
			"count":186,
			"type":"VEC2"
		},
		{
			"bufferView":3,
			"componentType":5123,
			"count":480,
			"type":"SCALAR"
		},
		{
			"bufferView":4,
			"componentType":5126,
			"count":63,
			"max":[
				1.101632833480835,
				0.5201284885406494,
				0.7710204124450684
			],
			"min":[
				-1.101632833480835,
				-0.6500000357627869,
				-0.7710205912590027
			],
			"type":"VEC3"
		},
		{
			"bufferView":5,
			"componentType":5126,
			"count":63,
			"type":"VEC3"
		},
		{
			"bufferView":6,
			"componentType":5126,
			"count":63,
			"type":"VEC2"
		},
		{
			"bufferView":7,
			"componentType":5123,
			"count":180,
			"type":"SCALAR"
		},
		{
			"bufferView":8,
			"componentType":5126,
			"count":26,
			"max":[
				0.19800782203674316,
				0.358799546957016,
				0.19800777733325958
			],
			"min":[
				-0.1980077028274536,
				-0.08306039124727249,
				-0.198007732629776
			],
			"type":"VEC3"
		},
		{
			"bufferView":9,
			"componentType":5126,
			"count":26,
			"type":"VEC3"
		},
		{
			"bufferView":10,
			"componentType":5126,
			"count":26,
			"type":"VEC2"
		},
		{
			"bufferView":11,
			"componentType":5123,
			"count":72,
			"type":"SCALAR"
		},
		{
			"bufferView":12,
			"componentType":5126,
			"count":120,
			"max":[
				0.09700321406126022,
				0.09890361875295639,
				0.09700320661067963
			],
			"min":[
				-0.09700319916009903,
				0.019295139238238335,
				-0.09700321406126022
			],
			"type":"VEC3"
		},
		{
			"bufferView":13,
			"componentType":5126,
			"count":120,
			"type":"VEC3"
		},
		{
			"bufferView":14,
			"componentType":5126,
			"count":120,
			"type":"VEC2"
		},
		{
			"bufferView":15,
			"componentType":5123,
			"count":624,
			"type":"SCALAR"
		},
		{
			"bufferView":16,
			"componentType":5126,
			"count":120,
			"max":[
				0.055440958589315414,
				0.05652711167931557,
				0.055440954864025116
			],
			"min":[
				-0.05544095113873482,
				0.011027892120182514,
				-0.055440958589315414
			],
			"type":"VEC3"
		},
		{
			"bufferView":17,
			"componentType":5126,
			"count":120,
			"type":"VEC3"
		},
		{
			"bufferView":18,
			"componentType":5126,
			"count":120,
			"type":"VEC2"
		},
		{
			"bufferView":19,
			"componentType":5126,
			"count":120,
			"max":[
				0.07115523517131805,
				0.0725492537021637,
				0.07115523517131805
			],
			"min":[
				-0.07115522772073746,
				0.014153657481074333,
				-0.07115523517131805
			],
			"type":"VEC3"
		},
		{
			"bufferView":20,
			"componentType":5126,
			"count":120,
			"type":"VEC3"
		},
		{
			"bufferView":21,
			"componentType":5126,
			"count":120,
			"type":"VEC2"
		},
		{
			"bufferView":22,
			"componentType":5123,
			"count":624,
			"type":"SCALAR"
		},
		{
			"bufferView":23,
			"componentType":5126,
			"count":226,
			"max":[
				0.2652839422225952,
				0.0834164023399353,
				0.3961277902126312
			],
			"min":[
				-0.3026111423969269,
				-0.06893421709537506,
				-0.17306944727897644
			],
			"type":"VEC3"
		},
		{
			"bufferView":24,
			"componentType":5126,
			"count":226,
			"type":"VEC3"
		},
		{
			"bufferView":25,
			"componentType":5126,
			"count":226,
			"type":"VEC2"
		},
		{
			"bufferView":26,
			"componentType":5123,
			"count":972,
			"type":"SCALAR"
		},
		{
			"bufferView":27,
			"componentType":5126,
			"count":78,
			"max":[
				0.36928510665893555,
				0.22814123332500458,
				0.15301066637039185
			],
			"min":[
				-0.36928510665893555,
				-0.3412351608276367,
				-0.16360552608966827
			],
			"type":"VEC3"
		},
		{
			"bufferView":28,
			"componentType":5126,
			"count":78,
			"type":"VEC3"
		},
		{
			"bufferView":29,
			"componentType":5126,
			"count":78,
			"type":"VEC2"
		},
		{
			"bufferView":30,
			"componentType":5123,
			"count":276,
			"type":"SCALAR"
		},
		{
			"bufferView":31,
			"componentType":5126,
			"count":186,
			"max":[
				1.286920428276062,
				0.3494549095630646,
				0.7954586744308472
			],
			"min":[
				-1.3265477418899536,
				-0.39215874671936035,
				-0.7954771518707275
			],
			"type":"VEC3"
		},
		{
			"bufferView":32,
			"componentType":5126,
			"count":186,
			"type":"VEC3"
		},
		{
			"bufferView":33,
			"componentType":5126,
			"count":186,
			"type":"VEC2"
		},
		{
			"bufferView":34,
			"componentType":5123,
			"count":480,
			"type":"SCALAR"
		},
		{
			"bufferView":35,
			"componentType":5126,
			"count":186,
			"max":[
				0.7954585552215576,
				0.3494549095630646,
				1.3265477418899536
			],
			"min":[
				-0.7954772710800171,
				-0.39215874671936035,
				-1.286920428276062
			],
			"type":"VEC3"
		},
		{
			"bufferView":36,
			"componentType":5126,
			"count":186,
			"type":"VEC3"
		},
		{
			"bufferView":37,
			"componentType":5126,
			"count":186,
			"type":"VEC2"
		},
		{
			"bufferView":38,
			"componentType":5123,
			"count":480,
			"type":"SCALAR"
		},
		{
			"bufferView":39,
			"componentType":5126,
			"count":186,
			"max":[
				0.7954772114753723,
				0.3494549095630646,
				1.286920428276062
			],
			"min":[
				-0.7954586148262024,
				-0.39215874671936035,
				-1.3265477418899536
			],
			"type":"VEC3"
		},
		{
			"bufferView":40,
			"componentType":5126,
			"count":186,
			"type":"VEC3"
		},
		{
			"bufferView":41,
			"componentType":5126,
			"count":186,
			"type":"VEC2"
		}
	],
	"bufferViews":[
		{
			"buffer":0,
			"byteLength":2232,
			"byteOffset":0,
			"target":34962
		},
		{
			"buffer":0,
			"byteLength":2232,
			"byteOffset":2232,
			"target":34962
		},
		{
			"buffer":0,
			"byteLength":1488,
			"byteOffset":4464,
			"target":34962
		},
		{
			"buffer":0,
			"byteLength":960,
			"byteOffset":5952,
			"target":34963
		},
		{
			"buffer":0,
			"byteLength":756,
			"byteOffset":6912,
			"target":34962
		},
		{
			"buffer":0,
			"byteLength":756,
			"byteOffset":7668,
			"target":34962
		},
		{
			"buffer":0,
			"byteLength":504,
			"byteOffset":8424,
			"target":34962
		},
		{
			"buffer":0,
			"byteLength":360,
			"byteOffset":8928,
			"target":34963
		},
		{
			"buffer":0,
			"byteLength":312,
			"byteOffset":9288,
			"target":34962
		},
		{
			"buffer":0,
			"byteLength":312,
			"byteOffset":9600,
			"target":34962
		},
		{
			"buffer":0,
			"byteLength":208,
			"byteOffset":9912,
			"target":34962
		},
		{
			"buffer":0,
			"byteLength":144,
			"byteOffset":10120,
			"target":34963
		},
		{
			"buffer":0,
			"byteLength":1440,
			"byteOffset":10264,
			"target":34962
		},
		{
			"buffer":0,
			"byteLength":1440,
			"byteOffset":11704,
			"target":34962
		},
		{
			"buffer":0,
			"byteLength":960,
			"byteOffset":13144,
			"target":34962
		},
		{
			"buffer":0,
			"byteLength":1248,
			"byteOffset":14104,
			"target":34963
		},
		{
			"buffer":0,
			"byteLength":1440,
			"byteOffset":15352,
			"target":34962
		},
		{
			"buffer":0,
			"byteLength":1440,
			"byteOffset":16792,
			"target":34962
		},
		{
			"buffer":0,
			"byteLength":960,
			"byteOffset":18232,
			"target":34962
		},
		{
			"buffer":0,
			"byteLength":1440,
			"byteOffset":19192,
			"target":34962
		},
		{
			"buffer":0,
			"byteLength":1440,
			"byteOffset":20632,
			"target":34962
		},
		{
			"buffer":0,
			"byteLength":960,
			"byteOffset":22072,
			"target":34962
		},
		{
			"buffer":0,
			"byteLength":1248,
			"byteOffset":23032,
			"target":34963
		},
		{
			"buffer":0,
			"byteLength":2712,
			"byteOffset":24280,
			"target":34962
		},
		{
			"buffer":0,
			"byteLength":2712,
			"byteOffset":26992,
			"target":34962
		},
		{
			"buffer":0,
			"byteLength":1808,
			"byteOffset":29704,
			"target":34962
		},
		{
			"buffer":0,
			"byteLength":1944,
			"byteOffset":31512,
			"target":34963
		},
		{
			"buffer":0,
			"byteLength":936,
			"byteOffset":33456,
			"target":34962
		},
		{
			"buffer":0,
			"byteLength":936,
			"byteOffset":34392,
			"target":34962
		},
		{
			"buffer":0,
			"byteLength":624,
			"byteOffset":35328,
			"target":34962
		},
		{
			"buffer":0,
			"byteLength":552,
			"byteOffset":35952,
			"target":34963
		},
		{
			"buffer":0,
			"byteLength":2232,
			"byteOffset":36504,
			"target":34962
		},
		{
			"buffer":0,
			"byteLength":2232,
			"byteOffset":38736,
			"target":34962
		},
		{
			"buffer":0,
			"byteLength":1488,
			"byteOffset":40968,
			"target":34962
		},
		{
			"buffer":0,
			"byteLength":960,
			"byteOffset":42456,
			"target":34963
		},
		{
			"buffer":0,
			"byteLength":2232,
			"byteOffset":43416,
			"target":34962
		},
		{
			"buffer":0,
			"byteLength":2232,
			"byteOffset":45648,
			"target":34962
		},
		{
			"buffer":0,
			"byteLength":1488,
			"byteOffset":47880,
			"target":34962
		},
		{
			"buffer":0,
			"byteLength":960,
			"byteOffset":49368,
			"target":34963
		},
		{
			"buffer":0,
			"byteLength":2232,
			"byteOffset":50328,
			"target":34962
		},
		{
			"buffer":0,
			"byteLength":2232,
			"byteOffset":52560,
			"target":34962
		},
		{
			"buffer":0,
			"byteLength":1488,
			"byteOffset":54792,
			"target":34962
		}
	],
	"samplers":[
		{
			"magFilter":9729,
			"minFilter":9987
		}
	],
	"buffers":[
		{
			"byteLength":56280,
			"uri":"P_MesaMejoras_1.bin"
		}
	]
}
