{"asset":{"version":"2.0","generator":"THREE.GLTFExporter r172"},"scenes":[{"nodes":[0]}],"scene":0,"nodes":[{"mesh":0}],"bufferViews":[{"buffer":0,"byteOffset":0,"byteLength":29880,"target":34962,"byteStride":12},{"buffer":0,"byteOffset":29880,"byteLength":4980,"target":34963}],"buffers":[{"byteLength":34860,"uri":"data:application/octet-stream;base64,"}],"accessors":[{"bufferView":0,"componentType":5126,"count":2490,"max":[195.21864318847656,0.5679959654808044,17.060836791992188],"min":[-18.981361389160156,0.5679959654808044,-88.73916625976562],"type":"VEC3"},{"bufferView":1,"componentType":5123,"count":2490,"max":[2489],"min":[0],"type":"SCALAR"}],"materials":[{"pbrMetallicRoughness":{"metallicFactor":0,"roughnessFactor":1}}],"meshes":[{"primitives":[{"mode":4,"attributes":{"POSITION":0},"indices":1,"material":0}]}]}