{"asset":{"version":"2.0","generator":"THREE.GLTFExporter r172"},"scenes":[{"nodes":[0]}],"scene":0,"nodes":[{"mesh":0}],"bufferViews":[{"buffer":0,"byteOffset":0,"byteLength":58824,"target":34962,"byteStride":12},{"buffer":0,"byteOffset":58824,"byteLength":9804,"target":34963}],"buffers":[{"byteLength":68628,"uri":"data:application/octet-stream;base64,"}],"accessors":[{"bufferView":0,"componentType":5126,"count":4902,"max":[265.9630126953125,0.19999991357326508,4.296600341796875],"min":[-48.636993408203125,0.19999991357326508,-274.50341796875],"type":"VEC3"},{"bufferView":1,"componentType":5123,"count":4902,"max":[4901],"min":[0],"type":"SCALAR"}],"materials":[{"pbrMetallicRoughness":{"metallicFactor":0,"roughnessFactor":1}}],"meshes":[{"primitives":[{"mode":4,"attributes":{"POSITION":0},"indices":1,"material":0}]}]}