{"asset":{"version":"2.0","generator":"THREE.GLTFExporter r172"},"scenes":[{"nodes":[0]}],"scene":0,"nodes":[{"mesh":0}],"bufferViews":[{"buffer":0,"byteOffset":0,"byteLength":2340,"target":34962,"byteStride":12},{"buffer":0,"byteOffset":2340,"byteLength":392,"target":34963}],"buffers":[{"byteLength":2732,"uri":"data:application/octet-stream;base64,"}],"accessors":[{"bufferView":0,"componentType":5126,"count":195,"max":[15.325496673583984,0.5396744608879089,-72.02593994140625],"min":[-15.274503707885742,0.5396744608879089,-102.62593841552734],"type":"VEC3"},{"bufferView":1,"componentType":5123,"count":195,"max":[194],"min":[0],"type":"SCALAR"}],"materials":[{"pbrMetallicRoughness":{"metallicFactor":0,"roughnessFactor":1}}],"meshes":[{"primitives":[{"mode":4,"attributes":{"POSITION":0},"indices":1,"material":0}]}]}