{
	"asset":{
		"generator":"Khronos glTF Blender I/O v4.3.47",
		"version":"2.0"
	},
	"extensionsUsed":[
		"KHR_materials_specular"
	],
	"scene":0,
	"scenes":[
		{
			"name":"Scene",
			"nodes":[
				0,
				1,
				2,
				3,
				4,
				5,
				6,
				7,
				8,
				9
			]
		}
	],
	"nodes":[
		{
			"mesh":0,
			"name":"Cube.010_low.001",
			"translation":[
				-0.28048253059387207,
				0.5448210835456848,
				4.047757625579834
			]
		},
		{
			"mesh":1,
			"name":"Cube.011_low.001",
			"translation":[
				-0.3056986331939697,
				0.6833815574645996,
				3.854879140853882
			]
		},
		{
			"mesh":2,
			"name":"Cube.012_low.001",
			"translation":[
				0.5353009700775146,
				0.4905630052089691,
				3.9150891304016113
			]
		},
		{
			"mesh":3,
			"name":"Cube.013_low.001",
			"translation":[
				-0.4664022922515869,
				0.785484254360199,
				4.821061134338379
			]
		},
		{
			"mesh":4,
			"name":"Cylinder.008_low.001",
			"translation":[
				0.014255285263061523,
				0.5488467216491699,
				4.658660888671875
			]
		},
		{
			"mesh":5,
			"name":"Cylinder.009_low.001",
			"translation":[
				-0.9456384181976318,
				0.7358679175376892,
				3.9301748275756836
			]
		},
		{
			"mesh":6,
			"name":"Cylinder.010_low.001",
			"translation":[
				-0.07130980491638184,
				0.7310868501663208,
				2.9715945720672607
			]
		},
		{
			"mesh":7,
			"name":"Cylinder.011_low.001",
			"translation":[
				-0.29523205757141113,
				1.1156896352767944,
				3.9794511795043945
			]
		},
		{
			"mesh":8,
			"name":"Cylinder.012_low.001",
			"translation":[
				-0.17360711097717285,
				0.26374927163124084,
				3.6570870876312256
			]
		},
		{
			"mesh":9,
			"name":"Cylinder.013_low.001",
			"translation":[
				-0.20085597038269043,
				0.9766788482666016,
				4.349263668060303
			]
		}
	],
	"materials":[
		{
			"doubleSided":true,
			"extensions":{
				"KHR_materials_specular":{
					"specularColorFactor":[
						2.0,
						2.0,
						2.0
					]
				}
			},
			"name":"Scrap1.002",
			"normalTexture":{
				"index":0
			},
			"pbrMetallicRoughness":{
				"baseColorTexture":{
					"index":1
				},
				"metallicRoughnessTexture":{
					"index":2
				}
			}
		}
	],
	"meshes":[
		{
			"name":"Cube.009",
			"primitives":[
				{
					"attributes":{
						"POSITION":0,
						"NORMAL":1,
						"TEXCOORD_0":2
					},
					"indices":3,
					"material":0
				}
			]
		},
		{
			"name":"Cube.008",
			"primitives":[
				{
					"attributes":{
						"POSITION":4,
						"NORMAL":5,
						"TEXCOORD_0":6
					},
					"indices":7,
					"material":0
				}
			]
		},
		{
			"name":"Cube.007",
			"primitives":[
				{
					"attributes":{
						"POSITION":8,
						"NORMAL":9,
						"TEXCOORD_0":10
					},
					"indices":11,
					"material":0
				}
			]
		},
		{
			"name":"Cube.006",
			"primitives":[
				{
					"attributes":{
						"POSITION":12,
						"NORMAL":13,
						"TEXCOORD_0":14
					},
					"indices":15,
					"material":0
				}
			]
		},
		{
			"name":"Cylinder.007",
			"primitives":[
				{
					"attributes":{
						"POSITION":16,
						"NORMAL":17,
						"TEXCOORD_0":18
					},
					"indices":19,
					"material":0
				}
			]
		},
		{
			"name":"Cylinder.006",
			"primitives":[
				{
					"attributes":{
						"POSITION":20,
						"NORMAL":21,
						"TEXCOORD_0":22
					},
					"indices":23,
					"material":0
				}
			]
		},
		{
			"name":"Cylinder.005",
			"primitives":[
				{
					"attributes":{
						"POSITION":24,
						"NORMAL":25,
						"TEXCOORD_0":26
					},
					"indices":27,
					"material":0
				}
			]
		},
		{
			"name":"Cylinder.004",
			"primitives":[
				{
					"attributes":{
						"POSITION":28,
						"NORMAL":29,
						"TEXCOORD_0":30
					},
					"indices":31,
					"material":0
				}
			]
		},
		{
			"name":"Cylinder.003",
			"primitives":[
				{
					"attributes":{
						"POSITION":32,
						"NORMAL":33,
						"TEXCOORD_0":34
					},
					"indices":35,
					"material":0
				}
			]
		},
		{
			"name":"Cylinder.002",
			"primitives":[
				{
					"attributes":{
						"POSITION":36,
						"NORMAL":37,
						"TEXCOORD_0":38
					},
					"indices":39,
					"material":0
				}
			]
		}
	],
	"textures":[
		{
			"sampler":0,
			"source":0
		},
		{
			"sampler":0,
			"source":1
		},
		{
			"sampler":0,
			"source":2
		}
	],
	"images":[
		{
			"mimeType":"image/png",
			"name":"Scrap1_low_Scrap1_Normal.png",
			"uri":"Scrap1_low_Scrap1_Normal_png.png"
		},
		{
			"mimeType":"image/png",
			"name":"Scrap1_low_Scrap1_BaseColor.png",
			"uri":"Scrap1_low_Scrap1_BaseColor_png.png"
		},
		{
			"mimeType":"image/png",
			"name":"Scrap1_low_Scrap1_Metallic.png-Scrap1_low_Scrap1_Roughness.png",
			"uri":"Scrap1_low_Scrap1_Metallic_png-Scrap1_low_Scrap1_Roughness_png.png"
		}
	],
	"accessors":[
		{
			"bufferView":0,
			"componentType":5126,
			"count":26,
			"max":[
				1.682834267616272,
				0.3933607339859009,
				0.42392370104789734
			],
			"min":[
				-1.682834267616272,
				-0.3933607339859009,
				-0.42392370104789734
			],
			"type":"VEC3"
		},
		{
			"bufferView":1,
			"componentType":5126,
			"count":26,
			"type":"VEC3"
		},
		{
			"bufferView":2,
			"componentType":5126,
			"count":26,
			"type":"VEC2"
		},
		{
			"bufferView":3,
			"componentType":5123,
			"count":84,
			"type":"SCALAR"
		},
		{
			"bufferView":4,
			"componentType":5126,
			"count":26,
			"max":[
				1.0406826734542847,
				0.7596648335456848,
				1.523144245147705
			],
			"min":[
				-1.0833545923233032,
				-0.709804117679596,
				-1.5901175737380981
			],
			"type":"VEC3"
		},
		{
			"bufferView":5,
			"componentType":5126,
			"count":26,
			"type":"VEC3"
		},
		{
			"bufferView":6,
			"componentType":5126,
			"count":26,
			"type":"VEC2"
		},
		{
			"bufferView":7,
			"componentType":5123,
			"count":84,
			"type":"SCALAR"
		},
		{
			"bufferView":8,
			"componentType":5126,
			"count":26,
			"max":[
				0.6624680161476135,
				0.3794516324996948,
				1.3635889291763306
			],
			"min":[
				-0.6653040051460266,
				-0.39811551570892334,
				-1.364433765411377
			],
			"type":"VEC3"
		},
		{
			"bufferView":9,
			"componentType":5126,
			"count":26,
			"type":"VEC3"
		},
		{
			"bufferView":10,
			"componentType":5126,
			"count":26,
			"type":"VEC2"
		},
		{
			"bufferView":11,
			"componentType":5123,
			"count":84,
			"type":"SCALAR"
		},
		{
			"bufferView":12,
			"componentType":5126,
			"count":26,
			"max":[
				0.31845247745513916,
				0.7105516791343689,
				0.38389942049980164
			],
			"min":[
				-0.3144759237766266,
				-0.706092119216919,
				-0.3809146285057068
			],
			"type":"VEC3"
		},
		{
			"bufferView":13,
			"componentType":5126,
			"count":26,
			"type":"VEC3"
		},
		{
			"bufferView":14,
			"componentType":5126,
			"count":26,
			"type":"VEC2"
		},
		{
			"bufferView":15,
			"componentType":5123,
			"count":84,
			"type":"SCALAR"
		},
		{
			"bufferView":16,
			"componentType":5126,
			"count":36,
			"max":[
				0.44867515563964844,
				0.30530160665512085,
				0.4733262062072754
			],
			"min":[
				-0.43200960755348206,
				-0.2230863869190216,
				-0.4718048870563507
			],
			"type":"VEC3"
		},
		{
			"bufferView":17,
			"componentType":5126,
			"count":36,
			"type":"VEC3"
		},
		{
			"bufferView":18,
			"componentType":5126,
			"count":36,
			"type":"VEC2"
		},
		{
			"bufferView":19,
			"componentType":5123,
			"count":84,
			"type":"SCALAR"
		},
		{
			"bufferView":20,
			"componentType":5126,
			"count":29,
			"max":[
				0.6975189447402954,
				0.6391556859016418,
				1.0281085968017578
			],
			"min":[
				-0.8001413941383362,
				-0.45696622133255005,
				-1.0420856475830078
			],
			"type":"VEC3"
		},
		{
			"bufferView":21,
			"componentType":5126,
			"count":29,
			"type":"VEC3"
		},
		{
			"bufferView":22,
			"componentType":5126,
			"count":29,
			"type":"VEC2"
		},
		{
			"bufferView":23,
			"componentType":5123,
			"count":84,
			"type":"SCALAR"
		},
		{
			"bufferView":24,
			"componentType":5126,
			"count":74,
			"max":[
				1.126768946647644,
				0.46269291639328003,
				0.5378043055534363
			],
			"min":[
				-0.98581463098526,
				-0.9148094058036804,
				-0.5427930355072021
			],
			"type":"VEC3"
		},
		{
			"bufferView":25,
			"componentType":5126,
			"count":74,
			"type":"VEC3"
		},
		{
			"bufferView":26,
			"componentType":5126,
			"count":74,
			"type":"VEC2"
		},
		{
			"bufferView":27,
			"componentType":5123,
			"count":360,
			"type":"SCALAR"
		},
		{
			"bufferView":28,
			"componentType":5126,
			"count":74,
			"max":[
				0.10239320993423462,
				0.4682460427284241,
				0.545732855796814
			],
			"min":[
				-0.1817484349012375,
				-0.5660310387611389,
				-0.39784130454063416
			],
			"type":"VEC3"
		},
		{
			"bufferView":29,
			"componentType":5126,
			"count":74,
			"type":"VEC3"
		},
		{
			"bufferView":30,
			"componentType":5126,
			"count":74,
			"type":"VEC2"
		},
		{
			"bufferView":31,
			"componentType":5123,
			"count":360,
			"type":"SCALAR"
		},
		{
			"bufferView":32,
			"componentType":5126,
			"count":40,
			"max":[
				1.2722142934799194,
				0.22200416028499603,
				0.32911208271980286
			],
			"min":[
				-1.255456566810608,
				-0.11903808265924454,
				-0.24905076622962952
			],
			"type":"VEC3"
		},
		{
			"bufferView":33,
			"componentType":5126,
			"count":40,
			"type":"VEC3"
		},
		{
			"bufferView":34,
			"componentType":5126,
			"count":40,
			"type":"VEC2"
		},
		{
			"bufferView":35,
			"componentType":5123,
			"count":144,
			"type":"SCALAR"
		},
		{
			"bufferView":36,
			"componentType":5126,
			"count":88,
			"max":[
				0.43685463070869446,
				0.4581597149372101,
				0.24127143621444702
			],
			"min":[
				-0.49731600284576416,
				-0.6211737394332886,
				-0.2943671643733978
			],
			"type":"VEC3"
		},
		{
			"bufferView":37,
			"componentType":5126,
			"count":88,
			"type":"VEC3"
		},
		{
			"bufferView":38,
			"componentType":5126,
			"count":88,
			"type":"VEC2"
		},
		{
			"bufferView":39,
			"componentType":5123,
			"count":360,
			"type":"SCALAR"
		}
	],
	"bufferViews":[
		{
			"buffer":0,
			"byteLength":312,
			"byteOffset":0,
			"target":34962
		},
		{
			"buffer":0,
			"byteLength":312,
			"byteOffset":312,
			"target":34962
		},
		{
			"buffer":0,
			"byteLength":208,
			"byteOffset":624,
			"target":34962
		},
		{
			"buffer":0,
			"byteLength":168,
			"byteOffset":832,
			"target":34963
		},
		{
			"buffer":0,
			"byteLength":312,
			"byteOffset":1000,
			"target":34962
		},
		{
			"buffer":0,
			"byteLength":312,
			"byteOffset":1312,
			"target":34962
		},
		{
			"buffer":0,
			"byteLength":208,
			"byteOffset":1624,
			"target":34962
		},
		{
			"buffer":0,
			"byteLength":168,
			"byteOffset":1832,
			"target":34963
		},
		{
			"buffer":0,
			"byteLength":312,
			"byteOffset":2000,
			"target":34962
		},
		{
			"buffer":0,
			"byteLength":312,
			"byteOffset":2312,
			"target":34962
		},
		{
			"buffer":0,
			"byteLength":208,
			"byteOffset":2624,
			"target":34962
		},
		{
			"buffer":0,
			"byteLength":168,
			"byteOffset":2832,
			"target":34963
		},
		{
			"buffer":0,
			"byteLength":312,
			"byteOffset":3000,
			"target":34962
		},
		{
			"buffer":0,
			"byteLength":312,
			"byteOffset":3312,
			"target":34962
		},
		{
			"buffer":0,
			"byteLength":208,
			"byteOffset":3624,
			"target":34962
		},
		{
			"buffer":0,
			"byteLength":168,
			"byteOffset":3832,
			"target":34963
		},
		{
			"buffer":0,
			"byteLength":432,
			"byteOffset":4000,
			"target":34962
		},
		{
			"buffer":0,
			"byteLength":432,
			"byteOffset":4432,
			"target":34962
		},
		{
			"buffer":0,
			"byteLength":288,
			"byteOffset":4864,
			"target":34962
		},
		{
			"buffer":0,
			"byteLength":168,
			"byteOffset":5152,
			"target":34963
		},
		{
			"buffer":0,
			"byteLength":348,
			"byteOffset":5320,
			"target":34962
		},
		{
			"buffer":0,
			"byteLength":348,
			"byteOffset":5668,
			"target":34962
		},
		{
			"buffer":0,
			"byteLength":232,
			"byteOffset":6016,
			"target":34962
		},
		{
			"buffer":0,
			"byteLength":168,
			"byteOffset":6248,
			"target":34963
		},
		{
			"buffer":0,
			"byteLength":888,
			"byteOffset":6416,
			"target":34962
		},
		{
			"buffer":0,
			"byteLength":888,
			"byteOffset":7304,
			"target":34962
		},
		{
			"buffer":0,
			"byteLength":592,
			"byteOffset":8192,
			"target":34962
		},
		{
			"buffer":0,
			"byteLength":720,
			"byteOffset":8784,
			"target":34963
		},
		{
			"buffer":0,
			"byteLength":888,
			"byteOffset":9504,
			"target":34962
		},
		{
			"buffer":0,
			"byteLength":888,
			"byteOffset":10392,
			"target":34962
		},
		{
			"buffer":0,
			"byteLength":592,
			"byteOffset":11280,
			"target":34962
		},
		{
			"buffer":0,
			"byteLength":720,
			"byteOffset":11872,
			"target":34963
		},
		{
			"buffer":0,
			"byteLength":480,
			"byteOffset":12592,
			"target":34962
		},
		{
			"buffer":0,
			"byteLength":480,
			"byteOffset":13072,
			"target":34962
		},
		{
			"buffer":0,
			"byteLength":320,
			"byteOffset":13552,
			"target":34962
		},
		{
			"buffer":0,
			"byteLength":288,
			"byteOffset":13872,
			"target":34963
		},
		{
			"buffer":0,
			"byteLength":1056,
			"byteOffset":14160,
			"target":34962
		},
		{
			"buffer":0,
			"byteLength":1056,
			"byteOffset":15216,
			"target":34962
		},
		{
			"buffer":0,
			"byteLength":704,
			"byteOffset":16272,
			"target":34962
		},
		{
			"buffer":0,
			"byteLength":720,
			"byteOffset":16976,
			"target":34963
		}
	],
	"samplers":[
		{
			"magFilter":9729,
			"minFilter":9987
		}
	],
	"buffers":[
		{
			"byteLength":17696,
			"uri":"prop_scrap_v01.bin"
		}
	]
}
