{
	"asset":{
		"generator":"Khronos glTF Blender I/O v4.3.47",
		"version":"2.0"
	},
	"scene":0,
	"scenes":[
		{
			"name":"Scene",
			"nodes":[
				0,
				1,
				2,
				3,
				4
			]
		}
	],
	"nodes":[
		{
			"mesh":0,
			"name":"Ground"
		},
		{
			"mesh":1,
			"name":"Walls"
		},
		{
			"mesh":2,
			"name":"NavMesh"
		},
		{
			"mesh":3,
			"name":"Obstacles"
		},
		{
			"mesh":4,
			"name":"Cylinder"
		}
	],
	"materials":[
		{
			"doubleSided":true,
			"name":"Material.002",
			"normalTexture":{
				"index":0
			},
			"pbrMetallicRoughness":{
				"baseColorTexture":{
					"index":1
				},
				"metallicRoughnessTexture":{
					"index":2
				}
			}
		},
		{
			"doubleSided":true,
			"name":"MaterialParedes",
			"normalTexture":{
				"index":3
			},
			"pbrMetallicRoughness":{
				"baseColorTexture":{
					"index":4
				},
				"metallicRoughnessTexture":{
					"index":5
				}
			}
		},
		{
			"doubleSided":true,
			"name":"Material",
			"pbrMetallicRoughness":{
				"baseColorFactor":[
					0.800000011920929,
					0.800000011920929,
					0.800000011920929,
					1
				],
				"metallicFactor":0,
				"roughnessFactor":0.5
			}
		},
		{
			"doubleSided":true,
			"name":"Material.001",
			"pbrMetallicRoughness":{
				"baseColorFactor":[
					0.800000011920929,
					0.800000011920929,
					0.800000011920929,
					1
				],
				"metallicFactor":0,
				"roughnessFactor":0.5
			}
		}
	],
	"meshes":[
		{
			"name":"Cube.400",
			"primitives":[
				{
					"attributes":{
						"POSITION":0,
						"NORMAL":1,
						"TEXCOORD_0":2
					},
					"indices":3,
					"material":0
				}
			]
		},
		{
			"name":"Cube.1049",
			"primitives":[
				{
					"attributes":{
						"POSITION":4,
						"NORMAL":5,
						"TEXCOORD_0":6
					},
					"indices":7,
					"material":1
				}
			]
		},
		{
			"name":"Cube.618",
			"primitives":[
				{
					"attributes":{
						"POSITION":8,
						"NORMAL":9,
						"TEXCOORD_0":10
					},
					"indices":11,
					"material":2
				}
			]
		},
		{
			"name":"Cube.062",
			"primitives":[
				{
					"attributes":{
						"POSITION":12,
						"NORMAL":13,
						"TEXCOORD_0":14
					},
					"indices":15,
					"material":3
				}
			]
		},
		{
			"name":"Cylinder.014",
			"primitives":[
				{
					"attributes":{
						"POSITION":16,
						"NORMAL":17,
						"TEXCOORD_0":18
					},
					"indices":19
				}
			]
		}
	],
	"textures":[
		{
			"sampler":0,
			"source":0
		},
		{
			"sampler":0,
			"source":1
		},
		{
			"sampler":0,
			"source":2
		},
		{
			"sampler":0,
			"source":3
		},
		{
			"sampler":0,
			"source":4
		},
		{
			"sampler":0,
			"source":5
		}
	],
	"images":[
		{
			"mimeType":"image/png",
			"name":"desert_ground_01_normal_gl_2k",
			"uri":"desert_ground_01_normal_gl_2k.png"
		},
		{
			"mimeType":"image/png",
			"name":"desert_ground_01_baseColor_2k",
			"uri":"desert_ground_01_baseColor_2k.png"
		},
		{
			"mimeType":"image/png",
			"name":"desert_ground_01_metallic_2k.png-desert_ground_01_roughness_2k.png",
			"uri":"desert_ground_01_metallic_2k_png-desert_ground_01_roughness_2k_png.png"
		},
		{
			"mimeType":"image/png",
			"name":"cliff_rocks_01_normal_gl_2k",
			"uri":"cliff_rocks_01_normal_gl_2k.png"
		},
		{
			"mimeType":"image/png",
			"name":"cliff_rocks_01_color_2k",
			"uri":"cliff_rocks_01_color_2k.png"
		},
		{
			"mimeType":"image/png",
			"name":"cliff_rocks_01_metallic_2k-cliff_rocks_01_roughness_2k",
			"uri":"cliff_rocks_01_metallic_2k-cliff_rocks_01_roughness_2k.png"
		}
	],
	"accessors":[
		{
			"bufferView":0,
			"componentType":5126,
			"count":392,
			"max":[
				34.59038543701172,
				1.1563996622498962e-06,
				7.097930908203125
			],
			"min":[
				-3.8156402111053467,
				-0.02155066654086113,
				-27.35013771057129
			],
			"type":"VEC3"
		},
		{
			"bufferView":1,
			"componentType":5126,
			"count":392,
			"type":"VEC3"
		},
		{
			"bufferView":2,
			"componentType":5126,
			"count":392,
			"type":"VEC2"
		},
		{
			"bufferView":3,
			"componentType":5123,
			"count":1158,
			"type":"SCALAR"
		},
		{
			"bufferView":4,
			"componentType":5126,
			"count":2395,
			"max":[
				35.20339584350586,
				0.5138376951217651,
				7.597930908203125
			],
			"min":[
				-4.315600872039795,
				-0.02155066654086113,
				-27.82538414001465
			],
			"type":"VEC3"
		},
		{
			"bufferView":5,
			"componentType":5126,
			"count":2395,
			"type":"VEC3"
		},
		{
			"bufferView":6,
			"componentType":5126,
			"count":2395,
			"type":"VEC2"
		},
		{
			"bufferView":7,
			"componentType":5123,
			"count":4920,
			"type":"SCALAR"
		},
		{
			"bufferView":8,
			"componentType":5126,
			"count":647,
			"max":[
				34.407432556152344,
				1.1299335938019794e-06,
				6.935482978820801
			],
			"min":[
				-2.765106201171875,
				-0.019085384905338287,
				-27.26254653930664
			],
			"type":"VEC3"
		},
		{
			"bufferView":9,
			"componentType":5126,
			"count":647,
			"type":"VEC3"
		},
		{
			"bufferView":10,
			"componentType":5126,
			"count":647,
			"type":"VEC2"
		},
		{
			"bufferView":11,
			"componentType":5123,
			"count":1923,
			"type":"SCALAR"
		},
		{
			"bufferView":12,
			"componentType":5126,
			"count":664,
			"max":[
				32.11574935913086,
				0.49595996737480164,
				6.097934246063232
			],
			"min":[
				-0.9898521304130554,
				-0.0068341935984790325,
				-27.44830894470215
			],
			"type":"VEC3"
		},
		{
			"bufferView":13,
			"componentType":5126,
			"count":664,
			"type":"VEC3"
		},
		{
			"bufferView":14,
			"componentType":5126,
			"count":664,
			"type":"VEC2"
		},
		{
			"bufferView":15,
			"componentType":5123,
			"count":1020,
			"type":"SCALAR"
		},
		{
			"bufferView":16,
			"componentType":5126,
			"count":128,
			"max":[
				14.243654251098633,
				0.1999993920326233,
				-3.7818706035614014
			],
			"min":[
				13.297770500183105,
				-7.702489597249951e-07,
				-4.727754592895508
			],
			"type":"VEC3"
		},
		{
			"bufferView":17,
			"componentType":5126,
			"count":128,
			"type":"VEC3"
		},
		{
			"bufferView":18,
			"componentType":5126,
			"count":128,
			"type":"VEC2"
		},
		{
			"bufferView":19,
			"componentType":5123,
			"count":192,
			"type":"SCALAR"
		}
	],
	"bufferViews":[
		{
			"buffer":0,
			"byteLength":4704,
			"byteOffset":0,
			"target":34962
		},
		{
			"buffer":0,
			"byteLength":4704,
			"byteOffset":4704,
			"target":34962
		},
		{
			"buffer":0,
			"byteLength":3136,
			"byteOffset":9408,
			"target":34962
		},
		{
			"buffer":0,
			"byteLength":2316,
			"byteOffset":12544,
			"target":34963
		},
		{
			"buffer":0,
			"byteLength":28740,
			"byteOffset":14860,
			"target":34962
		},
		{
			"buffer":0,
			"byteLength":28740,
			"byteOffset":43600,
			"target":34962
		},
		{
			"buffer":0,
			"byteLength":19160,
			"byteOffset":72340,
			"target":34962
		},
		{
			"buffer":0,
			"byteLength":9840,
			"byteOffset":91500,
			"target":34963
		},
		{
			"buffer":0,
			"byteLength":7764,
			"byteOffset":101340,
			"target":34962
		},
		{
			"buffer":0,
			"byteLength":7764,
			"byteOffset":109104,
			"target":34962
		},
		{
			"buffer":0,
			"byteLength":5176,
			"byteOffset":116868,
			"target":34962
		},
		{
			"buffer":0,
			"byteLength":3846,
			"byteOffset":122044,
			"target":34963
		},
		{
			"buffer":0,
			"byteLength":7968,
			"byteOffset":125892,
			"target":34962
		},
		{
			"buffer":0,
			"byteLength":7968,
			"byteOffset":133860,
			"target":34962
		},
		{
			"buffer":0,
			"byteLength":5312,
			"byteOffset":141828,
			"target":34962
		},
		{
			"buffer":0,
			"byteLength":2040,
			"byteOffset":147140,
			"target":34963
		},
		{
			"buffer":0,
			"byteLength":1536,
			"byteOffset":149180,
			"target":34962
		},
		{
			"buffer":0,
			"byteLength":1536,
			"byteOffset":150716,
			"target":34962
		},
		{
			"buffer":0,
			"byteLength":1024,
			"byteOffset":152252,
			"target":34962
		},
		{
			"buffer":0,
			"byteLength":384,
			"byteOffset":153276,
			"target":34963
		}
	],
	"samplers":[
		{
			"magFilter":9729,
			"minFilter":9987
		}
	],
	"buffers":[
		{
			"byteLength":153660,
			"uri":"block.bin"
		}
	]
}
