{
	"asset":{
		"generator":"Khronos glTF Blender I/O v4.4.56",
		"version":"2.0"
	},
	"scene":0,
	"scenes":[
		{
			"name":"Scene",
			"nodes":[
				6
			]
		}
	],
	"nodes":[
		{
			"name":"aro1",
			"rotation":[
				0,
				1.1920928955078125e-07,
				0,
				1
			]
		},
		{
			"name":"aro2",
			"rotation":[
				0,
				1.1920928955078125e-07,
				0,
				1
			]
		},
		{
			"name":"aro3",
			"rotation":[
				0,
				1.1920928955078125e-07,
				0,
				1
			]
		},
		{
			"name":"aro4",
			"rotation":[
				0,
				1.1920928955078125e-07,
				0,
				1
			]
		},
		{
			"children":[
				0,
				1,
				2,
				3
			],
			"name":"Root"
		},
		{
			"mesh":0,
			"name":"VFX_ZHBolter",
			"skin":0
		},
		{
			"children":[
				5,
				4
			],
			"name":"Armature"
		}
	],
	"animations":[
		{
			"channels":[
				{
					"sampler":0,
					"target":{
						"node":4,
						"path":"translation"
					}
				},
				{
					"sampler":1,
					"target":{
						"node":4,
						"path":"rotation"
					}
				},
				{
					"sampler":2,
					"target":{
						"node":4,
						"path":"scale"
					}
				},
				{
					"sampler":3,
					"target":{
						"node":0,
						"path":"translation"
					}
				},
				{
					"sampler":4,
					"target":{
						"node":0,
						"path":"rotation"
					}
				},
				{
					"sampler":5,
					"target":{
						"node":0,
						"path":"scale"
					}
				},
				{
					"sampler":6,
					"target":{
						"node":1,
						"path":"translation"
					}
				},
				{
					"sampler":7,
					"target":{
						"node":1,
						"path":"rotation"
					}
				},
				{
					"sampler":8,
					"target":{
						"node":1,
						"path":"scale"
					}
				},
				{
					"sampler":9,
					"target":{
						"node":2,
						"path":"translation"
					}
				},
				{
					"sampler":10,
					"target":{
						"node":2,
						"path":"rotation"
					}
				},
				{
					"sampler":11,
					"target":{
						"node":2,
						"path":"scale"
					}
				},
				{
					"sampler":12,
					"target":{
						"node":3,
						"path":"translation"
					}
				},
				{
					"sampler":13,
					"target":{
						"node":3,
						"path":"rotation"
					}
				},
				{
					"sampler":14,
					"target":{
						"node":3,
						"path":"scale"
					}
				}
			],
			"name":"VFX",
			"samplers":[
				{
					"input":22,
					"interpolation":"STEP",
					"output":23
				},
				{
					"input":22,
					"interpolation":"STEP",
					"output":24
				},
				{
					"input":22,
					"interpolation":"STEP",
					"output":25
				},
				{
					"input":22,
					"interpolation":"STEP",
					"output":26
				},
				{
					"input":22,
					"interpolation":"STEP",
					"output":27
				},
				{
					"input":28,
					"interpolation":"LINEAR",
					"output":29
				},
				{
					"input":22,
					"interpolation":"STEP",
					"output":30
				},
				{
					"input":22,
					"interpolation":"STEP",
					"output":31
				},
				{
					"input":28,
					"interpolation":"LINEAR",
					"output":32
				},
				{
					"input":22,
					"interpolation":"STEP",
					"output":33
				},
				{
					"input":22,
					"interpolation":"STEP",
					"output":34
				},
				{
					"input":28,
					"interpolation":"LINEAR",
					"output":35
				},
				{
					"input":22,
					"interpolation":"STEP",
					"output":36
				},
				{
					"input":22,
					"interpolation":"STEP",
					"output":37
				},
				{
					"input":28,
					"interpolation":"LINEAR",
					"output":38
				}
			]
		}
	],
	"materials":[
		{
			"doubleSided":true,
			"emissiveFactor":[
				1,
				1,
				1
			],
			"emissiveTexture":{
				"index":0
			},
			"name":"Material.004",
			"pbrMetallicRoughness":{
				"baseColorTexture":{
					"index":1
				},
				"metallicFactor":0,
				"roughnessFactor":0.5
			}
		},
		{
			"doubleSided":true,
			"emissiveFactor":[
				1,
				1,
				1
			],
			"emissiveTexture":{
				"index":2
			},
			"name":"Material.002",
			"pbrMetallicRoughness":{
				"baseColorTexture":{
					"index":3
				},
				"metallicFactor":0,
				"roughnessFactor":0.5
			}
		},
		{
			"doubleSided":true,
			"emissiveFactor":[
				1,
				1,
				1
			],
			"emissiveTexture":{
				"index":4
			},
			"name":"Material.003",
			"pbrMetallicRoughness":{
				"baseColorTexture":{
					"index":5
				},
				"metallicFactor":0,
				"roughnessFactor":0.5
			}
		}
	],
	"meshes":[
		{
			"name":"Plane",
			"primitives":[
				{
					"attributes":{
						"POSITION":0,
						"NORMAL":1,
						"TEXCOORD_0":2,
						"JOINTS_0":3,
						"WEIGHTS_0":4
					},
					"indices":5,
					"material":0
				},
				{
					"attributes":{
						"POSITION":6,
						"NORMAL":7,
						"TEXCOORD_0":8,
						"JOINTS_0":9,
						"WEIGHTS_0":10
					},
					"indices":5,
					"material":1
				},
				{
					"attributes":{
						"POSITION":11,
						"NORMAL":12,
						"TEXCOORD_0":13,
						"JOINTS_0":14,
						"WEIGHTS_0":15
					},
					"indices":5,
					"material":2
				},
				{
					"attributes":{
						"POSITION":16,
						"NORMAL":17,
						"TEXCOORD_0":18,
						"JOINTS_0":19,
						"WEIGHTS_0":20
					},
					"indices":5,
					"material":0
				}
			]
		}
	],
	"textures":[
		{
			"sampler":0,
			"source":0
		},
		{
			"sampler":0,
			"source":0
		},
		{
			"sampler":0,
			"source":0
		},
		{
			"sampler":0,
			"source":0
		},
		{
			"sampler":0,
			"source":0
		},
		{
			"sampler":0,
			"source":0
		}
	],
	"images":[
		{
			"mimeType":"image/png",
			"name":"VFX_impactoBolter",
			"uri":"VFX_impactoBolter.png"
		}
	],
	"skins":[
		{
			"inverseBindMatrices":21,
			"joints":[
				4,
				0,
				1,
				2,
				3
			],
			"name":"Armature"
		}
	],
	"accessors":[
		{
			"bufferView":0,
			"componentType":5126,
			"count":4,
			"max":[
				1,
				0,
				1
			],
			"min":[
				-1,
				0,
				-1
			],
			"type":"VEC3"
		},
		{
			"bufferView":1,
			"componentType":5126,
			"count":4,
			"type":"VEC3"
		},
		{
			"bufferView":2,
			"componentType":5126,
			"count":4,
			"type":"VEC2"
		},
		{
			"bufferView":3,
			"componentType":5121,
			"count":4,
			"type":"VEC4"
		},
		{
			"bufferView":4,
			"componentType":5126,
			"count":4,
			"type":"VEC4"
		},
		{
			"bufferView":5,
			"componentType":5123,
			"count":6,
			"type":"SCALAR"
		},
		{
			"bufferView":6,
			"componentType":5126,
			"count":4,
			"max":[
				1,
				0,
				1
			],
			"min":[
				-1,
				0,
				-1
			],
			"type":"VEC3"
		},
		{
			"bufferView":7,
			"componentType":5126,
			"count":4,
			"type":"VEC3"
		},
		{
			"bufferView":8,
			"componentType":5126,
			"count":4,
			"type":"VEC2"
		},
		{
			"bufferView":9,
			"componentType":5121,
			"count":4,
			"type":"VEC4"
		},
		{
			"bufferView":10,
			"componentType":5126,
			"count":4,
			"type":"VEC4"
		},
		{
			"bufferView":11,
			"componentType":5126,
			"count":4,
			"max":[
				1,
				0,
				1
			],
			"min":[
				-1,
				0,
				-1
			],
			"type":"VEC3"
		},
		{
			"bufferView":12,
			"componentType":5126,
			"count":4,
			"type":"VEC3"
		},
		{
			"bufferView":13,
			"componentType":5126,
			"count":4,
			"type":"VEC2"
		},
		{
			"bufferView":14,
			"componentType":5121,
			"count":4,
			"type":"VEC4"
		},
		{
			"bufferView":15,
			"componentType":5126,
			"count":4,
			"type":"VEC4"
		},
		{
			"bufferView":16,
			"componentType":5126,
			"count":4,
			"max":[
				1,
				0,
				1
			],
			"min":[
				-1,
				0,
				-1
			],
			"type":"VEC3"
		},
		{
			"bufferView":17,
			"componentType":5126,
			"count":4,
			"type":"VEC3"
		},
		{
			"bufferView":18,
			"componentType":5126,
			"count":4,
			"type":"VEC2"
		},
		{
			"bufferView":19,
			"componentType":5121,
			"count":4,
			"type":"VEC4"
		},
		{
			"bufferView":20,
			"componentType":5126,
			"count":4,
			"type":"VEC4"
		},
		{
			"bufferView":21,
			"componentType":5126,
			"count":5,
			"type":"MAT4"
		},
		{
			"bufferView":22,
			"componentType":5126,
			"count":2,
			"max":[
				1
			],
			"min":[
				0.016666666666666666
			],
			"type":"SCALAR"
		},
		{
			"bufferView":23,
			"componentType":5126,
			"count":2,
			"type":"VEC3"
		},
		{
			"bufferView":24,
			"componentType":5126,
			"count":2,
			"type":"VEC4"
		},
		{
			"bufferView":25,
			"componentType":5126,
			"count":2,
			"type":"VEC3"
		},
		{
			"bufferView":26,
			"componentType":5126,
			"count":2,
			"type":"VEC3"
		},
		{
			"bufferView":27,
			"componentType":5126,
			"count":2,
			"type":"VEC4"
		},
		{
			"bufferView":28,
			"componentType":5126,
			"count":60,
			"max":[
				1
			],
			"min":[
				0.016666666666666666
			],
			"type":"SCALAR"
		},
		{
			"bufferView":29,
			"componentType":5126,
			"count":60,
			"type":"VEC3"
		},
		{
			"bufferView":30,
			"componentType":5126,
			"count":2,
			"type":"VEC3"
		},
		{
			"bufferView":31,
			"componentType":5126,
			"count":2,
			"type":"VEC4"
		},
		{
			"bufferView":32,
			"componentType":5126,
			"count":60,
			"type":"VEC3"
		},
		{
			"bufferView":33,
			"componentType":5126,
			"count":2,
			"type":"VEC3"
		},
		{
			"bufferView":34,
			"componentType":5126,
			"count":2,
			"type":"VEC4"
		},
		{
			"bufferView":35,
			"componentType":5126,
			"count":60,
			"type":"VEC3"
		},
		{
			"bufferView":36,
			"componentType":5126,
			"count":2,
			"type":"VEC3"
		},
		{
			"bufferView":37,
			"componentType":5126,
			"count":2,
			"type":"VEC4"
		},
		{
			"bufferView":38,
			"componentType":5126,
			"count":60,
			"type":"VEC3"
		}
	],
	"bufferViews":[
		{
			"buffer":0,
			"byteLength":48,
			"byteOffset":0,
			"target":34962
		},
		{
			"buffer":0,
			"byteLength":48,
			"byteOffset":48,
			"target":34962
		},
		{
			"buffer":0,
			"byteLength":32,
			"byteOffset":96,
			"target":34962
		},
		{
			"buffer":0,
			"byteLength":16,
			"byteOffset":128,
			"target":34962
		},
		{
			"buffer":0,
			"byteLength":64,
			"byteOffset":144,
			"target":34962
		},
		{
			"buffer":0,
			"byteLength":12,
			"byteOffset":208,
			"target":34963
		},
		{
			"buffer":0,
			"byteLength":48,
			"byteOffset":220,
			"target":34962
		},
		{
			"buffer":0,
			"byteLength":48,
			"byteOffset":268,
			"target":34962
		},
		{
			"buffer":0,
			"byteLength":32,
			"byteOffset":316,
			"target":34962
		},
		{
			"buffer":0,
			"byteLength":16,
			"byteOffset":348,
			"target":34962
		},
		{
			"buffer":0,
			"byteLength":64,
			"byteOffset":364,
			"target":34962
		},
		{
			"buffer":0,
			"byteLength":48,
			"byteOffset":428,
			"target":34962
		},
		{
			"buffer":0,
			"byteLength":48,
			"byteOffset":476,
			"target":34962
		},
		{
			"buffer":0,
			"byteLength":32,
			"byteOffset":524,
			"target":34962
		},
		{
			"buffer":0,
			"byteLength":16,
			"byteOffset":556,
			"target":34962
		},
		{
			"buffer":0,
			"byteLength":64,
			"byteOffset":572,
			"target":34962
		},
		{
			"buffer":0,
			"byteLength":48,
			"byteOffset":636,
			"target":34962
		},
		{
			"buffer":0,
			"byteLength":48,
			"byteOffset":684,
			"target":34962
		},
		{
			"buffer":0,
			"byteLength":32,
			"byteOffset":732,
			"target":34962
		},
		{
			"buffer":0,
			"byteLength":16,
			"byteOffset":764,
			"target":34962
		},
		{
			"buffer":0,
			"byteLength":64,
			"byteOffset":780,
			"target":34962
		},
		{
			"buffer":0,
			"byteLength":320,
			"byteOffset":844
		},
		{
			"buffer":0,
			"byteLength":8,
			"byteOffset":1164
		},
		{
			"buffer":0,
			"byteLength":24,
			"byteOffset":1172
		},
		{
			"buffer":0,
			"byteLength":32,
			"byteOffset":1196
		},
		{
			"buffer":0,
			"byteLength":24,
			"byteOffset":1228
		},
		{
			"buffer":0,
			"byteLength":24,
			"byteOffset":1252
		},
		{
			"buffer":0,
			"byteLength":32,
			"byteOffset":1276
		},
		{
			"buffer":0,
			"byteLength":240,
			"byteOffset":1308
		},
		{
			"buffer":0,
			"byteLength":720,
			"byteOffset":1548
		},
		{
			"buffer":0,
			"byteLength":24,
			"byteOffset":2268
		},
		{
			"buffer":0,
			"byteLength":32,
			"byteOffset":2292
		},
		{
			"buffer":0,
			"byteLength":720,
			"byteOffset":2324
		},
		{
			"buffer":0,
			"byteLength":24,
			"byteOffset":3044
		},
		{
			"buffer":0,
			"byteLength":32,
			"byteOffset":3068
		},
		{
			"buffer":0,
			"byteLength":720,
			"byteOffset":3100
		},
		{
			"buffer":0,
			"byteLength":24,
			"byteOffset":3820
		},
		{
			"buffer":0,
			"byteLength":32,
			"byteOffset":3844
		},
		{
			"buffer":0,
			"byteLength":720,
			"byteOffset":3876
		}
	],
	"samplers":[
		{
			"magFilter":9729,
			"minFilter":9987
		}
	],
	"buffers":[
		{
			"byteLength":4596,
			"uri":"VFX_ZHBolter.bin"
		}
	]
}
