{
	"asset":{
		"generator":"Khronos glTF Blender I/O v4.4.55",
		"version":"2.0"
	},
	"scene":0,
	"scenes":[
		{
			"name":"Scene",
			"nodes":[
				0
			]
		}
	],
	"nodes":[
		{
			"mesh":0,
			"name":"vida_low"
		}
	],
	"materials":[
		{
			"doubleSided":true,
			"name":"Vida_MAT",
			"normalTexture":{
				"index":0
			},
			"pbrMetallicRoughness":{
				"baseColorTexture":{
					"index":1
				},
				"metallicFactor":0,
				"metallicRoughnessTexture":{
					"index":2
				}
			}
		}
	],
	"meshes":[
		{
			"name":"Cylinder.002",
			"primitives":[
				{
					"attributes":{
						"POSITION":0,
						"NORMAL":1,
						"TEXCOORD_0":2
					},
					"indices":3,
					"material":0
				}
			]
		}
	],
	"textures":[
		{
			"sampler":0,
			"source":0
		},
		{
			"sampler":0,
			"source":1
		},
		{
			"sampler":0,
			"source":2
		}
	],
	"images":[
		{
			"mimeType":"image/png",
			"name":"p_pickupVida_n",
			"uri":"p_pickupVida_n.png"
		},
		{
			"mimeType":"image/png",
			"name":"p_pickupVida_bc",
			"uri":"p_pickupVida_bc.png"
		},
		{
			"mimeType":"image/png",
			"name":"p_pickupVida_r",
			"uri":"p_pickupVida_r.png"
		}
	],
	"accessors":[
		{
			"bufferView":0,
			"componentType":5126,
			"count":200,
			"max":[
				0.1311294138431549,
				0.943471372127533,
				0.2152005136013031
			],
			"min":[
				-0.23721016943454742,
				0.37180137634277344,
				-0.280929297208786
			],
			"type":"VEC3"
		},
		{
			"bufferView":1,
			"componentType":5126,
			"count":200,
			"type":"VEC3"
		},
		{
			"bufferView":2,
			"componentType":5126,
			"count":200,
			"type":"VEC2"
		},
		{
			"bufferView":3,
			"componentType":5123,
			"count":492,
			"type":"SCALAR"
		}
	],
	"bufferViews":[
		{
			"buffer":0,
			"byteLength":2400,
			"byteOffset":0,
			"target":34962
		},
		{
			"buffer":0,
			"byteLength":2400,
			"byteOffset":2400,
			"target":34962
		},
		{
			"buffer":0,
			"byteLength":1600,
			"byteOffset":4800,
			"target":34962
		},
		{
			"buffer":0,
			"byteLength":984,
			"byteOffset":6400,
			"target":34963
		}
	],
	"samplers":[
		{
			"magFilter":9729,
			"minFilter":9987
		}
	],
	"buffers":[
		{
			"byteLength":7384,
			"uri":"Pickupvida.bin"
		}
	]
}
