{
	"asset":{
		"generator":"Khronos glTF Blender I/O v4.2.60",
		"version":"2.0"
	},
	"scene":0,
	"scenes":[
		{
			"name":"Scene",
			"nodes":[
				5
			]
		}
	],
	"nodes":[
		{
			"name":"Door.1",
			"rotation":[
				-0.13814479112625122,
				1.2788605374680628e-07,
				-1.646814062894464e-08,
				0.9904120564460754
			],
			"scale":[
				0.9999999403953552,
				0.9999998807907104,
				0.9999999403953552
			],
			"translation":[
				0,
				0.11954521387815475,
				1.2078666687011719
			]
		},
		{
			"name":"Door.2",
			"rotation":[
				0.03567621111869812,
				-0.25689879059791565,
				-0.13345858454704285,
				0.9565140008926392
			],
			"scale":[
				0.9999998807907104,
				0.9999998211860657,
				0.9999999403953552
			],
			"translation":[
				-1.0460432767868042,
				0.11954521387815475,
				-0.6039333939552307
			]
		},
		{
			"name":"Door.3",
			"rotation":[
				0.0243835411965847,
				0.3360370099544525,
				0.13597580790519714,
				0.9316625595092773
			],
			"scale":[
				0.9999998807907104,
				0.9999998807907104,
				1
			],
			"translation":[
				1.0460432767868042,
				0.11954521387815475,
				-0.6039333939552307
			]
		},
		{
			"children":[
				0,
				1,
				2
			],
			"name":"Root",
			"rotation":[
				0,
				0.8660253882408142,
				0,
				0.4999999701976776
			],
			"scale":[
				1,
				0.9999999403953552,
				1
			]
		},
		{
			"mesh":0,
			"name":"Drop_pod_final",
			"skin":0
		},
		{
			"children":[
				4,
				3
			],
			"name":"Rig_Droppod"
		}
	],
	"animations":[
		{
			"channels":[
				{
					"sampler":0,
					"target":{
						"node":3,
						"path":"translation"
					}
				},
				{
					"sampler":1,
					"target":{
						"node":3,
						"path":"rotation"
					}
				},
				{
					"sampler":2,
					"target":{
						"node":3,
						"path":"scale"
					}
				},
				{
					"sampler":3,
					"target":{
						"node":0,
						"path":"translation"
					}
				},
				{
					"sampler":4,
					"target":{
						"node":0,
						"path":"rotation"
					}
				},
				{
					"sampler":5,
					"target":{
						"node":0,
						"path":"scale"
					}
				},
				{
					"sampler":6,
					"target":{
						"node":1,
						"path":"translation"
					}
				},
				{
					"sampler":7,
					"target":{
						"node":1,
						"path":"rotation"
					}
				},
				{
					"sampler":8,
					"target":{
						"node":1,
						"path":"scale"
					}
				},
				{
					"sampler":9,
					"target":{
						"node":2,
						"path":"translation"
					}
				},
				{
					"sampler":10,
					"target":{
						"node":2,
						"path":"rotation"
					}
				},
				{
					"sampler":11,
					"target":{
						"node":2,
						"path":"scale"
					}
				}
			],
			"name":"Drop",
			"samplers":[
				{
					"input":7,
					"interpolation":"LINEAR",
					"output":8
				},
				{
					"input":9,
					"interpolation":"STEP",
					"output":10
				},
				{
					"input":9,
					"interpolation":"STEP",
					"output":11
				},
				{
					"input":9,
					"interpolation":"STEP",
					"output":12
				},
				{
					"input":9,
					"interpolation":"STEP",
					"output":13
				},
				{
					"input":9,
					"interpolation":"STEP",
					"output":14
				},
				{
					"input":9,
					"interpolation":"LINEAR",
					"output":15
				},
				{
					"input":7,
					"interpolation":"LINEAR",
					"output":16
				},
				{
					"input":9,
					"interpolation":"LINEAR",
					"output":17
				},
				{
					"input":9,
					"interpolation":"STEP",
					"output":18
				},
				{
					"input":9,
					"interpolation":"STEP",
					"output":19
				},
				{
					"input":9,
					"interpolation":"STEP",
					"output":20
				}
			]
		}
	],
	"materials":[
		{
			"doubleSided":true,
			"name":"Droppod_MAT",
			"normalTexture":{
				"index":0
			},
			"pbrMetallicRoughness":{
				"baseColorTexture":{
					"index":1
				},
				"metallicRoughnessTexture":{
					"index":2
				}
			}
		}
	],
	"meshes":[
		{
			"name":"Cylinder.005",
			"primitives":[
				{
					"attributes":{
						"POSITION":0,
						"NORMAL":1,
						"TEXCOORD_0":2,
						"JOINTS_0":3,
						"WEIGHTS_0":4
					},
					"indices":5,
					"material":0
				}
			]
		}
	],
	"textures":[
		{
			"sampler":0,
			"source":0
		},
		{
			"sampler":0,
			"source":1
		},
		{
			"sampler":0,
			"source":2
		}
	],
	"images":[
		{
			"mimeType":"image/png",
			"name":"PropDropPod_low_Droppod_MAT_Normal",
			"uri":"PropDropPod_low_Droppod_MAT_Normal.png"
		},
		{
			"mimeType":"image/png",
			"name":"PropDropPod_low_Droppod_MAT_BaseColor",
			"uri":"PropDropPod_low_Droppod_MAT_BaseColor.png"
		},
		{
			"mimeType":"image/png",
			"name":"PropDropPod_low_Droppod_MAT_Metallic-PropDropPod_low_Droppod_MAT_Roughness",
			"uri":"PropDropPod_low_Droppod_MAT_Metallic-PropDropPod_low_Droppod_MAT_Roughness.png"
		}
	],
	"skins":[
		{
			"inverseBindMatrices":6,
			"joints":[
				3,
				0,
				1,
				2
			],
			"name":"Rig_Droppod"
		}
	],
	"accessors":[
		{
			"bufferView":0,
			"componentType":5126,
			"count":4184,
			"max":[
				1.989344835281372,
				5.8341498374938965,
				1.3565083742141724
			],
			"min":[
				-1.989344835281372,
				-0.010085891000926495,
				-2.1311798095703125
			],
			"type":"VEC3"
		},
		{
			"bufferView":1,
			"componentType":5126,
			"count":4184,
			"type":"VEC3"
		},
		{
			"bufferView":2,
			"componentType":5126,
			"count":4184,
			"type":"VEC2"
		},
		{
			"bufferView":3,
			"componentType":5121,
			"count":4184,
			"type":"VEC4"
		},
		{
			"bufferView":4,
			"componentType":5126,
			"count":4184,
			"type":"VEC4"
		},
		{
			"bufferView":5,
			"componentType":5123,
			"count":10368,
			"type":"SCALAR"
		},
		{
			"bufferView":6,
			"componentType":5126,
			"count":4,
			"type":"MAT4"
		},
		{
			"bufferView":7,
			"componentType":5126,
			"count":41,
			"max":[
				1.6
			],
			"min":[
				0
			],
			"type":"SCALAR"
		},
		{
			"bufferView":8,
			"componentType":5126,
			"count":41,
			"type":"VEC3"
		},
		{
			"bufferView":9,
			"componentType":5126,
			"count":2,
			"max":[
				1.6
			],
			"min":[
				0
			],
			"type":"SCALAR"
		},
		{
			"bufferView":10,
			"componentType":5126,
			"count":2,
			"type":"VEC4"
		},
		{
			"bufferView":11,
			"componentType":5126,
			"count":2,
			"type":"VEC3"
		},
		{
			"bufferView":12,
			"componentType":5126,
			"count":2,
			"type":"VEC3"
		},
		{
			"bufferView":13,
			"componentType":5126,
			"count":2,
			"type":"VEC4"
		},
		{
			"bufferView":14,
			"componentType":5126,
			"count":2,
			"type":"VEC3"
		},
		{
			"bufferView":15,
			"componentType":5126,
			"count":2,
			"type":"VEC3"
		},
		{
			"bufferView":16,
			"componentType":5126,
			"count":41,
			"type":"VEC4"
		},
		{
			"bufferView":17,
			"componentType":5126,
			"count":2,
			"type":"VEC3"
		},
		{
			"bufferView":18,
			"componentType":5126,
			"count":2,
			"type":"VEC3"
		},
		{
			"bufferView":19,
			"componentType":5126,
			"count":2,
			"type":"VEC4"
		},
		{
			"bufferView":20,
			"componentType":5126,
			"count":2,
			"type":"VEC3"
		}
	],
	"bufferViews":[
		{
			"buffer":0,
			"byteLength":50208,
			"byteOffset":0,
			"target":34962
		},
		{
			"buffer":0,
			"byteLength":50208,
			"byteOffset":50208,
			"target":34962
		},
		{
			"buffer":0,
			"byteLength":33472,
			"byteOffset":100416,
			"target":34962
		},
		{
			"buffer":0,
			"byteLength":16736,
			"byteOffset":133888,
			"target":34962
		},
		{
			"buffer":0,
			"byteLength":66944,
			"byteOffset":150624,
			"target":34962
		},
		{
			"buffer":0,
			"byteLength":20736,
			"byteOffset":217568,
			"target":34963
		},
		{
			"buffer":0,
			"byteLength":256,
			"byteOffset":238304
		},
		{
			"buffer":0,
			"byteLength":164,
			"byteOffset":238560
		},
		{
			"buffer":0,
			"byteLength":492,
			"byteOffset":238724
		},
		{
			"buffer":0,
			"byteLength":8,
			"byteOffset":239216
		},
		{
			"buffer":0,
			"byteLength":32,
			"byteOffset":239224
		},
		{
			"buffer":0,
			"byteLength":24,
			"byteOffset":239256
		},
		{
			"buffer":0,
			"byteLength":24,
			"byteOffset":239280
		},
		{
			"buffer":0,
			"byteLength":32,
			"byteOffset":239304
		},
		{
			"buffer":0,
			"byteLength":24,
			"byteOffset":239336
		},
		{
			"buffer":0,
			"byteLength":24,
			"byteOffset":239360
		},
		{
			"buffer":0,
			"byteLength":656,
			"byteOffset":239384
		},
		{
			"buffer":0,
			"byteLength":24,
			"byteOffset":240040
		},
		{
			"buffer":0,
			"byteLength":24,
			"byteOffset":240064
		},
		{
			"buffer":0,
			"byteLength":32,
			"byteOffset":240088
		},
		{
			"buffer":0,
			"byteLength":24,
			"byteOffset":240120
		}
	],
	"samplers":[
		{
			"magFilter":9729,
			"minFilter":9987
		}
	],
	"buffers":[
		{
			"byteLength":240144,
			"uri":"prop_droppod_v01.bin"
		}
	]
}
