{
	"asset":{
		"generator":"Khronos glTF Blender I/O v4.3.47",
		"version":"2.0"
	},
	"scene":0,
	"scenes":[
		{
			"name":"Scene",
			"nodes":[
				0
			]
		}
	],
	"nodes":[
		{
			"mesh":0,
			"name":"Prop_Barrel_v01"
		}
	],
	"materials":[
		{
			"doubleSided":true,
			"name":"barrelMAT.001",
			"normalTexture":{
				"index":0
			},
			"pbrMetallicRoughness":{
				"baseColorTexture":{
					"index":1
				},
				"metallicRoughnessTexture":{
					"index":2
				}
			}
		}
	],
	"meshes":[
		{
			"name":"Prop_Barrel_v01",
			"primitives":[
				{
					"attributes":{
						"POSITION":0,
						"NORMAL":1,
						"TEXCOORD_0":2
					},
					"indices":3,
					"material":0
				}
			]
		}
	],
	"textures":[
		{
			"sampler":0,
			"source":0
		},
		{
			"sampler":0,
			"source":1
		},
		{
			"sampler":0,
			"source":2
		}
	],
	"images":[
		{
			"mimeType":"image/png",
			"name":"Prop_Barrel_v01_Normal",
			"uri":"Prop_Barrel_v01_Normal.png"
		},
		{
			"mimeType":"image/png",
			"name":"Prop_Barrel_v01_BaseColor",
			"uri":"Prop_Barrel_v01_BaseColor.png"
		},
		{
			"mimeType":"image/png",
			"name":"Prop_Barrel_v01_Metallic-Prop_Barrel_v01_Roughness",
			"uri":"Prop_Barrel_v01_Metallic-Prop_Barrel_v01_Roughness.png"
		}
	],
	"accessors":[
		{
			"bufferView":0,
			"componentType":5126,
			"count":667,
			"max":[
				0.7964379191398621,
				1.512447714805603,
				0.7881531119346619
			],
			"min":[
				-0.7495781779289246,
				0.004165755119174719,
				-0.7881534695625305
			],
			"type":"VEC3"
		},
		{
			"bufferView":1,
			"componentType":5126,
			"count":667,
			"type":"VEC3"
		},
		{
			"bufferView":2,
			"componentType":5126,
			"count":667,
			"type":"VEC2"
		},
		{
			"bufferView":3,
			"componentType":5123,
			"count":2190,
			"type":"SCALAR"
		}
	],
	"bufferViews":[
		{
			"buffer":0,
			"byteLength":8004,
			"byteOffset":0,
			"target":34962
		},
		{
			"buffer":0,
			"byteLength":8004,
			"byteOffset":8004,
			"target":34962
		},
		{
			"buffer":0,
			"byteLength":5336,
			"byteOffset":16008,
			"target":34962
		},
		{
			"buffer":0,
			"byteLength":4380,
			"byteOffset":21344,
			"target":34963
		}
	],
	"samplers":[
		{
			"magFilter":9729,
			"minFilter":9987
		}
	],
	"buffers":[
		{
			"byteLength":25724,
			"uri":"Prop_Barrel_v01.bin"
		}
	]
}
