{
	"asset":{
		"generator":"Khronos glTF Blender I/O v4.4.55",
		"version":"2.0"
	},
	"scene":0,
	"scenes":[
		{
			"name":"Scene",
			"nodes":[
				0,
				1,
				2,
				3
			]
		}
	],
	"nodes":[
		{
			"mesh":0,
			"name":"doorL",
			"scale":[
				1.9324678182601929,
				1.9324678182601929,
				1.932474136352539
			],
			"translation":[
				-2.6346254348754883,
				0,
				-65.94102478027344
			]
		},
		{
			"mesh":1,
			"name":"doorR",
			"translation":[
				3.158860683441162,
				0,
				-65.94102478027344
			]
		},
		{
			"mesh":2,
			"name":"Chunk1",
			"translation":[
				0.26832297444343567,
				0.009999999776482582,
				-42.73463821411133
			]
		},
		{
			"mesh":3,
			"name":"Columns",
			"rotation":[
				0,
				-0.8658332228660583,
				0,
				0.5003327131271362
			],
			"scale":[
				18.264665603637695,
				18.264665603637695,
				18.264665603637695
			],
			"translation":[
				7.133781909942627,
				0.1381421685218811,
				-70.55208587646484
			]
		}
	],
	"materials":[
		{
			"doubleSided":true,
			"name":"vallas.001",
			"normalTexture":{
				"index":0
			},
			"pbrMetallicRoughness":{
				"baseColorTexture":{
					"index":1
				},
				"metallicRoughnessTexture":{
					"index":2
				}
			}
		},
		{
			"doubleSided":true,
			"name":"Alfombra_MAT",
			"pbrMetallicRoughness":{
				"baseColorTexture":{
					"index":3
				},
				"metallicFactor":0,
				"roughnessFactor":0.800000011920929
			}
		},
		{
			"doubleSided":true,
			"name":"Columna_MAT",
			"normalTexture":{
				"index":4
			},
			"pbrMetallicRoughness":{
				"baseColorTexture":{
					"index":5
				},
				"metallicRoughnessTexture":{
					"index":6
				}
			}
		},
		{
			"doubleSided":true,
			"name":"Wall_MAT",
			"normalTexture":{
				"index":7
			},
			"pbrMetallicRoughness":{
				"baseColorTexture":{
					"index":8
				},
				"metallicFactor":0,
				"metallicRoughnessTexture":{
					"index":9
				}
			}
		},
		{
			"doubleSided":true,
			"name":"Suelo_MAT",
			"normalTexture":{
				"index":10
			},
			"pbrMetallicRoughness":{
				"baseColorTexture":{
					"index":11
				},
				"metallicFactor":0,
				"metallicRoughnessTexture":{
					"index":12
				}
			}
		},
		{
			"doubleSided":true,
			"name":"Banco.001",
			"normalTexture":{
				"index":13
			},
			"pbrMetallicRoughness":{
				"baseColorTexture":{
					"index":14
				},
				"metallicRoughnessTexture":{
					"index":15
				}
			}
		},
		{
			"doubleSided":true,
			"name":"Banco",
			"normalTexture":{
				"index":16
			},
			"pbrMetallicRoughness":{
				"baseColorTexture":{
					"index":17
				},
				"metallicRoughnessTexture":{
					"index":18
				}
			}
		},
		{
			"doubleSided":true,
			"name":"vallas.002",
			"normalTexture":{
				"index":19
			},
			"pbrMetallicRoughness":{
				"baseColorTexture":{
					"index":20
				},
				"metallicRoughnessTexture":{
					"index":21
				}
			}
		},
		{
			"doubleSided":true,
			"emissiveFactor":[
				1,
				1,
				1
			],
			"emissiveTexture":{
				"index":22
			},
			"name":"Ventanal_MAT",
			"normalTexture":{
				"index":23
			},
			"pbrMetallicRoughness":{
				"baseColorTexture":{
					"index":24
				},
				"metallicRoughnessTexture":{
					"index":25
				}
			}
		},
		{
			"doubleSided":true,
			"name":"Columna_MAT.001",
			"normalTexture":{
				"index":26
			},
			"pbrMetallicRoughness":{
				"baseColorTexture":{
					"index":27
				},
				"metallicRoughnessTexture":{
					"index":28
				}
			}
		},
		{
			"doubleSided":true,
			"name":"Columna_MAT.002",
			"normalTexture":{
				"index":29
			},
			"pbrMetallicRoughness":{
				"baseColorTexture":{
					"index":30
				},
				"metallicRoughnessTexture":{
					"index":31
				}
			}
		},
		{
			"doubleSided":true,
			"name":"Muebles_MAT",
			"normalTexture":{
				"index":32
			},
			"pbrMetallicRoughness":{
				"baseColorTexture":{
					"index":33
				},
				"metallicRoughnessTexture":{
					"index":34
				}
			}
		}
	],
	"meshes":[
		{
			"name":"Circle.012",
			"primitives":[
				{
					"attributes":{
						"POSITION":0,
						"NORMAL":1,
						"TEXCOORD_0":2
					},
					"indices":3,
					"material":0
				}
			]
		},
		{
			"name":"Circle.011",
			"primitives":[
				{
					"attributes":{
						"POSITION":4,
						"NORMAL":5,
						"TEXCOORD_0":6
					},
					"indices":7,
					"material":0
				}
			]
		},
		{
			"name":"Plane",
			"primitives":[
				{
					"attributes":{
						"POSITION":8,
						"NORMAL":9,
						"TEXCOORD_0":10
					},
					"indices":11,
					"material":1
				},
				{
					"attributes":{
						"POSITION":12,
						"NORMAL":13,
						"TEXCOORD_0":14
					},
					"indices":15,
					"material":2
				},
				{
					"attributes":{
						"POSITION":16,
						"NORMAL":17,
						"TEXCOORD_0":18
					},
					"indices":19,
					"material":0
				},
				{
					"attributes":{
						"POSITION":20,
						"NORMAL":21,
						"TEXCOORD_0":22
					},
					"indices":23,
					"material":3
				},
				{
					"attributes":{
						"POSITION":24,
						"NORMAL":25,
						"TEXCOORD_0":26
					},
					"indices":27,
					"material":4
				},
				{
					"attributes":{
						"POSITION":28,
						"NORMAL":29,
						"TEXCOORD_0":30
					},
					"indices":31,
					"material":5
				},
				{
					"attributes":{
						"POSITION":32,
						"NORMAL":33,
						"TEXCOORD_0":34
					},
					"indices":35,
					"material":6
				},
				{
					"attributes":{
						"POSITION":36,
						"NORMAL":37,
						"TEXCOORD_0":38
					},
					"indices":39,
					"material":7
				},
				{
					"attributes":{
						"POSITION":40,
						"NORMAL":41,
						"TEXCOORD_0":42
					},
					"indices":43,
					"material":8
				},
				{
					"attributes":{
						"POSITION":44,
						"NORMAL":45,
						"TEXCOORD_0":46
					},
					"indices":47,
					"material":9
				},
				{
					"attributes":{
						"POSITION":48,
						"NORMAL":49,
						"TEXCOORD_0":50
					},
					"indices":51,
					"material":10
				},
				{
					"attributes":{
						"POSITION":52,
						"NORMAL":53,
						"TEXCOORD_0":54
					},
					"indices":55,
					"material":11
				}
			]
		},
		{
			"name":"Circle.014",
			"primitives":[
				{
					"attributes":{
						"POSITION":56,
						"NORMAL":57,
						"TEXCOORD_0":58
					},
					"indices":59,
					"material":2
				},
				{
					"attributes":{
						"POSITION":60,
						"NORMAL":61,
						"TEXCOORD_0":62
					},
					"indices":63,
					"material":9
				},
				{
					"attributes":{
						"POSITION":64,
						"NORMAL":65,
						"TEXCOORD_0":66
					},
					"indices":51,
					"material":10
				}
			]
		}
	],
	"textures":[
		{
			"sampler":0,
			"source":0
		},
		{
			"sampler":0,
			"source":1
		},
		{
			"sampler":0,
			"source":2
		},
		{
			"sampler":0,
			"source":3
		},
		{
			"sampler":0,
			"source":4
		},
		{
			"sampler":0,
			"source":5
		},
		{
			"sampler":0,
			"source":6
		},
		{
			"sampler":0,
			"source":7
		},
		{
			"sampler":0,
			"source":8
		},
		{
			"sampler":0,
			"source":9
		},
		{
			"sampler":0,
			"source":7
		},
		{
			"sampler":0,
			"source":10
		},
		{
			"sampler":0,
			"source":9
		},
		{
			"sampler":0,
			"source":11
		},
		{
			"sampler":0,
			"source":12
		},
		{
			"sampler":0,
			"source":13
		},
		{
			"sampler":0,
			"source":11
		},
		{
			"sampler":0,
			"source":12
		},
		{
			"sampler":0,
			"source":13
		},
		{
			"sampler":0,
			"source":0
		},
		{
			"sampler":0,
			"source":1
		},
		{
			"sampler":0,
			"source":2
		},
		{
			"sampler":0,
			"source":14
		},
		{
			"sampler":0,
			"source":15
		},
		{
			"sampler":0,
			"source":16
		},
		{
			"sampler":0,
			"source":17
		},
		{
			"sampler":0,
			"source":4
		},
		{
			"sampler":0,
			"source":5
		},
		{
			"sampler":0,
			"source":18
		},
		{
			"sampler":0,
			"source":4
		},
		{
			"sampler":0,
			"source":5
		},
		{
			"sampler":0,
			"source":18
		},
		{
			"sampler":0,
			"source":19
		},
		{
			"sampler":0,
			"source":20
		},
		{
			"sampler":0,
			"source":21
		}
	],
	"images":[
		{
			"mimeType":"image/png",
			"name":"P_Vallas_n",
			"uri":"P_Vallas_n.png"
		},
		{
			"mimeType":"image/png",
			"name":"P_Vallas_bc",
			"uri":"P_Vallas_bc.png"
		},
		{
			"mimeType":"image/png",
			"name":"P_Vallas_m-P_Vallas_r",
			"uri":"P_Vallas_m-P_Vallas_r.png"
		},
		{
			"mimeType":"image/png",
			"name":"Alfombra_bc",
			"uri":"Alfombra_bc.png"
		},
		{
			"mimeType":"image/png",
			"name":"Trimsheet_low_DefaultMaterial_Normal",
			"uri":"Trimsheet_low_DefaultMaterial_Normal.png"
		},
		{
			"mimeType":"image/png",
			"name":"Trimsheet_low_DefaultMaterial_BaseColor",
			"uri":"Trimsheet_low_DefaultMaterial_BaseColor.png"
		},
		{
			"mimeType":"image/png",
			"name":"Trimsheet_low_DefaultMaterial_Metallic-Trimsheet_low_DefaultMaterial_Roughness",
			"uri":"Trimsheet_low_DefaultMaterial_Metallic-Trimsheet_low_DefaultMaterial_Roughness.png"
		},
		{
			"mimeType":"image/png",
			"name":"p_wall_2_n",
			"uri":"p_wall_2_n.png"
		},
		{
			"mimeType":"image/png",
			"name":"p_wall_2_bc",
			"uri":"p_wall_2_bc.png"
		},
		{
			"mimeType":"image/png",
			"name":"p_wall_2_r",
			"uri":"p_wall_2_r.png"
		},
		{
			"mimeType":"image/png",
			"name":"p_suelo_1_bc",
			"uri":"p_suelo_1_bc.png"
		},
		{
			"mimeType":"image/png",
			"name":"P_Banco_n",
			"uri":"P_Banco_n.png"
		},
		{
			"mimeType":"image/png",
			"name":"P_Banco_bc",
			"uri":"P_Banco_bc.png"
		},
		{
			"mimeType":"image/png",
			"name":"P_Banco_m-P_Banco_r",
			"uri":"P_Banco_m-P_Banco_r.png"
		},
		{
			"mimeType":"image/png",
			"name":"p_ventanales_e",
			"uri":"p_ventanales_e.png"
		},
		{
			"mimeType":"image/png",
			"name":"p_ventanales_n",
			"uri":"p_ventanales_n.png"
		},
		{
			"mimeType":"image/png",
			"name":"p_ventanales_bc",
			"uri":"p_ventanales_bc.png"
		},
		{
			"mimeType":"image/png",
			"name":"p_ventanales_m-p_ventanales_r",
			"uri":"p_ventanales_m-p_ventanales_r.png"
		},
		{
			"mimeType":"image/png",
			"name":"Trimsheet_low_DefaultMaterial_Metallic.png-Trimsheet_low_DefaultMaterial_Roughness.png",
			"uri":"Trimsheet_low_DefaultMaterial_Metallic_png-Trimsheet_low_DefaultMaterial_Roughness_png.png"
		},
		{
			"mimeType":"image/png",
			"name":"P_Mesas_n",
			"uri":"P_Mesas_n.png"
		},
		{
			"mimeType":"image/png",
			"name":"P_Mesas_bc",
			"uri":"P_Mesas_bc.png"
		},
		{
			"mimeType":"image/png",
			"name":"P_Mesas_m.png-P_Mesas_r.png",
			"uri":"P_Mesas_m_png-P_Mesas_r_png.png"
		}
	],
	"accessors":[
		{
			"bufferView":0,
			"componentType":5126,
			"count":3314,
			"max":[
				1.380326271057129,
				2.6103129386901855,
				0.11388203501701355
			],
			"min":[
				0,
				0,
				-0.03177405521273613
			],
			"type":"VEC3"
		},
		{
			"bufferView":1,
			"componentType":5126,
			"count":3314,
			"type":"VEC3"
		},
		{
			"bufferView":2,
			"componentType":5126,
			"count":3314,
			"type":"VEC2"
		},
		{
			"bufferView":3,
			"componentType":5123,
			"count":7692,
			"type":"SCALAR"
		},
		{
			"bufferView":4,
			"componentType":5126,
			"count":3314,
			"max":[
				0,
				5.044345855712891,
				0.22007408738136292
			],
			"min":[
				-2.667436122894287,
				0,
				-0.061402540653944016
			],
			"type":"VEC3"
		},
		{
			"bufferView":5,
			"componentType":5126,
			"count":3314,
			"type":"VEC3"
		},
		{
			"bufferView":6,
			"componentType":5126,
			"count":3314,
			"type":"VEC2"
		},
		{
			"bufferView":7,
			"componentType":5123,
			"count":7692,
			"type":"SCALAR"
		},
		{
			"bufferView":8,
			"componentType":5126,
			"count":4,
			"max":[
				2.4818689823150635,
				0,
				21.36456298828125
			],
			"min":[
				-2.4818689823150635,
				0,
				-22.306608200073242
			],
			"type":"VEC3"
		},
		{
			"bufferView":9,
			"componentType":5126,
			"count":4,
			"type":"VEC3"
		},
		{
			"bufferView":10,
			"componentType":5126,
			"count":4,
			"type":"VEC2"
		},
		{
			"bufferView":11,
			"componentType":5123,
			"count":6,
			"type":"SCALAR"
		},
		{
			"bufferView":12,
			"componentType":5126,
			"count":10159,
			"max":[
				12.646405220031738,
				16.833663940429688,
				51.41792678833008
			],
			"min":[
				-25.52295684814453,
				-15.103461265563965,
				-70.76335144042969
			],
			"type":"VEC3"
		},
		{
			"bufferView":13,
			"componentType":5126,
			"count":10159,
			"type":"VEC3"
		},
		{
			"bufferView":14,
			"componentType":5126,
			"count":10159,
			"type":"VEC2"
		},
		{
			"bufferView":15,
			"componentType":5123,
			"count":30456,
			"type":"SCALAR"
		},
		{
			"bufferView":16,
			"componentType":5126,
			"count":37013,
			"max":[
				11.191415786743164,
				5.034346580505371,
				16.453094482421875
			],
			"min":[
				-11.022825241088867,
				-0.2645968198776245,
				-24.804338455200195
			],
			"type":"VEC3"
		},
		{
			"bufferView":17,
			"componentType":5126,
			"count":37013,
			"type":"VEC3"
		},
		{
			"bufferView":18,
			"componentType":5126,
			"count":37013,
			"type":"VEC2"
		},
		{
			"bufferView":19,
			"componentType":5123,
			"count":76920,
			"type":"SCALAR"
		},
		{
			"bufferView":20,
			"componentType":5126,
			"count":424,
			"max":[
				25.355695724487305,
				16.59381103515625,
				50.84682083129883
			],
			"min":[
				-45.83828353881836,
				-25.643959045410156,
				-70.19224548339844
			],
			"type":"VEC3"
		},
		{
			"bufferView":21,
			"componentType":5126,
			"count":424,
			"type":"VEC3"
		},
		{
			"bufferView":22,
			"componentType":5126,
			"count":424,
			"type":"VEC2"
		},
		{
			"bufferView":23,
			"componentType":5123,
			"count":1242,
			"type":"SCALAR"
		},
		{
			"bufferView":24,
			"componentType":5126,
			"count":56,
			"max":[
				24.15789794921875,
				-0.009999752044677734,
				49.64902114868164
			],
			"min":[
				-23.754047393798828,
				-0.009999752044677734,
				-68.99444580078125
			],
			"type":"VEC3"
		},
		{
			"bufferView":25,
			"componentType":5126,
			"count":56,
			"type":"VEC3"
		},
		{
			"bufferView":26,
			"componentType":5126,
			"count":56,
			"type":"VEC2"
		},
		{
			"bufferView":27,
			"componentType":5123,
			"count":162,
			"type":"SCALAR"
		},
		{
			"bufferView":28,
			"componentType":5126,
			"count":25704,
			"max":[
				9.704275131225586,
				0.7414590120315552,
				13.327728271484375
			],
			"min":[
				-9.956612586975098,
				-0.05416484177112579,
				-19.13277816772461
			],
			"type":"VEC3"
		},
		{
			"bufferView":29,
			"componentType":5126,
			"count":25704,
			"type":"VEC3"
		},
		{
			"bufferView":30,
			"componentType":5126,
			"count":25704,
			"type":"VEC2"
		},
		{
			"bufferView":31,
			"componentType":5123,
			"count":74664,
			"type":"SCALAR"
		},
		{
			"bufferView":32,
			"componentType":5126,
			"count":14898,
			"max":[
				10.110367774963379,
				0.7382019758224487,
				13.286998748779297
			],
			"min":[
				-9.13919734954834,
				-0.011869006790220737,
				-19.115833282470703
			],
			"type":"VEC3"
		},
		{
			"bufferView":33,
			"componentType":5126,
			"count":14898,
			"type":"VEC3"
		},
		{
			"bufferView":34,
			"componentType":5126,
			"count":14898,
			"type":"VEC2"
		},
		{
			"bufferView":35,
			"componentType":5123,
			"count":45240,
			"type":"SCALAR"
		},
		{
			"bufferView":36,
			"componentType":5126,
			"count":1688,
			"max":[
				10.687836647033691,
				4.611786842346191,
				16.308704376220703
			],
			"min":[
				-10.469680786132812,
				-0.009999116882681847,
				16.16659927368164
			],
			"type":"VEC3"
		},
		{
			"bufferView":37,
			"componentType":5126,
			"count":1688,
			"type":"VEC3"
		},
		{
			"bufferView":38,
			"componentType":5126,
			"count":1688,
			"type":"VEC2"
		},
		{
			"bufferView":39,
			"componentType":5123,
			"count":3864,
			"type":"SCALAR"
		},
		{
			"bufferView":40,
			"componentType":5126,
			"count":1455,
			"max":[
				24.164295196533203,
				12.853873252868652,
				16.847145080566406
			],
			"min":[
				-3.8443996906280518,
				2.2462966442108154,
				-68.97069549560547
			],
			"type":"VEC3"
		},
		{
			"bufferView":41,
			"componentType":5126,
			"count":1455,
			"type":"VEC3"
		},
		{
			"bufferView":42,
			"componentType":5126,
			"count":1455,
			"type":"VEC2"
		},
		{
			"bufferView":43,
			"componentType":5123,
			"count":3555,
			"type":"SCALAR"
		},
		{
			"bufferView":44,
			"componentType":5126,
			"count":18105,
			"max":[
				10.884434700012207,
				1.4707586765289307,
				47.01478576660156
			],
			"min":[
				-17.942462921142578,
				-0.03997272253036499,
				-21.515121459960938
			],
			"type":"VEC3"
		},
		{
			"bufferView":45,
			"componentType":5126,
			"count":18105,
			"type":"VEC3"
		},
		{
			"bufferView":46,
			"componentType":5126,
			"count":18105,
			"type":"VEC2"
		},
		{
			"bufferView":47,
			"componentType":5123,
			"count":42930,
			"type":"SCALAR"
		},
		{
			"bufferView":48,
			"componentType":5126,
			"count":3399,
			"max":[
				-1.880847454071045,
				1.33963942527771,
				36.667518615722656
			],
			"min":[
				-17.407495498657227,
				-0.024042129516601562,
				-23.737886428833008
			],
			"type":"VEC3"
		},
		{
			"bufferView":49,
			"componentType":5126,
			"count":3399,
			"type":"VEC3"
		},
		{
			"bufferView":50,
			"componentType":5126,
			"count":3399,
			"type":"VEC2"
		},
		{
			"bufferView":51,
			"componentType":5123,
			"count":8316,
			"type":"SCALAR"
		},
		{
			"bufferView":52,
			"componentType":5126,
			"count":4120,
			"max":[
				23.997467041015625,
				1.5862791538238525,
				41.631290435791016
			],
			"min":[
				10.598398208618164,
				-0.009999105706810951,
				-63.285057067871094
			],
			"type":"VEC3"
		},
		{
			"bufferView":53,
			"componentType":5126,
			"count":4120,
			"type":"VEC3"
		},
		{
			"bufferView":54,
			"componentType":5126,
			"count":4120,
			"type":"VEC2"
		},
		{
			"bufferView":55,
			"componentType":5123,
			"count":11040,
			"type":"SCALAR"
		},
		{
			"bufferView":56,
			"componentType":5126,
			"count":13869,
			"max":[
				0.5298610925674438,
				0.6722920536994934,
				1.9387590885162354
			],
			"min":[
				-1.6613394021987915,
				-0.027281377464532852,
				-0.2526789903640747
			],
			"type":"VEC3"
		},
		{
			"bufferView":57,
			"componentType":5126,
			"count":13869,
			"type":"VEC3"
		},
		{
			"bufferView":58,
			"componentType":5126,
			"count":13869,
			"type":"VEC2"
		},
		{
			"bufferView":59,
			"componentType":5123,
			"count":41520,
			"type":"SCALAR"
		},
		{
			"bufferView":60,
			"componentType":5126,
			"count":10863,
			"max":[
				0.6699046492576599,
				0.07350894808769226,
				2.089458703994751
			],
			"min":[
				-1.7649654150009155,
				-0.014140613377094269,
				-0.36750248074531555
			],
			"type":"VEC3"
		},
		{
			"bufferView":61,
			"componentType":5126,
			"count":10863,
			"type":"VEC3"
		},
		{
			"bufferView":62,
			"componentType":5126,
			"count":10863,
			"type":"VEC2"
		},
		{
			"bufferView":63,
			"componentType":5123,
			"count":25758,
			"type":"SCALAR"
		},
		{
			"bufferView":64,
			"componentType":5126,
			"count":3399,
			"max":[
				0.6525835990905762,
				0.09355977177619934,
				2.0403640270233154
			],
			"min":[
				-1.9119751453399658,
				-0.00833216868340969,
				0.92680823802948
			],
			"type":"VEC3"
		},
		{
			"bufferView":65,
			"componentType":5126,
			"count":3399,
			"type":"VEC3"
		},
		{
			"bufferView":66,
			"componentType":5126,
			"count":3399,
			"type":"VEC2"
		}
	],
	"bufferViews":[
		{
			"buffer":0,
			"byteLength":39768,
			"byteOffset":0,
			"target":34962
		},
		{
			"buffer":0,
			"byteLength":39768,
			"byteOffset":39768,
			"target":34962
		},
		{
			"buffer":0,
			"byteLength":26512,
			"byteOffset":79536,
			"target":34962
		},
		{
			"buffer":0,
			"byteLength":15384,
			"byteOffset":106048,
			"target":34963
		},
		{
			"buffer":0,
			"byteLength":39768,
			"byteOffset":121432,
			"target":34962
		},
		{
			"buffer":0,
			"byteLength":39768,
			"byteOffset":161200,
			"target":34962
		},
		{
			"buffer":0,
			"byteLength":26512,
			"byteOffset":200968,
			"target":34962
		},
		{
			"buffer":0,
			"byteLength":15384,
			"byteOffset":227480,
			"target":34963
		},
		{
			"buffer":0,
			"byteLength":48,
			"byteOffset":242864,
			"target":34962
		},
		{
			"buffer":0,
			"byteLength":48,
			"byteOffset":242912,
			"target":34962
		},
		{
			"buffer":0,
			"byteLength":32,
			"byteOffset":242960,
			"target":34962
		},
		{
			"buffer":0,
			"byteLength":12,
			"byteOffset":242992,
			"target":34963
		},
		{
			"buffer":0,
			"byteLength":121908,
			"byteOffset":243004,
			"target":34962
		},
		{
			"buffer":0,
			"byteLength":121908,
			"byteOffset":364912,
			"target":34962
		},
		{
			"buffer":0,
			"byteLength":81272,
			"byteOffset":486820,
			"target":34962
		},
		{
			"buffer":0,
			"byteLength":60912,
			"byteOffset":568092,
			"target":34963
		},
		{
			"buffer":0,
			"byteLength":444156,
			"byteOffset":629004,
			"target":34962
		},
		{
			"buffer":0,
			"byteLength":444156,
			"byteOffset":1073160,
			"target":34962
		},
		{
			"buffer":0,
			"byteLength":296104,
			"byteOffset":1517316,
			"target":34962
		},
		{
			"buffer":0,
			"byteLength":153840,
			"byteOffset":1813420,
			"target":34963
		},
		{
			"buffer":0,
			"byteLength":5088,
			"byteOffset":1967260,
			"target":34962
		},
		{
			"buffer":0,
			"byteLength":5088,
			"byteOffset":1972348,
			"target":34962
		},
		{
			"buffer":0,
			"byteLength":3392,
			"byteOffset":1977436,
			"target":34962
		},
		{
			"buffer":0,
			"byteLength":2484,
			"byteOffset":1980828,
			"target":34963
		},
		{
			"buffer":0,
			"byteLength":672,
			"byteOffset":1983312,
			"target":34962
		},
		{
			"buffer":0,
			"byteLength":672,
			"byteOffset":1983984,
			"target":34962
		},
		{
			"buffer":0,
			"byteLength":448,
			"byteOffset":1984656,
			"target":34962
		},
		{
			"buffer":0,
			"byteLength":324,
			"byteOffset":1985104,
			"target":34963
		},
		{
			"buffer":0,
			"byteLength":308448,
			"byteOffset":1985428,
			"target":34962
		},
		{
			"buffer":0,
			"byteLength":308448,
			"byteOffset":2293876,
			"target":34962
		},
		{
			"buffer":0,
			"byteLength":205632,
			"byteOffset":2602324,
			"target":34962
		},
		{
			"buffer":0,
			"byteLength":149328,
			"byteOffset":2807956,
			"target":34963
		},
		{
			"buffer":0,
			"byteLength":178776,
			"byteOffset":2957284,
			"target":34962
		},
		{
			"buffer":0,
			"byteLength":178776,
			"byteOffset":3136060,
			"target":34962
		},
		{
			"buffer":0,
			"byteLength":119184,
			"byteOffset":3314836,
			"target":34962
		},
		{
			"buffer":0,
			"byteLength":90480,
			"byteOffset":3434020,
			"target":34963
		},
		{
			"buffer":0,
			"byteLength":20256,
			"byteOffset":3524500,
			"target":34962
		},
		{
			"buffer":0,
			"byteLength":20256,
			"byteOffset":3544756,
			"target":34962
		},
		{
			"buffer":0,
			"byteLength":13504,
			"byteOffset":3565012,
			"target":34962
		},
		{
			"buffer":0,
			"byteLength":7728,
			"byteOffset":3578516,
			"target":34963
		},
		{
			"buffer":0,
			"byteLength":17460,
			"byteOffset":3586244,
			"target":34962
		},
		{
			"buffer":0,
			"byteLength":17460,
			"byteOffset":3603704,
			"target":34962
		},
		{
			"buffer":0,
			"byteLength":11640,
			"byteOffset":3621164,
			"target":34962
		},
		{
			"buffer":0,
			"byteLength":7110,
			"byteOffset":3632804,
			"target":34963
		},
		{
			"buffer":0,
			"byteLength":217260,
			"byteOffset":3639916,
			"target":34962
		},
		{
			"buffer":0,
			"byteLength":217260,
			"byteOffset":3857176,
			"target":34962
		},
		{
			"buffer":0,
			"byteLength":144840,
			"byteOffset":4074436,
			"target":34962
		},
		{
			"buffer":0,
			"byteLength":85860,
			"byteOffset":4219276,
			"target":34963
		},
		{
			"buffer":0,
			"byteLength":40788,
			"byteOffset":4305136,
			"target":34962
		},
		{
			"buffer":0,
			"byteLength":40788,
			"byteOffset":4345924,
			"target":34962
		},
		{
			"buffer":0,
			"byteLength":27192,
			"byteOffset":4386712,
			"target":34962
		},
		{
			"buffer":0,
			"byteLength":16632,
			"byteOffset":4413904,
			"target":34963
		},
		{
			"buffer":0,
			"byteLength":49440,
			"byteOffset":4430536,
			"target":34962
		},
		{
			"buffer":0,
			"byteLength":49440,
			"byteOffset":4479976,
			"target":34962
		},
		{
			"buffer":0,
			"byteLength":32960,
			"byteOffset":4529416,
			"target":34962
		},
		{
			"buffer":0,
			"byteLength":22080,
			"byteOffset":4562376,
			"target":34963
		},
		{
			"buffer":0,
			"byteLength":166428,
			"byteOffset":4584456,
			"target":34962
		},
		{
			"buffer":0,
			"byteLength":166428,
			"byteOffset":4750884,
			"target":34962
		},
		{
			"buffer":0,
			"byteLength":110952,
			"byteOffset":4917312,
			"target":34962
		},
		{
			"buffer":0,
			"byteLength":83040,
			"byteOffset":5028264,
			"target":34963
		},
		{
			"buffer":0,
			"byteLength":130356,
			"byteOffset":5111304,
			"target":34962
		},
		{
			"buffer":0,
			"byteLength":130356,
			"byteOffset":5241660,
			"target":34962
		},
		{
			"buffer":0,
			"byteLength":86904,
			"byteOffset":5372016,
			"target":34962
		},
		{
			"buffer":0,
			"byteLength":51516,
			"byteOffset":5458920,
			"target":34963
		},
		{
			"buffer":0,
			"byteLength":40788,
			"byteOffset":5510436,
			"target":34962
		},
		{
			"buffer":0,
			"byteLength":40788,
			"byteOffset":5551224,
			"target":34962
		},
		{
			"buffer":0,
			"byteLength":27192,
			"byteOffset":5592012,
			"target":34962
		}
	],
	"samplers":[
		{
			"magFilter":9729,
			"minFilter":9987
		}
	],
	"buffers":[
		{
			"byteLength":5619204,
			"uri":"level3_cleanGLTF.bin"
		}
	]
}
