{
	"asset":{
		"generator":"Khronos glTF Blender I/O v4.2.60",
		"version":"2.0"
	},
	"scene":0,
	"scenes":[
		{
			"name":"Scene",
			"nodes":[
				0
			]
		}
	],
	"nodes":[
		{
			"mesh":0,
			"name":"Acantilado_01_low"
		}
	],
	"materials":[
		{
			"doubleSided":true,
			"name":"Cliff_MAT",
			"normalTexture":{
				"index":0
			},
			"pbrMetallicRoughness":{
				"baseColorTexture":{
					"index":1
				},
				"metallicFactor":0,
				"metallicRoughnessTexture":{
					"index":2
				}
			}
		}
	],
	"meshes":[
		{
			"name":"Cube",
			"primitives":[
				{
					"attributes":{
						"POSITION":0,
						"NORMAL":1,
						"TEXCOORD_0":2
					},
					"indices":3,
					"material":0
				}
			]
		}
	],
	"textures":[
		{
			"sampler":0,
			"source":0
		},
		{
			"sampler":0,
			"source":1
		},
		{
			"sampler":0,
			"source":2
		}
	],
	"images":[
		{
			"mimeType":"image/png",
			"name":"Acantilado_low_Cliff_MAT_Normal",
			"uri":"Acantilado_low_Cliff_MAT_Normal.png"
		},
		{
			"mimeType":"image/png",
			"name":"Acantilado_low_Cliff_MAT_BaseColor",
			"uri":"Acantilado_low_Cliff_MAT_BaseColor.png"
		},
		{
			"mimeType":"image/png",
			"name":"Acantilado_low_Cliff_MAT_Roughness",
			"uri":"Acantilado_low_Cliff_MAT_Roughness.png"
		}
	],
	"accessors":[
		{
			"bufferView":0,
			"componentType":5126,
			"count":88,
			"max":[
				5.67080545425415,
				4.800391674041748,
				5.464008808135986
			],
			"min":[
				-5.756441116333008,
				-0.2102428674697876,
				-0.9593534469604492
			],
			"type":"VEC3"
		},
		{
			"bufferView":1,
			"componentType":5126,
			"count":88,
			"type":"VEC3"
		},
		{
			"bufferView":2,
			"componentType":5126,
			"count":88,
			"type":"VEC2"
		},
		{
			"bufferView":3,
			"componentType":5123,
			"count":420,
			"type":"SCALAR"
		}
	],
	"bufferViews":[
		{
			"buffer":0,
			"byteLength":1056,
			"byteOffset":0,
			"target":34962
		},
		{
			"buffer":0,
			"byteLength":1056,
			"byteOffset":1056,
			"target":34962
		},
		{
			"buffer":0,
			"byteLength":704,
			"byteOffset":2112,
			"target":34962
		},
		{
			"buffer":0,
			"byteLength":840,
			"byteOffset":2816,
			"target":34963
		}
	],
	"samplers":[
		{
			"magFilter":9729,
			"minFilter":9987
		}
	],
	"buffers":[
		{
			"byteLength":3656,
			"uri":"prop_cliff_v01.bin"
		}
	]
}
