{
	"asset":{
		"generator":"Khronos glTF Blender I/O v4.3.47",
		"version":"2.0"
	},
	"scene":0,
	"scenes":[
		{
			"name":"Scene",
			"nodes":[
				0,
				1,
				2,
				3
			]
		}
	],
	"nodes":[
		{
			"mesh":0,
			"name":"Tree1_low",
			"translation":[
				5.281429767608643,
				4.826470375061035,
				-1.0571234226226807
			]
		},
		{
			"mesh":1,
			"name":"Tree2_low",
			"translation":[
				-3.16856050491333,
				5.797547340393066,
				-0.8052704930305481
			]
		},
		{
			"mesh":2,
			"name":"Tree3_low",
			"translation":[
				-3.1566169261932373,
				3.6964120864868164,
				-2.18662691116333
			]
		},
		{
			"mesh":3,
			"name":"Tree4_low",
			"translation":[
				-2.0810465812683105,
				0.07239433377981186,
				-1.5230216979980469
			]
		}
	],
	"materials":[
		{
			"doubleSided":true,
			"name":"TreeTrunk",
			"normalTexture":{
				"index":0
			},
			"pbrMetallicRoughness":{
				"baseColorTexture":{
					"index":1
				},
				"metallicRoughnessTexture":{
					"index":2
				}
			}
		}
	],
	"meshes":[
		{
			"name":"Cylinder",
			"primitives":[
				{
					"attributes":{
						"POSITION":0,
						"NORMAL":1,
						"TEXCOORD_0":2
					},
					"indices":3,
					"material":0
				}
			]
		},
		{
			"name":"Cylinder.001",
			"primitives":[
				{
					"attributes":{
						"POSITION":4,
						"NORMAL":5,
						"TEXCOORD_0":6
					},
					"indices":7,
					"material":0
				}
			]
		},
		{
			"name":"Cylinder.002",
			"primitives":[
				{
					"attributes":{
						"POSITION":8,
						"NORMAL":9,
						"TEXCOORD_0":10
					},
					"indices":11,
					"material":0
				}
			]
		},
		{
			"name":"Cylinder.003",
			"primitives":[
				{
					"attributes":{
						"POSITION":12,
						"NORMAL":13,
						"TEXCOORD_0":14
					},
					"indices":15,
					"material":0
				}
			]
		}
	],
	"textures":[
		{
			"sampler":0,
			"source":0
		},
		{
			"sampler":0,
			"source":1
		},
		{
			"sampler":0,
			"source":2
		}
	],
	"images":[
		{
			"mimeType":"image/png",
			"name":"TreeTrunk_low_TreeTrunk_Normal.png",
			"uri":"TreeTrunk_low_TreeTrunk_Normal_png.png"
		},
		{
			"mimeType":"image/png",
			"name":"TreeTrunk_low_TreeTrunk_BaseColor.png",
			"uri":"TreeTrunk_low_TreeTrunk_BaseColor_png.png"
		},
		{
			"mimeType":"image/png",
			"name":"TreeTrunk_low_TreeTrunk_Metallic.png-TreeTrunk_low_TreeTrunk_Roughness.png",
			"uri":"TreeTrunk_low_TreeTrunk_Metallic_png-TreeTrunk_low_TreeTrunk_Roughness_png.png"
		}
	],
	"accessors":[
		{
			"bufferView":0,
			"componentType":5126,
			"count":182,
			"max":[
				2.4339866638183594,
				1.5184359550476074,
				0.6829020380973816
			],
			"min":[
				-2.4259531497955322,
				-0.6829020380973816,
				-0.6829020380973816
			],
			"type":"VEC3"
		},
		{
			"bufferView":1,
			"componentType":5126,
			"count":182,
			"type":"VEC3"
		},
		{
			"bufferView":2,
			"componentType":5126,
			"count":182,
			"type":"VEC2"
		},
		{
			"bufferView":3,
			"componentType":5123,
			"count":864,
			"type":"SCALAR"
		},
		{
			"bufferView":4,
			"componentType":5126,
			"count":236,
			"max":[
				4.1649088859558105,
				1.227339506149292,
				0.5913714170455933
			],
			"min":[
				-4.3666911125183105,
				-1.1090576648712158,
				-0.5913714170455933
			],
			"type":"VEC3"
		},
		{
			"bufferView":5,
			"componentType":5126,
			"count":236,
			"type":"VEC3"
		},
		{
			"bufferView":6,
			"componentType":5126,
			"count":236,
			"type":"VEC2"
		},
		{
			"bufferView":7,
			"componentType":5123,
			"count":1008,
			"type":"SCALAR"
		},
		{
			"bufferView":8,
			"componentType":5126,
			"count":425,
			"max":[
				4.117953300476074,
				0.8319770693778992,
				1.5849263668060303
			],
			"min":[
				-2.8244471549987793,
				-1.6440434455871582,
				-1.7338827848434448
			],
			"type":"VEC3"
		},
		{
			"bufferView":9,
			"componentType":5126,
			"count":425,
			"type":"VEC3"
		},
		{
			"bufferView":10,
			"componentType":5126,
			"count":425,
			"type":"VEC2"
		},
		{
			"bufferView":11,
			"componentType":5123,
			"count":1728,
			"type":"SCALAR"
		},
		{
			"bufferView":12,
			"componentType":5126,
			"count":438,
			"max":[
				1.3576561212539673,
				3.7350945472717285,
				1.7242295742034912
			],
			"min":[
				-5.697670936584473,
				-0.48862117528915405,
				-0.7103506922721863
			],
			"type":"VEC3"
		},
		{
			"bufferView":13,
			"componentType":5126,
			"count":438,
			"type":"VEC3"
		},
		{
			"bufferView":14,
			"componentType":5126,
			"count":438,
			"type":"VEC2"
		},
		{
			"bufferView":15,
			"componentType":5123,
			"count":1872,
			"type":"SCALAR"
		}
	],
	"bufferViews":[
		{
			"buffer":0,
			"byteLength":2184,
			"byteOffset":0,
			"target":34962
		},
		{
			"buffer":0,
			"byteLength":2184,
			"byteOffset":2184,
			"target":34962
		},
		{
			"buffer":0,
			"byteLength":1456,
			"byteOffset":4368,
			"target":34962
		},
		{
			"buffer":0,
			"byteLength":1728,
			"byteOffset":5824,
			"target":34963
		},
		{
			"buffer":0,
			"byteLength":2832,
			"byteOffset":7552,
			"target":34962
		},
		{
			"buffer":0,
			"byteLength":2832,
			"byteOffset":10384,
			"target":34962
		},
		{
			"buffer":0,
			"byteLength":1888,
			"byteOffset":13216,
			"target":34962
		},
		{
			"buffer":0,
			"byteLength":2016,
			"byteOffset":15104,
			"target":34963
		},
		{
			"buffer":0,
			"byteLength":5100,
			"byteOffset":17120,
			"target":34962
		},
		{
			"buffer":0,
			"byteLength":5100,
			"byteOffset":22220,
			"target":34962
		},
		{
			"buffer":0,
			"byteLength":3400,
			"byteOffset":27320,
			"target":34962
		},
		{
			"buffer":0,
			"byteLength":3456,
			"byteOffset":30720,
			"target":34963
		},
		{
			"buffer":0,
			"byteLength":5256,
			"byteOffset":34176,
			"target":34962
		},
		{
			"buffer":0,
			"byteLength":5256,
			"byteOffset":39432,
			"target":34962
		},
		{
			"buffer":0,
			"byteLength":3504,
			"byteOffset":44688,
			"target":34962
		},
		{
			"buffer":0,
			"byteLength":3744,
			"byteOffset":48192,
			"target":34963
		}
	],
	"samplers":[
		{
			"magFilter":9729,
			"minFilter":9987
		}
	],
	"buffers":[
		{
			"byteLength":51936,
			"uri":"TreeTrunk.bin"
		}
	]
}
