{
	"asset":{
		"generator":"Khronos glTF Blender I/O v4.4.55",
		"version":"2.0"
	},
	"scene":0,
	"scenes":[
		{
			"name":"Scene",
			"nodes":[
				5
			]
		}
	],
	"nodes":[
		{
			"name":"Door.1",
			"rotation":[
				-0.13814477622509003,
				1.4195292408203386e-07,
				2.6555027066166303e-09,
				0.9904120564460754
			],
			"scale":[
				1,
				1,
				0.9999999403953552
			],
			"translation":[
				1.0449600296169592e-07,
				0.1195453405380249,
				1.2078664302825928
			]
		},
		{
			"name":"Door.2",
			"rotation":[
				0.035676226019859314,
				-0.25689879059791565,
				-0.13345851004123688,
				0.9565140008926392
			],
			"scale":[
				0.9999999403953552,
				1,
				0.9999999403953552
			],
			"translation":[
				-1.046042799949646,
				0.11954474449157715,
				-0.6039332747459412
			]
		},
		{
			"name":"Door.3",
			"rotation":[
				0.024383537471294403,
				0.33603712916374207,
				0.13597577810287476,
				0.9316625595092773
			],
			"scale":[
				0.9999998211860657,
				0.9999998807907104,
				0.9999999403953552
			],
			"translation":[
				1.0460429191589355,
				0.11954522877931595,
				-0.6039333343505859
			]
		},
		{
			"children":[
				0,
				1,
				2
			],
			"name":"Root",
			"rotation":[
				-3.552932170691747e-08,
				0.8660253882408142,
				-6.815157860273757e-08,
				0.4999999701976776
			],
			"scale":[
				1,
				0.9999999403953552,
				1
			]
		},
		{
			"mesh":0,
			"name":"Drop_pod_final",
			"skin":0
		},
		{
			"children":[
				4,
				3
			],
			"name":"Rig_Droppod",
			"translation":[
				0,
				-0.1110360398888588,
				0
			]
		}
	],
	"animations":[
		{
			"channels":[
				{
					"sampler":0,
					"target":{
						"node":3,
						"path":"translation"
					}
				},
				{
					"sampler":1,
					"target":{
						"node":3,
						"path":"rotation"
					}
				},
				{
					"sampler":2,
					"target":{
						"node":3,
						"path":"scale"
					}
				},
				{
					"sampler":3,
					"target":{
						"node":0,
						"path":"translation"
					}
				},
				{
					"sampler":4,
					"target":{
						"node":0,
						"path":"rotation"
					}
				},
				{
					"sampler":5,
					"target":{
						"node":0,
						"path":"scale"
					}
				},
				{
					"sampler":6,
					"target":{
						"node":1,
						"path":"translation"
					}
				},
				{
					"sampler":7,
					"target":{
						"node":1,
						"path":"rotation"
					}
				},
				{
					"sampler":8,
					"target":{
						"node":1,
						"path":"scale"
					}
				},
				{
					"sampler":9,
					"target":{
						"node":2,
						"path":"translation"
					}
				},
				{
					"sampler":10,
					"target":{
						"node":2,
						"path":"rotation"
					}
				},
				{
					"sampler":11,
					"target":{
						"node":2,
						"path":"scale"
					}
				}
			],
			"name":"Drop",
			"samplers":[
				{
					"input":7,
					"interpolation":"LINEAR",
					"output":8
				},
				{
					"input":9,
					"interpolation":"STEP",
					"output":10
				},
				{
					"input":9,
					"interpolation":"STEP",
					"output":11
				},
				{
					"input":9,
					"interpolation":"LINEAR",
					"output":12
				},
				{
					"input":9,
					"interpolation":"STEP",
					"output":13
				},
				{
					"input":9,
					"interpolation":"STEP",
					"output":14
				},
				{
					"input":9,
					"interpolation":"LINEAR",
					"output":15
				},
				{
					"input":7,
					"interpolation":"LINEAR",
					"output":16
				},
				{
					"input":9,
					"interpolation":"LINEAR",
					"output":17
				},
				{
					"input":9,
					"interpolation":"LINEAR",
					"output":18
				},
				{
					"input":9,
					"interpolation":"STEP",
					"output":19
				},
				{
					"input":9,
					"interpolation":"STEP",
					"output":20
				}
			]
		},
		{
			"channels":[
				{
					"sampler":0,
					"target":{
						"node":3,
						"path":"translation"
					}
				},
				{
					"sampler":1,
					"target":{
						"node":3,
						"path":"rotation"
					}
				},
				{
					"sampler":2,
					"target":{
						"node":3,
						"path":"scale"
					}
				},
				{
					"sampler":3,
					"target":{
						"node":0,
						"path":"translation"
					}
				},
				{
					"sampler":4,
					"target":{
						"node":0,
						"path":"rotation"
					}
				},
				{
					"sampler":5,
					"target":{
						"node":0,
						"path":"scale"
					}
				},
				{
					"sampler":6,
					"target":{
						"node":1,
						"path":"translation"
					}
				},
				{
					"sampler":7,
					"target":{
						"node":1,
						"path":"rotation"
					}
				},
				{
					"sampler":8,
					"target":{
						"node":1,
						"path":"scale"
					}
				},
				{
					"sampler":9,
					"target":{
						"node":2,
						"path":"translation"
					}
				},
				{
					"sampler":10,
					"target":{
						"node":2,
						"path":"rotation"
					}
				},
				{
					"sampler":11,
					"target":{
						"node":2,
						"path":"scale"
					}
				}
			],
			"name":"Intro_drop",
			"samplers":[
				{
					"input":21,
					"interpolation":"LINEAR",
					"output":22
				},
				{
					"input":21,
					"interpolation":"LINEAR",
					"output":23
				},
				{
					"input":24,
					"interpolation":"STEP",
					"output":25
				},
				{
					"input":24,
					"interpolation":"LINEAR",
					"output":26
				},
				{
					"input":24,
					"interpolation":"STEP",
					"output":27
				},
				{
					"input":24,
					"interpolation":"STEP",
					"output":28
				},
				{
					"input":24,
					"interpolation":"LINEAR",
					"output":29
				},
				{
					"input":24,
					"interpolation":"STEP",
					"output":30
				},
				{
					"input":24,
					"interpolation":"STEP",
					"output":31
				},
				{
					"input":24,
					"interpolation":"LINEAR",
					"output":32
				},
				{
					"input":24,
					"interpolation":"STEP",
					"output":33
				},
				{
					"input":24,
					"interpolation":"STEP",
					"output":34
				}
			]
		}
	],
	"materials":[
		{
			"doubleSided":true,
			"name":"Droppod_MAT",
			"normalTexture":{
				"index":0
			},
			"pbrMetallicRoughness":{
				"baseColorTexture":{
					"index":1
				},
				"metallicRoughnessTexture":{
					"index":2
				}
			}
		}
	],
	"meshes":[
		{
			"name":"Cylinder.005",
			"primitives":[
				{
					"attributes":{
						"POSITION":0,
						"NORMAL":1,
						"TEXCOORD_0":2,
						"JOINTS_0":3,
						"WEIGHTS_0":4
					},
					"indices":5,
					"material":0
				}
			]
		}
	],
	"textures":[
		{
			"sampler":0,
			"source":0
		},
		{
			"sampler":0,
			"source":1
		},
		{
			"sampler":0,
			"source":2
		}
	],
	"images":[
		{
			"mimeType":"image/png",
			"name":"PropDropPod_low_Droppod_MAT_Normal",
			"uri":"PropDropPod_low_Droppod_MAT_Normal.png"
		},
		{
			"mimeType":"image/png",
			"name":"PropDropPod_low_Droppod_MAT_BaseColor",
			"uri":"PropDropPod_low_Droppod_MAT_BaseColor.png"
		},
		{
			"mimeType":"image/png",
			"name":"PropDropPod_low_Droppod_MAT_Metallic-PropDropPod_low_Droppod_MAT_Roughness",
			"uri":"PropDropPod_low_Droppod_MAT_Metallic-PropDropPod_low_Droppod_MAT_Roughness.png"
		}
	],
	"skins":[
		{
			"inverseBindMatrices":6,
			"joints":[
				3,
				0,
				1,
				2
			],
			"name":"Rig_Droppod"
		}
	],
	"accessors":[
		{
			"bufferView":0,
			"componentType":5126,
			"count":4184,
			"max":[
				1.989344596862793,
				5.723114013671875,
				1.3565081357955933
			],
			"min":[
				-1.989344596862793,
				-0.12112192809581757,
				-2.1311795711517334
			],
			"type":"VEC3"
		},
		{
			"bufferView":1,
			"componentType":5126,
			"count":4184,
			"type":"VEC3"
		},
		{
			"bufferView":2,
			"componentType":5126,
			"count":4184,
			"type":"VEC2"
		},
		{
			"bufferView":3,
			"componentType":5121,
			"count":4184,
			"type":"VEC4"
		},
		{
			"bufferView":4,
			"componentType":5126,
			"count":4184,
			"type":"VEC4"
		},
		{
			"bufferView":5,
			"componentType":5123,
			"count":10368,
			"type":"SCALAR"
		},
		{
			"bufferView":6,
			"componentType":5126,
			"count":4,
			"type":"MAT4"
		},
		{
			"bufferView":7,
			"componentType":5126,
			"count":65,
			"max":[
				2.56
			],
			"min":[
				0
			],
			"type":"SCALAR"
		},
		{
			"bufferView":8,
			"componentType":5126,
			"count":65,
			"type":"VEC3"
		},
		{
			"bufferView":9,
			"componentType":5126,
			"count":2,
			"max":[
				2.56
			],
			"min":[
				0
			],
			"type":"SCALAR"
		},
		{
			"bufferView":10,
			"componentType":5126,
			"count":2,
			"type":"VEC4"
		},
		{
			"bufferView":11,
			"componentType":5126,
			"count":2,
			"type":"VEC3"
		},
		{
			"bufferView":12,
			"componentType":5126,
			"count":2,
			"type":"VEC3"
		},
		{
			"bufferView":13,
			"componentType":5126,
			"count":2,
			"type":"VEC4"
		},
		{
			"bufferView":14,
			"componentType":5126,
			"count":2,
			"type":"VEC3"
		},
		{
			"bufferView":15,
			"componentType":5126,
			"count":2,
			"type":"VEC3"
		},
		{
			"bufferView":16,
			"componentType":5126,
			"count":65,
			"type":"VEC4"
		},
		{
			"bufferView":17,
			"componentType":5126,
			"count":2,
			"type":"VEC3"
		},
		{
			"bufferView":18,
			"componentType":5126,
			"count":2,
			"type":"VEC3"
		},
		{
			"bufferView":19,
			"componentType":5126,
			"count":2,
			"type":"VEC4"
		},
		{
			"bufferView":20,
			"componentType":5126,
			"count":2,
			"type":"VEC3"
		},
		{
			"bufferView":21,
			"componentType":5126,
			"count":351,
			"max":[
				14
			],
			"min":[
				0
			],
			"type":"SCALAR"
		},
		{
			"bufferView":22,
			"componentType":5126,
			"count":351,
			"type":"VEC3"
		},
		{
			"bufferView":23,
			"componentType":5126,
			"count":351,
			"type":"VEC4"
		},
		{
			"bufferView":24,
			"componentType":5126,
			"count":2,
			"max":[
				14
			],
			"min":[
				0
			],
			"type":"SCALAR"
		},
		{
			"bufferView":25,
			"componentType":5126,
			"count":2,
			"type":"VEC3"
		},
		{
			"bufferView":26,
			"componentType":5126,
			"count":2,
			"type":"VEC3"
		},
		{
			"bufferView":27,
			"componentType":5126,
			"count":2,
			"type":"VEC4"
		},
		{
			"bufferView":28,
			"componentType":5126,
			"count":2,
			"type":"VEC3"
		},
		{
			"bufferView":29,
			"componentType":5126,
			"count":2,
			"type":"VEC3"
		},
		{
			"bufferView":30,
			"componentType":5126,
			"count":2,
			"type":"VEC4"
		},
		{
			"bufferView":31,
			"componentType":5126,
			"count":2,
			"type":"VEC3"
		},
		{
			"bufferView":32,
			"componentType":5126,
			"count":2,
			"type":"VEC3"
		},
		{
			"bufferView":33,
			"componentType":5126,
			"count":2,
			"type":"VEC4"
		},
		{
			"bufferView":34,
			"componentType":5126,
			"count":2,
			"type":"VEC3"
		}
	],
	"bufferViews":[
		{
			"buffer":0,
			"byteLength":50208,
			"byteOffset":0,
			"target":34962
		},
		{
			"buffer":0,
			"byteLength":50208,
			"byteOffset":50208,
			"target":34962
		},
		{
			"buffer":0,
			"byteLength":33472,
			"byteOffset":100416,
			"target":34962
		},
		{
			"buffer":0,
			"byteLength":16736,
			"byteOffset":133888,
			"target":34962
		},
		{
			"buffer":0,
			"byteLength":66944,
			"byteOffset":150624,
			"target":34962
		},
		{
			"buffer":0,
			"byteLength":20736,
			"byteOffset":217568,
			"target":34963
		},
		{
			"buffer":0,
			"byteLength":256,
			"byteOffset":238304
		},
		{
			"buffer":0,
			"byteLength":260,
			"byteOffset":238560
		},
		{
			"buffer":0,
			"byteLength":780,
			"byteOffset":238820
		},
		{
			"buffer":0,
			"byteLength":8,
			"byteOffset":239600
		},
		{
			"buffer":0,
			"byteLength":32,
			"byteOffset":239608
		},
		{
			"buffer":0,
			"byteLength":24,
			"byteOffset":239640
		},
		{
			"buffer":0,
			"byteLength":24,
			"byteOffset":239664
		},
		{
			"buffer":0,
			"byteLength":32,
			"byteOffset":239688
		},
		{
			"buffer":0,
			"byteLength":24,
			"byteOffset":239720
		},
		{
			"buffer":0,
			"byteLength":24,
			"byteOffset":239744
		},
		{
			"buffer":0,
			"byteLength":1040,
			"byteOffset":239768
		},
		{
			"buffer":0,
			"byteLength":24,
			"byteOffset":240808
		},
		{
			"buffer":0,
			"byteLength":24,
			"byteOffset":240832
		},
		{
			"buffer":0,
			"byteLength":32,
			"byteOffset":240856
		},
		{
			"buffer":0,
			"byteLength":24,
			"byteOffset":240888
		},
		{
			"buffer":0,
			"byteLength":1404,
			"byteOffset":240912
		},
		{
			"buffer":0,
			"byteLength":4212,
			"byteOffset":242316
		},
		{
			"buffer":0,
			"byteLength":5616,
			"byteOffset":246528
		},
		{
			"buffer":0,
			"byteLength":8,
			"byteOffset":252144
		},
		{
			"buffer":0,
			"byteLength":24,
			"byteOffset":252152
		},
		{
			"buffer":0,
			"byteLength":24,
			"byteOffset":252176
		},
		{
			"buffer":0,
			"byteLength":32,
			"byteOffset":252200
		},
		{
			"buffer":0,
			"byteLength":24,
			"byteOffset":252232
		},
		{
			"buffer":0,
			"byteLength":24,
			"byteOffset":252256
		},
		{
			"buffer":0,
			"byteLength":32,
			"byteOffset":252280
		},
		{
			"buffer":0,
			"byteLength":24,
			"byteOffset":252312
		},
		{
			"buffer":0,
			"byteLength":24,
			"byteOffset":252336
		},
		{
			"buffer":0,
			"byteLength":32,
			"byteOffset":252360
		},
		{
			"buffer":0,
			"byteLength":24,
			"byteOffset":252392
		}
	],
	"samplers":[
		{
			"magFilter":9729,
			"minFilter":9987
		}
	],
	"buffers":[
		{
			"byteLength":252416,
			"uri":"prop_droppod_v01.bin"
		}
	]
}
