{
	"asset":{
		"generator":"Khronos glTF Blender I/O v4.4.55",
		"version":"2.0"
	},
	"scene":0,
	"scenes":[
		{
			"name":"Scene",
			"nodes":[
				14
			]
		}
	],
	"nodes":[
		{
			"mesh":0,
			"name":"armadura_low"
		},
		{
			"mesh":1,
			"name":"backArmor_low"
		},
		{
			"mesh":2,
			"name":"bota_low"
		},
		{
			"mesh":3,
			"name":"cabeza_low"
		},
		{
			"mesh":4,
			"name":"calavera_low"
		},
		{
			"mesh":5,
			"name":"calaveraCinturon_low"
		},
		{
			"mesh":6,
			"name":"cinturon_low"
		},
		{
			"mesh":7,
			"name":"cuerpo_low"
		},
		{
			"mesh":8,
			"name":"dientes1_low"
		},
		{
			"mesh":9,
			"name":"dientes_low"
		},
		{
			"mesh":10,
			"name":"mano_low"
		},
		{
			"mesh":11,
			"name":"munequeras_low"
		},
		{
			"mesh":12,
			"name":"pinchos_low"
		},
		{
			"mesh":13,
			"name":"tela_low"
		},
		{
			"children":[
				0,
				1,
				2,
				3,
				4,
				5,
				6,
				7,
				8,
				9,
				10,
				11,
				12,
				13
			],
			"name":"Tank_low"
		}
	],
	"materials":[
		{
			"doubleSided":true,
			"name":"standardSurface1",
			"normalTexture":{
				"index":0
			},
			"pbrMetallicRoughness":{
				"baseColorTexture":{
					"index":1
				},
				"metallicRoughnessTexture":{
					"index":2
				}
			}
		}
	],
	"meshes":[
		{
			"name":"Mesh.003",
			"primitives":[
				{
					"attributes":{
						"POSITION":0,
						"NORMAL":1,
						"TEXCOORD_0":2
					},
					"indices":3,
					"material":0
				}
			]
		},
		{
			"name":"Mesh.004",
			"primitives":[
				{
					"attributes":{
						"POSITION":4,
						"NORMAL":5,
						"TEXCOORD_0":6
					},
					"indices":7,
					"material":0
				}
			]
		},
		{
			"name":"Mesh.013",
			"primitives":[
				{
					"attributes":{
						"POSITION":8,
						"NORMAL":9,
						"TEXCOORD_0":10
					},
					"indices":11,
					"material":0
				}
			]
		},
		{
			"name":"Mesh.002",
			"primitives":[
				{
					"attributes":{
						"POSITION":12,
						"NORMAL":13,
						"TEXCOORD_0":14
					},
					"indices":15,
					"material":0
				}
			]
		},
		{
			"name":"Mesh",
			"primitives":[
				{
					"attributes":{
						"POSITION":16,
						"NORMAL":17,
						"TEXCOORD_0":18
					},
					"indices":19,
					"material":0
				}
			]
		},
		{
			"name":"Mesh.005",
			"primitives":[
				{
					"attributes":{
						"POSITION":20,
						"NORMAL":21,
						"TEXCOORD_0":22
					},
					"indices":23,
					"material":0
				}
			]
		},
		{
			"name":"Mesh.001",
			"primitives":[
				{
					"attributes":{
						"POSITION":24,
						"NORMAL":25,
						"TEXCOORD_0":26
					},
					"indices":27,
					"material":0
				}
			]
		},
		{
			"name":"Mesh.011",
			"primitives":[
				{
					"attributes":{
						"POSITION":28,
						"NORMAL":29,
						"TEXCOORD_0":30
					},
					"indices":31,
					"material":0
				}
			]
		},
		{
			"name":"Mesh.008",
			"primitives":[
				{
					"attributes":{
						"POSITION":32,
						"NORMAL":33,
						"TEXCOORD_0":34
					},
					"indices":35,
					"material":0
				}
			]
		},
		{
			"name":"Mesh.007",
			"primitives":[
				{
					"attributes":{
						"POSITION":36,
						"NORMAL":37,
						"TEXCOORD_0":38
					},
					"indices":39,
					"material":0
				}
			]
		},
		{
			"name":"Mesh.009",
			"primitives":[
				{
					"attributes":{
						"POSITION":40,
						"NORMAL":41,
						"TEXCOORD_0":42
					},
					"indices":43,
					"material":0
				}
			]
		},
		{
			"name":"Mesh.010",
			"primitives":[
				{
					"attributes":{
						"POSITION":44,
						"NORMAL":45,
						"TEXCOORD_0":46
					},
					"indices":47,
					"material":0
				}
			]
		},
		{
			"name":"Mesh.006",
			"primitives":[
				{
					"attributes":{
						"POSITION":48,
						"NORMAL":49,
						"TEXCOORD_0":50
					},
					"indices":51,
					"material":0
				}
			]
		},
		{
			"name":"Mesh.012",
			"primitives":[
				{
					"attributes":{
						"POSITION":52,
						"NORMAL":53,
						"TEXCOORD_0":54
					},
					"indices":55,
					"material":0
				}
			]
		}
	],
	"textures":[
		{
			"sampler":0,
			"source":0
		},
		{
			"sampler":0,
			"source":1
		},
		{
			"sampler":0,
			"source":2
		}
	],
	"images":[
		{
			"mimeType":"image/png",
			"name":"E_Tank_n",
			"uri":"E_Tank_n.png"
		},
		{
			"mimeType":"image/png",
			"name":"E_Tank_bc",
			"uri":"E_Tank_bc.png"
		},
		{
			"mimeType":"image/png",
			"name":"E_Tank_m-E_Tank_r",
			"uri":"E_Tank_m-E_Tank_r.png"
		}
	],
	"accessors":[
		{
			"bufferView":0,
			"componentType":5126,
			"count":110,
			"max":[
				1.3576782941818237,
				3.5903944969177246,
				0.5761684775352478
			],
			"min":[
				-1.3576782941818237,
				2.095848321914673,
				-0.9384545087814331
			],
			"type":"VEC3"
		},
		{
			"bufferView":1,
			"componentType":5126,
			"count":110,
			"type":"VEC3"
		},
		{
			"bufferView":2,
			"componentType":5126,
			"count":110,
			"type":"VEC2"
		},
		{
			"bufferView":3,
			"componentType":5123,
			"count":480,
			"type":"SCALAR"
		},
		{
			"bufferView":4,
			"componentType":5126,
			"count":48,
			"max":[
				0.6846383810043335,
				2.777143716812134,
				-0.7536633610725403
			],
			"min":[
				-0.6846383810043335,
				2.0852391719818115,
				-0.848863422870636
			],
			"type":"VEC3"
		},
		{
			"bufferView":5,
			"componentType":5126,
			"count":48,
			"type":"VEC3"
		},
		{
			"bufferView":6,
			"componentType":5126,
			"count":48,
			"type":"VEC2"
		},
		{
			"bufferView":7,
			"componentType":5123,
			"count":156,
			"type":"SCALAR"
		},
		{
			"bufferView":8,
			"componentType":5126,
			"count":390,
			"max":[
				1.0707406997680664,
				0.028268098831176758,
				1.1001943349838257
			],
			"min":[
				-1.0707406997680664,
				-0.8308944702148438,
				-0.44460737705230713
			],
			"type":"VEC3"
		},
		{
			"bufferView":9,
			"componentType":5126,
			"count":390,
			"type":"VEC3"
		},
		{
			"bufferView":10,
			"componentType":5126,
			"count":390,
			"type":"VEC2"
		},
		{
			"bufferView":11,
			"componentType":5123,
			"count":1872,
			"type":"SCALAR"
		},
		{
			"bufferView":12,
			"componentType":5126,
			"count":444,
			"max":[
				0.3959728479385376,
				3.6368024349212646,
				0.6712881326675415
			],
			"min":[
				-0.3959728479385376,
				2.5877203941345215,
				-0.2293180227279663
			],
			"type":"VEC3"
		},
		{
			"bufferView":13,
			"componentType":5126,
			"count":444,
			"type":"VEC3"
		},
		{
			"bufferView":14,
			"componentType":5126,
			"count":444,
			"type":"VEC2"
		},
		{
			"bufferView":15,
			"componentType":5123,
			"count":2208,
			"type":"SCALAR"
		},
		{
			"bufferView":16,
			"componentType":5126,
			"count":97,
			"max":[
				0.6762363910675049,
				2.45656418800354,
				1.2512261867523193
			],
			"min":[
				-0.676237165927887,
				1.771774172782898,
				0.45605072379112244
			],
			"type":"VEC3"
		},
		{
			"bufferView":17,
			"componentType":5126,
			"count":97,
			"type":"VEC3"
		},
		{
			"bufferView":18,
			"componentType":5126,
			"count":97,
			"type":"VEC2"
		},
		{
			"bufferView":19,
			"componentType":5123,
			"count":300,
			"type":"SCALAR"
		},
		{
			"bufferView":20,
			"componentType":5126,
			"count":56,
			"max":[
				0.47647449374198914,
				0.8627506494522095,
				1.2349944114685059
			],
			"min":[
				-0.47647449374198914,
				0.13338276743888855,
				0.9513343572616577
			],
			"type":"VEC3"
		},
		{
			"bufferView":21,
			"componentType":5126,
			"count":56,
			"type":"VEC3"
		},
		{
			"bufferView":22,
			"componentType":5126,
			"count":56,
			"type":"VEC2"
		},
		{
			"bufferView":23,
			"componentType":5123,
			"count":228,
			"type":"SCALAR"
		},
		{
			"bufferView":24,
			"componentType":5126,
			"count":510,
			"max":[
				1.403814673423767,
				1.3506015539169312,
				1.1886564493179321
			],
			"min":[
				-1.403815507888794,
				0.6053785681724548,
				-0.9490474462509155
			],
			"type":"VEC3"
		},
		{
			"bufferView":25,
			"componentType":5126,
			"count":510,
			"type":"VEC3"
		},
		{
			"bufferView":26,
			"componentType":5126,
			"count":510,
			"type":"VEC2"
		},
		{
			"bufferView":27,
			"componentType":5123,
			"count":2700,
			"type":"SCALAR"
		},
		{
			"bufferView":28,
			"componentType":5126,
			"count":519,
			"max":[
				2.7483279705047607,
				3.122443437576294,
				1.4051231145858765
			],
			"min":[
				-2.7483279705047607,
				-0.426113486289978,
				-0.7542824149131775
			],
			"type":"VEC3"
		},
		{
			"bufferView":29,
			"componentType":5126,
			"count":519,
			"type":"VEC3"
		},
		{
			"bufferView":30,
			"componentType":5126,
			"count":519,
			"type":"VEC2"
		},
		{
			"bufferView":31,
			"componentType":5123,
			"count":2604,
			"type":"SCALAR"
		},
		{
			"bufferView":32,
			"componentType":5126,
			"count":300,
			"max":[
				0.08062334358692169,
				3.0710320472717285,
				0.607599675655365
			],
			"min":[
				-0.08062334358692169,
				2.9685332775115967,
				0.5467990636825562
			],
			"type":"VEC3"
		},
		{
			"bufferView":33,
			"componentType":5126,
			"count":300,
			"type":"VEC3"
		},
		{
			"bufferView":34,
			"componentType":5126,
			"count":300,
			"type":"VEC2"
		},
		{
			"bufferView":35,
			"componentType":5123,
			"count":456,
			"type":"SCALAR"
		},
		{
			"bufferView":36,
			"componentType":5126,
			"count":132,
			"max":[
				0.2236732542514801,
				3.2535791397094727,
				0.6285204887390137
			],
			"min":[
				-0.2236732542514801,
				2.9818029403686523,
				0.5298356413841248
			],
			"type":"VEC3"
		},
		{
			"bufferView":37,
			"componentType":5126,
			"count":132,
			"type":"VEC3"
		},
		{
			"bufferView":38,
			"componentType":5126,
			"count":132,
			"type":"VEC2"
		},
		{
			"bufferView":39,
			"componentType":5123,
			"count":552,
			"type":"SCALAR"
		},
		{
			"bufferView":40,
			"componentType":5126,
			"count":1606,
			"max":[
				3.262094736099243,
				1.3596619367599487,
				0.9113878011703491
			],
			"min":[
				-3.262094736099243,
				0.5797398686408997,
				0.21769385039806366
			],
			"type":"VEC3"
		},
		{
			"bufferView":41,
			"componentType":5126,
			"count":1606,
			"type":"VEC3"
		},
		{
			"bufferView":42,
			"componentType":5126,
			"count":1606,
			"type":"VEC2"
		},
		{
			"bufferView":43,
			"componentType":5123,
			"count":7872,
			"type":"SCALAR"
		},
		{
			"bufferView":44,
			"componentType":5126,
			"count":164,
			"max":[
				3.1123995780944824,
				1.9433643817901611,
				0.822897732257843
			],
			"min":[
				-3.1123995780944824,
				0.9857403635978699,
				-0.20202746987342834
			],
			"type":"VEC3"
		},
		{
			"bufferView":45,
			"componentType":5126,
			"count":164,
			"type":"VEC3"
		},
		{
			"bufferView":46,
			"componentType":5126,
			"count":164,
			"type":"VEC2"
		},
		{
			"bufferView":47,
			"componentType":5123,
			"count":696,
			"type":"SCALAR"
		},
		{
			"bufferView":48,
			"componentType":5126,
			"count":552,
			"max":[
				1.0463740825653076,
				3.8046114444732666,
				0.6905099749565125
			],
			"min":[
				-1.0463740825653076,
				2.3366048336029053,
				-1.1648972034454346
			],
			"type":"VEC3"
		},
		{
			"bufferView":49,
			"componentType":5126,
			"count":552,
			"type":"VEC3"
		},
		{
			"bufferView":50,
			"componentType":5126,
			"count":552,
			"type":"VEC2"
		},
		{
			"bufferView":51,
			"componentType":5123,
			"count":2400,
			"type":"SCALAR"
		},
		{
			"bufferView":52,
			"componentType":5126,
			"count":330,
			"max":[
				1.2559540271759033,
				1.210405945777893,
				1.0101929903030396
			],
			"min":[
				-1.3117282390594482,
				-0.014919701963663101,
				-0.9650887846946716
			],
			"type":"VEC3"
		},
		{
			"bufferView":53,
			"componentType":5126,
			"count":330,
			"type":"VEC3"
		},
		{
			"bufferView":54,
			"componentType":5126,
			"count":330,
			"type":"VEC2"
		},
		{
			"bufferView":55,
			"componentType":5123,
			"count":1734,
			"type":"SCALAR"
		}
	],
	"bufferViews":[
		{
			"buffer":0,
			"byteLength":1320,
			"byteOffset":0,
			"target":34962
		},
		{
			"buffer":0,
			"byteLength":1320,
			"byteOffset":1320,
			"target":34962
		},
		{
			"buffer":0,
			"byteLength":880,
			"byteOffset":2640,
			"target":34962
		},
		{
			"buffer":0,
			"byteLength":960,
			"byteOffset":3520,
			"target":34963
		},
		{
			"buffer":0,
			"byteLength":576,
			"byteOffset":4480,
			"target":34962
		},
		{
			"buffer":0,
			"byteLength":576,
			"byteOffset":5056,
			"target":34962
		},
		{
			"buffer":0,
			"byteLength":384,
			"byteOffset":5632,
			"target":34962
		},
		{
			"buffer":0,
			"byteLength":312,
			"byteOffset":6016,
			"target":34963
		},
		{
			"buffer":0,
			"byteLength":4680,
			"byteOffset":6328,
			"target":34962
		},
		{
			"buffer":0,
			"byteLength":4680,
			"byteOffset":11008,
			"target":34962
		},
		{
			"buffer":0,
			"byteLength":3120,
			"byteOffset":15688,
			"target":34962
		},
		{
			"buffer":0,
			"byteLength":3744,
			"byteOffset":18808,
			"target":34963
		},
		{
			"buffer":0,
			"byteLength":5328,
			"byteOffset":22552,
			"target":34962
		},
		{
			"buffer":0,
			"byteLength":5328,
			"byteOffset":27880,
			"target":34962
		},
		{
			"buffer":0,
			"byteLength":3552,
			"byteOffset":33208,
			"target":34962
		},
		{
			"buffer":0,
			"byteLength":4416,
			"byteOffset":36760,
			"target":34963
		},
		{
			"buffer":0,
			"byteLength":1164,
			"byteOffset":41176,
			"target":34962
		},
		{
			"buffer":0,
			"byteLength":1164,
			"byteOffset":42340,
			"target":34962
		},
		{
			"buffer":0,
			"byteLength":776,
			"byteOffset":43504,
			"target":34962
		},
		{
			"buffer":0,
			"byteLength":600,
			"byteOffset":44280,
			"target":34963
		},
		{
			"buffer":0,
			"byteLength":672,
			"byteOffset":44880,
			"target":34962
		},
		{
			"buffer":0,
			"byteLength":672,
			"byteOffset":45552,
			"target":34962
		},
		{
			"buffer":0,
			"byteLength":448,
			"byteOffset":46224,
			"target":34962
		},
		{
			"buffer":0,
			"byteLength":456,
			"byteOffset":46672,
			"target":34963
		},
		{
			"buffer":0,
			"byteLength":6120,
			"byteOffset":47128,
			"target":34962
		},
		{
			"buffer":0,
			"byteLength":6120,
			"byteOffset":53248,
			"target":34962
		},
		{
			"buffer":0,
			"byteLength":4080,
			"byteOffset":59368,
			"target":34962
		},
		{
			"buffer":0,
			"byteLength":5400,
			"byteOffset":63448,
			"target":34963
		},
		{
			"buffer":0,
			"byteLength":6228,
			"byteOffset":68848,
			"target":34962
		},
		{
			"buffer":0,
			"byteLength":6228,
			"byteOffset":75076,
			"target":34962
		},
		{
			"buffer":0,
			"byteLength":4152,
			"byteOffset":81304,
			"target":34962
		},
		{
			"buffer":0,
			"byteLength":5208,
			"byteOffset":85456,
			"target":34963
		},
		{
			"buffer":0,
			"byteLength":3600,
			"byteOffset":90664,
			"target":34962
		},
		{
			"buffer":0,
			"byteLength":3600,
			"byteOffset":94264,
			"target":34962
		},
		{
			"buffer":0,
			"byteLength":2400,
			"byteOffset":97864,
			"target":34962
		},
		{
			"buffer":0,
			"byteLength":912,
			"byteOffset":100264,
			"target":34963
		},
		{
			"buffer":0,
			"byteLength":1584,
			"byteOffset":101176,
			"target":34962
		},
		{
			"buffer":0,
			"byteLength":1584,
			"byteOffset":102760,
			"target":34962
		},
		{
			"buffer":0,
			"byteLength":1056,
			"byteOffset":104344,
			"target":34962
		},
		{
			"buffer":0,
			"byteLength":1104,
			"byteOffset":105400,
			"target":34963
		},
		{
			"buffer":0,
			"byteLength":19272,
			"byteOffset":106504,
			"target":34962
		},
		{
			"buffer":0,
			"byteLength":19272,
			"byteOffset":125776,
			"target":34962
		},
		{
			"buffer":0,
			"byteLength":12848,
			"byteOffset":145048,
			"target":34962
		},
		{
			"buffer":0,
			"byteLength":15744,
			"byteOffset":157896,
			"target":34963
		},
		{
			"buffer":0,
			"byteLength":1968,
			"byteOffset":173640,
			"target":34962
		},
		{
			"buffer":0,
			"byteLength":1968,
			"byteOffset":175608,
			"target":34962
		},
		{
			"buffer":0,
			"byteLength":1312,
			"byteOffset":177576,
			"target":34962
		},
		{
			"buffer":0,
			"byteLength":1392,
			"byteOffset":178888,
			"target":34963
		},
		{
			"buffer":0,
			"byteLength":6624,
			"byteOffset":180280,
			"target":34962
		},
		{
			"buffer":0,
			"byteLength":6624,
			"byteOffset":186904,
			"target":34962
		},
		{
			"buffer":0,
			"byteLength":4416,
			"byteOffset":193528,
			"target":34962
		},
		{
			"buffer":0,
			"byteLength":4800,
			"byteOffset":197944,
			"target":34963
		},
		{
			"buffer":0,
			"byteLength":3960,
			"byteOffset":202744,
			"target":34962
		},
		{
			"buffer":0,
			"byteLength":3960,
			"byteOffset":206704,
			"target":34962
		},
		{
			"buffer":0,
			"byteLength":2640,
			"byteOffset":210664,
			"target":34962
		},
		{
			"buffer":0,
			"byteLength":3468,
			"byteOffset":213304,
			"target":34963
		}
	],
	"samplers":[
		{
			"magFilter":9729,
			"minFilter":9987
		}
	],
	"buffers":[
		{
			"byteLength":216772,
			"uri":"Tank.bin"
		}
	]
}
