{
	"asset":{
		"generator":"Khronos glTF Blender I/O v4.4.56",
		"version":"2.0"
	},
	"scene":0,
	"scenes":[
		{
			"name":"Scene",
			"nodes":[
				0,
				1,
				2,
				3,
				4,
				5,
				6,
				7,
				8,
				9,
				10,
				11,
				12,
				13,
				14,
				15,
				16,
				17,
				18,
				19,
				20,
				21,
				22,
				23,
				24,
				25,
				26,
				27,
				28
			]
		}
	],
	"nodes":[
		{
			"mesh":0,
			"name":"Cube.130",
			"rotation":[
				0,
				-0.424689918756485,
				0,
				0.9053388833999634
			],
			"translation":[
				15.686748504638672,
				1,
				-69.24020385742188
			]
		},
		{
			"mesh":1,
			"name":"Cube.131",
			"rotation":[
				0,
				-0.334109902381897,
				0,
				0.9425341486930847
			],
			"translation":[
				19.002534866333008,
				1,
				-72.58707427978516
			]
		},
		{
			"mesh":2,
			"name":"Cube.132",
			"rotation":[
				0,
				-0.24698737263679504,
				0,
				0.969018816947937
			],
			"translation":[
				21.626087188720703,
				1,
				-76.46932983398438
			]
		},
		{
			"mesh":3,
			"name":"Cube.133",
			"rotation":[
				0,
				-0.15090429782867432,
				0,
				0.9885483980178833
			],
			"translation":[
				23.405336380004883,
				1,
				-80.81948852539062
			]
		},
		{
			"mesh":4,
			"name":"Cube.134",
			"rotation":[
				0,
				-0.050682201981544495,
				0,
				0.9987149238586426
			],
			"translation":[
				24.318531036376953,
				1,
				-85.43013763427734
			]
		},
		{
			"mesh":5,
			"name":"Cube.135",
			"rotation":[
				0,
				0.04816466197371483,
				0,
				0.9988394379615784
			],
			"translation":[
				24.31065559387207,
				1,
				-90.1082534790039
			]
		},
		{
			"mesh":6,
			"name":"Cube.136",
			"rotation":[
				0,
				0.1461312472820282,
				0,
				0.9892653226852417
			],
			"translation":[
				23.41283416748047,
				1,
				-94.69975280761719
			]
		},
		{
			"mesh":7,
			"name":"Cube.137",
			"rotation":[
				0,
				0.237672358751297,
				0,
				0.9713453650474548
			],
			"translation":[
				21.607425689697266,
				1,
				-99.0477294921875
			]
		},
		{
			"mesh":8,
			"name":"Cube.138",
			"rotation":[
				0,
				0.33532506227493286,
				0,
				0.9421024918556213
			],
			"translation":[
				19.017833709716797,
				1,
				-102.96279907226562
			]
		},
		{
			"mesh":9,
			"name":"Cube.139",
			"rotation":[
				0,
				0.42693209648132324,
				0,
				0.9042837023735046
			],
			"translation":[
				15.717700958251953,
				1,
				-106.24417877197266
			]
		},
		{
			"mesh":10,
			"name":"Cube.140",
			"rotation":[
				0,
				0.51461261510849,
				0,
				0.8574227690696716
			],
			"translation":[
				11.778837203979492,
				1,
				-108.90062713623047
			]
		},
		{
			"mesh":11,
			"name":"Cube.141",
			"rotation":[
				0,
				0.5960606932640076,
				0,
				0.8029394149780273
			],
			"translation":[
				7.439366817474365,
				1,
				-110.71359252929688
			]
		},
		{
			"mesh":12,
			"name":"Cube.142",
			"rotation":[
				0,
				0.6712371706962585,
				0,
				0.7412426471710205
			],
			"translation":[
				2.8413491249084473,
				1,
				-111.63194274902344
			]
		},
		{
			"mesh":13,
			"name":"Cube.143",
			"rotation":[
				0,
				0.7394304275512695,
				0,
				0.6732330322265625
			],
			"translation":[
				-1.8311094045639038,
				1,
				-111.65769958496094
			]
		},
		{
			"mesh":14,
			"name":"Cube.144",
			"rotation":[
				0,
				0.8017289042472839,
				0,
				0.597687840461731
			],
			"translation":[
				-6.50120210647583,
				1,
				-110.72891998291016
			]
		},
		{
			"mesh":15,
			"name":"Cube.145",
			"rotation":[
				0,
				0.8579459190368652,
				0,
				0.5137400031089783
			],
			"translation":[
				-10.809215545654297,
				1,
				-108.9236831665039
			]
		},
		{
			"mesh":16,
			"name":"Cube.146",
			"rotation":[
				0,
				0.9036492705345154,
				0,
				0.4282733201980591
			],
			"translation":[
				-14.711859703063965,
				1,
				-106.33213806152344
			]
		},
		{
			"mesh":17,
			"name":"Cube.147",
			"rotation":[
				0,
				0.9403807520866394,
				0,
				0.34012356400489807
			],
			"translation":[
				-18.05767059326172,
				1,
				-103.00930786132812
			]
		},
		{
			"mesh":18,
			"name":"Cube.148",
			"rotation":[
				0,
				0.9700036644935608,
				0,
				0.2430904656648636
			],
			"translation":[
				-20.67542839050293,
				1,
				-99.05806732177734
			]
		},
		{
			"mesh":19,
			"name":"Cube.149",
			"rotation":[
				0,
				0.9890284538269043,
				0,
				0.14772510528564453
			],
			"translation":[
				-22.41312599182129,
				1,
				-94.7296142578125
			]
		},
		{
			"mesh":20,
			"name":"Cube.150",
			"rotation":[
				0,
				0.9987812638282776,
				0,
				0.049356404691934586
			],
			"translation":[
				-23.349895477294922,
				1,
				-90.11320495605469
			]
		},
		{
			"mesh":21,
			"name":"Cube.151",
			"rotation":[
				0,
				-0.9988412857055664,
				0,
				0.0481267124414444
			],
			"translation":[
				-23.35007095336914,
				1,
				-85.40873718261719
			]
		},
		{
			"mesh":22,
			"name":"Cube.152",
			"rotation":[
				0,
				-0.9889732003211975,
				0,
				0.14809484779834747
			],
			"translation":[
				-22.44591522216797,
				1,
				-80.80436706542969
			]
		},
		{
			"mesh":23,
			"name":"Cube.153",
			"rotation":[
				0,
				-0.9706811308860779,
				0,
				0.24037079513072968
			],
			"translation":[
				-20.609241485595703,
				1,
				-76.46022033691406
			]
		},
		{
			"mesh":24,
			"name":"Cube.154",
			"rotation":[
				0,
				-0.9424375891685486,
				0,
				0.3343821167945862
			],
			"translation":[
				-18.024778366088867,
				1,
				-72.59265899658203
			]
		},
		{
			"mesh":25,
			"name":"Cube.155",
			"rotation":[
				0,
				-0.9037063717842102,
				0,
				0.42815282940864563
			],
			"translation":[
				-14.728408813476562,
				1,
				-69.25189971923828
			]
		},
		{
			"mesh":26,
			"name":"Cube.156",
			"rotation":[
				0,
				-0.5095409154891968,
				0,
				0.8604464530944824
			],
			"translation":[
				12.750722885131836,
				1,
				-67.29763793945312
			]
		},
		{
			"mesh":27,
			"name":"Cube.157",
			"rotation":[
				0,
				-0.8527510762214661,
				0,
				0.5223175883293152
			],
			"translation":[
				-11.811177253723145,
				1,
				-67.29144287109375
			]
		},
		{
			"mesh":28,
			"name":"Cube.043",
			"rotation":[
				0,
				0.7071068286895752,
				0,
				0.7071067094802856
			],
			"scale":[
				1,
				1,
				2.8126518726348877
			],
			"translation":[
				0.4353511929512024,
				1,
				-65.90736389160156
			]
		}
	],
	"meshes":[
		{
			"name":"Cube.310",
			"primitives":[
				{
					"attributes":{
						"POSITION":0,
						"NORMAL":1,
						"TEXCOORD_0":2
					},
					"indices":3
				}
			]
		},
		{
			"name":"Cube.311",
			"primitives":[
				{
					"attributes":{
						"POSITION":4,
						"NORMAL":5,
						"TEXCOORD_0":6
					},
					"indices":3
				}
			]
		},
		{
			"name":"Cube.312",
			"primitives":[
				{
					"attributes":{
						"POSITION":7,
						"NORMAL":8,
						"TEXCOORD_0":9
					},
					"indices":3
				}
			]
		},
		{
			"name":"Cube.313",
			"primitives":[
				{
					"attributes":{
						"POSITION":10,
						"NORMAL":11,
						"TEXCOORD_0":12
					},
					"indices":3
				}
			]
		},
		{
			"name":"Cube.314",
			"primitives":[
				{
					"attributes":{
						"POSITION":13,
						"NORMAL":14,
						"TEXCOORD_0":15
					},
					"indices":3
				}
			]
		},
		{
			"name":"Cube.315",
			"primitives":[
				{
					"attributes":{
						"POSITION":16,
						"NORMAL":17,
						"TEXCOORD_0":18
					},
					"indices":3
				}
			]
		},
		{
			"name":"Cube.316",
			"primitives":[
				{
					"attributes":{
						"POSITION":19,
						"NORMAL":20,
						"TEXCOORD_0":21
					},
					"indices":3
				}
			]
		},
		{
			"name":"Cube.317",
			"primitives":[
				{
					"attributes":{
						"POSITION":22,
						"NORMAL":23,
						"TEXCOORD_0":24
					},
					"indices":3
				}
			]
		},
		{
			"name":"Cube.318",
			"primitives":[
				{
					"attributes":{
						"POSITION":25,
						"NORMAL":26,
						"TEXCOORD_0":27
					},
					"indices":3
				}
			]
		},
		{
			"name":"Cube.319",
			"primitives":[
				{
					"attributes":{
						"POSITION":28,
						"NORMAL":29,
						"TEXCOORD_0":30
					},
					"indices":3
				}
			]
		},
		{
			"name":"Cube.048",
			"primitives":[
				{
					"attributes":{
						"POSITION":31,
						"NORMAL":32,
						"TEXCOORD_0":33
					},
					"indices":3
				}
			]
		},
		{
			"name":"Cube.052",
			"primitives":[
				{
					"attributes":{
						"POSITION":34,
						"NORMAL":35,
						"TEXCOORD_0":36
					},
					"indices":3
				}
			]
		},
		{
			"name":"Cube.054",
			"primitives":[
				{
					"attributes":{
						"POSITION":37,
						"NORMAL":38,
						"TEXCOORD_0":39
					},
					"indices":3
				}
			]
		},
		{
			"name":"Cube.058",
			"primitives":[
				{
					"attributes":{
						"POSITION":40,
						"NORMAL":41,
						"TEXCOORD_0":42
					},
					"indices":3
				}
			]
		},
		{
			"name":"Cube.060",
			"primitives":[
				{
					"attributes":{
						"POSITION":43,
						"NORMAL":44,
						"TEXCOORD_0":45
					},
					"indices":3
				}
			]
		},
		{
			"name":"Cube.064",
			"primitives":[
				{
					"attributes":{
						"POSITION":46,
						"NORMAL":47,
						"TEXCOORD_0":48
					},
					"indices":3
				}
			]
		},
		{
			"name":"Cube.067",
			"primitives":[
				{
					"attributes":{
						"POSITION":49,
						"NORMAL":50,
						"TEXCOORD_0":51
					},
					"indices":3
				}
			]
		},
		{
			"name":"Cube.071",
			"primitives":[
				{
					"attributes":{
						"POSITION":52,
						"NORMAL":53,
						"TEXCOORD_0":54
					},
					"indices":3
				}
			]
		},
		{
			"name":"Cube.074",
			"primitives":[
				{
					"attributes":{
						"POSITION":55,
						"NORMAL":56,
						"TEXCOORD_0":57
					},
					"indices":3
				}
			]
		},
		{
			"name":"Cube.077",
			"primitives":[
				{
					"attributes":{
						"POSITION":58,
						"NORMAL":59,
						"TEXCOORD_0":60
					},
					"indices":3
				}
			]
		},
		{
			"name":"Cube.078",
			"primitives":[
				{
					"attributes":{
						"POSITION":61,
						"NORMAL":62,
						"TEXCOORD_0":63
					},
					"indices":3
				}
			]
		},
		{
			"name":"Cube.082",
			"primitives":[
				{
					"attributes":{
						"POSITION":64,
						"NORMAL":65,
						"TEXCOORD_0":66
					},
					"indices":3
				}
			]
		},
		{
			"name":"Cube.090",
			"primitives":[
				{
					"attributes":{
						"POSITION":67,
						"NORMAL":68,
						"TEXCOORD_0":69
					},
					"indices":3
				}
			]
		},
		{
			"name":"Cube.091",
			"primitives":[
				{
					"attributes":{
						"POSITION":70,
						"NORMAL":71,
						"TEXCOORD_0":72
					},
					"indices":3
				}
			]
		},
		{
			"name":"Cube.092",
			"primitives":[
				{
					"attributes":{
						"POSITION":73,
						"NORMAL":74,
						"TEXCOORD_0":75
					},
					"indices":3
				}
			]
		},
		{
			"name":"Cube.094",
			"primitives":[
				{
					"attributes":{
						"POSITION":76,
						"NORMAL":77,
						"TEXCOORD_0":78
					},
					"indices":3
				}
			]
		},
		{
			"name":"Cube.096",
			"primitives":[
				{
					"attributes":{
						"POSITION":79,
						"NORMAL":80,
						"TEXCOORD_0":81
					},
					"indices":3
				}
			]
		},
		{
			"name":"Cube.098",
			"primitives":[
				{
					"attributes":{
						"POSITION":82,
						"NORMAL":83,
						"TEXCOORD_0":84
					},
					"indices":3
				}
			]
		},
		{
			"name":"Cube.349",
			"primitives":[
				{
					"attributes":{
						"POSITION":85,
						"NORMAL":86,
						"TEXCOORD_0":87
					},
					"indices":3
				}
			]
		}
	],
	"accessors":[
		{
			"bufferView":0,
			"componentType":5126,
			"count":24,
			"max":[
				0.17000004649162292,
				1,
				2.259999990463257
			],
			"min":[
				-0.17000004649162292,
				-1,
				-2.259999990463257
			],
			"type":"VEC3"
		},
		{
			"bufferView":1,
			"componentType":5126,
			"count":24,
			"type":"VEC3"
		},
		{
			"bufferView":2,
			"componentType":5126,
			"count":24,
			"type":"VEC2"
		},
		{
			"bufferView":3,
			"componentType":5123,
			"count":36,
			"type":"SCALAR"
		},
		{
			"bufferView":4,
			"componentType":5126,
			"count":24,
			"max":[
				0.17000004649162292,
				1,
				2.259999990463257
			],
			"min":[
				-0.17000004649162292,
				-1,
				-2.259999990463257
			],
			"type":"VEC3"
		},
		{
			"bufferView":5,
			"componentType":5126,
			"count":24,
			"type":"VEC3"
		},
		{
			"bufferView":6,
			"componentType":5126,
			"count":24,
			"type":"VEC2"
		},
		{
			"bufferView":7,
			"componentType":5126,
			"count":24,
			"max":[
				0.17000004649162292,
				1,
				2.260000467300415
			],
			"min":[
				-0.17000004649162292,
				-1,
				-2.260000467300415
			],
			"type":"VEC3"
		},
		{
			"bufferView":8,
			"componentType":5126,
			"count":24,
			"type":"VEC3"
		},
		{
			"bufferView":9,
			"componentType":5126,
			"count":24,
			"type":"VEC2"
		},
		{
			"bufferView":10,
			"componentType":5126,
			"count":24,
			"max":[
				0.17000004649162292,
				1,
				2.260000467300415
			],
			"min":[
				-0.17000004649162292,
				-1,
				-2.260000467300415
			],
			"type":"VEC3"
		},
		{
			"bufferView":11,
			"componentType":5126,
			"count":24,
			"type":"VEC3"
		},
		{
			"bufferView":12,
			"componentType":5126,
			"count":24,
			"type":"VEC2"
		},
		{
			"bufferView":13,
			"componentType":5126,
			"count":24,
			"max":[
				0.17000004649162292,
				1,
				2.260000467300415
			],
			"min":[
				-0.17000004649162292,
				-1,
				-2.260000467300415
			],
			"type":"VEC3"
		},
		{
			"bufferView":14,
			"componentType":5126,
			"count":24,
			"type":"VEC3"
		},
		{
			"bufferView":15,
			"componentType":5126,
			"count":24,
			"type":"VEC2"
		},
		{
			"bufferView":16,
			"componentType":5126,
			"count":24,
			"max":[
				0.17000004649162292,
				1,
				2.260000467300415
			],
			"min":[
				-0.17000004649162292,
				-1,
				-2.260000467300415
			],
			"type":"VEC3"
		},
		{
			"bufferView":17,
			"componentType":5126,
			"count":24,
			"type":"VEC3"
		},
		{
			"bufferView":18,
			"componentType":5126,
			"count":24,
			"type":"VEC2"
		},
		{
			"bufferView":19,
			"componentType":5126,
			"count":24,
			"max":[
				0.17000004649162292,
				1,
				2.260000467300415
			],
			"min":[
				-0.17000004649162292,
				-1,
				-2.260000467300415
			],
			"type":"VEC3"
		},
		{
			"bufferView":20,
			"componentType":5126,
			"count":24,
			"type":"VEC3"
		},
		{
			"bufferView":21,
			"componentType":5126,
			"count":24,
			"type":"VEC2"
		},
		{
			"bufferView":22,
			"componentType":5126,
			"count":24,
			"max":[
				0.17000004649162292,
				1,
				2.260000467300415
			],
			"min":[
				-0.17000004649162292,
				-1,
				-2.260000467300415
			],
			"type":"VEC3"
		},
		{
			"bufferView":23,
			"componentType":5126,
			"count":24,
			"type":"VEC3"
		},
		{
			"bufferView":24,
			"componentType":5126,
			"count":24,
			"type":"VEC2"
		},
		{
			"bufferView":25,
			"componentType":5126,
			"count":24,
			"max":[
				0.17000004649162292,
				1,
				2.260000467300415
			],
			"min":[
				-0.17000004649162292,
				-1,
				-2.260000467300415
			],
			"type":"VEC3"
		},
		{
			"bufferView":26,
			"componentType":5126,
			"count":24,
			"type":"VEC3"
		},
		{
			"bufferView":27,
			"componentType":5126,
			"count":24,
			"type":"VEC2"
		},
		{
			"bufferView":28,
			"componentType":5126,
			"count":24,
			"max":[
				0.17000004649162292,
				1,
				2.260000467300415
			],
			"min":[
				-0.17000004649162292,
				-1,
				-2.260000467300415
			],
			"type":"VEC3"
		},
		{
			"bufferView":29,
			"componentType":5126,
			"count":24,
			"type":"VEC3"
		},
		{
			"bufferView":30,
			"componentType":5126,
			"count":24,
			"type":"VEC2"
		},
		{
			"bufferView":31,
			"componentType":5126,
			"count":24,
			"max":[
				0.17000004649162292,
				1,
				2.260000467300415
			],
			"min":[
				-0.17000004649162292,
				-1,
				-2.260000467300415
			],
			"type":"VEC3"
		},
		{
			"bufferView":32,
			"componentType":5126,
			"count":24,
			"type":"VEC3"
		},
		{
			"bufferView":33,
			"componentType":5126,
			"count":24,
			"type":"VEC2"
		},
		{
			"bufferView":34,
			"componentType":5126,
			"count":24,
			"max":[
				0.17000004649162292,
				1,
				2.260000467300415
			],
			"min":[
				-0.17000004649162292,
				-1,
				-2.260000467300415
			],
			"type":"VEC3"
		},
		{
			"bufferView":35,
			"componentType":5126,
			"count":24,
			"type":"VEC3"
		},
		{
			"bufferView":36,
			"componentType":5126,
			"count":24,
			"type":"VEC2"
		},
		{
			"bufferView":37,
			"componentType":5126,
			"count":24,
			"max":[
				0.17000004649162292,
				1,
				2.260000467300415
			],
			"min":[
				-0.17000004649162292,
				-1,
				-2.260000467300415
			],
			"type":"VEC3"
		},
		{
			"bufferView":38,
			"componentType":5126,
			"count":24,
			"type":"VEC3"
		},
		{
			"bufferView":39,
			"componentType":5126,
			"count":24,
			"type":"VEC2"
		},
		{
			"bufferView":40,
			"componentType":5126,
			"count":24,
			"max":[
				0.17000004649162292,
				1,
				2.259999990463257
			],
			"min":[
				-0.17000004649162292,
				-1,
				-2.259999990463257
			],
			"type":"VEC3"
		},
		{
			"bufferView":41,
			"componentType":5126,
			"count":24,
			"type":"VEC3"
		},
		{
			"bufferView":42,
			"componentType":5126,
			"count":24,
			"type":"VEC2"
		},
		{
			"bufferView":43,
			"componentType":5126,
			"count":24,
			"max":[
				0.17000004649162292,
				1,
				2.259999990463257
			],
			"min":[
				-0.17000004649162292,
				-1,
				-2.259999990463257
			],
			"type":"VEC3"
		},
		{
			"bufferView":44,
			"componentType":5126,
			"count":24,
			"type":"VEC3"
		},
		{
			"bufferView":45,
			"componentType":5126,
			"count":24,
			"type":"VEC2"
		},
		{
			"bufferView":46,
			"componentType":5126,
			"count":24,
			"max":[
				0.17000004649162292,
				1,
				2.260000467300415
			],
			"min":[
				-0.17000004649162292,
				-1,
				-2.260000467300415
			],
			"type":"VEC3"
		},
		{
			"bufferView":47,
			"componentType":5126,
			"count":24,
			"type":"VEC3"
		},
		{
			"bufferView":48,
			"componentType":5126,
			"count":24,
			"type":"VEC2"
		},
		{
			"bufferView":49,
			"componentType":5126,
			"count":24,
			"max":[
				0.17000004649162292,
				1,
				2.260000467300415
			],
			"min":[
				-0.17000004649162292,
				-1,
				-2.260000467300415
			],
			"type":"VEC3"
		},
		{
			"bufferView":50,
			"componentType":5126,
			"count":24,
			"type":"VEC3"
		},
		{
			"bufferView":51,
			"componentType":5126,
			"count":24,
			"type":"VEC2"
		},
		{
			"bufferView":52,
			"componentType":5126,
			"count":24,
			"max":[
				0.17000004649162292,
				1,
				2.260000467300415
			],
			"min":[
				-0.17000004649162292,
				-1,
				-2.260000467300415
			],
			"type":"VEC3"
		},
		{
			"bufferView":53,
			"componentType":5126,
			"count":24,
			"type":"VEC3"
		},
		{
			"bufferView":54,
			"componentType":5126,
			"count":24,
			"type":"VEC2"
		},
		{
			"bufferView":55,
			"componentType":5126,
			"count":24,
			"max":[
				0.17000004649162292,
				1,
				2.260000467300415
			],
			"min":[
				-0.17000004649162292,
				-1,
				-2.260000467300415
			],
			"type":"VEC3"
		},
		{
			"bufferView":56,
			"componentType":5126,
			"count":24,
			"type":"VEC3"
		},
		{
			"bufferView":57,
			"componentType":5126,
			"count":24,
			"type":"VEC2"
		},
		{
			"bufferView":58,
			"componentType":5126,
			"count":24,
			"max":[
				0.17000004649162292,
				1,
				2.260000467300415
			],
			"min":[
				-0.17000004649162292,
				-1,
				-2.260000467300415
			],
			"type":"VEC3"
		},
		{
			"bufferView":59,
			"componentType":5126,
			"count":24,
			"type":"VEC3"
		},
		{
			"bufferView":60,
			"componentType":5126,
			"count":24,
			"type":"VEC2"
		},
		{
			"bufferView":61,
			"componentType":5126,
			"count":24,
			"max":[
				0.17000004649162292,
				1,
				2.260000467300415
			],
			"min":[
				-0.17000004649162292,
				-1,
				-2.260000467300415
			],
			"type":"VEC3"
		},
		{
			"bufferView":62,
			"componentType":5126,
			"count":24,
			"type":"VEC3"
		},
		{
			"bufferView":63,
			"componentType":5126,
			"count":24,
			"type":"VEC2"
		},
		{
			"bufferView":64,
			"componentType":5126,
			"count":24,
			"max":[
				0.17000004649162292,
				1,
				2.260000467300415
			],
			"min":[
				-0.17000004649162292,
				-1,
				-2.260000467300415
			],
			"type":"VEC3"
		},
		{
			"bufferView":65,
			"componentType":5126,
			"count":24,
			"type":"VEC3"
		},
		{
			"bufferView":66,
			"componentType":5126,
			"count":24,
			"type":"VEC2"
		},
		{
			"bufferView":67,
			"componentType":5126,
			"count":24,
			"max":[
				0.17000004649162292,
				1,
				2.260000467300415
			],
			"min":[
				-0.17000004649162292,
				-1,
				-2.260000467300415
			],
			"type":"VEC3"
		},
		{
			"bufferView":68,
			"componentType":5126,
			"count":24,
			"type":"VEC3"
		},
		{
			"bufferView":69,
			"componentType":5126,
			"count":24,
			"type":"VEC2"
		},
		{
			"bufferView":70,
			"componentType":5126,
			"count":24,
			"max":[
				0.17000004649162292,
				1,
				2.260000467300415
			],
			"min":[
				-0.17000004649162292,
				-1,
				-2.260000467300415
			],
			"type":"VEC3"
		},
		{
			"bufferView":71,
			"componentType":5126,
			"count":24,
			"type":"VEC3"
		},
		{
			"bufferView":72,
			"componentType":5126,
			"count":24,
			"type":"VEC2"
		},
		{
			"bufferView":73,
			"componentType":5126,
			"count":24,
			"max":[
				0.17000004649162292,
				1,
				2.260000467300415
			],
			"min":[
				-0.17000004649162292,
				-1,
				-2.260000467300415
			],
			"type":"VEC3"
		},
		{
			"bufferView":74,
			"componentType":5126,
			"count":24,
			"type":"VEC3"
		},
		{
			"bufferView":75,
			"componentType":5126,
			"count":24,
			"type":"VEC2"
		},
		{
			"bufferView":76,
			"componentType":5126,
			"count":24,
			"max":[
				0.17000004649162292,
				1,
				2.260000467300415
			],
			"min":[
				-0.17000004649162292,
				-1,
				-2.260000467300415
			],
			"type":"VEC3"
		},
		{
			"bufferView":77,
			"componentType":5126,
			"count":24,
			"type":"VEC3"
		},
		{
			"bufferView":78,
			"componentType":5126,
			"count":24,
			"type":"VEC2"
		},
		{
			"bufferView":79,
			"componentType":5126,
			"count":24,
			"max":[
				0.05000004917383194,
				1,
				1.0700000524520874
			],
			"min":[
				-0.05000004917383194,
				-1,
				-1.0700000524520874
			],
			"type":"VEC3"
		},
		{
			"bufferView":80,
			"componentType":5126,
			"count":24,
			"type":"VEC3"
		},
		{
			"bufferView":81,
			"componentType":5126,
			"count":24,
			"type":"VEC2"
		},
		{
			"bufferView":82,
			"componentType":5126,
			"count":24,
			"max":[
				0.05000004917383194,
				1,
				1.090000033378601
			],
			"min":[
				-0.05000004917383194,
				-1,
				-1.090000033378601
			],
			"type":"VEC3"
		},
		{
			"bufferView":83,
			"componentType":5126,
			"count":24,
			"type":"VEC3"
		},
		{
			"bufferView":84,
			"componentType":5126,
			"count":24,
			"type":"VEC2"
		},
		{
			"bufferView":85,
			"componentType":5126,
			"count":24,
			"max":[
				0.14999991655349731,
				1,
				3.954646110534668
			],
			"min":[
				-0.14999991655349731,
				-1,
				-3.954646110534668
			],
			"type":"VEC3"
		},
		{
			"bufferView":86,
			"componentType":5126,
			"count":24,
			"type":"VEC3"
		},
		{
			"bufferView":87,
			"componentType":5126,
			"count":24,
			"type":"VEC2"
		}
	],
	"bufferViews":[
		{
			"buffer":0,
			"byteLength":288,
			"byteOffset":0,
			"target":34962
		},
		{
			"buffer":0,
			"byteLength":288,
			"byteOffset":288,
			"target":34962
		},
		{
			"buffer":0,
			"byteLength":192,
			"byteOffset":576,
			"target":34962
		},
		{
			"buffer":0,
			"byteLength":72,
			"byteOffset":768,
			"target":34963
		},
		{
			"buffer":0,
			"byteLength":288,
			"byteOffset":840,
			"target":34962
		},
		{
			"buffer":0,
			"byteLength":288,
			"byteOffset":1128,
			"target":34962
		},
		{
			"buffer":0,
			"byteLength":192,
			"byteOffset":1416,
			"target":34962
		},
		{
			"buffer":0,
			"byteLength":288,
			"byteOffset":1608,
			"target":34962
		},
		{
			"buffer":0,
			"byteLength":288,
			"byteOffset":1896,
			"target":34962
		},
		{
			"buffer":0,
			"byteLength":192,
			"byteOffset":2184,
			"target":34962
		},
		{
			"buffer":0,
			"byteLength":288,
			"byteOffset":2376,
			"target":34962
		},
		{
			"buffer":0,
			"byteLength":288,
			"byteOffset":2664,
			"target":34962
		},
		{
			"buffer":0,
			"byteLength":192,
			"byteOffset":2952,
			"target":34962
		},
		{
			"buffer":0,
			"byteLength":288,
			"byteOffset":3144,
			"target":34962
		},
		{
			"buffer":0,
			"byteLength":288,
			"byteOffset":3432,
			"target":34962
		},
		{
			"buffer":0,
			"byteLength":192,
			"byteOffset":3720,
			"target":34962
		},
		{
			"buffer":0,
			"byteLength":288,
			"byteOffset":3912,
			"target":34962
		},
		{
			"buffer":0,
			"byteLength":288,
			"byteOffset":4200,
			"target":34962
		},
		{
			"buffer":0,
			"byteLength":192,
			"byteOffset":4488,
			"target":34962
		},
		{
			"buffer":0,
			"byteLength":288,
			"byteOffset":4680,
			"target":34962
		},
		{
			"buffer":0,
			"byteLength":288,
			"byteOffset":4968,
			"target":34962
		},
		{
			"buffer":0,
			"byteLength":192,
			"byteOffset":5256,
			"target":34962
		},
		{
			"buffer":0,
			"byteLength":288,
			"byteOffset":5448,
			"target":34962
		},
		{
			"buffer":0,
			"byteLength":288,
			"byteOffset":5736,
			"target":34962
		},
		{
			"buffer":0,
			"byteLength":192,
			"byteOffset":6024,
			"target":34962
		},
		{
			"buffer":0,
			"byteLength":288,
			"byteOffset":6216,
			"target":34962
		},
		{
			"buffer":0,
			"byteLength":288,
			"byteOffset":6504,
			"target":34962
		},
		{
			"buffer":0,
			"byteLength":192,
			"byteOffset":6792,
			"target":34962
		},
		{
			"buffer":0,
			"byteLength":288,
			"byteOffset":6984,
			"target":34962
		},
		{
			"buffer":0,
			"byteLength":288,
			"byteOffset":7272,
			"target":34962
		},
		{
			"buffer":0,
			"byteLength":192,
			"byteOffset":7560,
			"target":34962
		},
		{
			"buffer":0,
			"byteLength":288,
			"byteOffset":7752,
			"target":34962
		},
		{
			"buffer":0,
			"byteLength":288,
			"byteOffset":8040,
			"target":34962
		},
		{
			"buffer":0,
			"byteLength":192,
			"byteOffset":8328,
			"target":34962
		},
		{
			"buffer":0,
			"byteLength":288,
			"byteOffset":8520,
			"target":34962
		},
		{
			"buffer":0,
			"byteLength":288,
			"byteOffset":8808,
			"target":34962
		},
		{
			"buffer":0,
			"byteLength":192,
			"byteOffset":9096,
			"target":34962
		},
		{
			"buffer":0,
			"byteLength":288,
			"byteOffset":9288,
			"target":34962
		},
		{
			"buffer":0,
			"byteLength":288,
			"byteOffset":9576,
			"target":34962
		},
		{
			"buffer":0,
			"byteLength":192,
			"byteOffset":9864,
			"target":34962
		},
		{
			"buffer":0,
			"byteLength":288,
			"byteOffset":10056,
			"target":34962
		},
		{
			"buffer":0,
			"byteLength":288,
			"byteOffset":10344,
			"target":34962
		},
		{
			"buffer":0,
			"byteLength":192,
			"byteOffset":10632,
			"target":34962
		},
		{
			"buffer":0,
			"byteLength":288,
			"byteOffset":10824,
			"target":34962
		},
		{
			"buffer":0,
			"byteLength":288,
			"byteOffset":11112,
			"target":34962
		},
		{
			"buffer":0,
			"byteLength":192,
			"byteOffset":11400,
			"target":34962
		},
		{
			"buffer":0,
			"byteLength":288,
			"byteOffset":11592,
			"target":34962
		},
		{
			"buffer":0,
			"byteLength":288,
			"byteOffset":11880,
			"target":34962
		},
		{
			"buffer":0,
			"byteLength":192,
			"byteOffset":12168,
			"target":34962
		},
		{
			"buffer":0,
			"byteLength":288,
			"byteOffset":12360,
			"target":34962
		},
		{
			"buffer":0,
			"byteLength":288,
			"byteOffset":12648,
			"target":34962
		},
		{
			"buffer":0,
			"byteLength":192,
			"byteOffset":12936,
			"target":34962
		},
		{
			"buffer":0,
			"byteLength":288,
			"byteOffset":13128,
			"target":34962
		},
		{
			"buffer":0,
			"byteLength":288,
			"byteOffset":13416,
			"target":34962
		},
		{
			"buffer":0,
			"byteLength":192,
			"byteOffset":13704,
			"target":34962
		},
		{
			"buffer":0,
			"byteLength":288,
			"byteOffset":13896,
			"target":34962
		},
		{
			"buffer":0,
			"byteLength":288,
			"byteOffset":14184,
			"target":34962
		},
		{
			"buffer":0,
			"byteLength":192,
			"byteOffset":14472,
			"target":34962
		},
		{
			"buffer":0,
			"byteLength":288,
			"byteOffset":14664,
			"target":34962
		},
		{
			"buffer":0,
			"byteLength":288,
			"byteOffset":14952,
			"target":34962
		},
		{
			"buffer":0,
			"byteLength":192,
			"byteOffset":15240,
			"target":34962
		},
		{
			"buffer":0,
			"byteLength":288,
			"byteOffset":15432,
			"target":34962
		},
		{
			"buffer":0,
			"byteLength":288,
			"byteOffset":15720,
			"target":34962
		},
		{
			"buffer":0,
			"byteLength":192,
			"byteOffset":16008,
			"target":34962
		},
		{
			"buffer":0,
			"byteLength":288,
			"byteOffset":16200,
			"target":34962
		},
		{
			"buffer":0,
			"byteLength":288,
			"byteOffset":16488,
			"target":34962
		},
		{
			"buffer":0,
			"byteLength":192,
			"byteOffset":16776,
			"target":34962
		},
		{
			"buffer":0,
			"byteLength":288,
			"byteOffset":16968,
			"target":34962
		},
		{
			"buffer":0,
			"byteLength":288,
			"byteOffset":17256,
			"target":34962
		},
		{
			"buffer":0,
			"byteLength":192,
			"byteOffset":17544,
			"target":34962
		},
		{
			"buffer":0,
			"byteLength":288,
			"byteOffset":17736,
			"target":34962
		},
		{
			"buffer":0,
			"byteLength":288,
			"byteOffset":18024,
			"target":34962
		},
		{
			"buffer":0,
			"byteLength":192,
			"byteOffset":18312,
			"target":34962
		},
		{
			"buffer":0,
			"byteLength":288,
			"byteOffset":18504,
			"target":34962
		},
		{
			"buffer":0,
			"byteLength":288,
			"byteOffset":18792,
			"target":34962
		},
		{
			"buffer":0,
			"byteLength":192,
			"byteOffset":19080,
			"target":34962
		},
		{
			"buffer":0,
			"byteLength":288,
			"byteOffset":19272,
			"target":34962
		},
		{
			"buffer":0,
			"byteLength":288,
			"byteOffset":19560,
			"target":34962
		},
		{
			"buffer":0,
			"byteLength":192,
			"byteOffset":19848,
			"target":34962
		},
		{
			"buffer":0,
			"byteLength":288,
			"byteOffset":20040,
			"target":34962
		},
		{
			"buffer":0,
			"byteLength":288,
			"byteOffset":20328,
			"target":34962
		},
		{
			"buffer":0,
			"byteLength":192,
			"byteOffset":20616,
			"target":34962
		},
		{
			"buffer":0,
			"byteLength":288,
			"byteOffset":20808,
			"target":34962
		},
		{
			"buffer":0,
			"byteLength":288,
			"byteOffset":21096,
			"target":34962
		},
		{
			"buffer":0,
			"byteLength":192,
			"byteOffset":21384,
			"target":34962
		},
		{
			"buffer":0,
			"byteLength":288,
			"byteOffset":21576,
			"target":34962
		},
		{
			"buffer":0,
			"byteLength":288,
			"byteOffset":21864,
			"target":34962
		},
		{
			"buffer":0,
			"byteLength":192,
			"byteOffset":22152,
			"target":34962
		}
	],
	"buffers":[
		{
			"byteLength":22344,
			"uri":"CollidersLvl3.2_FinalGold.bin"
		}
	]
}
