{
	"asset":{
		"generator":"Khronos glTF Blender I/O v4.4.56",
		"version":"2.0"
	},
	"scene":0,
	"scenes":[
		{
			"name":"Scene",
			"nodes":[
				0,
				1,
				2,
				3,
				4,
				5,
				6,
				7,
				8,
				9,
				10,
				11,
				12,
				13,
				14,
				15,
				16,
				17,
				18,
				19,
				20,
				21,
				22,
				23,
				24,
				25,
				26,
				27,
				28,
				29,
				30,
				31,
				32,
				33
			]
		}
	],
	"nodes":[
		{
			"mesh":0,
			"name":"Cube.001",
			"rotation":[
				0,
				-0.46927013993263245,
				0,
				0.8830546736717224
			],
			"translation":[
				-10.114992141723633,
				1,
				-24.716840744018555
			]
		},
		{
			"mesh":1,
			"name":"Cube.002",
			"rotation":[
				0,
				-0.46927013993263245,
				0,
				0.8830546736717224
			],
			"translation":[
				11.751140594482422,
				1,
				-24.530893325805664
			]
		},
		{
			"mesh":2,
			"name":"Cube.009",
			"rotation":[
				0,
				-0.335813045501709,
				0,
				0.9419286847114563
			],
			"translation":[
				-13.324599266052246,
				1,
				-22.1426944732666
			]
		},
		{
			"mesh":3,
			"name":"Cube.010",
			"rotation":[
				0,
				-0.2439689338207245,
				0,
				0.9697830677032471
			],
			"translation":[
				-15.249015808105469,
				1,
				-19.263362884521484
			]
		},
		{
			"mesh":4,
			"name":"Cube.011",
			"rotation":[
				0,
				-0.14914041757583618,
				0,
				0.9888160228729248
			],
			"translation":[
				-16.56982421875,
				1,
				-16.035320281982422
			]
		},
		{
			"mesh":5,
			"name":"Cube.012",
			"rotation":[
				0,
				-0.048962101340293884,
				0,
				0.9988006353378296
			],
			"translation":[
				-17.25237464904785,
				1,
				-12.596309661865234
			]
		},
		{
			"mesh":6,
			"name":"Cube.013",
			"rotation":[
				0,
				0.0465620681643486,
				0,
				0.998915433883667
			],
			"translation":[
				-17.272064208984375,
				1,
				-9.104795455932617
			]
		},
		{
			"mesh":7,
			"name":"Cube.014",
			"rotation":[
				0,
				0.1441638320684433,
				0,
				0.9895538687705994
			],
			"translation":[
				-16.582948684692383,
				1,
				-5.6460957527160645
			]
		},
		{
			"mesh":8,
			"name":"Cube.015",
			"rotation":[
				0,
				0.24277867376804352,
				0,
				0.9700818061828613
			],
			"translation":[
				-15.244096755981445,
				1,
				-2.4302268028259277
			]
		},
		{
			"mesh":9,
			"name":"Cube.016",
			"rotation":[
				0,
				0.33923330903053284,
				0,
				0.9407023787498474
			],
			"translation":[
				-13.268634796142578,
				1,
				0.4837442636489868
			]
		},
		{
			"mesh":10,
			"name":"Cube.017",
			"rotation":[
				0,
				0.4269341230392456,
				0,
				0.9042828679084778
			],
			"translation":[
				-10.856732368469238,
				1,
				2.9120538234710693
			]
		},
		{
			"mesh":11,
			"name":"Cube.018",
			"rotation":[
				0,
				0.5125213861465454,
				0,
				0.8586744666099548
			],
			"translation":[
				-7.9143218994140625,
				1,
				4.880952835083008
			]
		},
		{
			"mesh":12,
			"name":"Cube.019",
			"rotation":[
				0,
				0.5937196612358093,
				0,
				0.8046718835830688
			],
			"translation":[
				-4.687514305114746,
				1,
				6.226367473602295
			]
		},
		{
			"mesh":13,
			"name":"Cube.020",
			"rotation":[
				0,
				0.6711101531982422,
				0,
				0.741357684135437
			],
			"translation":[
				-1.247190237045288,
				1,
				6.909794330596924
			]
		},
		{
			"mesh":14,
			"name":"Cube.022",
			"rotation":[
				0,
				0.7413023710250854,
				0,
				0.671171247959137
			],
			"translation":[
				2.2112419605255127,
				1,
				6.881775379180908
			]
		},
		{
			"mesh":15,
			"name":"Cube.023",
			"rotation":[
				0,
				0.8060746788978577,
				0,
				0.591813862323761
			],
			"translation":[
				5.634261131286621,
				1,
				6.247035503387451
			]
		},
		{
			"mesh":16,
			"name":"Cube.024",
			"rotation":[
				0,
				0.8582747578620911,
				0,
				0.513190507888794
			],
			"translation":[
				8.87064266204834,
				1,
				4.891197681427002
			]
		},
		{
			"mesh":17,
			"name":"Cube.025",
			"rotation":[
				0,
				0.9032297730445862,
				0,
				0.4291573166847229
			],
			"translation":[
				11.75838851928711,
				1,
				2.9384446144104004
			]
		},
		{
			"mesh":18,
			"name":"Cube.026",
			"rotation":[
				0,
				0.9426034688949585,
				0,
				0.33391430974006653
			],
			"translation":[
				14.239302635192871,
				1,
				0.4558837115764618
			]
		},
		{
			"mesh":19,
			"name":"Cube.027",
			"rotation":[
				0,
				0.9702314734458923,
				0,
				0.24217945337295532
			],
			"translation":[
				16.174354553222656,
				1,
				-2.4311270713806152
			]
		},
		{
			"mesh":20,
			"name":"Cube.028",
			"rotation":[
				0,
				0.9892294406890869,
				0,
				0.14637331664562225
			],
			"translation":[
				17.500858306884766,
				1,
				-5.6646504402160645
			]
		},
		{
			"mesh":21,
			"name":"Cube.029",
			"rotation":[
				0,
				0.9986697435379028,
				0,
				0.051563113927841187
			],
			"translation":[
				18.1923828125,
				1,
				-9.082392692565918
			]
		},
		{
			"mesh":22,
			"name":"Cube.030",
			"rotation":[
				0,
				-0.998676598072052,
				0,
				0.051432132720947266
			],
			"translation":[
				18.17906379699707,
				1,
				-12.58341121673584
			]
		},
		{
			"mesh":23,
			"name":"Cube.031",
			"rotation":[
				0,
				-0.9901557564735413,
				0,
				0.1399700939655304
			],
			"translation":[
				17.52537727355957,
				1,
				-15.990735054016113
			]
		},
		{
			"mesh":24,
			"name":"Cube.032",
			"rotation":[
				0,
				-0.9708430767059326,
				0,
				0.23971600830554962
			],
			"translation":[
				16.20110511779785,
				1,
				-19.184391021728516
			]
		},
		{
			"mesh":25,
			"name":"Cube.033",
			"rotation":[
				0,
				-0.9416030049324036,
				0,
				0.3367251455783844
			],
			"translation":[
				14.2349271774292,
				1,
				-22.113061904907227
			]
		},
		{
			"mesh":26,
			"name":"Cube.034",
			"rotation":[
				0,
				-0.9097861051559448,
				0,
				0.41507741808891296
			],
			"translation":[
				12.94263744354248,
				1,
				-23.630929946899414
			]
		},
		{
			"mesh":27,
			"name":"Cube.035",
			"rotation":[
				0,
				-0.42277368903160095,
				0,
				0.9062353372573853
			],
			"translation":[
				-11.74124526977539,
				1,
				-23.855152130126953
			]
		},
		{
			"mesh":28,
			"name":"Cube.226",
			"rotation":[
				0,
				0.7071068286895752,
				0,
				0.7071067094802856
			],
			"translation":[
				7.117403507232666,
				1,
				-26.485225677490234
			]
		},
		{
			"mesh":29,
			"name":"Cube.227",
			"rotation":[
				0,
				0.7071068286895752,
				0,
				0.7071067094802856
			],
			"translation":[
				-6.457726955413818,
				1,
				-26.485225677490234
			]
		},
		{
			"mesh":30,
			"name":"Cube.021",
			"rotation":[
				0,
				0.7071068286895752,
				0,
				0.7071067094802856
			],
			"translation":[
				7.414567470550537,
				1,
				-65.90736389160156
			]
		},
		{
			"mesh":31,
			"name":"Cube.043",
			"rotation":[
				0,
				0.7071068286895752,
				0,
				0.7071067094802856
			],
			"translation":[
				-6.709868907928467,
				1,
				-65.90736389160156
			]
		},
		{
			"mesh":32,
			"name":"Cube.044",
			"rotation":[
				0,
				0.0006924547487869859,
				0,
				1
			],
			"translation":[
				8.079777717590332,
				1,
				-46.1389274597168
			]
		},
		{
			"mesh":33,
			"name":"Cube.045",
			"rotation":[
				0,
				0.0006924547487869859,
				0,
				1
			],
			"translation":[
				-6.724846839904785,
				1,
				-46.23723602294922
			]
		}
	],
	"meshes":[
		{
			"name":"Cube.089",
			"primitives":[
				{
					"attributes":{
						"POSITION":0,
						"NORMAL":1,
						"TEXCOORD_0":2
					},
					"indices":3
				}
			]
		},
		{
			"name":"Cube.083",
			"primitives":[
				{
					"attributes":{
						"POSITION":4,
						"NORMAL":5,
						"TEXCOORD_0":6
					},
					"indices":3
				}
			]
		},
		{
			"name":"Cube.120",
			"primitives":[
				{
					"attributes":{
						"POSITION":7,
						"NORMAL":8,
						"TEXCOORD_0":9
					},
					"indices":3
				}
			]
		},
		{
			"name":"Cube.121",
			"primitives":[
				{
					"attributes":{
						"POSITION":10,
						"NORMAL":11,
						"TEXCOORD_0":12
					},
					"indices":3
				}
			]
		},
		{
			"name":"Cube.123",
			"primitives":[
				{
					"attributes":{
						"POSITION":13,
						"NORMAL":14,
						"TEXCOORD_0":15
					},
					"indices":3
				}
			]
		},
		{
			"name":"Cube.126",
			"primitives":[
				{
					"attributes":{
						"POSITION":16,
						"NORMAL":17,
						"TEXCOORD_0":18
					},
					"indices":3
				}
			]
		},
		{
			"name":"Cube.127",
			"primitives":[
				{
					"attributes":{
						"POSITION":19,
						"NORMAL":20,
						"TEXCOORD_0":21
					},
					"indices":3
				}
			]
		},
		{
			"name":"Cube.131",
			"primitives":[
				{
					"attributes":{
						"POSITION":22,
						"NORMAL":23,
						"TEXCOORD_0":24
					},
					"indices":3
				}
			]
		},
		{
			"name":"Cube.134",
			"primitives":[
				{
					"attributes":{
						"POSITION":25,
						"NORMAL":26,
						"TEXCOORD_0":27
					},
					"indices":3
				}
			]
		},
		{
			"name":"Cube.142",
			"primitives":[
				{
					"attributes":{
						"POSITION":28,
						"NORMAL":29,
						"TEXCOORD_0":30
					},
					"indices":3
				}
			]
		},
		{
			"name":"Cube.167",
			"primitives":[
				{
					"attributes":{
						"POSITION":31,
						"NORMAL":32,
						"TEXCOORD_0":33
					},
					"indices":3
				}
			]
		},
		{
			"name":"Cube.168",
			"primitives":[
				{
					"attributes":{
						"POSITION":34,
						"NORMAL":35,
						"TEXCOORD_0":36
					},
					"indices":3
				}
			]
		},
		{
			"name":"Cube.169",
			"primitives":[
				{
					"attributes":{
						"POSITION":37,
						"NORMAL":38,
						"TEXCOORD_0":39
					},
					"indices":3
				}
			]
		},
		{
			"name":"Cube.170",
			"primitives":[
				{
					"attributes":{
						"POSITION":40,
						"NORMAL":41,
						"TEXCOORD_0":42
					},
					"indices":3
				}
			]
		},
		{
			"name":"Cube.172",
			"primitives":[
				{
					"attributes":{
						"POSITION":43,
						"NORMAL":44,
						"TEXCOORD_0":45
					},
					"indices":3
				}
			]
		},
		{
			"name":"Cube.173",
			"primitives":[
				{
					"attributes":{
						"POSITION":46,
						"NORMAL":47,
						"TEXCOORD_0":48
					},
					"indices":3
				}
			]
		},
		{
			"name":"Cube.174",
			"primitives":[
				{
					"attributes":{
						"POSITION":49,
						"NORMAL":50,
						"TEXCOORD_0":51
					},
					"indices":3
				}
			]
		},
		{
			"name":"Cube.175",
			"primitives":[
				{
					"attributes":{
						"POSITION":52,
						"NORMAL":53,
						"TEXCOORD_0":54
					},
					"indices":3
				}
			]
		},
		{
			"name":"Cube.176",
			"primitives":[
				{
					"attributes":{
						"POSITION":55,
						"NORMAL":56,
						"TEXCOORD_0":57
					},
					"indices":3
				}
			]
		},
		{
			"name":"Cube.177",
			"primitives":[
				{
					"attributes":{
						"POSITION":58,
						"NORMAL":59,
						"TEXCOORD_0":60
					},
					"indices":3
				}
			]
		},
		{
			"name":"Cube.178",
			"primitives":[
				{
					"attributes":{
						"POSITION":61,
						"NORMAL":62,
						"TEXCOORD_0":63
					},
					"indices":3
				}
			]
		},
		{
			"name":"Cube.179",
			"primitives":[
				{
					"attributes":{
						"POSITION":64,
						"NORMAL":65,
						"TEXCOORD_0":66
					},
					"indices":3
				}
			]
		},
		{
			"name":"Cube.180",
			"primitives":[
				{
					"attributes":{
						"POSITION":67,
						"NORMAL":68,
						"TEXCOORD_0":69
					},
					"indices":3
				}
			]
		},
		{
			"name":"Cube.181",
			"primitives":[
				{
					"attributes":{
						"POSITION":70,
						"NORMAL":71,
						"TEXCOORD_0":72
					},
					"indices":3
				}
			]
		},
		{
			"name":"Cube.182",
			"primitives":[
				{
					"attributes":{
						"POSITION":73,
						"NORMAL":74,
						"TEXCOORD_0":75
					},
					"indices":3
				}
			]
		},
		{
			"name":"Cube.183",
			"primitives":[
				{
					"attributes":{
						"POSITION":76,
						"NORMAL":77,
						"TEXCOORD_0":78
					},
					"indices":3
				}
			]
		},
		{
			"name":"Cube.184",
			"primitives":[
				{
					"attributes":{
						"POSITION":79,
						"NORMAL":80,
						"TEXCOORD_0":81
					},
					"indices":3
				}
			]
		},
		{
			"name":"Cube.185",
			"primitives":[
				{
					"attributes":{
						"POSITION":82,
						"NORMAL":83,
						"TEXCOORD_0":84
					},
					"indices":3
				}
			]
		},
		{
			"name":"Cube.350",
			"primitives":[
				{
					"attributes":{
						"POSITION":85,
						"NORMAL":86,
						"TEXCOORD_0":87
					},
					"indices":3
				}
			]
		},
		{
			"name":"Cube.351",
			"primitives":[
				{
					"attributes":{
						"POSITION":88,
						"NORMAL":89,
						"TEXCOORD_0":90
					},
					"indices":3
				}
			]
		},
		{
			"name":"Cube.140",
			"primitives":[
				{
					"attributes":{
						"POSITION":91,
						"NORMAL":92,
						"TEXCOORD_0":93
					},
					"indices":3
				}
			]
		},
		{
			"name":"Cube.349",
			"primitives":[
				{
					"attributes":{
						"POSITION":94,
						"NORMAL":95,
						"TEXCOORD_0":96
					},
					"indices":3
				}
			]
		},
		{
			"name":"Cube.141",
			"primitives":[
				{
					"attributes":{
						"POSITION":97,
						"NORMAL":98,
						"TEXCOORD_0":99
					},
					"indices":3
				}
			]
		},
		{
			"name":"Cube.190",
			"primitives":[
				{
					"attributes":{
						"POSITION":100,
						"NORMAL":101,
						"TEXCOORD_0":102
					},
					"indices":3
				}
			]
		}
	],
	"accessors":[
		{
			"bufferView":0,
			"componentType":5126,
			"count":24,
			"max":[
				1.100000023841858,
				1,
				1.100000023841858
			],
			"min":[
				-1.100000023841858,
				-1,
				-1.100000023841858
			],
			"type":"VEC3"
		},
		{
			"bufferView":1,
			"componentType":5126,
			"count":24,
			"type":"VEC3"
		},
		{
			"bufferView":2,
			"componentType":5126,
			"count":24,
			"type":"VEC2"
		},
		{
			"bufferView":3,
			"componentType":5123,
			"count":36,
			"type":"SCALAR"
		},
		{
			"bufferView":4,
			"componentType":5126,
			"count":24,
			"max":[
				1.100000023841858,
				1,
				1.100000023841858
			],
			"min":[
				-1.100000023841858,
				-1,
				-1.100000023841858
			],
			"type":"VEC3"
		},
		{
			"bufferView":5,
			"componentType":5126,
			"count":24,
			"type":"VEC3"
		},
		{
			"bufferView":6,
			"componentType":5126,
			"count":24,
			"type":"VEC2"
		},
		{
			"bufferView":7,
			"componentType":5126,
			"count":24,
			"max":[
				0.20000004768371582,
				1,
				1.6299999952316284
			],
			"min":[
				-0.20000004768371582,
				-1,
				-1.6299999952316284
			],
			"type":"VEC3"
		},
		{
			"bufferView":8,
			"componentType":5126,
			"count":24,
			"type":"VEC3"
		},
		{
			"bufferView":9,
			"componentType":5126,
			"count":24,
			"type":"VEC2"
		},
		{
			"bufferView":10,
			"componentType":5126,
			"count":24,
			"max":[
				0.20000004768371582,
				1,
				1.6299999952316284
			],
			"min":[
				-0.20000004768371582,
				-1,
				-1.6299999952316284
			],
			"type":"VEC3"
		},
		{
			"bufferView":11,
			"componentType":5126,
			"count":24,
			"type":"VEC3"
		},
		{
			"bufferView":12,
			"componentType":5126,
			"count":24,
			"type":"VEC2"
		},
		{
			"bufferView":13,
			"componentType":5126,
			"count":24,
			"max":[
				0.20000004768371582,
				1,
				1.6299999952316284
			],
			"min":[
				-0.20000004768371582,
				-1,
				-1.6299999952316284
			],
			"type":"VEC3"
		},
		{
			"bufferView":14,
			"componentType":5126,
			"count":24,
			"type":"VEC3"
		},
		{
			"bufferView":15,
			"componentType":5126,
			"count":24,
			"type":"VEC2"
		},
		{
			"bufferView":16,
			"componentType":5126,
			"count":24,
			"max":[
				0.20000004768371582,
				1,
				1.6299999952316284
			],
			"min":[
				-0.20000004768371582,
				-1,
				-1.6299999952316284
			],
			"type":"VEC3"
		},
		{
			"bufferView":17,
			"componentType":5126,
			"count":24,
			"type":"VEC3"
		},
		{
			"bufferView":18,
			"componentType":5126,
			"count":24,
			"type":"VEC2"
		},
		{
			"bufferView":19,
			"componentType":5126,
			"count":24,
			"max":[
				0.20000004768371582,
				1,
				1.6299999952316284
			],
			"min":[
				-0.20000004768371582,
				-1,
				-1.6299999952316284
			],
			"type":"VEC3"
		},
		{
			"bufferView":20,
			"componentType":5126,
			"count":24,
			"type":"VEC3"
		},
		{
			"bufferView":21,
			"componentType":5126,
			"count":24,
			"type":"VEC2"
		},
		{
			"bufferView":22,
			"componentType":5126,
			"count":24,
			"max":[
				0.20000004768371582,
				1,
				1.6299999952316284
			],
			"min":[
				-0.20000004768371582,
				-1,
				-1.6299999952316284
			],
			"type":"VEC3"
		},
		{
			"bufferView":23,
			"componentType":5126,
			"count":24,
			"type":"VEC3"
		},
		{
			"bufferView":24,
			"componentType":5126,
			"count":24,
			"type":"VEC2"
		},
		{
			"bufferView":25,
			"componentType":5126,
			"count":24,
			"max":[
				0.20000004768371582,
				1,
				1.6299999952316284
			],
			"min":[
				-0.20000004768371582,
				-1,
				-1.6299999952316284
			],
			"type":"VEC3"
		},
		{
			"bufferView":26,
			"componentType":5126,
			"count":24,
			"type":"VEC3"
		},
		{
			"bufferView":27,
			"componentType":5126,
			"count":24,
			"type":"VEC2"
		},
		{
			"bufferView":28,
			"componentType":5126,
			"count":24,
			"max":[
				0.20000004768371582,
				1,
				1.6299999952316284
			],
			"min":[
				-0.20000004768371582,
				-1,
				-1.6299999952316284
			],
			"type":"VEC3"
		},
		{
			"bufferView":29,
			"componentType":5126,
			"count":24,
			"type":"VEC3"
		},
		{
			"bufferView":30,
			"componentType":5126,
			"count":24,
			"type":"VEC2"
		},
		{
			"bufferView":31,
			"componentType":5126,
			"count":24,
			"max":[
				0.20000004768371582,
				1,
				1.6299999952316284
			],
			"min":[
				-0.20000004768371582,
				-1,
				-1.6299999952316284
			],
			"type":"VEC3"
		},
		{
			"bufferView":32,
			"componentType":5126,
			"count":24,
			"type":"VEC3"
		},
		{
			"bufferView":33,
			"componentType":5126,
			"count":24,
			"type":"VEC2"
		},
		{
			"bufferView":34,
			"componentType":5126,
			"count":24,
			"max":[
				0.20000004768371582,
				1,
				1.6299999952316284
			],
			"min":[
				-0.20000004768371582,
				-1,
				-1.6299999952316284
			],
			"type":"VEC3"
		},
		{
			"bufferView":35,
			"componentType":5126,
			"count":24,
			"type":"VEC3"
		},
		{
			"bufferView":36,
			"componentType":5126,
			"count":24,
			"type":"VEC2"
		},
		{
			"bufferView":37,
			"componentType":5126,
			"count":24,
			"max":[
				0.20000004768371582,
				1,
				1.6299999952316284
			],
			"min":[
				-0.20000004768371582,
				-1,
				-1.6299999952316284
			],
			"type":"VEC3"
		},
		{
			"bufferView":38,
			"componentType":5126,
			"count":24,
			"type":"VEC3"
		},
		{
			"bufferView":39,
			"componentType":5126,
			"count":24,
			"type":"VEC2"
		},
		{
			"bufferView":40,
			"componentType":5126,
			"count":24,
			"max":[
				0.20000004768371582,
				1,
				1.6299999952316284
			],
			"min":[
				-0.20000004768371582,
				-1,
				-1.6299999952316284
			],
			"type":"VEC3"
		},
		{
			"bufferView":41,
			"componentType":5126,
			"count":24,
			"type":"VEC3"
		},
		{
			"bufferView":42,
			"componentType":5126,
			"count":24,
			"type":"VEC2"
		},
		{
			"bufferView":43,
			"componentType":5126,
			"count":24,
			"max":[
				0.20000004768371582,
				1,
				1.6299999952316284
			],
			"min":[
				-0.20000004768371582,
				-1,
				-1.6299999952316284
			],
			"type":"VEC3"
		},
		{
			"bufferView":44,
			"componentType":5126,
			"count":24,
			"type":"VEC3"
		},
		{
			"bufferView":45,
			"componentType":5126,
			"count":24,
			"type":"VEC2"
		},
		{
			"bufferView":46,
			"componentType":5126,
			"count":24,
			"max":[
				0.20000004768371582,
				1,
				1.6299999952316284
			],
			"min":[
				-0.20000004768371582,
				-1,
				-1.6299999952316284
			],
			"type":"VEC3"
		},
		{
			"bufferView":47,
			"componentType":5126,
			"count":24,
			"type":"VEC3"
		},
		{
			"bufferView":48,
			"componentType":5126,
			"count":24,
			"type":"VEC2"
		},
		{
			"bufferView":49,
			"componentType":5126,
			"count":24,
			"max":[
				0.20000004768371582,
				1,
				1.6299999952316284
			],
			"min":[
				-0.20000004768371582,
				-1,
				-1.6299999952316284
			],
			"type":"VEC3"
		},
		{
			"bufferView":50,
			"componentType":5126,
			"count":24,
			"type":"VEC3"
		},
		{
			"bufferView":51,
			"componentType":5126,
			"count":24,
			"type":"VEC2"
		},
		{
			"bufferView":52,
			"componentType":5126,
			"count":24,
			"max":[
				0.20000004768371582,
				1,
				1.6299999952316284
			],
			"min":[
				-0.20000004768371582,
				-1,
				-1.6299999952316284
			],
			"type":"VEC3"
		},
		{
			"bufferView":53,
			"componentType":5126,
			"count":24,
			"type":"VEC3"
		},
		{
			"bufferView":54,
			"componentType":5126,
			"count":24,
			"type":"VEC2"
		},
		{
			"bufferView":55,
			"componentType":5126,
			"count":24,
			"max":[
				0.20000004768371582,
				1,
				1.6299999952316284
			],
			"min":[
				-0.20000004768371582,
				-1,
				-1.6299999952316284
			],
			"type":"VEC3"
		},
		{
			"bufferView":56,
			"componentType":5126,
			"count":24,
			"type":"VEC3"
		},
		{
			"bufferView":57,
			"componentType":5126,
			"count":24,
			"type":"VEC2"
		},
		{
			"bufferView":58,
			"componentType":5126,
			"count":24,
			"max":[
				0.20000004768371582,
				1,
				1.6299999952316284
			],
			"min":[
				-0.20000004768371582,
				-1,
				-1.6299999952316284
			],
			"type":"VEC3"
		},
		{
			"bufferView":59,
			"componentType":5126,
			"count":24,
			"type":"VEC3"
		},
		{
			"bufferView":60,
			"componentType":5126,
			"count":24,
			"type":"VEC2"
		},
		{
			"bufferView":61,
			"componentType":5126,
			"count":24,
			"max":[
				0.20000004768371582,
				1,
				1.6299999952316284
			],
			"min":[
				-0.20000004768371582,
				-1,
				-1.6299999952316284
			],
			"type":"VEC3"
		},
		{
			"bufferView":62,
			"componentType":5126,
			"count":24,
			"type":"VEC3"
		},
		{
			"bufferView":63,
			"componentType":5126,
			"count":24,
			"type":"VEC2"
		},
		{
			"bufferView":64,
			"componentType":5126,
			"count":24,
			"max":[
				0.20000004768371582,
				1,
				1.6299999952316284
			],
			"min":[
				-0.20000004768371582,
				-1,
				-1.6299999952316284
			],
			"type":"VEC3"
		},
		{
			"bufferView":65,
			"componentType":5126,
			"count":24,
			"type":"VEC3"
		},
		{
			"bufferView":66,
			"componentType":5126,
			"count":24,
			"type":"VEC2"
		},
		{
			"bufferView":67,
			"componentType":5126,
			"count":24,
			"max":[
				0.20000004768371582,
				1,
				1.6299999952316284
			],
			"min":[
				-0.20000004768371582,
				-1,
				-1.6299999952316284
			],
			"type":"VEC3"
		},
		{
			"bufferView":68,
			"componentType":5126,
			"count":24,
			"type":"VEC3"
		},
		{
			"bufferView":69,
			"componentType":5126,
			"count":24,
			"type":"VEC2"
		},
		{
			"bufferView":70,
			"componentType":5126,
			"count":24,
			"max":[
				0.20000004768371582,
				1,
				1.6299999952316284
			],
			"min":[
				-0.20000004768371582,
				-1,
				-1.6299999952316284
			],
			"type":"VEC3"
		},
		{
			"bufferView":71,
			"componentType":5126,
			"count":24,
			"type":"VEC3"
		},
		{
			"bufferView":72,
			"componentType":5126,
			"count":24,
			"type":"VEC2"
		},
		{
			"bufferView":73,
			"componentType":5126,
			"count":24,
			"max":[
				0.20000004768371582,
				1,
				1.6299999952316284
			],
			"min":[
				-0.20000004768371582,
				-1,
				-1.6299999952316284
			],
			"type":"VEC3"
		},
		{
			"bufferView":74,
			"componentType":5126,
			"count":24,
			"type":"VEC3"
		},
		{
			"bufferView":75,
			"componentType":5126,
			"count":24,
			"type":"VEC2"
		},
		{
			"bufferView":76,
			"componentType":5126,
			"count":24,
			"max":[
				0.20000004768371582,
				1,
				1.6299999952316284
			],
			"min":[
				-0.20000004768371582,
				-1,
				-1.6299999952316284
			],
			"type":"VEC3"
		},
		{
			"bufferView":77,
			"componentType":5126,
			"count":24,
			"type":"VEC3"
		},
		{
			"bufferView":78,
			"componentType":5126,
			"count":24,
			"type":"VEC2"
		},
		{
			"bufferView":79,
			"componentType":5126,
			"count":24,
			"max":[
				0.20000004768371582,
				1,
				0.25
			],
			"min":[
				-0.20000004768371582,
				-1,
				-0.25
			],
			"type":"VEC3"
		},
		{
			"bufferView":80,
			"componentType":5126,
			"count":24,
			"type":"VEC3"
		},
		{
			"bufferView":81,
			"componentType":5126,
			"count":24,
			"type":"VEC2"
		},
		{
			"bufferView":82,
			"componentType":5126,
			"count":24,
			"max":[
				0.20000004768371582,
				1,
				0.5899999737739563
			],
			"min":[
				-0.20000004768371582,
				-1,
				-0.5899999737739563
			],
			"type":"VEC3"
		},
		{
			"bufferView":83,
			"componentType":5126,
			"count":24,
			"type":"VEC3"
		},
		{
			"bufferView":84,
			"componentType":5126,
			"count":24,
			"type":"VEC2"
		},
		{
			"bufferView":85,
			"componentType":5126,
			"count":24,
			"max":[
				0.14999991655349731,
				1,
				3.9100000858306885
			],
			"min":[
				-0.14999991655349731,
				-1,
				-3.9100000858306885
			],
			"type":"VEC3"
		},
		{
			"bufferView":86,
			"componentType":5126,
			"count":24,
			"type":"VEC3"
		},
		{
			"bufferView":87,
			"componentType":5126,
			"count":24,
			"type":"VEC2"
		},
		{
			"bufferView":88,
			"componentType":5126,
			"count":24,
			"max":[
				0.14999991655349731,
				1,
				3.8500001430511475
			],
			"min":[
				-0.14999991655349731,
				-1,
				-3.8500001430511475
			],
			"type":"VEC3"
		},
		{
			"bufferView":89,
			"componentType":5126,
			"count":24,
			"type":"VEC3"
		},
		{
			"bufferView":90,
			"componentType":5126,
			"count":24,
			"type":"VEC2"
		},
		{
			"bufferView":91,
			"componentType":5126,
			"count":24,
			"max":[
				0.14999991655349731,
				1,
				4.140003204345703
			],
			"min":[
				-0.14999991655349731,
				-1,
				-4.140003204345703
			],
			"type":"VEC3"
		},
		{
			"bufferView":92,
			"componentType":5126,
			"count":24,
			"type":"VEC3"
		},
		{
			"bufferView":93,
			"componentType":5126,
			"count":24,
			"type":"VEC2"
		},
		{
			"bufferView":94,
			"componentType":5126,
			"count":24,
			"max":[
				0.14999991655349731,
				1,
				3.954646110534668
			],
			"min":[
				-0.14999991655349731,
				-1,
				-3.954646110534668
			],
			"type":"VEC3"
		},
		{
			"bufferView":95,
			"componentType":5126,
			"count":24,
			"type":"VEC3"
		},
		{
			"bufferView":96,
			"componentType":5126,
			"count":24,
			"type":"VEC2"
		},
		{
			"bufferView":97,
			"componentType":5126,
			"count":24,
			"max":[
				1.7015454769134521,
				1,
				19.264450073242188
			],
			"min":[
				-1.7015454769134521,
				-1,
				-19.264450073242188
			],
			"type":"VEC3"
		},
		{
			"bufferView":98,
			"componentType":5126,
			"count":24,
			"type":"VEC3"
		},
		{
			"bufferView":99,
			"componentType":5126,
			"count":24,
			"type":"VEC2"
		},
		{
			"bufferView":100,
			"componentType":5126,
			"count":24,
			"max":[
				1.7015455961227417,
				1,
				19.250749588012695
			],
			"min":[
				-1.7015455961227417,
				-1,
				-19.250749588012695
			],
			"type":"VEC3"
		},
		{
			"bufferView":101,
			"componentType":5126,
			"count":24,
			"type":"VEC3"
		},
		{
			"bufferView":102,
			"componentType":5126,
			"count":24,
			"type":"VEC2"
		}
	],
	"bufferViews":[
		{
			"buffer":0,
			"byteLength":288,
			"byteOffset":0,
			"target":34962
		},
		{
			"buffer":0,
			"byteLength":288,
			"byteOffset":288,
			"target":34962
		},
		{
			"buffer":0,
			"byteLength":192,
			"byteOffset":576,
			"target":34962
		},
		{
			"buffer":0,
			"byteLength":72,
			"byteOffset":768,
			"target":34963
		},
		{
			"buffer":0,
			"byteLength":288,
			"byteOffset":840,
			"target":34962
		},
		{
			"buffer":0,
			"byteLength":288,
			"byteOffset":1128,
			"target":34962
		},
		{
			"buffer":0,
			"byteLength":192,
			"byteOffset":1416,
			"target":34962
		},
		{
			"buffer":0,
			"byteLength":288,
			"byteOffset":1608,
			"target":34962
		},
		{
			"buffer":0,
			"byteLength":288,
			"byteOffset":1896,
			"target":34962
		},
		{
			"buffer":0,
			"byteLength":192,
			"byteOffset":2184,
			"target":34962
		},
		{
			"buffer":0,
			"byteLength":288,
			"byteOffset":2376,
			"target":34962
		},
		{
			"buffer":0,
			"byteLength":288,
			"byteOffset":2664,
			"target":34962
		},
		{
			"buffer":0,
			"byteLength":192,
			"byteOffset":2952,
			"target":34962
		},
		{
			"buffer":0,
			"byteLength":288,
			"byteOffset":3144,
			"target":34962
		},
		{
			"buffer":0,
			"byteLength":288,
			"byteOffset":3432,
			"target":34962
		},
		{
			"buffer":0,
			"byteLength":192,
			"byteOffset":3720,
			"target":34962
		},
		{
			"buffer":0,
			"byteLength":288,
			"byteOffset":3912,
			"target":34962
		},
		{
			"buffer":0,
			"byteLength":288,
			"byteOffset":4200,
			"target":34962
		},
		{
			"buffer":0,
			"byteLength":192,
			"byteOffset":4488,
			"target":34962
		},
		{
			"buffer":0,
			"byteLength":288,
			"byteOffset":4680,
			"target":34962
		},
		{
			"buffer":0,
			"byteLength":288,
			"byteOffset":4968,
			"target":34962
		},
		{
			"buffer":0,
			"byteLength":192,
			"byteOffset":5256,
			"target":34962
		},
		{
			"buffer":0,
			"byteLength":288,
			"byteOffset":5448,
			"target":34962
		},
		{
			"buffer":0,
			"byteLength":288,
			"byteOffset":5736,
			"target":34962
		},
		{
			"buffer":0,
			"byteLength":192,
			"byteOffset":6024,
			"target":34962
		},
		{
			"buffer":0,
			"byteLength":288,
			"byteOffset":6216,
			"target":34962
		},
		{
			"buffer":0,
			"byteLength":288,
			"byteOffset":6504,
			"target":34962
		},
		{
			"buffer":0,
			"byteLength":192,
			"byteOffset":6792,
			"target":34962
		},
		{
			"buffer":0,
			"byteLength":288,
			"byteOffset":6984,
			"target":34962
		},
		{
			"buffer":0,
			"byteLength":288,
			"byteOffset":7272,
			"target":34962
		},
		{
			"buffer":0,
			"byteLength":192,
			"byteOffset":7560,
			"target":34962
		},
		{
			"buffer":0,
			"byteLength":288,
			"byteOffset":7752,
			"target":34962
		},
		{
			"buffer":0,
			"byteLength":288,
			"byteOffset":8040,
			"target":34962
		},
		{
			"buffer":0,
			"byteLength":192,
			"byteOffset":8328,
			"target":34962
		},
		{
			"buffer":0,
			"byteLength":288,
			"byteOffset":8520,
			"target":34962
		},
		{
			"buffer":0,
			"byteLength":288,
			"byteOffset":8808,
			"target":34962
		},
		{
			"buffer":0,
			"byteLength":192,
			"byteOffset":9096,
			"target":34962
		},
		{
			"buffer":0,
			"byteLength":288,
			"byteOffset":9288,
			"target":34962
		},
		{
			"buffer":0,
			"byteLength":288,
			"byteOffset":9576,
			"target":34962
		},
		{
			"buffer":0,
			"byteLength":192,
			"byteOffset":9864,
			"target":34962
		},
		{
			"buffer":0,
			"byteLength":288,
			"byteOffset":10056,
			"target":34962
		},
		{
			"buffer":0,
			"byteLength":288,
			"byteOffset":10344,
			"target":34962
		},
		{
			"buffer":0,
			"byteLength":192,
			"byteOffset":10632,
			"target":34962
		},
		{
			"buffer":0,
			"byteLength":288,
			"byteOffset":10824,
			"target":34962
		},
		{
			"buffer":0,
			"byteLength":288,
			"byteOffset":11112,
			"target":34962
		},
		{
			"buffer":0,
			"byteLength":192,
			"byteOffset":11400,
			"target":34962
		},
		{
			"buffer":0,
			"byteLength":288,
			"byteOffset":11592,
			"target":34962
		},
		{
			"buffer":0,
			"byteLength":288,
			"byteOffset":11880,
			"target":34962
		},
		{
			"buffer":0,
			"byteLength":192,
			"byteOffset":12168,
			"target":34962
		},
		{
			"buffer":0,
			"byteLength":288,
			"byteOffset":12360,
			"target":34962
		},
		{
			"buffer":0,
			"byteLength":288,
			"byteOffset":12648,
			"target":34962
		},
		{
			"buffer":0,
			"byteLength":192,
			"byteOffset":12936,
			"target":34962
		},
		{
			"buffer":0,
			"byteLength":288,
			"byteOffset":13128,
			"target":34962
		},
		{
			"buffer":0,
			"byteLength":288,
			"byteOffset":13416,
			"target":34962
		},
		{
			"buffer":0,
			"byteLength":192,
			"byteOffset":13704,
			"target":34962
		},
		{
			"buffer":0,
			"byteLength":288,
			"byteOffset":13896,
			"target":34962
		},
		{
			"buffer":0,
			"byteLength":288,
			"byteOffset":14184,
			"target":34962
		},
		{
			"buffer":0,
			"byteLength":192,
			"byteOffset":14472,
			"target":34962
		},
		{
			"buffer":0,
			"byteLength":288,
			"byteOffset":14664,
			"target":34962
		},
		{
			"buffer":0,
			"byteLength":288,
			"byteOffset":14952,
			"target":34962
		},
		{
			"buffer":0,
			"byteLength":192,
			"byteOffset":15240,
			"target":34962
		},
		{
			"buffer":0,
			"byteLength":288,
			"byteOffset":15432,
			"target":34962
		},
		{
			"buffer":0,
			"byteLength":288,
			"byteOffset":15720,
			"target":34962
		},
		{
			"buffer":0,
			"byteLength":192,
			"byteOffset":16008,
			"target":34962
		},
		{
			"buffer":0,
			"byteLength":288,
			"byteOffset":16200,
			"target":34962
		},
		{
			"buffer":0,
			"byteLength":288,
			"byteOffset":16488,
			"target":34962
		},
		{
			"buffer":0,
			"byteLength":192,
			"byteOffset":16776,
			"target":34962
		},
		{
			"buffer":0,
			"byteLength":288,
			"byteOffset":16968,
			"target":34962
		},
		{
			"buffer":0,
			"byteLength":288,
			"byteOffset":17256,
			"target":34962
		},
		{
			"buffer":0,
			"byteLength":192,
			"byteOffset":17544,
			"target":34962
		},
		{
			"buffer":0,
			"byteLength":288,
			"byteOffset":17736,
			"target":34962
		},
		{
			"buffer":0,
			"byteLength":288,
			"byteOffset":18024,
			"target":34962
		},
		{
			"buffer":0,
			"byteLength":192,
			"byteOffset":18312,
			"target":34962
		},
		{
			"buffer":0,
			"byteLength":288,
			"byteOffset":18504,
			"target":34962
		},
		{
			"buffer":0,
			"byteLength":288,
			"byteOffset":18792,
			"target":34962
		},
		{
			"buffer":0,
			"byteLength":192,
			"byteOffset":19080,
			"target":34962
		},
		{
			"buffer":0,
			"byteLength":288,
			"byteOffset":19272,
			"target":34962
		},
		{
			"buffer":0,
			"byteLength":288,
			"byteOffset":19560,
			"target":34962
		},
		{
			"buffer":0,
			"byteLength":192,
			"byteOffset":19848,
			"target":34962
		},
		{
			"buffer":0,
			"byteLength":288,
			"byteOffset":20040,
			"target":34962
		},
		{
			"buffer":0,
			"byteLength":288,
			"byteOffset":20328,
			"target":34962
		},
		{
			"buffer":0,
			"byteLength":192,
			"byteOffset":20616,
			"target":34962
		},
		{
			"buffer":0,
			"byteLength":288,
			"byteOffset":20808,
			"target":34962
		},
		{
			"buffer":0,
			"byteLength":288,
			"byteOffset":21096,
			"target":34962
		},
		{
			"buffer":0,
			"byteLength":192,
			"byteOffset":21384,
			"target":34962
		},
		{
			"buffer":0,
			"byteLength":288,
			"byteOffset":21576,
			"target":34962
		},
		{
			"buffer":0,
			"byteLength":288,
			"byteOffset":21864,
			"target":34962
		},
		{
			"buffer":0,
			"byteLength":192,
			"byteOffset":22152,
			"target":34962
		},
		{
			"buffer":0,
			"byteLength":288,
			"byteOffset":22344,
			"target":34962
		},
		{
			"buffer":0,
			"byteLength":288,
			"byteOffset":22632,
			"target":34962
		},
		{
			"buffer":0,
			"byteLength":192,
			"byteOffset":22920,
			"target":34962
		},
		{
			"buffer":0,
			"byteLength":288,
			"byteOffset":23112,
			"target":34962
		},
		{
			"buffer":0,
			"byteLength":288,
			"byteOffset":23400,
			"target":34962
		},
		{
			"buffer":0,
			"byteLength":192,
			"byteOffset":23688,
			"target":34962
		},
		{
			"buffer":0,
			"byteLength":288,
			"byteOffset":23880,
			"target":34962
		},
		{
			"buffer":0,
			"byteLength":288,
			"byteOffset":24168,
			"target":34962
		},
		{
			"buffer":0,
			"byteLength":192,
			"byteOffset":24456,
			"target":34962
		},
		{
			"buffer":0,
			"byteLength":288,
			"byteOffset":24648,
			"target":34962
		},
		{
			"buffer":0,
			"byteLength":288,
			"byteOffset":24936,
			"target":34962
		},
		{
			"buffer":0,
			"byteLength":192,
			"byteOffset":25224,
			"target":34962
		},
		{
			"buffer":0,
			"byteLength":288,
			"byteOffset":25416,
			"target":34962
		},
		{
			"buffer":0,
			"byteLength":288,
			"byteOffset":25704,
			"target":34962
		},
		{
			"buffer":0,
			"byteLength":192,
			"byteOffset":25992,
			"target":34962
		}
	],
	"buffers":[
		{
			"byteLength":26184,
			"uri":"CollidersLvl3.1_FinaFinalGold.bin"
		}
	]
}
