{
	"asset":{
		"generator":"Khronos glTF Blender I/O v4.4.55",
		"version":"2.0"
	},
	"scene":0,
	"scenes":[
		{
			"name":"Scene",
			"nodes":[
				0,
				1,
				2,
				3,
				4,
				5,
				6,
				7,
				8,
				9,
				10,
				11,
				12,
				13,
				14
			]
		}
	],
	"nodes":[
		{
			"mesh":0,
			"name":"Muebles1",
			"rotation":[
				0,
				-0.8510363698005676,
				0,
				0.5251067280769348
			],
			"scale":[
				0.7990050315856934,
				0.7990050911903381,
				0.7990050315856934
			],
			"translation":[
				16.165531158447266,
				0.7972740530967712,
				-3.2920963764190674
			]
		},
		{
			"mesh":1,
			"name":"doorL",
			"scale":[
				1.9324678182601929,
				1.9324678182601929,
				1.932474136352539
			],
			"translation":[
				-2.6346254348754883,
				0,
				-65.94102478027344
			]
		},
		{
			"mesh":2,
			"name":"doorR",
			"translation":[
				3.158860683441162,
				0,
				-65.94102478027344
			]
		},
		{
			"mesh":3,
			"name":"ReplaceCOLUMNAS",
			"rotation":[
				0,
				0.9322925209999084,
				0,
				0.3617052733898163
			],
			"scale":[
				0.7990051507949829,
				0.7990050911903381,
				0.7990051507949829
			],
			"translation":[
				-8.607463836669922,
				0,
				-72.0047378540039
			]
		},
		{
			"mesh":4,
			"name":"Columna2",
			"scale":[
				0.7990050911903381,
				0.7990050911903381,
				0.7990050911903381
			],
			"translation":[
				-10.1221284866333,
				0,
				-24.71240234375
			]
		},
		{
			"mesh":5,
			"name":"Columna1",
			"translation":[
				0,
				-0.31059831380844116,
				0
			]
		},
		{
			"mesh":6,
			"name":"Bancos1",
			"rotation":[
				0,
				-0.9889371991157532,
				0,
				0.1483347862958908
			],
			"scale":[
				0.7990050911903381,
				0.7990050911903381,
				0.7990050911903381
			],
			"translation":[
				7.149491786956787,
				0,
				-35.023155212402344
			]
		},
		{
			"mesh":7,
			"name":"Bancos2",
			"rotation":[
				0,
				1,
				0,
				7.450580596923828e-08
			],
			"scale":[
				0.7990050911903381,
				0.7990050911903381,
				0.7990050911903381
			],
			"translation":[
				8.94643783569336,
				0,
				-44.04313659667969
			]
		},
		{
			"mesh":8,
			"name":"Bancos3",
			"rotation":[
				0,
				1,
				0,
				7.450580596923828e-08
			],
			"scale":[
				0.7990050911903381,
				0.7990050911903381,
				0.7990050911903381
			],
			"translation":[
				-7.843923568725586,
				0,
				-47.322174072265625
			]
		},
		{
			"mesh":9,
			"name":"VallasInicio",
			"rotation":[
				0,
				1,
				0,
				1.6292069915380125e-07
			],
			"scale":[
				2.2361745834350586,
				2.2361745834350586,
				2.2361745834350586
			],
			"translation":[
				-9.683500289916992,
				0,
				-26.496986389160156
			]
		},
		{
			"mesh":10,
			"name":"Chunk",
			"rotation":[
				0,
				1,
				0,
				7.450580596923828e-08
			],
			"scale":[
				0.7990050911903381,
				0.7990050911903381,
				0.7990050911903381
			],
			"translation":[
				-7.843923568725586,
				0,
				-47.322174072265625
			]
		},
		{
			"mesh":11,
			"name":"Roto3",
			"rotation":[
				0,
				-0.03156289830803871,
				0,
				0.9995017647743225
			],
			"translation":[
				-8.318741798400879,
				0.275787353515625,
				-46.0686149597168
			]
		},
		{
			"mesh":12,
			"name":"Roto2",
			"rotation":[
				-0.09100320190191269,
				-0.5022131204605103,
				-0.12272173166275024,
				0.8511403203010559
			],
			"translation":[
				-7.430487155914307,
				0.46202677488327026,
				-32.4393196105957
			]
		},
		{
			"mesh":13,
			"name":"Roto5",
			"rotation":[
				0,
				0.9999837279319763,
				0,
				0.005720628425478935
			],
			"scale":[
				0.7596738934516907,
				0.6810128092765808,
				0.9994550943374634
			],
			"translation":[
				9.117292404174805,
				0.275787353515625,
				-44.23076248168945
			]
		},
		{
			"mesh":14,
			"name":"Roto1",
			"rotation":[
				0,
				0.2773530185222626,
				0,
				0.9607681035995483
			],
			"translation":[
				-11.878374099731445,
				0.275787353515625,
				-1.832322120666504
			]
		}
	],
	"materials":[
		{
			"doubleSided":true,
			"name":"Muebles_MAT",
			"normalTexture":{
				"index":0
			},
			"pbrMetallicRoughness":{
				"baseColorTexture":{
					"index":1
				},
				"metallicRoughnessTexture":{
					"index":2
				}
			}
		},
		{
			"doubleSided":true,
			"name":"vallas.001",
			"normalTexture":{
				"index":3
			},
			"pbrMetallicRoughness":{
				"baseColorTexture":{
					"index":4
				},
				"metallicRoughnessTexture":{
					"index":5
				}
			}
		},
		{
			"doubleSided":true,
			"name":"Columna_MAT",
			"normalTexture":{
				"index":6
			},
			"pbrMetallicRoughness":{
				"baseColorTexture":{
					"index":7
				},
				"metallicRoughnessTexture":{
					"index":8
				}
			}
		},
		{
			"doubleSided":true,
			"name":"Columna_MAT.001",
			"normalTexture":{
				"index":9
			},
			"pbrMetallicRoughness":{
				"baseColorTexture":{
					"index":10
				},
				"metallicRoughnessTexture":{
					"index":11
				}
			}
		},
		{
			"doubleSided":true,
			"name":"Columna_MAT.002",
			"normalTexture":{
				"index":12
			},
			"pbrMetallicRoughness":{
				"baseColorTexture":{
					"index":13
				},
				"metallicRoughnessTexture":{
					"index":14
				}
			}
		},
		{
			"doubleSided":true,
			"name":"Banco.001",
			"normalTexture":{
				"index":15
			},
			"pbrMetallicRoughness":{
				"baseColorTexture":{
					"index":16
				},
				"metallicRoughnessTexture":{
					"index":17
				}
			}
		},
		{
			"doubleSided":true,
			"name":"Banco",
			"normalTexture":{
				"index":18
			},
			"pbrMetallicRoughness":{
				"baseColorTexture":{
					"index":19
				},
				"metallicRoughnessTexture":{
					"index":20
				}
			}
		},
		{
			"doubleSided":true,
			"name":"vallas.002",
			"normalTexture":{
				"index":21
			},
			"pbrMetallicRoughness":{
				"baseColorTexture":{
					"index":22
				},
				"metallicRoughnessTexture":{
					"index":23
				}
			}
		},
		{
			"doubleSided":true,
			"name":"Suelo_MAT",
			"normalTexture":{
				"index":24
			},
			"pbrMetallicRoughness":{
				"baseColorTexture":{
					"index":25
				},
				"metallicFactor":0,
				"metallicRoughnessTexture":{
					"index":26
				}
			}
		},
		{
			"doubleSided":true,
			"name":"Wall_MAT",
			"normalTexture":{
				"index":27
			},
			"pbrMetallicRoughness":{
				"baseColorTexture":{
					"index":28
				},
				"metallicFactor":0,
				"metallicRoughnessTexture":{
					"index":29
				}
			}
		},
		{
			"doubleSided":true,
			"emissiveFactor":[
				1,
				1,
				1
			],
			"emissiveTexture":{
				"index":30
			},
			"name":"Ventanal_MAT",
			"normalTexture":{
				"index":31
			},
			"pbrMetallicRoughness":{
				"baseColorTexture":{
					"index":32
				},
				"metallicRoughnessTexture":{
					"index":33
				}
			}
		},
		{
			"doubleSided":true,
			"name":"Alfombra_MAT",
			"pbrMetallicRoughness":{
				"baseColorTexture":{
					"index":34
				},
				"metallicFactor":0,
				"roughnessFactor":0.800000011920929
			}
		}
	],
	"meshes":[
		{
			"name":"Cube.067",
			"primitives":[
				{
					"attributes":{
						"POSITION":0,
						"NORMAL":1,
						"TEXCOORD_0":2
					},
					"indices":3,
					"material":0
				}
			]
		},
		{
			"name":"Circle.012",
			"primitives":[
				{
					"attributes":{
						"POSITION":4,
						"NORMAL":5,
						"TEXCOORD_0":6
					},
					"indices":7,
					"material":1
				}
			]
		},
		{
			"name":"Circle.011",
			"primitives":[
				{
					"attributes":{
						"POSITION":8,
						"NORMAL":9,
						"TEXCOORD_0":10
					},
					"indices":11,
					"material":1
				}
			]
		},
		{
			"name":"Cylinder.024",
			"primitives":[
				{
					"attributes":{
						"POSITION":12,
						"NORMAL":13,
						"TEXCOORD_0":14
					},
					"indices":15,
					"material":2
				},
				{
					"attributes":{
						"POSITION":16,
						"NORMAL":17,
						"TEXCOORD_0":18
					},
					"indices":19,
					"material":3
				},
				{
					"attributes":{
						"POSITION":20,
						"NORMAL":21,
						"TEXCOORD_0":22
					},
					"indices":23,
					"material":4
				}
			]
		},
		{
			"name":"Cylinder.003",
			"primitives":[
				{
					"attributes":{
						"POSITION":24,
						"NORMAL":25,
						"TEXCOORD_0":26
					},
					"indices":27,
					"material":2
				}
			]
		},
		{
			"name":"Cylinder.009",
			"primitives":[
				{
					"attributes":{
						"POSITION":28,
						"NORMAL":29,
						"TEXCOORD_0":30
					},
					"indices":31,
					"material":2
				}
			]
		},
		{
			"name":"Cube.016",
			"primitives":[
				{
					"attributes":{
						"POSITION":32,
						"NORMAL":33,
						"TEXCOORD_0":34
					},
					"indices":35,
					"material":5
				},
				{
					"attributes":{
						"POSITION":36,
						"NORMAL":37,
						"TEXCOORD_0":38
					},
					"indices":39,
					"material":6
				}
			]
		},
		{
			"name":"Cube.019",
			"primitives":[
				{
					"attributes":{
						"POSITION":40,
						"NORMAL":41,
						"TEXCOORD_0":42
					},
					"indices":43,
					"material":6
				},
				{
					"attributes":{
						"POSITION":44,
						"NORMAL":45,
						"TEXCOORD_0":46
					},
					"indices":47,
					"material":5
				}
			]
		},
		{
			"name":"Cube.069",
			"primitives":[
				{
					"attributes":{
						"POSITION":48,
						"NORMAL":49,
						"TEXCOORD_0":50
					},
					"indices":51,
					"material":5
				},
				{
					"attributes":{
						"POSITION":52,
						"NORMAL":53,
						"TEXCOORD_0":54
					},
					"indices":43,
					"material":6
				}
			]
		},
		{
			"name":"Circle.021",
			"primitives":[
				{
					"attributes":{
						"POSITION":55,
						"NORMAL":56,
						"TEXCOORD_0":57
					},
					"indices":58,
					"material":7
				},
				{
					"attributes":{
						"POSITION":59,
						"NORMAL":60,
						"TEXCOORD_0":61
					},
					"indices":62,
					"material":1
				}
			]
		},
		{
			"name":"Cube.078",
			"primitives":[
				{
					"attributes":{
						"POSITION":63,
						"NORMAL":64,
						"TEXCOORD_0":65
					},
					"indices":66,
					"material":8
				},
				{
					"attributes":{
						"POSITION":67,
						"NORMAL":68,
						"TEXCOORD_0":69
					},
					"indices":70,
					"material":1
				},
				{
					"attributes":{
						"POSITION":71,
						"NORMAL":72,
						"TEXCOORD_0":73
					},
					"indices":74,
					"material":2
				},
				{
					"attributes":{
						"POSITION":75,
						"NORMAL":76,
						"TEXCOORD_0":77
					},
					"indices":78,
					"material":9
				},
				{
					"attributes":{
						"POSITION":79,
						"NORMAL":80,
						"TEXCOORD_0":81
					},
					"indices":82,
					"material":3
				},
				{
					"attributes":{
						"POSITION":83,
						"NORMAL":84,
						"TEXCOORD_0":85
					},
					"indices":86,
					"material":4
				},
				{
					"attributes":{
						"POSITION":87,
						"NORMAL":88,
						"TEXCOORD_0":89
					},
					"indices":90,
					"material":10
				},
				{
					"attributes":{
						"POSITION":91,
						"NORMAL":92,
						"TEXCOORD_0":93
					},
					"indices":94,
					"material":11
				},
				{
					"attributes":{
						"POSITION":95,
						"NORMAL":96,
						"TEXCOORD_0":97
					},
					"indices":98,
					"material":0
				}
			]
		},
		{
			"name":"Cylinder.070_cell.001",
			"primitives":[
				{
					"attributes":{
						"POSITION":99,
						"NORMAL":100,
						"TEXCOORD_0":101
					},
					"indices":82,
					"material":3
				},
				{
					"attributes":{
						"POSITION":102,
						"NORMAL":103,
						"TEXCOORD_0":104
					},
					"indices":27,
					"material":2
				}
			]
		},
		{
			"name":"Cylinder.002_cell.007",
			"primitives":[
				{
					"attributes":{
						"POSITION":105,
						"NORMAL":106,
						"TEXCOORD_0":107
					},
					"indices":108,
					"material":4
				},
				{
					"attributes":{
						"POSITION":109,
						"NORMAL":110,
						"TEXCOORD_0":111
					},
					"indices":112,
					"material":2
				}
			]
		},
		{
			"name":"Cylinder.070_cell.003",
			"primitives":[
				{
					"attributes":{
						"POSITION":113,
						"NORMAL":114,
						"TEXCOORD_0":115
					},
					"indices":82,
					"material":3
				}
			]
		},
		{
			"name":"Cylinder.070_cell.006",
			"primitives":[
				{
					"attributes":{
						"POSITION":116,
						"NORMAL":117,
						"TEXCOORD_0":118
					},
					"indices":119,
					"material":3
				},
				{
					"attributes":{
						"POSITION":120,
						"NORMAL":121,
						"TEXCOORD_0":122
					},
					"indices":108,
					"material":4
				}
			]
		}
	],
	"textures":[
		{
			"sampler":0,
			"source":0
		},
		{
			"sampler":0,
			"source":1
		},
		{
			"sampler":0,
			"source":2
		},
		{
			"sampler":0,
			"source":3
		},
		{
			"sampler":0,
			"source":4
		},
		{
			"sampler":0,
			"source":5
		},
		{
			"sampler":0,
			"source":6
		},
		{
			"sampler":0,
			"source":7
		},
		{
			"sampler":0,
			"source":8
		},
		{
			"sampler":0,
			"source":6
		},
		{
			"sampler":0,
			"source":7
		},
		{
			"sampler":0,
			"source":9
		},
		{
			"sampler":0,
			"source":6
		},
		{
			"sampler":0,
			"source":7
		},
		{
			"sampler":0,
			"source":9
		},
		{
			"sampler":0,
			"source":10
		},
		{
			"sampler":0,
			"source":11
		},
		{
			"sampler":0,
			"source":12
		},
		{
			"sampler":0,
			"source":10
		},
		{
			"sampler":0,
			"source":11
		},
		{
			"sampler":0,
			"source":12
		},
		{
			"sampler":0,
			"source":3
		},
		{
			"sampler":0,
			"source":4
		},
		{
			"sampler":0,
			"source":5
		},
		{
			"sampler":0,
			"source":13
		},
		{
			"sampler":0,
			"source":14
		},
		{
			"sampler":0,
			"source":15
		},
		{
			"sampler":0,
			"source":13
		},
		{
			"sampler":0,
			"source":16
		},
		{
			"sampler":0,
			"source":15
		},
		{
			"sampler":0,
			"source":17
		},
		{
			"sampler":0,
			"source":18
		},
		{
			"sampler":0,
			"source":19
		},
		{
			"sampler":0,
			"source":20
		},
		{
			"sampler":0,
			"source":21
		}
	],
	"images":[
		{
			"mimeType":"image/png",
			"name":"P_Mesas_n",
			"uri":"P_Mesas_n.png"
		},
		{
			"mimeType":"image/png",
			"name":"P_Mesas_bc",
			"uri":"P_Mesas_bc.png"
		},
		{
			"mimeType":"image/png",
			"name":"P_Mesas_m.png-P_Mesas_r.png",
			"uri":"P_Mesas_m_png-P_Mesas_r_png.png"
		},
		{
			"mimeType":"image/png",
			"name":"P_Vallas_n",
			"uri":"P_Vallas_n.png"
		},
		{
			"mimeType":"image/png",
			"name":"P_Vallas_bc",
			"uri":"P_Vallas_bc.png"
		},
		{
			"mimeType":"image/png",
			"name":"P_Vallas_m-P_Vallas_r",
			"uri":"P_Vallas_m-P_Vallas_r.png"
		},
		{
			"mimeType":"image/png",
			"name":"Trimsheet_low_DefaultMaterial_Normal",
			"uri":"Trimsheet_low_DefaultMaterial_Normal.png"
		},
		{
			"mimeType":"image/png",
			"name":"Trimsheet_low_DefaultMaterial_BaseColor",
			"uri":"Trimsheet_low_DefaultMaterial_BaseColor.png"
		},
		{
			"mimeType":"image/png",
			"name":"Trimsheet_low_DefaultMaterial_Metallic-Trimsheet_low_DefaultMaterial_Roughness",
			"uri":"Trimsheet_low_DefaultMaterial_Metallic-Trimsheet_low_DefaultMaterial_Roughness.png"
		},
		{
			"mimeType":"image/png",
			"name":"Trimsheet_low_DefaultMaterial_Metallic.png-Trimsheet_low_DefaultMaterial_Roughness.png",
			"uri":"Trimsheet_low_DefaultMaterial_Metallic_png-Trimsheet_low_DefaultMaterial_Roughness_png.png"
		},
		{
			"mimeType":"image/png",
			"name":"P_Banco_n",
			"uri":"P_Banco_n.png"
		},
		{
			"mimeType":"image/png",
			"name":"P_Banco_bc",
			"uri":"P_Banco_bc.png"
		},
		{
			"mimeType":"image/png",
			"name":"P_Banco_m-P_Banco_r",
			"uri":"P_Banco_m-P_Banco_r.png"
		},
		{
			"mimeType":"image/png",
			"name":"p_wall_2_n",
			"uri":"p_wall_2_n.png"
		},
		{
			"mimeType":"image/png",
			"name":"p_suelo_1_bc",
			"uri":"p_suelo_1_bc.png"
		},
		{
			"mimeType":"image/png",
			"name":"p_wall_2_r",
			"uri":"p_wall_2_r.png"
		},
		{
			"mimeType":"image/png",
			"name":"p_wall_2_bc",
			"uri":"p_wall_2_bc.png"
		},
		{
			"mimeType":"image/png",
			"name":"p_ventanales_e",
			"uri":"p_ventanales_e.png"
		},
		{
			"mimeType":"image/png",
			"name":"p_ventanales_n",
			"uri":"p_ventanales_n.png"
		},
		{
			"mimeType":"image/png",
			"name":"p_ventanales_bc",
			"uri":"p_ventanales_bc.png"
		},
		{
			"mimeType":"image/png",
			"name":"p_ventanales_m-p_ventanales_r",
			"uri":"p_ventanales_m-p_ventanales_r.png"
		},
		{
			"mimeType":"image/png",
			"name":"Alfombra_bc",
			"uri":"Alfombra_bc.png"
		}
	],
	"accessors":[
		{
			"bufferView":0,
			"componentType":5126,
			"count":1442,
			"max":[
				2.835784673690796,
				1,
				14.057209014892578
			],
			"min":[
				-20.30453872680664,
				-0.9978324770927429,
				-0.45661017298698425
			],
			"type":"VEC3"
		},
		{
			"bufferView":1,
			"componentType":5126,
			"count":1442,
			"type":"VEC3"
		},
		{
			"bufferView":2,
			"componentType":5126,
			"count":1442,
			"type":"VEC2"
		},
		{
			"bufferView":3,
			"componentType":5123,
			"count":3864,
			"type":"SCALAR"
		},
		{
			"bufferView":4,
			"componentType":5126,
			"count":3314,
			"max":[
				1.380326271057129,
				2.6103129386901855,
				0.11388203501701355
			],
			"min":[
				0,
				0,
				-0.03177405521273613
			],
			"type":"VEC3"
		},
		{
			"bufferView":5,
			"componentType":5126,
			"count":3314,
			"type":"VEC3"
		},
		{
			"bufferView":6,
			"componentType":5126,
			"count":3314,
			"type":"VEC2"
		},
		{
			"bufferView":7,
			"componentType":5123,
			"count":7692,
			"type":"SCALAR"
		},
		{
			"bufferView":8,
			"componentType":5126,
			"count":3314,
			"max":[
				0,
				5.044345855712891,
				0.22007408738136292
			],
			"min":[
				-2.667436122894287,
				0,
				-0.061402540653944016
			],
			"type":"VEC3"
		},
		{
			"bufferView":9,
			"componentType":5126,
			"count":3314,
			"type":"VEC3"
		},
		{
			"bufferView":10,
			"componentType":5126,
			"count":3314,
			"type":"VEC2"
		},
		{
			"bufferView":11,
			"componentType":5123,
			"count":7692,
			"type":"SCALAR"
		},
		{
			"bufferView":12,
			"componentType":5126,
			"count":13869,
			"max":[
				30.344268798828125,
				15.540990829467773,
				45.225276947021484
			],
			"min":[
				-18.547592163085938,
				-0.4507406949996948,
				-7.7574005126953125
			],
			"type":"VEC3"
		},
		{
			"bufferView":13,
			"componentType":5126,
			"count":13869,
			"type":"VEC3"
		},
		{
			"bufferView":14,
			"componentType":5126,
			"count":13869,
			"type":"VEC2"
		},
		{
			"bufferView":15,
			"componentType":5123,
			"count":41520,
			"type":"SCALAR"
		},
		{
			"bufferView":16,
			"componentType":5126,
			"count":10863,
			"max":[
				35.133113861083984,
				1.8532518148422241,
				50.86062240600586
			],
			"min":[
				-17.569026947021484,
				-0.1503523737192154,
				-7.794038772583008
			],
			"type":"VEC3"
		},
		{
			"bufferView":17,
			"componentType":5126,
			"count":10863,
			"type":"VEC3"
		},
		{
			"bufferView":18,
			"componentType":5126,
			"count":10863,
			"type":"VEC2"
		},
		{
			"bufferView":19,
			"componentType":5123,
			"count":25758,
			"type":"SCALAR"
		},
		{
			"bufferView":20,
			"componentType":5126,
			"count":3399,
			"max":[
				31.096675872802734,
				2.311599016189575,
				49.5513916015625
			],
			"min":[
				2.58349347114563,
				-0.01757568120956421,
				-7.990009307861328
			],
			"type":"VEC3"
		},
		{
			"bufferView":21,
			"componentType":5126,
			"count":3399,
			"type":"VEC3"
		},
		{
			"bufferView":22,
			"componentType":5126,
			"count":3399,
			"type":"VEC2"
		},
		{
			"bufferView":23,
			"componentType":5123,
			"count":8316,
			"type":"SCALAR"
		},
		{
			"bufferView":24,
			"componentType":5126,
			"count":529,
			"max":[
				1.473663330078125,
				5,
				1.473663330078125
			],
			"min":[
				-1.473663330078125,
				4.9297327109343314e-08,
				-1.473663330078125
			],
			"type":"VEC3"
		},
		{
			"bufferView":25,
			"componentType":5126,
			"count":529,
			"type":"VEC3"
		},
		{
			"bufferView":26,
			"componentType":5126,
			"count":529,
			"type":"VEC2"
		},
		{
			"bufferView":27,
			"componentType":5123,
			"count":1632,
			"type":"SCALAR"
		},
		{
			"bufferView":28,
			"componentType":5126,
			"count":1674,
			"max":[
				12.914728164672852,
				17.15426254272461,
				-23.364337921142578
			],
			"min":[
				10.554252624511719,
				0.3105992376804352,
				-25.721555709838867
			],
			"type":"VEC3"
		},
		{
			"bufferView":29,
			"componentType":5126,
			"count":1674,
			"type":"VEC3"
		},
		{
			"bufferView":30,
			"componentType":5126,
			"count":1674,
			"type":"VEC2"
		},
		{
			"bufferView":31,
			"componentType":5123,
			"count":4992,
			"type":"SCALAR"
		},
		{
			"bufferView":32,
			"componentType":5126,
			"count":3024,
			"max":[
				2.9428391456604004,
				0.9404922723770142,
				0.3193094730377197
			],
			"min":[
				-3.188627243041992,
				0,
				-6.8568010330200195
			],
			"type":"VEC3"
		},
		{
			"bufferView":33,
			"componentType":5126,
			"count":3024,
			"type":"VEC3"
		},
		{
			"bufferView":34,
			"componentType":5126,
			"count":3024,
			"type":"VEC2"
		},
		{
			"bufferView":35,
			"componentType":5123,
			"count":8784,
			"type":"SCALAR"
		},
		{
			"bufferView":36,
			"componentType":5126,
			"count":1146,
			"max":[
				0.8250490427017212,
				0.9364159107208252,
				-2.2040581703186035
			],
			"min":[
				-2.77292537689209,
				-0.00234028697013855,
				-7.6067399978637695
			],
			"type":"VEC3"
		},
		{
			"bufferView":37,
			"componentType":5126,
			"count":1146,
			"type":"VEC3"
		},
		{
			"bufferView":38,
			"componentType":5126,
			"count":1146,
			"type":"VEC2"
		},
		{
			"bufferView":39,
			"componentType":5123,
			"count":3480,
			"type":"SCALAR"
		},
		{
			"bufferView":40,
			"componentType":5126,
			"count":6876,
			"max":[
				3.4359734058380127,
				0.9364159107208252,
				19.88017463684082
			],
			"min":[
				-1.7925472259521484,
				-0.00234028697013855,
				-9.593929290771484
			],
			"type":"VEC3"
		},
		{
			"bufferView":41,
			"componentType":5126,
			"count":6876,
			"type":"VEC3"
		},
		{
			"bufferView":42,
			"componentType":5126,
			"count":6876,
			"type":"VEC2"
		},
		{
			"bufferView":43,
			"componentType":5123,
			"count":20880,
			"type":"SCALAR"
		},
		{
			"bufferView":44,
			"componentType":5126,
			"count":9072,
			"max":[
				3.4017913341522217,
				0.9404922723770142,
				22.308090209960938
			],
			"min":[
				-1.2843000888824463,
				-0.055275917053222656,
				-7.420764923095703
			],
			"type":"VEC3"
		},
		{
			"bufferView":45,
			"componentType":5126,
			"count":9072,
			"type":"VEC3"
		},
		{
			"bufferView":46,
			"componentType":5126,
			"count":9072,
			"type":"VEC2"
		},
		{
			"bufferView":47,
			"componentType":5123,
			"count":26352,
			"type":"SCALAR"
		},
		{
			"bufferView":48,
			"componentType":5126,
			"count":13608,
			"max":[
				2.3083248138427734,
				0.9404922723770142,
				14.944584846496582
			],
			"min":[
				-3.620370388031006,
				-0.055275917053222656,
				-22.42196273803711
			],
			"type":"VEC3"
		},
		{
			"bufferView":49,
			"componentType":5126,
			"count":13608,
			"type":"VEC3"
		},
		{
			"bufferView":50,
			"componentType":5126,
			"count":13608,
			"type":"VEC2"
		},
		{
			"bufferView":51,
			"componentType":5123,
			"count":39528,
			"type":"SCALAR"
		},
		{
			"bufferView":52,
			"componentType":5126,
			"count":6876,
			"max":[
				1.2852880954742432,
				0.9364159107208252,
				18.182994842529297
			],
			"min":[
				-3.874782085418701,
				-0.00234028697013855,
				-22.36327362060547
			],
			"type":"VEC3"
		},
		{
			"bufferView":53,
			"componentType":5126,
			"count":6876,
			"type":"VEC3"
		},
		{
			"bufferView":54,
			"componentType":5126,
			"count":6876,
			"type":"VEC2"
		},
		{
			"bufferView":55,
			"componentType":5126,
			"count":4642,
			"max":[
				0.4949377775192261,
				2.0668270587921143,
				0.031776923686265945
			],
			"min":[
				-9.756608009338379,
				-5.17662801513552e-09,
				-0.03177405893802643
			],
			"type":"VEC3"
		},
		{
			"bufferView":56,
			"componentType":5126,
			"count":4642,
			"type":"VEC3"
		},
		{
			"bufferView":57,
			"componentType":5126,
			"count":4642,
			"type":"VEC2"
		},
		{
			"bufferView":58,
			"componentType":5123,
			"count":10626,
			"type":"SCALAR"
		},
		{
			"bufferView":59,
			"componentType":5126,
			"count":13262,
			"max":[
				-0.038882724940776825,
				2.2557923793792725,
				0.02953203022480011
			],
			"min":[
				-8.96208667755127,
				-2.842170943040401e-14,
				-0.09634532779455185
			],
			"type":"VEC3"
		},
		{
			"bufferView":60,
			"componentType":5126,
			"count":13262,
			"type":"VEC3"
		},
		{
			"bufferView":61,
			"componentType":5126,
			"count":13262,
			"type":"VEC2"
		},
		{
			"bufferView":62,
			"componentType":5123,
			"count":30768,
			"type":"SCALAR"
		},
		{
			"bufferView":63,
			"componentType":5126,
			"count":56,
			"max":[
				19.57660675048828,
				-4.76837158203125e-07,
				80.60888671875
			],
			"min":[
				-40.387901306152344,
				-4.76837158203125e-07,
				-67.88011932373047
			],
			"type":"VEC3"
		},
		{
			"bufferView":64,
			"componentType":5126,
			"count":56,
			"type":"VEC3"
		},
		{
			"bufferView":65,
			"componentType":5126,
			"count":56,
			"type":"VEC2"
		},
		{
			"bufferView":66,
			"componentType":5123,
			"count":162,
			"type":"SCALAR"
		},
		{
			"bufferView":67,
			"componentType":5126,
			"count":22342,
			"max":[
				3.6427574157714844,
				6.313283920288086,
				25.30246925354004
			],
			"min":[
				-24.159622192382812,
				-0.3186434805393219,
				16.68997573852539
			],
			"type":"VEC3"
		},
		{
			"bufferView":68,
			"componentType":5126,
			"count":22342,
			"type":"VEC3"
		},
		{
			"bufferView":69,
			"componentType":5126,
			"count":22342,
			"type":"VEC2"
		},
		{
			"bufferView":70,
			"componentType":5123,
			"count":46152,
			"type":"SCALAR"
		},
		{
			"bufferView":71,
			"componentType":5126,
			"count":6661,
			"max":[
				21.790496826171875,
				21.08079719543457,
				82.82276916503906
			],
			"min":[
				-25.980628967285156,
				-18.890321731567383,
				-70.09400939941406
			],
			"type":"VEC3"
		},
		{
			"bufferView":72,
			"componentType":5126,
			"count":6661,
			"type":"VEC3"
		},
		{
			"bufferView":73,
			"componentType":5126,
			"count":6661,
			"type":"VEC2"
		},
		{
			"bufferView":74,
			"componentType":5123,
			"count":19896,
			"type":"SCALAR"
		},
		{
			"bufferView":75,
			"componentType":5126,
			"count":424,
			"max":[
				47.216278076171875,
				20.78060531616211,
				82.10800170898438
			],
			"min":[
				-41.88701248168945,
				-32.08234786987305,
				-69.37924194335938
			],
			"type":"VEC3"
		},
		{
			"bufferView":76,
			"componentType":5126,
			"count":424,
			"type":"VEC3"
		},
		{
			"bufferView":77,
			"componentType":5126,
			"count":424,
			"type":"VEC2"
		},
		{
			"bufferView":78,
			"componentType":5123,
			"count":1242,
			"type":"SCALAR"
		},
		{
			"bufferView":79,
			"componentType":5126,
			"count":3621,
			"max":[
				4.212348937988281,
				1.8532521724700928,
				21.185840606689453
			],
			"min":[
				-3.8710460662841797,
				-0.03751343488693237,
				5.865428924560547
			],
			"type":"VEC3"
		},
		{
			"bufferView":80,
			"componentType":5126,
			"count":3621,
			"type":"VEC3"
		},
		{
			"bufferView":81,
			"componentType":5126,
			"count":3621,
			"type":"VEC2"
		},
		{
			"bufferView":82,
			"componentType":5123,
			"count":8586,
			"type":"SCALAR"
		},
		{
			"bufferView":83,
			"componentType":5126,
			"count":1133,
			"max":[
				-1.5381546020507812,
				1.689149260520935,
				23.96774673461914
			],
			"min":[
				-7.798944473266602,
				-0.017575187608599663,
				17.99429702758789
			],
			"type":"VEC3"
		},
		{
			"bufferView":84,
			"componentType":5126,
			"count":1133,
			"type":"VEC3"
		},
		{
			"bufferView":85,
			"componentType":5126,
			"count":1133,
			"type":"VEC2"
		},
		{
			"bufferView":86,
			"componentType":5123,
			"count":2772,
			"type":"SCALAR"
		},
		{
			"bufferView":87,
			"componentType":5126,
			"count":1455,
			"max":[
				-5.341439247131348,
				16.099863052368164,
				80.57916259765625
			],
			"min":[
				-40.395912170410156,
				2.8238816261291504,
				-26.826717376708984
			],
			"type":"VEC3"
		},
		{
			"bufferView":88,
			"componentType":5126,
			"count":1455,
			"type":"VEC3"
		},
		{
			"bufferView":89,
			"componentType":5126,
			"count":1455,
			"type":"VEC2"
		},
		{
			"bufferView":90,
			"componentType":5123,
			"count":3555,
			"type":"SCALAR"
		},
		{
			"bufferView":91,
			"componentType":5126,
			"count":4,
			"max":[
				-7.046731948852539,
				0.012514445930719376,
				22.17641830444336
			],
			"min":[
				-13.259139060974121,
				0.012514445930719376,
				-32.48052215576172
			],
			"type":"VEC3"
		},
		{
			"bufferView":92,
			"componentType":5126,
			"count":4,
			"type":"VEC3"
		},
		{
			"bufferView":93,
			"componentType":5126,
			"count":4,
			"type":"VEC2"
		},
		{
			"bufferView":94,
			"componentType":5123,
			"count":6,
			"type":"SCALAR"
		},
		{
			"bufferView":95,
			"componentType":5126,
			"count":2678,
			"max":[
				-23.41742706298828,
				1.5789587497711182,
				73.4632568359375
			],
			"min":[
				-40.187110900878906,
				-6.87405387060809e-14,
				-19.732646942138672
			],
			"type":"VEC3"
		},
		{
			"bufferView":96,
			"componentType":5126,
			"count":2678,
			"type":"VEC3"
		},
		{
			"bufferView":97,
			"componentType":5126,
			"count":2678,
			"type":"VEC2"
		},
		{
			"bufferView":98,
			"componentType":5123,
			"count":7176,
			"type":"SCALAR"
		},
		{
			"bufferView":99,
			"componentType":5126,
			"count":3621,
			"max":[
				3.813410520553589,
				1.2049713134765625,
				6.2018890380859375
			],
			"min":[
				-2.645263195037842,
				-0.30576008558273315,
				-6.039192199707031
			],
			"type":"VEC3"
		},
		{
			"bufferView":100,
			"componentType":5126,
			"count":3621,
			"type":"VEC3"
		},
		{
			"bufferView":101,
			"componentType":5126,
			"count":3621,
			"type":"VEC2"
		},
		{
			"bufferView":102,
			"componentType":5126,
			"count":529,
			"max":[
				-0.5882006883621216,
				3.7192389965057373,
				1.8658417463302612
			],
			"min":[
				-2.9384374618530273,
				-0.275786429643631,
				-0.484394907951355
			],
			"type":"VEC3"
		},
		{
			"bufferView":103,
			"componentType":5126,
			"count":529,
			"type":"VEC3"
		},
		{
			"bufferView":104,
			"componentType":5126,
			"count":529,
			"type":"VEC2"
		},
		{
			"bufferView":105,
			"componentType":5126,
			"count":1133,
			"max":[
				2.200683116912842,
				0.7321398258209229,
				2.690329074859619
			],
			"min":[
				-2.674074172973633,
				-1.1850613355636597,
				-2.3386521339416504
			],
			"type":"VEC3"
		},
		{
			"bufferView":106,
			"componentType":5126,
			"count":1133,
			"type":"VEC3"
		},
		{
			"bufferView":107,
			"componentType":5126,
			"count":1133,
			"type":"VEC2"
		},
		{
			"bufferView":108,
			"componentType":5123,
			"count":2772,
			"type":"SCALAR"
		},
		{
			"bufferView":109,
			"componentType":5126,
			"count":766,
			"max":[
				-1.1823804378509521,
				2.8944716453552246,
				2.7389168739318848
			],
			"min":[
				-4.833442211151123,
				-1.5179184675216675,
				-1.7378473281860352
			],
			"type":"VEC3"
		},
		{
			"bufferView":110,
			"componentType":5126,
			"count":766,
			"type":"VEC3"
		},
		{
			"bufferView":111,
			"componentType":5126,
			"count":766,
			"type":"VEC2"
		},
		{
			"bufferView":112,
			"componentType":5123,
			"count":2304,
			"type":"SCALAR"
		},
		{
			"bufferView":113,
			"componentType":5126,
			"count":3621,
			"max":[
				3.813410520553589,
				1.2049713134765625,
				6.2018890380859375
			],
			"min":[
				-2.645263195037842,
				-0.30576008558273315,
				-6.039192199707031
			],
			"type":"VEC3"
		},
		{
			"bufferView":114,
			"componentType":5126,
			"count":3621,
			"type":"VEC3"
		},
		{
			"bufferView":115,
			"componentType":5126,
			"count":3621,
			"type":"VEC2"
		},
		{
			"bufferView":116,
			"componentType":5126,
			"count":7242,
			"max":[
				11.213348388671875,
				1.2049713134765625,
				6.2018890380859375
			],
			"min":[
				-2.645263195037842,
				-0.30576008558273315,
				-18.80074691772461
			],
			"type":"VEC3"
		},
		{
			"bufferView":117,
			"componentType":5126,
			"count":7242,
			"type":"VEC3"
		},
		{
			"bufferView":118,
			"componentType":5126,
			"count":7242,
			"type":"VEC2"
		},
		{
			"bufferView":119,
			"componentType":5123,
			"count":17172,
			"type":"SCALAR"
		},
		{
			"bufferView":120,
			"componentType":5126,
			"count":1133,
			"max":[
				3.66375732421875,
				1.0738520622253418,
				-5.10133695602417
			],
			"min":[
				-1.5952701568603516,
				-0.28982940316200256,
				-9.973963737487793
			],
			"type":"VEC3"
		},
		{
			"bufferView":121,
			"componentType":5126,
			"count":1133,
			"type":"VEC3"
		},
		{
			"bufferView":122,
			"componentType":5126,
			"count":1133,
			"type":"VEC2"
		}
	],
	"bufferViews":[
		{
			"buffer":0,
			"byteLength":17304,
			"byteOffset":0,
			"target":34962
		},
		{
			"buffer":0,
			"byteLength":17304,
			"byteOffset":17304,
			"target":34962
		},
		{
			"buffer":0,
			"byteLength":11536,
			"byteOffset":34608,
			"target":34962
		},
		{
			"buffer":0,
			"byteLength":7728,
			"byteOffset":46144,
			"target":34963
		},
		{
			"buffer":0,
			"byteLength":39768,
			"byteOffset":53872,
			"target":34962
		},
		{
			"buffer":0,
			"byteLength":39768,
			"byteOffset":93640,
			"target":34962
		},
		{
			"buffer":0,
			"byteLength":26512,
			"byteOffset":133408,
			"target":34962
		},
		{
			"buffer":0,
			"byteLength":15384,
			"byteOffset":159920,
			"target":34963
		},
		{
			"buffer":0,
			"byteLength":39768,
			"byteOffset":175304,
			"target":34962
		},
		{
			"buffer":0,
			"byteLength":39768,
			"byteOffset":215072,
			"target":34962
		},
		{
			"buffer":0,
			"byteLength":26512,
			"byteOffset":254840,
			"target":34962
		},
		{
			"buffer":0,
			"byteLength":15384,
			"byteOffset":281352,
			"target":34963
		},
		{
			"buffer":0,
			"byteLength":166428,
			"byteOffset":296736,
			"target":34962
		},
		{
			"buffer":0,
			"byteLength":166428,
			"byteOffset":463164,
			"target":34962
		},
		{
			"buffer":0,
			"byteLength":110952,
			"byteOffset":629592,
			"target":34962
		},
		{
			"buffer":0,
			"byteLength":83040,
			"byteOffset":740544,
			"target":34963
		},
		{
			"buffer":0,
			"byteLength":130356,
			"byteOffset":823584,
			"target":34962
		},
		{
			"buffer":0,
			"byteLength":130356,
			"byteOffset":953940,
			"target":34962
		},
		{
			"buffer":0,
			"byteLength":86904,
			"byteOffset":1084296,
			"target":34962
		},
		{
			"buffer":0,
			"byteLength":51516,
			"byteOffset":1171200,
			"target":34963
		},
		{
			"buffer":0,
			"byteLength":40788,
			"byteOffset":1222716,
			"target":34962
		},
		{
			"buffer":0,
			"byteLength":40788,
			"byteOffset":1263504,
			"target":34962
		},
		{
			"buffer":0,
			"byteLength":27192,
			"byteOffset":1304292,
			"target":34962
		},
		{
			"buffer":0,
			"byteLength":16632,
			"byteOffset":1331484,
			"target":34963
		},
		{
			"buffer":0,
			"byteLength":6348,
			"byteOffset":1348116,
			"target":34962
		},
		{
			"buffer":0,
			"byteLength":6348,
			"byteOffset":1354464,
			"target":34962
		},
		{
			"buffer":0,
			"byteLength":4232,
			"byteOffset":1360812,
			"target":34962
		},
		{
			"buffer":0,
			"byteLength":3264,
			"byteOffset":1365044,
			"target":34963
		},
		{
			"buffer":0,
			"byteLength":20088,
			"byteOffset":1368308,
			"target":34962
		},
		{
			"buffer":0,
			"byteLength":20088,
			"byteOffset":1388396,
			"target":34962
		},
		{
			"buffer":0,
			"byteLength":13392,
			"byteOffset":1408484,
			"target":34962
		},
		{
			"buffer":0,
			"byteLength":9984,
			"byteOffset":1421876,
			"target":34963
		},
		{
			"buffer":0,
			"byteLength":36288,
			"byteOffset":1431860,
			"target":34962
		},
		{
			"buffer":0,
			"byteLength":36288,
			"byteOffset":1468148,
			"target":34962
		},
		{
			"buffer":0,
			"byteLength":24192,
			"byteOffset":1504436,
			"target":34962
		},
		{
			"buffer":0,
			"byteLength":17568,
			"byteOffset":1528628,
			"target":34963
		},
		{
			"buffer":0,
			"byteLength":13752,
			"byteOffset":1546196,
			"target":34962
		},
		{
			"buffer":0,
			"byteLength":13752,
			"byteOffset":1559948,
			"target":34962
		},
		{
			"buffer":0,
			"byteLength":9168,
			"byteOffset":1573700,
			"target":34962
		},
		{
			"buffer":0,
			"byteLength":6960,
			"byteOffset":1582868,
			"target":34963
		},
		{
			"buffer":0,
			"byteLength":82512,
			"byteOffset":1589828,
			"target":34962
		},
		{
			"buffer":0,
			"byteLength":82512,
			"byteOffset":1672340,
			"target":34962
		},
		{
			"buffer":0,
			"byteLength":55008,
			"byteOffset":1754852,
			"target":34962
		},
		{
			"buffer":0,
			"byteLength":41760,
			"byteOffset":1809860,
			"target":34963
		},
		{
			"buffer":0,
			"byteLength":108864,
			"byteOffset":1851620,
			"target":34962
		},
		{
			"buffer":0,
			"byteLength":108864,
			"byteOffset":1960484,
			"target":34962
		},
		{
			"buffer":0,
			"byteLength":72576,
			"byteOffset":2069348,
			"target":34962
		},
		{
			"buffer":0,
			"byteLength":52704,
			"byteOffset":2141924,
			"target":34963
		},
		{
			"buffer":0,
			"byteLength":163296,
			"byteOffset":2194628,
			"target":34962
		},
		{
			"buffer":0,
			"byteLength":163296,
			"byteOffset":2357924,
			"target":34962
		},
		{
			"buffer":0,
			"byteLength":108864,
			"byteOffset":2521220,
			"target":34962
		},
		{
			"buffer":0,
			"byteLength":79056,
			"byteOffset":2630084,
			"target":34963
		},
		{
			"buffer":0,
			"byteLength":82512,
			"byteOffset":2709140,
			"target":34962
		},
		{
			"buffer":0,
			"byteLength":82512,
			"byteOffset":2791652,
			"target":34962
		},
		{
			"buffer":0,
			"byteLength":55008,
			"byteOffset":2874164,
			"target":34962
		},
		{
			"buffer":0,
			"byteLength":55704,
			"byteOffset":2929172,
			"target":34962
		},
		{
			"buffer":0,
			"byteLength":55704,
			"byteOffset":2984876,
			"target":34962
		},
		{
			"buffer":0,
			"byteLength":37136,
			"byteOffset":3040580,
			"target":34962
		},
		{
			"buffer":0,
			"byteLength":21252,
			"byteOffset":3077716,
			"target":34963
		},
		{
			"buffer":0,
			"byteLength":159144,
			"byteOffset":3098968,
			"target":34962
		},
		{
			"buffer":0,
			"byteLength":159144,
			"byteOffset":3258112,
			"target":34962
		},
		{
			"buffer":0,
			"byteLength":106096,
			"byteOffset":3417256,
			"target":34962
		},
		{
			"buffer":0,
			"byteLength":61536,
			"byteOffset":3523352,
			"target":34963
		},
		{
			"buffer":0,
			"byteLength":672,
			"byteOffset":3584888,
			"target":34962
		},
		{
			"buffer":0,
			"byteLength":672,
			"byteOffset":3585560,
			"target":34962
		},
		{
			"buffer":0,
			"byteLength":448,
			"byteOffset":3586232,
			"target":34962
		},
		{
			"buffer":0,
			"byteLength":324,
			"byteOffset":3586680,
			"target":34963
		},
		{
			"buffer":0,
			"byteLength":268104,
			"byteOffset":3587004,
			"target":34962
		},
		{
			"buffer":0,
			"byteLength":268104,
			"byteOffset":3855108,
			"target":34962
		},
		{
			"buffer":0,
			"byteLength":178736,
			"byteOffset":4123212,
			"target":34962
		},
		{
			"buffer":0,
			"byteLength":92304,
			"byteOffset":4301948,
			"target":34963
		},
		{
			"buffer":0,
			"byteLength":79932,
			"byteOffset":4394252,
			"target":34962
		},
		{
			"buffer":0,
			"byteLength":79932,
			"byteOffset":4474184,
			"target":34962
		},
		{
			"buffer":0,
			"byteLength":53288,
			"byteOffset":4554116,
			"target":34962
		},
		{
			"buffer":0,
			"byteLength":39792,
			"byteOffset":4607404,
			"target":34963
		},
		{
			"buffer":0,
			"byteLength":5088,
			"byteOffset":4647196,
			"target":34962
		},
		{
			"buffer":0,
			"byteLength":5088,
			"byteOffset":4652284,
			"target":34962
		},
		{
			"buffer":0,
			"byteLength":3392,
			"byteOffset":4657372,
			"target":34962
		},
		{
			"buffer":0,
			"byteLength":2484,
			"byteOffset":4660764,
			"target":34963
		},
		{
			"buffer":0,
			"byteLength":43452,
			"byteOffset":4663248,
			"target":34962
		},
		{
			"buffer":0,
			"byteLength":43452,
			"byteOffset":4706700,
			"target":34962
		},
		{
			"buffer":0,
			"byteLength":28968,
			"byteOffset":4750152,
			"target":34962
		},
		{
			"buffer":0,
			"byteLength":17172,
			"byteOffset":4779120,
			"target":34963
		},
		{
			"buffer":0,
			"byteLength":13596,
			"byteOffset":4796292,
			"target":34962
		},
		{
			"buffer":0,
			"byteLength":13596,
			"byteOffset":4809888,
			"target":34962
		},
		{
			"buffer":0,
			"byteLength":9064,
			"byteOffset":4823484,
			"target":34962
		},
		{
			"buffer":0,
			"byteLength":5544,
			"byteOffset":4832548,
			"target":34963
		},
		{
			"buffer":0,
			"byteLength":17460,
			"byteOffset":4838092,
			"target":34962
		},
		{
			"buffer":0,
			"byteLength":17460,
			"byteOffset":4855552,
			"target":34962
		},
		{
			"buffer":0,
			"byteLength":11640,
			"byteOffset":4873012,
			"target":34962
		},
		{
			"buffer":0,
			"byteLength":7110,
			"byteOffset":4884652,
			"target":34963
		},
		{
			"buffer":0,
			"byteLength":48,
			"byteOffset":4891764,
			"target":34962
		},
		{
			"buffer":0,
			"byteLength":48,
			"byteOffset":4891812,
			"target":34962
		},
		{
			"buffer":0,
			"byteLength":32,
			"byteOffset":4891860,
			"target":34962
		},
		{
			"buffer":0,
			"byteLength":12,
			"byteOffset":4891892,
			"target":34963
		},
		{
			"buffer":0,
			"byteLength":32136,
			"byteOffset":4891904,
			"target":34962
		},
		{
			"buffer":0,
			"byteLength":32136,
			"byteOffset":4924040,
			"target":34962
		},
		{
			"buffer":0,
			"byteLength":21424,
			"byteOffset":4956176,
			"target":34962
		},
		{
			"buffer":0,
			"byteLength":14352,
			"byteOffset":4977600,
			"target":34963
		},
		{
			"buffer":0,
			"byteLength":43452,
			"byteOffset":4991952,
			"target":34962
		},
		{
			"buffer":0,
			"byteLength":43452,
			"byteOffset":5035404,
			"target":34962
		},
		{
			"buffer":0,
			"byteLength":28968,
			"byteOffset":5078856,
			"target":34962
		},
		{
			"buffer":0,
			"byteLength":6348,
			"byteOffset":5107824,
			"target":34962
		},
		{
			"buffer":0,
			"byteLength":6348,
			"byteOffset":5114172,
			"target":34962
		},
		{
			"buffer":0,
			"byteLength":4232,
			"byteOffset":5120520,
			"target":34962
		},
		{
			"buffer":0,
			"byteLength":13596,
			"byteOffset":5124752,
			"target":34962
		},
		{
			"buffer":0,
			"byteLength":13596,
			"byteOffset":5138348,
			"target":34962
		},
		{
			"buffer":0,
			"byteLength":9064,
			"byteOffset":5151944,
			"target":34962
		},
		{
			"buffer":0,
			"byteLength":5544,
			"byteOffset":5161008,
			"target":34963
		},
		{
			"buffer":0,
			"byteLength":9192,
			"byteOffset":5166552,
			"target":34962
		},
		{
			"buffer":0,
			"byteLength":9192,
			"byteOffset":5175744,
			"target":34962
		},
		{
			"buffer":0,
			"byteLength":6128,
			"byteOffset":5184936,
			"target":34962
		},
		{
			"buffer":0,
			"byteLength":4608,
			"byteOffset":5191064,
			"target":34963
		},
		{
			"buffer":0,
			"byteLength":43452,
			"byteOffset":5195672,
			"target":34962
		},
		{
			"buffer":0,
			"byteLength":43452,
			"byteOffset":5239124,
			"target":34962
		},
		{
			"buffer":0,
			"byteLength":28968,
			"byteOffset":5282576,
			"target":34962
		},
		{
			"buffer":0,
			"byteLength":86904,
			"byteOffset":5311544,
			"target":34962
		},
		{
			"buffer":0,
			"byteLength":86904,
			"byteOffset":5398448,
			"target":34962
		},
		{
			"buffer":0,
			"byteLength":57936,
			"byteOffset":5485352,
			"target":34962
		},
		{
			"buffer":0,
			"byteLength":34344,
			"byteOffset":5543288,
			"target":34963
		},
		{
			"buffer":0,
			"byteLength":13596,
			"byteOffset":5577632,
			"target":34962
		},
		{
			"buffer":0,
			"byteLength":13596,
			"byteOffset":5591228,
			"target":34962
		},
		{
			"buffer":0,
			"byteLength":9064,
			"byteOffset":5604824,
			"target":34962
		}
	],
	"samplers":[
		{
			"magFilter":9729,
			"minFilter":9987
		}
	],
	"buffers":[
		{
			"byteLength":5613888,
			"uri":"LEVEL3_FINAL_GLTF.bin"
		}
	]
}
