{
	"asset":{
		"generator":"Khronos glTF Blender I/O v4.4.55",
		"version":"2.0"
	},
	"scene":0,
	"scenes":[
		{
			"name":"Scene",
			"nodes":[
				4
			]
		}
	],
	"nodes":[
		{
			"name":"Root.001",
			"rotation":[
				-0.7039770483970642,
				-2.342256004510382e-16,
				-2.342256269208178e-16,
				0.7102227807044983
			],
			"scale":[
				1,
				0.9999998807907104,
				0.9999998807907104
			],
			"translation":[
				-6.216327154296027e-17,
				0,
				0
			]
		},
		{
			"name":"Root.002",
			"rotation":[
				-0.7071067690849304,
				0,
				0,
				0.7071067690849304
			],
			"translation":[
				6.216327154296027e-17,
				0.0016576051712036133,
				-0.18766000866889954
			]
		},
		{
			"children":[
				0,
				1
			],
			"name":"Root"
		},
		{
			"mesh":0,
			"name":"BalaMesh",
			"skin":0
		},
		{
			"children":[
				3,
				2
			],
			"name":"BalaArmature"
		}
	],
	"animations":[
		{
			"channels":[
				{
					"sampler":0,
					"target":{
						"node":2,
						"path":"translation"
					}
				},
				{
					"sampler":1,
					"target":{
						"node":2,
						"path":"rotation"
					}
				},
				{
					"sampler":2,
					"target":{
						"node":2,
						"path":"scale"
					}
				},
				{
					"sampler":3,
					"target":{
						"node":0,
						"path":"translation"
					}
				},
				{
					"sampler":4,
					"target":{
						"node":0,
						"path":"rotation"
					}
				},
				{
					"sampler":5,
					"target":{
						"node":0,
						"path":"scale"
					}
				},
				{
					"sampler":6,
					"target":{
						"node":1,
						"path":"translation"
					}
				},
				{
					"sampler":7,
					"target":{
						"node":1,
						"path":"rotation"
					}
				},
				{
					"sampler":8,
					"target":{
						"node":1,
						"path":"scale"
					}
				}
			],
			"name":"IdleBullet",
			"samplers":[
				{
					"input":7,
					"interpolation":"STEP",
					"output":8
				},
				{
					"input":7,
					"interpolation":"STEP",
					"output":9
				},
				{
					"input":7,
					"interpolation":"STEP",
					"output":10
				},
				{
					"input":7,
					"interpolation":"STEP",
					"output":11
				},
				{
					"input":12,
					"interpolation":"LINEAR",
					"output":13
				},
				{
					"input":12,
					"interpolation":"LINEAR",
					"output":14
				},
				{
					"input":7,
					"interpolation":"STEP",
					"output":15
				},
				{
					"input":12,
					"interpolation":"LINEAR",
					"output":16
				},
				{
					"input":12,
					"interpolation":"LINEAR",
					"output":17
				}
			]
		}
	],
	"materials":[
		{
			"alphaMode":"BLEND",
			"doubleSided":true,
			"emissiveFactor":[
				1,
				1,
				1
			],
			"emissiveTexture":{
				"index":0
			},
			"name":"Material.001",
			"pbrMetallicRoughness":{
				"baseColorTexture":{
					"index":1
				},
				"metallicFactor":0,
				"roughnessFactor":0.5
			}
		}
	],
	"meshes":[
		{
			"name":"Cylinder",
			"primitives":[
				{
					"attributes":{
						"POSITION":0,
						"NORMAL":1,
						"TEXCOORD_0":2,
						"JOINTS_0":3,
						"WEIGHTS_0":4
					},
					"indices":5,
					"material":0
				}
			]
		}
	],
	"textures":[
		{
			"sampler":0,
			"source":0
		},
		{
			"sampler":0,
			"source":0
		}
	],
	"images":[
		{
			"mimeType":"image/png",
			"name":"Particle1.png",
			"uri":"Particle1_png.png"
		}
	],
	"skins":[
		{
			"inverseBindMatrices":6,
			"joints":[
				2,
				0,
				1
			],
			"name":"BalaArmature"
		}
	],
	"accessors":[
		{
			"bufferView":0,
			"componentType":5126,
			"count":68,
			"max":[
				0.19565030932426453,
				0.19565021991729736,
				9.549774044851524e-23
			],
			"min":[
				-0.1956501305103302,
				-0.19565023481845856,
				-1.2636219263076782
			],
			"type":"VEC3"
		},
		{
			"bufferView":1,
			"componentType":5126,
			"count":68,
			"type":"VEC3"
		},
		{
			"bufferView":2,
			"componentType":5126,
			"count":68,
			"type":"VEC2"
		},
		{
			"bufferView":3,
			"componentType":5121,
			"count":68,
			"type":"VEC4"
		},
		{
			"bufferView":4,
			"componentType":5126,
			"count":68,
			"type":"VEC4"
		},
		{
			"bufferView":5,
			"componentType":5123,
			"count":312,
			"type":"SCALAR"
		},
		{
			"bufferView":6,
			"componentType":5126,
			"count":3,
			"type":"MAT4"
		},
		{
			"bufferView":7,
			"componentType":5126,
			"count":2,
			"max":[
				1
			],
			"min":[
				0.016666666666666666
			],
			"type":"SCALAR"
		},
		{
			"bufferView":8,
			"componentType":5126,
			"count":2,
			"type":"VEC3"
		},
		{
			"bufferView":9,
			"componentType":5126,
			"count":2,
			"type":"VEC4"
		},
		{
			"bufferView":10,
			"componentType":5126,
			"count":2,
			"type":"VEC3"
		},
		{
			"bufferView":11,
			"componentType":5126,
			"count":2,
			"type":"VEC3"
		},
		{
			"bufferView":12,
			"componentType":5126,
			"count":60,
			"max":[
				1
			],
			"min":[
				0.016666666666666666
			],
			"type":"SCALAR"
		},
		{
			"bufferView":13,
			"componentType":5126,
			"count":60,
			"type":"VEC4"
		},
		{
			"bufferView":14,
			"componentType":5126,
			"count":60,
			"type":"VEC3"
		},
		{
			"bufferView":15,
			"componentType":5126,
			"count":2,
			"type":"VEC3"
		},
		{
			"bufferView":16,
			"componentType":5126,
			"count":60,
			"type":"VEC4"
		},
		{
			"bufferView":17,
			"componentType":5126,
			"count":60,
			"type":"VEC3"
		}
	],
	"bufferViews":[
		{
			"buffer":0,
			"byteLength":816,
			"byteOffset":0,
			"target":34962
		},
		{
			"buffer":0,
			"byteLength":816,
			"byteOffset":816,
			"target":34962
		},
		{
			"buffer":0,
			"byteLength":544,
			"byteOffset":1632,
			"target":34962
		},
		{
			"buffer":0,
			"byteLength":272,
			"byteOffset":2176,
			"target":34962
		},
		{
			"buffer":0,
			"byteLength":1088,
			"byteOffset":2448,
			"target":34962
		},
		{
			"buffer":0,
			"byteLength":624,
			"byteOffset":3536,
			"target":34963
		},
		{
			"buffer":0,
			"byteLength":192,
			"byteOffset":4160
		},
		{
			"buffer":0,
			"byteLength":8,
			"byteOffset":4352
		},
		{
			"buffer":0,
			"byteLength":24,
			"byteOffset":4360
		},
		{
			"buffer":0,
			"byteLength":32,
			"byteOffset":4384
		},
		{
			"buffer":0,
			"byteLength":24,
			"byteOffset":4416
		},
		{
			"buffer":0,
			"byteLength":24,
			"byteOffset":4440
		},
		{
			"buffer":0,
			"byteLength":240,
			"byteOffset":4464
		},
		{
			"buffer":0,
			"byteLength":960,
			"byteOffset":4704
		},
		{
			"buffer":0,
			"byteLength":720,
			"byteOffset":5664
		},
		{
			"buffer":0,
			"byteLength":24,
			"byteOffset":6384
		},
		{
			"buffer":0,
			"byteLength":960,
			"byteOffset":6408
		},
		{
			"buffer":0,
			"byteLength":720,
			"byteOffset":7368
		}
	],
	"samplers":[
		{
			"magFilter":9729,
			"minFilter":9987
		}
	],
	"buffers":[
		{
			"byteLength":8088,
			"uri":"vfx_BalaUltramarine.bin"
		}
	]
}
