{
	"asset":{
		"generator":"Khronos glTF Blender I/O v4.3.47",
		"version":"2.0"
	},
	"scene":0,
	"scenes":[
		{
			"name":"Scene",
			"nodes":[
				0
			]
		}
	],
	"nodes":[
		{
			"mesh":0,
			"name":"Barricada3"
		}
	],
	"materials":[
		{
			"doubleSided":true,
			"name":"barricada",
			"normalTexture":{
				"index":0
			},
			"pbrMetallicRoughness":{
				"baseColorTexture":{
					"index":1
				},
				"metallicRoughnessTexture":{
					"index":2
				}
			}
		}
	],
	"meshes":[
		{
			"name":"Cylinder",
			"primitives":[
				{
					"attributes":{
						"POSITION":0,
						"NORMAL":1,
						"TEXCOORD_0":2
					},
					"indices":3,
					"material":0
				}
			]
		}
	],
	"textures":[
		{
			"sampler":0,
			"source":0
		},
		{
			"sampler":0,
			"source":1
		},
		{
			"sampler":0,
			"source":2
		}
	],
	"images":[
		{
			"mimeType":"image/png",
			"name":"barricada3_low_barricada_Normal.png",
			"uri":"barricada3_low_barricada_Normal_png.png"
		},
		{
			"mimeType":"image/png",
			"name":"barricada3_low_barricada_BaseColor.png",
			"uri":"barricada3_low_barricada_BaseColor_png.png"
		},
		{
			"mimeType":"image/png",
			"name":"barricada3_low_barricada_Metallic.png-barricada3_low_barricada_Roughness.png",
			"uri":"barricada3_low_barricada_Metallic_png-barricada3_low_barricada_Roughness_png.png"
		}
	],
	"accessors":[
		{
			"bufferView":0,
			"componentType":5126,
			"count":1131,
			"max":[
				1.782443642616272,
				3.519425868988037,
				1.4421372413635254
			],
			"min":[
				-1.68365478515625,
				-0.10579490661621094,
				-0.5947047472000122
			],
			"type":"VEC3"
		},
		{
			"bufferView":1,
			"componentType":5126,
			"count":1131,
			"type":"VEC3"
		},
		{
			"bufferView":2,
			"componentType":5126,
			"count":1131,
			"type":"VEC2"
		},
		{
			"bufferView":3,
			"componentType":5123,
			"count":4656,
			"type":"SCALAR"
		}
	],
	"bufferViews":[
		{
			"buffer":0,
			"byteLength":13572,
			"byteOffset":0,
			"target":34962
		},
		{
			"buffer":0,
			"byteLength":13572,
			"byteOffset":13572,
			"target":34962
		},
		{
			"buffer":0,
			"byteLength":9048,
			"byteOffset":27144,
			"target":34962
		},
		{
			"buffer":0,
			"byteLength":9312,
			"byteOffset":36192,
			"target":34963
		}
	],
	"samplers":[
		{
			"magFilter":9729,
			"minFilter":9987
		}
	],
	"buffers":[
		{
			"byteLength":45504,
			"uri":"Barricada3.bin"
		}
	]
}
