{
	"asset":{
		"generator":"Khronos glTF Blender I/O v4.4.55",
		"version":"2.0"
	},
	"scene":0,
	"scenes":[
		{
			"name":"Scene",
			"nodes":[
				4
			]
		}
	],
	"nodes":[
		{
			"name":"Puerta_izquierda",
			"rotation":[
				0.5289296507835388,
				0.5289296507835388,
				-0.4692904055118561,
				0.4692903161048889
			],
			"translation":[
				-1.7777795791625977,
				1.8805590867996216,
				2.860913923541375e-07
			]
		},
		{
			"name":"Puerta_derecha",
			"rotation":[
				-9.59267083544546e-08,
				4.1752063140165774e-08,
				0.7071067690849304,
				0.7071067690849304
			],
			"translation":[
				1.7467767000198364,
				1.880558967590332,
				2.8609136393242807e-07
			]
		},
		{
			"children":[
				0,
				1
			],
			"name":"Root"
		},
		{
			"mesh":0,
			"name":"Puerta_low.001",
			"skin":0
		},
		{
			"children":[
				3,
				2
			],
			"name":"Armature"
		}
	],
	"animations":[
		{
			"channels":[
				{
					"sampler":0,
					"target":{
						"node":2,
						"path":"translation"
					}
				},
				{
					"sampler":1,
					"target":{
						"node":2,
						"path":"rotation"
					}
				},
				{
					"sampler":2,
					"target":{
						"node":2,
						"path":"scale"
					}
				},
				{
					"sampler":3,
					"target":{
						"node":0,
						"path":"translation"
					}
				},
				{
					"sampler":4,
					"target":{
						"node":0,
						"path":"rotation"
					}
				},
				{
					"sampler":5,
					"target":{
						"node":0,
						"path":"scale"
					}
				},
				{
					"sampler":6,
					"target":{
						"node":1,
						"path":"translation"
					}
				},
				{
					"sampler":7,
					"target":{
						"node":1,
						"path":"rotation"
					}
				},
				{
					"sampler":8,
					"target":{
						"node":1,
						"path":"scale"
					}
				}
			],
			"name":"Abrirse",
			"samplers":[
				{
					"input":9,
					"interpolation":"STEP",
					"output":10
				},
				{
					"input":9,
					"interpolation":"STEP",
					"output":11
				},
				{
					"input":9,
					"interpolation":"STEP",
					"output":12
				},
				{
					"input":9,
					"interpolation":"STEP",
					"output":13
				},
				{
					"input":14,
					"interpolation":"LINEAR",
					"output":15
				},
				{
					"input":9,
					"interpolation":"STEP",
					"output":16
				},
				{
					"input":9,
					"interpolation":"STEP",
					"output":17
				},
				{
					"input":14,
					"interpolation":"LINEAR",
					"output":18
				},
				{
					"input":9,
					"interpolation":"STEP",
					"output":19
				}
			]
		},
		{
			"channels":[
				{
					"sampler":0,
					"target":{
						"node":2,
						"path":"translation"
					}
				},
				{
					"sampler":1,
					"target":{
						"node":2,
						"path":"rotation"
					}
				},
				{
					"sampler":2,
					"target":{
						"node":2,
						"path":"scale"
					}
				},
				{
					"sampler":3,
					"target":{
						"node":0,
						"path":"translation"
					}
				},
				{
					"sampler":4,
					"target":{
						"node":0,
						"path":"rotation"
					}
				},
				{
					"sampler":5,
					"target":{
						"node":0,
						"path":"scale"
					}
				},
				{
					"sampler":6,
					"target":{
						"node":1,
						"path":"translation"
					}
				},
				{
					"sampler":7,
					"target":{
						"node":1,
						"path":"rotation"
					}
				},
				{
					"sampler":8,
					"target":{
						"node":1,
						"path":"scale"
					}
				}
			],
			"name":"Cerrarse",
			"samplers":[
				{
					"input":9,
					"interpolation":"STEP",
					"output":20
				},
				{
					"input":9,
					"interpolation":"STEP",
					"output":21
				},
				{
					"input":9,
					"interpolation":"STEP",
					"output":22
				},
				{
					"input":9,
					"interpolation":"STEP",
					"output":23
				},
				{
					"input":14,
					"interpolation":"LINEAR",
					"output":24
				},
				{
					"input":9,
					"interpolation":"STEP",
					"output":25
				},
				{
					"input":9,
					"interpolation":"STEP",
					"output":26
				},
				{
					"input":14,
					"interpolation":"LINEAR",
					"output":27
				},
				{
					"input":9,
					"interpolation":"STEP",
					"output":28
				}
			]
		},
		{
			"channels":[
				{
					"sampler":0,
					"target":{
						"node":2,
						"path":"translation"
					}
				},
				{
					"sampler":1,
					"target":{
						"node":2,
						"path":"rotation"
					}
				},
				{
					"sampler":2,
					"target":{
						"node":2,
						"path":"scale"
					}
				},
				{
					"sampler":3,
					"target":{
						"node":0,
						"path":"translation"
					}
				},
				{
					"sampler":4,
					"target":{
						"node":0,
						"path":"rotation"
					}
				},
				{
					"sampler":5,
					"target":{
						"node":0,
						"path":"scale"
					}
				},
				{
					"sampler":6,
					"target":{
						"node":1,
						"path":"translation"
					}
				},
				{
					"sampler":7,
					"target":{
						"node":1,
						"path":"rotation"
					}
				},
				{
					"sampler":8,
					"target":{
						"node":1,
						"path":"scale"
					}
				}
			],
			"name":"Idle_abierto",
			"samplers":[
				{
					"input":29,
					"interpolation":"LINEAR",
					"output":30
				},
				{
					"input":29,
					"interpolation":"LINEAR",
					"output":31
				},
				{
					"input":29,
					"interpolation":"LINEAR",
					"output":32
				},
				{
					"input":29,
					"interpolation":"LINEAR",
					"output":33
				},
				{
					"input":29,
					"interpolation":"LINEAR",
					"output":34
				},
				{
					"input":29,
					"interpolation":"LINEAR",
					"output":35
				},
				{
					"input":29,
					"interpolation":"LINEAR",
					"output":36
				},
				{
					"input":29,
					"interpolation":"LINEAR",
					"output":37
				},
				{
					"input":29,
					"interpolation":"LINEAR",
					"output":38
				}
			]
		},
		{
			"channels":[
				{
					"sampler":0,
					"target":{
						"node":2,
						"path":"translation"
					}
				},
				{
					"sampler":1,
					"target":{
						"node":2,
						"path":"rotation"
					}
				},
				{
					"sampler":2,
					"target":{
						"node":2,
						"path":"scale"
					}
				},
				{
					"sampler":3,
					"target":{
						"node":0,
						"path":"translation"
					}
				},
				{
					"sampler":4,
					"target":{
						"node":0,
						"path":"rotation"
					}
				},
				{
					"sampler":5,
					"target":{
						"node":0,
						"path":"scale"
					}
				},
				{
					"sampler":6,
					"target":{
						"node":1,
						"path":"translation"
					}
				},
				{
					"sampler":7,
					"target":{
						"node":1,
						"path":"rotation"
					}
				},
				{
					"sampler":8,
					"target":{
						"node":1,
						"path":"scale"
					}
				}
			],
			"name":"Idle_Cerrado",
			"samplers":[
				{
					"input":29,
					"interpolation":"LINEAR",
					"output":39
				},
				{
					"input":29,
					"interpolation":"LINEAR",
					"output":40
				},
				{
					"input":29,
					"interpolation":"LINEAR",
					"output":41
				},
				{
					"input":29,
					"interpolation":"LINEAR",
					"output":42
				},
				{
					"input":29,
					"interpolation":"LINEAR",
					"output":43
				},
				{
					"input":29,
					"interpolation":"LINEAR",
					"output":44
				},
				{
					"input":29,
					"interpolation":"LINEAR",
					"output":45
				},
				{
					"input":29,
					"interpolation":"LINEAR",
					"output":46
				},
				{
					"input":29,
					"interpolation":"LINEAR",
					"output":47
				}
			]
		}
	],
	"materials":[
		{
			"doubleSided":true,
			"name":"Material.001",
			"normalTexture":{
				"index":0
			},
			"pbrMetallicRoughness":{
				"baseColorTexture":{
					"index":1
				},
				"metallicRoughnessTexture":{
					"index":2
				}
			}
		}
	],
	"meshes":[
		{
			"name":"Cube.009",
			"primitives":[
				{
					"attributes":{
						"POSITION":0,
						"NORMAL":1,
						"TEXCOORD_0":2,
						"COLOR_0":3,
						"COLOR_1":4,
						"JOINTS_0":5,
						"WEIGHTS_0":6
					},
					"indices":7,
					"material":0
				}
			]
		}
	],
	"textures":[
		{
			"sampler":0,
			"source":0
		},
		{
			"sampler":0,
			"source":1
		},
		{
			"sampler":0,
			"source":2
		}
	],
	"images":[
		{
			"mimeType":"image/png",
			"name":"P_puertalvl1_n",
			"uri":"P_puertalvl1_n.png"
		},
		{
			"mimeType":"image/png",
			"name":"P_puertalvl1_bc",
			"uri":"P_puertalvl1_bc.png"
		},
		{
			"mimeType":"image/png",
			"name":"P_puertalvl1_m-P_puertalvl1_r",
			"uri":"P_puertalvl1_m-P_puertalvl1_r.png"
		}
	],
	"skins":[
		{
			"inverseBindMatrices":8,
			"joints":[
				2,
				0,
				1
			],
			"name":"Armature"
		}
	],
	"accessors":[
		{
			"bufferView":0,
			"componentType":5126,
			"count":180,
			"max":[
				2.3458409309387207,
				4.034100532531738,
				0.32996609807014465
			],
			"min":[
				-2.3768439292907715,
				0,
				-0.32996585965156555
			],
			"type":"VEC3"
		},
		{
			"bufferView":1,
			"componentType":5126,
			"count":180,
			"type":"VEC3"
		},
		{
			"bufferView":2,
			"componentType":5126,
			"count":180,
			"type":"VEC2"
		},
		{
			"bufferView":3,
			"componentType":5121,
			"count":180,
			"normalized":true,
			"type":"VEC4"
		},
		{
			"bufferView":4,
			"componentType":5123,
			"count":180,
			"normalized":true,
			"type":"VEC4"
		},
		{
			"bufferView":5,
			"componentType":5121,
			"count":180,
			"type":"VEC4"
		},
		{
			"bufferView":6,
			"componentType":5126,
			"count":180,
			"type":"VEC4"
		},
		{
			"bufferView":7,
			"componentType":5123,
			"count":276,
			"type":"SCALAR"
		},
		{
			"bufferView":8,
			"componentType":5126,
			"count":3,
			"type":"MAT4"
		},
		{
			"bufferView":9,
			"componentType":5126,
			"count":2,
			"max":[
				1.2
			],
			"min":[
				0.04
			],
			"type":"SCALAR"
		},
		{
			"bufferView":10,
			"componentType":5126,
			"count":2,
			"type":"VEC3"
		},
		{
			"bufferView":11,
			"componentType":5126,
			"count":2,
			"type":"VEC4"
		},
		{
			"bufferView":12,
			"componentType":5126,
			"count":2,
			"type":"VEC3"
		},
		{
			"bufferView":13,
			"componentType":5126,
			"count":2,
			"type":"VEC3"
		},
		{
			"bufferView":14,
			"componentType":5126,
			"count":30,
			"max":[
				1.2
			],
			"min":[
				0.04
			],
			"type":"SCALAR"
		},
		{
			"bufferView":15,
			"componentType":5126,
			"count":30,
			"type":"VEC4"
		},
		{
			"bufferView":16,
			"componentType":5126,
			"count":2,
			"type":"VEC3"
		},
		{
			"bufferView":17,
			"componentType":5126,
			"count":2,
			"type":"VEC3"
		},
		{
			"bufferView":18,
			"componentType":5126,
			"count":30,
			"type":"VEC4"
		},
		{
			"bufferView":19,
			"componentType":5126,
			"count":2,
			"type":"VEC3"
		},
		{
			"bufferView":20,
			"componentType":5126,
			"count":2,
			"type":"VEC3"
		},
		{
			"bufferView":21,
			"componentType":5126,
			"count":2,
			"type":"VEC4"
		},
		{
			"bufferView":22,
			"componentType":5126,
			"count":2,
			"type":"VEC3"
		},
		{
			"bufferView":23,
			"componentType":5126,
			"count":2,
			"type":"VEC3"
		},
		{
			"bufferView":24,
			"componentType":5126,
			"count":30,
			"type":"VEC4"
		},
		{
			"bufferView":25,
			"componentType":5126,
			"count":2,
			"type":"VEC3"
		},
		{
			"bufferView":26,
			"componentType":5126,
			"count":2,
			"type":"VEC3"
		},
		{
			"bufferView":27,
			"componentType":5126,
			"count":30,
			"type":"VEC4"
		},
		{
			"bufferView":28,
			"componentType":5126,
			"count":2,
			"type":"VEC3"
		},
		{
			"bufferView":29,
			"componentType":5126,
			"count":1,
			"max":[
				0.04
			],
			"min":[
				0.04
			],
			"type":"SCALAR"
		},
		{
			"bufferView":30,
			"componentType":5126,
			"count":1,
			"type":"VEC3"
		},
		{
			"bufferView":31,
			"componentType":5126,
			"count":1,
			"type":"VEC4"
		},
		{
			"bufferView":32,
			"componentType":5126,
			"count":1,
			"type":"VEC3"
		},
		{
			"bufferView":33,
			"componentType":5126,
			"count":1,
			"type":"VEC3"
		},
		{
			"bufferView":34,
			"componentType":5126,
			"count":1,
			"type":"VEC4"
		},
		{
			"bufferView":35,
			"componentType":5126,
			"count":1,
			"type":"VEC3"
		},
		{
			"bufferView":36,
			"componentType":5126,
			"count":1,
			"type":"VEC3"
		},
		{
			"bufferView":37,
			"componentType":5126,
			"count":1,
			"type":"VEC4"
		},
		{
			"bufferView":38,
			"componentType":5126,
			"count":1,
			"type":"VEC3"
		},
		{
			"bufferView":39,
			"componentType":5126,
			"count":1,
			"type":"VEC3"
		},
		{
			"bufferView":40,
			"componentType":5126,
			"count":1,
			"type":"VEC4"
		},
		{
			"bufferView":41,
			"componentType":5126,
			"count":1,
			"type":"VEC3"
		},
		{
			"bufferView":42,
			"componentType":5126,
			"count":1,
			"type":"VEC3"
		},
		{
			"bufferView":43,
			"componentType":5126,
			"count":1,
			"type":"VEC4"
		},
		{
			"bufferView":44,
			"componentType":5126,
			"count":1,
			"type":"VEC3"
		},
		{
			"bufferView":45,
			"componentType":5126,
			"count":1,
			"type":"VEC3"
		},
		{
			"bufferView":46,
			"componentType":5126,
			"count":1,
			"type":"VEC4"
		},
		{
			"bufferView":47,
			"componentType":5126,
			"count":1,
			"type":"VEC3"
		}
	],
	"bufferViews":[
		{
			"buffer":0,
			"byteLength":2160,
			"byteOffset":0,
			"target":34962
		},
		{
			"buffer":0,
			"byteLength":2160,
			"byteOffset":2160,
			"target":34962
		},
		{
			"buffer":0,
			"byteLength":1440,
			"byteOffset":4320,
			"target":34962
		},
		{
			"buffer":0,
			"byteLength":720,
			"byteOffset":5760,
			"target":34962
		},
		{
			"buffer":0,
			"byteLength":1440,
			"byteOffset":6480,
			"target":34962
		},
		{
			"buffer":0,
			"byteLength":720,
			"byteOffset":7920,
			"target":34962
		},
		{
			"buffer":0,
			"byteLength":2880,
			"byteOffset":8640,
			"target":34962
		},
		{
			"buffer":0,
			"byteLength":552,
			"byteOffset":11520,
			"target":34963
		},
		{
			"buffer":0,
			"byteLength":192,
			"byteOffset":12072
		},
		{
			"buffer":0,
			"byteLength":8,
			"byteOffset":12264
		},
		{
			"buffer":0,
			"byteLength":24,
			"byteOffset":12272
		},
		{
			"buffer":0,
			"byteLength":32,
			"byteOffset":12296
		},
		{
			"buffer":0,
			"byteLength":24,
			"byteOffset":12328
		},
		{
			"buffer":0,
			"byteLength":24,
			"byteOffset":12352
		},
		{
			"buffer":0,
			"byteLength":120,
			"byteOffset":12376
		},
		{
			"buffer":0,
			"byteLength":480,
			"byteOffset":12496
		},
		{
			"buffer":0,
			"byteLength":24,
			"byteOffset":12976
		},
		{
			"buffer":0,
			"byteLength":24,
			"byteOffset":13000
		},
		{
			"buffer":0,
			"byteLength":480,
			"byteOffset":13024
		},
		{
			"buffer":0,
			"byteLength":24,
			"byteOffset":13504
		},
		{
			"buffer":0,
			"byteLength":24,
			"byteOffset":13528
		},
		{
			"buffer":0,
			"byteLength":32,
			"byteOffset":13552
		},
		{
			"buffer":0,
			"byteLength":24,
			"byteOffset":13584
		},
		{
			"buffer":0,
			"byteLength":24,
			"byteOffset":13608
		},
		{
			"buffer":0,
			"byteLength":480,
			"byteOffset":13632
		},
		{
			"buffer":0,
			"byteLength":24,
			"byteOffset":14112
		},
		{
			"buffer":0,
			"byteLength":24,
			"byteOffset":14136
		},
		{
			"buffer":0,
			"byteLength":480,
			"byteOffset":14160
		},
		{
			"buffer":0,
			"byteLength":24,
			"byteOffset":14640
		},
		{
			"buffer":0,
			"byteLength":4,
			"byteOffset":14664
		},
		{
			"buffer":0,
			"byteLength":12,
			"byteOffset":14668
		},
		{
			"buffer":0,
			"byteLength":16,
			"byteOffset":14680
		},
		{
			"buffer":0,
			"byteLength":12,
			"byteOffset":14696
		},
		{
			"buffer":0,
			"byteLength":12,
			"byteOffset":14708
		},
		{
			"buffer":0,
			"byteLength":16,
			"byteOffset":14720
		},
		{
			"buffer":0,
			"byteLength":12,
			"byteOffset":14736
		},
		{
			"buffer":0,
			"byteLength":12,
			"byteOffset":14748
		},
		{
			"buffer":0,
			"byteLength":16,
			"byteOffset":14760
		},
		{
			"buffer":0,
			"byteLength":12,
			"byteOffset":14776
		},
		{
			"buffer":0,
			"byteLength":12,
			"byteOffset":14788
		},
		{
			"buffer":0,
			"byteLength":16,
			"byteOffset":14800
		},
		{
			"buffer":0,
			"byteLength":12,
			"byteOffset":14816
		},
		{
			"buffer":0,
			"byteLength":12,
			"byteOffset":14828
		},
		{
			"buffer":0,
			"byteLength":16,
			"byteOffset":14840
		},
		{
			"buffer":0,
			"byteLength":12,
			"byteOffset":14856
		},
		{
			"buffer":0,
			"byteLength":12,
			"byteOffset":14868
		},
		{
			"buffer":0,
			"byteLength":16,
			"byteOffset":14880
		},
		{
			"buffer":0,
			"byteLength":12,
			"byteOffset":14896
		}
	],
	"samplers":[
		{
			"magFilter":9729,
			"minFilter":9987
		}
	],
	"buffers":[
		{
			"byteLength":14908,
			"uri":"p_puertalvl1_1.bin"
		}
	]
}
