{
	"asset":{
		"generator":"Khronos glTF Blender I/O v4.2.60",
		"version":"2.0"
	},
	"scene":0,
	"scenes":[
		{
			"name":"Scene",
			"nodes":[
				0
			]
		}
	],
	"nodes":[
		{
			"mesh":0,
			"name":"Pared_frontal_low.002"
		}
	],
	"materials":[
		{
			"doubleSided":true,
			"name":"estructura_MAT",
			"normalTexture":{
				"index":0
			},
			"pbrMetallicRoughness":{
				"baseColorTexture":{
					"index":1
				},
				"metallicRoughnessTexture":{
					"index":2
				}
			}
		}
	],
	"meshes":[
		{
			"name":"Cube.131",
			"primitives":[
				{
					"attributes":{
						"POSITION":0,
						"NORMAL":1,
						"TEXCOORD_0":2
					},
					"indices":3,
					"material":0
				}
			]
		}
	],
	"textures":[
		{
			"sampler":0,
			"source":0
		},
		{
			"sampler":0,
			"source":1
		},
		{
			"sampler":0,
			"source":2
		}
	],
	"images":[
		{
			"mimeType":"image/png",
			"name":"estructura_low_estructura_metal_MAT_Normal",
			"uri":"estructura_low_estructura_metal_MAT_Normal.png"
		},
		{
			"mimeType":"image/png",
			"name":"estructura_low_estructura_metal_MAT_BaseColor",
			"uri":"estructura_low_estructura_metal_MAT_BaseColor.png"
		},
		{
			"mimeType":"image/png",
			"name":"estructura_low_estructura_metal_MAT_Metallic-estructura_low_estructura_metal_MAT_Roughness",
			"uri":"estructura_low_estructura_metal_MAT_Metallic-estructura_low_estructura_metal_MAT_Roughness.png"
		}
	],
	"accessors":[
		{
			"bufferView":0,
			"componentType":5126,
			"count":1512,
			"max":[
				1.7518407106399536,
				7.974472999572754,
				2.812621593475342
			],
			"min":[
				-1.8737941980361938,
				-0.05058993026614189,
				-3.352283477783203
			],
			"type":"VEC3"
		},
		{
			"bufferView":1,
			"componentType":5126,
			"count":1512,
			"type":"VEC3"
		},
		{
			"bufferView":2,
			"componentType":5126,
			"count":1512,
			"type":"VEC2"
		},
		{
			"bufferView":3,
			"componentType":5123,
			"count":2532,
			"type":"SCALAR"
		}
	],
	"bufferViews":[
		{
			"buffer":0,
			"byteLength":18144,
			"byteOffset":0,
			"target":34962
		},
		{
			"buffer":0,
			"byteLength":18144,
			"byteOffset":18144,
			"target":34962
		},
		{
			"buffer":0,
			"byteLength":12096,
			"byteOffset":36288,
			"target":34962
		},
		{
			"buffer":0,
			"byteLength":5064,
			"byteOffset":48384,
			"target":34963
		}
	],
	"samplers":[
		{
			"magFilter":9729,
			"minFilter":9987
		}
	],
	"buffers":[
		{
			"byteLength":53448,
			"uri":"rpop_estructura_orka_v02.bin"
		}
	]
}
