{
	"asset":{
		"generator":"Khronos glTF Blender I/O v4.2.60",
		"version":"2.0"
	},
	"scene":0,
	"scenes":[
		{
			"name":"Scene",
			"nodes":[
				0
			]
		}
	],
	"nodes":[
		{
			"mesh":0,
			"name":"Pared_lateral_low.004"
		}
	],
	"materials":[
		{
			"doubleSided":true,
			"name":"estructura_MAT",
			"normalTexture":{
				"index":0
			},
			"pbrMetallicRoughness":{
				"baseColorTexture":{
					"index":1
				},
				"metallicRoughnessTexture":{
					"index":2
				}
			}
		}
	],
	"meshes":[
		{
			"name":"Cube.060",
			"primitives":[
				{
					"attributes":{
						"POSITION":0,
						"NORMAL":1,
						"TEXCOORD_0":2
					},
					"indices":3,
					"material":0
				}
			]
		}
	],
	"textures":[
		{
			"sampler":0,
			"source":0
		},
		{
			"sampler":0,
			"source":1
		},
		{
			"sampler":0,
			"source":2
		}
	],
	"images":[
		{
			"mimeType":"image/png",
			"name":"estructura_low_estructura_metal_MAT_Normal",
			"uri":"estructura_low_estructura_metal_MAT_Normal.png"
		},
		{
			"mimeType":"image/png",
			"name":"estructura_low_estructura_metal_MAT_BaseColor",
			"uri":"estructura_low_estructura_metal_MAT_BaseColor.png"
		},
		{
			"mimeType":"image/png",
			"name":"estructura_low_estructura_metal_MAT_Metallic-estructura_low_estructura_metal_MAT_Roughness",
			"uri":"estructura_low_estructura_metal_MAT_Metallic-estructura_low_estructura_metal_MAT_Roughness.png"
		}
	],
	"accessors":[
		{
			"bufferView":0,
			"componentType":5126,
			"count":1292,
			"max":[
				4.274958610534668,
				4.896812915802002,
				2.2333693504333496
			],
			"min":[
				-4.444635391235352,
				-0.017007112503051758,
				-2.0945589542388916
			],
			"type":"VEC3"
		},
		{
			"bufferView":1,
			"componentType":5126,
			"count":1292,
			"type":"VEC3"
		},
		{
			"bufferView":2,
			"componentType":5126,
			"count":1292,
			"type":"VEC2"
		},
		{
			"bufferView":3,
			"componentType":5123,
			"count":2322,
			"type":"SCALAR"
		}
	],
	"bufferViews":[
		{
			"buffer":0,
			"byteLength":15504,
			"byteOffset":0,
			"target":34962
		},
		{
			"buffer":0,
			"byteLength":15504,
			"byteOffset":15504,
			"target":34962
		},
		{
			"buffer":0,
			"byteLength":10336,
			"byteOffset":31008,
			"target":34962
		},
		{
			"buffer":0,
			"byteLength":4644,
			"byteOffset":41344,
			"target":34963
		}
	],
	"samplers":[
		{
			"magFilter":9729,
			"minFilter":9987
		}
	],
	"buffers":[
		{
			"byteLength":45988,
			"uri":"rpop_estructura_orka_v01.bin"
		}
	]
}
