{
	"asset":{
		"generator":"Khronos glTF Blender I/O v4.3.47",
		"version":"2.0"
	},
	"scene":0,
	"scenes":[
		{
			"name":"Scene",
			"nodes":[
				0,
				1,
				2,
				3
			]
		}
	],
	"nodes":[
		{
			"mesh":0,
			"name":"MediumRock1_low",
			"translation":[
				2.0371217727661133,
				-0.9028471112251282,
				-0.0012149810791015625
			]
		},
		{
			"mesh":1,
			"name":"MediumRock2_low",
			"translation":[
				2.648766040802002,
				-0.11236413568258286,
				-2.8970234394073486
			]
		},
		{
			"mesh":2,
			"name":"MediumRock3_low",
			"translation":[
				-2.9597697257995605,
				-0.11236413568258286,
				-0.0012149810791015625
			]
		},
		{
			"mesh":3,
			"name":"MediumRock4_low",
			"translation":[
				-1.7881083488464355,
				-0.11236413568258286,
				-2.3520989418029785
			]
		}
	],
	"materials":[
		{
			"doubleSided":true,
			"name":"MediumRocks",
			"normalTexture":{
				"index":0
			},
			"pbrMetallicRoughness":{
				"baseColorTexture":{
					"index":1
				},
				"metallicRoughnessTexture":{
					"index":2
				}
			}
		}
	],
	"meshes":[
		{
			"name":"Plane.002",
			"primitives":[
				{
					"attributes":{
						"POSITION":0,
						"NORMAL":1,
						"TEXCOORD_0":2
					},
					"indices":3,
					"material":0
				}
			]
		},
		{
			"name":"Plane.003",
			"primitives":[
				{
					"attributes":{
						"POSITION":4,
						"NORMAL":5,
						"TEXCOORD_0":6
					},
					"indices":7,
					"material":0
				}
			]
		},
		{
			"name":"Plane.004",
			"primitives":[
				{
					"attributes":{
						"POSITION":8,
						"NORMAL":9,
						"TEXCOORD_0":10
					},
					"indices":11,
					"material":0
				}
			]
		},
		{
			"name":"Plane.005",
			"primitives":[
				{
					"attributes":{
						"POSITION":12,
						"NORMAL":13,
						"TEXCOORD_0":14
					},
					"indices":15,
					"material":0
				}
			]
		}
	],
	"textures":[
		{
			"sampler":0,
			"source":0
		},
		{
			"sampler":0,
			"source":1
		},
		{
			"sampler":0,
			"source":2
		}
	],
	"images":[
		{
			"mimeType":"image/png",
			"name":"MediumRocks_low_MediumRocks_Normal.png",
			"uri":"MediumRocks_low_MediumRocks_Normal_png.png"
		},
		{
			"mimeType":"image/png",
			"name":"MediumRocks_low_MediumRocks_BaseColor.png",
			"uri":"MediumRocks_low_MediumRocks_BaseColor_png.png"
		},
		{
			"mimeType":"image/png",
			"name":"MediumRocks_low_MediumRocks_Metallic.png-MediumRocks_low_MediumRocks_Roughness.png",
			"uri":"MediumRocks_low_MediumRocks_Metallic_png-MediumRocks_low_MediumRocks_Roughness_png.png"
		}
	],
	"accessors":[
		{
			"bufferView":0,
			"componentType":5126,
			"count":105,
			"max":[
				1.170531988143921,
				3.309741258621216,
				0.531617283821106
			],
			"min":[
				-2.6700479984283447,
				0.7248188853263855,
				-0.5366067886352539
			],
			"type":"VEC3"
		},
		{
			"bufferView":1,
			"componentType":5126,
			"count":105,
			"type":"VEC3"
		},
		{
			"bufferView":2,
			"componentType":5126,
			"count":105,
			"type":"VEC2"
		},
		{
			"bufferView":3,
			"componentType":5123,
			"count":354,
			"type":"SCALAR"
		},
		{
			"bufferView":4,
			"componentType":5126,
			"count":59,
			"max":[
				0.7829890251159668,
				1.4056118726730347,
				0.8026726245880127
			],
			"min":[
				-2.8646633625030518,
				0.10980255901813507,
				-0.35289546847343445
			],
			"type":"VEC3"
		},
		{
			"bufferView":5,
			"componentType":5126,
			"count":59,
			"type":"VEC3"
		},
		{
			"bufferView":6,
			"componentType":5126,
			"count":59,
			"type":"VEC2"
		},
		{
			"bufferView":7,
			"componentType":5123,
			"count":222,
			"type":"SCALAR"
		},
		{
			"bufferView":8,
			"componentType":5126,
			"count":94,
			"max":[
				1.85187566280365,
				2.1578493118286133,
				0.13494662940502167
			],
			"min":[
				-0.8822498321533203,
				0.05311540141701698,
				-0.7491244673728943
			],
			"type":"VEC3"
		},
		{
			"bufferView":9,
			"componentType":5126,
			"count":94,
			"type":"VEC3"
		},
		{
			"bufferView":10,
			"componentType":5126,
			"count":94,
			"type":"VEC2"
		},
		{
			"bufferView":11,
			"componentType":5123,
			"count":360,
			"type":"SCALAR"
		},
		{
			"bufferView":12,
			"componentType":5126,
			"count":99,
			"max":[
				0.3843163251876831,
				2.415580987930298,
				0.3168993294239044
			],
			"min":[
				-1.7073938846588135,
				0.003078155219554901,
				-0.698822021484375
			],
			"type":"VEC3"
		},
		{
			"bufferView":13,
			"componentType":5126,
			"count":99,
			"type":"VEC3"
		},
		{
			"bufferView":14,
			"componentType":5126,
			"count":99,
			"type":"VEC2"
		},
		{
			"bufferView":15,
			"componentType":5123,
			"count":444,
			"type":"SCALAR"
		}
	],
	"bufferViews":[
		{
			"buffer":0,
			"byteLength":1260,
			"byteOffset":0,
			"target":34962
		},
		{
			"buffer":0,
			"byteLength":1260,
			"byteOffset":1260,
			"target":34962
		},
		{
			"buffer":0,
			"byteLength":840,
			"byteOffset":2520,
			"target":34962
		},
		{
			"buffer":0,
			"byteLength":708,
			"byteOffset":3360,
			"target":34963
		},
		{
			"buffer":0,
			"byteLength":708,
			"byteOffset":4068,
			"target":34962
		},
		{
			"buffer":0,
			"byteLength":708,
			"byteOffset":4776,
			"target":34962
		},
		{
			"buffer":0,
			"byteLength":472,
			"byteOffset":5484,
			"target":34962
		},
		{
			"buffer":0,
			"byteLength":444,
			"byteOffset":5956,
			"target":34963
		},
		{
			"buffer":0,
			"byteLength":1128,
			"byteOffset":6400,
			"target":34962
		},
		{
			"buffer":0,
			"byteLength":1128,
			"byteOffset":7528,
			"target":34962
		},
		{
			"buffer":0,
			"byteLength":752,
			"byteOffset":8656,
			"target":34962
		},
		{
			"buffer":0,
			"byteLength":720,
			"byteOffset":9408,
			"target":34963
		},
		{
			"buffer":0,
			"byteLength":1188,
			"byteOffset":10128,
			"target":34962
		},
		{
			"buffer":0,
			"byteLength":1188,
			"byteOffset":11316,
			"target":34962
		},
		{
			"buffer":0,
			"byteLength":792,
			"byteOffset":12504,
			"target":34962
		},
		{
			"buffer":0,
			"byteLength":888,
			"byteOffset":13296,
			"target":34963
		}
	],
	"samplers":[
		{
			"magFilter":9729,
			"minFilter":9987
		}
	],
	"buffers":[
		{
			"byteLength":14184,
			"uri":"MediumRocks.bin"
		}
	]
}
