{
	"asset":{
		"generator":"Khronos glTF Blender I/O v4.4.56",
		"version":"2.0"
	},
	"scene":0,
	"scenes":[
		{
			"name":"Scene",
			"nodes":[
				7
			]
		}
	],
	"nodes":[
		{
			"name":"Parte alta",
			"translation":[
				0,
				0.19504982233047485,
				0
			]
		},
		{
			"children":[
				0
			],
			"name":"ParteBaja",
			"translation":[
				0,
				0.19268953800201416,
				0
			]
		},
		{
			"name":"Plano",
			"rotation":[
				0.7071067094802856,
				0,
				-0.7071068286895752,
				0
			],
			"scale":[
				0.9999999403953552,
				0.9999998807907104,
				0.9999999403953552
			],
			"translation":[
				0,
				0.19268953800201416,
				0
			]
		},
		{
			"children":[
				1,
				2
			],
			"name":"All",
			"translation":[
				-0.9084856510162354,
				0.3465612530708313,
				3.629793643951416
			]
		},
		{
			"mesh":0,
			"name":"Cylinder.002",
			"skin":0
		},
		{
			"mesh":1,
			"name":"Cylinder.003",
			"skin":0
		},
		{
			"mesh":2,
			"name":"Plane.001",
			"skin":0
		},
		{
			"children":[
				4,
				5,
				6,
				3
			],
			"name":"Armature.002"
		}
	],
	"animations":[
		{
			"channels":[
				{
					"sampler":0,
					"target":{
						"node":3,
						"path":"translation"
					}
				},
				{
					"sampler":1,
					"target":{
						"node":3,
						"path":"rotation"
					}
				},
				{
					"sampler":2,
					"target":{
						"node":3,
						"path":"scale"
					}
				},
				{
					"sampler":3,
					"target":{
						"node":1,
						"path":"translation"
					}
				},
				{
					"sampler":4,
					"target":{
						"node":1,
						"path":"rotation"
					}
				},
				{
					"sampler":5,
					"target":{
						"node":1,
						"path":"scale"
					}
				},
				{
					"sampler":6,
					"target":{
						"node":0,
						"path":"translation"
					}
				},
				{
					"sampler":7,
					"target":{
						"node":0,
						"path":"rotation"
					}
				},
				{
					"sampler":8,
					"target":{
						"node":0,
						"path":"scale"
					}
				},
				{
					"sampler":9,
					"target":{
						"node":2,
						"path":"translation"
					}
				},
				{
					"sampler":10,
					"target":{
						"node":2,
						"path":"rotation"
					}
				},
				{
					"sampler":11,
					"target":{
						"node":2,
						"path":"scale"
					}
				}
			],
			"name":"AttackPolv",
			"samplers":[
				{
					"input":18,
					"interpolation":"STEP",
					"output":19
				},
				{
					"input":20,
					"interpolation":"LINEAR",
					"output":21
				},
				{
					"input":20,
					"interpolation":"LINEAR",
					"output":22
				},
				{
					"input":20,
					"interpolation":"LINEAR",
					"output":23
				},
				{
					"input":18,
					"interpolation":"STEP",
					"output":24
				},
				{
					"input":20,
					"interpolation":"LINEAR",
					"output":25
				},
				{
					"input":20,
					"interpolation":"LINEAR",
					"output":26
				},
				{
					"input":20,
					"interpolation":"LINEAR",
					"output":27
				},
				{
					"input":20,
					"interpolation":"LINEAR",
					"output":28
				},
				{
					"input":20,
					"interpolation":"LINEAR",
					"output":29
				},
				{
					"input":20,
					"interpolation":"LINEAR",
					"output":30
				},
				{
					"input":20,
					"interpolation":"LINEAR",
					"output":31
				}
			]
		},
		{
			"channels":[
				{
					"sampler":0,
					"target":{
						"node":3,
						"path":"translation"
					}
				},
				{
					"sampler":1,
					"target":{
						"node":3,
						"path":"rotation"
					}
				},
				{
					"sampler":2,
					"target":{
						"node":3,
						"path":"scale"
					}
				},
				{
					"sampler":3,
					"target":{
						"node":1,
						"path":"translation"
					}
				},
				{
					"sampler":4,
					"target":{
						"node":1,
						"path":"rotation"
					}
				},
				{
					"sampler":5,
					"target":{
						"node":1,
						"path":"scale"
					}
				},
				{
					"sampler":6,
					"target":{
						"node":0,
						"path":"translation"
					}
				},
				{
					"sampler":7,
					"target":{
						"node":0,
						"path":"rotation"
					}
				},
				{
					"sampler":8,
					"target":{
						"node":0,
						"path":"scale"
					}
				},
				{
					"sampler":9,
					"target":{
						"node":2,
						"path":"translation"
					}
				},
				{
					"sampler":10,
					"target":{
						"node":2,
						"path":"rotation"
					}
				},
				{
					"sampler":11,
					"target":{
						"node":2,
						"path":"scale"
					}
				}
			],
			"name":"AttackPolv.001",
			"samplers":[
				{
					"input":18,
					"interpolation":"STEP",
					"output":32
				},
				{
					"input":20,
					"interpolation":"LINEAR",
					"output":33
				},
				{
					"input":20,
					"interpolation":"LINEAR",
					"output":34
				},
				{
					"input":20,
					"interpolation":"LINEAR",
					"output":35
				},
				{
					"input":18,
					"interpolation":"STEP",
					"output":36
				},
				{
					"input":20,
					"interpolation":"LINEAR",
					"output":37
				},
				{
					"input":20,
					"interpolation":"LINEAR",
					"output":38
				},
				{
					"input":20,
					"interpolation":"LINEAR",
					"output":39
				},
				{
					"input":20,
					"interpolation":"LINEAR",
					"output":40
				},
				{
					"input":20,
					"interpolation":"LINEAR",
					"output":41
				},
				{
					"input":20,
					"interpolation":"LINEAR",
					"output":42
				},
				{
					"input":20,
					"interpolation":"LINEAR",
					"output":43
				}
			]
		},
		{
			"channels":[
				{
					"sampler":0,
					"target":{
						"node":3,
						"path":"translation"
					}
				},
				{
					"sampler":1,
					"target":{
						"node":3,
						"path":"rotation"
					}
				},
				{
					"sampler":2,
					"target":{
						"node":3,
						"path":"scale"
					}
				},
				{
					"sampler":3,
					"target":{
						"node":1,
						"path":"translation"
					}
				},
				{
					"sampler":4,
					"target":{
						"node":1,
						"path":"rotation"
					}
				},
				{
					"sampler":5,
					"target":{
						"node":1,
						"path":"scale"
					}
				},
				{
					"sampler":6,
					"target":{
						"node":0,
						"path":"translation"
					}
				},
				{
					"sampler":7,
					"target":{
						"node":0,
						"path":"rotation"
					}
				},
				{
					"sampler":8,
					"target":{
						"node":0,
						"path":"scale"
					}
				},
				{
					"sampler":9,
					"target":{
						"node":2,
						"path":"translation"
					}
				},
				{
					"sampler":10,
					"target":{
						"node":2,
						"path":"rotation"
					}
				},
				{
					"sampler":11,
					"target":{
						"node":2,
						"path":"scale"
					}
				}
			],
			"name":"AttackTank",
			"samplers":[
				{
					"input":44,
					"interpolation":"STEP",
					"output":45
				},
				{
					"input":44,
					"interpolation":"STEP",
					"output":46
				},
				{
					"input":44,
					"interpolation":"STEP",
					"output":47
				},
				{
					"input":44,
					"interpolation":"STEP",
					"output":48
				},
				{
					"input":44,
					"interpolation":"STEP",
					"output":49
				},
				{
					"input":44,
					"interpolation":"STEP",
					"output":50
				},
				{
					"input":44,
					"interpolation":"STEP",
					"output":51
				},
				{
					"input":44,
					"interpolation":"STEP",
					"output":52
				},
				{
					"input":44,
					"interpolation":"STEP",
					"output":53
				},
				{
					"input":44,
					"interpolation":"STEP",
					"output":54
				},
				{
					"input":44,
					"interpolation":"STEP",
					"output":55
				},
				{
					"input":44,
					"interpolation":"STEP",
					"output":56
				}
			]
		},
		{
			"channels":[
				{
					"sampler":0,
					"target":{
						"node":3,
						"path":"translation"
					}
				},
				{
					"sampler":1,
					"target":{
						"node":3,
						"path":"rotation"
					}
				},
				{
					"sampler":2,
					"target":{
						"node":3,
						"path":"scale"
					}
				},
				{
					"sampler":3,
					"target":{
						"node":1,
						"path":"translation"
					}
				},
				{
					"sampler":4,
					"target":{
						"node":1,
						"path":"rotation"
					}
				},
				{
					"sampler":5,
					"target":{
						"node":1,
						"path":"scale"
					}
				},
				{
					"sampler":6,
					"target":{
						"node":0,
						"path":"translation"
					}
				},
				{
					"sampler":7,
					"target":{
						"node":0,
						"path":"rotation"
					}
				},
				{
					"sampler":8,
					"target":{
						"node":0,
						"path":"scale"
					}
				},
				{
					"sampler":9,
					"target":{
						"node":2,
						"path":"translation"
					}
				},
				{
					"sampler":10,
					"target":{
						"node":2,
						"path":"rotation"
					}
				},
				{
					"sampler":11,
					"target":{
						"node":2,
						"path":"scale"
					}
				}
			],
			"name":"BerserkParticles",
			"samplers":[
				{
					"input":18,
					"interpolation":"STEP",
					"output":57
				},
				{
					"input":18,
					"interpolation":"STEP",
					"output":58
				},
				{
					"input":18,
					"interpolation":"STEP",
					"output":59
				},
				{
					"input":18,
					"interpolation":"STEP",
					"output":60
				},
				{
					"input":18,
					"interpolation":"STEP",
					"output":61
				},
				{
					"input":18,
					"interpolation":"STEP",
					"output":62
				},
				{
					"input":18,
					"interpolation":"STEP",
					"output":63
				},
				{
					"input":18,
					"interpolation":"STEP",
					"output":64
				},
				{
					"input":18,
					"interpolation":"STEP",
					"output":65
				},
				{
					"input":18,
					"interpolation":"STEP",
					"output":66
				},
				{
					"input":18,
					"interpolation":"STEP",
					"output":67
				},
				{
					"input":20,
					"interpolation":"LINEAR",
					"output":68
				}
			]
		},
		{
			"channels":[
				{
					"sampler":0,
					"target":{
						"node":3,
						"path":"translation"
					}
				},
				{
					"sampler":1,
					"target":{
						"node":3,
						"path":"rotation"
					}
				},
				{
					"sampler":2,
					"target":{
						"node":3,
						"path":"scale"
					}
				},
				{
					"sampler":3,
					"target":{
						"node":1,
						"path":"translation"
					}
				},
				{
					"sampler":4,
					"target":{
						"node":1,
						"path":"rotation"
					}
				},
				{
					"sampler":5,
					"target":{
						"node":1,
						"path":"scale"
					}
				},
				{
					"sampler":6,
					"target":{
						"node":0,
						"path":"translation"
					}
				},
				{
					"sampler":7,
					"target":{
						"node":0,
						"path":"rotation"
					}
				},
				{
					"sampler":8,
					"target":{
						"node":0,
						"path":"scale"
					}
				},
				{
					"sampler":9,
					"target":{
						"node":2,
						"path":"translation"
					}
				},
				{
					"sampler":10,
					"target":{
						"node":2,
						"path":"rotation"
					}
				},
				{
					"sampler":11,
					"target":{
						"node":2,
						"path":"scale"
					}
				}
			],
			"name":"BerserkParticles-Armature.001",
			"samplers":[
				{
					"input":18,
					"interpolation":"STEP",
					"output":69
				},
				{
					"input":18,
					"interpolation":"STEP",
					"output":70
				},
				{
					"input":18,
					"interpolation":"STEP",
					"output":71
				},
				{
					"input":18,
					"interpolation":"STEP",
					"output":72
				},
				{
					"input":18,
					"interpolation":"STEP",
					"output":73
				},
				{
					"input":18,
					"interpolation":"STEP",
					"output":74
				},
				{
					"input":18,
					"interpolation":"STEP",
					"output":75
				},
				{
					"input":18,
					"interpolation":"STEP",
					"output":76
				},
				{
					"input":18,
					"interpolation":"STEP",
					"output":77
				},
				{
					"input":18,
					"interpolation":"STEP",
					"output":78
				},
				{
					"input":20,
					"interpolation":"LINEAR",
					"output":79
				},
				{
					"input":18,
					"interpolation":"STEP",
					"output":80
				}
			]
		},
		{
			"channels":[
				{
					"sampler":0,
					"target":{
						"node":3,
						"path":"translation"
					}
				},
				{
					"sampler":1,
					"target":{
						"node":3,
						"path":"rotation"
					}
				},
				{
					"sampler":2,
					"target":{
						"node":3,
						"path":"scale"
					}
				},
				{
					"sampler":3,
					"target":{
						"node":1,
						"path":"translation"
					}
				},
				{
					"sampler":4,
					"target":{
						"node":1,
						"path":"rotation"
					}
				},
				{
					"sampler":5,
					"target":{
						"node":1,
						"path":"scale"
					}
				},
				{
					"sampler":6,
					"target":{
						"node":0,
						"path":"translation"
					}
				},
				{
					"sampler":7,
					"target":{
						"node":0,
						"path":"rotation"
					}
				},
				{
					"sampler":8,
					"target":{
						"node":0,
						"path":"scale"
					}
				},
				{
					"sampler":9,
					"target":{
						"node":2,
						"path":"translation"
					}
				},
				{
					"sampler":10,
					"target":{
						"node":2,
						"path":"rotation"
					}
				},
				{
					"sampler":11,
					"target":{
						"node":2,
						"path":"scale"
					}
				}
			],
			"name":"BerserkTank.001",
			"samplers":[
				{
					"input":44,
					"interpolation":"STEP",
					"output":81
				},
				{
					"input":44,
					"interpolation":"STEP",
					"output":82
				},
				{
					"input":44,
					"interpolation":"STEP",
					"output":83
				},
				{
					"input":44,
					"interpolation":"STEP",
					"output":84
				},
				{
					"input":44,
					"interpolation":"STEP",
					"output":85
				},
				{
					"input":44,
					"interpolation":"STEP",
					"output":86
				},
				{
					"input":44,
					"interpolation":"STEP",
					"output":87
				},
				{
					"input":44,
					"interpolation":"STEP",
					"output":88
				},
				{
					"input":44,
					"interpolation":"STEP",
					"output":89
				},
				{
					"input":44,
					"interpolation":"STEP",
					"output":90
				},
				{
					"input":44,
					"interpolation":"STEP",
					"output":91
				},
				{
					"input":44,
					"interpolation":"STEP",
					"output":92
				}
			]
		},
		{
			"channels":[
				{
					"sampler":0,
					"target":{
						"node":3,
						"path":"translation"
					}
				},
				{
					"sampler":1,
					"target":{
						"node":3,
						"path":"rotation"
					}
				},
				{
					"sampler":2,
					"target":{
						"node":3,
						"path":"scale"
					}
				},
				{
					"sampler":3,
					"target":{
						"node":1,
						"path":"translation"
					}
				},
				{
					"sampler":4,
					"target":{
						"node":1,
						"path":"rotation"
					}
				},
				{
					"sampler":5,
					"target":{
						"node":1,
						"path":"scale"
					}
				},
				{
					"sampler":6,
					"target":{
						"node":0,
						"path":"translation"
					}
				},
				{
					"sampler":7,
					"target":{
						"node":0,
						"path":"rotation"
					}
				},
				{
					"sampler":8,
					"target":{
						"node":0,
						"path":"scale"
					}
				},
				{
					"sampler":9,
					"target":{
						"node":2,
						"path":"translation"
					}
				},
				{
					"sampler":10,
					"target":{
						"node":2,
						"path":"rotation"
					}
				},
				{
					"sampler":11,
					"target":{
						"node":2,
						"path":"scale"
					}
				}
			],
			"name":"DashTank",
			"samplers":[
				{
					"input":93,
					"interpolation":"STEP",
					"output":94
				},
				{
					"input":93,
					"interpolation":"STEP",
					"output":95
				},
				{
					"input":93,
					"interpolation":"STEP",
					"output":96
				},
				{
					"input":93,
					"interpolation":"STEP",
					"output":97
				},
				{
					"input":93,
					"interpolation":"STEP",
					"output":98
				},
				{
					"input":93,
					"interpolation":"STEP",
					"output":99
				},
				{
					"input":93,
					"interpolation":"STEP",
					"output":100
				},
				{
					"input":93,
					"interpolation":"STEP",
					"output":101
				},
				{
					"input":93,
					"interpolation":"STEP",
					"output":102
				},
				{
					"input":93,
					"interpolation":"STEP",
					"output":103
				},
				{
					"input":93,
					"interpolation":"STEP",
					"output":104
				},
				{
					"input":93,
					"interpolation":"STEP",
					"output":105
				}
			]
		},
		{
			"channels":[
				{
					"sampler":0,
					"target":{
						"node":3,
						"path":"translation"
					}
				},
				{
					"sampler":1,
					"target":{
						"node":3,
						"path":"rotation"
					}
				},
				{
					"sampler":2,
					"target":{
						"node":3,
						"path":"scale"
					}
				},
				{
					"sampler":3,
					"target":{
						"node":1,
						"path":"translation"
					}
				},
				{
					"sampler":4,
					"target":{
						"node":1,
						"path":"rotation"
					}
				},
				{
					"sampler":5,
					"target":{
						"node":1,
						"path":"scale"
					}
				},
				{
					"sampler":6,
					"target":{
						"node":0,
						"path":"translation"
					}
				},
				{
					"sampler":7,
					"target":{
						"node":0,
						"path":"rotation"
					}
				},
				{
					"sampler":8,
					"target":{
						"node":0,
						"path":"scale"
					}
				},
				{
					"sampler":9,
					"target":{
						"node":2,
						"path":"translation"
					}
				},
				{
					"sampler":10,
					"target":{
						"node":2,
						"path":"rotation"
					}
				},
				{
					"sampler":11,
					"target":{
						"node":2,
						"path":"scale"
					}
				}
			],
			"name":"DeadTank",
			"samplers":[
				{
					"input":106,
					"interpolation":"STEP",
					"output":107
				},
				{
					"input":106,
					"interpolation":"STEP",
					"output":108
				},
				{
					"input":106,
					"interpolation":"STEP",
					"output":109
				},
				{
					"input":106,
					"interpolation":"STEP",
					"output":110
				},
				{
					"input":106,
					"interpolation":"STEP",
					"output":111
				},
				{
					"input":106,
					"interpolation":"STEP",
					"output":112
				},
				{
					"input":106,
					"interpolation":"STEP",
					"output":113
				},
				{
					"input":106,
					"interpolation":"STEP",
					"output":114
				},
				{
					"input":106,
					"interpolation":"STEP",
					"output":115
				},
				{
					"input":106,
					"interpolation":"STEP",
					"output":116
				},
				{
					"input":106,
					"interpolation":"STEP",
					"output":117
				},
				{
					"input":106,
					"interpolation":"STEP",
					"output":118
				}
			]
		},
		{
			"channels":[
				{
					"sampler":0,
					"target":{
						"node":3,
						"path":"translation"
					}
				},
				{
					"sampler":1,
					"target":{
						"node":3,
						"path":"rotation"
					}
				},
				{
					"sampler":2,
					"target":{
						"node":3,
						"path":"scale"
					}
				},
				{
					"sampler":3,
					"target":{
						"node":1,
						"path":"translation"
					}
				},
				{
					"sampler":4,
					"target":{
						"node":1,
						"path":"rotation"
					}
				},
				{
					"sampler":5,
					"target":{
						"node":1,
						"path":"scale"
					}
				},
				{
					"sampler":6,
					"target":{
						"node":0,
						"path":"translation"
					}
				},
				{
					"sampler":7,
					"target":{
						"node":0,
						"path":"rotation"
					}
				},
				{
					"sampler":8,
					"target":{
						"node":0,
						"path":"scale"
					}
				},
				{
					"sampler":9,
					"target":{
						"node":2,
						"path":"translation"
					}
				},
				{
					"sampler":10,
					"target":{
						"node":2,
						"path":"rotation"
					}
				},
				{
					"sampler":11,
					"target":{
						"node":2,
						"path":"scale"
					}
				}
			],
			"name":"DetectTank",
			"samplers":[
				{
					"input":119,
					"interpolation":"STEP",
					"output":120
				},
				{
					"input":119,
					"interpolation":"STEP",
					"output":121
				},
				{
					"input":119,
					"interpolation":"STEP",
					"output":122
				},
				{
					"input":119,
					"interpolation":"STEP",
					"output":123
				},
				{
					"input":119,
					"interpolation":"STEP",
					"output":124
				},
				{
					"input":119,
					"interpolation":"STEP",
					"output":125
				},
				{
					"input":119,
					"interpolation":"STEP",
					"output":126
				},
				{
					"input":119,
					"interpolation":"STEP",
					"output":127
				},
				{
					"input":119,
					"interpolation":"STEP",
					"output":128
				},
				{
					"input":119,
					"interpolation":"STEP",
					"output":129
				},
				{
					"input":119,
					"interpolation":"STEP",
					"output":130
				},
				{
					"input":119,
					"interpolation":"STEP",
					"output":131
				}
			]
		},
		{
			"channels":[
				{
					"sampler":0,
					"target":{
						"node":3,
						"path":"translation"
					}
				},
				{
					"sampler":1,
					"target":{
						"node":3,
						"path":"rotation"
					}
				},
				{
					"sampler":2,
					"target":{
						"node":3,
						"path":"scale"
					}
				},
				{
					"sampler":3,
					"target":{
						"node":1,
						"path":"translation"
					}
				},
				{
					"sampler":4,
					"target":{
						"node":1,
						"path":"rotation"
					}
				},
				{
					"sampler":5,
					"target":{
						"node":1,
						"path":"scale"
					}
				},
				{
					"sampler":6,
					"target":{
						"node":0,
						"path":"translation"
					}
				},
				{
					"sampler":7,
					"target":{
						"node":0,
						"path":"rotation"
					}
				},
				{
					"sampler":8,
					"target":{
						"node":0,
						"path":"scale"
					}
				},
				{
					"sampler":9,
					"target":{
						"node":2,
						"path":"translation"
					}
				},
				{
					"sampler":10,
					"target":{
						"node":2,
						"path":"rotation"
					}
				},
				{
					"sampler":11,
					"target":{
						"node":2,
						"path":"scale"
					}
				}
			],
			"name":"HitTank",
			"samplers":[
				{
					"input":106,
					"interpolation":"STEP",
					"output":132
				},
				{
					"input":106,
					"interpolation":"STEP",
					"output":133
				},
				{
					"input":106,
					"interpolation":"STEP",
					"output":134
				},
				{
					"input":106,
					"interpolation":"STEP",
					"output":135
				},
				{
					"input":106,
					"interpolation":"STEP",
					"output":136
				},
				{
					"input":106,
					"interpolation":"STEP",
					"output":137
				},
				{
					"input":106,
					"interpolation":"STEP",
					"output":138
				},
				{
					"input":106,
					"interpolation":"STEP",
					"output":139
				},
				{
					"input":106,
					"interpolation":"STEP",
					"output":140
				},
				{
					"input":106,
					"interpolation":"STEP",
					"output":141
				},
				{
					"input":106,
					"interpolation":"STEP",
					"output":142
				},
				{
					"input":106,
					"interpolation":"STEP",
					"output":143
				}
			]
		},
		{
			"channels":[
				{
					"sampler":0,
					"target":{
						"node":3,
						"path":"translation"
					}
				},
				{
					"sampler":1,
					"target":{
						"node":3,
						"path":"rotation"
					}
				},
				{
					"sampler":2,
					"target":{
						"node":3,
						"path":"scale"
					}
				},
				{
					"sampler":3,
					"target":{
						"node":1,
						"path":"translation"
					}
				},
				{
					"sampler":4,
					"target":{
						"node":1,
						"path":"rotation"
					}
				},
				{
					"sampler":5,
					"target":{
						"node":1,
						"path":"scale"
					}
				},
				{
					"sampler":6,
					"target":{
						"node":0,
						"path":"translation"
					}
				},
				{
					"sampler":7,
					"target":{
						"node":0,
						"path":"rotation"
					}
				},
				{
					"sampler":8,
					"target":{
						"node":0,
						"path":"scale"
					}
				},
				{
					"sampler":9,
					"target":{
						"node":2,
						"path":"translation"
					}
				},
				{
					"sampler":10,
					"target":{
						"node":2,
						"path":"rotation"
					}
				},
				{
					"sampler":11,
					"target":{
						"node":2,
						"path":"scale"
					}
				}
			],
			"name":"Idle",
			"samplers":[
				{
					"input":144,
					"interpolation":"STEP",
					"output":145
				},
				{
					"input":144,
					"interpolation":"STEP",
					"output":146
				},
				{
					"input":144,
					"interpolation":"STEP",
					"output":147
				},
				{
					"input":144,
					"interpolation":"STEP",
					"output":148
				},
				{
					"input":144,
					"interpolation":"STEP",
					"output":149
				},
				{
					"input":144,
					"interpolation":"STEP",
					"output":150
				},
				{
					"input":144,
					"interpolation":"STEP",
					"output":151
				},
				{
					"input":144,
					"interpolation":"STEP",
					"output":152
				},
				{
					"input":144,
					"interpolation":"STEP",
					"output":153
				},
				{
					"input":144,
					"interpolation":"STEP",
					"output":154
				},
				{
					"input":144,
					"interpolation":"STEP",
					"output":155
				},
				{
					"input":144,
					"interpolation":"STEP",
					"output":156
				}
			]
		},
		{
			"channels":[
				{
					"sampler":0,
					"target":{
						"node":3,
						"path":"translation"
					}
				},
				{
					"sampler":1,
					"target":{
						"node":3,
						"path":"rotation"
					}
				},
				{
					"sampler":2,
					"target":{
						"node":3,
						"path":"scale"
					}
				},
				{
					"sampler":3,
					"target":{
						"node":1,
						"path":"translation"
					}
				},
				{
					"sampler":4,
					"target":{
						"node":1,
						"path":"rotation"
					}
				},
				{
					"sampler":5,
					"target":{
						"node":1,
						"path":"scale"
					}
				},
				{
					"sampler":6,
					"target":{
						"node":0,
						"path":"translation"
					}
				},
				{
					"sampler":7,
					"target":{
						"node":0,
						"path":"rotation"
					}
				},
				{
					"sampler":8,
					"target":{
						"node":0,
						"path":"scale"
					}
				},
				{
					"sampler":9,
					"target":{
						"node":2,
						"path":"translation"
					}
				},
				{
					"sampler":10,
					"target":{
						"node":2,
						"path":"rotation"
					}
				},
				{
					"sampler":11,
					"target":{
						"node":2,
						"path":"scale"
					}
				}
			],
			"name":"IdleTank.001",
			"samplers":[
				{
					"input":157,
					"interpolation":"STEP",
					"output":158
				},
				{
					"input":157,
					"interpolation":"STEP",
					"output":159
				},
				{
					"input":157,
					"interpolation":"STEP",
					"output":160
				},
				{
					"input":157,
					"interpolation":"STEP",
					"output":161
				},
				{
					"input":157,
					"interpolation":"STEP",
					"output":162
				},
				{
					"input":157,
					"interpolation":"STEP",
					"output":163
				},
				{
					"input":157,
					"interpolation":"STEP",
					"output":164
				},
				{
					"input":157,
					"interpolation":"STEP",
					"output":165
				},
				{
					"input":157,
					"interpolation":"STEP",
					"output":166
				},
				{
					"input":157,
					"interpolation":"STEP",
					"output":167
				},
				{
					"input":157,
					"interpolation":"STEP",
					"output":168
				},
				{
					"input":157,
					"interpolation":"STEP",
					"output":169
				}
			]
		},
		{
			"channels":[
				{
					"sampler":0,
					"target":{
						"node":3,
						"path":"translation"
					}
				},
				{
					"sampler":1,
					"target":{
						"node":3,
						"path":"rotation"
					}
				},
				{
					"sampler":2,
					"target":{
						"node":3,
						"path":"scale"
					}
				},
				{
					"sampler":3,
					"target":{
						"node":1,
						"path":"translation"
					}
				},
				{
					"sampler":4,
					"target":{
						"node":1,
						"path":"rotation"
					}
				},
				{
					"sampler":5,
					"target":{
						"node":1,
						"path":"scale"
					}
				},
				{
					"sampler":6,
					"target":{
						"node":0,
						"path":"translation"
					}
				},
				{
					"sampler":7,
					"target":{
						"node":0,
						"path":"rotation"
					}
				},
				{
					"sampler":8,
					"target":{
						"node":0,
						"path":"scale"
					}
				},
				{
					"sampler":9,
					"target":{
						"node":2,
						"path":"translation"
					}
				},
				{
					"sampler":10,
					"target":{
						"node":2,
						"path":"rotation"
					}
				},
				{
					"sampler":11,
					"target":{
						"node":2,
						"path":"scale"
					}
				}
			],
			"name":"NoAttackPolv",
			"samplers":[
				{
					"input":18,
					"interpolation":"STEP",
					"output":170
				},
				{
					"input":18,
					"interpolation":"STEP",
					"output":171
				},
				{
					"input":18,
					"interpolation":"STEP",
					"output":172
				},
				{
					"input":18,
					"interpolation":"STEP",
					"output":173
				},
				{
					"input":18,
					"interpolation":"STEP",
					"output":174
				},
				{
					"input":18,
					"interpolation":"STEP",
					"output":175
				},
				{
					"input":18,
					"interpolation":"STEP",
					"output":176
				},
				{
					"input":18,
					"interpolation":"STEP",
					"output":177
				},
				{
					"input":18,
					"interpolation":"STEP",
					"output":178
				},
				{
					"input":18,
					"interpolation":"STEP",
					"output":179
				},
				{
					"input":18,
					"interpolation":"STEP",
					"output":180
				},
				{
					"input":18,
					"interpolation":"STEP",
					"output":181
				}
			]
		},
		{
			"channels":[
				{
					"sampler":0,
					"target":{
						"node":3,
						"path":"translation"
					}
				},
				{
					"sampler":1,
					"target":{
						"node":3,
						"path":"rotation"
					}
				},
				{
					"sampler":2,
					"target":{
						"node":3,
						"path":"scale"
					}
				},
				{
					"sampler":3,
					"target":{
						"node":1,
						"path":"translation"
					}
				},
				{
					"sampler":4,
					"target":{
						"node":1,
						"path":"rotation"
					}
				},
				{
					"sampler":5,
					"target":{
						"node":1,
						"path":"scale"
					}
				},
				{
					"sampler":6,
					"target":{
						"node":0,
						"path":"translation"
					}
				},
				{
					"sampler":7,
					"target":{
						"node":0,
						"path":"rotation"
					}
				},
				{
					"sampler":8,
					"target":{
						"node":0,
						"path":"scale"
					}
				},
				{
					"sampler":9,
					"target":{
						"node":2,
						"path":"translation"
					}
				},
				{
					"sampler":10,
					"target":{
						"node":2,
						"path":"rotation"
					}
				},
				{
					"sampler":11,
					"target":{
						"node":2,
						"path":"scale"
					}
				}
			],
			"name":"NoBerserk",
			"samplers":[
				{
					"input":18,
					"interpolation":"STEP",
					"output":182
				},
				{
					"input":18,
					"interpolation":"STEP",
					"output":183
				},
				{
					"input":18,
					"interpolation":"STEP",
					"output":184
				},
				{
					"input":18,
					"interpolation":"STEP",
					"output":185
				},
				{
					"input":18,
					"interpolation":"STEP",
					"output":186
				},
				{
					"input":18,
					"interpolation":"STEP",
					"output":187
				},
				{
					"input":18,
					"interpolation":"STEP",
					"output":188
				},
				{
					"input":18,
					"interpolation":"STEP",
					"output":189
				},
				{
					"input":18,
					"interpolation":"STEP",
					"output":190
				},
				{
					"input":18,
					"interpolation":"STEP",
					"output":191
				},
				{
					"input":18,
					"interpolation":"STEP",
					"output":192
				},
				{
					"input":20,
					"interpolation":"LINEAR",
					"output":193
				}
			]
		},
		{
			"channels":[
				{
					"sampler":0,
					"target":{
						"node":3,
						"path":"translation"
					}
				},
				{
					"sampler":1,
					"target":{
						"node":3,
						"path":"rotation"
					}
				},
				{
					"sampler":2,
					"target":{
						"node":3,
						"path":"scale"
					}
				},
				{
					"sampler":3,
					"target":{
						"node":1,
						"path":"translation"
					}
				},
				{
					"sampler":4,
					"target":{
						"node":1,
						"path":"rotation"
					}
				},
				{
					"sampler":5,
					"target":{
						"node":1,
						"path":"scale"
					}
				},
				{
					"sampler":6,
					"target":{
						"node":0,
						"path":"translation"
					}
				},
				{
					"sampler":7,
					"target":{
						"node":0,
						"path":"rotation"
					}
				},
				{
					"sampler":8,
					"target":{
						"node":0,
						"path":"scale"
					}
				},
				{
					"sampler":9,
					"target":{
						"node":2,
						"path":"translation"
					}
				},
				{
					"sampler":10,
					"target":{
						"node":2,
						"path":"rotation"
					}
				},
				{
					"sampler":11,
					"target":{
						"node":2,
						"path":"scale"
					}
				}
			],
			"name":"NoBerserk-Armature.001",
			"samplers":[
				{
					"input":18,
					"interpolation":"STEP",
					"output":194
				},
				{
					"input":18,
					"interpolation":"STEP",
					"output":195
				},
				{
					"input":18,
					"interpolation":"STEP",
					"output":196
				},
				{
					"input":18,
					"interpolation":"STEP",
					"output":197
				},
				{
					"input":18,
					"interpolation":"STEP",
					"output":198
				},
				{
					"input":18,
					"interpolation":"STEP",
					"output":199
				},
				{
					"input":18,
					"interpolation":"STEP",
					"output":200
				},
				{
					"input":18,
					"interpolation":"STEP",
					"output":201
				},
				{
					"input":18,
					"interpolation":"STEP",
					"output":202
				},
				{
					"input":18,
					"interpolation":"STEP",
					"output":203
				},
				{
					"input":18,
					"interpolation":"STEP",
					"output":204
				},
				{
					"input":18,
					"interpolation":"STEP",
					"output":205
				}
			]
		},
		{
			"channels":[
				{
					"sampler":0,
					"target":{
						"node":3,
						"path":"translation"
					}
				},
				{
					"sampler":1,
					"target":{
						"node":3,
						"path":"rotation"
					}
				},
				{
					"sampler":2,
					"target":{
						"node":3,
						"path":"scale"
					}
				},
				{
					"sampler":3,
					"target":{
						"node":1,
						"path":"translation"
					}
				},
				{
					"sampler":4,
					"target":{
						"node":1,
						"path":"rotation"
					}
				},
				{
					"sampler":5,
					"target":{
						"node":1,
						"path":"scale"
					}
				},
				{
					"sampler":6,
					"target":{
						"node":0,
						"path":"translation"
					}
				},
				{
					"sampler":7,
					"target":{
						"node":0,
						"path":"rotation"
					}
				},
				{
					"sampler":8,
					"target":{
						"node":0,
						"path":"scale"
					}
				},
				{
					"sampler":9,
					"target":{
						"node":2,
						"path":"translation"
					}
				},
				{
					"sampler":10,
					"target":{
						"node":2,
						"path":"rotation"
					}
				},
				{
					"sampler":11,
					"target":{
						"node":2,
						"path":"scale"
					}
				}
			],
			"name":"StuneTank",
			"samplers":[
				{
					"input":206,
					"interpolation":"STEP",
					"output":207
				},
				{
					"input":206,
					"interpolation":"STEP",
					"output":208
				},
				{
					"input":206,
					"interpolation":"STEP",
					"output":209
				},
				{
					"input":206,
					"interpolation":"STEP",
					"output":210
				},
				{
					"input":206,
					"interpolation":"STEP",
					"output":211
				},
				{
					"input":206,
					"interpolation":"STEP",
					"output":212
				},
				{
					"input":206,
					"interpolation":"STEP",
					"output":213
				},
				{
					"input":206,
					"interpolation":"STEP",
					"output":214
				},
				{
					"input":206,
					"interpolation":"STEP",
					"output":215
				},
				{
					"input":206,
					"interpolation":"STEP",
					"output":216
				},
				{
					"input":206,
					"interpolation":"STEP",
					"output":217
				},
				{
					"input":206,
					"interpolation":"STEP",
					"output":218
				}
			]
		},
		{
			"channels":[
				{
					"sampler":0,
					"target":{
						"node":3,
						"path":"translation"
					}
				},
				{
					"sampler":1,
					"target":{
						"node":3,
						"path":"rotation"
					}
				},
				{
					"sampler":2,
					"target":{
						"node":3,
						"path":"scale"
					}
				},
				{
					"sampler":3,
					"target":{
						"node":1,
						"path":"translation"
					}
				},
				{
					"sampler":4,
					"target":{
						"node":1,
						"path":"rotation"
					}
				},
				{
					"sampler":5,
					"target":{
						"node":1,
						"path":"scale"
					}
				},
				{
					"sampler":6,
					"target":{
						"node":0,
						"path":"translation"
					}
				},
				{
					"sampler":7,
					"target":{
						"node":0,
						"path":"rotation"
					}
				},
				{
					"sampler":8,
					"target":{
						"node":0,
						"path":"scale"
					}
				},
				{
					"sampler":9,
					"target":{
						"node":2,
						"path":"translation"
					}
				},
				{
					"sampler":10,
					"target":{
						"node":2,
						"path":"rotation"
					}
				},
				{
					"sampler":11,
					"target":{
						"node":2,
						"path":"scale"
					}
				}
			],
			"name":"WaaghTank",
			"samplers":[
				{
					"input":219,
					"interpolation":"STEP",
					"output":220
				},
				{
					"input":219,
					"interpolation":"STEP",
					"output":221
				},
				{
					"input":219,
					"interpolation":"STEP",
					"output":222
				},
				{
					"input":219,
					"interpolation":"STEP",
					"output":223
				},
				{
					"input":219,
					"interpolation":"STEP",
					"output":224
				},
				{
					"input":219,
					"interpolation":"STEP",
					"output":225
				},
				{
					"input":219,
					"interpolation":"STEP",
					"output":226
				},
				{
					"input":219,
					"interpolation":"STEP",
					"output":227
				},
				{
					"input":219,
					"interpolation":"STEP",
					"output":228
				},
				{
					"input":219,
					"interpolation":"STEP",
					"output":229
				},
				{
					"input":219,
					"interpolation":"STEP",
					"output":230
				},
				{
					"input":219,
					"interpolation":"STEP",
					"output":231
				}
			]
		},
		{
			"channels":[
				{
					"sampler":0,
					"target":{
						"node":3,
						"path":"translation"
					}
				},
				{
					"sampler":1,
					"target":{
						"node":3,
						"path":"rotation"
					}
				},
				{
					"sampler":2,
					"target":{
						"node":3,
						"path":"scale"
					}
				},
				{
					"sampler":3,
					"target":{
						"node":1,
						"path":"translation"
					}
				},
				{
					"sampler":4,
					"target":{
						"node":1,
						"path":"rotation"
					}
				},
				{
					"sampler":5,
					"target":{
						"node":1,
						"path":"scale"
					}
				},
				{
					"sampler":6,
					"target":{
						"node":0,
						"path":"translation"
					}
				},
				{
					"sampler":7,
					"target":{
						"node":0,
						"path":"rotation"
					}
				},
				{
					"sampler":8,
					"target":{
						"node":0,
						"path":"scale"
					}
				},
				{
					"sampler":9,
					"target":{
						"node":2,
						"path":"translation"
					}
				},
				{
					"sampler":10,
					"target":{
						"node":2,
						"path":"rotation"
					}
				},
				{
					"sampler":11,
					"target":{
						"node":2,
						"path":"scale"
					}
				}
			],
			"name":"WalkTank",
			"samplers":[
				{
					"input":44,
					"interpolation":"STEP",
					"output":232
				},
				{
					"input":44,
					"interpolation":"STEP",
					"output":233
				},
				{
					"input":44,
					"interpolation":"STEP",
					"output":234
				},
				{
					"input":44,
					"interpolation":"STEP",
					"output":235
				},
				{
					"input":44,
					"interpolation":"STEP",
					"output":236
				},
				{
					"input":44,
					"interpolation":"STEP",
					"output":237
				},
				{
					"input":44,
					"interpolation":"STEP",
					"output":238
				},
				{
					"input":44,
					"interpolation":"STEP",
					"output":239
				},
				{
					"input":44,
					"interpolation":"STEP",
					"output":240
				},
				{
					"input":44,
					"interpolation":"STEP",
					"output":241
				},
				{
					"input":44,
					"interpolation":"STEP",
					"output":242
				},
				{
					"input":44,
					"interpolation":"STEP",
					"output":243
				}
			]
		},
		{
			"channels":[
				{
					"sampler":0,
					"target":{
						"node":4,
						"path":"translation"
					}
				}
			],
			"name":"Cylinder.002Action",
			"samplers":[
				{
					"input":244,
					"interpolation":"LINEAR",
					"output":245
				}
			]
		},
		{
			"channels":[
				{
					"sampler":0,
					"target":{
						"node":5,
						"path":"translation"
					}
				}
			],
			"name":"Cylinder.003Action",
			"samplers":[
				{
					"input":244,
					"interpolation":"LINEAR",
					"output":246
				}
			]
		},
		{
			"channels":[
				{
					"sampler":0,
					"target":{
						"node":6,
						"path":"translation"
					}
				}
			],
			"name":"Plane.001Action",
			"samplers":[
				{
					"input":244,
					"interpolation":"LINEAR",
					"output":247
				}
			]
		}
	],
	"materials":[
		{
			"alphaMode":"BLEND",
			"doubleSided":true,
			"name":"AttackPart",
			"pbrMetallicRoughness":{
				"baseColorTexture":{
					"index":0
				},
				"metallicFactor":0,
				"roughnessFactor":0.5
			}
		}
	],
	"meshes":[
		{
			"name":"Cylinder.003",
			"primitives":[
				{
					"attributes":{
						"POSITION":0,
						"NORMAL":1,
						"TEXCOORD_0":2,
						"JOINTS_0":3,
						"WEIGHTS_0":4
					},
					"indices":5,
					"material":0
				}
			]
		},
		{
			"name":"Cylinder.006",
			"primitives":[
				{
					"attributes":{
						"POSITION":7,
						"NORMAL":8,
						"TEXCOORD_0":9,
						"JOINTS_0":10,
						"WEIGHTS_0":11
					},
					"indices":5,
					"material":0
				}
			]
		},
		{
			"name":"Plane.003",
			"primitives":[
				{
					"attributes":{
						"POSITION":12,
						"NORMAL":13,
						"TEXCOORD_0":14,
						"JOINTS_0":15,
						"WEIGHTS_0":16
					},
					"indices":17,
					"material":0
				}
			]
		}
	],
	"textures":[
		{
			"sampler":0,
			"source":0
		}
	],
	"images":[
		{
			"mimeType":"image/png",
			"name":"AttackTank",
			"uri":"AttackTank.png"
		}
	],
	"skins":[
		{
			"inverseBindMatrices":6,
			"joints":[
				3,
				1,
				0,
				2
			],
			"name":"Armature.002"
		}
	],
	"accessors":[
		{
			"bufferView":0,
			"componentType":5126,
			"count":52,
			"max":[
				0.08726179599761963,
				1.057518720626831,
				4.638398170471191
			],
			"min":[
				-1.8754303455352783,
				0.34902751445770264,
				2.690016031265259
			],
			"type":"VEC3"
		},
		{
			"bufferView":1,
			"componentType":5126,
			"count":52,
			"type":"VEC3"
		},
		{
			"bufferView":2,
			"componentType":5126,
			"count":52,
			"type":"VEC2"
		},
		{
			"bufferView":3,
			"componentType":5121,
			"count":52,
			"type":"VEC4"
		},
		{
			"bufferView":4,
			"componentType":5126,
			"count":52,
			"type":"VEC4"
		},
		{
			"bufferView":5,
			"componentType":5123,
			"count":78,
			"type":"SCALAR"
		},
		{
			"bufferView":6,
			"componentType":5126,
			"count":4,
			"type":"MAT4"
		},
		{
			"bufferView":7,
			"componentType":5126,
			"count":52,
			"max":[
				-0.2704157829284668,
				1.4621827602386475,
				4.288563251495361
			],
			"min":[
				-1.517752766609192,
				0.34502989053726196,
				3.050320625305176
			],
			"type":"VEC3"
		},
		{
			"bufferView":8,
			"componentType":5126,
			"count":52,
			"type":"VEC3"
		},
		{
			"bufferView":9,
			"componentType":5126,
			"count":52,
			"type":"VEC2"
		},
		{
			"bufferView":10,
			"componentType":5121,
			"count":52,
			"type":"VEC4"
		},
		{
			"bufferView":11,
			"componentType":5126,
			"count":52,
			"type":"VEC4"
		},
		{
			"bufferView":12,
			"componentType":5126,
			"count":4,
			"max":[
				0.0733649730682373,
				0.33255136013031006,
				4.469295024871826
			],
			"min":[
				-1.6125798225402832,
				0.33255136013031006,
				2.7833502292633057
			],
			"type":"VEC3"
		},
		{
			"bufferView":13,
			"componentType":5126,
			"count":4,
			"type":"VEC3"
		},
		{
			"bufferView":14,
			"componentType":5126,
			"count":4,
			"type":"VEC2"
		},
		{
			"bufferView":15,
			"componentType":5121,
			"count":4,
			"type":"VEC4"
		},
		{
			"bufferView":16,
			"componentType":5126,
			"count":4,
			"type":"VEC4"
		},
		{
			"bufferView":17,
			"componentType":5123,
			"count":6,
			"type":"SCALAR"
		},
		{
			"bufferView":18,
			"componentType":5126,
			"count":2,
			"max":[
				2
			],
			"min":[
				0
			],
			"type":"SCALAR"
		},
		{
			"bufferView":19,
			"componentType":5126,
			"count":2,
			"type":"VEC3"
		},
		{
			"bufferView":20,
			"componentType":5126,
			"count":121,
			"max":[
				2
			],
			"min":[
				0
			],
			"type":"SCALAR"
		},
		{
			"bufferView":21,
			"componentType":5126,
			"count":121,
			"type":"VEC4"
		},
		{
			"bufferView":22,
			"componentType":5126,
			"count":121,
			"type":"VEC3"
		},
		{
			"bufferView":23,
			"componentType":5126,
			"count":121,
			"type":"VEC3"
		},
		{
			"bufferView":24,
			"componentType":5126,
			"count":2,
			"type":"VEC4"
		},
		{
			"bufferView":25,
			"componentType":5126,
			"count":121,
			"type":"VEC3"
		},
		{
			"bufferView":26,
			"componentType":5126,
			"count":121,
			"type":"VEC3"
		},
		{
			"bufferView":27,
			"componentType":5126,
			"count":121,
			"type":"VEC4"
		},
		{
			"bufferView":28,
			"componentType":5126,
			"count":121,
			"type":"VEC3"
		},
		{
			"bufferView":29,
			"componentType":5126,
			"count":121,
			"type":"VEC3"
		},
		{
			"bufferView":30,
			"componentType":5126,
			"count":121,
			"type":"VEC4"
		},
		{
			"bufferView":31,
			"componentType":5126,
			"count":121,
			"type":"VEC3"
		},
		{
			"bufferView":32,
			"componentType":5126,
			"count":2,
			"type":"VEC3"
		},
		{
			"bufferView":33,
			"componentType":5126,
			"count":121,
			"type":"VEC4"
		},
		{
			"bufferView":34,
			"componentType":5126,
			"count":121,
			"type":"VEC3"
		},
		{
			"bufferView":35,
			"componentType":5126,
			"count":121,
			"type":"VEC3"
		},
		{
			"bufferView":36,
			"componentType":5126,
			"count":2,
			"type":"VEC4"
		},
		{
			"bufferView":37,
			"componentType":5126,
			"count":121,
			"type":"VEC3"
		},
		{
			"bufferView":38,
			"componentType":5126,
			"count":121,
			"type":"VEC3"
		},
		{
			"bufferView":39,
			"componentType":5126,
			"count":121,
			"type":"VEC4"
		},
		{
			"bufferView":40,
			"componentType":5126,
			"count":121,
			"type":"VEC3"
		},
		{
			"bufferView":41,
			"componentType":5126,
			"count":121,
			"type":"VEC3"
		},
		{
			"bufferView":42,
			"componentType":5126,
			"count":121,
			"type":"VEC4"
		},
		{
			"bufferView":43,
			"componentType":5126,
			"count":121,
			"type":"VEC3"
		},
		{
			"bufferView":44,
			"componentType":5126,
			"count":2,
			"max":[
				1.9833333333333334
			],
			"min":[
				0
			],
			"type":"SCALAR"
		},
		{
			"bufferView":45,
			"componentType":5126,
			"count":2,
			"type":"VEC3"
		},
		{
			"bufferView":46,
			"componentType":5126,
			"count":2,
			"type":"VEC4"
		},
		{
			"bufferView":47,
			"componentType":5126,
			"count":2,
			"type":"VEC3"
		},
		{
			"bufferView":48,
			"componentType":5126,
			"count":2,
			"type":"VEC3"
		},
		{
			"bufferView":49,
			"componentType":5126,
			"count":2,
			"type":"VEC4"
		},
		{
			"bufferView":50,
			"componentType":5126,
			"count":2,
			"type":"VEC3"
		},
		{
			"bufferView":51,
			"componentType":5126,
			"count":2,
			"type":"VEC3"
		},
		{
			"bufferView":52,
			"componentType":5126,
			"count":2,
			"type":"VEC4"
		},
		{
			"bufferView":53,
			"componentType":5126,
			"count":2,
			"type":"VEC3"
		},
		{
			"bufferView":54,
			"componentType":5126,
			"count":2,
			"type":"VEC3"
		},
		{
			"bufferView":55,
			"componentType":5126,
			"count":2,
			"type":"VEC4"
		},
		{
			"bufferView":56,
			"componentType":5126,
			"count":2,
			"type":"VEC3"
		},
		{
			"bufferView":57,
			"componentType":5126,
			"count":2,
			"type":"VEC3"
		},
		{
			"bufferView":58,
			"componentType":5126,
			"count":2,
			"type":"VEC4"
		},
		{
			"bufferView":59,
			"componentType":5126,
			"count":2,
			"type":"VEC3"
		},
		{
			"bufferView":60,
			"componentType":5126,
			"count":2,
			"type":"VEC3"
		},
		{
			"bufferView":61,
			"componentType":5126,
			"count":2,
			"type":"VEC4"
		},
		{
			"bufferView":62,
			"componentType":5126,
			"count":2,
			"type":"VEC3"
		},
		{
			"bufferView":63,
			"componentType":5126,
			"count":2,
			"type":"VEC3"
		},
		{
			"bufferView":64,
			"componentType":5126,
			"count":2,
			"type":"VEC4"
		},
		{
			"bufferView":65,
			"componentType":5126,
			"count":2,
			"type":"VEC3"
		},
		{
			"bufferView":66,
			"componentType":5126,
			"count":2,
			"type":"VEC3"
		},
		{
			"bufferView":67,
			"componentType":5126,
			"count":2,
			"type":"VEC4"
		},
		{
			"bufferView":68,
			"componentType":5126,
			"count":121,
			"type":"VEC3"
		},
		{
			"bufferView":69,
			"componentType":5126,
			"count":2,
			"type":"VEC3"
		},
		{
			"bufferView":70,
			"componentType":5126,
			"count":2,
			"type":"VEC4"
		},
		{
			"bufferView":71,
			"componentType":5126,
			"count":2,
			"type":"VEC3"
		},
		{
			"bufferView":72,
			"componentType":5126,
			"count":2,
			"type":"VEC3"
		},
		{
			"bufferView":73,
			"componentType":5126,
			"count":2,
			"type":"VEC4"
		},
		{
			"bufferView":74,
			"componentType":5126,
			"count":2,
			"type":"VEC3"
		},
		{
			"bufferView":75,
			"componentType":5126,
			"count":2,
			"type":"VEC3"
		},
		{
			"bufferView":76,
			"componentType":5126,
			"count":2,
			"type":"VEC4"
		},
		{
			"bufferView":77,
			"componentType":5126,
			"count":2,
			"type":"VEC3"
		},
		{
			"bufferView":78,
			"componentType":5126,
			"count":2,
			"type":"VEC3"
		},
		{
			"bufferView":79,
			"componentType":5126,
			"count":121,
			"type":"VEC4"
		},
		{
			"bufferView":80,
			"componentType":5126,
			"count":2,
			"type":"VEC3"
		},
		{
			"bufferView":81,
			"componentType":5126,
			"count":2,
			"type":"VEC3"
		},
		{
			"bufferView":82,
			"componentType":5126,
			"count":2,
			"type":"VEC4"
		},
		{
			"bufferView":83,
			"componentType":5126,
			"count":2,
			"type":"VEC3"
		},
		{
			"bufferView":84,
			"componentType":5126,
			"count":2,
			"type":"VEC3"
		},
		{
			"bufferView":85,
			"componentType":5126,
			"count":2,
			"type":"VEC4"
		},
		{
			"bufferView":86,
			"componentType":5126,
			"count":2,
			"type":"VEC3"
		},
		{
			"bufferView":87,
			"componentType":5126,
			"count":2,
			"type":"VEC3"
		},
		{
			"bufferView":88,
			"componentType":5126,
			"count":2,
			"type":"VEC4"
		},
		{
			"bufferView":89,
			"componentType":5126,
			"count":2,
			"type":"VEC3"
		},
		{
			"bufferView":90,
			"componentType":5126,
			"count":2,
			"type":"VEC3"
		},
		{
			"bufferView":91,
			"componentType":5126,
			"count":2,
			"type":"VEC4"
		},
		{
			"bufferView":92,
			"componentType":5126,
			"count":2,
			"type":"VEC3"
		},
		{
			"bufferView":93,
			"componentType":5126,
			"count":2,
			"max":[
				0.9833333333333333
			],
			"min":[
				0
			],
			"type":"SCALAR"
		},
		{
			"bufferView":94,
			"componentType":5126,
			"count":2,
			"type":"VEC3"
		},
		{
			"bufferView":95,
			"componentType":5126,
			"count":2,
			"type":"VEC4"
		},
		{
			"bufferView":96,
			"componentType":5126,
			"count":2,
			"type":"VEC3"
		},
		{
			"bufferView":97,
			"componentType":5126,
			"count":2,
			"type":"VEC3"
		},
		{
			"bufferView":98,
			"componentType":5126,
			"count":2,
			"type":"VEC4"
		},
		{
			"bufferView":99,
			"componentType":5126,
			"count":2,
			"type":"VEC3"
		},
		{
			"bufferView":100,
			"componentType":5126,
			"count":2,
			"type":"VEC3"
		},
		{
			"bufferView":101,
			"componentType":5126,
			"count":2,
			"type":"VEC4"
		},
		{
			"bufferView":102,
			"componentType":5126,
			"count":2,
			"type":"VEC3"
		},
		{
			"bufferView":103,
			"componentType":5126,
			"count":2,
			"type":"VEC3"
		},
		{
			"bufferView":104,
			"componentType":5126,
			"count":2,
			"type":"VEC4"
		},
		{
			"bufferView":105,
			"componentType":5126,
			"count":2,
			"type":"VEC3"
		},
		{
			"bufferView":106,
			"componentType":5126,
			"count":2,
			"max":[
				0.48333333333333334
			],
			"min":[
				0
			],
			"type":"SCALAR"
		},
		{
			"bufferView":107,
			"componentType":5126,
			"count":2,
			"type":"VEC3"
		},
		{
			"bufferView":108,
			"componentType":5126,
			"count":2,
			"type":"VEC4"
		},
		{
			"bufferView":109,
			"componentType":5126,
			"count":2,
			"type":"VEC3"
		},
		{
			"bufferView":110,
			"componentType":5126,
			"count":2,
			"type":"VEC3"
		},
		{
			"bufferView":111,
			"componentType":5126,
			"count":2,
			"type":"VEC4"
		},
		{
			"bufferView":112,
			"componentType":5126,
			"count":2,
			"type":"VEC3"
		},
		{
			"bufferView":113,
			"componentType":5126,
			"count":2,
			"type":"VEC3"
		},
		{
			"bufferView":114,
			"componentType":5126,
			"count":2,
			"type":"VEC4"
		},
		{
			"bufferView":115,
			"componentType":5126,
			"count":2,
			"type":"VEC3"
		},
		{
			"bufferView":116,
			"componentType":5126,
			"count":2,
			"type":"VEC3"
		},
		{
			"bufferView":117,
			"componentType":5126,
			"count":2,
			"type":"VEC4"
		},
		{
			"bufferView":118,
			"componentType":5126,
			"count":2,
			"type":"VEC3"
		},
		{
			"bufferView":119,
			"componentType":5126,
			"count":2,
			"max":[
				1.4833333333333334
			],
			"min":[
				0
			],
			"type":"SCALAR"
		},
		{
			"bufferView":120,
			"componentType":5126,
			"count":2,
			"type":"VEC3"
		},
		{
			"bufferView":121,
			"componentType":5126,
			"count":2,
			"type":"VEC4"
		},
		{
			"bufferView":122,
			"componentType":5126,
			"count":2,
			"type":"VEC3"
		},
		{
			"bufferView":123,
			"componentType":5126,
			"count":2,
			"type":"VEC3"
		},
		{
			"bufferView":124,
			"componentType":5126,
			"count":2,
			"type":"VEC4"
		},
		{
			"bufferView":125,
			"componentType":5126,
			"count":2,
			"type":"VEC3"
		},
		{
			"bufferView":126,
			"componentType":5126,
			"count":2,
			"type":"VEC3"
		},
		{
			"bufferView":127,
			"componentType":5126,
			"count":2,
			"type":"VEC4"
		},
		{
			"bufferView":128,
			"componentType":5126,
			"count":2,
			"type":"VEC3"
		},
		{
			"bufferView":129,
			"componentType":5126,
			"count":2,
			"type":"VEC3"
		},
		{
			"bufferView":130,
			"componentType":5126,
			"count":2,
			"type":"VEC4"
		},
		{
			"bufferView":131,
			"componentType":5126,
			"count":2,
			"type":"VEC3"
		},
		{
			"bufferView":132,
			"componentType":5126,
			"count":2,
			"type":"VEC3"
		},
		{
			"bufferView":133,
			"componentType":5126,
			"count":2,
			"type":"VEC4"
		},
		{
			"bufferView":134,
			"componentType":5126,
			"count":2,
			"type":"VEC3"
		},
		{
			"bufferView":135,
			"componentType":5126,
			"count":2,
			"type":"VEC3"
		},
		{
			"bufferView":136,
			"componentType":5126,
			"count":2,
			"type":"VEC4"
		},
		{
			"bufferView":137,
			"componentType":5126,
			"count":2,
			"type":"VEC3"
		},
		{
			"bufferView":138,
			"componentType":5126,
			"count":2,
			"type":"VEC3"
		},
		{
			"bufferView":139,
			"componentType":5126,
			"count":2,
			"type":"VEC4"
		},
		{
			"bufferView":140,
			"componentType":5126,
			"count":2,
			"type":"VEC3"
		},
		{
			"bufferView":141,
			"componentType":5126,
			"count":2,
			"type":"VEC3"
		},
		{
			"bufferView":142,
			"componentType":5126,
			"count":2,
			"type":"VEC4"
		},
		{
			"bufferView":143,
			"componentType":5126,
			"count":2,
			"type":"VEC3"
		},
		{
			"bufferView":144,
			"componentType":5126,
			"count":2,
			"max":[
				2.5
			],
			"min":[
				0
			],
			"type":"SCALAR"
		},
		{
			"bufferView":145,
			"componentType":5126,
			"count":2,
			"type":"VEC3"
		},
		{
			"bufferView":146,
			"componentType":5126,
			"count":2,
			"type":"VEC4"
		},
		{
			"bufferView":147,
			"componentType":5126,
			"count":2,
			"type":"VEC3"
		},
		{
			"bufferView":148,
			"componentType":5126,
			"count":2,
			"type":"VEC3"
		},
		{
			"bufferView":149,
			"componentType":5126,
			"count":2,
			"type":"VEC4"
		},
		{
			"bufferView":150,
			"componentType":5126,
			"count":2,
			"type":"VEC3"
		},
		{
			"bufferView":151,
			"componentType":5126,
			"count":2,
			"type":"VEC3"
		},
		{
			"bufferView":152,
			"componentType":5126,
			"count":2,
			"type":"VEC4"
		},
		{
			"bufferView":153,
			"componentType":5126,
			"count":2,
			"type":"VEC3"
		},
		{
			"bufferView":154,
			"componentType":5126,
			"count":2,
			"type":"VEC3"
		},
		{
			"bufferView":155,
			"componentType":5126,
			"count":2,
			"type":"VEC4"
		},
		{
			"bufferView":156,
			"componentType":5126,
			"count":2,
			"type":"VEC3"
		},
		{
			"bufferView":157,
			"componentType":5126,
			"count":2,
			"max":[
				3.9833333333333334
			],
			"min":[
				0
			],
			"type":"SCALAR"
		},
		{
			"bufferView":158,
			"componentType":5126,
			"count":2,
			"type":"VEC3"
		},
		{
			"bufferView":159,
			"componentType":5126,
			"count":2,
			"type":"VEC4"
		},
		{
			"bufferView":160,
			"componentType":5126,
			"count":2,
			"type":"VEC3"
		},
		{
			"bufferView":161,
			"componentType":5126,
			"count":2,
			"type":"VEC3"
		},
		{
			"bufferView":162,
			"componentType":5126,
			"count":2,
			"type":"VEC4"
		},
		{
			"bufferView":163,
			"componentType":5126,
			"count":2,
			"type":"VEC3"
		},
		{
			"bufferView":164,
			"componentType":5126,
			"count":2,
			"type":"VEC3"
		},
		{
			"bufferView":165,
			"componentType":5126,
			"count":2,
			"type":"VEC4"
		},
		{
			"bufferView":166,
			"componentType":5126,
			"count":2,
			"type":"VEC3"
		},
		{
			"bufferView":167,
			"componentType":5126,
			"count":2,
			"type":"VEC3"
		},
		{
			"bufferView":168,
			"componentType":5126,
			"count":2,
			"type":"VEC4"
		},
		{
			"bufferView":169,
			"componentType":5126,
			"count":2,
			"type":"VEC3"
		},
		{
			"bufferView":170,
			"componentType":5126,
			"count":2,
			"type":"VEC3"
		},
		{
			"bufferView":171,
			"componentType":5126,
			"count":2,
			"type":"VEC4"
		},
		{
			"bufferView":172,
			"componentType":5126,
			"count":2,
			"type":"VEC3"
		},
		{
			"bufferView":173,
			"componentType":5126,
			"count":2,
			"type":"VEC3"
		},
		{
			"bufferView":174,
			"componentType":5126,
			"count":2,
			"type":"VEC4"
		},
		{
			"bufferView":175,
			"componentType":5126,
			"count":2,
			"type":"VEC3"
		},
		{
			"bufferView":176,
			"componentType":5126,
			"count":2,
			"type":"VEC3"
		},
		{
			"bufferView":177,
			"componentType":5126,
			"count":2,
			"type":"VEC4"
		},
		{
			"bufferView":178,
			"componentType":5126,
			"count":2,
			"type":"VEC3"
		},
		{
			"bufferView":179,
			"componentType":5126,
			"count":2,
			"type":"VEC3"
		},
		{
			"bufferView":180,
			"componentType":5126,
			"count":2,
			"type":"VEC4"
		},
		{
			"bufferView":181,
			"componentType":5126,
			"count":2,
			"type":"VEC3"
		},
		{
			"bufferView":182,
			"componentType":5126,
			"count":2,
			"type":"VEC3"
		},
		{
			"bufferView":183,
			"componentType":5126,
			"count":2,
			"type":"VEC4"
		},
		{
			"bufferView":184,
			"componentType":5126,
			"count":2,
			"type":"VEC3"
		},
		{
			"bufferView":185,
			"componentType":5126,
			"count":2,
			"type":"VEC3"
		},
		{
			"bufferView":186,
			"componentType":5126,
			"count":2,
			"type":"VEC4"
		},
		{
			"bufferView":187,
			"componentType":5126,
			"count":2,
			"type":"VEC3"
		},
		{
			"bufferView":188,
			"componentType":5126,
			"count":2,
			"type":"VEC3"
		},
		{
			"bufferView":189,
			"componentType":5126,
			"count":2,
			"type":"VEC4"
		},
		{
			"bufferView":190,
			"componentType":5126,
			"count":2,
			"type":"VEC3"
		},
		{
			"bufferView":191,
			"componentType":5126,
			"count":2,
			"type":"VEC3"
		},
		{
			"bufferView":192,
			"componentType":5126,
			"count":2,
			"type":"VEC4"
		},
		{
			"bufferView":193,
			"componentType":5126,
			"count":121,
			"type":"VEC3"
		},
		{
			"bufferView":194,
			"componentType":5126,
			"count":2,
			"type":"VEC3"
		},
		{
			"bufferView":195,
			"componentType":5126,
			"count":2,
			"type":"VEC4"
		},
		{
			"bufferView":196,
			"componentType":5126,
			"count":2,
			"type":"VEC3"
		},
		{
			"bufferView":197,
			"componentType":5126,
			"count":2,
			"type":"VEC3"
		},
		{
			"bufferView":198,
			"componentType":5126,
			"count":2,
			"type":"VEC4"
		},
		{
			"bufferView":199,
			"componentType":5126,
			"count":2,
			"type":"VEC3"
		},
		{
			"bufferView":200,
			"componentType":5126,
			"count":2,
			"type":"VEC3"
		},
		{
			"bufferView":201,
			"componentType":5126,
			"count":2,
			"type":"VEC4"
		},
		{
			"bufferView":202,
			"componentType":5126,
			"count":2,
			"type":"VEC3"
		},
		{
			"bufferView":203,
			"componentType":5126,
			"count":2,
			"type":"VEC3"
		},
		{
			"bufferView":204,
			"componentType":5126,
			"count":2,
			"type":"VEC4"
		},
		{
			"bufferView":205,
			"componentType":5126,
			"count":2,
			"type":"VEC3"
		},
		{
			"bufferView":206,
			"componentType":5126,
			"count":2,
			"max":[
				2.4833333333333334
			],
			"min":[
				0
			],
			"type":"SCALAR"
		},
		{
			"bufferView":207,
			"componentType":5126,
			"count":2,
			"type":"VEC3"
		},
		{
			"bufferView":208,
			"componentType":5126,
			"count":2,
			"type":"VEC4"
		},
		{
			"bufferView":209,
			"componentType":5126,
			"count":2,
			"type":"VEC3"
		},
		{
			"bufferView":210,
			"componentType":5126,
			"count":2,
			"type":"VEC3"
		},
		{
			"bufferView":211,
			"componentType":5126,
			"count":2,
			"type":"VEC4"
		},
		{
			"bufferView":212,
			"componentType":5126,
			"count":2,
			"type":"VEC3"
		},
		{
			"bufferView":213,
			"componentType":5126,
			"count":2,
			"type":"VEC3"
		},
		{
			"bufferView":214,
			"componentType":5126,
			"count":2,
			"type":"VEC4"
		},
		{
			"bufferView":215,
			"componentType":5126,
			"count":2,
			"type":"VEC3"
		},
		{
			"bufferView":216,
			"componentType":5126,
			"count":2,
			"type":"VEC3"
		},
		{
			"bufferView":217,
			"componentType":5126,
			"count":2,
			"type":"VEC4"
		},
		{
			"bufferView":218,
			"componentType":5126,
			"count":2,
			"type":"VEC3"
		},
		{
			"bufferView":219,
			"componentType":5126,
			"count":2,
			"max":[
				0.8166666666666667
			],
			"min":[
				0
			],
			"type":"SCALAR"
		},
		{
			"bufferView":220,
			"componentType":5126,
			"count":2,
			"type":"VEC3"
		},
		{
			"bufferView":221,
			"componentType":5126,
			"count":2,
			"type":"VEC4"
		},
		{
			"bufferView":222,
			"componentType":5126,
			"count":2,
			"type":"VEC3"
		},
		{
			"bufferView":223,
			"componentType":5126,
			"count":2,
			"type":"VEC3"
		},
		{
			"bufferView":224,
			"componentType":5126,
			"count":2,
			"type":"VEC4"
		},
		{
			"bufferView":225,
			"componentType":5126,
			"count":2,
			"type":"VEC3"
		},
		{
			"bufferView":226,
			"componentType":5126,
			"count":2,
			"type":"VEC3"
		},
		{
			"bufferView":227,
			"componentType":5126,
			"count":2,
			"type":"VEC4"
		},
		{
			"bufferView":228,
			"componentType":5126,
			"count":2,
			"type":"VEC3"
		},
		{
			"bufferView":229,
			"componentType":5126,
			"count":2,
			"type":"VEC3"
		},
		{
			"bufferView":230,
			"componentType":5126,
			"count":2,
			"type":"VEC4"
		},
		{
			"bufferView":231,
			"componentType":5126,
			"count":2,
			"type":"VEC3"
		},
		{
			"bufferView":232,
			"componentType":5126,
			"count":2,
			"type":"VEC3"
		},
		{
			"bufferView":233,
			"componentType":5126,
			"count":2,
			"type":"VEC4"
		},
		{
			"bufferView":234,
			"componentType":5126,
			"count":2,
			"type":"VEC3"
		},
		{
			"bufferView":235,
			"componentType":5126,
			"count":2,
			"type":"VEC3"
		},
		{
			"bufferView":236,
			"componentType":5126,
			"count":2,
			"type":"VEC4"
		},
		{
			"bufferView":237,
			"componentType":5126,
			"count":2,
			"type":"VEC3"
		},
		{
			"bufferView":238,
			"componentType":5126,
			"count":2,
			"type":"VEC3"
		},
		{
			"bufferView":239,
			"componentType":5126,
			"count":2,
			"type":"VEC4"
		},
		{
			"bufferView":240,
			"componentType":5126,
			"count":2,
			"type":"VEC3"
		},
		{
			"bufferView":241,
			"componentType":5126,
			"count":2,
			"type":"VEC3"
		},
		{
			"bufferView":242,
			"componentType":5126,
			"count":2,
			"type":"VEC4"
		},
		{
			"bufferView":243,
			"componentType":5126,
			"count":2,
			"type":"VEC3"
		},
		{
			"bufferView":244,
			"componentType":5126,
			"count":1,
			"max":[
				2
			],
			"min":[
				2
			],
			"type":"SCALAR"
		},
		{
			"bufferView":245,
			"componentType":5126,
			"count":1,
			"type":"VEC3"
		},
		{
			"bufferView":246,
			"componentType":5126,
			"count":1,
			"type":"VEC3"
		},
		{
			"bufferView":247,
			"componentType":5126,
			"count":1,
			"type":"VEC3"
		}
	],
	"bufferViews":[
		{
			"buffer":0,
			"byteLength":624,
			"byteOffset":0,
			"target":34962
		},
		{
			"buffer":0,
			"byteLength":624,
			"byteOffset":624,
			"target":34962
		},
		{
			"buffer":0,
			"byteLength":416,
			"byteOffset":1248,
			"target":34962
		},
		{
			"buffer":0,
			"byteLength":208,
			"byteOffset":1664,
			"target":34962
		},
		{
			"buffer":0,
			"byteLength":832,
			"byteOffset":1872,
			"target":34962
		},
		{
			"buffer":0,
			"byteLength":156,
			"byteOffset":2704,
			"target":34963
		},
		{
			"buffer":0,
			"byteLength":256,
			"byteOffset":2860
		},
		{
			"buffer":0,
			"byteLength":624,
			"byteOffset":3116,
			"target":34962
		},
		{
			"buffer":0,
			"byteLength":624,
			"byteOffset":3740,
			"target":34962
		},
		{
			"buffer":0,
			"byteLength":416,
			"byteOffset":4364,
			"target":34962
		},
		{
			"buffer":0,
			"byteLength":208,
			"byteOffset":4780,
			"target":34962
		},
		{
			"buffer":0,
			"byteLength":832,
			"byteOffset":4988,
			"target":34962
		},
		{
			"buffer":0,
			"byteLength":48,
			"byteOffset":5820,
			"target":34962
		},
		{
			"buffer":0,
			"byteLength":48,
			"byteOffset":5868,
			"target":34962
		},
		{
			"buffer":0,
			"byteLength":32,
			"byteOffset":5916,
			"target":34962
		},
		{
			"buffer":0,
			"byteLength":16,
			"byteOffset":5948,
			"target":34962
		},
		{
			"buffer":0,
			"byteLength":64,
			"byteOffset":5964,
			"target":34962
		},
		{
			"buffer":0,
			"byteLength":12,
			"byteOffset":6028,
			"target":34963
		},
		{
			"buffer":0,
			"byteLength":8,
			"byteOffset":6040
		},
		{
			"buffer":0,
			"byteLength":24,
			"byteOffset":6048
		},
		{
			"buffer":0,
			"byteLength":484,
			"byteOffset":6072
		},
		{
			"buffer":0,
			"byteLength":1936,
			"byteOffset":6556
		},
		{
			"buffer":0,
			"byteLength":1452,
			"byteOffset":8492
		},
		{
			"buffer":0,
			"byteLength":1452,
			"byteOffset":9944
		},
		{
			"buffer":0,
			"byteLength":32,
			"byteOffset":11396
		},
		{
			"buffer":0,
			"byteLength":1452,
			"byteOffset":11428
		},
		{
			"buffer":0,
			"byteLength":1452,
			"byteOffset":12880
		},
		{
			"buffer":0,
			"byteLength":1936,
			"byteOffset":14332
		},
		{
			"buffer":0,
			"byteLength":1452,
			"byteOffset":16268
		},
		{
			"buffer":0,
			"byteLength":1452,
			"byteOffset":17720
		},
		{
			"buffer":0,
			"byteLength":1936,
			"byteOffset":19172
		},
		{
			"buffer":0,
			"byteLength":1452,
			"byteOffset":21108
		},
		{
			"buffer":0,
			"byteLength":24,
			"byteOffset":22560
		},
		{
			"buffer":0,
			"byteLength":1936,
			"byteOffset":22584
		},
		{
			"buffer":0,
			"byteLength":1452,
			"byteOffset":24520
		},
		{
			"buffer":0,
			"byteLength":1452,
			"byteOffset":25972
		},
		{
			"buffer":0,
			"byteLength":32,
			"byteOffset":27424
		},
		{
			"buffer":0,
			"byteLength":1452,
			"byteOffset":27456
		},
		{
			"buffer":0,
			"byteLength":1452,
			"byteOffset":28908
		},
		{
			"buffer":0,
			"byteLength":1936,
			"byteOffset":30360
		},
		{
			"buffer":0,
			"byteLength":1452,
			"byteOffset":32296
		},
		{
			"buffer":0,
			"byteLength":1452,
			"byteOffset":33748
		},
		{
			"buffer":0,
			"byteLength":1936,
			"byteOffset":35200
		},
		{
			"buffer":0,
			"byteLength":1452,
			"byteOffset":37136
		},
		{
			"buffer":0,
			"byteLength":8,
			"byteOffset":38588
		},
		{
			"buffer":0,
			"byteLength":24,
			"byteOffset":38596
		},
		{
			"buffer":0,
			"byteLength":32,
			"byteOffset":38620
		},
		{
			"buffer":0,
			"byteLength":24,
			"byteOffset":38652
		},
		{
			"buffer":0,
			"byteLength":24,
			"byteOffset":38676
		},
		{
			"buffer":0,
			"byteLength":32,
			"byteOffset":38700
		},
		{
			"buffer":0,
			"byteLength":24,
			"byteOffset":38732
		},
		{
			"buffer":0,
			"byteLength":24,
			"byteOffset":38756
		},
		{
			"buffer":0,
			"byteLength":32,
			"byteOffset":38780
		},
		{
			"buffer":0,
			"byteLength":24,
			"byteOffset":38812
		},
		{
			"buffer":0,
			"byteLength":24,
			"byteOffset":38836
		},
		{
			"buffer":0,
			"byteLength":32,
			"byteOffset":38860
		},
		{
			"buffer":0,
			"byteLength":24,
			"byteOffset":38892
		},
		{
			"buffer":0,
			"byteLength":24,
			"byteOffset":38916
		},
		{
			"buffer":0,
			"byteLength":32,
			"byteOffset":38940
		},
		{
			"buffer":0,
			"byteLength":24,
			"byteOffset":38972
		},
		{
			"buffer":0,
			"byteLength":24,
			"byteOffset":38996
		},
		{
			"buffer":0,
			"byteLength":32,
			"byteOffset":39020
		},
		{
			"buffer":0,
			"byteLength":24,
			"byteOffset":39052
		},
		{
			"buffer":0,
			"byteLength":24,
			"byteOffset":39076
		},
		{
			"buffer":0,
			"byteLength":32,
			"byteOffset":39100
		},
		{
			"buffer":0,
			"byteLength":24,
			"byteOffset":39132
		},
		{
			"buffer":0,
			"byteLength":24,
			"byteOffset":39156
		},
		{
			"buffer":0,
			"byteLength":32,
			"byteOffset":39180
		},
		{
			"buffer":0,
			"byteLength":1452,
			"byteOffset":39212
		},
		{
			"buffer":0,
			"byteLength":24,
			"byteOffset":40664
		},
		{
			"buffer":0,
			"byteLength":32,
			"byteOffset":40688
		},
		{
			"buffer":0,
			"byteLength":24,
			"byteOffset":40720
		},
		{
			"buffer":0,
			"byteLength":24,
			"byteOffset":40744
		},
		{
			"buffer":0,
			"byteLength":32,
			"byteOffset":40768
		},
		{
			"buffer":0,
			"byteLength":24,
			"byteOffset":40800
		},
		{
			"buffer":0,
			"byteLength":24,
			"byteOffset":40824
		},
		{
			"buffer":0,
			"byteLength":32,
			"byteOffset":40848
		},
		{
			"buffer":0,
			"byteLength":24,
			"byteOffset":40880
		},
		{
			"buffer":0,
			"byteLength":24,
			"byteOffset":40904
		},
		{
			"buffer":0,
			"byteLength":1936,
			"byteOffset":40928
		},
		{
			"buffer":0,
			"byteLength":24,
			"byteOffset":42864
		},
		{
			"buffer":0,
			"byteLength":24,
			"byteOffset":42888
		},
		{
			"buffer":0,
			"byteLength":32,
			"byteOffset":42912
		},
		{
			"buffer":0,
			"byteLength":24,
			"byteOffset":42944
		},
		{
			"buffer":0,
			"byteLength":24,
			"byteOffset":42968
		},
		{
			"buffer":0,
			"byteLength":32,
			"byteOffset":42992
		},
		{
			"buffer":0,
			"byteLength":24,
			"byteOffset":43024
		},
		{
			"buffer":0,
			"byteLength":24,
			"byteOffset":43048
		},
		{
			"buffer":0,
			"byteLength":32,
			"byteOffset":43072
		},
		{
			"buffer":0,
			"byteLength":24,
			"byteOffset":43104
		},
		{
			"buffer":0,
			"byteLength":24,
			"byteOffset":43128
		},
		{
			"buffer":0,
			"byteLength":32,
			"byteOffset":43152
		},
		{
			"buffer":0,
			"byteLength":24,
			"byteOffset":43184
		},
		{
			"buffer":0,
			"byteLength":8,
			"byteOffset":43208
		},
		{
			"buffer":0,
			"byteLength":24,
			"byteOffset":43216
		},
		{
			"buffer":0,
			"byteLength":32,
			"byteOffset":43240
		},
		{
			"buffer":0,
			"byteLength":24,
			"byteOffset":43272
		},
		{
			"buffer":0,
			"byteLength":24,
			"byteOffset":43296
		},
		{
			"buffer":0,
			"byteLength":32,
			"byteOffset":43320
		},
		{
			"buffer":0,
			"byteLength":24,
			"byteOffset":43352
		},
		{
			"buffer":0,
			"byteLength":24,
			"byteOffset":43376
		},
		{
			"buffer":0,
			"byteLength":32,
			"byteOffset":43400
		},
		{
			"buffer":0,
			"byteLength":24,
			"byteOffset":43432
		},
		{
			"buffer":0,
			"byteLength":24,
			"byteOffset":43456
		},
		{
			"buffer":0,
			"byteLength":32,
			"byteOffset":43480
		},
		{
			"buffer":0,
			"byteLength":24,
			"byteOffset":43512
		},
		{
			"buffer":0,
			"byteLength":8,
			"byteOffset":43536
		},
		{
			"buffer":0,
			"byteLength":24,
			"byteOffset":43544
		},
		{
			"buffer":0,
			"byteLength":32,
			"byteOffset":43568
		},
		{
			"buffer":0,
			"byteLength":24,
			"byteOffset":43600
		},
		{
			"buffer":0,
			"byteLength":24,
			"byteOffset":43624
		},
		{
			"buffer":0,
			"byteLength":32,
			"byteOffset":43648
		},
		{
			"buffer":0,
			"byteLength":24,
			"byteOffset":43680
		},
		{
			"buffer":0,
			"byteLength":24,
			"byteOffset":43704
		},
		{
			"buffer":0,
			"byteLength":32,
			"byteOffset":43728
		},
		{
			"buffer":0,
			"byteLength":24,
			"byteOffset":43760
		},
		{
			"buffer":0,
			"byteLength":24,
			"byteOffset":43784
		},
		{
			"buffer":0,
			"byteLength":32,
			"byteOffset":43808
		},
		{
			"buffer":0,
			"byteLength":24,
			"byteOffset":43840
		},
		{
			"buffer":0,
			"byteLength":8,
			"byteOffset":43864
		},
		{
			"buffer":0,
			"byteLength":24,
			"byteOffset":43872
		},
		{
			"buffer":0,
			"byteLength":32,
			"byteOffset":43896
		},
		{
			"buffer":0,
			"byteLength":24,
			"byteOffset":43928
		},
		{
			"buffer":0,
			"byteLength":24,
			"byteOffset":43952
		},
		{
			"buffer":0,
			"byteLength":32,
			"byteOffset":43976
		},
		{
			"buffer":0,
			"byteLength":24,
			"byteOffset":44008
		},
		{
			"buffer":0,
			"byteLength":24,
			"byteOffset":44032
		},
		{
			"buffer":0,
			"byteLength":32,
			"byteOffset":44056
		},
		{
			"buffer":0,
			"byteLength":24,
			"byteOffset":44088
		},
		{
			"buffer":0,
			"byteLength":24,
			"byteOffset":44112
		},
		{
			"buffer":0,
			"byteLength":32,
			"byteOffset":44136
		},
		{
			"buffer":0,
			"byteLength":24,
			"byteOffset":44168
		},
		{
			"buffer":0,
			"byteLength":24,
			"byteOffset":44192
		},
		{
			"buffer":0,
			"byteLength":32,
			"byteOffset":44216
		},
		{
			"buffer":0,
			"byteLength":24,
			"byteOffset":44248
		},
		{
			"buffer":0,
			"byteLength":24,
			"byteOffset":44272
		},
		{
			"buffer":0,
			"byteLength":32,
			"byteOffset":44296
		},
		{
			"buffer":0,
			"byteLength":24,
			"byteOffset":44328
		},
		{
			"buffer":0,
			"byteLength":24,
			"byteOffset":44352
		},
		{
			"buffer":0,
			"byteLength":32,
			"byteOffset":44376
		},
		{
			"buffer":0,
			"byteLength":24,
			"byteOffset":44408
		},
		{
			"buffer":0,
			"byteLength":24,
			"byteOffset":44432
		},
		{
			"buffer":0,
			"byteLength":32,
			"byteOffset":44456
		},
		{
			"buffer":0,
			"byteLength":24,
			"byteOffset":44488
		},
		{
			"buffer":0,
			"byteLength":8,
			"byteOffset":44512
		},
		{
			"buffer":0,
			"byteLength":24,
			"byteOffset":44520
		},
		{
			"buffer":0,
			"byteLength":32,
			"byteOffset":44544
		},
		{
			"buffer":0,
			"byteLength":24,
			"byteOffset":44576
		},
		{
			"buffer":0,
			"byteLength":24,
			"byteOffset":44600
		},
		{
			"buffer":0,
			"byteLength":32,
			"byteOffset":44624
		},
		{
			"buffer":0,
			"byteLength":24,
			"byteOffset":44656
		},
		{
			"buffer":0,
			"byteLength":24,
			"byteOffset":44680
		},
		{
			"buffer":0,
			"byteLength":32,
			"byteOffset":44704
		},
		{
			"buffer":0,
			"byteLength":24,
			"byteOffset":44736
		},
		{
			"buffer":0,
			"byteLength":24,
			"byteOffset":44760
		},
		{
			"buffer":0,
			"byteLength":32,
			"byteOffset":44784
		},
		{
			"buffer":0,
			"byteLength":24,
			"byteOffset":44816
		},
		{
			"buffer":0,
			"byteLength":8,
			"byteOffset":44840
		},
		{
			"buffer":0,
			"byteLength":24,
			"byteOffset":44848
		},
		{
			"buffer":0,
			"byteLength":32,
			"byteOffset":44872
		},
		{
			"buffer":0,
			"byteLength":24,
			"byteOffset":44904
		},
		{
			"buffer":0,
			"byteLength":24,
			"byteOffset":44928
		},
		{
			"buffer":0,
			"byteLength":32,
			"byteOffset":44952
		},
		{
			"buffer":0,
			"byteLength":24,
			"byteOffset":44984
		},
		{
			"buffer":0,
			"byteLength":24,
			"byteOffset":45008
		},
		{
			"buffer":0,
			"byteLength":32,
			"byteOffset":45032
		},
		{
			"buffer":0,
			"byteLength":24,
			"byteOffset":45064
		},
		{
			"buffer":0,
			"byteLength":24,
			"byteOffset":45088
		},
		{
			"buffer":0,
			"byteLength":32,
			"byteOffset":45112
		},
		{
			"buffer":0,
			"byteLength":24,
			"byteOffset":45144
		},
		{
			"buffer":0,
			"byteLength":24,
			"byteOffset":45168
		},
		{
			"buffer":0,
			"byteLength":32,
			"byteOffset":45192
		},
		{
			"buffer":0,
			"byteLength":24,
			"byteOffset":45224
		},
		{
			"buffer":0,
			"byteLength":24,
			"byteOffset":45248
		},
		{
			"buffer":0,
			"byteLength":32,
			"byteOffset":45272
		},
		{
			"buffer":0,
			"byteLength":24,
			"byteOffset":45304
		},
		{
			"buffer":0,
			"byteLength":24,
			"byteOffset":45328
		},
		{
			"buffer":0,
			"byteLength":32,
			"byteOffset":45352
		},
		{
			"buffer":0,
			"byteLength":24,
			"byteOffset":45384
		},
		{
			"buffer":0,
			"byteLength":24,
			"byteOffset":45408
		},
		{
			"buffer":0,
			"byteLength":32,
			"byteOffset":45432
		},
		{
			"buffer":0,
			"byteLength":24,
			"byteOffset":45464
		},
		{
			"buffer":0,
			"byteLength":24,
			"byteOffset":45488
		},
		{
			"buffer":0,
			"byteLength":32,
			"byteOffset":45512
		},
		{
			"buffer":0,
			"byteLength":24,
			"byteOffset":45544
		},
		{
			"buffer":0,
			"byteLength":24,
			"byteOffset":45568
		},
		{
			"buffer":0,
			"byteLength":32,
			"byteOffset":45592
		},
		{
			"buffer":0,
			"byteLength":24,
			"byteOffset":45624
		},
		{
			"buffer":0,
			"byteLength":24,
			"byteOffset":45648
		},
		{
			"buffer":0,
			"byteLength":32,
			"byteOffset":45672
		},
		{
			"buffer":0,
			"byteLength":24,
			"byteOffset":45704
		},
		{
			"buffer":0,
			"byteLength":24,
			"byteOffset":45728
		},
		{
			"buffer":0,
			"byteLength":32,
			"byteOffset":45752
		},
		{
			"buffer":0,
			"byteLength":1452,
			"byteOffset":45784
		},
		{
			"buffer":0,
			"byteLength":24,
			"byteOffset":47236
		},
		{
			"buffer":0,
			"byteLength":32,
			"byteOffset":47260
		},
		{
			"buffer":0,
			"byteLength":24,
			"byteOffset":47292
		},
		{
			"buffer":0,
			"byteLength":24,
			"byteOffset":47316
		},
		{
			"buffer":0,
			"byteLength":32,
			"byteOffset":47340
		},
		{
			"buffer":0,
			"byteLength":24,
			"byteOffset":47372
		},
		{
			"buffer":0,
			"byteLength":24,
			"byteOffset":47396
		},
		{
			"buffer":0,
			"byteLength":32,
			"byteOffset":47420
		},
		{
			"buffer":0,
			"byteLength":24,
			"byteOffset":47452
		},
		{
			"buffer":0,
			"byteLength":24,
			"byteOffset":47476
		},
		{
			"buffer":0,
			"byteLength":32,
			"byteOffset":47500
		},
		{
			"buffer":0,
			"byteLength":24,
			"byteOffset":47532
		},
		{
			"buffer":0,
			"byteLength":8,
			"byteOffset":47556
		},
		{
			"buffer":0,
			"byteLength":24,
			"byteOffset":47564
		},
		{
			"buffer":0,
			"byteLength":32,
			"byteOffset":47588
		},
		{
			"buffer":0,
			"byteLength":24,
			"byteOffset":47620
		},
		{
			"buffer":0,
			"byteLength":24,
			"byteOffset":47644
		},
		{
			"buffer":0,
			"byteLength":32,
			"byteOffset":47668
		},
		{
			"buffer":0,
			"byteLength":24,
			"byteOffset":47700
		},
		{
			"buffer":0,
			"byteLength":24,
			"byteOffset":47724
		},
		{
			"buffer":0,
			"byteLength":32,
			"byteOffset":47748
		},
		{
			"buffer":0,
			"byteLength":24,
			"byteOffset":47780
		},
		{
			"buffer":0,
			"byteLength":24,
			"byteOffset":47804
		},
		{
			"buffer":0,
			"byteLength":32,
			"byteOffset":47828
		},
		{
			"buffer":0,
			"byteLength":24,
			"byteOffset":47860
		},
		{
			"buffer":0,
			"byteLength":8,
			"byteOffset":47884
		},
		{
			"buffer":0,
			"byteLength":24,
			"byteOffset":47892
		},
		{
			"buffer":0,
			"byteLength":32,
			"byteOffset":47916
		},
		{
			"buffer":0,
			"byteLength":24,
			"byteOffset":47948
		},
		{
			"buffer":0,
			"byteLength":24,
			"byteOffset":47972
		},
		{
			"buffer":0,
			"byteLength":32,
			"byteOffset":47996
		},
		{
			"buffer":0,
			"byteLength":24,
			"byteOffset":48028
		},
		{
			"buffer":0,
			"byteLength":24,
			"byteOffset":48052
		},
		{
			"buffer":0,
			"byteLength":32,
			"byteOffset":48076
		},
		{
			"buffer":0,
			"byteLength":24,
			"byteOffset":48108
		},
		{
			"buffer":0,
			"byteLength":24,
			"byteOffset":48132
		},
		{
			"buffer":0,
			"byteLength":32,
			"byteOffset":48156
		},
		{
			"buffer":0,
			"byteLength":24,
			"byteOffset":48188
		},
		{
			"buffer":0,
			"byteLength":24,
			"byteOffset":48212
		},
		{
			"buffer":0,
			"byteLength":32,
			"byteOffset":48236
		},
		{
			"buffer":0,
			"byteLength":24,
			"byteOffset":48268
		},
		{
			"buffer":0,
			"byteLength":24,
			"byteOffset":48292
		},
		{
			"buffer":0,
			"byteLength":32,
			"byteOffset":48316
		},
		{
			"buffer":0,
			"byteLength":24,
			"byteOffset":48348
		},
		{
			"buffer":0,
			"byteLength":24,
			"byteOffset":48372
		},
		{
			"buffer":0,
			"byteLength":32,
			"byteOffset":48396
		},
		{
			"buffer":0,
			"byteLength":24,
			"byteOffset":48428
		},
		{
			"buffer":0,
			"byteLength":24,
			"byteOffset":48452
		},
		{
			"buffer":0,
			"byteLength":32,
			"byteOffset":48476
		},
		{
			"buffer":0,
			"byteLength":24,
			"byteOffset":48508
		},
		{
			"buffer":0,
			"byteLength":4,
			"byteOffset":48532
		},
		{
			"buffer":0,
			"byteLength":12,
			"byteOffset":48536
		},
		{
			"buffer":0,
			"byteLength":12,
			"byteOffset":48548
		},
		{
			"buffer":0,
			"byteLength":12,
			"byteOffset":48560
		}
	],
	"samplers":[
		{
			"magFilter":9729,
			"minFilter":9987
		}
	],
	"buffers":[
		{
			"byteLength":48572,
			"uri":"AttackParticle.bin"
		}
	]
}
