{
	"asset":{
		"generator":"Khronos glTF Blender I/O v4.3.47",
		"version":"2.0"
	},
	"scene":0,
	"scenes":[
		{
			"name":"Scene",
			"nodes":[
				0,
				1,
				2,
				3,
				4,
				5,
				6,
				7,
				8,
				9
			]
		}
	],
	"nodes":[
		{
			"mesh":0,
			"name":"Cube.004"
		},
		{
			"mesh":1,
			"name":"Cube.005"
		},
		{
			"mesh":2,
			"name":"Cube.010"
		},
		{
			"mesh":3,
			"name":"Cube.011"
		},
		{
			"mesh":4,
			"name":"Cube.014"
		},
		{
			"mesh":5,
			"name":"Cube.020"
		},
		{
			"mesh":6,
			"name":"Cube.023"
		},
		{
			"mesh":7,
			"name":"Cube.027"
		},
		{
			"mesh":8,
			"name":"Metales01"
		},
		{
			"mesh":9,
			"name":"Tablones"
		}
	],
	"materials":[
		{
			"doubleSided":true,
			"name":"Material",
			"normalTexture":{
				"index":0
			},
			"pbrMetallicRoughness":{
				"baseColorTexture":{
					"index":1
				},
				"metallicRoughnessTexture":{
					"index":2
				}
			}
		}
	],
	"meshes":[
		{
			"name":"Cube.005",
			"primitives":[
				{
					"attributes":{
						"POSITION":0,
						"NORMAL":1,
						"TEXCOORD_0":2
					},
					"indices":3,
					"material":0
				}
			]
		},
		{
			"name":"Cube.006",
			"primitives":[
				{
					"attributes":{
						"POSITION":4,
						"NORMAL":5,
						"TEXCOORD_0":6
					},
					"indices":3,
					"material":0
				}
			]
		},
		{
			"name":"Cube.011",
			"primitives":[
				{
					"attributes":{
						"POSITION":7,
						"NORMAL":8,
						"TEXCOORD_0":9
					},
					"indices":10,
					"material":0
				}
			]
		},
		{
			"name":"Cube.012",
			"primitives":[
				{
					"attributes":{
						"POSITION":11,
						"NORMAL":12,
						"TEXCOORD_0":13
					},
					"indices":14,
					"material":0
				}
			]
		},
		{
			"name":"Cube.015",
			"primitives":[
				{
					"attributes":{
						"POSITION":15,
						"NORMAL":16,
						"TEXCOORD_0":17
					},
					"indices":18,
					"material":0
				}
			]
		},
		{
			"name":"Cube.021",
			"primitives":[
				{
					"attributes":{
						"POSITION":19,
						"NORMAL":20,
						"TEXCOORD_0":21
					},
					"indices":22,
					"material":0
				}
			]
		},
		{
			"name":"Cube.024",
			"primitives":[
				{
					"attributes":{
						"POSITION":23,
						"NORMAL":24,
						"TEXCOORD_0":25
					},
					"indices":26,
					"material":0
				}
			]
		},
		{
			"name":"Cube.028",
			"primitives":[
				{
					"attributes":{
						"POSITION":27,
						"NORMAL":28,
						"TEXCOORD_0":29
					},
					"indices":30,
					"material":0
				}
			]
		},
		{
			"name":"Cube.030",
			"primitives":[
				{
					"attributes":{
						"POSITION":31,
						"NORMAL":32,
						"TEXCOORD_0":33
					},
					"indices":34,
					"material":0
				}
			]
		},
		{
			"name":"Cube.020",
			"primitives":[
				{
					"attributes":{
						"POSITION":35,
						"NORMAL":36,
						"TEXCOORD_0":37
					},
					"indices":38,
					"material":0
				}
			]
		}
	],
	"textures":[
		{
			"sampler":0,
			"source":0
		},
		{
			"sampler":0,
			"source":1
		},
		{
			"sampler":0,
			"source":2
		}
	],
	"images":[
		{
			"mimeType":"image/png",
			"name":"P_Box_2_n",
			"uri":"P_Box_2_n.png"
		},
		{
			"mimeType":"image/png",
			"name":"P_Box_2_bc",
			"uri":"P_Box_2_bc.png"
		},
		{
			"mimeType":"image/png",
			"name":"P_Box_2_m.png-P_Box_2_r.png",
			"uri":"P_Box_2_m_png-P_Box_2_r_png.png"
		}
	],
	"accessors":[
		{
			"bufferView":0,
			"componentType":5126,
			"count":288,
			"max":[
				0.4881057143211365,
				1.0015089511871338,
				0.4854913651943207
			],
			"min":[
				-0.4926891624927521,
				0.9107738733291626,
				-0.482767254114151
			],
			"type":"VEC3"
		},
		{
			"bufferView":1,
			"componentType":5126,
			"count":288,
			"type":"VEC3"
		},
		{
			"bufferView":2,
			"componentType":5126,
			"count":288,
			"type":"VEC2"
		},
		{
			"bufferView":3,
			"componentType":5123,
			"count":396,
			"type":"SCALAR"
		},
		{
			"bufferView":4,
			"componentType":5126,
			"count":288,
			"max":[
				0.4881057143211365,
				0.08967868238687515,
				0.48549124598503113
			],
			"min":[
				-0.4926891624927521,
				-0.0010562774259597063,
				-0.4827673137187958
			],
			"type":"VEC3"
		},
		{
			"bufferView":5,
			"componentType":5126,
			"count":288,
			"type":"VEC3"
		},
		{
			"bufferView":6,
			"componentType":5126,
			"count":288,
			"type":"VEC2"
		},
		{
			"bufferView":7,
			"componentType":5126,
			"count":192,
			"max":[
				0.4838014543056488,
				0.9888150095939636,
				0.4620971083641052
			],
			"min":[
				-0.48445722460746765,
				0.008020206354558468,
				0.37598249316215515
			],
			"type":"VEC3"
		},
		{
			"bufferView":8,
			"componentType":5126,
			"count":192,
			"type":"VEC3"
		},
		{
			"bufferView":9,
			"componentType":5126,
			"count":192,
			"type":"VEC2"
		},
		{
			"bufferView":10,
			"componentType":5123,
			"count":270,
			"type":"SCALAR"
		},
		{
			"bufferView":11,
			"componentType":5126,
			"count":192,
			"max":[
				-0.39341622591018677,
				0.9888150095939636,
				0.4847767949104309
			],
			"min":[
				-0.47953084111213684,
				0.00802026130259037,
				-0.48348164558410645
			],
			"type":"VEC3"
		},
		{
			"bufferView":12,
			"componentType":5126,
			"count":192,
			"type":"VEC3"
		},
		{
			"bufferView":13,
			"componentType":5126,
			"count":192,
			"type":"VEC2"
		},
		{
			"bufferView":14,
			"componentType":5123,
			"count":270,
			"type":"SCALAR"
		},
		{
			"bufferView":15,
			"componentType":5126,
			"count":192,
			"max":[
				0.4838012158870697,
				0.9888151288032532,
				-0.37960284948349
			],
			"min":[
				-0.4844571650028229,
				0.008020316250622272,
				-0.4657173156738281
			],
			"type":"VEC3"
		},
		{
			"bufferView":16,
			"componentType":5126,
			"count":192,
			"type":"VEC3"
		},
		{
			"bufferView":17,
			"componentType":5126,
			"count":192,
			"type":"VEC2"
		},
		{
			"bufferView":18,
			"componentType":5123,
			"count":270,
			"type":"SCALAR"
		},
		{
			"bufferView":19,
			"componentType":5126,
			"count":128,
			"max":[
				0.47896814346313477,
				0.7423731684684753,
				0.5153102874755859
			],
			"min":[
				-0.4850921928882599,
				0.2565949559211731,
				0.482774019241333
			],
			"type":"VEC3"
		},
		{
			"bufferView":20,
			"componentType":5126,
			"count":128,
			"type":"VEC3"
		},
		{
			"bufferView":21,
			"componentType":5126,
			"count":128,
			"type":"VEC2"
		},
		{
			"bufferView":22,
			"componentType":5123,
			"count":180,
			"type":"SCALAR"
		},
		{
			"bufferView":23,
			"componentType":5126,
			"count":256,
			"max":[
				-0.4756670594215393,
				0.9500772953033447,
				0.44364237785339355
			],
			"min":[
				-0.5199716091156006,
				0.05263957008719444,
				-0.433918297290802
			],
			"type":"VEC3"
		},
		{
			"bufferView":24,
			"componentType":5126,
			"count":256,
			"type":"VEC3"
		},
		{
			"bufferView":25,
			"componentType":5126,
			"count":256,
			"type":"VEC2"
		},
		{
			"bufferView":26,
			"componentType":5123,
			"count":360,
			"type":"SCALAR"
		},
		{
			"bufferView":27,
			"componentType":5126,
			"count":128,
			"max":[
				0.47896808385849,
				0.7423731684684753,
				-0.4774036407470703
			],
			"min":[
				-0.48509225249290466,
				0.2565949559211731,
				-0.5099398493766785
			],
			"type":"VEC3"
		},
		{
			"bufferView":28,
			"componentType":5126,
			"count":128,
			"type":"VEC3"
		},
		{
			"bufferView":29,
			"componentType":5126,
			"count":128,
			"type":"VEC2"
		},
		{
			"bufferView":30,
			"componentType":5123,
			"count":180,
			"type":"SCALAR"
		},
		{
			"bufferView":31,
			"componentType":5126,
			"count":256,
			"max":[
				0.5134331583976746,
				0.9500772953033447,
				0.44364237785339355
			],
			"min":[
				0.4691285192966461,
				0.05263962596654892,
				-0.433918297290802
			],
			"type":"VEC3"
		},
		{
			"bufferView":32,
			"componentType":5126,
			"count":256,
			"type":"VEC3"
		},
		{
			"bufferView":33,
			"componentType":5126,
			"count":256,
			"type":"VEC2"
		},
		{
			"bufferView":34,
			"componentType":5123,
			"count":360,
			"type":"SCALAR"
		},
		{
			"bufferView":35,
			"componentType":5126,
			"count":192,
			"max":[
				0.46556633710861206,
				0.9888150095939636,
				0.4847770929336548
			],
			"min":[
				0.37945181131362915,
				0.00802026130259037,
				-0.48348143696784973
			],
			"type":"VEC3"
		},
		{
			"bufferView":36,
			"componentType":5126,
			"count":192,
			"type":"VEC3"
		},
		{
			"bufferView":37,
			"componentType":5126,
			"count":192,
			"type":"VEC2"
		},
		{
			"bufferView":38,
			"componentType":5123,
			"count":270,
			"type":"SCALAR"
		}
	],
	"bufferViews":[
		{
			"buffer":0,
			"byteLength":3456,
			"byteOffset":0,
			"target":34962
		},
		{
			"buffer":0,
			"byteLength":3456,
			"byteOffset":3456,
			"target":34962
		},
		{
			"buffer":0,
			"byteLength":2304,
			"byteOffset":6912,
			"target":34962
		},
		{
			"buffer":0,
			"byteLength":792,
			"byteOffset":9216,
			"target":34963
		},
		{
			"buffer":0,
			"byteLength":3456,
			"byteOffset":10008,
			"target":34962
		},
		{
			"buffer":0,
			"byteLength":3456,
			"byteOffset":13464,
			"target":34962
		},
		{
			"buffer":0,
			"byteLength":2304,
			"byteOffset":16920,
			"target":34962
		},
		{
			"buffer":0,
			"byteLength":2304,
			"byteOffset":19224,
			"target":34962
		},
		{
			"buffer":0,
			"byteLength":2304,
			"byteOffset":21528,
			"target":34962
		},
		{
			"buffer":0,
			"byteLength":1536,
			"byteOffset":23832,
			"target":34962
		},
		{
			"buffer":0,
			"byteLength":540,
			"byteOffset":25368,
			"target":34963
		},
		{
			"buffer":0,
			"byteLength":2304,
			"byteOffset":25908,
			"target":34962
		},
		{
			"buffer":0,
			"byteLength":2304,
			"byteOffset":28212,
			"target":34962
		},
		{
			"buffer":0,
			"byteLength":1536,
			"byteOffset":30516,
			"target":34962
		},
		{
			"buffer":0,
			"byteLength":540,
			"byteOffset":32052,
			"target":34963
		},
		{
			"buffer":0,
			"byteLength":2304,
			"byteOffset":32592,
			"target":34962
		},
		{
			"buffer":0,
			"byteLength":2304,
			"byteOffset":34896,
			"target":34962
		},
		{
			"buffer":0,
			"byteLength":1536,
			"byteOffset":37200,
			"target":34962
		},
		{
			"buffer":0,
			"byteLength":540,
			"byteOffset":38736,
			"target":34963
		},
		{
			"buffer":0,
			"byteLength":1536,
			"byteOffset":39276,
			"target":34962
		},
		{
			"buffer":0,
			"byteLength":1536,
			"byteOffset":40812,
			"target":34962
		},
		{
			"buffer":0,
			"byteLength":1024,
			"byteOffset":42348,
			"target":34962
		},
		{
			"buffer":0,
			"byteLength":360,
			"byteOffset":43372,
			"target":34963
		},
		{
			"buffer":0,
			"byteLength":3072,
			"byteOffset":43732,
			"target":34962
		},
		{
			"buffer":0,
			"byteLength":3072,
			"byteOffset":46804,
			"target":34962
		},
		{
			"buffer":0,
			"byteLength":2048,
			"byteOffset":49876,
			"target":34962
		},
		{
			"buffer":0,
			"byteLength":720,
			"byteOffset":51924,
			"target":34963
		},
		{
			"buffer":0,
			"byteLength":1536,
			"byteOffset":52644,
			"target":34962
		},
		{
			"buffer":0,
			"byteLength":1536,
			"byteOffset":54180,
			"target":34962
		},
		{
			"buffer":0,
			"byteLength":1024,
			"byteOffset":55716,
			"target":34962
		},
		{
			"buffer":0,
			"byteLength":360,
			"byteOffset":56740,
			"target":34963
		},
		{
			"buffer":0,
			"byteLength":3072,
			"byteOffset":57100,
			"target":34962
		},
		{
			"buffer":0,
			"byteLength":3072,
			"byteOffset":60172,
			"target":34962
		},
		{
			"buffer":0,
			"byteLength":2048,
			"byteOffset":63244,
			"target":34962
		},
		{
			"buffer":0,
			"byteLength":720,
			"byteOffset":65292,
			"target":34963
		},
		{
			"buffer":0,
			"byteLength":2304,
			"byteOffset":66012,
			"target":34962
		},
		{
			"buffer":0,
			"byteLength":2304,
			"byteOffset":68316,
			"target":34962
		},
		{
			"buffer":0,
			"byteLength":1536,
			"byteOffset":70620,
			"target":34962
		},
		{
			"buffer":0,
			"byteLength":540,
			"byteOffset":72156,
			"target":34963
		}
	],
	"samplers":[
		{
			"magFilter":9729,
			"minFilter":9987
		}
	],
	"buffers":[
		{
			"byteLength":72696,
			"uri":"P_Box2.bin"
		}
	]
}
