{
	"asset":{
		"generator":"Khronos glTF Blender I/O v4.4.56",
		"version":"2.0"
	},
	"scene":0,
	"scenes":[
		{
			"name":"Scene",
			"nodes":[
				6
			]
		}
	],
	"nodes":[
		{
			"name":"Plane1",
			"rotation":[
				1.1987316148661265e-16,
				0,
				0,
				1
			]
		},
		{
			"name":"Cylinder2",
			"rotation":[
				-2.3803240474401543e-16,
				0,
				0,
				1
			],
			"scale":[
				1,
				0.9999999403953552,
				1
			]
		},
		{
			"name":"Cylinder1",
			"rotation":[
				-1.3562556555559888e-16,
				0,
				0,
				1
			]
		},
		{
			"name":"Plane2",
			"rotation":[
				-1.777605511548291e-17,
				0,
				0,
				1
			]
		},
		{
			"children":[
				0,
				1,
				2,
				3
			],
			"name":"Root",
			"rotation":[
				9.103037212909726e-10,
				0,
				0,
				1
			]
		},
		{
			"mesh":0,
			"name":"VFXDroppod",
			"skin":0
		},
		{
			"children":[
				5,
				4
			],
			"name":"Armature"
		}
	],
	"animations":[
		{
			"channels":[
				{
					"sampler":0,
					"target":{
						"node":4,
						"path":"translation"
					}
				},
				{
					"sampler":1,
					"target":{
						"node":4,
						"path":"rotation"
					}
				},
				{
					"sampler":2,
					"target":{
						"node":4,
						"path":"scale"
					}
				},
				{
					"sampler":3,
					"target":{
						"node":0,
						"path":"translation"
					}
				},
				{
					"sampler":4,
					"target":{
						"node":0,
						"path":"rotation"
					}
				},
				{
					"sampler":5,
					"target":{
						"node":0,
						"path":"scale"
					}
				},
				{
					"sampler":6,
					"target":{
						"node":1,
						"path":"translation"
					}
				},
				{
					"sampler":7,
					"target":{
						"node":1,
						"path":"rotation"
					}
				},
				{
					"sampler":8,
					"target":{
						"node":1,
						"path":"scale"
					}
				},
				{
					"sampler":9,
					"target":{
						"node":2,
						"path":"translation"
					}
				},
				{
					"sampler":10,
					"target":{
						"node":2,
						"path":"rotation"
					}
				},
				{
					"sampler":11,
					"target":{
						"node":2,
						"path":"scale"
					}
				},
				{
					"sampler":12,
					"target":{
						"node":3,
						"path":"translation"
					}
				},
				{
					"sampler":13,
					"target":{
						"node":3,
						"path":"rotation"
					}
				},
				{
					"sampler":14,
					"target":{
						"node":3,
						"path":"scale"
					}
				}
			],
			"name":"VFX",
			"samplers":[
				{
					"input":13,
					"interpolation":"LINEAR",
					"output":14
				},
				{
					"input":15,
					"interpolation":"STEP",
					"output":16
				},
				{
					"input":15,
					"interpolation":"STEP",
					"output":17
				},
				{
					"input":15,
					"interpolation":"STEP",
					"output":18
				},
				{
					"input":13,
					"interpolation":"LINEAR",
					"output":19
				},
				{
					"input":13,
					"interpolation":"LINEAR",
					"output":20
				},
				{
					"input":15,
					"interpolation":"STEP",
					"output":21
				},
				{
					"input":13,
					"interpolation":"LINEAR",
					"output":22
				},
				{
					"input":13,
					"interpolation":"LINEAR",
					"output":23
				},
				{
					"input":15,
					"interpolation":"STEP",
					"output":24
				},
				{
					"input":13,
					"interpolation":"LINEAR",
					"output":25
				},
				{
					"input":13,
					"interpolation":"LINEAR",
					"output":26
				},
				{
					"input":15,
					"interpolation":"STEP",
					"output":27
				},
				{
					"input":13,
					"interpolation":"LINEAR",
					"output":28
				},
				{
					"input":15,
					"interpolation":"STEP",
					"output":29
				}
			]
		}
	],
	"materials":[
		{
			"alphaMode":"BLEND",
			"doubleSided":true,
			"emissiveFactor":[
				1,
				1,
				1
			],
			"emissiveTexture":{
				"index":0
			},
			"name":"Material.002",
			"pbrMetallicRoughness":{
				"baseColorTexture":{
					"index":1
				},
				"metallicFactor":0,
				"roughnessFactor":0.5
			}
		},
		{
			"alphaMode":"BLEND",
			"doubleSided":true,
			"emissiveFactor":[
				1,
				1,
				1
			],
			"emissiveTexture":{
				"index":2
			},
			"name":"Material.003",
			"pbrMetallicRoughness":{
				"baseColorTexture":{
					"index":3
				},
				"metallicFactor":0,
				"roughnessFactor":0.5
			}
		}
	],
	"meshes":[
		{
			"name":"Cylinder",
			"primitives":[
				{
					"attributes":{
						"POSITION":0,
						"NORMAL":1,
						"TEXCOORD_0":2,
						"JOINTS_0":3,
						"WEIGHTS_0":4
					},
					"indices":5,
					"material":0
				},
				{
					"attributes":{
						"POSITION":6,
						"NORMAL":7,
						"TEXCOORD_0":8,
						"JOINTS_0":9,
						"WEIGHTS_0":10
					},
					"indices":11,
					"material":1
				}
			]
		}
	],
	"textures":[
		{
			"sampler":0,
			"source":0
		},
		{
			"sampler":0,
			"source":0
		},
		{
			"sampler":0,
			"source":0
		},
		{
			"sampler":0,
			"source":0
		}
	],
	"images":[
		{
			"mimeType":"image/png",
			"name":"DroppodVfx7",
			"uri":"DroppodVfx7.png"
		}
	],
	"skins":[
		{
			"inverseBindMatrices":12,
			"joints":[
				4,
				0,
				1,
				2,
				3
			],
			"name":"Armature"
		}
	],
	"accessors":[
		{
			"bufferView":0,
			"componentType":5126,
			"count":76,
			"max":[
				3.2126951217651367,
				7.408143520355225,
				3.163886785507202
			],
			"min":[
				-3.2126951217651367,
				0.00018167495727539062,
				-3.163886785507202
			],
			"type":"VEC3"
		},
		{
			"bufferView":1,
			"componentType":5126,
			"count":76,
			"type":"VEC3"
		},
		{
			"bufferView":2,
			"componentType":5126,
			"count":76,
			"type":"VEC2"
		},
		{
			"bufferView":3,
			"componentType":5121,
			"count":76,
			"type":"VEC4"
		},
		{
			"bufferView":4,
			"componentType":5126,
			"count":76,
			"type":"VEC4"
		},
		{
			"bufferView":5,
			"componentType":5123,
			"count":216,
			"type":"SCALAR"
		},
		{
			"bufferView":6,
			"componentType":5126,
			"count":392,
			"max":[
				3.3575685024261475,
				1.2820528745651245,
				3.358494758605957
			],
			"min":[
				-3.3588764667510986,
				-0.6697931289672852,
				-3.3598978519439697
			],
			"type":"VEC3"
		},
		{
			"bufferView":7,
			"componentType":5126,
			"count":392,
			"type":"VEC3"
		},
		{
			"bufferView":8,
			"componentType":5126,
			"count":392,
			"type":"VEC2"
		},
		{
			"bufferView":9,
			"componentType":5121,
			"count":392,
			"type":"VEC4"
		},
		{
			"bufferView":10,
			"componentType":5126,
			"count":392,
			"type":"VEC4"
		},
		{
			"bufferView":11,
			"componentType":5123,
			"count":2028,
			"type":"SCALAR"
		},
		{
			"bufferView":12,
			"componentType":5126,
			"count":5,
			"type":"MAT4"
		},
		{
			"bufferView":13,
			"componentType":5126,
			"count":50,
			"max":[
				0.8333333333333334
			],
			"min":[
				0.016666666666666666
			],
			"type":"SCALAR"
		},
		{
			"bufferView":14,
			"componentType":5126,
			"count":50,
			"type":"VEC3"
		},
		{
			"bufferView":15,
			"componentType":5126,
			"count":2,
			"max":[
				0.8333333333333334
			],
			"min":[
				0.016666666666666666
			],
			"type":"SCALAR"
		},
		{
			"bufferView":16,
			"componentType":5126,
			"count":2,
			"type":"VEC4"
		},
		{
			"bufferView":17,
			"componentType":5126,
			"count":2,
			"type":"VEC3"
		},
		{
			"bufferView":18,
			"componentType":5126,
			"count":2,
			"type":"VEC3"
		},
		{
			"bufferView":19,
			"componentType":5126,
			"count":50,
			"type":"VEC4"
		},
		{
			"bufferView":20,
			"componentType":5126,
			"count":50,
			"type":"VEC3"
		},
		{
			"bufferView":21,
			"componentType":5126,
			"count":2,
			"type":"VEC3"
		},
		{
			"bufferView":22,
			"componentType":5126,
			"count":50,
			"type":"VEC4"
		},
		{
			"bufferView":23,
			"componentType":5126,
			"count":50,
			"type":"VEC3"
		},
		{
			"bufferView":24,
			"componentType":5126,
			"count":2,
			"type":"VEC3"
		},
		{
			"bufferView":25,
			"componentType":5126,
			"count":50,
			"type":"VEC4"
		},
		{
			"bufferView":26,
			"componentType":5126,
			"count":50,
			"type":"VEC3"
		},
		{
			"bufferView":27,
			"componentType":5126,
			"count":2,
			"type":"VEC3"
		},
		{
			"bufferView":28,
			"componentType":5126,
			"count":50,
			"type":"VEC4"
		},
		{
			"bufferView":29,
			"componentType":5126,
			"count":2,
			"type":"VEC3"
		}
	],
	"bufferViews":[
		{
			"buffer":0,
			"byteLength":912,
			"byteOffset":0,
			"target":34962
		},
		{
			"buffer":0,
			"byteLength":912,
			"byteOffset":912,
			"target":34962
		},
		{
			"buffer":0,
			"byteLength":608,
			"byteOffset":1824,
			"target":34962
		},
		{
			"buffer":0,
			"byteLength":304,
			"byteOffset":2432,
			"target":34962
		},
		{
			"buffer":0,
			"byteLength":1216,
			"byteOffset":2736,
			"target":34962
		},
		{
			"buffer":0,
			"byteLength":432,
			"byteOffset":3952,
			"target":34963
		},
		{
			"buffer":0,
			"byteLength":4704,
			"byteOffset":4384,
			"target":34962
		},
		{
			"buffer":0,
			"byteLength":4704,
			"byteOffset":9088,
			"target":34962
		},
		{
			"buffer":0,
			"byteLength":3136,
			"byteOffset":13792,
			"target":34962
		},
		{
			"buffer":0,
			"byteLength":1568,
			"byteOffset":16928,
			"target":34962
		},
		{
			"buffer":0,
			"byteLength":6272,
			"byteOffset":18496,
			"target":34962
		},
		{
			"buffer":0,
			"byteLength":4056,
			"byteOffset":24768,
			"target":34963
		},
		{
			"buffer":0,
			"byteLength":320,
			"byteOffset":28824
		},
		{
			"buffer":0,
			"byteLength":200,
			"byteOffset":29144
		},
		{
			"buffer":0,
			"byteLength":600,
			"byteOffset":29344
		},
		{
			"buffer":0,
			"byteLength":8,
			"byteOffset":29944
		},
		{
			"buffer":0,
			"byteLength":32,
			"byteOffset":29952
		},
		{
			"buffer":0,
			"byteLength":24,
			"byteOffset":29984
		},
		{
			"buffer":0,
			"byteLength":24,
			"byteOffset":30008
		},
		{
			"buffer":0,
			"byteLength":800,
			"byteOffset":30032
		},
		{
			"buffer":0,
			"byteLength":600,
			"byteOffset":30832
		},
		{
			"buffer":0,
			"byteLength":24,
			"byteOffset":31432
		},
		{
			"buffer":0,
			"byteLength":800,
			"byteOffset":31456
		},
		{
			"buffer":0,
			"byteLength":600,
			"byteOffset":32256
		},
		{
			"buffer":0,
			"byteLength":24,
			"byteOffset":32856
		},
		{
			"buffer":0,
			"byteLength":800,
			"byteOffset":32880
		},
		{
			"buffer":0,
			"byteLength":600,
			"byteOffset":33680
		},
		{
			"buffer":0,
			"byteLength":24,
			"byteOffset":34280
		},
		{
			"buffer":0,
			"byteLength":800,
			"byteOffset":34304
		},
		{
			"buffer":0,
			"byteLength":24,
			"byteOffset":35104
		}
	],
	"samplers":[
		{
			"magFilter":9729,
			"minFilter":9987
		}
	],
	"buffers":[
		{
			"byteLength":35128,
			"uri":"DroppodVFX.bin"
		}
	]
}
