{
	"asset":{
		"generator":"Khronos glTF Blender I/O v4.4.56",
		"version":"2.0"
	},
	"scene":0,
	"scenes":[
		{
			"name":"Scene",
			"nodes":[
				9
			]
		}
	],
	"nodes":[
		{
			"name":"Plane1",
			"rotation":[
				1.1987316148661265e-16,
				0,
				0,
				1
			]
		},
		{
			"name":"Cylinder2",
			"rotation":[
				-2.3803240474401543e-16,
				0,
				0,
				1
			],
			"scale":[
				1,
				0.9999999403953552,
				1
			]
		},
		{
			"name":"Cylinder1",
			"rotation":[
				-1.3562556555559888e-16,
				0,
				0,
				1
			]
		},
		{
			"name":"Plane2",
			"rotation":[
				-1.777605511548291e-17,
				0,
				0,
				1
			]
		},
		{
			"children":[
				0,
				1,
				2,
				3
			],
			"name":"Root",
			"rotation":[
				9.103037212909726e-10,
				0,
				0,
				1
			]
		},
		{
			"mesh":0,
			"name":"Cylinder1",
			"skin":0
		},
		{
			"mesh":1,
			"name":"Cylinder2",
			"skin":0
		},
		{
			"mesh":2,
			"name":"Plane",
			"skin":0
		},
		{
			"mesh":3,
			"name":"Plane.001",
			"skin":0
		},
		{
			"children":[
				5,
				6,
				7,
				8,
				4
			],
			"name":"Armature"
		}
	],
	"animations":[
		{
			"channels":[
				{
					"sampler":0,
					"target":{
						"node":4,
						"path":"translation"
					}
				},
				{
					"sampler":1,
					"target":{
						"node":4,
						"path":"rotation"
					}
				},
				{
					"sampler":2,
					"target":{
						"node":4,
						"path":"scale"
					}
				},
				{
					"sampler":3,
					"target":{
						"node":0,
						"path":"translation"
					}
				},
				{
					"sampler":4,
					"target":{
						"node":0,
						"path":"rotation"
					}
				},
				{
					"sampler":5,
					"target":{
						"node":0,
						"path":"scale"
					}
				},
				{
					"sampler":6,
					"target":{
						"node":1,
						"path":"translation"
					}
				},
				{
					"sampler":7,
					"target":{
						"node":1,
						"path":"rotation"
					}
				},
				{
					"sampler":8,
					"target":{
						"node":1,
						"path":"scale"
					}
				},
				{
					"sampler":9,
					"target":{
						"node":2,
						"path":"translation"
					}
				},
				{
					"sampler":10,
					"target":{
						"node":2,
						"path":"rotation"
					}
				},
				{
					"sampler":11,
					"target":{
						"node":2,
						"path":"scale"
					}
				},
				{
					"sampler":12,
					"target":{
						"node":3,
						"path":"translation"
					}
				},
				{
					"sampler":13,
					"target":{
						"node":3,
						"path":"rotation"
					}
				},
				{
					"sampler":14,
					"target":{
						"node":3,
						"path":"scale"
					}
				}
			],
			"name":"Drop_Rig_Droppod",
			"samplers":[
				{
					"input":23,
					"interpolation":"LINEAR",
					"output":24
				},
				{
					"input":23,
					"interpolation":"LINEAR",
					"output":25
				},
				{
					"input":26,
					"interpolation":"LINEAR",
					"output":27
				},
				{
					"input":26,
					"interpolation":"STEP",
					"output":28
				},
				{
					"input":26,
					"interpolation":"STEP",
					"output":29
				},
				{
					"input":26,
					"interpolation":"STEP",
					"output":30
				},
				{
					"input":26,
					"interpolation":"STEP",
					"output":31
				},
				{
					"input":26,
					"interpolation":"STEP",
					"output":32
				},
				{
					"input":26,
					"interpolation":"STEP",
					"output":33
				},
				{
					"input":26,
					"interpolation":"STEP",
					"output":34
				},
				{
					"input":26,
					"interpolation":"STEP",
					"output":35
				},
				{
					"input":26,
					"interpolation":"STEP",
					"output":36
				},
				{
					"input":26,
					"interpolation":"STEP",
					"output":37
				},
				{
					"input":26,
					"interpolation":"STEP",
					"output":38
				},
				{
					"input":26,
					"interpolation":"STEP",
					"output":39
				}
			]
		},
		{
			"channels":[
				{
					"sampler":0,
					"target":{
						"node":4,
						"path":"translation"
					}
				},
				{
					"sampler":1,
					"target":{
						"node":4,
						"path":"rotation"
					}
				},
				{
					"sampler":2,
					"target":{
						"node":4,
						"path":"scale"
					}
				},
				{
					"sampler":3,
					"target":{
						"node":0,
						"path":"translation"
					}
				},
				{
					"sampler":4,
					"target":{
						"node":0,
						"path":"rotation"
					}
				},
				{
					"sampler":5,
					"target":{
						"node":0,
						"path":"scale"
					}
				},
				{
					"sampler":6,
					"target":{
						"node":1,
						"path":"translation"
					}
				},
				{
					"sampler":7,
					"target":{
						"node":1,
						"path":"rotation"
					}
				},
				{
					"sampler":8,
					"target":{
						"node":1,
						"path":"scale"
					}
				},
				{
					"sampler":9,
					"target":{
						"node":2,
						"path":"translation"
					}
				},
				{
					"sampler":10,
					"target":{
						"node":2,
						"path":"rotation"
					}
				},
				{
					"sampler":11,
					"target":{
						"node":2,
						"path":"scale"
					}
				},
				{
					"sampler":12,
					"target":{
						"node":3,
						"path":"translation"
					}
				},
				{
					"sampler":13,
					"target":{
						"node":3,
						"path":"rotation"
					}
				},
				{
					"sampler":14,
					"target":{
						"node":3,
						"path":"scale"
					}
				}
			],
			"name":"VFX",
			"samplers":[
				{
					"input":40,
					"interpolation":"LINEAR",
					"output":41
				},
				{
					"input":42,
					"interpolation":"STEP",
					"output":43
				},
				{
					"input":42,
					"interpolation":"STEP",
					"output":44
				},
				{
					"input":42,
					"interpolation":"STEP",
					"output":45
				},
				{
					"input":40,
					"interpolation":"LINEAR",
					"output":46
				},
				{
					"input":40,
					"interpolation":"LINEAR",
					"output":47
				},
				{
					"input":42,
					"interpolation":"STEP",
					"output":48
				},
				{
					"input":40,
					"interpolation":"LINEAR",
					"output":49
				},
				{
					"input":40,
					"interpolation":"LINEAR",
					"output":50
				},
				{
					"input":42,
					"interpolation":"STEP",
					"output":51
				},
				{
					"input":40,
					"interpolation":"LINEAR",
					"output":52
				},
				{
					"input":40,
					"interpolation":"LINEAR",
					"output":53
				},
				{
					"input":42,
					"interpolation":"STEP",
					"output":54
				},
				{
					"input":40,
					"interpolation":"LINEAR",
					"output":55
				},
				{
					"input":42,
					"interpolation":"STEP",
					"output":56
				}
			]
		}
	],
	"materials":[
		{
			"alphaMode":"BLEND",
			"doubleSided":true,
			"emissiveFactor":[
				1,
				1,
				1
			],
			"emissiveTexture":{
				"index":0
			},
			"name":"Material.002",
			"pbrMetallicRoughness":{
				"baseColorTexture":{
					"index":1
				},
				"metallicFactor":0,
				"roughnessFactor":0.5
			}
		},
		{
			"alphaMode":"BLEND",
			"doubleSided":true,
			"emissiveFactor":[
				1,
				1,
				1
			],
			"emissiveTexture":{
				"index":2
			},
			"name":"Material.003",
			"pbrMetallicRoughness":{
				"baseColorTexture":{
					"index":3
				},
				"metallicFactor":0,
				"roughnessFactor":0.5
			}
		}
	],
	"meshes":[
		{
			"name":"Cylinder",
			"primitives":[
				{
					"attributes":{
						"POSITION":0,
						"NORMAL":1,
						"TEXCOORD_0":2,
						"JOINTS_0":3,
						"WEIGHTS_0":4
					},
					"indices":5,
					"material":0
				}
			]
		},
		{
			"name":"Cylinder.001",
			"primitives":[
				{
					"attributes":{
						"POSITION":7,
						"NORMAL":8,
						"TEXCOORD_0":9,
						"JOINTS_0":10,
						"WEIGHTS_0":11
					},
					"indices":5,
					"material":0
				}
			]
		},
		{
			"name":"Plane.001",
			"primitives":[
				{
					"attributes":{
						"POSITION":12,
						"NORMAL":13,
						"TEXCOORD_0":14,
						"JOINTS_0":15,
						"WEIGHTS_0":16
					},
					"indices":17,
					"material":1
				}
			]
		},
		{
			"name":"Plane.002",
			"primitives":[
				{
					"attributes":{
						"POSITION":18,
						"NORMAL":19,
						"TEXCOORD_0":20,
						"JOINTS_0":21,
						"WEIGHTS_0":22
					},
					"indices":17,
					"material":1
				}
			]
		}
	],
	"textures":[
		{
			"sampler":0,
			"source":0
		},
		{
			"sampler":0,
			"source":0
		},
		{
			"sampler":0,
			"source":0
		},
		{
			"sampler":0,
			"source":0
		}
	],
	"images":[
		{
			"mimeType":"image/png",
			"name":"DroppodVfx7",
			"uri":"DroppodVfx7.png"
		}
	],
	"skins":[
		{
			"inverseBindMatrices":6,
			"joints":[
				4,
				0,
				1,
				2,
				3
			],
			"name":"Armature"
		}
	],
	"accessors":[
		{
			"bufferView":0,
			"componentType":5126,
			"count":38,
			"max":[
				2.6016037464141846,
				7.408143520355225,
				2.641737937927246
			],
			"min":[
				-2.6016037464141846,
				0.00018167495727539062,
				-2.641737937927246
			],
			"type":"VEC3"
		},
		{
			"bufferView":1,
			"componentType":5126,
			"count":38,
			"type":"VEC3"
		},
		{
			"bufferView":2,
			"componentType":5126,
			"count":38,
			"type":"VEC2"
		},
		{
			"bufferView":3,
			"componentType":5121,
			"count":38,
			"type":"VEC4"
		},
		{
			"bufferView":4,
			"componentType":5126,
			"count":38,
			"type":"VEC4"
		},
		{
			"bufferView":5,
			"componentType":5123,
			"count":108,
			"type":"SCALAR"
		},
		{
			"bufferView":6,
			"componentType":5126,
			"count":5,
			"type":"MAT4"
		},
		{
			"bufferView":7,
			"componentType":5126,
			"count":38,
			"max":[
				3.2126951217651367,
				5.030335426330566,
				3.163886785507202
			],
			"min":[
				-3.2126951217651367,
				0.0442357063293457,
				-3.163886785507202
			],
			"type":"VEC3"
		},
		{
			"bufferView":8,
			"componentType":5126,
			"count":38,
			"type":"VEC3"
		},
		{
			"bufferView":9,
			"componentType":5126,
			"count":38,
			"type":"VEC2"
		},
		{
			"bufferView":10,
			"componentType":5121,
			"count":38,
			"type":"VEC4"
		},
		{
			"bufferView":11,
			"componentType":5126,
			"count":38,
			"type":"VEC4"
		},
		{
			"bufferView":12,
			"componentType":5126,
			"count":196,
			"max":[
				3.125209331512451,
				0.9727139472961426,
				3.142746686935425
			],
			"min":[
				-3.124223232269287,
				-0.6645883917808533,
				-3.143366575241089
			],
			"type":"VEC3"
		},
		{
			"bufferView":13,
			"componentType":5126,
			"count":196,
			"type":"VEC3"
		},
		{
			"bufferView":14,
			"componentType":5126,
			"count":196,
			"type":"VEC2"
		},
		{
			"bufferView":15,
			"componentType":5121,
			"count":196,
			"type":"VEC4"
		},
		{
			"bufferView":16,
			"componentType":5126,
			"count":196,
			"type":"VEC4"
		},
		{
			"bufferView":17,
			"componentType":5123,
			"count":1014,
			"type":"SCALAR"
		},
		{
			"bufferView":18,
			"componentType":5126,
			"count":196,
			"max":[
				3.3575685024261475,
				1.2820528745651245,
				3.358494758605957
			],
			"min":[
				-3.3588764667510986,
				-0.6697931289672852,
				-3.3598978519439697
			],
			"type":"VEC3"
		},
		{
			"bufferView":19,
			"componentType":5126,
			"count":196,
			"type":"VEC3"
		},
		{
			"bufferView":20,
			"componentType":5126,
			"count":196,
			"type":"VEC2"
		},
		{
			"bufferView":21,
			"componentType":5121,
			"count":196,
			"type":"VEC4"
		},
		{
			"bufferView":22,
			"componentType":5126,
			"count":196,
			"type":"VEC4"
		},
		{
			"bufferView":23,
			"componentType":5126,
			"count":240,
			"max":[
				3.9833333333333334
			],
			"min":[
				0
			],
			"type":"SCALAR"
		},
		{
			"bufferView":24,
			"componentType":5126,
			"count":240,
			"type":"VEC3"
		},
		{
			"bufferView":25,
			"componentType":5126,
			"count":240,
			"type":"VEC4"
		},
		{
			"bufferView":26,
			"componentType":5126,
			"count":2,
			"max":[
				3.9833333333333334
			],
			"min":[
				0
			],
			"type":"SCALAR"
		},
		{
			"bufferView":27,
			"componentType":5126,
			"count":2,
			"type":"VEC3"
		},
		{
			"bufferView":28,
			"componentType":5126,
			"count":2,
			"type":"VEC3"
		},
		{
			"bufferView":29,
			"componentType":5126,
			"count":2,
			"type":"VEC4"
		},
		{
			"bufferView":30,
			"componentType":5126,
			"count":2,
			"type":"VEC3"
		},
		{
			"bufferView":31,
			"componentType":5126,
			"count":2,
			"type":"VEC3"
		},
		{
			"bufferView":32,
			"componentType":5126,
			"count":2,
			"type":"VEC4"
		},
		{
			"bufferView":33,
			"componentType":5126,
			"count":2,
			"type":"VEC3"
		},
		{
			"bufferView":34,
			"componentType":5126,
			"count":2,
			"type":"VEC3"
		},
		{
			"bufferView":35,
			"componentType":5126,
			"count":2,
			"type":"VEC4"
		},
		{
			"bufferView":36,
			"componentType":5126,
			"count":2,
			"type":"VEC3"
		},
		{
			"bufferView":37,
			"componentType":5126,
			"count":2,
			"type":"VEC3"
		},
		{
			"bufferView":38,
			"componentType":5126,
			"count":2,
			"type":"VEC4"
		},
		{
			"bufferView":39,
			"componentType":5126,
			"count":2,
			"type":"VEC3"
		},
		{
			"bufferView":40,
			"componentType":5126,
			"count":50,
			"max":[
				0.8333333333333334
			],
			"min":[
				0.016666666666666666
			],
			"type":"SCALAR"
		},
		{
			"bufferView":41,
			"componentType":5126,
			"count":50,
			"type":"VEC3"
		},
		{
			"bufferView":42,
			"componentType":5126,
			"count":2,
			"max":[
				0.8333333333333334
			],
			"min":[
				0.016666666666666666
			],
			"type":"SCALAR"
		},
		{
			"bufferView":43,
			"componentType":5126,
			"count":2,
			"type":"VEC4"
		},
		{
			"bufferView":44,
			"componentType":5126,
			"count":2,
			"type":"VEC3"
		},
		{
			"bufferView":45,
			"componentType":5126,
			"count":2,
			"type":"VEC3"
		},
		{
			"bufferView":46,
			"componentType":5126,
			"count":50,
			"type":"VEC4"
		},
		{
			"bufferView":47,
			"componentType":5126,
			"count":50,
			"type":"VEC3"
		},
		{
			"bufferView":48,
			"componentType":5126,
			"count":2,
			"type":"VEC3"
		},
		{
			"bufferView":49,
			"componentType":5126,
			"count":50,
			"type":"VEC4"
		},
		{
			"bufferView":50,
			"componentType":5126,
			"count":50,
			"type":"VEC3"
		},
		{
			"bufferView":51,
			"componentType":5126,
			"count":2,
			"type":"VEC3"
		},
		{
			"bufferView":52,
			"componentType":5126,
			"count":50,
			"type":"VEC4"
		},
		{
			"bufferView":53,
			"componentType":5126,
			"count":50,
			"type":"VEC3"
		},
		{
			"bufferView":54,
			"componentType":5126,
			"count":2,
			"type":"VEC3"
		},
		{
			"bufferView":55,
			"componentType":5126,
			"count":50,
			"type":"VEC4"
		},
		{
			"bufferView":56,
			"componentType":5126,
			"count":2,
			"type":"VEC3"
		}
	],
	"bufferViews":[
		{
			"buffer":0,
			"byteLength":456,
			"byteOffset":0,
			"target":34962
		},
		{
			"buffer":0,
			"byteLength":456,
			"byteOffset":456,
			"target":34962
		},
		{
			"buffer":0,
			"byteLength":304,
			"byteOffset":912,
			"target":34962
		},
		{
			"buffer":0,
			"byteLength":152,
			"byteOffset":1216,
			"target":34962
		},
		{
			"buffer":0,
			"byteLength":608,
			"byteOffset":1368,
			"target":34962
		},
		{
			"buffer":0,
			"byteLength":216,
			"byteOffset":1976,
			"target":34963
		},
		{
			"buffer":0,
			"byteLength":320,
			"byteOffset":2192
		},
		{
			"buffer":0,
			"byteLength":456,
			"byteOffset":2512,
			"target":34962
		},
		{
			"buffer":0,
			"byteLength":456,
			"byteOffset":2968,
			"target":34962
		},
		{
			"buffer":0,
			"byteLength":304,
			"byteOffset":3424,
			"target":34962
		},
		{
			"buffer":0,
			"byteLength":152,
			"byteOffset":3728,
			"target":34962
		},
		{
			"buffer":0,
			"byteLength":608,
			"byteOffset":3880,
			"target":34962
		},
		{
			"buffer":0,
			"byteLength":2352,
			"byteOffset":4488,
			"target":34962
		},
		{
			"buffer":0,
			"byteLength":2352,
			"byteOffset":6840,
			"target":34962
		},
		{
			"buffer":0,
			"byteLength":1568,
			"byteOffset":9192,
			"target":34962
		},
		{
			"buffer":0,
			"byteLength":784,
			"byteOffset":10760,
			"target":34962
		},
		{
			"buffer":0,
			"byteLength":3136,
			"byteOffset":11544,
			"target":34962
		},
		{
			"buffer":0,
			"byteLength":2028,
			"byteOffset":14680,
			"target":34963
		},
		{
			"buffer":0,
			"byteLength":2352,
			"byteOffset":16708,
			"target":34962
		},
		{
			"buffer":0,
			"byteLength":2352,
			"byteOffset":19060,
			"target":34962
		},
		{
			"buffer":0,
			"byteLength":1568,
			"byteOffset":21412,
			"target":34962
		},
		{
			"buffer":0,
			"byteLength":784,
			"byteOffset":22980,
			"target":34962
		},
		{
			"buffer":0,
			"byteLength":3136,
			"byteOffset":23764,
			"target":34962
		},
		{
			"buffer":0,
			"byteLength":960,
			"byteOffset":26900
		},
		{
			"buffer":0,
			"byteLength":2880,
			"byteOffset":27860
		},
		{
			"buffer":0,
			"byteLength":3840,
			"byteOffset":30740
		},
		{
			"buffer":0,
			"byteLength":8,
			"byteOffset":34580
		},
		{
			"buffer":0,
			"byteLength":24,
			"byteOffset":34588
		},
		{
			"buffer":0,
			"byteLength":24,
			"byteOffset":34612
		},
		{
			"buffer":0,
			"byteLength":32,
			"byteOffset":34636
		},
		{
			"buffer":0,
			"byteLength":24,
			"byteOffset":34668
		},
		{
			"buffer":0,
			"byteLength":24,
			"byteOffset":34692
		},
		{
			"buffer":0,
			"byteLength":32,
			"byteOffset":34716
		},
		{
			"buffer":0,
			"byteLength":24,
			"byteOffset":34748
		},
		{
			"buffer":0,
			"byteLength":24,
			"byteOffset":34772
		},
		{
			"buffer":0,
			"byteLength":32,
			"byteOffset":34796
		},
		{
			"buffer":0,
			"byteLength":24,
			"byteOffset":34828
		},
		{
			"buffer":0,
			"byteLength":24,
			"byteOffset":34852
		},
		{
			"buffer":0,
			"byteLength":32,
			"byteOffset":34876
		},
		{
			"buffer":0,
			"byteLength":24,
			"byteOffset":34908
		},
		{
			"buffer":0,
			"byteLength":200,
			"byteOffset":34932
		},
		{
			"buffer":0,
			"byteLength":600,
			"byteOffset":35132
		},
		{
			"buffer":0,
			"byteLength":8,
			"byteOffset":35732
		},
		{
			"buffer":0,
			"byteLength":32,
			"byteOffset":35740
		},
		{
			"buffer":0,
			"byteLength":24,
			"byteOffset":35772
		},
		{
			"buffer":0,
			"byteLength":24,
			"byteOffset":35796
		},
		{
			"buffer":0,
			"byteLength":800,
			"byteOffset":35820
		},
		{
			"buffer":0,
			"byteLength":600,
			"byteOffset":36620
		},
		{
			"buffer":0,
			"byteLength":24,
			"byteOffset":37220
		},
		{
			"buffer":0,
			"byteLength":800,
			"byteOffset":37244
		},
		{
			"buffer":0,
			"byteLength":600,
			"byteOffset":38044
		},
		{
			"buffer":0,
			"byteLength":24,
			"byteOffset":38644
		},
		{
			"buffer":0,
			"byteLength":800,
			"byteOffset":38668
		},
		{
			"buffer":0,
			"byteLength":600,
			"byteOffset":39468
		},
		{
			"buffer":0,
			"byteLength":24,
			"byteOffset":40068
		},
		{
			"buffer":0,
			"byteLength":800,
			"byteOffset":40092
		},
		{
			"buffer":0,
			"byteLength":24,
			"byteOffset":40892
		}
	],
	"samplers":[
		{
			"magFilter":9729,
			"minFilter":9987
		}
	],
	"buffers":[
		{
			"byteLength":40916,
			"uri":"DroppodVFX.bin"
		}
	]
}
