{
	"asset":{
		"generator":"Khronos glTF Blender I/O v4.4.55",
		"version":"2.0"
	},
	"scene":0,
	"scenes":[
		{
			"name":"Scene",
			"nodes":[
				7
			]
		}
	],
	"nodes":[
		{
			"name":"SueloBone",
			"rotation":[
				-0.7071067690849304,
				1.0294328104014254e-22,
				0.7071067690849304,
				1.4973568266036865e-22
			],
			"translation":[
				0,
				-2.9802322387695312e-08,
				0
			]
		},
		{
			"name":"Pu\u00f1oBone",
			"rotation":[
				-0.7071067690849304,
				1.0294328104014254e-22,
				0.7071067690849304,
				1.4973568266036865e-22
			],
			"translation":[
				0,
				-2.9802322387695312e-08,
				0
			]
		},
		{
			"name":"TrailBone",
			"rotation":[
				-0.7071067690849304,
				1.0294328104014254e-22,
				0.7071067690849304,
				1.4973568266036865e-22
			],
			"translation":[
				0,
				-2.9802322387695312e-08,
				0
			]
		},
		{
			"children":[
				0,
				1,
				2
			],
			"name":"Root",
			"rotation":[
				-0.7071068286895752,
				0,
				0.7071067094802856,
				4.2146844236867764e-08
			],
			"scale":[
				0.9999999403953552,
				0.9999998211860657,
				0.9999998807907104
			]
		},
		{
			"mesh":0,
			"name":"Pu\u00f1o",
			"skin":0
		},
		{
			"mesh":1,
			"name":"Suelo",
			"skin":0
		},
		{
			"mesh":2,
			"name":"Trail",
			"skin":0
		},
		{
			"children":[
				4,
				5,
				6,
				3
			],
			"name":"BonesSmash"
		}
	],
	"animations":[
		{
			"channels":[
				{
					"sampler":0,
					"target":{
						"node":3,
						"path":"translation"
					}
				},
				{
					"sampler":1,
					"target":{
						"node":3,
						"path":"rotation"
					}
				},
				{
					"sampler":2,
					"target":{
						"node":3,
						"path":"scale"
					}
				},
				{
					"sampler":3,
					"target":{
						"node":0,
						"path":"translation"
					}
				},
				{
					"sampler":4,
					"target":{
						"node":0,
						"path":"rotation"
					}
				},
				{
					"sampler":5,
					"target":{
						"node":0,
						"path":"scale"
					}
				},
				{
					"sampler":6,
					"target":{
						"node":1,
						"path":"translation"
					}
				},
				{
					"sampler":7,
					"target":{
						"node":1,
						"path":"rotation"
					}
				},
				{
					"sampler":8,
					"target":{
						"node":1,
						"path":"scale"
					}
				},
				{
					"sampler":9,
					"target":{
						"node":2,
						"path":"translation"
					}
				},
				{
					"sampler":10,
					"target":{
						"node":2,
						"path":"rotation"
					}
				},
				{
					"sampler":11,
					"target":{
						"node":2,
						"path":"scale"
					}
				}
			],
			"name":"Charquito",
			"samplers":[
				{
					"input":21,
					"interpolation":"STEP",
					"output":22
				},
				{
					"input":21,
					"interpolation":"STEP",
					"output":23
				},
				{
					"input":21,
					"interpolation":"STEP",
					"output":24
				},
				{
					"input":21,
					"interpolation":"STEP",
					"output":25
				},
				{
					"input":21,
					"interpolation":"LINEAR",
					"output":26
				},
				{
					"input":27,
					"interpolation":"LINEAR",
					"output":28
				},
				{
					"input":21,
					"interpolation":"STEP",
					"output":29
				},
				{
					"input":21,
					"interpolation":"STEP",
					"output":30
				},
				{
					"input":21,
					"interpolation":"STEP",
					"output":31
				},
				{
					"input":21,
					"interpolation":"STEP",
					"output":32
				},
				{
					"input":21,
					"interpolation":"STEP",
					"output":33
				},
				{
					"input":21,
					"interpolation":"STEP",
					"output":34
				}
			]
		},
		{
			"channels":[
				{
					"sampler":0,
					"target":{
						"node":3,
						"path":"translation"
					}
				},
				{
					"sampler":1,
					"target":{
						"node":3,
						"path":"rotation"
					}
				},
				{
					"sampler":2,
					"target":{
						"node":3,
						"path":"scale"
					}
				},
				{
					"sampler":3,
					"target":{
						"node":0,
						"path":"translation"
					}
				},
				{
					"sampler":4,
					"target":{
						"node":0,
						"path":"rotation"
					}
				},
				{
					"sampler":5,
					"target":{
						"node":0,
						"path":"scale"
					}
				},
				{
					"sampler":6,
					"target":{
						"node":1,
						"path":"translation"
					}
				},
				{
					"sampler":7,
					"target":{
						"node":1,
						"path":"rotation"
					}
				},
				{
					"sampler":8,
					"target":{
						"node":1,
						"path":"scale"
					}
				},
				{
					"sampler":9,
					"target":{
						"node":2,
						"path":"translation"
					}
				},
				{
					"sampler":10,
					"target":{
						"node":2,
						"path":"rotation"
					}
				},
				{
					"sampler":11,
					"target":{
						"node":2,
						"path":"scale"
					}
				}
			],
			"name":"VFX_Smash",
			"samplers":[
				{
					"input":35,
					"interpolation":"STEP",
					"output":36
				},
				{
					"input":35,
					"interpolation":"STEP",
					"output":37
				},
				{
					"input":35,
					"interpolation":"STEP",
					"output":38
				},
				{
					"input":35,
					"interpolation":"STEP",
					"output":39
				},
				{
					"input":35,
					"interpolation":"LINEAR",
					"output":40
				},
				{
					"input":41,
					"interpolation":"LINEAR",
					"output":42
				},
				{
					"input":41,
					"interpolation":"LINEAR",
					"output":43
				},
				{
					"input":35,
					"interpolation":"STEP",
					"output":44
				},
				{
					"input":41,
					"interpolation":"LINEAR",
					"output":45
				},
				{
					"input":41,
					"interpolation":"LINEAR",
					"output":46
				},
				{
					"input":35,
					"interpolation":"STEP",
					"output":47
				},
				{
					"input":41,
					"interpolation":"LINEAR",
					"output":48
				}
			]
		}
	],
	"materials":[
		{
			"alphaMode":"BLEND",
			"doubleSided":true,
			"emissiveFactor":[
				1,
				1,
				1
			],
			"emissiveTexture":{
				"index":0
			},
			"name":"Material.001",
			"pbrMetallicRoughness":{
				"baseColorTexture":{
					"index":1
				},
				"metallicFactor":0,
				"roughnessFactor":0.5
			}
		}
	],
	"meshes":[
		{
			"name":"male_zbrush",
			"primitives":[
				{
					"attributes":{
						"POSITION":0,
						"NORMAL":1,
						"TEXCOORD_0":2,
						"COLOR_0":3,
						"COLOR_1":4,
						"JOINTS_0":5,
						"WEIGHTS_0":6
					},
					"indices":7,
					"material":0
				}
			]
		},
		{
			"name":"Plane.002",
			"primitives":[
				{
					"attributes":{
						"POSITION":9,
						"NORMAL":10,
						"TEXCOORD_0":11,
						"JOINTS_0":12,
						"WEIGHTS_0":13
					},
					"indices":14,
					"material":0
				}
			]
		},
		{
			"name":"Sphere",
			"primitives":[
				{
					"attributes":{
						"POSITION":15,
						"NORMAL":16,
						"TEXCOORD_0":17,
						"JOINTS_0":18,
						"WEIGHTS_0":19
					},
					"indices":20,
					"material":0
				}
			]
		}
	],
	"textures":[
		{
			"sampler":0,
			"source":0
		},
		{
			"sampler":0,
			"source":0
		}
	],
	"images":[
		{
			"mimeType":"image/png",
			"name":"VFX_BalaEnemies",
			"uri":"VFX_BalaEnemies.png"
		}
	],
	"skins":[
		{
			"inverseBindMatrices":8,
			"joints":[
				3,
				0,
				1,
				2
			],
			"name":"BonesSmash"
		}
	],
	"accessors":[
		{
			"bufferView":0,
			"componentType":5126,
			"count":2082,
			"max":[
				0.3277463912963867,
				1.01776123046875,
				0.45881903171539307
			],
			"min":[
				-0.29618191719055176,
				0.018150359392166138,
				-0.3530234098434448
			],
			"type":"VEC3"
		},
		{
			"bufferView":1,
			"componentType":5126,
			"count":2082,
			"type":"VEC3"
		},
		{
			"bufferView":2,
			"componentType":5126,
			"count":2082,
			"type":"VEC2"
		},
		{
			"bufferView":3,
			"componentType":5121,
			"count":2082,
			"normalized":true,
			"type":"VEC4"
		},
		{
			"bufferView":4,
			"componentType":5123,
			"count":2082,
			"normalized":true,
			"type":"VEC4"
		},
		{
			"bufferView":5,
			"componentType":5121,
			"count":2082,
			"type":"VEC4"
		},
		{
			"bufferView":6,
			"componentType":5126,
			"count":2082,
			"type":"VEC4"
		},
		{
			"bufferView":7,
			"componentType":5123,
			"count":8013,
			"type":"SCALAR"
		},
		{
			"bufferView":8,
			"componentType":5126,
			"count":4,
			"type":"MAT4"
		},
		{
			"bufferView":9,
			"componentType":5126,
			"count":4,
			"max":[
				0.9751415848731995,
				0.003000000026077032,
				0.9751415848731995
			],
			"min":[
				-0.9751415848731995,
				0.003000000026077032,
				-0.9751415848731995
			],
			"type":"VEC3"
		},
		{
			"bufferView":10,
			"componentType":5126,
			"count":4,
			"type":"VEC3"
		},
		{
			"bufferView":11,
			"componentType":5126,
			"count":4,
			"type":"VEC2"
		},
		{
			"bufferView":12,
			"componentType":5121,
			"count":4,
			"type":"VEC4"
		},
		{
			"bufferView":13,
			"componentType":5126,
			"count":4,
			"type":"VEC4"
		},
		{
			"bufferView":14,
			"componentType":5123,
			"count":6,
			"type":"SCALAR"
		},
		{
			"bufferView":15,
			"componentType":5126,
			"count":161,
			"max":[
				0.7621859908103943,
				0.6817513108253479,
				0.7621857523918152
			],
			"min":[
				-0.7621854543685913,
				-0.006905702408403158,
				-0.7621861696243286
			],
			"type":"VEC3"
		},
		{
			"bufferView":16,
			"componentType":5126,
			"count":161,
			"type":"VEC3"
		},
		{
			"bufferView":17,
			"componentType":5126,
			"count":161,
			"type":"VEC2"
		},
		{
			"bufferView":18,
			"componentType":5121,
			"count":161,
			"type":"VEC4"
		},
		{
			"bufferView":19,
			"componentType":5126,
			"count":161,
			"type":"VEC4"
		},
		{
			"bufferView":20,
			"componentType":5123,
			"count":864,
			"type":"SCALAR"
		},
		{
			"bufferView":21,
			"componentType":5126,
			"count":2,
			"max":[
				2
			],
			"min":[
				0.016666666666666666
			],
			"type":"SCALAR"
		},
		{
			"bufferView":22,
			"componentType":5126,
			"count":2,
			"type":"VEC3"
		},
		{
			"bufferView":23,
			"componentType":5126,
			"count":2,
			"type":"VEC4"
		},
		{
			"bufferView":24,
			"componentType":5126,
			"count":2,
			"type":"VEC3"
		},
		{
			"bufferView":25,
			"componentType":5126,
			"count":2,
			"type":"VEC3"
		},
		{
			"bufferView":26,
			"componentType":5126,
			"count":2,
			"type":"VEC4"
		},
		{
			"bufferView":27,
			"componentType":5126,
			"count":120,
			"max":[
				2
			],
			"min":[
				0.016666666666666666
			],
			"type":"SCALAR"
		},
		{
			"bufferView":28,
			"componentType":5126,
			"count":120,
			"type":"VEC3"
		},
		{
			"bufferView":29,
			"componentType":5126,
			"count":2,
			"type":"VEC3"
		},
		{
			"bufferView":30,
			"componentType":5126,
			"count":2,
			"type":"VEC4"
		},
		{
			"bufferView":31,
			"componentType":5126,
			"count":2,
			"type":"VEC3"
		},
		{
			"bufferView":32,
			"componentType":5126,
			"count":2,
			"type":"VEC3"
		},
		{
			"bufferView":33,
			"componentType":5126,
			"count":2,
			"type":"VEC4"
		},
		{
			"bufferView":34,
			"componentType":5126,
			"count":2,
			"type":"VEC3"
		},
		{
			"bufferView":35,
			"componentType":5126,
			"count":2,
			"max":[
				0.5
			],
			"min":[
				0.016666666666666666
			],
			"type":"SCALAR"
		},
		{
			"bufferView":36,
			"componentType":5126,
			"count":2,
			"type":"VEC3"
		},
		{
			"bufferView":37,
			"componentType":5126,
			"count":2,
			"type":"VEC4"
		},
		{
			"bufferView":38,
			"componentType":5126,
			"count":2,
			"type":"VEC3"
		},
		{
			"bufferView":39,
			"componentType":5126,
			"count":2,
			"type":"VEC3"
		},
		{
			"bufferView":40,
			"componentType":5126,
			"count":2,
			"type":"VEC4"
		},
		{
			"bufferView":41,
			"componentType":5126,
			"count":30,
			"max":[
				0.5
			],
			"min":[
				0.016666666666666666
			],
			"type":"SCALAR"
		},
		{
			"bufferView":42,
			"componentType":5126,
			"count":30,
			"type":"VEC3"
		},
		{
			"bufferView":43,
			"componentType":5126,
			"count":30,
			"type":"VEC3"
		},
		{
			"bufferView":44,
			"componentType":5126,
			"count":2,
			"type":"VEC4"
		},
		{
			"bufferView":45,
			"componentType":5126,
			"count":30,
			"type":"VEC3"
		},
		{
			"bufferView":46,
			"componentType":5126,
			"count":30,
			"type":"VEC3"
		},
		{
			"bufferView":47,
			"componentType":5126,
			"count":2,
			"type":"VEC4"
		},
		{
			"bufferView":48,
			"componentType":5126,
			"count":30,
			"type":"VEC3"
		}
	],
	"bufferViews":[
		{
			"buffer":0,
			"byteLength":24984,
			"byteOffset":0,
			"target":34962
		},
		{
			"buffer":0,
			"byteLength":24984,
			"byteOffset":24984,
			"target":34962
		},
		{
			"buffer":0,
			"byteLength":16656,
			"byteOffset":49968,
			"target":34962
		},
		{
			"buffer":0,
			"byteLength":8328,
			"byteOffset":66624,
			"target":34962
		},
		{
			"buffer":0,
			"byteLength":16656,
			"byteOffset":74952,
			"target":34962
		},
		{
			"buffer":0,
			"byteLength":8328,
			"byteOffset":91608,
			"target":34962
		},
		{
			"buffer":0,
			"byteLength":33312,
			"byteOffset":99936,
			"target":34962
		},
		{
			"buffer":0,
			"byteLength":16026,
			"byteOffset":133248,
			"target":34963
		},
		{
			"buffer":0,
			"byteLength":256,
			"byteOffset":149276
		},
		{
			"buffer":0,
			"byteLength":48,
			"byteOffset":149532,
			"target":34962
		},
		{
			"buffer":0,
			"byteLength":48,
			"byteOffset":149580,
			"target":34962
		},
		{
			"buffer":0,
			"byteLength":32,
			"byteOffset":149628,
			"target":34962
		},
		{
			"buffer":0,
			"byteLength":16,
			"byteOffset":149660,
			"target":34962
		},
		{
			"buffer":0,
			"byteLength":64,
			"byteOffset":149676,
			"target":34962
		},
		{
			"buffer":0,
			"byteLength":12,
			"byteOffset":149740,
			"target":34963
		},
		{
			"buffer":0,
			"byteLength":1932,
			"byteOffset":149752,
			"target":34962
		},
		{
			"buffer":0,
			"byteLength":1932,
			"byteOffset":151684,
			"target":34962
		},
		{
			"buffer":0,
			"byteLength":1288,
			"byteOffset":153616,
			"target":34962
		},
		{
			"buffer":0,
			"byteLength":644,
			"byteOffset":154904,
			"target":34962
		},
		{
			"buffer":0,
			"byteLength":2576,
			"byteOffset":155548,
			"target":34962
		},
		{
			"buffer":0,
			"byteLength":1728,
			"byteOffset":158124,
			"target":34963
		},
		{
			"buffer":0,
			"byteLength":8,
			"byteOffset":159852
		},
		{
			"buffer":0,
			"byteLength":24,
			"byteOffset":159860
		},
		{
			"buffer":0,
			"byteLength":32,
			"byteOffset":159884
		},
		{
			"buffer":0,
			"byteLength":24,
			"byteOffset":159916
		},
		{
			"buffer":0,
			"byteLength":24,
			"byteOffset":159940
		},
		{
			"buffer":0,
			"byteLength":32,
			"byteOffset":159964
		},
		{
			"buffer":0,
			"byteLength":480,
			"byteOffset":159996
		},
		{
			"buffer":0,
			"byteLength":1440,
			"byteOffset":160476
		},
		{
			"buffer":0,
			"byteLength":24,
			"byteOffset":161916
		},
		{
			"buffer":0,
			"byteLength":32,
			"byteOffset":161940
		},
		{
			"buffer":0,
			"byteLength":24,
			"byteOffset":161972
		},
		{
			"buffer":0,
			"byteLength":24,
			"byteOffset":161996
		},
		{
			"buffer":0,
			"byteLength":32,
			"byteOffset":162020
		},
		{
			"buffer":0,
			"byteLength":24,
			"byteOffset":162052
		},
		{
			"buffer":0,
			"byteLength":8,
			"byteOffset":162076
		},
		{
			"buffer":0,
			"byteLength":24,
			"byteOffset":162084
		},
		{
			"buffer":0,
			"byteLength":32,
			"byteOffset":162108
		},
		{
			"buffer":0,
			"byteLength":24,
			"byteOffset":162140
		},
		{
			"buffer":0,
			"byteLength":24,
			"byteOffset":162164
		},
		{
			"buffer":0,
			"byteLength":32,
			"byteOffset":162188
		},
		{
			"buffer":0,
			"byteLength":120,
			"byteOffset":162220
		},
		{
			"buffer":0,
			"byteLength":360,
			"byteOffset":162340
		},
		{
			"buffer":0,
			"byteLength":360,
			"byteOffset":162700
		},
		{
			"buffer":0,
			"byteLength":32,
			"byteOffset":163060
		},
		{
			"buffer":0,
			"byteLength":360,
			"byteOffset":163092
		},
		{
			"buffer":0,
			"byteLength":360,
			"byteOffset":163452
		},
		{
			"buffer":0,
			"byteLength":32,
			"byteOffset":163812
		},
		{
			"buffer":0,
			"byteLength":360,
			"byteOffset":163844
		}
	],
	"samplers":[
		{
			"magFilter":9729,
			"minFilter":9987
		}
	],
	"buffers":[
		{
			"byteLength":164204,
			"uri":"VFX_Smash.bin"
		}
	]
}
