{
	"asset":{
		"generator":"Khronos glTF Blender I/O v4.4.55",
		"version":"2.0"
	},
	"extensionsUsed":[
		"KHR_materials_specular"
	],
	"scene":0,
	"scenes":[
		{
			"name":"Scene",
			"nodes":[
				5,
				7,
				8,
				9,
				10,
				11
			]
		}
	],
	"nodes":[
		{
			"name":"UnionBarrotes"
		},
		{
			"children":[
				0
			],
			"name":"BarrotesConjunto"
		},
		{
			"name":"BordesMadera"
		},
		{
			"name":"Esquinas"
		},
		{
			"name":"TablonesSuelo"
		},
		{
			"children":[
				1,
				2,
				3,
				4
			],
			"name":"Jaula_lowpoly",
			"translation":[
				1.9383225440979004,
				1.277450442314148,
				0
			]
		},
		{
			"mesh":0,
			"name":"metalEdge_low.002",
			"translation":[
				-124.02046966552734,
				-1.811981201171875e-05,
				0
			]
		},
		{
			"children":[
				6
			],
			"name":"Door_low.001",
			"rotation":[
				0.5037729740142822,
				-0.4961983561515808,
				0.49619853496551514,
				0.5037727952003479
			],
			"scale":[
				0.023202652111649513,
				0.023202653974294662,
				0.02320265583693981
			],
			"translation":[
				9.966468811035156,
				0,
				-14.955842018127441
			]
		},
		{
			"name":"Door_low.002",
			"rotation":[
				0.5037729740142822,
				-0.4961983561515808,
				0.49619853496551514,
				0.5037727952003479
			],
			"scale":[
				0.019486920908093452,
				0.0194869227707386,
				0.0194869227707386
			],
			"translation":[
				53.3369255065918,
				0,
				-56.222389221191406
			]
		},
		{
			"name":"Door_low.003",
			"rotation":[
				0.5037729740142822,
				-0.4961983561515808,
				0.49619853496551514,
				0.5037727952003479
			],
			"scale":[
				0.023202652111649513,
				0.023202653974294662,
				0.02320265583693981
			],
			"translation":[
				111.31957244873047,
				0,
				-39.336036682128906
			]
		},
		{
			"name":"Door_low.004",
			"rotation":[
				0.6801449656486511,
				0.19339846074581146,
				-0.19339855015277863,
				0.680144727230072
			],
			"scale":[
				0.023202653974294662,
				0.023202653974294662,
				0.02320265583693981
			],
			"translation":[
				164.78604125976562,
				0,
				-82.45782470703125
			]
		},
		{
			"name":"Door_low.005",
			"rotation":[
				0.15009471774101257,
				-0.690993070602417,
				0.6909933090209961,
				0.150094673037529
			],
			"scale":[
				0.02320265769958496,
				0.02320265769958496,
				0.02320265769958496
			],
			"translation":[
				92.92192840576172,
				0,
				-200.14395141601562
			]
		}
	],
	"materials":[
		{
			"doubleSided":true,
			"name":"standardSurface1.002",
			"normalTexture":{
				"index":0
			},
			"pbrMetallicRoughness":{
				"baseColorTexture":{
					"index":1
				},
				"metallicRoughnessTexture":{
					"index":2
				}
			}
		},
		{
			"doubleSided":true,
			"name":"Material.005",
			"pbrMetallicRoughness":{
				"baseColorTexture":{
					"index":3
				},
				"metallicRoughnessTexture":{
					"index":4
				}
			}
		},
		{
			"doubleSided":true,
			"name":"barrelMAT.001",
			"normalTexture":{
				"index":5
			},
			"pbrMetallicRoughness":{
				"baseColorTexture":{
					"index":6
				},
				"metallicRoughnessTexture":{
					"index":7
				}
			}
		},
		{
			"doubleSided":true,
			"name":"Material",
			"normalTexture":{
				"index":8
			},
			"pbrMetallicRoughness":{
				"baseColorTexture":{
					"index":9
				},
				"metallicRoughnessTexture":{
					"index":10
				}
			}
		},
		{
			"doubleSided":true,
			"name":"Contenedor.001",
			"normalTexture":{
				"index":11
			},
			"pbrMetallicRoughness":{
				"baseColorTexture":{
					"index":12
				},
				"metallicRoughnessTexture":{
					"index":13
				}
			}
		},
		{
			"doubleSided":true,
			"name":"StreetLamp",
			"normalTexture":{
				"index":14
			},
			"pbrMetallicRoughness":{
				"baseColorTexture":{
					"index":15
				},
				"metallicRoughnessTexture":{
					"index":16
				}
			}
		},
		{
			"doubleSided":true,
			"extensions":{
				"KHR_materials_specular":{
					"specularColorFactor":[
						2.0,
						2.0,
						2.0
					]
				}
			},
			"name":"Scrap1.002",
			"normalTexture":{
				"index":17
			},
			"pbrMetallicRoughness":{
				"baseColorTexture":{
					"index":18
				},
				"metallicRoughnessTexture":{
					"index":19
				}
			}
		},
		{
			"doubleSided":true,
			"name":"Material.002",
			"normalTexture":{
				"index":20
			},
			"pbrMetallicRoughness":{
				"baseColorTexture":{
					"index":21
				},
				"metallicRoughnessTexture":{
					"index":22
				}
			}
		}
	],
	"meshes":[
		{
			"name":"Mesh.023",
			"primitives":[
				{
					"attributes":{
						"POSITION":0,
						"NORMAL":1,
						"TEXCOORD_0":2
					},
					"indices":3,
					"material":0
				},
				{
					"attributes":{
						"POSITION":4,
						"NORMAL":5,
						"TEXCOORD_0":6
					},
					"indices":7
				},
				{
					"attributes":{
						"POSITION":8,
						"NORMAL":9,
						"TEXCOORD_0":10
					},
					"indices":11,
					"material":1
				},
				{
					"attributes":{
						"POSITION":12,
						"NORMAL":13,
						"TEXCOORD_0":14
					},
					"indices":15,
					"material":2
				},
				{
					"attributes":{
						"POSITION":16,
						"NORMAL":17,
						"TEXCOORD_0":18
					},
					"indices":19,
					"material":3
				},
				{
					"attributes":{
						"POSITION":20,
						"NORMAL":21,
						"TEXCOORD_0":22
					},
					"indices":23,
					"material":4
				},
				{
					"attributes":{
						"POSITION":24,
						"NORMAL":25,
						"TEXCOORD_0":26
					},
					"indices":27,
					"material":5
				},
				{
					"attributes":{
						"POSITION":28,
						"NORMAL":29,
						"TEXCOORD_0":30
					},
					"indices":31,
					"material":6
				},
				{
					"attributes":{
						"POSITION":32,
						"NORMAL":33,
						"TEXCOORD_0":34
					},
					"indices":35,
					"material":7
				}
			]
		}
	],
	"textures":[
		{
			"sampler":0,
			"source":0
		},
		{
			"sampler":0,
			"source":1
		},
		{
			"sampler":0,
			"source":2
		},
		{
			"sampler":0,
			"source":3
		},
		{
			"sampler":0,
			"source":4
		},
		{
			"sampler":0,
			"source":5
		},
		{
			"sampler":0,
			"source":6
		},
		{
			"sampler":0,
			"source":7
		},
		{
			"sampler":0,
			"source":8
		},
		{
			"sampler":0,
			"source":9
		},
		{
			"sampler":0,
			"source":10
		},
		{
			"sampler":0,
			"source":11
		},
		{
			"sampler":0,
			"source":12
		},
		{
			"sampler":0,
			"source":13
		},
		{
			"sampler":0,
			"source":14
		},
		{
			"sampler":0,
			"source":15
		},
		{
			"sampler":0,
			"source":16
		},
		{
			"sampler":0,
			"source":17
		},
		{
			"sampler":0,
			"source":18
		},
		{
			"sampler":0,
			"source":19
		},
		{
			"sampler":0,
			"source":20
		},
		{
			"sampler":0,
			"source":21
		},
		{
			"sampler":0,
			"source":22
		}
	],
	"images":[
		{
			"mimeType":"image/png",
			"name":"P_Door_n_png",
			"uri":"P_Door_n_png.png"
		},
		{
			"mimeType":"image/png",
			"name":"P_Door_bc_png",
			"uri":"P_Door_bc_png.png"
		},
		{
			"mimeType":"image/png",
			"name":"P_Door_m_png-P_Door_r",
			"uri":"P_Door_m_png-P_Door_r.png"
		},
		{
			"mimeType":"image/png",
			"name":"P_Box_2_bc_png",
			"uri":"P_Box_2_bc_png.png"
		},
		{
			"mimeType":"image/png",
			"name":"P_Box_2_m_png-P_Box_2_r_png",
			"uri":"P_Box_2_m_png-P_Box_2_r_png.png"
		},
		{
			"mimeType":"image/png",
			"name":"P_Barrel_1_n_png",
			"uri":"P_Barrel_1_n_png.png"
		},
		{
			"mimeType":"image/png",
			"name":"P_Barrel_1_bc_png",
			"uri":"P_Barrel_1_bc_png.png"
		},
		{
			"mimeType":"image/png",
			"name":"P_Barrel_1_m_png-P_Barrel_1_r_png",
			"uri":"P_Barrel_1_m_png-P_Barrel_1_r_png.png"
		},
		{
			"mimeType":"image/png",
			"name":"P_ExplosiveBarrel_1_n",
			"uri":"P_ExplosiveBarrel_1_n.png"
		},
		{
			"mimeType":"image/png",
			"name":"P_ExplosiveBarrel_1_bc",
			"uri":"P_ExplosiveBarrel_1_bc.png"
		},
		{
			"mimeType":"image/png",
			"name":"P_ExplosiveBarrel_1_m-P_ExplosiveBarrel_1_r",
			"uri":"P_ExplosiveBarrel_1_m-P_ExplosiveBarrel_1_r.png"
		},
		{
			"mimeType":"image/png",
			"name":"P_Contenedor_n",
			"uri":"P_Contenedor_n.png"
		},
		{
			"mimeType":"image/png",
			"name":"P_Contenedor_bc",
			"uri":"P_Contenedor_bc.png"
		},
		{
			"mimeType":"image/png",
			"name":"P_Contenedor_m-P_Contenedor_r",
			"uri":"P_Contenedor_m-P_Contenedor_r.png"
		},
		{
			"mimeType":"image/png",
			"name":"P_StreetLamp_1_n",
			"uri":"P_StreetLamp_1_n.png"
		},
		{
			"mimeType":"image/png",
			"name":"P_StreetLamp_1_bc",
			"uri":"P_StreetLamp_1_bc.png"
		},
		{
			"mimeType":"image/png",
			"name":"P_StreetLamp_1_m_png-P_StreetLamp_1_r_png",
			"uri":"P_StreetLamp_1_m_png-P_StreetLamp_1_r_png.png"
		},
		{
			"mimeType":"image/png",
			"name":"P_Scrap_1_n",
			"uri":"P_Scrap_1_n.png"
		},
		{
			"mimeType":"image/png",
			"name":"P_Scrap_1_bc",
			"uri":"P_Scrap_1_bc.png"
		},
		{
			"mimeType":"image/png",
			"name":"P_Scrap_1_m-P_Scrap_1_r",
			"uri":"P_Scrap_1_m-P_Scrap_1_r.png"
		},
		{
			"mimeType":"image/png",
			"name":"Wall_lp_Material.001_Normal",
			"uri":"Wall_lp_Material_001_Normal.png"
		},
		{
			"mimeType":"image/png",
			"name":"Wall_lp_Material.001_BaseColor",
			"uri":"Wall_lp_Material_001_BaseColor.png"
		},
		{
			"mimeType":"image/png",
			"name":"Wall_lp_Material.001_Metallic-Wall_lp_Material",
			"uri":"Wall_lp_Material_001_Metallic-Wall_lp_Material.png"
		}
	],
	"accessors":[
		{
			"bufferView":0,
			"componentType":5126,
			"count":2760,
			"max":[
				354.5812072753906,
				160.43287658691406,
				0.03309917077422142
			],
			"min":[
				-8041.58203125,
				-6995.8388671875,
				-400
			],
			"type":"VEC3"
		},
		{
			"bufferView":1,
			"componentType":5126,
			"count":2760,
			"type":"VEC3"
		},
		{
			"bufferView":2,
			"componentType":5126,
			"count":2760,
			"type":"VEC2"
		},
		{
			"bufferView":3,
			"componentType":5123,
			"count":10980,
			"type":"SCALAR"
		},
		{
			"bufferView":4,
			"componentType":5126,
			"count":7412,
			"max":[
				1532.5775146484375,
				1449.1065673828125,
				26.67608070373535
			],
			"min":[
				-8473.4912109375,
				-8105.02099609375,
				-129.13742065429688
			],
			"type":"VEC3"
		},
		{
			"bufferView":5,
			"componentType":5126,
			"count":7412,
			"type":"VEC3"
		},
		{
			"bufferView":6,
			"componentType":5126,
			"count":7412,
			"type":"VEC2"
		},
		{
			"bufferView":7,
			"componentType":5123,
			"count":18270,
			"type":"SCALAR"
		},
		{
			"bufferView":8,
			"componentType":5126,
			"count":98090,
			"max":[
				-639.2006225585938,
				1314.943603515625,
				0.045794788748025894
			],
			"min":[
				-2510.697265625,
				-839.11279296875,
				-86.7135238647461
			],
			"type":"VEC3"
		},
		{
			"bufferView":9,
			"componentType":5126,
			"count":98090,
			"type":"VEC3"
		},
		{
			"bufferView":10,
			"componentType":5126,
			"count":98090,
			"type":"VEC2"
		},
		{
			"bufferView":11,
			"componentType":5125,
			"count":112176,
			"type":"SCALAR"
		},
		{
			"bufferView":12,
			"componentType":5126,
			"count":4669,
			"max":[
				298.4691162109375,
				311.7267150878906,
				-0.11162344366312027
			],
			"min":[
				-1224.920166015625,
				-1830.878662109375,
				-81.70578002929688
			],
			"type":"VEC3"
		},
		{
			"bufferView":13,
			"componentType":5126,
			"count":4669,
			"type":"VEC3"
		},
		{
			"bufferView":14,
			"componentType":5126,
			"count":4669,
			"type":"VEC2"
		},
		{
			"bufferView":15,
			"componentType":5123,
			"count":15330,
			"type":"SCALAR"
		},
		{
			"bufferView":16,
			"componentType":5126,
			"count":17974,
			"max":[
				358.25091552734375,
				1306.5731201171875,
				2.491922378540039
			],
			"min":[
				-3704.13134765625,
				-7924.734375,
				-96.27560424804688
			],
			"type":"VEC3"
		},
		{
			"bufferView":17,
			"componentType":5126,
			"count":17974,
			"type":"VEC3"
		},
		{
			"bufferView":18,
			"componentType":5126,
			"count":17974,
			"type":"VEC2"
		},
		{
			"bufferView":19,
			"componentType":5123,
			"count":82080,
			"type":"SCALAR"
		},
		{
			"bufferView":20,
			"componentType":5126,
			"count":56236,
			"max":[
				-87.2864761352539,
				-20.977577209472656,
				0.49715733528137207
			],
			"min":[
				-1324.7740478515625,
				-2357.504150390625,
				-143.9989013671875
			],
			"type":"VEC3"
		},
		{
			"bufferView":21,
			"componentType":5126,
			"count":56236,
			"type":"VEC3"
		},
		{
			"bufferView":22,
			"componentType":5126,
			"count":56236,
			"type":"VEC2"
		},
		{
			"bufferView":23,
			"componentType":5123,
			"count":148410,
			"type":"SCALAR"
		},
		{
			"bufferView":24,
			"componentType":5126,
			"count":15120,
			"max":[
				489.3186950683594,
				781.734619140625,
				1.51336669921875
			],
			"min":[
				-2922.924072265625,
				-6316.9716796875,
				-264.95098876953125
			],
			"type":"VEC3"
		},
		{
			"bufferView":25,
			"componentType":5126,
			"count":15120,
			"type":"VEC3"
		},
		{
			"bufferView":26,
			"componentType":5126,
			"count":15120,
			"type":"VEC2"
		},
		{
			"bufferView":27,
			"componentType":5123,
			"count":51840,
			"type":"SCALAR"
		},
		{
			"bufferView":28,
			"componentType":5126,
			"count":2670,
			"max":[
				-988.8865966796875,
				890.079833984375,
				7.570627212524414
			],
			"min":[
				-1318.4996337890625,
				-1790.8814697265625,
				-65.26476287841797
			],
			"type":"VEC3"
		},
		{
			"bufferView":29,
			"componentType":5126,
			"count":2670,
			"type":"VEC3"
		},
		{
			"bufferView":30,
			"componentType":5126,
			"count":2670,
			"type":"VEC2"
		},
		{
			"bufferView":31,
			"componentType":5123,
			"count":10368,
			"type":"SCALAR"
		},
		{
			"bufferView":32,
			"componentType":5126,
			"count":4,
			"max":[
				451.1352844238281,
				853.44677734375,
				0.4643516540527344
			],
			"min":[
				446.2964782714844,
				766.6903076171875,
				-86.25534057617188
			],
			"type":"VEC3"
		},
		{
			"bufferView":33,
			"componentType":5126,
			"count":4,
			"type":"VEC3"
		},
		{
			"bufferView":34,
			"componentType":5126,
			"count":4,
			"type":"VEC2"
		},
		{
			"bufferView":35,
			"componentType":5123,
			"count":6,
			"type":"SCALAR"
		}
	],
	"bufferViews":[
		{
			"buffer":0,
			"byteLength":33120,
			"byteOffset":0,
			"target":34962
		},
		{
			"buffer":0,
			"byteLength":33120,
			"byteOffset":33120,
			"target":34962
		},
		{
			"buffer":0,
			"byteLength":22080,
			"byteOffset":66240,
			"target":34962
		},
		{
			"buffer":0,
			"byteLength":21960,
			"byteOffset":88320,
			"target":34963
		},
		{
			"buffer":0,
			"byteLength":88944,
			"byteOffset":110280,
			"target":34962
		},
		{
			"buffer":0,
			"byteLength":88944,
			"byteOffset":199224,
			"target":34962
		},
		{
			"buffer":0,
			"byteLength":59296,
			"byteOffset":288168,
			"target":34962
		},
		{
			"buffer":0,
			"byteLength":36540,
			"byteOffset":347464,
			"target":34963
		},
		{
			"buffer":0,
			"byteLength":1177080,
			"byteOffset":384004,
			"target":34962
		},
		{
			"buffer":0,
			"byteLength":1177080,
			"byteOffset":1561084,
			"target":34962
		},
		{
			"buffer":0,
			"byteLength":784720,
			"byteOffset":2738164,
			"target":34962
		},
		{
			"buffer":0,
			"byteLength":448704,
			"byteOffset":3522884,
			"target":34963
		},
		{
			"buffer":0,
			"byteLength":56028,
			"byteOffset":3971588,
			"target":34962
		},
		{
			"buffer":0,
			"byteLength":56028,
			"byteOffset":4027616,
			"target":34962
		},
		{
			"buffer":0,
			"byteLength":37352,
			"byteOffset":4083644,
			"target":34962
		},
		{
			"buffer":0,
			"byteLength":30660,
			"byteOffset":4120996,
			"target":34963
		},
		{
			"buffer":0,
			"byteLength":215688,
			"byteOffset":4151656,
			"target":34962
		},
		{
			"buffer":0,
			"byteLength":215688,
			"byteOffset":4367344,
			"target":34962
		},
		{
			"buffer":0,
			"byteLength":143792,
			"byteOffset":4583032,
			"target":34962
		},
		{
			"buffer":0,
			"byteLength":164160,
			"byteOffset":4726824,
			"target":34963
		},
		{
			"buffer":0,
			"byteLength":674832,
			"byteOffset":4890984,
			"target":34962
		},
		{
			"buffer":0,
			"byteLength":674832,
			"byteOffset":5565816,
			"target":34962
		},
		{
			"buffer":0,
			"byteLength":449888,
			"byteOffset":6240648,
			"target":34962
		},
		{
			"buffer":0,
			"byteLength":296820,
			"byteOffset":6690536,
			"target":34963
		},
		{
			"buffer":0,
			"byteLength":181440,
			"byteOffset":6987356,
			"target":34962
		},
		{
			"buffer":0,
			"byteLength":181440,
			"byteOffset":7168796,
			"target":34962
		},
		{
			"buffer":0,
			"byteLength":120960,
			"byteOffset":7350236,
			"target":34962
		},
		{
			"buffer":0,
			"byteLength":103680,
			"byteOffset":7471196,
			"target":34963
		},
		{
			"buffer":0,
			"byteLength":32040,
			"byteOffset":7574876,
			"target":34962
		},
		{
			"buffer":0,
			"byteLength":32040,
			"byteOffset":7606916,
			"target":34962
		},
		{
			"buffer":0,
			"byteLength":21360,
			"byteOffset":7638956,
			"target":34962
		},
		{
			"buffer":0,
			"byteLength":20736,
			"byteOffset":7660316,
			"target":34963
		},
		{
			"buffer":0,
			"byteLength":48,
			"byteOffset":7681052,
			"target":34962
		},
		{
			"buffer":0,
			"byteLength":48,
			"byteOffset":7681100,
			"target":34962
		},
		{
			"buffer":0,
			"byteLength":32,
			"byteOffset":7681148,
			"target":34962
		},
		{
			"buffer":0,
			"byteLength":12,
			"byteOffset":7681180,
			"target":34963
		}
	],
	"samplers":[
		{
			"magFilter":9729,
			"minFilter":9987
		}
	],
	"buffers":[
		{
			"byteLength":7681192,
			"uri":"AssetDressingNivel2JUNTO.bin"
		}
	]
}
