{
	"asset":{
		"generator":"Khronos glTF Blender I/O v4.3.47",
		"version":"2.0"
	},
	"scene":0,
	"scenes":[
		{
			"name":"Scene",
			"nodes":[
				0,
				1,
				2,
				3,
				4,
				5,
				6,
				7,
				8,
				9,
				10,
				11,
				12,
				13,
				14
			]
		}
	],
	"nodes":[
		{
			"mesh":0,
			"name":"Tapon peque\u00f1o",
			"translation":[
				0.46294525265693665,
				0.5320428013801575,
				0
			]
		},
		{
			"mesh":1,
			"name":"Tabla 1",
			"translation":[
				-0.11966124176979065,
				0.49936017394065857,
				0.368279367685318
			]
		},
		{
			"mesh":2,
			"name":"Tabla 6",
			"translation":[
				0.12045399844646454,
				0.49942678213119507,
				-0.37071919441223145
			]
		},
		{
			"mesh":3,
			"name":"Tabla 7",
			"translation":[
				0.31539881229400635,
				0.49935999512672424,
				-0.22466041147708893
			]
		},
		{
			"mesh":4,
			"name":"Tabla 8",
			"translation":[
				0.38823965191841125,
				0.49939313530921936,
				0
			]
		},
		{
			"mesh":5,
			"name":"Cinturon abajo",
			"translation":[
				0,
				0.3290998041629791,
				0
			]
		},
		{
			"mesh":6,
			"name":"Cinturon",
			"translation":[
				0,
				0.7104902267456055,
				0
			]
		},
		{
			"mesh":7,
			"name":"Tapa arriba",
			"translation":[
				0,
				0.8982487916946411,
				0
			]
		},
		{
			"mesh":8,
			"name":"Tabla 5",
			"translation":[
				-0.11966124176979065,
				0.49936017394065857,
				-0.368279367685318
			]
		},
		{
			"mesh":9,
			"name":"Tabla 10",
			"translation":[
				0.12045399844646454,
				0.49942678213119507,
				0.37071919441223145
			]
		},
		{
			"mesh":10,
			"name":"Tabla 9",
			"translation":[
				0.31539881229400635,
				0.49935999512672424,
				0.22466041147708893
			]
		},
		{
			"mesh":11,
			"name":"Tabla 3",
			"translation":[
				-0.38823965191841125,
				0.49939313530921936,
				0
			]
		},
		{
			"mesh":12,
			"name":"Tabla 4",
			"translation":[
				-0.31539881229400635,
				0.49935999512672424,
				-0.22466041147708893
			]
		},
		{
			"mesh":13,
			"name":"Tabla 2",
			"translation":[
				-0.31539881229400635,
				0.49935999512672424,
				0.22466041147708893
			]
		},
		{
			"mesh":14,
			"name":"Tapa abajo",
			"translation":[
				0,
				0.06870733201503754,
				0
			]
		}
	],
	"materials":[
		{
			"doubleSided":true,
			"name":"barrelMAT.001",
			"normalTexture":{
				"index":0
			},
			"pbrMetallicRoughness":{
				"baseColorTexture":{
					"index":1
				},
				"metallicRoughnessTexture":{
					"index":2
				}
			}
		}
	],
	"meshes":[
		{
			"name":"Prop_Barrel_v01.001",
			"primitives":[
				{
					"attributes":{
						"POSITION":0,
						"NORMAL":1,
						"TEXCOORD_0":2
					},
					"indices":3,
					"material":0
				}
			]
		},
		{
			"name":"Prop_Barrel_v01.002",
			"primitives":[
				{
					"attributes":{
						"POSITION":4,
						"NORMAL":5,
						"TEXCOORD_0":6
					},
					"indices":7,
					"material":0
				}
			]
		},
		{
			"name":"Prop_Barrel_v01.003",
			"primitives":[
				{
					"attributes":{
						"POSITION":8,
						"NORMAL":9,
						"TEXCOORD_0":10
					},
					"indices":11,
					"material":0
				}
			]
		},
		{
			"name":"Prop_Barrel_v01.004",
			"primitives":[
				{
					"attributes":{
						"POSITION":12,
						"NORMAL":13,
						"TEXCOORD_0":14
					},
					"indices":15,
					"material":0
				}
			]
		},
		{
			"name":"Prop_Barrel_v01.005",
			"primitives":[
				{
					"attributes":{
						"POSITION":16,
						"NORMAL":17,
						"TEXCOORD_0":18
					},
					"indices":19,
					"material":0
				}
			]
		},
		{
			"name":"Prop_Barrel_v01.006",
			"primitives":[
				{
					"attributes":{
						"POSITION":20,
						"NORMAL":21,
						"TEXCOORD_0":22
					},
					"indices":23,
					"material":0
				}
			]
		},
		{
			"name":"Prop_Barrel_v01.007",
			"primitives":[
				{
					"attributes":{
						"POSITION":24,
						"NORMAL":25,
						"TEXCOORD_0":26
					},
					"indices":27,
					"material":0
				}
			]
		},
		{
			"name":"Prop_Barrel_v01.008",
			"primitives":[
				{
					"attributes":{
						"POSITION":28,
						"NORMAL":29,
						"TEXCOORD_0":30
					},
					"indices":31,
					"material":0
				}
			]
		},
		{
			"name":"Prop_Barrel_v01.009",
			"primitives":[
				{
					"attributes":{
						"POSITION":32,
						"NORMAL":33,
						"TEXCOORD_0":34
					},
					"indices":35,
					"material":0
				}
			]
		},
		{
			"name":"Prop_Barrel_v01.010",
			"primitives":[
				{
					"attributes":{
						"POSITION":36,
						"NORMAL":37,
						"TEXCOORD_0":38
					},
					"indices":39,
					"material":0
				}
			]
		},
		{
			"name":"Prop_Barrel_v01.011",
			"primitives":[
				{
					"attributes":{
						"POSITION":40,
						"NORMAL":41,
						"TEXCOORD_0":42
					},
					"indices":43,
					"material":0
				}
			]
		},
		{
			"name":"Prop_Barrel_v01.012",
			"primitives":[
				{
					"attributes":{
						"POSITION":44,
						"NORMAL":45,
						"TEXCOORD_0":46
					},
					"indices":47,
					"material":0
				}
			]
		},
		{
			"name":"Prop_Barrel_v01.013",
			"primitives":[
				{
					"attributes":{
						"POSITION":48,
						"NORMAL":49,
						"TEXCOORD_0":50
					},
					"indices":43,
					"material":0
				}
			]
		},
		{
			"name":"Prop_Barrel_v01.014",
			"primitives":[
				{
					"attributes":{
						"POSITION":51,
						"NORMAL":52,
						"TEXCOORD_0":53
					},
					"indices":15,
					"material":0
				}
			]
		},
		{
			"name":"Prop_Barrel_v01.015",
			"primitives":[
				{
					"attributes":{
						"POSITION":54,
						"NORMAL":55,
						"TEXCOORD_0":56
					},
					"indices":31,
					"material":0
				}
			]
		}
	],
	"textures":[
		{
			"sampler":0,
			"source":0
		},
		{
			"sampler":0,
			"source":1
		},
		{
			"sampler":0,
			"source":2
		}
	],
	"images":[
		{
			"mimeType":"image/png",
			"name":"P_Barrel_1_n.png",
			"uri":"P_Barrel_1_n_png.png"
		},
		{
			"mimeType":"image/png",
			"name":"P_Barrel_1_bc.png",
			"uri":"P_Barrel_1_bc_png.png"
		},
		{
			"mimeType":"image/png",
			"name":"P_Barrel_1_m.png-P_Barrel_1_r.png",
			"uri":"P_Barrel_1_m_png-P_Barrel_1_r_png.png"
		}
	],
	"accessors":[
		{
			"bufferView":0,
			"componentType":5126,
			"count":33,
			"max":[
				0.034888654947280884,
				0.04720723628997803,
				0.04963655024766922
			],
			"min":[
				-0.03837740421295166,
				-0.04720723628997803,
				-0.04963655397295952
			],
			"type":"VEC3"
		},
		{
			"bufferView":1,
			"componentType":5126,
			"count":33,
			"type":"VEC3"
		},
		{
			"bufferView":2,
			"componentType":5126,
			"count":33,
			"type":"VEC2"
		},
		{
			"bufferView":3,
			"componentType":5123,
			"count":90,
			"type":"SCALAR"
		},
		{
			"bufferView":4,
			"componentType":5126,
			"count":42,
			"max":[
				0.12617073953151703,
				0.44603362679481506,
				0.09247395396232605
			],
			"min":[
				-0.15048351883888245,
				-0.49675607681274414,
				-0.0923055112361908
			],
			"type":"VEC3"
		},
		{
			"bufferView":5,
			"componentType":5126,
			"count":42,
			"type":"VEC3"
		},
		{
			"bufferView":6,
			"componentType":5126,
			"count":42,
			"type":"VEC2"
		},
		{
			"bufferView":7,
			"componentType":5123,
			"count":156,
			"type":"SCALAR"
		},
		{
			"bufferView":8,
			"componentType":5126,
			"count":42,
			"max":[
				0.14883245527744293,
				0.44468867778778076,
				0.08844369649887085
			],
			"min":[
				-0.1246483102440834,
				-0.4953370690345764,
				-0.0891483724117279
			],
			"type":"VEC3"
		},
		{
			"bufferView":9,
			"componentType":5126,
			"count":42,
			"type":"VEC3"
		},
		{
			"bufferView":10,
			"componentType":5126,
			"count":42,
			"type":"VEC2"
		},
		{
			"bufferView":11,
			"componentType":5123,
			"count":156,
			"type":"SCALAR"
		},
		{
			"bufferView":12,
			"componentType":5126,
			"count":42,
			"max":[
				0.12386840581893921,
				0.4460337460041046,
				0.12653625011444092
			],
			"min":[
				-0.114449143409729,
				-0.49675601720809937,
				-0.1450401246547699
			],
			"type":"VEC3"
		},
		{
			"bufferView":13,
			"componentType":5126,
			"count":42,
			"type":"VEC3"
		},
		{
			"bufferView":14,
			"componentType":5126,
			"count":42,
			"type":"VEC2"
		},
		{
			"bufferView":15,
			"componentType":5123,
			"count":156,
			"type":"SCALAR"
		},
		{
			"bufferView":16,
			"componentType":5126,
			"count":42,
			"max":[
				0.0495089590549469,
				0.44472232460975647,
				0.13377399742603302
			],
			"min":[
				-0.05834510922431946,
				-0.49530327320098877,
				-0.1337740272283554
			],
			"type":"VEC3"
		},
		{
			"bufferView":17,
			"componentType":5126,
			"count":42,
			"type":"VEC3"
		},
		{
			"bufferView":18,
			"componentType":5126,
			"count":42,
			"type":"VEC2"
		},
		{
			"bufferView":19,
			"componentType":5123,
			"count":156,
			"type":"SCALAR"
		},
		{
			"bufferView":20,
			"componentType":5126,
			"count":96,
			"max":[
				0.4649367928504944,
				0.07189321517944336,
				0.48886358737945557
			],
			"min":[
				-0.4649367928504944,
				-0.07707029581069946,
				-0.48886361718177795
			],
			"type":"VEC3"
		},
		{
			"bufferView":21,
			"componentType":5126,
			"count":96,
			"type":"VEC3"
		},
		{
			"bufferView":22,
			"componentType":5126,
			"count":96,
			"type":"VEC2"
		},
		{
			"bufferView":23,
			"componentType":5123,
			"count":240,
			"type":"SCALAR"
		},
		{
			"bufferView":24,
			"componentType":5126,
			"count":96,
			"max":[
				0.46854281425476074,
				0.07618385553359985,
				0.4926551878452301
			],
			"min":[
				-0.4685428738594055,
				-0.07107245922088623,
				-0.4926551878452301
			],
			"type":"VEC3"
		},
		{
			"bufferView":25,
			"componentType":5126,
			"count":96,
			"type":"VEC3"
		},
		{
			"bufferView":26,
			"componentType":5126,
			"count":96,
			"type":"VEC2"
		},
		{
			"bufferView":27,
			"componentType":5123,
			"count":240,
			"type":"SCALAR"
		},
		{
			"bufferView":28,
			"componentType":5126,
			"count":11,
			"max":[
				0.33322152495384216,
				1.1920928955078125e-07,
				0.3646468222141266
			],
			"min":[
				-0.33322152495384216,
				-5.960464477539063e-08,
				-0.3646468222141266
			],
			"type":"VEC3"
		},
		{
			"bufferView":29,
			"componentType":5126,
			"count":11,
			"type":"VEC3"
		},
		{
			"bufferView":30,
			"componentType":5126,
			"count":11,
			"type":"VEC2"
		},
		{
			"bufferView":31,
			"componentType":5123,
			"count":30,
			"type":"SCALAR"
		},
		{
			"bufferView":32,
			"componentType":5126,
			"count":42,
			"max":[
				0.12617073953151703,
				0.44603362679481506,
				0.0923055112361908
			],
			"min":[
				-0.15048351883888245,
				-0.49675607681274414,
				-0.09247395396232605
			],
			"type":"VEC3"
		},
		{
			"bufferView":33,
			"componentType":5126,
			"count":42,
			"type":"VEC3"
		},
		{
			"bufferView":34,
			"componentType":5126,
			"count":42,
			"type":"VEC2"
		},
		{
			"bufferView":35,
			"componentType":5123,
			"count":156,
			"type":"SCALAR"
		},
		{
			"bufferView":36,
			"componentType":5126,
			"count":42,
			"max":[
				0.14883245527744293,
				0.44468867778778076,
				0.0891483724117279
			],
			"min":[
				-0.1246483102440834,
				-0.4953370690345764,
				-0.08844369649887085
			],
			"type":"VEC3"
		},
		{
			"bufferView":37,
			"componentType":5126,
			"count":42,
			"type":"VEC3"
		},
		{
			"bufferView":38,
			"componentType":5126,
			"count":42,
			"type":"VEC2"
		},
		{
			"bufferView":39,
			"componentType":5123,
			"count":156,
			"type":"SCALAR"
		},
		{
			"bufferView":40,
			"componentType":5126,
			"count":42,
			"max":[
				0.12386840581893921,
				0.4460337460041046,
				0.1450401246547699
			],
			"min":[
				-0.114449143409729,
				-0.49675601720809937,
				-0.12653625011444092
			],
			"type":"VEC3"
		},
		{
			"bufferView":41,
			"componentType":5126,
			"count":42,
			"type":"VEC3"
		},
		{
			"bufferView":42,
			"componentType":5126,
			"count":42,
			"type":"VEC2"
		},
		{
			"bufferView":43,
			"componentType":5123,
			"count":156,
			"type":"SCALAR"
		},
		{
			"bufferView":44,
			"componentType":5126,
			"count":42,
			"max":[
				0.05834510922431946,
				0.44472232460975647,
				0.13377399742603302
			],
			"min":[
				-0.0495089590549469,
				-0.49530327320098877,
				-0.1337740272283554
			],
			"type":"VEC3"
		},
		{
			"bufferView":45,
			"componentType":5126,
			"count":42,
			"type":"VEC3"
		},
		{
			"bufferView":46,
			"componentType":5126,
			"count":42,
			"type":"VEC2"
		},
		{
			"bufferView":47,
			"componentType":5123,
			"count":156,
			"type":"SCALAR"
		},
		{
			"bufferView":48,
			"componentType":5126,
			"count":42,
			"max":[
				0.114449143409729,
				0.4460337460041046,
				0.12653625011444092
			],
			"min":[
				-0.12386840581893921,
				-0.49675601720809937,
				-0.1450401246547699
			],
			"type":"VEC3"
		},
		{
			"bufferView":49,
			"componentType":5126,
			"count":42,
			"type":"VEC3"
		},
		{
			"bufferView":50,
			"componentType":5126,
			"count":42,
			"type":"VEC2"
		},
		{
			"bufferView":51,
			"componentType":5126,
			"count":42,
			"max":[
				0.114449143409729,
				0.4460337460041046,
				0.1450401246547699
			],
			"min":[
				-0.12386840581893921,
				-0.49675601720809937,
				-0.12653625011444092
			],
			"type":"VEC3"
		},
		{
			"bufferView":52,
			"componentType":5126,
			"count":42,
			"type":"VEC3"
		},
		{
			"bufferView":53,
			"componentType":5126,
			"count":42,
			"type":"VEC2"
		},
		{
			"bufferView":54,
			"componentType":5126,
			"count":11,
			"max":[
				0.3332214951515198,
				7.450580596923828e-08,
				0.3646468222141266
			],
			"min":[
				-0.33322152495384216,
				-7.450580596923828e-08,
				-0.3646468222141266
			],
			"type":"VEC3"
		},
		{
			"bufferView":55,
			"componentType":5126,
			"count":11,
			"type":"VEC3"
		},
		{
			"bufferView":56,
			"componentType":5126,
			"count":11,
			"type":"VEC2"
		}
	],
	"bufferViews":[
		{
			"buffer":0,
			"byteLength":396,
			"byteOffset":0,
			"target":34962
		},
		{
			"buffer":0,
			"byteLength":396,
			"byteOffset":396,
			"target":34962
		},
		{
			"buffer":0,
			"byteLength":264,
			"byteOffset":792,
			"target":34962
		},
		{
			"buffer":0,
			"byteLength":180,
			"byteOffset":1056,
			"target":34963
		},
		{
			"buffer":0,
			"byteLength":504,
			"byteOffset":1236,
			"target":34962
		},
		{
			"buffer":0,
			"byteLength":504,
			"byteOffset":1740,
			"target":34962
		},
		{
			"buffer":0,
			"byteLength":336,
			"byteOffset":2244,
			"target":34962
		},
		{
			"buffer":0,
			"byteLength":312,
			"byteOffset":2580,
			"target":34963
		},
		{
			"buffer":0,
			"byteLength":504,
			"byteOffset":2892,
			"target":34962
		},
		{
			"buffer":0,
			"byteLength":504,
			"byteOffset":3396,
			"target":34962
		},
		{
			"buffer":0,
			"byteLength":336,
			"byteOffset":3900,
			"target":34962
		},
		{
			"buffer":0,
			"byteLength":312,
			"byteOffset":4236,
			"target":34963
		},
		{
			"buffer":0,
			"byteLength":504,
			"byteOffset":4548,
			"target":34962
		},
		{
			"buffer":0,
			"byteLength":504,
			"byteOffset":5052,
			"target":34962
		},
		{
			"buffer":0,
			"byteLength":336,
			"byteOffset":5556,
			"target":34962
		},
		{
			"buffer":0,
			"byteLength":312,
			"byteOffset":5892,
			"target":34963
		},
		{
			"buffer":0,
			"byteLength":504,
			"byteOffset":6204,
			"target":34962
		},
		{
			"buffer":0,
			"byteLength":504,
			"byteOffset":6708,
			"target":34962
		},
		{
			"buffer":0,
			"byteLength":336,
			"byteOffset":7212,
			"target":34962
		},
		{
			"buffer":0,
			"byteLength":312,
			"byteOffset":7548,
			"target":34963
		},
		{
			"buffer":0,
			"byteLength":1152,
			"byteOffset":7860,
			"target":34962
		},
		{
			"buffer":0,
			"byteLength":1152,
			"byteOffset":9012,
			"target":34962
		},
		{
			"buffer":0,
			"byteLength":768,
			"byteOffset":10164,
			"target":34962
		},
		{
			"buffer":0,
			"byteLength":480,
			"byteOffset":10932,
			"target":34963
		},
		{
			"buffer":0,
			"byteLength":1152,
			"byteOffset":11412,
			"target":34962
		},
		{
			"buffer":0,
			"byteLength":1152,
			"byteOffset":12564,
			"target":34962
		},
		{
			"buffer":0,
			"byteLength":768,
			"byteOffset":13716,
			"target":34962
		},
		{
			"buffer":0,
			"byteLength":480,
			"byteOffset":14484,
			"target":34963
		},
		{
			"buffer":0,
			"byteLength":132,
			"byteOffset":14964,
			"target":34962
		},
		{
			"buffer":0,
			"byteLength":132,
			"byteOffset":15096,
			"target":34962
		},
		{
			"buffer":0,
			"byteLength":88,
			"byteOffset":15228,
			"target":34962
		},
		{
			"buffer":0,
			"byteLength":60,
			"byteOffset":15316,
			"target":34963
		},
		{
			"buffer":0,
			"byteLength":504,
			"byteOffset":15376,
			"target":34962
		},
		{
			"buffer":0,
			"byteLength":504,
			"byteOffset":15880,
			"target":34962
		},
		{
			"buffer":0,
			"byteLength":336,
			"byteOffset":16384,
			"target":34962
		},
		{
			"buffer":0,
			"byteLength":312,
			"byteOffset":16720,
			"target":34963
		},
		{
			"buffer":0,
			"byteLength":504,
			"byteOffset":17032,
			"target":34962
		},
		{
			"buffer":0,
			"byteLength":504,
			"byteOffset":17536,
			"target":34962
		},
		{
			"buffer":0,
			"byteLength":336,
			"byteOffset":18040,
			"target":34962
		},
		{
			"buffer":0,
			"byteLength":312,
			"byteOffset":18376,
			"target":34963
		},
		{
			"buffer":0,
			"byteLength":504,
			"byteOffset":18688,
			"target":34962
		},
		{
			"buffer":0,
			"byteLength":504,
			"byteOffset":19192,
			"target":34962
		},
		{
			"buffer":0,
			"byteLength":336,
			"byteOffset":19696,
			"target":34962
		},
		{
			"buffer":0,
			"byteLength":312,
			"byteOffset":20032,
			"target":34963
		},
		{
			"buffer":0,
			"byteLength":504,
			"byteOffset":20344,
			"target":34962
		},
		{
			"buffer":0,
			"byteLength":504,
			"byteOffset":20848,
			"target":34962
		},
		{
			"buffer":0,
			"byteLength":336,
			"byteOffset":21352,
			"target":34962
		},
		{
			"buffer":0,
			"byteLength":312,
			"byteOffset":21688,
			"target":34963
		},
		{
			"buffer":0,
			"byteLength":504,
			"byteOffset":22000,
			"target":34962
		},
		{
			"buffer":0,
			"byteLength":504,
			"byteOffset":22504,
			"target":34962
		},
		{
			"buffer":0,
			"byteLength":336,
			"byteOffset":23008,
			"target":34962
		},
		{
			"buffer":0,
			"byteLength":504,
			"byteOffset":23344,
			"target":34962
		},
		{
			"buffer":0,
			"byteLength":504,
			"byteOffset":23848,
			"target":34962
		},
		{
			"buffer":0,
			"byteLength":336,
			"byteOffset":24352,
			"target":34962
		},
		{
			"buffer":0,
			"byteLength":132,
			"byteOffset":24688,
			"target":34962
		},
		{
			"buffer":0,
			"byteLength":132,
			"byteOffset":24820,
			"target":34962
		},
		{
			"buffer":0,
			"byteLength":88,
			"byteOffset":24952,
			"target":34962
		}
	],
	"samplers":[
		{
			"magFilter":9729,
			"minFilter":9987
		}
	],
	"buffers":[
		{
			"byteLength":25040,
			"uri":"Testbarril.bin"
		}
	]
}
