{
	"asset":{
		"generator":"Khronos glTF Blender I/O v4.0.44",
		"version":"2.0"
	},
	"scene":0,
	"scenes":[
		{
			"name":"Scene",
			"nodes":[
				4
			]
		}
	],
	"nodes":[
		{
			"name":"Bone",
			"translation":[
				2.384185791015625e-07,
				-0.017011241987347603,
				0.5679330229759216
			]
		},
		{
			"name":"Bone.001",
			"rotation":[
				4.486210869458773e-08,
				-4.3879722966266854e-08,
				0.7110188603401184,
				0.7031729817390442
			],
			"scale":[
				0.9999997615814209,
				0.9999997615814209,
				0.9999998807907104
			],
			"translation":[
				1.4969900846481323,
				2.9996509552001953,
				0.6246271729469299
			]
		},
		{
			"name":"Bone.002",
			"rotation":[
				5.452853457654783e-08,
				5.452853457654783e-08,
				-0.7088010907173157,
				0.7054083943367004
			],
			"translation":[
				-1.5203406810760498,
				2.9959399700164795,
				0.5542341470718384
			]
		},
		{
			"mesh":0,
			"name":"Door1",
			"skin":0
		},
		{
			"children":[
				3,
				0,
				1,
				2
			],
			"name":"Armature",
			"translation":[
				-0.8148195743560791,
				0,
				0
			]
		}
	],
	"animations":[
		{
			"channels":[
				{
					"sampler":0,
					"target":{
						"node":0,
						"path":"translation"
					}
				},
				{
					"sampler":1,
					"target":{
						"node":0,
						"path":"rotation"
					}
				},
				{
					"sampler":2,
					"target":{
						"node":0,
						"path":"scale"
					}
				},
				{
					"sampler":3,
					"target":{
						"node":1,
						"path":"translation"
					}
				},
				{
					"sampler":4,
					"target":{
						"node":1,
						"path":"rotation"
					}
				},
				{
					"sampler":5,
					"target":{
						"node":1,
						"path":"scale"
					}
				},
				{
					"sampler":6,
					"target":{
						"node":2,
						"path":"translation"
					}
				},
				{
					"sampler":7,
					"target":{
						"node":2,
						"path":"rotation"
					}
				},
				{
					"sampler":8,
					"target":{
						"node":2,
						"path":"scale"
					}
				}
			],
			"name":"close",
			"samplers":[
				{
					"input":7,
					"interpolation":"LINEAR",
					"output":8
				},
				{
					"input":9,
					"interpolation":"STEP",
					"output":10
				},
				{
					"input":9,
					"interpolation":"STEP",
					"output":11
				},
				{
					"input":7,
					"interpolation":"LINEAR",
					"output":12
				},
				{
					"input":7,
					"interpolation":"LINEAR",
					"output":13
				},
				{
					"input":9,
					"interpolation":"LINEAR",
					"output":14
				},
				{
					"input":7,
					"interpolation":"LINEAR",
					"output":15
				},
				{
					"input":7,
					"interpolation":"LINEAR",
					"output":16
				},
				{
					"input":9,
					"interpolation":"STEP",
					"output":17
				}
			]
		},
		{
			"channels":[
				{
					"sampler":0,
					"target":{
						"node":0,
						"path":"translation"
					}
				},
				{
					"sampler":1,
					"target":{
						"node":0,
						"path":"rotation"
					}
				},
				{
					"sampler":2,
					"target":{
						"node":0,
						"path":"scale"
					}
				},
				{
					"sampler":3,
					"target":{
						"node":1,
						"path":"translation"
					}
				},
				{
					"sampler":4,
					"target":{
						"node":1,
						"path":"rotation"
					}
				},
				{
					"sampler":5,
					"target":{
						"node":1,
						"path":"scale"
					}
				},
				{
					"sampler":6,
					"target":{
						"node":2,
						"path":"translation"
					}
				},
				{
					"sampler":7,
					"target":{
						"node":2,
						"path":"rotation"
					}
				},
				{
					"sampler":8,
					"target":{
						"node":2,
						"path":"scale"
					}
				}
			],
			"name":"IDLE",
			"samplers":[
				{
					"input":18,
					"interpolation":"LINEAR",
					"output":19
				},
				{
					"input":18,
					"interpolation":"LINEAR",
					"output":20
				},
				{
					"input":18,
					"interpolation":"LINEAR",
					"output":21
				},
				{
					"input":18,
					"interpolation":"LINEAR",
					"output":22
				},
				{
					"input":18,
					"interpolation":"LINEAR",
					"output":23
				},
				{
					"input":18,
					"interpolation":"LINEAR",
					"output":24
				},
				{
					"input":18,
					"interpolation":"LINEAR",
					"output":25
				},
				{
					"input":18,
					"interpolation":"LINEAR",
					"output":26
				},
				{
					"input":18,
					"interpolation":"LINEAR",
					"output":27
				}
			]
		},
		{
			"channels":[
				{
					"sampler":0,
					"target":{
						"node":0,
						"path":"translation"
					}
				},
				{
					"sampler":1,
					"target":{
						"node":0,
						"path":"rotation"
					}
				},
				{
					"sampler":2,
					"target":{
						"node":0,
						"path":"scale"
					}
				},
				{
					"sampler":3,
					"target":{
						"node":1,
						"path":"translation"
					}
				},
				{
					"sampler":4,
					"target":{
						"node":1,
						"path":"rotation"
					}
				},
				{
					"sampler":5,
					"target":{
						"node":1,
						"path":"scale"
					}
				},
				{
					"sampler":6,
					"target":{
						"node":2,
						"path":"translation"
					}
				},
				{
					"sampler":7,
					"target":{
						"node":2,
						"path":"rotation"
					}
				},
				{
					"sampler":8,
					"target":{
						"node":2,
						"path":"scale"
					}
				}
			],
			"name":"IDLE_OPEN",
			"samplers":[
				{
					"input":9,
					"interpolation":"STEP",
					"output":28
				},
				{
					"input":9,
					"interpolation":"STEP",
					"output":29
				},
				{
					"input":9,
					"interpolation":"STEP",
					"output":30
				},
				{
					"input":9,
					"interpolation":"STEP",
					"output":31
				},
				{
					"input":9,
					"interpolation":"STEP",
					"output":32
				},
				{
					"input":9,
					"interpolation":"STEP",
					"output":33
				},
				{
					"input":9,
					"interpolation":"STEP",
					"output":34
				},
				{
					"input":9,
					"interpolation":"STEP",
					"output":35
				},
				{
					"input":9,
					"interpolation":"STEP",
					"output":36
				}
			]
		},
		{
			"channels":[
				{
					"sampler":0,
					"target":{
						"node":0,
						"path":"translation"
					}
				},
				{
					"sampler":1,
					"target":{
						"node":0,
						"path":"rotation"
					}
				},
				{
					"sampler":2,
					"target":{
						"node":0,
						"path":"scale"
					}
				},
				{
					"sampler":3,
					"target":{
						"node":1,
						"path":"translation"
					}
				},
				{
					"sampler":4,
					"target":{
						"node":1,
						"path":"rotation"
					}
				},
				{
					"sampler":5,
					"target":{
						"node":1,
						"path":"scale"
					}
				},
				{
					"sampler":6,
					"target":{
						"node":2,
						"path":"translation"
					}
				},
				{
					"sampler":7,
					"target":{
						"node":2,
						"path":"rotation"
					}
				},
				{
					"sampler":8,
					"target":{
						"node":2,
						"path":"scale"
					}
				}
			],
			"name":"OPEN",
			"samplers":[
				{
					"input":37,
					"interpolation":"LINEAR",
					"output":38
				},
				{
					"input":39,
					"interpolation":"STEP",
					"output":40
				},
				{
					"input":39,
					"interpolation":"STEP",
					"output":41
				},
				{
					"input":37,
					"interpolation":"LINEAR",
					"output":42
				},
				{
					"input":37,
					"interpolation":"LINEAR",
					"output":43
				},
				{
					"input":39,
					"interpolation":"LINEAR",
					"output":44
				},
				{
					"input":37,
					"interpolation":"LINEAR",
					"output":45
				},
				{
					"input":37,
					"interpolation":"LINEAR",
					"output":46
				},
				{
					"input":39,
					"interpolation":"LINEAR",
					"output":47
				}
			]
		}
	],
	"materials":[
		{
			"doubleSided":true,
			"name":"Columna1.001",
			"normalTexture":{
				"index":0
			},
			"pbrMetallicRoughness":{
				"baseColorTexture":{
					"index":1
				},
				"metallicRoughnessTexture":{
					"index":2
				}
			}
		}
	],
	"meshes":[
		{
			"name":"Plane.008",
			"primitives":[
				{
					"attributes":{
						"POSITION":0,
						"NORMAL":1,
						"TEXCOORD_0":2,
						"JOINTS_0":3,
						"WEIGHTS_0":4
					},
					"indices":5,
					"material":0
				}
			]
		}
	],
	"textures":[
		{
			"sampler":0,
			"source":0
		},
		{
			"sampler":0,
			"source":1
		},
		{
			"sampler":0,
			"source":2
		}
	],
	"images":[
		{
			"mimeType":"image/png",
			"name":"P_OrkColiseum_1_n",
			"uri":"P_OrkColiseum_1_n.png"
		},
		{
			"mimeType":"image/png",
			"name":"P_OrkColiseum_1_bc",
			"uri":"P_OrkColiseum_1_bc.png"
		},
		{
			"mimeType":"image/png",
			"name":"P_OrkColiseum_1_m-P_OrkColiseum_1_r",
			"uri":"P_OrkColiseum_1_m-P_OrkColiseum_1_r.png"
		}
	],
	"skins":[
		{
			"inverseBindMatrices":6,
			"joints":[
				0,
				1,
				2
			],
			"name":"Armature"
		}
	],
	"accessors":[
		{
			"bufferView":0,
			"componentType":5126,
			"count":368,
			"max":[
				0.7833151817321777,
				4.715667724609375,
				0.8153996467590332
			],
			"min":[
				-2.524416208267212,
				0.5228722095489502,
				0.2761809229850769
			],
			"type":"VEC3"
		},
		{
			"bufferView":1,
			"componentType":5126,
			"count":368,
			"type":"VEC3"
		},
		{
			"bufferView":2,
			"componentType":5126,
			"count":368,
			"type":"VEC2"
		},
		{
			"bufferView":3,
			"componentType":5121,
			"count":368,
			"type":"VEC4"
		},
		{
			"bufferView":4,
			"componentType":5126,
			"count":368,
			"type":"VEC4"
		},
		{
			"bufferView":5,
			"componentType":5123,
			"count":1644,
			"type":"SCALAR"
		},
		{
			"bufferView":6,
			"componentType":5126,
			"count":3,
			"type":"MAT4"
		},
		{
			"bufferView":7,
			"componentType":5126,
			"count":50,
			"max":[
				0.8333333333333334
			],
			"min":[
				0.016666666666666666
			],
			"type":"SCALAR"
		},
		{
			"bufferView":8,
			"componentType":5126,
			"count":50,
			"type":"VEC3"
		},
		{
			"bufferView":9,
			"componentType":5126,
			"count":2,
			"max":[
				0.8333333333333334
			],
			"min":[
				0.016666666666666666
			],
			"type":"SCALAR"
		},
		{
			"bufferView":10,
			"componentType":5126,
			"count":2,
			"type":"VEC4"
		},
		{
			"bufferView":11,
			"componentType":5126,
			"count":2,
			"type":"VEC3"
		},
		{
			"bufferView":12,
			"componentType":5126,
			"count":50,
			"type":"VEC3"
		},
		{
			"bufferView":13,
			"componentType":5126,
			"count":50,
			"type":"VEC4"
		},
		{
			"bufferView":14,
			"componentType":5126,
			"count":2,
			"type":"VEC3"
		},
		{
			"bufferView":15,
			"componentType":5126,
			"count":50,
			"type":"VEC3"
		},
		{
			"bufferView":16,
			"componentType":5126,
			"count":50,
			"type":"VEC4"
		},
		{
			"bufferView":17,
			"componentType":5126,
			"count":2,
			"type":"VEC3"
		},
		{
			"bufferView":18,
			"componentType":5126,
			"count":1,
			"max":[
				0
			],
			"min":[
				0
			],
			"type":"SCALAR"
		},
		{
			"bufferView":19,
			"componentType":5126,
			"count":1,
			"type":"VEC3"
		},
		{
			"bufferView":20,
			"componentType":5126,
			"count":1,
			"type":"VEC4"
		},
		{
			"bufferView":21,
			"componentType":5126,
			"count":1,
			"type":"VEC3"
		},
		{
			"bufferView":22,
			"componentType":5126,
			"count":1,
			"type":"VEC3"
		},
		{
			"bufferView":23,
			"componentType":5126,
			"count":1,
			"type":"VEC4"
		},
		{
			"bufferView":24,
			"componentType":5126,
			"count":1,
			"type":"VEC3"
		},
		{
			"bufferView":25,
			"componentType":5126,
			"count":1,
			"type":"VEC3"
		},
		{
			"bufferView":26,
			"componentType":5126,
			"count":1,
			"type":"VEC4"
		},
		{
			"bufferView":27,
			"componentType":5126,
			"count":1,
			"type":"VEC3"
		},
		{
			"bufferView":28,
			"componentType":5126,
			"count":2,
			"type":"VEC3"
		},
		{
			"bufferView":29,
			"componentType":5126,
			"count":2,
			"type":"VEC4"
		},
		{
			"bufferView":30,
			"componentType":5126,
			"count":2,
			"type":"VEC3"
		},
		{
			"bufferView":31,
			"componentType":5126,
			"count":2,
			"type":"VEC3"
		},
		{
			"bufferView":32,
			"componentType":5126,
			"count":2,
			"type":"VEC4"
		},
		{
			"bufferView":33,
			"componentType":5126,
			"count":2,
			"type":"VEC3"
		},
		{
			"bufferView":34,
			"componentType":5126,
			"count":2,
			"type":"VEC3"
		},
		{
			"bufferView":35,
			"componentType":5126,
			"count":2,
			"type":"VEC4"
		},
		{
			"bufferView":36,
			"componentType":5126,
			"count":2,
			"type":"VEC3"
		},
		{
			"bufferView":37,
			"componentType":5126,
			"count":51,
			"max":[
				0.8333333333333334
			],
			"min":[
				0
			],
			"type":"SCALAR"
		},
		{
			"bufferView":38,
			"componentType":5126,
			"count":51,
			"type":"VEC3"
		},
		{
			"bufferView":39,
			"componentType":5126,
			"count":2,
			"max":[
				0.8333333333333334
			],
			"min":[
				0
			],
			"type":"SCALAR"
		},
		{
			"bufferView":40,
			"componentType":5126,
			"count":2,
			"type":"VEC4"
		},
		{
			"bufferView":41,
			"componentType":5126,
			"count":2,
			"type":"VEC3"
		},
		{
			"bufferView":42,
			"componentType":5126,
			"count":51,
			"type":"VEC3"
		},
		{
			"bufferView":43,
			"componentType":5126,
			"count":51,
			"type":"VEC4"
		},
		{
			"bufferView":44,
			"componentType":5126,
			"count":2,
			"type":"VEC3"
		},
		{
			"bufferView":45,
			"componentType":5126,
			"count":51,
			"type":"VEC3"
		},
		{
			"bufferView":46,
			"componentType":5126,
			"count":51,
			"type":"VEC4"
		},
		{
			"bufferView":47,
			"componentType":5126,
			"count":2,
			"type":"VEC3"
		}
	],
	"bufferViews":[
		{
			"buffer":0,
			"byteLength":4416,
			"byteOffset":0,
			"target":34962
		},
		{
			"buffer":0,
			"byteLength":4416,
			"byteOffset":4416,
			"target":34962
		},
		{
			"buffer":0,
			"byteLength":2944,
			"byteOffset":8832,
			"target":34962
		},
		{
			"buffer":0,
			"byteLength":1472,
			"byteOffset":11776,
			"target":34962
		},
		{
			"buffer":0,
			"byteLength":5888,
			"byteOffset":13248,
			"target":34962
		},
		{
			"buffer":0,
			"byteLength":3288,
			"byteOffset":19136,
			"target":34963
		},
		{
			"buffer":0,
			"byteLength":192,
			"byteOffset":22424
		},
		{
			"buffer":0,
			"byteLength":200,
			"byteOffset":22616
		},
		{
			"buffer":0,
			"byteLength":600,
			"byteOffset":22816
		},
		{
			"buffer":0,
			"byteLength":8,
			"byteOffset":23416
		},
		{
			"buffer":0,
			"byteLength":32,
			"byteOffset":23424
		},
		{
			"buffer":0,
			"byteLength":24,
			"byteOffset":23456
		},
		{
			"buffer":0,
			"byteLength":600,
			"byteOffset":23480
		},
		{
			"buffer":0,
			"byteLength":800,
			"byteOffset":24080
		},
		{
			"buffer":0,
			"byteLength":24,
			"byteOffset":24880
		},
		{
			"buffer":0,
			"byteLength":600,
			"byteOffset":24904
		},
		{
			"buffer":0,
			"byteLength":800,
			"byteOffset":25504
		},
		{
			"buffer":0,
			"byteLength":24,
			"byteOffset":26304
		},
		{
			"buffer":0,
			"byteLength":4,
			"byteOffset":26328
		},
		{
			"buffer":0,
			"byteLength":12,
			"byteOffset":26332
		},
		{
			"buffer":0,
			"byteLength":16,
			"byteOffset":26344
		},
		{
			"buffer":0,
			"byteLength":12,
			"byteOffset":26360
		},
		{
			"buffer":0,
			"byteLength":12,
			"byteOffset":26372
		},
		{
			"buffer":0,
			"byteLength":16,
			"byteOffset":26384
		},
		{
			"buffer":0,
			"byteLength":12,
			"byteOffset":26400
		},
		{
			"buffer":0,
			"byteLength":12,
			"byteOffset":26412
		},
		{
			"buffer":0,
			"byteLength":16,
			"byteOffset":26424
		},
		{
			"buffer":0,
			"byteLength":12,
			"byteOffset":26440
		},
		{
			"buffer":0,
			"byteLength":24,
			"byteOffset":26452
		},
		{
			"buffer":0,
			"byteLength":32,
			"byteOffset":26476
		},
		{
			"buffer":0,
			"byteLength":24,
			"byteOffset":26508
		},
		{
			"buffer":0,
			"byteLength":24,
			"byteOffset":26532
		},
		{
			"buffer":0,
			"byteLength":32,
			"byteOffset":26556
		},
		{
			"buffer":0,
			"byteLength":24,
			"byteOffset":26588
		},
		{
			"buffer":0,
			"byteLength":24,
			"byteOffset":26612
		},
		{
			"buffer":0,
			"byteLength":32,
			"byteOffset":26636
		},
		{
			"buffer":0,
			"byteLength":24,
			"byteOffset":26668
		},
		{
			"buffer":0,
			"byteLength":204,
			"byteOffset":26692
		},
		{
			"buffer":0,
			"byteLength":612,
			"byteOffset":26896
		},
		{
			"buffer":0,
			"byteLength":8,
			"byteOffset":27508
		},
		{
			"buffer":0,
			"byteLength":32,
			"byteOffset":27516
		},
		{
			"buffer":0,
			"byteLength":24,
			"byteOffset":27548
		},
		{
			"buffer":0,
			"byteLength":612,
			"byteOffset":27572
		},
		{
			"buffer":0,
			"byteLength":816,
			"byteOffset":28184
		},
		{
			"buffer":0,
			"byteLength":24,
			"byteOffset":29000
		},
		{
			"buffer":0,
			"byteLength":612,
			"byteOffset":29024
		},
		{
			"buffer":0,
			"byteLength":816,
			"byteOffset":29636
		},
		{
			"buffer":0,
			"byteLength":24,
			"byteOffset":30452
		}
	],
	"samplers":[
		{
			"magFilter":9729,
			"minFilter":9987
		}
	],
	"buffers":[
		{
			"byteLength":30476,
			"uri":"P_colliseumDoor_1.bin"
		}
	]
}
