{
	"asset":{
		"generator":"Khronos glTF Blender I/O v4.3.47",
		"version":"2.0"
	},
	"scene":0,
	"scenes":[
		{
			"name":"Scene",
			"nodes":[
				0,
				1,
				2
			]
		}
	],
	"nodes":[
		{
			"mesh":0,
			"name":"Plane",
			"translation":[
				0,
				0,
				1.723710298538208
			]
		},
		{
			"mesh":1,
			"name":"Plane.002",
			"translation":[
				0,
				0,
				-1.8875985145568848
			]
		},
		{
			"mesh":2,
			"name":"Plane.003",
			"translation":[
				1.909008502960205,
				0,
				0.05279063060879707
			]
		}
	],
	"materials":[
		{
			"doubleSided":true,
			"name":"Material.001",
			"normalTexture":{
				"index":0
			},
			"pbrMetallicRoughness":{
				"baseColorTexture":{
					"index":1
				},
				"metallicRoughnessTexture":{
					"index":2
				}
			}
		}
	],
	"meshes":[
		{
			"name":"Plane.004",
			"primitives":[
				{
					"attributes":{
						"POSITION":0,
						"NORMAL":1,
						"TEXCOORD_0":2
					},
					"indices":3,
					"material":0
				}
			]
		},
		{
			"name":"Plane.006",
			"primitives":[
				{
					"attributes":{
						"POSITION":4,
						"NORMAL":5,
						"TEXCOORD_0":6
					},
					"indices":7,
					"material":0
				}
			]
		},
		{
			"name":"Plane.007",
			"primitives":[
				{
					"attributes":{
						"POSITION":8,
						"NORMAL":9,
						"TEXCOORD_0":10
					},
					"indices":11,
					"material":0
				}
			]
		}
	],
	"textures":[
		{
			"sampler":0,
			"source":0
		},
		{
			"sampler":0,
			"source":1
		},
		{
			"sampler":0,
			"source":2
		}
	],
	"images":[
		{
			"mimeType":"image/png",
			"name":"prop_treeStump_v01_Normal",
			"uri":"prop_treeStump_v01_Normal.png"
		},
		{
			"mimeType":"image/png",
			"name":"prop_treeStump_v01_BaseColor",
			"uri":"prop_treeStump_v01_BaseColor.png"
		},
		{
			"mimeType":"image/png",
			"name":"prop_treeStump_v01_Metallic-prop_treeStump_v01_Roughness",
			"uri":"prop_treeStump_v01_Metallic-prop_treeStump_v01_Roughness.png"
		}
	],
	"accessors":[
		{
			"bufferView":0,
			"componentType":5126,
			"count":201,
			"max":[
				0.7616419792175293,
				1.4728084802627563,
				0.7337431311607361
			],
			"min":[
				-0.7383580803871155,
				-0.02719154581427574,
				-0.7662568688392639
			],
			"type":"VEC3"
		},
		{
			"bufferView":1,
			"componentType":5126,
			"count":201,
			"type":"VEC3"
		},
		{
			"bufferView":2,
			"componentType":5126,
			"count":201,
			"type":"VEC2"
		},
		{
			"bufferView":3,
			"componentType":5123,
			"count":960,
			"type":"SCALAR"
		},
		{
			"bufferView":4,
			"componentType":5126,
			"count":405,
			"max":[
				0.7431257367134094,
				1.4792401790618896,
				0.8452914953231812
			],
			"min":[
				-0.7568743228912354,
				-0.02075987122952938,
				-0.6547084450721741
			],
			"type":"VEC3"
		},
		{
			"bufferView":5,
			"componentType":5126,
			"count":405,
			"type":"VEC3"
		},
		{
			"bufferView":6,
			"componentType":5126,
			"count":405,
			"type":"VEC2"
		},
		{
			"bufferView":7,
			"componentType":5123,
			"count":2064,
			"type":"SCALAR"
		},
		{
			"bufferView":8,
			"componentType":5126,
			"count":711,
			"max":[
				0.7945761680603027,
				1.4978008270263672,
				0.7387399077415466
			],
			"min":[
				-0.7054238319396973,
				-0.0021990828681737185,
				-0.7612601518630981
			],
			"type":"VEC3"
		},
		{
			"bufferView":9,
			"componentType":5126,
			"count":711,
			"type":"VEC3"
		},
		{
			"bufferView":10,
			"componentType":5126,
			"count":711,
			"type":"VEC2"
		},
		{
			"bufferView":11,
			"componentType":5123,
			"count":3666,
			"type":"SCALAR"
		}
	],
	"bufferViews":[
		{
			"buffer":0,
			"byteLength":2412,
			"byteOffset":0,
			"target":34962
		},
		{
			"buffer":0,
			"byteLength":2412,
			"byteOffset":2412,
			"target":34962
		},
		{
			"buffer":0,
			"byteLength":1608,
			"byteOffset":4824,
			"target":34962
		},
		{
			"buffer":0,
			"byteLength":1920,
			"byteOffset":6432,
			"target":34963
		},
		{
			"buffer":0,
			"byteLength":4860,
			"byteOffset":8352,
			"target":34962
		},
		{
			"buffer":0,
			"byteLength":4860,
			"byteOffset":13212,
			"target":34962
		},
		{
			"buffer":0,
			"byteLength":3240,
			"byteOffset":18072,
			"target":34962
		},
		{
			"buffer":0,
			"byteLength":4128,
			"byteOffset":21312,
			"target":34963
		},
		{
			"buffer":0,
			"byteLength":8532,
			"byteOffset":25440,
			"target":34962
		},
		{
			"buffer":0,
			"byteLength":8532,
			"byteOffset":33972,
			"target":34962
		},
		{
			"buffer":0,
			"byteLength":5688,
			"byteOffset":42504,
			"target":34962
		},
		{
			"buffer":0,
			"byteLength":7332,
			"byteOffset":48192,
			"target":34963
		}
	],
	"samplers":[
		{
			"magFilter":9729,
			"minFilter":9987
		}
	],
	"buffers":[
		{
			"byteLength":55524,
			"uri":"prop_treeStump_v01.bin"
		}
	]
}
