{
	"asset":{
		"generator":"Khronos glTF Blender I/O v4.4.55",
		"version":"2.0"
	},
	"scene":0,
	"scenes":[
		{
			"name":"Scene",
			"nodes":[
				0
			]
		}
	],
	"nodes":[
		{
			"mesh":0,
			"name":"P_Barrel_1.042",
			"rotation":[
				0,
				0.9686217308044434,
				0,
				0.2485397458076477
			],
			"translation":[
				118.82978057861328,
				0,
				-117.6799545288086
			]
		}
	],
	"materials":[
		{
			"doubleSided":true,
			"name":"barrelMAT.001",
			"normalTexture":{
				"index":0
			},
			"pbrMetallicRoughness":{
				"baseColorTexture":{
					"index":1
				},
				"metallicRoughnessTexture":{
					"index":2
				}
			}
		},
		{
			"doubleSided":true,
			"name":"barrelMAT.002",
			"normalTexture":{
				"index":3
			},
			"pbrMetallicRoughness":{
				"baseColorTexture":{
					"index":4
				},
				"metallicRoughnessTexture":{
					"index":5
				}
			}
		},
		{
			"doubleSided":true,
			"name":"Material.010",
			"normalTexture":{
				"index":6
			},
			"pbrMetallicRoughness":{
				"baseColorTexture":{
					"index":7
				},
				"metallicRoughnessTexture":{
					"index":8
				}
			}
		},
		{
			"doubleSided":true,
			"name":"Material.002",
			"normalTexture":{
				"index":9
			},
			"pbrMetallicRoughness":{
				"baseColorTexture":{
					"index":10
				},
				"metallicRoughnessTexture":{
					"index":11
				}
			}
		},
		{
			"doubleSided":true,
			"name":"Material.007",
			"pbrMetallicRoughness":{
				"baseColorTexture":{
					"index":12
				},
				"metallicRoughnessTexture":{
					"index":13
				}
			}
		},
		{
			"doubleSided":true,
			"name":"Material.018",
			"pbrMetallicRoughness":{
				"baseColorTexture":{
					"index":14
				},
				"metallicRoughnessTexture":{
					"index":15
				}
			}
		}
	],
	"meshes":[
		{
			"name":"Prop_Barrel_v01",
			"primitives":[
				{
					"attributes":{
						"POSITION":0,
						"NORMAL":1,
						"TEXCOORD_0":2
					},
					"indices":3,
					"material":0
				},
				{
					"attributes":{
						"POSITION":4,
						"NORMAL":5,
						"TEXCOORD_0":6
					},
					"indices":7,
					"material":1
				},
				{
					"attributes":{
						"POSITION":8,
						"NORMAL":9,
						"TEXCOORD_0":10
					},
					"indices":11,
					"material":2
				},
				{
					"attributes":{
						"POSITION":12,
						"NORMAL":13,
						"TEXCOORD_0":14
					},
					"indices":15,
					"material":3
				},
				{
					"attributes":{
						"POSITION":16,
						"NORMAL":17,
						"TEXCOORD_0":18
					},
					"indices":19,
					"material":4
				},
				{
					"attributes":{
						"POSITION":20,
						"NORMAL":21,
						"TEXCOORD_0":22
					},
					"indices":23,
					"material":5
				}
			]
		}
	],
	"textures":[
		{
			"sampler":0,
			"source":0
		},
		{
			"sampler":0,
			"source":1
		},
		{
			"sampler":0,
			"source":2
		},
		{
			"sampler":0,
			"source":3
		},
		{
			"sampler":0,
			"source":4
		},
		{
			"sampler":0,
			"source":5
		},
		{
			"sampler":0,
			"source":6
		},
		{
			"sampler":0,
			"source":7
		},
		{
			"sampler":0,
			"source":8
		},
		{
			"sampler":0,
			"source":9
		},
		{
			"sampler":0,
			"source":10
		},
		{
			"sampler":0,
			"source":11
		},
		{
			"sampler":0,
			"source":12
		},
		{
			"sampler":0,
			"source":13
		},
		{
			"sampler":0,
			"source":14
		},
		{
			"sampler":0,
			"source":15
		}
	],
	"images":[
		{
			"mimeType":"image/png",
			"name":"P_Barrel_1_n",
			"uri":"P_Barrel_1_n.png"
		},
		{
			"mimeType":"image/png",
			"name":"P_Barrel_1_bc",
			"uri":"P_Barrel_1_bc.png"
		},
		{
			"mimeType":"image/png",
			"name":"P_Barrel_1_m-P_Barrel_1_r",
			"uri":"P_Barrel_1_m-P_Barrel_1_r.png"
		},
		{
			"mimeType":"image/png",
			"name":"P_Barrel_1_n_png",
			"uri":"P_Barrel_1_n_png.png"
		},
		{
			"mimeType":"image/png",
			"name":"P_Barrel_1_bc_png",
			"uri":"P_Barrel_1_bc_png.png"
		},
		{
			"mimeType":"image/png",
			"name":"P_Barrel_1_m_png-P_Barrel_1_r_png",
			"uri":"P_Barrel_1_m_png-P_Barrel_1_r_png.png"
		},
		{
			"mimeType":"image/png",
			"name":"P_ExplosiveBarrel_1_n",
			"uri":"P_ExplosiveBarrel_1_n.png"
		},
		{
			"mimeType":"image/png",
			"name":"P_ExplosiveBarrel_1_bc",
			"uri":"P_ExplosiveBarrel_1_bc.png"
		},
		{
			"mimeType":"image/png",
			"name":"P_ExplosiveBarrel_1_m-P_ExplosiveBarrel_1_r",
			"uri":"P_ExplosiveBarrel_1_m-P_ExplosiveBarrel_1_r.png"
		},
		{
			"mimeType":"image/png",
			"name":"prop_Box_v01_Normal",
			"uri":"prop_Box_v01_Normal.png"
		},
		{
			"mimeType":"image/png",
			"name":"prop_Box_v01_BaseColor",
			"uri":"prop_Box_v01_BaseColor.png"
		},
		{
			"mimeType":"image/png",
			"name":"prop_Box_v01_Metallic-prop_Box_v01_Roughness",
			"uri":"prop_Box_v01_Metallic-prop_Box_v01_Roughness.png"
		},
		{
			"mimeType":"image/png",
			"name":"P_Box_2_bc_png",
			"uri":"P_Box_2_bc_png.png"
		},
		{
			"mimeType":"image/png",
			"name":"P_Box_2_m_png-P_Box_2_r_png",
			"uri":"P_Box_2_m_png-P_Box_2_r_png.png"
		},
		{
			"mimeType":"image/png",
			"name":"P_Box_1_bc",
			"uri":"P_Box_1_bc.png"
		},
		{
			"mimeType":"image/png",
			"name":"P_Box_1_m-P_Box_1_r",
			"uri":"P_Box_1_m-P_Box_1_r.png"
		}
	],
	"accessors":[
		{
			"bufferView":0,
			"componentType":5126,
			"count":64032,
			"max":[
				119.24349975585938,
				4.767460823059082,
				179.61952209472656
			],
			"min":[
				-70.64089965820312,
				-0.053885411471128464,
				-148.10134887695312
			],
			"type":"VEC3"
		},
		{
			"bufferView":1,
			"componentType":5126,
			"count":64032,
			"type":"VEC3"
		},
		{
			"bufferView":2,
			"componentType":5126,
			"count":64032,
			"type":"VEC2"
		},
		{
			"bufferView":3,
			"componentType":5123,
			"count":210240,
			"type":"SCALAR"
		},
		{
			"bufferView":4,
			"componentType":5126,
			"count":23244,
			"max":[
				78.7260971069336,
				3.959136724472046,
				176.91241455078125
			],
			"min":[
				-70.03778076171875,
				-0.07282529026269913,
				-57.89423751831055
			],
			"type":"VEC3"
		},
		{
			"bufferView":5,
			"componentType":5126,
			"count":23244,
			"type":"VEC3"
		},
		{
			"bufferView":6,
			"componentType":5126,
			"count":23244,
			"type":"VEC2"
		},
		{
			"bufferView":7,
			"componentType":5123,
			"count":90012,
			"type":"SCALAR"
		},
		{
			"bufferView":8,
			"componentType":5126,
			"count":2789,
			"max":[
				-24.392562866210938,
				2.1524882316589355,
				156.84774780273438
			],
			"min":[
				-55.45966720581055,
				-0.13794764876365662,
				147.89866638183594
			],
			"type":"VEC3"
		},
		{
			"bufferView":9,
			"componentType":5126,
			"count":2789,
			"type":"VEC3"
		},
		{
			"bufferView":10,
			"componentType":5126,
			"count":2789,
			"type":"VEC2"
		},
		{
			"bufferView":11,
			"componentType":5123,
			"count":12960,
			"type":"SCALAR"
		},
		{
			"bufferView":12,
			"componentType":5126,
			"count":8520,
			"max":[
				104.7190170288086,
				4.972133159637451,
				181.7892303466797
			],
			"min":[
				-34.5444221496582,
				-0.027118505910038948,
				-103.92756652832031
			],
			"type":"VEC3"
		},
		{
			"bufferView":13,
			"componentType":5126,
			"count":8520,
			"type":"VEC3"
		},
		{
			"bufferView":14,
			"componentType":5126,
			"count":8520,
			"type":"VEC2"
		},
		{
			"bufferView":15,
			"componentType":5123,
			"count":12354,
			"type":"SCALAR"
		},
		{
			"bufferView":16,
			"componentType":5126,
			"count":71110,
			"max":[
				-25.074935913085938,
				2.0144338607788086,
				168.95587158203125
			],
			"min":[
				-57.85504913330078,
				-0.001056396635249257,
				141.44468688964844
			],
			"type":"VEC3"
		},
		{
			"bufferView":17,
			"componentType":5126,
			"count":71110,
			"type":"VEC3"
		},
		{
			"bufferView":18,
			"componentType":5126,
			"count":71110,
			"type":"VEC2"
		},
		{
			"bufferView":19,
			"componentType":5125,
			"count":79704,
			"type":"SCALAR"
		},
		{
			"bufferView":20,
			"componentType":5126,
			"count":8234,
			"max":[
				118.89732360839844,
				2.2999563217163086,
				15.603789329528809
			],
			"min":[
				-18.96536636352539,
				-0.005689132958650589,
				-142.47828674316406
			],
			"type":"VEC3"
		},
		{
			"bufferView":21,
			"componentType":5126,
			"count":8234,
			"type":"VEC3"
		},
		{
			"bufferView":22,
			"componentType":5126,
			"count":8234,
			"type":"VEC2"
		},
		{
			"bufferView":23,
			"componentType":5123,
			"count":11502,
			"type":"SCALAR"
		}
	],
	"bufferViews":[
		{
			"buffer":0,
			"byteLength":768384,
			"byteOffset":0,
			"target":34962
		},
		{
			"buffer":0,
			"byteLength":768384,
			"byteOffset":768384,
			"target":34962
		},
		{
			"buffer":0,
			"byteLength":512256,
			"byteOffset":1536768,
			"target":34962
		},
		{
			"buffer":0,
			"byteLength":420480,
			"byteOffset":2049024,
			"target":34963
		},
		{
			"buffer":0,
			"byteLength":278928,
			"byteOffset":2469504,
			"target":34962
		},
		{
			"buffer":0,
			"byteLength":278928,
			"byteOffset":2748432,
			"target":34962
		},
		{
			"buffer":0,
			"byteLength":185952,
			"byteOffset":3027360,
			"target":34962
		},
		{
			"buffer":0,
			"byteLength":180024,
			"byteOffset":3213312,
			"target":34963
		},
		{
			"buffer":0,
			"byteLength":33468,
			"byteOffset":3393336,
			"target":34962
		},
		{
			"buffer":0,
			"byteLength":33468,
			"byteOffset":3426804,
			"target":34962
		},
		{
			"buffer":0,
			"byteLength":22312,
			"byteOffset":3460272,
			"target":34962
		},
		{
			"buffer":0,
			"byteLength":25920,
			"byteOffset":3482584,
			"target":34963
		},
		{
			"buffer":0,
			"byteLength":102240,
			"byteOffset":3508504,
			"target":34962
		},
		{
			"buffer":0,
			"byteLength":102240,
			"byteOffset":3610744,
			"target":34962
		},
		{
			"buffer":0,
			"byteLength":68160,
			"byteOffset":3712984,
			"target":34962
		},
		{
			"buffer":0,
			"byteLength":24708,
			"byteOffset":3781144,
			"target":34963
		},
		{
			"buffer":0,
			"byteLength":853320,
			"byteOffset":3805852,
			"target":34962
		},
		{
			"buffer":0,
			"byteLength":853320,
			"byteOffset":4659172,
			"target":34962
		},
		{
			"buffer":0,
			"byteLength":568880,
			"byteOffset":5512492,
			"target":34962
		},
		{
			"buffer":0,
			"byteLength":318816,
			"byteOffset":6081372,
			"target":34963
		},
		{
			"buffer":0,
			"byteLength":98808,
			"byteOffset":6400188,
			"target":34962
		},
		{
			"buffer":0,
			"byteLength":98808,
			"byteOffset":6498996,
			"target":34962
		},
		{
			"buffer":0,
			"byteLength":65872,
			"byteOffset":6597804,
			"target":34962
		},
		{
			"buffer":0,
			"byteLength":23004,
			"byteOffset":6663676,
			"target":34963
		}
	],
	"samplers":[
		{
			"magFilter":9729,
			"minFilter":9987
		}
	],
	"buffers":[
		{
			"byteLength":6686680,
			"uri":"Destructibles.bin"
		}
	]
}
