{
	"asset":{
		"generator":"Khronos glTF Blender I/O v4.3.47",
		"version":"2.0"
	},
	"scene":0,
	"scenes":[
		{
			"name":"Scene",
			"nodes":[
				0,
				1,
				2,
				3,
				4,
				5,
				6,
				7,
				8,
				9,
				10,
				11,
				12,
				13,
				14
			]
		}
	],
	"nodes":[
		{
			"mesh":0,
			"name":"Tapon peque\u00f1o"
		},
		{
			"mesh":1,
			"name":"Tabla 1"
		},
		{
			"mesh":2,
			"name":"Tabla 6"
		},
		{
			"mesh":3,
			"name":"Tabla 7"
		},
		{
			"mesh":4,
			"name":"Tabla 8"
		},
		{
			"mesh":5,
			"name":"Cinturon abajo"
		},
		{
			"mesh":6,
			"name":"Cinturon"
		},
		{
			"mesh":7,
			"name":"Tapa arriba"
		},
		{
			"mesh":8,
			"name":"Tabla 5"
		},
		{
			"mesh":9,
			"name":"Tabla 10"
		},
		{
			"mesh":10,
			"name":"Tabla 9"
		},
		{
			"mesh":11,
			"name":"Tabla 3"
		},
		{
			"mesh":12,
			"name":"Tabla 4"
		},
		{
			"mesh":13,
			"name":"Tabla 2"
		},
		{
			"mesh":14,
			"name":"Tapa abajo"
		}
	],
	"materials":[
		{
			"doubleSided":true,
			"name":"barrelMAT.001",
			"normalTexture":{
				"index":0
			},
			"pbrMetallicRoughness":{
				"baseColorTexture":{
					"index":1
				},
				"metallicRoughnessTexture":{
					"index":2
				}
			}
		}
	],
	"meshes":[
		{
			"name":"Prop_Barrel_v01.001",
			"primitives":[
				{
					"attributes":{
						"POSITION":0,
						"NORMAL":1,
						"TEXCOORD_0":2
					},
					"indices":3,
					"material":0
				}
			]
		},
		{
			"name":"Prop_Barrel_v01.002",
			"primitives":[
				{
					"attributes":{
						"POSITION":4,
						"NORMAL":5,
						"TEXCOORD_0":6
					},
					"indices":7,
					"material":0
				}
			]
		},
		{
			"name":"Prop_Barrel_v01.003",
			"primitives":[
				{
					"attributes":{
						"POSITION":8,
						"NORMAL":9,
						"TEXCOORD_0":10
					},
					"indices":11,
					"material":0
				}
			]
		},
		{
			"name":"Prop_Barrel_v01.004",
			"primitives":[
				{
					"attributes":{
						"POSITION":12,
						"NORMAL":13,
						"TEXCOORD_0":14
					},
					"indices":15,
					"material":0
				}
			]
		},
		{
			"name":"Prop_Barrel_v01.005",
			"primitives":[
				{
					"attributes":{
						"POSITION":16,
						"NORMAL":17,
						"TEXCOORD_0":18
					},
					"indices":19,
					"material":0
				}
			]
		},
		{
			"name":"Prop_Barrel_v01.006",
			"primitives":[
				{
					"attributes":{
						"POSITION":20,
						"NORMAL":21,
						"TEXCOORD_0":22
					},
					"indices":23,
					"material":0
				}
			]
		},
		{
			"name":"Prop_Barrel_v01.007",
			"primitives":[
				{
					"attributes":{
						"POSITION":24,
						"NORMAL":25,
						"TEXCOORD_0":26
					},
					"indices":27,
					"material":0
				}
			]
		},
		{
			"name":"Prop_Barrel_v01.008",
			"primitives":[
				{
					"attributes":{
						"POSITION":28,
						"NORMAL":29,
						"TEXCOORD_0":30
					},
					"indices":31,
					"material":0
				}
			]
		},
		{
			"name":"Prop_Barrel_v01.009",
			"primitives":[
				{
					"attributes":{
						"POSITION":32,
						"NORMAL":33,
						"TEXCOORD_0":34
					},
					"indices":35,
					"material":0
				}
			]
		},
		{
			"name":"Prop_Barrel_v01.010",
			"primitives":[
				{
					"attributes":{
						"POSITION":36,
						"NORMAL":37,
						"TEXCOORD_0":38
					},
					"indices":39,
					"material":0
				}
			]
		},
		{
			"name":"Prop_Barrel_v01.011",
			"primitives":[
				{
					"attributes":{
						"POSITION":40,
						"NORMAL":41,
						"TEXCOORD_0":42
					},
					"indices":43,
					"material":0
				}
			]
		},
		{
			"name":"Prop_Barrel_v01.012",
			"primitives":[
				{
					"attributes":{
						"POSITION":44,
						"NORMAL":45,
						"TEXCOORD_0":46
					},
					"indices":47,
					"material":0
				}
			]
		},
		{
			"name":"Prop_Barrel_v01.013",
			"primitives":[
				{
					"attributes":{
						"POSITION":48,
						"NORMAL":49,
						"TEXCOORD_0":50
					},
					"indices":43,
					"material":0
				}
			]
		},
		{
			"name":"Prop_Barrel_v01.014",
			"primitives":[
				{
					"attributes":{
						"POSITION":51,
						"NORMAL":52,
						"TEXCOORD_0":53
					},
					"indices":15,
					"material":0
				}
			]
		},
		{
			"name":"Prop_Barrel_v01.015",
			"primitives":[
				{
					"attributes":{
						"POSITION":54,
						"NORMAL":55,
						"TEXCOORD_0":56
					},
					"indices":31,
					"material":0
				}
			]
		}
	],
	"textures":[
		{
			"sampler":0,
			"source":0
		},
		{
			"sampler":0,
			"source":1
		},
		{
			"sampler":0,
			"source":2
		}
	],
	"images":[
		{
			"mimeType":"image/png",
			"name":"P_Barrel_1_n.png",
			"uri":"P_Barrel_1_n_png.png"
		},
		{
			"mimeType":"image/png",
			"name":"P_Barrel_1_bc.png",
			"uri":"P_Barrel_1_bc_png.png"
		},
		{
			"mimeType":"image/png",
			"name":"P_Barrel_1_m.png-P_Barrel_1_r.png",
			"uri":"P_Barrel_1_m_png-P_Barrel_1_r_png.png"
		}
	],
	"accessors":[
		{
			"bufferView":0,
			"componentType":5126,
			"count":33,
			"max":[
				0.4978336989879608,
				0.5792499780654907,
				0.04963637515902519
			],
			"min":[
				0.42456763982772827,
				0.48483550548553467,
				-0.049636729061603546
			],
			"type":"VEC3"
		},
		{
			"bufferView":1,
			"componentType":5126,
			"count":33,
			"type":"VEC3"
		},
		{
			"bufferView":2,
			"componentType":5126,
			"count":33,
			"type":"VEC2"
		},
		{
			"bufferView":3,
			"componentType":5123,
			"count":90,
			"type":"SCALAR"
		},
		{
			"bufferView":4,
			"componentType":5126,
			"count":42,
			"max":[
				0.006509555969387293,
				0.9453937411308289,
				0.4607534408569336
			],
			"min":[
				-0.2701447010040283,
				0.0026040386874228716,
				0.27597397565841675
			],
			"type":"VEC3"
		},
		{
			"bufferView":5,
			"componentType":5126,
			"count":42,
			"type":"VEC3"
		},
		{
			"bufferView":6,
			"componentType":5126,
			"count":42,
			"type":"VEC2"
		},
		{
			"bufferView":7,
			"componentType":5123,
			"count":156,
			"type":"SCALAR"
		},
		{
			"bufferView":8,
			"componentType":5126,
			"count":42,
			"max":[
				0.2692863941192627,
				0.944115400314331,
				-0.28227561712265015
			],
			"min":[
				-0.004194372333586216,
				0.004089646972715855,
				-0.4598676860332489
			],
			"type":"VEC3"
		},
		{
			"bufferView":9,
			"componentType":5126,
			"count":42,
			"type":"VEC3"
		},
		{
			"bufferView":10,
			"componentType":5126,
			"count":42,
			"type":"VEC2"
		},
		{
			"bufferView":11,
			"componentType":5123,
			"count":156,
			"type":"SCALAR"
		},
		{
			"bufferView":12,
			"componentType":5126,
			"count":42,
			"max":[
				0.4392670691013336,
				0.9453936815261841,
				-0.09812423586845398
			],
			"min":[
				0.2009495198726654,
				0.0026039108633995056,
				-0.3697006106376648
			],
			"type":"VEC3"
		},
		{
			"bufferView":13,
			"componentType":5126,
			"count":42,
			"type":"VEC3"
		},
		{
			"bufferView":14,
			"componentType":5126,
			"count":42,
			"type":"VEC2"
		},
		{
			"bufferView":15,
			"componentType":5123,
			"count":156,
			"type":"SCALAR"
		},
		{
			"bufferView":16,
			"componentType":5126,
			"count":42,
			"max":[
				0.43774843215942383,
				0.944115400314331,
				0.13377392292022705
			],
			"min":[
				0.32989436388015747,
				0.00408979831263423,
				-0.13377410173416138
			],
			"type":"VEC3"
		},
		{
			"bufferView":17,
			"componentType":5126,
			"count":42,
			"type":"VEC3"
		},
		{
			"bufferView":18,
			"componentType":5126,
			"count":42,
			"type":"VEC2"
		},
		{
			"bufferView":19,
			"componentType":5123,
			"count":156,
			"type":"SCALAR"
		},
		{
			"bufferView":20,
			"componentType":5126,
			"count":96,
			"max":[
				0.4649367928504944,
				0.4009929895401001,
				0.4888635277748108
			],
			"min":[
				-0.4649367928504944,
				0.2520294785499573,
				-0.48886367678642273
			],
			"type":"VEC3"
		},
		{
			"bufferView":21,
			"componentType":5126,
			"count":96,
			"type":"VEC3"
		},
		{
			"bufferView":22,
			"componentType":5126,
			"count":96,
			"type":"VEC2"
		},
		{
			"bufferView":23,
			"componentType":5123,
			"count":240,
			"type":"SCALAR"
		},
		{
			"bufferView":24,
			"componentType":5126,
			"count":96,
			"max":[
				0.46854284405708313,
				0.7866740226745605,
				0.49265506863594055
			],
			"min":[
				-0.46854284405708313,
				0.6394177079200745,
				-0.49265530705451965
			],
			"type":"VEC3"
		},
		{
			"bufferView":25,
			"componentType":5126,
			"count":96,
			"type":"VEC3"
		},
		{
			"bufferView":26,
			"componentType":5126,
			"count":96,
			"type":"VEC2"
		},
		{
			"bufferView":27,
			"componentType":5123,
			"count":240,
			"type":"SCALAR"
		},
		{
			"bufferView":28,
			"componentType":5126,
			"count":11,
			"max":[
				0.33322152495384216,
				0.8982487916946411,
				0.36464667320251465
			],
			"min":[
				-0.33322152495384216,
				0.8982486128807068,
				-0.3646469712257385
			],
			"type":"VEC3"
		},
		{
			"bufferView":29,
			"componentType":5126,
			"count":11,
			"type":"VEC3"
		},
		{
			"bufferView":30,
			"componentType":5126,
			"count":11,
			"type":"VEC2"
		},
		{
			"bufferView":31,
			"componentType":5123,
			"count":30,
			"type":"SCALAR"
		},
		{
			"bufferView":32,
			"componentType":5126,
			"count":42,
			"max":[
				0.006509555969387293,
				0.9453937411308289,
				-0.27597397565841675
			],
			"min":[
				-0.2701447010040283,
				0.0026040386874228716,
				-0.4607534408569336
			],
			"type":"VEC3"
		},
		{
			"bufferView":33,
			"componentType":5126,
			"count":42,
			"type":"VEC3"
		},
		{
			"bufferView":34,
			"componentType":5126,
			"count":42,
			"type":"VEC2"
		},
		{
			"bufferView":35,
			"componentType":5123,
			"count":156,
			"type":"SCALAR"
		},
		{
			"bufferView":36,
			"componentType":5126,
			"count":42,
			"max":[
				0.2692863941192627,
				0.944115400314331,
				0.4598676860332489
			],
			"min":[
				-0.004194372333586216,
				0.004089646972715855,
				0.28227561712265015
			],
			"type":"VEC3"
		},
		{
			"bufferView":37,
			"componentType":5126,
			"count":42,
			"type":"VEC3"
		},
		{
			"bufferView":38,
			"componentType":5126,
			"count":42,
			"type":"VEC2"
		},
		{
			"bufferView":39,
			"componentType":5123,
			"count":156,
			"type":"SCALAR"
		},
		{
			"bufferView":40,
			"componentType":5126,
			"count":42,
			"max":[
				0.4392670691013336,
				0.9453936815261841,
				0.3697006106376648
			],
			"min":[
				0.2009495198726654,
				0.0026039108633995056,
				0.09812423586845398
			],
			"type":"VEC3"
		},
		{
			"bufferView":41,
			"componentType":5126,
			"count":42,
			"type":"VEC3"
		},
		{
			"bufferView":42,
			"componentType":5126,
			"count":42,
			"type":"VEC2"
		},
		{
			"bufferView":43,
			"componentType":5123,
			"count":156,
			"type":"SCALAR"
		},
		{
			"bufferView":44,
			"componentType":5126,
			"count":42,
			"max":[
				-0.32989436388015747,
				0.944115400314331,
				0.13377392292022705
			],
			"min":[
				-0.43774843215942383,
				0.00408979831263423,
				-0.13377410173416138
			],
			"type":"VEC3"
		},
		{
			"bufferView":45,
			"componentType":5126,
			"count":42,
			"type":"VEC3"
		},
		{
			"bufferView":46,
			"componentType":5126,
			"count":42,
			"type":"VEC2"
		},
		{
			"bufferView":47,
			"componentType":5123,
			"count":156,
			"type":"SCALAR"
		},
		{
			"bufferView":48,
			"componentType":5126,
			"count":42,
			"max":[
				-0.2009495198726654,
				0.9453936815261841,
				-0.09812423586845398
			],
			"min":[
				-0.4392670691013336,
				0.0026039108633995056,
				-0.3697006106376648
			],
			"type":"VEC3"
		},
		{
			"bufferView":49,
			"componentType":5126,
			"count":42,
			"type":"VEC3"
		},
		{
			"bufferView":50,
			"componentType":5126,
			"count":42,
			"type":"VEC2"
		},
		{
			"bufferView":51,
			"componentType":5126,
			"count":42,
			"max":[
				-0.2009495198726654,
				0.9453936815261841,
				0.3697006106376648
			],
			"min":[
				-0.4392670691013336,
				0.0026039108633995056,
				0.09812423586845398
			],
			"type":"VEC3"
		},
		{
			"bufferView":52,
			"componentType":5126,
			"count":42,
			"type":"VEC3"
		},
		{
			"bufferView":53,
			"componentType":5126,
			"count":42,
			"type":"VEC2"
		},
		{
			"bufferView":54,
			"componentType":5126,
			"count":11,
			"max":[
				0.333221435546875,
				0.06870739907026291,
				0.36464667320251465
			],
			"min":[
				-0.33322158455848694,
				0.06870725005865097,
				-0.3646469712257385
			],
			"type":"VEC3"
		},
		{
			"bufferView":55,
			"componentType":5126,
			"count":11,
			"type":"VEC3"
		},
		{
			"bufferView":56,
			"componentType":5126,
			"count":11,
			"type":"VEC2"
		}
	],
	"bufferViews":[
		{
			"buffer":0,
			"byteLength":396,
			"byteOffset":0,
			"target":34962
		},
		{
			"buffer":0,
			"byteLength":396,
			"byteOffset":396,
			"target":34962
		},
		{
			"buffer":0,
			"byteLength":264,
			"byteOffset":792,
			"target":34962
		},
		{
			"buffer":0,
			"byteLength":180,
			"byteOffset":1056,
			"target":34963
		},
		{
			"buffer":0,
			"byteLength":504,
			"byteOffset":1236,
			"target":34962
		},
		{
			"buffer":0,
			"byteLength":504,
			"byteOffset":1740,
			"target":34962
		},
		{
			"buffer":0,
			"byteLength":336,
			"byteOffset":2244,
			"target":34962
		},
		{
			"buffer":0,
			"byteLength":312,
			"byteOffset":2580,
			"target":34963
		},
		{
			"buffer":0,
			"byteLength":504,
			"byteOffset":2892,
			"target":34962
		},
		{
			"buffer":0,
			"byteLength":504,
			"byteOffset":3396,
			"target":34962
		},
		{
			"buffer":0,
			"byteLength":336,
			"byteOffset":3900,
			"target":34962
		},
		{
			"buffer":0,
			"byteLength":312,
			"byteOffset":4236,
			"target":34963
		},
		{
			"buffer":0,
			"byteLength":504,
			"byteOffset":4548,
			"target":34962
		},
		{
			"buffer":0,
			"byteLength":504,
			"byteOffset":5052,
			"target":34962
		},
		{
			"buffer":0,
			"byteLength":336,
			"byteOffset":5556,
			"target":34962
		},
		{
			"buffer":0,
			"byteLength":312,
			"byteOffset":5892,
			"target":34963
		},
		{
			"buffer":0,
			"byteLength":504,
			"byteOffset":6204,
			"target":34962
		},
		{
			"buffer":0,
			"byteLength":504,
			"byteOffset":6708,
			"target":34962
		},
		{
			"buffer":0,
			"byteLength":336,
			"byteOffset":7212,
			"target":34962
		},
		{
			"buffer":0,
			"byteLength":312,
			"byteOffset":7548,
			"target":34963
		},
		{
			"buffer":0,
			"byteLength":1152,
			"byteOffset":7860,
			"target":34962
		},
		{
			"buffer":0,
			"byteLength":1152,
			"byteOffset":9012,
			"target":34962
		},
		{
			"buffer":0,
			"byteLength":768,
			"byteOffset":10164,
			"target":34962
		},
		{
			"buffer":0,
			"byteLength":480,
			"byteOffset":10932,
			"target":34963
		},
		{
			"buffer":0,
			"byteLength":1152,
			"byteOffset":11412,
			"target":34962
		},
		{
			"buffer":0,
			"byteLength":1152,
			"byteOffset":12564,
			"target":34962
		},
		{
			"buffer":0,
			"byteLength":768,
			"byteOffset":13716,
			"target":34962
		},
		{
			"buffer":0,
			"byteLength":480,
			"byteOffset":14484,
			"target":34963
		},
		{
			"buffer":0,
			"byteLength":132,
			"byteOffset":14964,
			"target":34962
		},
		{
			"buffer":0,
			"byteLength":132,
			"byteOffset":15096,
			"target":34962
		},
		{
			"buffer":0,
			"byteLength":88,
			"byteOffset":15228,
			"target":34962
		},
		{
			"buffer":0,
			"byteLength":60,
			"byteOffset":15316,
			"target":34963
		},
		{
			"buffer":0,
			"byteLength":504,
			"byteOffset":15376,
			"target":34962
		},
		{
			"buffer":0,
			"byteLength":504,
			"byteOffset":15880,
			"target":34962
		},
		{
			"buffer":0,
			"byteLength":336,
			"byteOffset":16384,
			"target":34962
		},
		{
			"buffer":0,
			"byteLength":312,
			"byteOffset":16720,
			"target":34963
		},
		{
			"buffer":0,
			"byteLength":504,
			"byteOffset":17032,
			"target":34962
		},
		{
			"buffer":0,
			"byteLength":504,
			"byteOffset":17536,
			"target":34962
		},
		{
			"buffer":0,
			"byteLength":336,
			"byteOffset":18040,
			"target":34962
		},
		{
			"buffer":0,
			"byteLength":312,
			"byteOffset":18376,
			"target":34963
		},
		{
			"buffer":0,
			"byteLength":504,
			"byteOffset":18688,
			"target":34962
		},
		{
			"buffer":0,
			"byteLength":504,
			"byteOffset":19192,
			"target":34962
		},
		{
			"buffer":0,
			"byteLength":336,
			"byteOffset":19696,
			"target":34962
		},
		{
			"buffer":0,
			"byteLength":312,
			"byteOffset":20032,
			"target":34963
		},
		{
			"buffer":0,
			"byteLength":504,
			"byteOffset":20344,
			"target":34962
		},
		{
			"buffer":0,
			"byteLength":504,
			"byteOffset":20848,
			"target":34962
		},
		{
			"buffer":0,
			"byteLength":336,
			"byteOffset":21352,
			"target":34962
		},
		{
			"buffer":0,
			"byteLength":312,
			"byteOffset":21688,
			"target":34963
		},
		{
			"buffer":0,
			"byteLength":504,
			"byteOffset":22000,
			"target":34962
		},
		{
			"buffer":0,
			"byteLength":504,
			"byteOffset":22504,
			"target":34962
		},
		{
			"buffer":0,
			"byteLength":336,
			"byteOffset":23008,
			"target":34962
		},
		{
			"buffer":0,
			"byteLength":504,
			"byteOffset":23344,
			"target":34962
		},
		{
			"buffer":0,
			"byteLength":504,
			"byteOffset":23848,
			"target":34962
		},
		{
			"buffer":0,
			"byteLength":336,
			"byteOffset":24352,
			"target":34962
		},
		{
			"buffer":0,
			"byteLength":132,
			"byteOffset":24688,
			"target":34962
		},
		{
			"buffer":0,
			"byteLength":132,
			"byteOffset":24820,
			"target":34962
		},
		{
			"buffer":0,
			"byteLength":88,
			"byteOffset":24952,
			"target":34962
		}
	],
	"samplers":[
		{
			"magFilter":9729,
			"minFilter":9987
		}
	],
	"buffers":[
		{
			"byteLength":25040,
			"uri":"P_Barrel_Destroy.bin"
		}
	]
}
