{
	"asset":{
		"generator":"Khronos glTF Blender I/O v4.3.47",
		"version":"2.0"
	},
	"extensionsUsed":[
		"KHR_materials_specular"
	],
	"scene":0,
	"scenes":[
		{
			"name":"Scene",
			"nodes":[
				0,
				1,
				2,
				3,
				4,
				5,
				6,
				7,
				8,
				9
			]
		}
	],
	"nodes":[
		{
			"mesh":0,
			"name":"tabla1",
			"translation":[
				-0.2805978059768677,
				0.5500142574310303,
				0.14221248030662537
			]
		},
		{
			"mesh":1,
			"name":"tabla2",
			"translation":[
				-0.3242342472076416,
				0.701951801776886,
				-0.029848136007785797
			]
		},
		{
			"mesh":2,
			"name":"tabla3",
			"translation":[
				0.5337021350860596,
				0.4871606230735779,
				0.009573034942150116
			]
		},
		{
			"mesh":3,
			"name":"tabla4",
			"translation":[
				-0.4665508568286896,
				0.7869479060173035,
				0.9158170819282532
			]
		},
		{
			"mesh":4,
			"name":"cilindro1",
			"translation":[
				0.06928874552249908,
				0.6099564433097839,
				0.8051266670227051
			]
		},
		{
			"mesh":5,
			"name":"cilindro2",
			"translation":[
				-1.0854465961456299,
				0.8662311434745789,
				-0.056999996304512024
			]
		},
		{
			"mesh":6,
			"name":"tubo1",
			"translation":[
				-0.03227420896291733,
				0.6058788895606995,
				-0.9355143308639526
			]
		},
		{
			"mesh":7,
			"name":"tubo2",
			"translation":[
				-0.3657979667186737,
				1.0817524194717407,
				0.11750106513500214
			]
		},
		{
			"mesh":8,
			"name":"tubo3",
			"translation":[
				-0.16522818803787231,
				0.3152323365211487,
				-0.20860980451107025
			]
		},
		{
			"mesh":9,
			"name":"tubo4",
			"translation":[
				-0.23106317222118378,
				0.9300373196601868,
				0.4612118899822235
			]
		}
	],
	"materials":[
		{
			"doubleSided":true,
			"extensions":{
				"KHR_materials_specular":{
					"specularColorFactor":[
						2.0,
						2.0,
						2.0
					]
				}
			},
			"name":"Scrap1.002",
			"normalTexture":{
				"index":0
			},
			"pbrMetallicRoughness":{
				"baseColorTexture":{
					"index":1
				},
				"metallicRoughnessTexture":{
					"index":2
				}
			}
		}
	],
	"meshes":[
		{
			"name":"Cube.009",
			"primitives":[
				{
					"attributes":{
						"POSITION":0,
						"NORMAL":1,
						"TEXCOORD_0":2
					},
					"indices":3,
					"material":0
				}
			]
		},
		{
			"name":"Cube.003",
			"primitives":[
				{
					"attributes":{
						"POSITION":4,
						"NORMAL":5,
						"TEXCOORD_0":6
					},
					"indices":7,
					"material":0
				}
			]
		},
		{
			"name":"Cube.004",
			"primitives":[
				{
					"attributes":{
						"POSITION":8,
						"NORMAL":9,
						"TEXCOORD_0":10
					},
					"indices":11,
					"material":0
				}
			]
		},
		{
			"name":"Cube.005",
			"primitives":[
				{
					"attributes":{
						"POSITION":12,
						"NORMAL":13,
						"TEXCOORD_0":14
					},
					"indices":15,
					"material":0
				}
			]
		},
		{
			"name":"Cube.006",
			"primitives":[
				{
					"attributes":{
						"POSITION":16,
						"NORMAL":17,
						"TEXCOORD_0":18
					},
					"indices":19,
					"material":0
				}
			]
		},
		{
			"name":"Cube.007",
			"primitives":[
				{
					"attributes":{
						"POSITION":20,
						"NORMAL":21,
						"TEXCOORD_0":22
					},
					"indices":23,
					"material":0
				}
			]
		},
		{
			"name":"Cube.008",
			"primitives":[
				{
					"attributes":{
						"POSITION":24,
						"NORMAL":25,
						"TEXCOORD_0":26
					},
					"indices":27,
					"material":0
				}
			]
		},
		{
			"name":"Cube.011",
			"primitives":[
				{
					"attributes":{
						"POSITION":28,
						"NORMAL":29,
						"TEXCOORD_0":30
					},
					"indices":31,
					"material":0
				}
			]
		},
		{
			"name":"Cube.012",
			"primitives":[
				{
					"attributes":{
						"POSITION":32,
						"NORMAL":33,
						"TEXCOORD_0":34
					},
					"indices":35,
					"material":0
				}
			]
		},
		{
			"name":"Cube.013",
			"primitives":[
				{
					"attributes":{
						"POSITION":36,
						"NORMAL":37,
						"TEXCOORD_0":38
					},
					"indices":39,
					"material":0
				}
			]
		}
	],
	"textures":[
		{
			"sampler":0,
			"source":0
		},
		{
			"sampler":0,
			"source":1
		},
		{
			"sampler":0,
			"source":2
		}
	],
	"images":[
		{
			"mimeType":"image/png",
			"name":"P_Scrap_1_n",
			"uri":"P_Scrap_1_n.png"
		},
		{
			"mimeType":"image/png",
			"name":"P_Scrap_1_bc",
			"uri":"P_Scrap_1_bc.png"
		},
		{
			"mimeType":"image/png",
			"name":"P_Scrap_1_m-P_Scrap_1_r",
			"uri":"P_Scrap_1_m-P_Scrap_1_r.png"
		}
	],
	"accessors":[
		{
			"bufferView":0,
			"componentType":5126,
			"count":26,
			"max":[
				1.6829495429992676,
				0.3881675601005554,
				0.42374131083488464
			],
			"min":[
				-1.6827189922332764,
				-0.39855390787124634,
				-0.42410609126091003
			],
			"type":"VEC3"
		},
		{
			"bufferView":1,
			"componentType":5126,
			"count":26,
			"type":"VEC3"
		},
		{
			"bufferView":2,
			"componentType":5126,
			"count":26,
			"type":"VEC2"
		},
		{
			"bufferView":3,
			"componentType":5123,
			"count":84,
			"type":"SCALAR"
		},
		{
			"bufferView":4,
			"componentType":5126,
			"count":26,
			"max":[
				1.0592182874679565,
				0.7410945296287537,
				1.5021439790725708
			],
			"min":[
				-1.0648189783096313,
				-0.7283743619918823,
				-1.6111178398132324
			],
			"type":"VEC3"
		},
		{
			"bufferView":5,
			"componentType":5126,
			"count":26,
			"type":"VEC3"
		},
		{
			"bufferView":6,
			"componentType":5126,
			"count":26,
			"type":"VEC2"
		},
		{
			"bufferView":7,
			"componentType":5123,
			"count":84,
			"type":"SCALAR"
		},
		{
			"bufferView":8,
			"componentType":5126,
			"count":26,
			"max":[
				0.6640667915344238,
				0.38285404443740845,
				1.363377571105957
			],
			"min":[
				-0.6637051701545715,
				-0.3947131335735321,
				-1.3646451234817505
			],
			"type":"VEC3"
		},
		{
			"bufferView":9,
			"componentType":5126,
			"count":26,
			"type":"VEC3"
		},
		{
			"bufferView":10,
			"componentType":5126,
			"count":26,
			"type":"VEC2"
		},
		{
			"bufferView":11,
			"componentType":5123,
			"count":84,
			"type":"SCALAR"
		},
		{
			"bufferView":12,
			"componentType":5126,
			"count":26,
			"max":[
				0.3186010420322418,
				0.7090880274772644,
				0.3834158778190613
			],
			"min":[
				-0.31432732939720154,
				-0.7075557708740234,
				-0.38139814138412476
			],
			"type":"VEC3"
		},
		{
			"bufferView":13,
			"componentType":5126,
			"count":26,
			"type":"VEC3"
		},
		{
			"bufferView":14,
			"componentType":5126,
			"count":26,
			"type":"VEC2"
		},
		{
			"bufferView":15,
			"componentType":5123,
			"count":84,
			"type":"SCALAR"
		},
		{
			"bufferView":16,
			"componentType":5126,
			"count":36,
			"max":[
				0.39364171028137207,
				0.24419188499450684,
				0.42113280296325684
			],
			"min":[
				-0.4870430827140808,
				-0.2841961085796356,
				-0.5239982604980469
			],
			"type":"VEC3"
		},
		{
			"bufferView":17,
			"componentType":5126,
			"count":36,
			"type":"VEC3"
		},
		{
			"bufferView":18,
			"componentType":5126,
			"count":36,
			"type":"VEC2"
		},
		{
			"bufferView":19,
			"componentType":5123,
			"count":84,
			"type":"SCALAR"
		},
		{
			"bufferView":20,
			"componentType":5126,
			"count":29,
			"max":[
				0.8373271226882935,
				0.5087924599647522,
				1.109555959701538
			],
			"min":[
				-0.6603331565856934,
				-0.5873294472694397,
				-0.9606383442878723
			],
			"type":"VEC3"
		},
		{
			"bufferView":21,
			"componentType":5126,
			"count":29,
			"type":"VEC3"
		},
		{
			"bufferView":22,
			"componentType":5126,
			"count":29,
			"type":"VEC2"
		},
		{
			"bufferView":23,
			"componentType":5123,
			"count":84,
			"type":"SCALAR"
		},
		{
			"bufferView":24,
			"componentType":5126,
			"count":74,
			"max":[
				1.0877333879470825,
				0.5879008173942566,
				0.539185643196106
			],
			"min":[
				-1.0248501300811768,
				-0.7896014451980591,
				-0.5414117574691772
			],
			"type":"VEC3"
		},
		{
			"bufferView":25,
			"componentType":5126,
			"count":74,
			"type":"VEC3"
		},
		{
			"bufferView":26,
			"componentType":5126,
			"count":74,
			"type":"VEC2"
		},
		{
			"bufferView":27,
			"componentType":5123,
			"count":360,
			"type":"SCALAR"
		},
		{
			"bufferView":28,
			"componentType":5126,
			"count":74,
			"max":[
				0.1729591190814972,
				0.5021833181381226,
				0.5019554495811462
			],
			"min":[
				-0.11118254065513611,
				-0.5320938229560852,
				-0.44161874055862427
			],
			"type":"VEC3"
		},
		{
			"bufferView":29,
			"componentType":5126,
			"count":74,
			"type":"VEC3"
		},
		{
			"bufferView":30,
			"componentType":5126,
			"count":74,
			"type":"VEC2"
		},
		{
			"bufferView":31,
			"componentType":5123,
			"count":360,
			"type":"SCALAR"
		},
		{
			"bufferView":32,
			"componentType":5126,
			"count":40,
			"max":[
				1.2638354301452637,
				0.170521080493927,
				0.2890814542770386
			],
			"min":[
				-1.2638354301452637,
				-0.17052114009857178,
				-0.2890813946723938
			],
			"type":"VEC3"
		},
		{
			"bufferView":33,
			"componentType":5126,
			"count":40,
			"type":"VEC3"
		},
		{
			"bufferView":34,
			"componentType":5126,
			"count":40,
			"type":"VEC2"
		},
		{
			"bufferView":35,
			"componentType":5123,
			"count":144,
			"type":"SCALAR"
		},
		{
			"bufferView":36,
			"componentType":5126,
			"count":88,
			"max":[
				0.4670618176460266,
				0.5048012137413025,
				0.22359564900398254
			],
			"min":[
				-0.4671087861061096,
				-0.5745322108268738,
				-0.3120429217815399
			],
			"type":"VEC3"
		},
		{
			"bufferView":37,
			"componentType":5126,
			"count":88,
			"type":"VEC3"
		},
		{
			"bufferView":38,
			"componentType":5126,
			"count":88,
			"type":"VEC2"
		},
		{
			"bufferView":39,
			"componentType":5123,
			"count":360,
			"type":"SCALAR"
		}
	],
	"bufferViews":[
		{
			"buffer":0,
			"byteLength":312,
			"byteOffset":0,
			"target":34962
		},
		{
			"buffer":0,
			"byteLength":312,
			"byteOffset":312,
			"target":34962
		},
		{
			"buffer":0,
			"byteLength":208,
			"byteOffset":624,
			"target":34962
		},
		{
			"buffer":0,
			"byteLength":168,
			"byteOffset":832,
			"target":34963
		},
		{
			"buffer":0,
			"byteLength":312,
			"byteOffset":1000,
			"target":34962
		},
		{
			"buffer":0,
			"byteLength":312,
			"byteOffset":1312,
			"target":34962
		},
		{
			"buffer":0,
			"byteLength":208,
			"byteOffset":1624,
			"target":34962
		},
		{
			"buffer":0,
			"byteLength":168,
			"byteOffset":1832,
			"target":34963
		},
		{
			"buffer":0,
			"byteLength":312,
			"byteOffset":2000,
			"target":34962
		},
		{
			"buffer":0,
			"byteLength":312,
			"byteOffset":2312,
			"target":34962
		},
		{
			"buffer":0,
			"byteLength":208,
			"byteOffset":2624,
			"target":34962
		},
		{
			"buffer":0,
			"byteLength":168,
			"byteOffset":2832,
			"target":34963
		},
		{
			"buffer":0,
			"byteLength":312,
			"byteOffset":3000,
			"target":34962
		},
		{
			"buffer":0,
			"byteLength":312,
			"byteOffset":3312,
			"target":34962
		},
		{
			"buffer":0,
			"byteLength":208,
			"byteOffset":3624,
			"target":34962
		},
		{
			"buffer":0,
			"byteLength":168,
			"byteOffset":3832,
			"target":34963
		},
		{
			"buffer":0,
			"byteLength":432,
			"byteOffset":4000,
			"target":34962
		},
		{
			"buffer":0,
			"byteLength":432,
			"byteOffset":4432,
			"target":34962
		},
		{
			"buffer":0,
			"byteLength":288,
			"byteOffset":4864,
			"target":34962
		},
		{
			"buffer":0,
			"byteLength":168,
			"byteOffset":5152,
			"target":34963
		},
		{
			"buffer":0,
			"byteLength":348,
			"byteOffset":5320,
			"target":34962
		},
		{
			"buffer":0,
			"byteLength":348,
			"byteOffset":5668,
			"target":34962
		},
		{
			"buffer":0,
			"byteLength":232,
			"byteOffset":6016,
			"target":34962
		},
		{
			"buffer":0,
			"byteLength":168,
			"byteOffset":6248,
			"target":34963
		},
		{
			"buffer":0,
			"byteLength":888,
			"byteOffset":6416,
			"target":34962
		},
		{
			"buffer":0,
			"byteLength":888,
			"byteOffset":7304,
			"target":34962
		},
		{
			"buffer":0,
			"byteLength":592,
			"byteOffset":8192,
			"target":34962
		},
		{
			"buffer":0,
			"byteLength":720,
			"byteOffset":8784,
			"target":34963
		},
		{
			"buffer":0,
			"byteLength":888,
			"byteOffset":9504,
			"target":34962
		},
		{
			"buffer":0,
			"byteLength":888,
			"byteOffset":10392,
			"target":34962
		},
		{
			"buffer":0,
			"byteLength":592,
			"byteOffset":11280,
			"target":34962
		},
		{
			"buffer":0,
			"byteLength":720,
			"byteOffset":11872,
			"target":34963
		},
		{
			"buffer":0,
			"byteLength":480,
			"byteOffset":12592,
			"target":34962
		},
		{
			"buffer":0,
			"byteLength":480,
			"byteOffset":13072,
			"target":34962
		},
		{
			"buffer":0,
			"byteLength":320,
			"byteOffset":13552,
			"target":34962
		},
		{
			"buffer":0,
			"byteLength":288,
			"byteOffset":13872,
			"target":34963
		},
		{
			"buffer":0,
			"byteLength":1056,
			"byteOffset":14160,
			"target":34962
		},
		{
			"buffer":0,
			"byteLength":1056,
			"byteOffset":15216,
			"target":34962
		},
		{
			"buffer":0,
			"byteLength":704,
			"byteOffset":16272,
			"target":34962
		},
		{
			"buffer":0,
			"byteLength":720,
			"byteOffset":16976,
			"target":34963
		}
	],
	"samplers":[
		{
			"magFilter":9729,
			"minFilter":9987
		}
	],
	"buffers":[
		{
			"byteLength":17696,
			"uri":"P_ScrapSeparada_1.bin"
		}
	]
}
