{
	"asset":{
		"generator":"Khronos glTF Blender I/O v4.3.47",
		"version":"2.0"
	},
	"scene":0,
	"scenes":[
		{
			"name":"Scene",
			"nodes":[
				0,
				1,
				2,
				3,
				4
			]
		}
	],
	"nodes":[
		{
			"mesh":0,
			"name":"TinyRock1_low"
		},
		{
			"mesh":1,
			"name":"TinyRock2_low",
			"translation":[
				1.026992678642273,
				0,
				0
			]
		},
		{
			"mesh":2,
			"name":"TinyRock3_low",
			"translation":[
				-0.8390211462974548,
				0,
				-1.0937784910202026
			]
		},
		{
			"mesh":3,
			"name":"TinyRock5_low",
			"translation":[
				-1.3672733306884766,
				0,
				0
			]
		},
		{
			"mesh":4,
			"name":"TinyRock4_low",
			"translation":[
				0.5893939137458801,
				-0.00037097930908203125,
				-1.0532879829406738
			]
		}
	],
	"materials":[
		{
			"doubleSided":true,
			"name":"TinyRocks",
			"normalTexture":{
				"index":0
			},
			"pbrMetallicRoughness":{
				"baseColorTexture":{
					"index":1
				},
				"metallicRoughnessTexture":{
					"index":2
				}
			}
		}
	],
	"meshes":[
		{
			"name":"Cube.002",
			"primitives":[
				{
					"attributes":{
						"POSITION":0,
						"NORMAL":1,
						"TEXCOORD_0":2
					},
					"indices":3,
					"material":0
				}
			]
		},
		{
			"name":"Cube.004",
			"primitives":[
				{
					"attributes":{
						"POSITION":4,
						"NORMAL":5,
						"TEXCOORD_0":6
					},
					"indices":7,
					"material":0
				}
			]
		},
		{
			"name":"Cube.005",
			"primitives":[
				{
					"attributes":{
						"POSITION":8,
						"NORMAL":9,
						"TEXCOORD_0":10
					},
					"indices":11,
					"material":0
				}
			]
		},
		{
			"name":"Cube.003",
			"primitives":[
				{
					"attributes":{
						"POSITION":12,
						"NORMAL":13,
						"TEXCOORD_0":14
					},
					"indices":15,
					"material":0
				}
			]
		},
		{
			"name":"Plane",
			"primitives":[
				{
					"attributes":{
						"POSITION":16,
						"NORMAL":17,
						"TEXCOORD_0":18
					},
					"indices":19,
					"material":0
				}
			]
		}
	],
	"textures":[
		{
			"sampler":0,
			"source":0
		},
		{
			"sampler":0,
			"source":1
		},
		{
			"sampler":0,
			"source":2
		}
	],
	"images":[
		{
			"mimeType":"image/png",
			"name":"TinyRocks_low_TinyRocks_Normal.png",
			"uri":"TinyRocks_low_TinyRocks_Normal_png.png"
		},
		{
			"mimeType":"image/png",
			"name":"TinyRocks_low_TinyRocks_BaseColor.png",
			"uri":"TinyRocks_low_TinyRocks_BaseColor_png.png"
		},
		{
			"mimeType":"image/png",
			"name":"TinyRocks_low_TinyRocks_Metallic.png-TinyRocks_low_TinyRocks_Roughness.png",
			"uri":"TinyRocks_low_TinyRocks_Metallic_png-TinyRocks_low_TinyRocks_Roughness_png.png"
		}
	],
	"accessors":[
		{
			"bufferView":0,
			"componentType":5126,
			"count":45,
			"max":[
				0.448067307472229,
				0.527076005935669,
				0.17168836295604706
			],
			"min":[
				-0.47254079580307007,
				-0.11531564593315125,
				-0.18065522611141205
			],
			"type":"VEC3"
		},
		{
			"bufferView":1,
			"componentType":5126,
			"count":45,
			"type":"VEC3"
		},
		{
			"bufferView":2,
			"componentType":5126,
			"count":45,
			"type":"VEC2"
		},
		{
			"bufferView":3,
			"componentType":5123,
			"count":144,
			"type":"SCALAR"
		},
		{
			"bufferView":4,
			"componentType":5126,
			"count":47,
			"max":[
				0.3178231716156006,
				0.7371801137924194,
				0.15812908113002777
			],
			"min":[
				-0.2298792600631714,
				-0.08709648996591568,
				-0.1088295429944992
			],
			"type":"VEC3"
		},
		{
			"bufferView":5,
			"componentType":5126,
			"count":47,
			"type":"VEC3"
		},
		{
			"bufferView":6,
			"componentType":5126,
			"count":47,
			"type":"VEC2"
		},
		{
			"bufferView":7,
			"componentType":5123,
			"count":156,
			"type":"SCALAR"
		},
		{
			"bufferView":8,
			"componentType":5126,
			"count":36,
			"max":[
				0.44278234243392944,
				0.42232367396354675,
				0.12468809634447098
			],
			"min":[
				-0.39528223872184753,
				-0.12348437309265137,
				-0.12458006292581558
			],
			"type":"VEC3"
		},
		{
			"bufferView":9,
			"componentType":5126,
			"count":36,
			"type":"VEC3"
		},
		{
			"bufferView":10,
			"componentType":5126,
			"count":36,
			"type":"VEC2"
		},
		{
			"bufferView":11,
			"componentType":5123,
			"count":114,
			"type":"SCALAR"
		},
		{
			"bufferView":12,
			"componentType":5126,
			"count":27,
			"max":[
				0.4031333029270172,
				0.3550671637058258,
				0.11280811578035355
			],
			"min":[
				-0.43947017192840576,
				-0.08852049708366394,
				-0.0736057385802269
			],
			"type":"VEC3"
		},
		{
			"bufferView":13,
			"componentType":5126,
			"count":27,
			"type":"VEC3"
		},
		{
			"bufferView":14,
			"componentType":5126,
			"count":27,
			"type":"VEC2"
		},
		{
			"bufferView":15,
			"componentType":5123,
			"count":72,
			"type":"SCALAR"
		},
		{
			"bufferView":16,
			"componentType":5126,
			"count":103,
			"max":[
				1.0024265050888062,
				0.37804991006851196,
				0.07774189859628677
			],
			"min":[
				-0.5712472796440125,
				-0.07458088546991348,
				-0.3267461061477661
			],
			"type":"VEC3"
		},
		{
			"bufferView":17,
			"componentType":5126,
			"count":103,
			"type":"VEC3"
		},
		{
			"bufferView":18,
			"componentType":5126,
			"count":103,
			"type":"VEC2"
		},
		{
			"bufferView":19,
			"componentType":5123,
			"count":348,
			"type":"SCALAR"
		}
	],
	"bufferViews":[
		{
			"buffer":0,
			"byteLength":540,
			"byteOffset":0,
			"target":34962
		},
		{
			"buffer":0,
			"byteLength":540,
			"byteOffset":540,
			"target":34962
		},
		{
			"buffer":0,
			"byteLength":360,
			"byteOffset":1080,
			"target":34962
		},
		{
			"buffer":0,
			"byteLength":288,
			"byteOffset":1440,
			"target":34963
		},
		{
			"buffer":0,
			"byteLength":564,
			"byteOffset":1728,
			"target":34962
		},
		{
			"buffer":0,
			"byteLength":564,
			"byteOffset":2292,
			"target":34962
		},
		{
			"buffer":0,
			"byteLength":376,
			"byteOffset":2856,
			"target":34962
		},
		{
			"buffer":0,
			"byteLength":312,
			"byteOffset":3232,
			"target":34963
		},
		{
			"buffer":0,
			"byteLength":432,
			"byteOffset":3544,
			"target":34962
		},
		{
			"buffer":0,
			"byteLength":432,
			"byteOffset":3976,
			"target":34962
		},
		{
			"buffer":0,
			"byteLength":288,
			"byteOffset":4408,
			"target":34962
		},
		{
			"buffer":0,
			"byteLength":228,
			"byteOffset":4696,
			"target":34963
		},
		{
			"buffer":0,
			"byteLength":324,
			"byteOffset":4924,
			"target":34962
		},
		{
			"buffer":0,
			"byteLength":324,
			"byteOffset":5248,
			"target":34962
		},
		{
			"buffer":0,
			"byteLength":216,
			"byteOffset":5572,
			"target":34962
		},
		{
			"buffer":0,
			"byteLength":144,
			"byteOffset":5788,
			"target":34963
		},
		{
			"buffer":0,
			"byteLength":1236,
			"byteOffset":5932,
			"target":34962
		},
		{
			"buffer":0,
			"byteLength":1236,
			"byteOffset":7168,
			"target":34962
		},
		{
			"buffer":0,
			"byteLength":824,
			"byteOffset":8404,
			"target":34962
		},
		{
			"buffer":0,
			"byteLength":696,
			"byteOffset":9228,
			"target":34963
		}
	],
	"samplers":[
		{
			"magFilter":9729,
			"minFilter":9987
		}
	],
	"buffers":[
		{
			"byteLength":9924,
			"uri":"TinyRocks.bin"
		}
	]
}
