{
	"asset":{
		"generator":"Khronos glTF Blender I/O v4.3.47",
		"version":"2.0"
	},
	"scene":0,
	"scenes":[
		{
			"name":"Scene",
			"nodes":[
				4
			]
		}
	],
	"nodes":[
		{
			"name":"rayo1",
			"rotation":[
				-0.7071067690849304,
				0,
				0,
				0.7071067690849304
			],
			"translation":[
				6.216327154296027e-17,
				0.0016576051712036133,
				-0.18766000866889954
			]
		},
		{
			"name":"rayo2",
			"rotation":[
				-0.7071067690849304,
				0,
				0,
				0.7071067690849304
			],
			"translation":[
				0,
				0.0023470520973205566,
				-0.18294396996498108
			]
		},
		{
			"children":[
				0,
				1
			],
			"name":"Root"
		},
		{
			"mesh":0,
			"name":"BalaMesh",
			"skin":0
		},
		{
			"children":[
				3,
				2
			],
			"name":"BalaArmature"
		}
	],
	"animations":[
		{
			"channels":[
				{
					"sampler":0,
					"target":{
						"node":2,
						"path":"translation"
					}
				},
				{
					"sampler":1,
					"target":{
						"node":2,
						"path":"rotation"
					}
				},
				{
					"sampler":2,
					"target":{
						"node":2,
						"path":"scale"
					}
				},
				{
					"sampler":3,
					"target":{
						"node":0,
						"path":"translation"
					}
				},
				{
					"sampler":4,
					"target":{
						"node":0,
						"path":"rotation"
					}
				},
				{
					"sampler":5,
					"target":{
						"node":0,
						"path":"scale"
					}
				},
				{
					"sampler":6,
					"target":{
						"node":1,
						"path":"translation"
					}
				},
				{
					"sampler":7,
					"target":{
						"node":1,
						"path":"rotation"
					}
				},
				{
					"sampler":8,
					"target":{
						"node":1,
						"path":"scale"
					}
				}
			],
			"name":"IdleBullet",
			"samplers":[
				{
					"input":9,
					"interpolation":"STEP",
					"output":10
				},
				{
					"input":9,
					"interpolation":"STEP",
					"output":11
				},
				{
					"input":9,
					"interpolation":"STEP",
					"output":12
				},
				{
					"input":9,
					"interpolation":"STEP",
					"output":13
				},
				{
					"input":14,
					"interpolation":"LINEAR",
					"output":15
				},
				{
					"input":14,
					"interpolation":"LINEAR",
					"output":16
				},
				{
					"input":9,
					"interpolation":"STEP",
					"output":17
				},
				{
					"input":14,
					"interpolation":"LINEAR",
					"output":18
				},
				{
					"input":14,
					"interpolation":"LINEAR",
					"output":19
				}
			]
		}
	],
	"materials":[
		{
			"alphaMode":"BLEND",
			"doubleSided":true,
			"emissiveFactor":[
				1,
				1,
				1
			],
			"emissiveTexture":{
				"index":0
			},
			"name":"Material.001",
			"pbrMetallicRoughness":{
				"baseColorTexture":{
					"index":1
				},
				"metallicFactor":0,
				"roughnessFactor":0.5
			}
		}
	],
	"meshes":[
		{
			"name":"Cylinder",
			"primitives":[
				{
					"attributes":{
						"POSITION":0,
						"NORMAL":1,
						"TEXCOORD_0":2,
						"COLOR_0":3,
						"COLOR_1":4,
						"JOINTS_0":5,
						"WEIGHTS_0":6
					},
					"indices":7,
					"material":0
				}
			]
		}
	],
	"textures":[
		{
			"sampler":0,
			"source":0
		},
		{
			"sampler":0,
			"source":0
		}
	],
	"images":[
		{
			"mimeType":"image/png",
			"name":"VFX_rayostexture.png",
			"uri":"VFX_rayostexture_png.png"
		}
	],
	"skins":[
		{
			"inverseBindMatrices":8,
			"joints":[
				2,
				0,
				1
			],
			"name":"BalaArmature"
		}
	],
	"accessors":[
		{
			"bufferView":0,
			"componentType":5126,
			"count":27,
			"max":[
				0.2570253014564514,
				0.25702524185180664,
				0.021735429763793945
			],
			"min":[
				-0.2570253014564514,
				-0.2570253610610962,
				-1.4691880941390991
			],
			"type":"VEC3"
		},
		{
			"bufferView":1,
			"componentType":5126,
			"count":27,
			"type":"VEC3"
		},
		{
			"bufferView":2,
			"componentType":5126,
			"count":27,
			"type":"VEC2"
		},
		{
			"bufferView":3,
			"componentType":5121,
			"count":27,
			"normalized":true,
			"type":"VEC4"
		},
		{
			"bufferView":4,
			"componentType":5123,
			"count":27,
			"normalized":true,
			"type":"VEC4"
		},
		{
			"bufferView":5,
			"componentType":5121,
			"count":27,
			"type":"VEC4"
		},
		{
			"bufferView":6,
			"componentType":5126,
			"count":27,
			"type":"VEC4"
		},
		{
			"bufferView":7,
			"componentType":5123,
			"count":96,
			"type":"SCALAR"
		},
		{
			"bufferView":8,
			"componentType":5126,
			"count":3,
			"type":"MAT4"
		},
		{
			"bufferView":9,
			"componentType":5126,
			"count":2,
			"max":[
				1
			],
			"min":[
				0
			],
			"type":"SCALAR"
		},
		{
			"bufferView":10,
			"componentType":5126,
			"count":2,
			"type":"VEC3"
		},
		{
			"bufferView":11,
			"componentType":5126,
			"count":2,
			"type":"VEC4"
		},
		{
			"bufferView":12,
			"componentType":5126,
			"count":2,
			"type":"VEC3"
		},
		{
			"bufferView":13,
			"componentType":5126,
			"count":2,
			"type":"VEC3"
		},
		{
			"bufferView":14,
			"componentType":5126,
			"count":61,
			"max":[
				1
			],
			"min":[
				0
			],
			"type":"SCALAR"
		},
		{
			"bufferView":15,
			"componentType":5126,
			"count":61,
			"type":"VEC4"
		},
		{
			"bufferView":16,
			"componentType":5126,
			"count":61,
			"type":"VEC3"
		},
		{
			"bufferView":17,
			"componentType":5126,
			"count":2,
			"type":"VEC3"
		},
		{
			"bufferView":18,
			"componentType":5126,
			"count":61,
			"type":"VEC4"
		},
		{
			"bufferView":19,
			"componentType":5126,
			"count":61,
			"type":"VEC3"
		}
	],
	"bufferViews":[
		{
			"buffer":0,
			"byteLength":324,
			"byteOffset":0,
			"target":34962
		},
		{
			"buffer":0,
			"byteLength":324,
			"byteOffset":324,
			"target":34962
		},
		{
			"buffer":0,
			"byteLength":216,
			"byteOffset":648,
			"target":34962
		},
		{
			"buffer":0,
			"byteLength":108,
			"byteOffset":864,
			"target":34962
		},
		{
			"buffer":0,
			"byteLength":216,
			"byteOffset":972,
			"target":34962
		},
		{
			"buffer":0,
			"byteLength":108,
			"byteOffset":1188,
			"target":34962
		},
		{
			"buffer":0,
			"byteLength":432,
			"byteOffset":1296,
			"target":34962
		},
		{
			"buffer":0,
			"byteLength":192,
			"byteOffset":1728,
			"target":34963
		},
		{
			"buffer":0,
			"byteLength":192,
			"byteOffset":1920
		},
		{
			"buffer":0,
			"byteLength":8,
			"byteOffset":2112
		},
		{
			"buffer":0,
			"byteLength":24,
			"byteOffset":2120
		},
		{
			"buffer":0,
			"byteLength":32,
			"byteOffset":2144
		},
		{
			"buffer":0,
			"byteLength":24,
			"byteOffset":2176
		},
		{
			"buffer":0,
			"byteLength":24,
			"byteOffset":2200
		},
		{
			"buffer":0,
			"byteLength":244,
			"byteOffset":2224
		},
		{
			"buffer":0,
			"byteLength":976,
			"byteOffset":2468
		},
		{
			"buffer":0,
			"byteLength":732,
			"byteOffset":3444
		},
		{
			"buffer":0,
			"byteLength":24,
			"byteOffset":4176
		},
		{
			"buffer":0,
			"byteLength":976,
			"byteOffset":4200
		},
		{
			"buffer":0,
			"byteLength":732,
			"byteOffset":5176
		}
	],
	"samplers":[
		{
			"magFilter":9729,
			"minFilter":9987
		}
	],
	"buffers":[
		{
			"byteLength":5908,
			"uri":"VFX_Support.bin"
		}
	]
}
