{
	"asset":{
		"generator":"Khronos glTF Blender I/O v4.4.56",
		"version":"2.0"
	},
	"scene":0,
	"scenes":[
		{
			"name":"Scene",
			"nodes":[
				3
			]
		}
	],
	"nodes":[
		{
			"name":"Palanca",
			"translation":[
				0,
				0.2746829092502594,
				0
			]
		},
		{
			"children":[
				0
			],
			"name":"Root"
		},
		{
			"mesh":0,
			"name":"base.001",
			"skin":0
		},
		{
			"children":[
				2,
				1
			],
			"name":"Armature"
		}
	],
	"animations":[
		{
			"channels":[
				{
					"sampler":0,
					"target":{
						"node":1,
						"path":"translation"
					}
				},
				{
					"sampler":1,
					"target":{
						"node":1,
						"path":"rotation"
					}
				},
				{
					"sampler":2,
					"target":{
						"node":1,
						"path":"scale"
					}
				},
				{
					"sampler":3,
					"target":{
						"node":0,
						"path":"translation"
					}
				},
				{
					"sampler":4,
					"target":{
						"node":0,
						"path":"rotation"
					}
				},
				{
					"sampler":5,
					"target":{
						"node":0,
						"path":"scale"
					}
				}
			],
			"name":"AbiertoIdle",
			"samplers":[
				{
					"input":7,
					"interpolation":"STEP",
					"output":8
				},
				{
					"input":7,
					"interpolation":"STEP",
					"output":9
				},
				{
					"input":7,
					"interpolation":"STEP",
					"output":10
				},
				{
					"input":7,
					"interpolation":"STEP",
					"output":11
				},
				{
					"input":7,
					"interpolation":"STEP",
					"output":12
				},
				{
					"input":7,
					"interpolation":"STEP",
					"output":13
				}
			]
		},
		{
			"channels":[
				{
					"sampler":0,
					"target":{
						"node":1,
						"path":"translation"
					}
				},
				{
					"sampler":1,
					"target":{
						"node":1,
						"path":"rotation"
					}
				},
				{
					"sampler":2,
					"target":{
						"node":1,
						"path":"scale"
					}
				},
				{
					"sampler":3,
					"target":{
						"node":0,
						"path":"translation"
					}
				},
				{
					"sampler":4,
					"target":{
						"node":0,
						"path":"rotation"
					}
				},
				{
					"sampler":5,
					"target":{
						"node":0,
						"path":"scale"
					}
				}
			],
			"name":"CerradoIdle",
			"samplers":[
				{
					"input":7,
					"interpolation":"STEP",
					"output":14
				},
				{
					"input":7,
					"interpolation":"STEP",
					"output":15
				},
				{
					"input":7,
					"interpolation":"STEP",
					"output":16
				},
				{
					"input":7,
					"interpolation":"STEP",
					"output":17
				},
				{
					"input":7,
					"interpolation":"STEP",
					"output":18
				},
				{
					"input":7,
					"interpolation":"STEP",
					"output":19
				}
			]
		},
		{
			"channels":[
				{
					"sampler":0,
					"target":{
						"node":1,
						"path":"translation"
					}
				},
				{
					"sampler":1,
					"target":{
						"node":1,
						"path":"rotation"
					}
				},
				{
					"sampler":2,
					"target":{
						"node":1,
						"path":"scale"
					}
				},
				{
					"sampler":3,
					"target":{
						"node":0,
						"path":"translation"
					}
				},
				{
					"sampler":4,
					"target":{
						"node":0,
						"path":"rotation"
					}
				},
				{
					"sampler":5,
					"target":{
						"node":0,
						"path":"scale"
					}
				}
			],
			"name":"Transition",
			"samplers":[
				{
					"input":20,
					"interpolation":"STEP",
					"output":21
				},
				{
					"input":20,
					"interpolation":"STEP",
					"output":22
				},
				{
					"input":20,
					"interpolation":"STEP",
					"output":23
				},
				{
					"input":20,
					"interpolation":"STEP",
					"output":24
				},
				{
					"input":25,
					"interpolation":"LINEAR",
					"output":26
				},
				{
					"input":20,
					"interpolation":"STEP",
					"output":27
				}
			]
		}
	],
	"materials":[
		{
			"doubleSided":true,
			"name":"Palanca.001",
			"normalTexture":{
				"index":0
			},
			"pbrMetallicRoughness":{
				"baseColorTexture":{
					"index":1
				},
				"metallicRoughnessTexture":{
					"index":2
				}
			}
		}
	],
	"meshes":[
		{
			"name":"Cylinder.001",
			"primitives":[
				{
					"attributes":{
						"POSITION":0,
						"NORMAL":1,
						"TEXCOORD_0":2,
						"JOINTS_0":3,
						"WEIGHTS_0":4
					},
					"indices":5,
					"material":0
				}
			]
		}
	],
	"textures":[
		{
			"sampler":0,
			"source":0
		},
		{
			"sampler":0,
			"source":1
		},
		{
			"sampler":0,
			"source":2
		}
	],
	"images":[
		{
			"mimeType":"image/png",
			"name":"P_Lever_n",
			"uri":"P_Lever_n.png"
		},
		{
			"mimeType":"image/png",
			"name":"P_Lever_bc",
			"uri":"P_Lever_bc.png"
		},
		{
			"mimeType":"image/png",
			"name":"P_Lever_m-P_Lever_r",
			"uri":"P_Lever_m-P_Lever_r.png"
		}
	],
	"skins":[
		{
			"inverseBindMatrices":6,
			"joints":[
				1,
				0
			],
			"name":"Armature"
		}
	],
	"accessors":[
		{
			"bufferView":0,
			"componentType":5126,
			"count":516,
			"max":[
				0.6370824575424194,
				1.594348669052124,
				0.5787045359611511
			],
			"min":[
				-0.6370824575424194,
				-0.004510259721428156,
				-0.5793222188949585
			],
			"type":"VEC3"
		},
		{
			"bufferView":1,
			"componentType":5126,
			"count":516,
			"type":"VEC3"
		},
		{
			"bufferView":2,
			"componentType":5126,
			"count":516,
			"type":"VEC2"
		},
		{
			"bufferView":3,
			"componentType":5121,
			"count":516,
			"type":"VEC4"
		},
		{
			"bufferView":4,
			"componentType":5126,
			"count":516,
			"type":"VEC4"
		},
		{
			"bufferView":5,
			"componentType":5123,
			"count":1689,
			"type":"SCALAR"
		},
		{
			"bufferView":6,
			"componentType":5126,
			"count":2,
			"type":"MAT4"
		},
		{
			"bufferView":7,
			"componentType":5126,
			"count":2,
			"max":[
				0.03333333333333333
			],
			"min":[
				0
			],
			"type":"SCALAR"
		},
		{
			"bufferView":8,
			"componentType":5126,
			"count":2,
			"type":"VEC3"
		},
		{
			"bufferView":9,
			"componentType":5126,
			"count":2,
			"type":"VEC4"
		},
		{
			"bufferView":10,
			"componentType":5126,
			"count":2,
			"type":"VEC3"
		},
		{
			"bufferView":11,
			"componentType":5126,
			"count":2,
			"type":"VEC3"
		},
		{
			"bufferView":12,
			"componentType":5126,
			"count":2,
			"type":"VEC4"
		},
		{
			"bufferView":13,
			"componentType":5126,
			"count":2,
			"type":"VEC3"
		},
		{
			"bufferView":14,
			"componentType":5126,
			"count":2,
			"type":"VEC3"
		},
		{
			"bufferView":15,
			"componentType":5126,
			"count":2,
			"type":"VEC4"
		},
		{
			"bufferView":16,
			"componentType":5126,
			"count":2,
			"type":"VEC3"
		},
		{
			"bufferView":17,
			"componentType":5126,
			"count":2,
			"type":"VEC3"
		},
		{
			"bufferView":18,
			"componentType":5126,
			"count":2,
			"type":"VEC4"
		},
		{
			"bufferView":19,
			"componentType":5126,
			"count":2,
			"type":"VEC3"
		},
		{
			"bufferView":20,
			"componentType":5126,
			"count":2,
			"max":[
				0.65
			],
			"min":[
				0
			],
			"type":"SCALAR"
		},
		{
			"bufferView":21,
			"componentType":5126,
			"count":2,
			"type":"VEC3"
		},
		{
			"bufferView":22,
			"componentType":5126,
			"count":2,
			"type":"VEC4"
		},
		{
			"bufferView":23,
			"componentType":5126,
			"count":2,
			"type":"VEC3"
		},
		{
			"bufferView":24,
			"componentType":5126,
			"count":2,
			"type":"VEC3"
		},
		{
			"bufferView":25,
			"componentType":5126,
			"count":40,
			"max":[
				0.65
			],
			"min":[
				0
			],
			"type":"SCALAR"
		},
		{
			"bufferView":26,
			"componentType":5126,
			"count":40,
			"type":"VEC4"
		},
		{
			"bufferView":27,
			"componentType":5126,
			"count":2,
			"type":"VEC3"
		}
	],
	"bufferViews":[
		{
			"buffer":0,
			"byteLength":6192,
			"byteOffset":0,
			"target":34962
		},
		{
			"buffer":0,
			"byteLength":6192,
			"byteOffset":6192,
			"target":34962
		},
		{
			"buffer":0,
			"byteLength":4128,
			"byteOffset":12384,
			"target":34962
		},
		{
			"buffer":0,
			"byteLength":2064,
			"byteOffset":16512,
			"target":34962
		},
		{
			"buffer":0,
			"byteLength":8256,
			"byteOffset":18576,
			"target":34962
		},
		{
			"buffer":0,
			"byteLength":3378,
			"byteOffset":26832,
			"target":34963
		},
		{
			"buffer":0,
			"byteLength":128,
			"byteOffset":30212
		},
		{
			"buffer":0,
			"byteLength":8,
			"byteOffset":30340
		},
		{
			"buffer":0,
			"byteLength":24,
			"byteOffset":30348
		},
		{
			"buffer":0,
			"byteLength":32,
			"byteOffset":30372
		},
		{
			"buffer":0,
			"byteLength":24,
			"byteOffset":30404
		},
		{
			"buffer":0,
			"byteLength":24,
			"byteOffset":30428
		},
		{
			"buffer":0,
			"byteLength":32,
			"byteOffset":30452
		},
		{
			"buffer":0,
			"byteLength":24,
			"byteOffset":30484
		},
		{
			"buffer":0,
			"byteLength":24,
			"byteOffset":30508
		},
		{
			"buffer":0,
			"byteLength":32,
			"byteOffset":30532
		},
		{
			"buffer":0,
			"byteLength":24,
			"byteOffset":30564
		},
		{
			"buffer":0,
			"byteLength":24,
			"byteOffset":30588
		},
		{
			"buffer":0,
			"byteLength":32,
			"byteOffset":30612
		},
		{
			"buffer":0,
			"byteLength":24,
			"byteOffset":30644
		},
		{
			"buffer":0,
			"byteLength":8,
			"byteOffset":30668
		},
		{
			"buffer":0,
			"byteLength":24,
			"byteOffset":30676
		},
		{
			"buffer":0,
			"byteLength":32,
			"byteOffset":30700
		},
		{
			"buffer":0,
			"byteLength":24,
			"byteOffset":30732
		},
		{
			"buffer":0,
			"byteLength":24,
			"byteOffset":30756
		},
		{
			"buffer":0,
			"byteLength":160,
			"byteOffset":30780
		},
		{
			"buffer":0,
			"byteLength":640,
			"byteOffset":30940
		},
		{
			"buffer":0,
			"byteLength":24,
			"byteOffset":31580
		}
	],
	"samplers":[
		{
			"magFilter":9729,
			"minFilter":9987
		}
	],
	"buffers":[
		{
			"byteLength":31604,
			"uri":"lever.bin"
		}
	]
}
