{
	"asset":{
		"generator":"Khronos glTF Blender I/O v4.4.55",
		"version":"2.0"
	},
	"scene":0,
	"scenes":[
		{
			"name":"Scene",
			"nodes":[
				0
			]
		}
	],
	"nodes":[
		{
			"mesh":0,
			"name":"Column_v1",
			"rotation":[
				0,
				0.9322925209999084,
				0,
				0.3617052137851715
			],
			"scale":[
				0.7990052700042725,
				0.7990050911903381,
				0.7990052700042725
			]
		}
	],
	"materials":[
		{
			"doubleSided":true,
			"name":"Columna_MAT.003",
			"normalTexture":{
				"index":0
			},
			"pbrMetallicRoughness":{
				"baseColorTexture":{
					"index":1
				},
				"metallicRoughnessTexture":{
					"index":2
				}
			}
		}
	],
	"meshes":[
		{
			"name":"Cylinder.001",
			"primitives":[
				{
					"attributes":{
						"POSITION":0,
						"NORMAL":1,
						"TEXCOORD_0":2
					},
					"indices":3,
					"material":0
				}
			]
		}
	],
	"textures":[
		{
			"sampler":0,
			"source":0
		},
		{
			"sampler":0,
			"source":1
		},
		{
			"sampler":0,
			"source":2
		}
	],
	"images":[
		{
			"mimeType":"image/png",
			"name":"Trimsheet_low_DefaultMaterial_Normal",
			"uri":"Trimsheet_low_DefaultMaterial_Normal.png"
		},
		{
			"mimeType":"image/png",
			"name":"Trimsheet_low_DefaultMaterial_BaseColor",
			"uri":"Trimsheet_low_DefaultMaterial_BaseColor.png"
		},
		{
			"mimeType":"image/png",
			"name":"Trimsheet_low_DefaultMaterial_Metallic_png-Trimsheet_low_DefaultMaterial_Roughness_png",
			"uri":"Trimsheet_low_DefaultMaterial_Metallic_png-Trimsheet_low_DefaultMaterial_Roughness_png.png"
		}
	],
	"accessors":[
		{
			"bufferView":0,
			"componentType":5126,
			"count":529,
			"max":[
				1.473663330078125,
				5,
				1.473663330078125
			],
			"min":[
				-1.473663330078125,
				4.9297327109343314e-08,
				-1.473663330078125
			],
			"type":"VEC3"
		},
		{
			"bufferView":1,
			"componentType":5126,
			"count":529,
			"type":"VEC3"
		},
		{
			"bufferView":2,
			"componentType":5126,
			"count":529,
			"type":"VEC2"
		},
		{
			"bufferView":3,
			"componentType":5123,
			"count":1632,
			"type":"SCALAR"
		}
	],
	"bufferViews":[
		{
			"buffer":0,
			"byteLength":6348,
			"byteOffset":0,
			"target":34962
		},
		{
			"buffer":0,
			"byteLength":6348,
			"byteOffset":6348,
			"target":34962
		},
		{
			"buffer":0,
			"byteLength":4232,
			"byteOffset":12696,
			"target":34962
		},
		{
			"buffer":0,
			"byteLength":3264,
			"byteOffset":16928,
			"target":34963
		}
	],
	"samplers":[
		{
			"magFilter":9729,
			"minFilter":9987
		}
	],
	"buffers":[
		{
			"byteLength":20192,
			"uri":"Columna_v1.bin"
		}
	]
}
