{
	"asset":{
		"generator":"Khronos glTF Blender I/O v4.4.55",
		"version":"2.0"
	},
	"scene":0,
	"scenes":[
		{
			"name":"Scene",
			"nodes":[
				0,
				1,
				2,
				3,
				4,
				5,
				6,
				7,
				8,
				9,
				10,
				11,
				12,
				13,
				14,
				15,
				16
			]
		}
	],
	"nodes":[
		{
			"mesh":0,
			"name":"Column_v1_cell",
			"translation":[
				0.8089699745178223,
				0.10866820812225342,
				0.555627703666687
			]
		},
		{
			"mesh":1,
			"name":"Column_v1_cell.001",
			"translation":[
				0.5819194316864014,
				0.3567620813846588,
				-0.5567894577980042
			]
		},
		{
			"mesh":2,
			"name":"Column_v1_cell.002",
			"translation":[
				0.5396031737327576,
				1.87450110912323,
				0.3610035479068756
			]
		},
		{
			"mesh":3,
			"name":"Column_v1_cell.003",
			"translation":[
				-0.637543797492981,
				0.12120175361633301,
				0.8858314752578735
			]
		},
		{
			"mesh":4,
			"name":"Column_v1_cell.004",
			"translation":[
				-0.3300328850746155,
				2.1356494426727295,
				0.4108923077583313
			]
		},
		{
			"mesh":5,
			"name":"Column_v1_cell.005",
			"translation":[
				0.12026560306549072,
				3.6915600299835205,
				0.4020307958126068
			]
		},
		{
			"mesh":6,
			"name":"Column_v1_cell.006",
			"translation":[
				0.7193769216537476,
				0.3525182902812958,
				0.5855863094329834
			]
		},
		{
			"mesh":7,
			"name":"Column_v1_cell.007",
			"translation":[
				-0.47155576944351196,
				3.470524311065674,
				-0.10426527261734009
			]
		},
		{
			"mesh":8,
			"name":"Column_v1_cell.008",
			"translation":[
				-0.19859790802001953,
				0.6184242963790894,
				-0.6916532516479492
			]
		},
		{
			"mesh":9,
			"name":"Column_v1_cell.009",
			"translation":[
				0.7139272093772888,
				0.3131774067878723,
				-0.07401563227176666
			]
		},
		{
			"mesh":10,
			"name":"Column_v1_cell.011",
			"translation":[
				-0.9074603319168091,
				0.1416630744934082,
				-0.640476644039154
			]
		},
		{
			"mesh":11,
			"name":"Column_v1_cell.012",
			"translation":[
				-0.03226810693740845,
				2.991032123565674,
				0.7567459344863892
			]
		},
		{
			"mesh":12,
			"name":"Column_v1_cell.013",
			"translation":[
				0.9225835204124451,
				0.26234620809555054,
				0.411693274974823
			]
		},
		{
			"mesh":13,
			"name":"Column_v1_cell.014",
			"translation":[
				0.6339974403381348,
				3.9354822635650635,
				-0.39614200592041016
			]
		},
		{
			"mesh":14,
			"name":"Column_v1_cell.015",
			"translation":[
				-0.7079514265060425,
				0.3753979504108429,
				-0.0487779825925827
			]
		},
		{
			"mesh":15,
			"name":"Column_v1_cell.016",
			"translation":[
				0.21779221296310425,
				2.6739768981933594,
				-0.3248368501663208
			]
		},
		{
			"mesh":16,
			"name":"Column_v1_cell.017",
			"translation":[
				0.1752919703722,
				0.5241818428039551,
				0.6076568961143494
			]
		}
	],
	"materials":[
		{
			"doubleSided":true,
			"name":"Columna_MAT.003",
			"normalTexture":{
				"index":0
			},
			"pbrMetallicRoughness":{
				"baseColorTexture":{
					"index":1
				},
				"metallicRoughnessTexture":{
					"index":2
				}
			}
		}
	],
	"meshes":[
		{
			"name":"Column_v1_cell.018",
			"primitives":[
				{
					"attributes":{
						"POSITION":0,
						"NORMAL":1,
						"TEXCOORD_0":2
					},
					"indices":3,
					"material":0
				}
			]
		},
		{
			"name":"Column_v1_cell.019",
			"primitives":[
				{
					"attributes":{
						"POSITION":4,
						"NORMAL":5,
						"TEXCOORD_0":6
					},
					"indices":7,
					"material":0
				}
			]
		},
		{
			"name":"Column_v1_cell.001",
			"primitives":[
				{
					"attributes":{
						"POSITION":8,
						"NORMAL":9,
						"TEXCOORD_0":10
					},
					"indices":11,
					"material":0
				}
			]
		},
		{
			"name":"Column_v1_cell.002",
			"primitives":[
				{
					"attributes":{
						"POSITION":12,
						"NORMAL":13,
						"TEXCOORD_0":14
					},
					"indices":15,
					"material":0
				}
			]
		},
		{
			"name":"Column_v1_cell.003",
			"primitives":[
				{
					"attributes":{
						"POSITION":16,
						"NORMAL":17,
						"TEXCOORD_0":18
					},
					"indices":19,
					"material":0
				}
			]
		},
		{
			"name":"Column_v1_cell.004",
			"primitives":[
				{
					"attributes":{
						"POSITION":20,
						"NORMAL":21,
						"TEXCOORD_0":22
					},
					"indices":23,
					"material":0
				}
			]
		},
		{
			"name":"Column_v1_cell.005",
			"primitives":[
				{
					"attributes":{
						"POSITION":24,
						"NORMAL":25,
						"TEXCOORD_0":26
					},
					"indices":27,
					"material":0
				}
			]
		},
		{
			"name":"Column_v1_cell.006",
			"primitives":[
				{
					"attributes":{
						"POSITION":28,
						"NORMAL":29,
						"TEXCOORD_0":30
					},
					"indices":31,
					"material":0
				}
			]
		},
		{
			"name":"Column_v1_cell.007",
			"primitives":[
				{
					"attributes":{
						"POSITION":32,
						"NORMAL":33,
						"TEXCOORD_0":34
					},
					"indices":35,
					"material":0
				}
			]
		},
		{
			"name":"Column_v1_cell.008",
			"primitives":[
				{
					"attributes":{
						"POSITION":36,
						"NORMAL":37,
						"TEXCOORD_0":38
					},
					"indices":39,
					"material":0
				}
			]
		},
		{
			"name":"Column_v1_cell.009",
			"primitives":[
				{
					"attributes":{
						"POSITION":40,
						"NORMAL":41,
						"TEXCOORD_0":42
					},
					"indices":43,
					"material":0
				}
			]
		},
		{
			"name":"Column_v1_cell.010",
			"primitives":[
				{
					"attributes":{
						"POSITION":44,
						"NORMAL":45,
						"TEXCOORD_0":46
					},
					"indices":47,
					"material":0
				}
			]
		},
		{
			"name":"Column_v1_cell.011",
			"primitives":[
				{
					"attributes":{
						"POSITION":48,
						"NORMAL":49,
						"TEXCOORD_0":50
					},
					"indices":51,
					"material":0
				}
			]
		},
		{
			"name":"Column_v1_cell.012",
			"primitives":[
				{
					"attributes":{
						"POSITION":52,
						"NORMAL":53,
						"TEXCOORD_0":54
					},
					"indices":55,
					"material":0
				}
			]
		},
		{
			"name":"Column_v1_cell.013",
			"primitives":[
				{
					"attributes":{
						"POSITION":56,
						"NORMAL":57,
						"TEXCOORD_0":58
					},
					"indices":59,
					"material":0
				}
			]
		},
		{
			"name":"Column_v1_cell.014",
			"primitives":[
				{
					"attributes":{
						"POSITION":60,
						"NORMAL":61,
						"TEXCOORD_0":62
					},
					"indices":63,
					"material":0
				}
			]
		},
		{
			"name":"Column_v1_cell.015",
			"primitives":[
				{
					"attributes":{
						"POSITION":64,
						"NORMAL":65,
						"TEXCOORD_0":66
					},
					"indices":67,
					"material":0
				}
			]
		}
	],
	"textures":[
		{
			"sampler":0,
			"source":0
		},
		{
			"sampler":0,
			"source":1
		},
		{
			"sampler":0,
			"source":2
		}
	],
	"images":[
		{
			"mimeType":"image/png",
			"name":"Trimsheet_low_DefaultMaterial_Normal",
			"uri":"Trimsheet_low_DefaultMaterial_Normal.png"
		},
		{
			"mimeType":"image/png",
			"name":"Trimsheet_low_DefaultMaterial_BaseColor",
			"uri":"Trimsheet_low_DefaultMaterial_BaseColor.png"
		},
		{
			"mimeType":"image/png",
			"name":"Trimsheet_low_DefaultMaterial_Metallic",
			"uri":"Trimsheet_low_DefaultMaterial_Metallic.png"
		}
	],
	"accessors":[
		{
			"bufferView":0,
			"componentType":5126,
			"count":68,
			"max":[
				0.3479352295398712,
				0.1704038381576538,
				0.5448910593986511
			],
			"min":[
				-0.44831815361976624,
				-0.10866817831993103,
				-0.4817461669445038
			],
			"type":"VEC3"
		},
		{
			"bufferView":1,
			"componentType":5126,
			"count":68,
			"type":"VEC3"
		},
		{
			"bufferView":2,
			"componentType":5126,
			"count":68,
			"type":"VEC2"
		},
		{
			"bufferView":3,
			"componentType":5123,
			"count":126,
			"type":"SCALAR"
		},
		{
			"bufferView":4,
			"componentType":5126,
			"count":177,
			"max":[
				0.5943424701690674,
				0.6074559688568115,
				0.5697970390319824
			],
			"min":[
				-0.7604639530181885,
				-0.3567620515823364,
				-0.6194724440574646
			],
			"type":"VEC3"
		},
		{
			"bufferView":5,
			"componentType":5126,
			"count":177,
			"type":"VEC3"
		},
		{
			"bufferView":6,
			"componentType":5126,
			"count":177,
			"type":"VEC2"
		},
		{
			"bufferView":7,
			"componentType":5123,
			"count":432,
			"type":"SCALAR"
		},
		{
			"bufferView":8,
			"componentType":5126,
			"count":99,
			"max":[
				0.26364725828170776,
				0.631301760673523,
				0.4189288914203644
			],
			"min":[
				-0.43423670530319214,
				-1.0240696668624878,
				-0.7752747535705566
			],
			"type":"VEC3"
		},
		{
			"bufferView":9,
			"componentType":5126,
			"count":99,
			"type":"VEC3"
		},
		{
			"bufferView":10,
			"componentType":5126,
			"count":99,
			"type":"VEC2"
		},
		{
			"bufferView":11,
			"componentType":5123,
			"count":204,
			"type":"SCALAR"
		},
		{
			"bufferView":12,
			"componentType":5126,
			"count":37,
			"max":[
				0.242911696434021,
				0.14018046855926514,
				0.22222162783145905
			],
			"min":[
				-0.3198162019252777,
				-0.12120169401168823,
				-0.23836562037467957
			],
			"type":"VEC3"
		},
		{
			"bufferView":13,
			"componentType":5126,
			"count":37,
			"type":"VEC3"
		},
		{
			"bufferView":14,
			"componentType":5126,
			"count":37,
			"type":"VEC2"
		},
		{
			"bufferView":15,
			"componentType":5123,
			"count":72,
			"type":"SCALAR"
		},
		{
			"bufferView":16,
			"componentType":5126,
			"count":171,
			"max":[
				0.7409276962280273,
				0.8532698154449463,
				0.4362186789512634
			],
			"min":[
				-0.5170779824256897,
				-1.1791198253631592,
				-0.8006716966629028
			],
			"type":"VEC3"
		},
		{
			"bufferView":17,
			"componentType":5126,
			"count":171,
			"type":"VEC3"
		},
		{
			"bufferView":18,
			"componentType":5126,
			"count":171,
			"type":"VEC2"
		},
		{
			"bufferView":19,
			"componentType":5123,
			"count":372,
			"type":"SCALAR"
		},
		{
			"bufferView":20,
			"componentType":5126,
			"count":135,
			"max":[
				0.712224006652832,
				0.3034653663635254,
				0.4304570257663727
			],
			"min":[
				-0.945296585559845,
				-0.7090256214141846,
				-1.1716197729110718
			],
			"type":"VEC3"
		},
		{
			"bufferView":21,
			"componentType":5126,
			"count":135,
			"type":"VEC3"
		},
		{
			"bufferView":22,
			"componentType":5126,
			"count":135,
			"type":"VEC2"
		},
		{
			"bufferView":23,
			"componentType":5123,
			"count":300,
			"type":"SCALAR"
		},
		{
			"bufferView":24,
			"componentType":5126,
			"count":102,
			"max":[
				0.22512179613113403,
				0.26763543486595154,
				0.48817506432533264
			],
			"min":[
				-0.2501165568828583,
				-0.2653614580631256,
				-0.6073302030563354
			],
			"type":"VEC3"
		},
		{
			"bufferView":25,
			"componentType":5126,
			"count":102,
			"type":"VEC3"
		},
		{
			"bufferView":26,
			"componentType":5126,
			"count":102,
			"type":"VEC2"
		},
		{
			"bufferView":27,
			"componentType":5123,
			"count":234,
			"type":"SCALAR"
		},
		{
			"bufferView":28,
			"componentType":5126,
			"count":99,
			"max":[
				0.474342405796051,
				0.5245010852813721,
				0.8490514159202576
			],
			"min":[
				-0.36093205213546753,
				-1.099031925201416,
				-0.7282244563102722
			],
			"type":"VEC3"
		},
		{
			"bufferView":29,
			"componentType":5126,
			"count":99,
			"type":"VEC3"
		},
		{
			"bufferView":30,
			"componentType":5126,
			"count":99,
			"type":"VEC2"
		},
		{
			"bufferView":31,
			"componentType":5123,
			"count":216,
			"type":"SCALAR"
		},
		{
			"bufferView":32,
			"componentType":5126,
			"count":225,
			"max":[
				0.8708052635192871,
				1.3310173749923706,
				1.014176845550537
			],
			"min":[
				-0.5838152170181274,
				-0.6184242367744446,
				-0.47233015298843384
			],
			"type":"VEC3"
		},
		{
			"bufferView":33,
			"componentType":5126,
			"count":225,
			"type":"VEC3"
		},
		{
			"bufferView":34,
			"componentType":5126,
			"count":225,
			"type":"VEC2"
		},
		{
			"bufferView":35,
			"componentType":5123,
			"count":498,
			"type":"SCALAR"
		},
		{
			"bufferView":36,
			"componentType":5126,
			"count":132,
			"max":[
				0.4595784842967987,
				0.3362271785736084,
				0.5464454293251038
			],
			"min":[
				-0.8772609829902649,
				-0.3131773769855499,
				-0.9903338551521301
			],
			"type":"VEC3"
		},
		{
			"bufferView":37,
			"componentType":5126,
			"count":132,
			"type":"VEC3"
		},
		{
			"bufferView":38,
			"componentType":5126,
			"count":132,
			"type":"VEC2"
		},
		{
			"bufferView":39,
			"componentType":5123,
			"count":246,
			"type":"SCALAR"
		},
		{
			"bufferView":40,
			"componentType":5126,
			"count":30,
			"max":[
				0.22565418481826782,
				0.11971914768218994,
				0.2916446328163147
			],
			"min":[
				-0.20756834745407104,
				-0.14166301488876343,
				-0.2916208803653717
			],
			"type":"VEC3"
		},
		{
			"bufferView":41,
			"componentType":5126,
			"count":30,
			"type":"VEC3"
		},
		{
			"bufferView":42,
			"componentType":5126,
			"count":30,
			"type":"VEC2"
		},
		{
			"bufferView":43,
			"componentType":5123,
			"count":60,
			"type":"SCALAR"
		},
		{
			"bufferView":44,
			"componentType":5126,
			"count":21,
			"max":[
				0.13355904817581177,
				0.0997878760099411,
				0.025667190551757812
			],
			"min":[
				-0.1949855089187622,
				-0.08653309941291809,
				-0.05156862735748291
			],
			"type":"VEC3"
		},
		{
			"bufferView":45,
			"componentType":5126,
			"count":21,
			"type":"VEC3"
		},
		{
			"bufferView":46,
			"componentType":5126,
			"count":21,
			"type":"VEC2"
		},
		{
			"bufferView":47,
			"componentType":5123,
			"count":30,
			"type":"SCALAR"
		},
		{
			"bufferView":48,
			"componentType":5126,
			"count":59,
			"max":[
				0.17505767941474915,
				0.19695080816745758,
				0.43269169330596924
			],
			"min":[
				-0.14267104864120483,
				-0.1426050215959549,
				-0.3324313759803772
			],
			"type":"VEC3"
		},
		{
			"bufferView":49,
			"componentType":5126,
			"count":59,
			"type":"VEC3"
		},
		{
			"bufferView":50,
			"componentType":5126,
			"count":59,
			"type":"VEC2"
		},
		{
			"bufferView":51,
			"componentType":5123,
			"count":114,
			"type":"SCALAR"
		},
		{
			"bufferView":52,
			"componentType":5126,
			"count":44,
			"max":[
				0.19794923067092896,
				0.059543073177337646,
				0.35627853870391846
			],
			"min":[
				-0.31760847568511963,
				-0.0638655424118042,
				-0.36767706274986267
			],
			"type":"VEC3"
		},
		{
			"bufferView":53,
			"componentType":5126,
			"count":44,
			"type":"VEC3"
		},
		{
			"bufferView":54,
			"componentType":5126,
			"count":44,
			"type":"VEC2"
		},
		{
			"bufferView":55,
			"componentType":5123,
			"count":84,
			"type":"SCALAR"
		},
		{
			"bufferView":56,
			"componentType":5126,
			"count":194,
			"max":[
				0.9175742864608765,
				0.6918261051177979,
				0.9255661368370056
			],
			"min":[
				-0.46831047534942627,
				-0.3753979206085205,
				-1.071241021156311
			],
			"type":"VEC3"
		},
		{
			"bufferView":57,
			"componentType":5126,
			"count":194,
			"type":"VEC3"
		},
		{
			"bufferView":58,
			"componentType":5126,
			"count":194,
			"type":"VEC2"
		},
		{
			"bufferView":59,
			"componentType":5123,
			"count":480,
			"type":"SCALAR"
		},
		{
			"bufferView":60,
			"componentType":5126,
			"count":229,
			"max":[
				0.6293169856071472,
				1.3210484981536865,
				1.076948642730713
			],
			"min":[
				-1.0087677240371704,
				-1.4604679346084595,
				-0.5222722291946411
			],
			"type":"VEC3"
		},
		{
			"bufferView":61,
			"componentType":5126,
			"count":229,
			"type":"VEC3"
		},
		{
			"bufferView":62,
			"componentType":5126,
			"count":229,
			"type":"VEC2"
		},
		{
			"bufferView":63,
			"componentType":5123,
			"count":528,
			"type":"SCALAR"
		},
		{
			"bufferView":64,
			"componentType":5126,
			"count":228,
			"max":[
				0.6635637879371643,
				0.9044169783592224,
				0.5686050057411194
			],
			"min":[
				-0.7698559165000916,
				-0.5241817831993103,
				-1.0029351711273193
			],
			"type":"VEC3"
		},
		{
			"bufferView":65,
			"componentType":5126,
			"count":228,
			"type":"VEC3"
		},
		{
			"bufferView":66,
			"componentType":5126,
			"count":228,
			"type":"VEC2"
		},
		{
			"bufferView":67,
			"componentType":5123,
			"count":528,
			"type":"SCALAR"
		}
	],
	"bufferViews":[
		{
			"buffer":0,
			"byteLength":816,
			"byteOffset":0,
			"target":34962
		},
		{
			"buffer":0,
			"byteLength":816,
			"byteOffset":816,
			"target":34962
		},
		{
			"buffer":0,
			"byteLength":544,
			"byteOffset":1632,
			"target":34962
		},
		{
			"buffer":0,
			"byteLength":252,
			"byteOffset":2176,
			"target":34963
		},
		{
			"buffer":0,
			"byteLength":2124,
			"byteOffset":2428,
			"target":34962
		},
		{
			"buffer":0,
			"byteLength":2124,
			"byteOffset":4552,
			"target":34962
		},
		{
			"buffer":0,
			"byteLength":1416,
			"byteOffset":6676,
			"target":34962
		},
		{
			"buffer":0,
			"byteLength":864,
			"byteOffset":8092,
			"target":34963
		},
		{
			"buffer":0,
			"byteLength":1188,
			"byteOffset":8956,
			"target":34962
		},
		{
			"buffer":0,
			"byteLength":1188,
			"byteOffset":10144,
			"target":34962
		},
		{
			"buffer":0,
			"byteLength":792,
			"byteOffset":11332,
			"target":34962
		},
		{
			"buffer":0,
			"byteLength":408,
			"byteOffset":12124,
			"target":34963
		},
		{
			"buffer":0,
			"byteLength":444,
			"byteOffset":12532,
			"target":34962
		},
		{
			"buffer":0,
			"byteLength":444,
			"byteOffset":12976,
			"target":34962
		},
		{
			"buffer":0,
			"byteLength":296,
			"byteOffset":13420,
			"target":34962
		},
		{
			"buffer":0,
			"byteLength":144,
			"byteOffset":13716,
			"target":34963
		},
		{
			"buffer":0,
			"byteLength":2052,
			"byteOffset":13860,
			"target":34962
		},
		{
			"buffer":0,
			"byteLength":2052,
			"byteOffset":15912,
			"target":34962
		},
		{
			"buffer":0,
			"byteLength":1368,
			"byteOffset":17964,
			"target":34962
		},
		{
			"buffer":0,
			"byteLength":744,
			"byteOffset":19332,
			"target":34963
		},
		{
			"buffer":0,
			"byteLength":1620,
			"byteOffset":20076,
			"target":34962
		},
		{
			"buffer":0,
			"byteLength":1620,
			"byteOffset":21696,
			"target":34962
		},
		{
			"buffer":0,
			"byteLength":1080,
			"byteOffset":23316,
			"target":34962
		},
		{
			"buffer":0,
			"byteLength":600,
			"byteOffset":24396,
			"target":34963
		},
		{
			"buffer":0,
			"byteLength":1224,
			"byteOffset":24996,
			"target":34962
		},
		{
			"buffer":0,
			"byteLength":1224,
			"byteOffset":26220,
			"target":34962
		},
		{
			"buffer":0,
			"byteLength":816,
			"byteOffset":27444,
			"target":34962
		},
		{
			"buffer":0,
			"byteLength":468,
			"byteOffset":28260,
			"target":34963
		},
		{
			"buffer":0,
			"byteLength":1188,
			"byteOffset":28728,
			"target":34962
		},
		{
			"buffer":0,
			"byteLength":1188,
			"byteOffset":29916,
			"target":34962
		},
		{
			"buffer":0,
			"byteLength":792,
			"byteOffset":31104,
			"target":34962
		},
		{
			"buffer":0,
			"byteLength":432,
			"byteOffset":31896,
			"target":34963
		},
		{
			"buffer":0,
			"byteLength":2700,
			"byteOffset":32328,
			"target":34962
		},
		{
			"buffer":0,
			"byteLength":2700,
			"byteOffset":35028,
			"target":34962
		},
		{
			"buffer":0,
			"byteLength":1800,
			"byteOffset":37728,
			"target":34962
		},
		{
			"buffer":0,
			"byteLength":996,
			"byteOffset":39528,
			"target":34963
		},
		{
			"buffer":0,
			"byteLength":1584,
			"byteOffset":40524,
			"target":34962
		},
		{
			"buffer":0,
			"byteLength":1584,
			"byteOffset":42108,
			"target":34962
		},
		{
			"buffer":0,
			"byteLength":1056,
			"byteOffset":43692,
			"target":34962
		},
		{
			"buffer":0,
			"byteLength":492,
			"byteOffset":44748,
			"target":34963
		},
		{
			"buffer":0,
			"byteLength":360,
			"byteOffset":45240,
			"target":34962
		},
		{
			"buffer":0,
			"byteLength":360,
			"byteOffset":45600,
			"target":34962
		},
		{
			"buffer":0,
			"byteLength":240,
			"byteOffset":45960,
			"target":34962
		},
		{
			"buffer":0,
			"byteLength":120,
			"byteOffset":46200,
			"target":34963
		},
		{
			"buffer":0,
			"byteLength":252,
			"byteOffset":46320,
			"target":34962
		},
		{
			"buffer":0,
			"byteLength":252,
			"byteOffset":46572,
			"target":34962
		},
		{
			"buffer":0,
			"byteLength":168,
			"byteOffset":46824,
			"target":34962
		},
		{
			"buffer":0,
			"byteLength":60,
			"byteOffset":46992,
			"target":34963
		},
		{
			"buffer":0,
			"byteLength":708,
			"byteOffset":47052,
			"target":34962
		},
		{
			"buffer":0,
			"byteLength":708,
			"byteOffset":47760,
			"target":34962
		},
		{
			"buffer":0,
			"byteLength":472,
			"byteOffset":48468,
			"target":34962
		},
		{
			"buffer":0,
			"byteLength":228,
			"byteOffset":48940,
			"target":34963
		},
		{
			"buffer":0,
			"byteLength":528,
			"byteOffset":49168,
			"target":34962
		},
		{
			"buffer":0,
			"byteLength":528,
			"byteOffset":49696,
			"target":34962
		},
		{
			"buffer":0,
			"byteLength":352,
			"byteOffset":50224,
			"target":34962
		},
		{
			"buffer":0,
			"byteLength":168,
			"byteOffset":50576,
			"target":34963
		},
		{
			"buffer":0,
			"byteLength":2328,
			"byteOffset":50744,
			"target":34962
		},
		{
			"buffer":0,
			"byteLength":2328,
			"byteOffset":53072,
			"target":34962
		},
		{
			"buffer":0,
			"byteLength":1552,
			"byteOffset":55400,
			"target":34962
		},
		{
			"buffer":0,
			"byteLength":960,
			"byteOffset":56952,
			"target":34963
		},
		{
			"buffer":0,
			"byteLength":2748,
			"byteOffset":57912,
			"target":34962
		},
		{
			"buffer":0,
			"byteLength":2748,
			"byteOffset":60660,
			"target":34962
		},
		{
			"buffer":0,
			"byteLength":1832,
			"byteOffset":63408,
			"target":34962
		},
		{
			"buffer":0,
			"byteLength":1056,
			"byteOffset":65240,
			"target":34963
		},
		{
			"buffer":0,
			"byteLength":2736,
			"byteOffset":66296,
			"target":34962
		},
		{
			"buffer":0,
			"byteLength":2736,
			"byteOffset":69032,
			"target":34962
		},
		{
			"buffer":0,
			"byteLength":1824,
			"byteOffset":71768,
			"target":34962
		},
		{
			"buffer":0,
			"byteLength":1056,
			"byteOffset":73592,
			"target":34963
		}
	],
	"samplers":[
		{
			"magFilter":9729,
			"minFilter":9987
		}
	],
	"buffers":[
		{
			"byteLength":74648,
			"uri":"Columna_v1_rota.bin"
		}
	]
}
