{
	"asset":{
		"generator":"Khronos glTF Blender I/O v4.3.47",
		"version":"2.0"
	},
	"scene":0,
	"scenes":[
		{
			"name":"Scene",
			"nodes":[
				0
			]
		}
	],
	"nodes":[
		{
			"mesh":0,
			"name":"P_Barrel_1"
		}
	],
	"materials":[
		{
			"doubleSided":true,
			"name":"barrelMAT.001",
			"normalTexture":{
				"index":0
			},
			"pbrMetallicRoughness":{
				"baseColorTexture":{
					"index":1
				},
				"metallicRoughnessTexture":{
					"index":2
				}
			}
		}
	],
	"meshes":[
		{
			"name":"Prop_Barrel_v01",
			"primitives":[
				{
					"attributes":{
						"POSITION":0,
						"NORMAL":1,
						"TEXCOORD_0":2
					},
					"indices":3,
					"material":0
				}
			]
		}
	],
	"textures":[
		{
			"sampler":0,
			"source":0
		},
		{
			"sampler":0,
			"source":1
		},
		{
			"sampler":0,
			"source":2
		}
	],
	"images":[
		{
			"mimeType":"image/png",
			"name":"P_Barrel_1_n.png",
			"uri":"P_Barrel_1_n_png.png"
		},
		{
			"mimeType":"image/png",
			"name":"P_Barrel_1_bc.png",
			"uri":"P_Barrel_1_bc_png.png"
		},
		{
			"mimeType":"image/png",
			"name":"P_Barrel_1_m.png-P_Barrel_1_r.png",
			"uri":"P_Barrel_1_m_png-P_Barrel_1_r_png.png"
		}
	],
	"accessors":[
		{
			"bufferView":0,
			"componentType":5126,
			"count":667,
			"max":[
				0.4978336989879608,
				0.9453937411308289,
				0.49265506863594055
			],
			"min":[
				-0.46854284405708313,
				0.0026039108633995056,
				-0.49265530705451965
			],
			"type":"VEC3"
		},
		{
			"bufferView":1,
			"componentType":5126,
			"count":667,
			"type":"VEC3"
		},
		{
			"bufferView":2,
			"componentType":5126,
			"count":667,
			"type":"VEC2"
		},
		{
			"bufferView":3,
			"componentType":5123,
			"count":2190,
			"type":"SCALAR"
		}
	],
	"bufferViews":[
		{
			"buffer":0,
			"byteLength":8004,
			"byteOffset":0,
			"target":34962
		},
		{
			"buffer":0,
			"byteLength":8004,
			"byteOffset":8004,
			"target":34962
		},
		{
			"buffer":0,
			"byteLength":5336,
			"byteOffset":16008,
			"target":34962
		},
		{
			"buffer":0,
			"byteLength":4380,
			"byteOffset":21344,
			"target":34963
		}
	],
	"samplers":[
		{
			"magFilter":9729,
			"minFilter":9987
		}
	],
	"buffers":[
		{
			"byteLength":25724,
			"uri":"P_Barrel_1.bin"
		}
	]
}
