{
	"asset":{
		"generator":"Khronos glTF Blender I/O v4.4.55",
		"version":"2.0"
	},
	"scene":0,
	"scenes":[
		{
			"name":"Scene",
			"nodes":[
				0
			]
		}
	],
	"nodes":[
		{
			"mesh":0,
			"name":"body_low",
			"rotation":[
				0.7071066498756409,
				0,
				0,
				0.70710688829422
			],
			"scale":[
				0.009999999776482582,
				0.009999999776482582,
				0.009999999776482582
			],
			"translation":[
				0,
				0.014126036316156387,
				-0.004136594012379646
			]
		}
	],
	"materials":[
		{
			"doubleSided":true,
			"name":"standardSurface2",
			"normalTexture":{
				"index":0
			},
			"pbrMetallicRoughness":{
				"baseColorTexture":{
					"index":1
				},
				"metallicRoughnessTexture":{
					"index":2
				}
			}
		}
	],
	"meshes":[
		{
			"name":"Mesh.001",
			"primitives":[
				{
					"attributes":{
						"POSITION":0,
						"NORMAL":1,
						"TEXCOORD_0":2
					},
					"indices":3,
					"material":0
				}
			]
		}
	],
	"textures":[
		{
			"sampler":0,
			"source":0
		},
		{
			"sampler":0,
			"source":1
		},
		{
			"sampler":0,
			"source":2
		}
	],
	"images":[
		{
			"mimeType":"image/png",
			"name":"standardSurface2_Normal_OpenGL",
			"uri":"standardSurface2_Normal_OpenGL.png"
		},
		{
			"mimeType":"image/png",
			"name":"standardSurface2_Base_color",
			"uri":"standardSurface2_Base_color.png"
		},
		{
			"mimeType":"image/png",
			"name":"standardSurface2_Metallic-standardSurface2_Roughness",
			"uri":"standardSurface2_Metallic-standardSurface2_Roughness.png"
		}
	],
	"accessors":[
		{
			"bufferView":0,
			"componentType":5126,
			"count":1380,
			"max":[
				146.8466339111328,
				85.5745849609375,
				112.23204040527344
			],
			"min":[
				-130.61099243164062,
				-33.60565948486328,
				-74.41352081298828
			],
			"type":"VEC3"
		},
		{
			"bufferView":1,
			"componentType":5126,
			"count":1380,
			"type":"VEC3"
		},
		{
			"bufferView":2,
			"componentType":5126,
			"count":1380,
			"type":"VEC2"
		},
		{
			"bufferView":3,
			"componentType":5123,
			"count":6042,
			"type":"SCALAR"
		}
	],
	"bufferViews":[
		{
			"buffer":0,
			"byteLength":16560,
			"byteOffset":0,
			"target":34962
		},
		{
			"buffer":0,
			"byteLength":16560,
			"byteOffset":16560,
			"target":34962
		},
		{
			"buffer":0,
			"byteLength":11040,
			"byteOffset":33120,
			"target":34962
		},
		{
			"buffer":0,
			"byteLength":12084,
			"byteOffset":44160,
			"target":34963
		}
	],
	"samplers":[
		{
			"magFilter":9729,
			"minFilter":9987
		}
	],
	"buffers":[
		{
			"byteLength":56244,
			"uri":"Enemies_Support_lowpoly.bin"
		}
	]
}
