{
	"asset":{
		"generator":"Khronos glTF Blender I/O v4.4.56",
		"version":"2.0"
	},
	"scene":0,
	"scenes":[
		{
			"name":"Scene",
			"nodes":[
				9
			]
		}
	],
	"nodes":[
		{
			"name":"humillo"
		},
		{
			"name":"explCil2"
		},
		{
			"name":"explCil1"
		},
		{
			"name":"explCil2.1"
		},
		{
			"name":"aro"
		},
		{
			"name":"Pies"
		},
		{
			"name":"explPlano"
		},
		{
			"children":[
				0,
				1,
				2,
				3,
				4,
				5,
				6
			],
			"name":"Root"
		},
		{
			"mesh":0,
			"name":"VFX_BossSH",
			"skin":0
		},
		{
			"children":[
				8,
				7
			],
			"name":"Armature"
		}
	],
	"animations":[
		{
			"channels":[
				{
					"sampler":0,
					"target":{
						"node":7,
						"path":"translation"
					}
				},
				{
					"sampler":1,
					"target":{
						"node":7,
						"path":"rotation"
					}
				},
				{
					"sampler":2,
					"target":{
						"node":7,
						"path":"scale"
					}
				},
				{
					"sampler":3,
					"target":{
						"node":0,
						"path":"translation"
					}
				},
				{
					"sampler":4,
					"target":{
						"node":0,
						"path":"rotation"
					}
				},
				{
					"sampler":5,
					"target":{
						"node":0,
						"path":"scale"
					}
				},
				{
					"sampler":6,
					"target":{
						"node":1,
						"path":"translation"
					}
				},
				{
					"sampler":7,
					"target":{
						"node":1,
						"path":"rotation"
					}
				},
				{
					"sampler":8,
					"target":{
						"node":1,
						"path":"scale"
					}
				},
				{
					"sampler":9,
					"target":{
						"node":2,
						"path":"translation"
					}
				},
				{
					"sampler":10,
					"target":{
						"node":2,
						"path":"rotation"
					}
				},
				{
					"sampler":11,
					"target":{
						"node":2,
						"path":"scale"
					}
				},
				{
					"sampler":12,
					"target":{
						"node":3,
						"path":"translation"
					}
				},
				{
					"sampler":13,
					"target":{
						"node":3,
						"path":"rotation"
					}
				},
				{
					"sampler":14,
					"target":{
						"node":3,
						"path":"scale"
					}
				},
				{
					"sampler":15,
					"target":{
						"node":4,
						"path":"translation"
					}
				},
				{
					"sampler":16,
					"target":{
						"node":4,
						"path":"rotation"
					}
				},
				{
					"sampler":17,
					"target":{
						"node":4,
						"path":"scale"
					}
				},
				{
					"sampler":18,
					"target":{
						"node":5,
						"path":"translation"
					}
				},
				{
					"sampler":19,
					"target":{
						"node":5,
						"path":"rotation"
					}
				},
				{
					"sampler":20,
					"target":{
						"node":5,
						"path":"scale"
					}
				},
				{
					"sampler":21,
					"target":{
						"node":6,
						"path":"translation"
					}
				},
				{
					"sampler":22,
					"target":{
						"node":6,
						"path":"rotation"
					}
				},
				{
					"sampler":23,
					"target":{
						"node":6,
						"path":"scale"
					}
				}
			],
			"name":"VFX_Smash",
			"samplers":[
				{
					"input":34,
					"interpolation":"STEP",
					"output":35
				},
				{
					"input":34,
					"interpolation":"STEP",
					"output":36
				},
				{
					"input":34,
					"interpolation":"STEP",
					"output":37
				},
				{
					"input":38,
					"interpolation":"LINEAR",
					"output":39
				},
				{
					"input":38,
					"interpolation":"LINEAR",
					"output":40
				},
				{
					"input":38,
					"interpolation":"LINEAR",
					"output":41
				},
				{
					"input":34,
					"interpolation":"STEP",
					"output":42
				},
				{
					"input":38,
					"interpolation":"LINEAR",
					"output":43
				},
				{
					"input":38,
					"interpolation":"LINEAR",
					"output":44
				},
				{
					"input":34,
					"interpolation":"STEP",
					"output":45
				},
				{
					"input":38,
					"interpolation":"LINEAR",
					"output":46
				},
				{
					"input":38,
					"interpolation":"LINEAR",
					"output":47
				},
				{
					"input":38,
					"interpolation":"LINEAR",
					"output":48
				},
				{
					"input":34,
					"interpolation":"STEP",
					"output":49
				},
				{
					"input":38,
					"interpolation":"LINEAR",
					"output":50
				},
				{
					"input":34,
					"interpolation":"STEP",
					"output":51
				},
				{
					"input":34,
					"interpolation":"STEP",
					"output":52
				},
				{
					"input":38,
					"interpolation":"LINEAR",
					"output":53
				},
				{
					"input":38,
					"interpolation":"LINEAR",
					"output":54
				},
				{
					"input":34,
					"interpolation":"STEP",
					"output":55
				},
				{
					"input":38,
					"interpolation":"LINEAR",
					"output":56
				},
				{
					"input":34,
					"interpolation":"STEP",
					"output":57
				},
				{
					"input":34,
					"interpolation":"STEP",
					"output":58
				},
				{
					"input":38,
					"interpolation":"LINEAR",
					"output":59
				}
			]
		}
	],
	"materials":[
		{
			"alphaMode":"BLEND",
			"doubleSided":true,
			"emissiveFactor":[
				1,
				1,
				1
			],
			"emissiveTexture":{
				"index":0
			},
			"name":"Material.002",
			"pbrMetallicRoughness":{
				"baseColorTexture":{
					"index":1
				},
				"metallicFactor":0,
				"roughnessFactor":0.5
			}
		},
		{
			"alphaMode":"BLEND",
			"doubleSided":true,
			"emissiveFactor":[
				1,
				1,
				1
			],
			"emissiveTexture":{
				"index":2
			},
			"name":"Material.001",
			"pbrMetallicRoughness":{
				"baseColorTexture":{
					"index":3
				},
				"metallicFactor":0,
				"roughnessFactor":0.5
			}
		},
		{
			"alphaMode":"BLEND",
			"doubleSided":true,
			"emissiveFactor":[
				1,
				1,
				1
			],
			"emissiveTexture":{
				"index":4
			},
			"name":"Material.003",
			"pbrMetallicRoughness":{
				"baseColorTexture":{
					"index":5
				},
				"metallicFactor":0,
				"roughnessFactor":0.5
			}
		},
		{
			"alphaMode":"BLEND",
			"doubleSided":true,
			"emissiveFactor":[
				1,
				1,
				1
			],
			"emissiveTexture":{
				"index":6
			},
			"name":"Material.004",
			"pbrMetallicRoughness":{
				"baseColorTexture":{
					"index":7
				},
				"metallicFactor":0,
				"roughnessFactor":0.5
			}
		},
		{
			"alphaMode":"BLEND",
			"doubleSided":true,
			"emissiveFactor":[
				1,
				1,
				1
			],
			"emissiveTexture":{
				"index":8
			},
			"name":"Material.005",
			"pbrMetallicRoughness":{
				"baseColorTexture":{
					"index":9
				},
				"metallicFactor":0,
				"roughnessFactor":0.5
			}
		},
		{
			"alphaMode":"BLEND",
			"doubleSided":true,
			"emissiveFactor":[
				1,
				1,
				1
			],
			"emissiveTexture":{
				"index":10
			},
			"name":"Material.006",
			"pbrMetallicRoughness":{
				"baseColorTexture":{
					"index":11
				},
				"metallicFactor":0,
				"roughnessFactor":0.5
			}
		}
	],
	"meshes":[
		{
			"name":"Plane.001",
			"primitives":[
				{
					"attributes":{
						"POSITION":0,
						"NORMAL":1,
						"TEXCOORD_0":2,
						"JOINTS_0":3,
						"WEIGHTS_0":4
					},
					"indices":5,
					"material":0
				},
				{
					"attributes":{
						"POSITION":6,
						"NORMAL":7,
						"TEXCOORD_0":8,
						"JOINTS_0":9,
						"WEIGHTS_0":10
					},
					"indices":5,
					"material":1
				},
				{
					"attributes":{
						"POSITION":11,
						"NORMAL":12,
						"TEXCOORD_0":13,
						"JOINTS_0":14,
						"WEIGHTS_0":15
					},
					"indices":5,
					"material":2
				},
				{
					"attributes":{
						"POSITION":16,
						"NORMAL":17,
						"TEXCOORD_0":18,
						"JOINTS_0":19,
						"WEIGHTS_0":20
					},
					"indices":21,
					"material":3
				},
				{
					"attributes":{
						"POSITION":22,
						"NORMAL":23,
						"TEXCOORD_0":24,
						"JOINTS_0":25,
						"WEIGHTS_0":26
					},
					"indices":21,
					"material":4
				},
				{
					"attributes":{
						"POSITION":27,
						"NORMAL":28,
						"TEXCOORD_0":29,
						"JOINTS_0":30,
						"WEIGHTS_0":31
					},
					"indices":32,
					"material":5
				}
			]
		}
	],
	"textures":[
		{
			"sampler":0,
			"source":0
		},
		{
			"sampler":0,
			"source":1
		},
		{
			"sampler":0,
			"source":0
		},
		{
			"sampler":0,
			"source":1
		},
		{
			"sampler":0,
			"source":0
		},
		{
			"sampler":0,
			"source":1
		},
		{
			"sampler":0,
			"source":0
		},
		{
			"sampler":0,
			"source":1
		},
		{
			"sampler":0,
			"source":0
		},
		{
			"sampler":0,
			"source":1
		},
		{
			"sampler":0,
			"source":0
		},
		{
			"sampler":0,
			"source":1
		}
	],
	"images":[
		{
			"mimeType":"image/png",
			"name":"VFX_SmashBoss",
			"uri":"VFX_SmashBoss.png"
		},
		{
			"mimeType":"image/png",
			"name":"VFX_SmashBoss-VFX_SmashBossA",
			"uri":"VFX_SmashBoss-VFX_SmashBossA.png"
		}
	],
	"skins":[
		{
			"inverseBindMatrices":33,
			"joints":[
				7,
				0,
				1,
				2,
				3,
				4,
				5,
				6
			],
			"name":"Armature"
		}
	],
	"accessors":[
		{
			"bufferView":0,
			"componentType":5126,
			"count":4,
			"max":[
				1,
				0,
				1
			],
			"min":[
				-1,
				0,
				-1
			],
			"type":"VEC3"
		},
		{
			"bufferView":1,
			"componentType":5126,
			"count":4,
			"type":"VEC3"
		},
		{
			"bufferView":2,
			"componentType":5126,
			"count":4,
			"type":"VEC2"
		},
		{
			"bufferView":3,
			"componentType":5121,
			"count":4,
			"type":"VEC4"
		},
		{
			"bufferView":4,
			"componentType":5126,
			"count":4,
			"type":"VEC4"
		},
		{
			"bufferView":5,
			"componentType":5123,
			"count":6,
			"type":"SCALAR"
		},
		{
			"bufferView":6,
			"componentType":5126,
			"count":4,
			"max":[
				1,
				0,
				1
			],
			"min":[
				-1,
				0,
				-1
			],
			"type":"VEC3"
		},
		{
			"bufferView":7,
			"componentType":5126,
			"count":4,
			"type":"VEC3"
		},
		{
			"bufferView":8,
			"componentType":5126,
			"count":4,
			"type":"VEC2"
		},
		{
			"bufferView":9,
			"componentType":5121,
			"count":4,
			"type":"VEC4"
		},
		{
			"bufferView":10,
			"componentType":5126,
			"count":4,
			"type":"VEC4"
		},
		{
			"bufferView":11,
			"componentType":5126,
			"count":4,
			"max":[
				1,
				0,
				1
			],
			"min":[
				-1,
				0,
				-1
			],
			"type":"VEC3"
		},
		{
			"bufferView":12,
			"componentType":5126,
			"count":4,
			"type":"VEC3"
		},
		{
			"bufferView":13,
			"componentType":5126,
			"count":4,
			"type":"VEC2"
		},
		{
			"bufferView":14,
			"componentType":5121,
			"count":4,
			"type":"VEC4"
		},
		{
			"bufferView":15,
			"componentType":5126,
			"count":4,
			"type":"VEC4"
		},
		{
			"bufferView":16,
			"componentType":5126,
			"count":34,
			"max":[
				1.8759821653366089,
				5.102608680725098,
				1.8759821653366089
			],
			"min":[
				-1.8759821653366089,
				0.0011963844299316406,
				-1.8759821653366089
			],
			"type":"VEC3"
		},
		{
			"bufferView":17,
			"componentType":5126,
			"count":34,
			"type":"VEC3"
		},
		{
			"bufferView":18,
			"componentType":5126,
			"count":34,
			"type":"VEC2"
		},
		{
			"bufferView":19,
			"componentType":5121,
			"count":34,
			"type":"VEC4"
		},
		{
			"bufferView":20,
			"componentType":5126,
			"count":34,
			"type":"VEC4"
		},
		{
			"bufferView":21,
			"componentType":5123,
			"count":96,
			"type":"SCALAR"
		},
		{
			"bufferView":22,
			"componentType":5126,
			"count":34,
			"max":[
				2.144092082977295,
				0.6725001335144043,
				2.144092082977295
			],
			"min":[
				-2.144092082977295,
				0.0009832382202148438,
				-2.144092082977295
			],
			"type":"VEC3"
		},
		{
			"bufferView":23,
			"componentType":5126,
			"count":34,
			"type":"VEC3"
		},
		{
			"bufferView":24,
			"componentType":5126,
			"count":34,
			"type":"VEC2"
		},
		{
			"bufferView":25,
			"componentType":5121,
			"count":34,
			"type":"VEC4"
		},
		{
			"bufferView":26,
			"componentType":5126,
			"count":34,
			"type":"VEC4"
		},
		{
			"bufferView":27,
			"componentType":5126,
			"count":102,
			"max":[
				3.6997978687286377,
				0.9392338991165161,
				3.6997978687286377
			],
			"min":[
				-3.6997978687286377,
				0.0005138810956850648,
				-3.6997978687286377
			],
			"type":"VEC3"
		},
		{
			"bufferView":28,
			"componentType":5126,
			"count":102,
			"type":"VEC3"
		},
		{
			"bufferView":29,
			"componentType":5126,
			"count":102,
			"type":"VEC2"
		},
		{
			"bufferView":30,
			"componentType":5121,
			"count":102,
			"type":"VEC4"
		},
		{
			"bufferView":31,
			"componentType":5126,
			"count":102,
			"type":"VEC4"
		},
		{
			"bufferView":32,
			"componentType":5123,
			"count":384,
			"type":"SCALAR"
		},
		{
			"bufferView":33,
			"componentType":5126,
			"count":8,
			"type":"MAT4"
		},
		{
			"bufferView":34,
			"componentType":5126,
			"count":2,
			"max":[
				1.5
			],
			"min":[
				0.016666666666666666
			],
			"type":"SCALAR"
		},
		{
			"bufferView":35,
			"componentType":5126,
			"count":2,
			"type":"VEC3"
		},
		{
			"bufferView":36,
			"componentType":5126,
			"count":2,
			"type":"VEC4"
		},
		{
			"bufferView":37,
			"componentType":5126,
			"count":2,
			"type":"VEC3"
		},
		{
			"bufferView":38,
			"componentType":5126,
			"count":90,
			"max":[
				1.5
			],
			"min":[
				0.016666666666666666
			],
			"type":"SCALAR"
		},
		{
			"bufferView":39,
			"componentType":5126,
			"count":90,
			"type":"VEC3"
		},
		{
			"bufferView":40,
			"componentType":5126,
			"count":90,
			"type":"VEC4"
		},
		{
			"bufferView":41,
			"componentType":5126,
			"count":90,
			"type":"VEC3"
		},
		{
			"bufferView":42,
			"componentType":5126,
			"count":2,
			"type":"VEC3"
		},
		{
			"bufferView":43,
			"componentType":5126,
			"count":90,
			"type":"VEC4"
		},
		{
			"bufferView":44,
			"componentType":5126,
			"count":90,
			"type":"VEC3"
		},
		{
			"bufferView":45,
			"componentType":5126,
			"count":2,
			"type":"VEC3"
		},
		{
			"bufferView":46,
			"componentType":5126,
			"count":90,
			"type":"VEC4"
		},
		{
			"bufferView":47,
			"componentType":5126,
			"count":90,
			"type":"VEC3"
		},
		{
			"bufferView":48,
			"componentType":5126,
			"count":90,
			"type":"VEC3"
		},
		{
			"bufferView":49,
			"componentType":5126,
			"count":2,
			"type":"VEC4"
		},
		{
			"bufferView":50,
			"componentType":5126,
			"count":90,
			"type":"VEC3"
		},
		{
			"bufferView":51,
			"componentType":5126,
			"count":2,
			"type":"VEC3"
		},
		{
			"bufferView":52,
			"componentType":5126,
			"count":2,
			"type":"VEC4"
		},
		{
			"bufferView":53,
			"componentType":5126,
			"count":90,
			"type":"VEC3"
		},
		{
			"bufferView":54,
			"componentType":5126,
			"count":90,
			"type":"VEC3"
		},
		{
			"bufferView":55,
			"componentType":5126,
			"count":2,
			"type":"VEC4"
		},
		{
			"bufferView":56,
			"componentType":5126,
			"count":90,
			"type":"VEC3"
		},
		{
			"bufferView":57,
			"componentType":5126,
			"count":2,
			"type":"VEC3"
		},
		{
			"bufferView":58,
			"componentType":5126,
			"count":2,
			"type":"VEC4"
		},
		{
			"bufferView":59,
			"componentType":5126,
			"count":90,
			"type":"VEC3"
		}
	],
	"bufferViews":[
		{
			"buffer":0,
			"byteLength":48,
			"byteOffset":0,
			"target":34962
		},
		{
			"buffer":0,
			"byteLength":48,
			"byteOffset":48,
			"target":34962
		},
		{
			"buffer":0,
			"byteLength":32,
			"byteOffset":96,
			"target":34962
		},
		{
			"buffer":0,
			"byteLength":16,
			"byteOffset":128,
			"target":34962
		},
		{
			"buffer":0,
			"byteLength":64,
			"byteOffset":144,
			"target":34962
		},
		{
			"buffer":0,
			"byteLength":12,
			"byteOffset":208,
			"target":34963
		},
		{
			"buffer":0,
			"byteLength":48,
			"byteOffset":220,
			"target":34962
		},
		{
			"buffer":0,
			"byteLength":48,
			"byteOffset":268,
			"target":34962
		},
		{
			"buffer":0,
			"byteLength":32,
			"byteOffset":316,
			"target":34962
		},
		{
			"buffer":0,
			"byteLength":16,
			"byteOffset":348,
			"target":34962
		},
		{
			"buffer":0,
			"byteLength":64,
			"byteOffset":364,
			"target":34962
		},
		{
			"buffer":0,
			"byteLength":48,
			"byteOffset":428,
			"target":34962
		},
		{
			"buffer":0,
			"byteLength":48,
			"byteOffset":476,
			"target":34962
		},
		{
			"buffer":0,
			"byteLength":32,
			"byteOffset":524,
			"target":34962
		},
		{
			"buffer":0,
			"byteLength":16,
			"byteOffset":556,
			"target":34962
		},
		{
			"buffer":0,
			"byteLength":64,
			"byteOffset":572,
			"target":34962
		},
		{
			"buffer":0,
			"byteLength":408,
			"byteOffset":636,
			"target":34962
		},
		{
			"buffer":0,
			"byteLength":408,
			"byteOffset":1044,
			"target":34962
		},
		{
			"buffer":0,
			"byteLength":272,
			"byteOffset":1452,
			"target":34962
		},
		{
			"buffer":0,
			"byteLength":136,
			"byteOffset":1724,
			"target":34962
		},
		{
			"buffer":0,
			"byteLength":544,
			"byteOffset":1860,
			"target":34962
		},
		{
			"buffer":0,
			"byteLength":192,
			"byteOffset":2404,
			"target":34963
		},
		{
			"buffer":0,
			"byteLength":408,
			"byteOffset":2596,
			"target":34962
		},
		{
			"buffer":0,
			"byteLength":408,
			"byteOffset":3004,
			"target":34962
		},
		{
			"buffer":0,
			"byteLength":272,
			"byteOffset":3412,
			"target":34962
		},
		{
			"buffer":0,
			"byteLength":136,
			"byteOffset":3684,
			"target":34962
		},
		{
			"buffer":0,
			"byteLength":544,
			"byteOffset":3820,
			"target":34962
		},
		{
			"buffer":0,
			"byteLength":1224,
			"byteOffset":4364,
			"target":34962
		},
		{
			"buffer":0,
			"byteLength":1224,
			"byteOffset":5588,
			"target":34962
		},
		{
			"buffer":0,
			"byteLength":816,
			"byteOffset":6812,
			"target":34962
		},
		{
			"buffer":0,
			"byteLength":408,
			"byteOffset":7628,
			"target":34962
		},
		{
			"buffer":0,
			"byteLength":1632,
			"byteOffset":8036,
			"target":34962
		},
		{
			"buffer":0,
			"byteLength":768,
			"byteOffset":9668,
			"target":34963
		},
		{
			"buffer":0,
			"byteLength":512,
			"byteOffset":10436
		},
		{
			"buffer":0,
			"byteLength":8,
			"byteOffset":10948
		},
		{
			"buffer":0,
			"byteLength":24,
			"byteOffset":10956
		},
		{
			"buffer":0,
			"byteLength":32,
			"byteOffset":10980
		},
		{
			"buffer":0,
			"byteLength":24,
			"byteOffset":11012
		},
		{
			"buffer":0,
			"byteLength":360,
			"byteOffset":11036
		},
		{
			"buffer":0,
			"byteLength":1080,
			"byteOffset":11396
		},
		{
			"buffer":0,
			"byteLength":1440,
			"byteOffset":12476
		},
		{
			"buffer":0,
			"byteLength":1080,
			"byteOffset":13916
		},
		{
			"buffer":0,
			"byteLength":24,
			"byteOffset":14996
		},
		{
			"buffer":0,
			"byteLength":1440,
			"byteOffset":15020
		},
		{
			"buffer":0,
			"byteLength":1080,
			"byteOffset":16460
		},
		{
			"buffer":0,
			"byteLength":24,
			"byteOffset":17540
		},
		{
			"buffer":0,
			"byteLength":1440,
			"byteOffset":17564
		},
		{
			"buffer":0,
			"byteLength":1080,
			"byteOffset":19004
		},
		{
			"buffer":0,
			"byteLength":1080,
			"byteOffset":20084
		},
		{
			"buffer":0,
			"byteLength":32,
			"byteOffset":21164
		},
		{
			"buffer":0,
			"byteLength":1080,
			"byteOffset":21196
		},
		{
			"buffer":0,
			"byteLength":24,
			"byteOffset":22276
		},
		{
			"buffer":0,
			"byteLength":32,
			"byteOffset":22300
		},
		{
			"buffer":0,
			"byteLength":1080,
			"byteOffset":22332
		},
		{
			"buffer":0,
			"byteLength":1080,
			"byteOffset":23412
		},
		{
			"buffer":0,
			"byteLength":32,
			"byteOffset":24492
		},
		{
			"buffer":0,
			"byteLength":1080,
			"byteOffset":24524
		},
		{
			"buffer":0,
			"byteLength":24,
			"byteOffset":25604
		},
		{
			"buffer":0,
			"byteLength":32,
			"byteOffset":25628
		},
		{
			"buffer":0,
			"byteLength":1080,
			"byteOffset":25660
		}
	],
	"samplers":[
		{
			"magFilter":9729,
			"minFilter":9987
		}
	],
	"buffers":[
		{
			"byteLength":26740,
			"uri":"VFX_SmashBoss.bin"
		}
	]
}
