{
	"asset":{
		"generator":"Khronos glTF Blender I/O v4.3.47",
		"version":"2.0"
	},
	"scene":0,
	"scenes":[
		{
			"name":"Scene",
			"nodes":[
				0
			]
		}
	],
	"nodes":[
		{
			"mesh":0,
			"name":"Prop_OrkBarricade_v02"
		}
	],
	"materials":[
		{
			"doubleSided":true,
			"name":"barricade2.001",
			"normalTexture":{
				"index":0
			},
			"pbrMetallicRoughness":{
				"baseColorTexture":{
					"index":1
				},
				"metallicRoughnessTexture":{
					"index":2
				}
			}
		}
	],
	"meshes":[
		{
			"name":"Prop_OrkBarricade_v02",
			"primitives":[
				{
					"attributes":{
						"POSITION":0,
						"NORMAL":1,
						"TEXCOORD_0":2
					},
					"indices":3,
					"material":0
				}
			]
		}
	],
	"textures":[
		{
			"sampler":0,
			"source":0
		},
		{
			"sampler":0,
			"source":1
		},
		{
			"sampler":0,
			"source":2
		}
	],
	"images":[
		{
			"mimeType":"image/png",
			"name":"Prop_OrkBarricade_v02_Normal",
			"uri":"Prop_OrkBarricade_v02_Normal.png"
		},
		{
			"mimeType":"image/png",
			"name":"Prop_OrkBarricade_v02_BaseColor",
			"uri":"Prop_OrkBarricade_v02_BaseColor.png"
		},
		{
			"mimeType":"image/png",
			"name":"Prop_OrkBarricade_v02_Metallic-Prop_OrkBarricade_v02_Roughness",
			"uri":"Prop_OrkBarricade_v02_Metallic-Prop_OrkBarricade_v02_Roughness.png"
		}
	],
	"accessors":[
		{
			"bufferView":0,
			"componentType":5126,
			"count":758,
			"max":[
				1.7111159563064575,
				1.9536166191101074,
				0.1675797998905182
			],
			"min":[
				-1.6166510581970215,
				-0.009384137578308582,
				-1.3671778440475464
			],
			"type":"VEC3"
		},
		{
			"bufferView":1,
			"componentType":5126,
			"count":758,
			"type":"VEC3"
		},
		{
			"bufferView":2,
			"componentType":5126,
			"count":758,
			"type":"VEC2"
		},
		{
			"bufferView":3,
			"componentType":5123,
			"count":2970,
			"type":"SCALAR"
		}
	],
	"bufferViews":[
		{
			"buffer":0,
			"byteLength":9096,
			"byteOffset":0,
			"target":34962
		},
		{
			"buffer":0,
			"byteLength":9096,
			"byteOffset":9096,
			"target":34962
		},
		{
			"buffer":0,
			"byteLength":6064,
			"byteOffset":18192,
			"target":34962
		},
		{
			"buffer":0,
			"byteLength":5940,
			"byteOffset":24256,
			"target":34963
		}
	],
	"samplers":[
		{
			"magFilter":9729,
			"minFilter":9987
		}
	],
	"buffers":[
		{
			"byteLength":30196,
			"uri":"Prop_OrkBarricade_v02.bin"
		}
	]
}
