{
	"asset":{
		"generator":"Khronos glTF Blender I/O v4.4.55",
		"version":"2.0"
	},
	"scene":0,
	"scenes":[
		{
			"name":"Scene",
			"nodes":[
				11
			]
		}
	],
	"nodes":[
		{
			"name":"MuzzleBone01",
			"rotation":[
				1.3434850454352443e-10,
				-0.9999952912330627,
				-0.00307353213429451,
				4.371121065105399e-08
			],
			"scale":[
				1,
				0.9999997019767761,
				0.9999999403953552
			],
			"translation":[
				0.2938182055950165,
				0.09708995372056961,
				-0.00016506876272615045
			]
		},
		{
			"name":"MuzzleBone02",
			"rotation":[
				1.3434850454352443e-10,
				-0.9999952912330627,
				-0.00307353213429451,
				4.371121065105399e-08
			],
			"scale":[
				1,
				0.9999997019767761,
				0.9999999403953552
			],
			"translation":[
				0.2938182055950165,
				0.09708995372056961,
				-0.00016506876272615045
			]
		},
		{
			"name":"FlashBone01",
			"rotation":[
				1.3434850454352443e-10,
				-0.9999952912330627,
				-0.00307353213429451,
				4.371121065105399e-08
			],
			"scale":[
				1,
				0.9999997019767761,
				0.9999999403953552
			],
			"translation":[
				0.2938182055950165,
				0.09708995372056961,
				-0.00016506876272615045
			]
		},
		{
			"name":"FlashBone02",
			"rotation":[
				1.3434850454352443e-10,
				-0.9999952912330627,
				-0.00307353213429451,
				4.371121065105399e-08
			],
			"scale":[
				1,
				0.9999997019767761,
				0.9999999403953552
			],
			"translation":[
				0.2938182055950165,
				0.09708995372056961,
				-0.00016506876272615045
			]
		},
		{
			"name":"FadeBone",
			"rotation":[
				1.3434850454352443e-10,
				-0.9999952912330627,
				-0.00307353213429451,
				4.371121065105399e-08
			],
			"scale":[
				1,
				0.9999997019767761,
				0.9999999403953552
			],
			"translation":[
				0.2938182055950165,
				0.09708995372056961,
				-0.00016506876272615045
			]
		},
		{
			"children":[
				0,
				1,
				2,
				3,
				4
			],
			"name":"Root",
			"rotation":[
				3.072060508202412e-07,
				0.7049301266670227,
				0.7092767953872681,
				3.0532339678757126e-07
			],
			"scale":[
				1,
				1.000000238418579,
				1
			]
		},
		{
			"mesh":0,
			"name":"Fade",
			"skin":0
		},
		{
			"mesh":1,
			"name":"Flash1",
			"skin":0
		},
		{
			"mesh":2,
			"name":"Flash2",
			"skin":0
		},
		{
			"mesh":3,
			"name":"Muzzle01",
			"skin":0
		},
		{
			"mesh":4,
			"name":"Muzzle02",
			"skin":0
		},
		{
			"children":[
				6,
				7,
				8,
				9,
				10,
				5
			],
			"name":"Armature.001"
		}
	],
	"animations":[
		{
			"channels":[
				{
					"sampler":0,
					"target":{
						"node":5,
						"path":"translation"
					}
				},
				{
					"sampler":1,
					"target":{
						"node":5,
						"path":"rotation"
					}
				},
				{
					"sampler":2,
					"target":{
						"node":5,
						"path":"scale"
					}
				},
				{
					"sampler":3,
					"target":{
						"node":0,
						"path":"translation"
					}
				},
				{
					"sampler":4,
					"target":{
						"node":0,
						"path":"rotation"
					}
				},
				{
					"sampler":5,
					"target":{
						"node":0,
						"path":"scale"
					}
				},
				{
					"sampler":6,
					"target":{
						"node":1,
						"path":"translation"
					}
				},
				{
					"sampler":7,
					"target":{
						"node":1,
						"path":"rotation"
					}
				},
				{
					"sampler":8,
					"target":{
						"node":1,
						"path":"scale"
					}
				},
				{
					"sampler":9,
					"target":{
						"node":2,
						"path":"translation"
					}
				},
				{
					"sampler":10,
					"target":{
						"node":2,
						"path":"rotation"
					}
				},
				{
					"sampler":11,
					"target":{
						"node":2,
						"path":"scale"
					}
				},
				{
					"sampler":12,
					"target":{
						"node":3,
						"path":"translation"
					}
				},
				{
					"sampler":13,
					"target":{
						"node":3,
						"path":"rotation"
					}
				},
				{
					"sampler":14,
					"target":{
						"node":3,
						"path":"scale"
					}
				},
				{
					"sampler":15,
					"target":{
						"node":4,
						"path":"translation"
					}
				},
				{
					"sampler":16,
					"target":{
						"node":4,
						"path":"rotation"
					}
				},
				{
					"sampler":17,
					"target":{
						"node":4,
						"path":"scale"
					}
				}
			],
			"name":"Shoot",
			"samplers":[
				{
					"input":29,
					"interpolation":"STEP",
					"output":30
				},
				{
					"input":29,
					"interpolation":"STEP",
					"output":31
				},
				{
					"input":29,
					"interpolation":"STEP",
					"output":32
				},
				{
					"input":29,
					"interpolation":"STEP",
					"output":33
				},
				{
					"input":34,
					"interpolation":"LINEAR",
					"output":35
				},
				{
					"input":34,
					"interpolation":"LINEAR",
					"output":36
				},
				{
					"input":29,
					"interpolation":"STEP",
					"output":37
				},
				{
					"input":29,
					"interpolation":"LINEAR",
					"output":38
				},
				{
					"input":34,
					"interpolation":"LINEAR",
					"output":39
				},
				{
					"input":29,
					"interpolation":"STEP",
					"output":40
				},
				{
					"input":34,
					"interpolation":"LINEAR",
					"output":41
				},
				{
					"input":34,
					"interpolation":"LINEAR",
					"output":42
				},
				{
					"input":29,
					"interpolation":"STEP",
					"output":43
				},
				{
					"input":34,
					"interpolation":"LINEAR",
					"output":44
				},
				{
					"input":34,
					"interpolation":"LINEAR",
					"output":45
				},
				{
					"input":34,
					"interpolation":"LINEAR",
					"output":46
				},
				{
					"input":34,
					"interpolation":"LINEAR",
					"output":47
				},
				{
					"input":34,
					"interpolation":"LINEAR",
					"output":48
				}
			]
		}
	],
	"materials":[
		{
			"alphaMode":"BLEND",
			"doubleSided":true,
			"emissiveFactor":[
				1,
				1,
				1
			],
			"emissiveTexture":{
				"index":0
			},
			"name":"Shoot",
			"pbrMetallicRoughness":{
				"baseColorTexture":{
					"index":1
				},
				"metallicFactor":0,
				"roughnessFactor":0.5
			}
		}
	],
	"meshes":[
		{
			"name":"Cylinder.002",
			"primitives":[
				{
					"attributes":{
						"POSITION":0,
						"NORMAL":1,
						"TEXCOORD_0":2,
						"JOINTS_0":3,
						"WEIGHTS_0":4
					},
					"indices":5,
					"material":0
				}
			]
		},
		{
			"name":"Plane.001",
			"primitives":[
				{
					"attributes":{
						"POSITION":7,
						"NORMAL":8,
						"TEXCOORD_0":9,
						"JOINTS_0":10,
						"WEIGHTS_0":11
					},
					"indices":12,
					"material":0
				}
			]
		},
		{
			"name":"Plane.002",
			"primitives":[
				{
					"attributes":{
						"POSITION":13,
						"NORMAL":14,
						"TEXCOORD_0":15,
						"JOINTS_0":16,
						"WEIGHTS_0":17
					},
					"indices":12,
					"material":0
				}
			]
		},
		{
			"name":"Cone",
			"primitives":[
				{
					"attributes":{
						"POSITION":18,
						"NORMAL":19,
						"TEXCOORD_0":20,
						"JOINTS_0":21,
						"WEIGHTS_0":22
					},
					"indices":23,
					"material":0
				}
			]
		},
		{
			"name":"Cone.002",
			"primitives":[
				{
					"attributes":{
						"POSITION":24,
						"NORMAL":25,
						"TEXCOORD_0":26,
						"JOINTS_0":27,
						"WEIGHTS_0":28
					},
					"indices":23,
					"material":0
				}
			]
		}
	],
	"textures":[
		{
			"sampler":0,
			"source":0
		},
		{
			"sampler":0,
			"source":0
		}
	],
	"images":[
		{
			"mimeType":"image/png",
			"name":"Particle1",
			"uri":"Particle1.png"
		}
	],
	"skins":[
		{
			"inverseBindMatrices":6,
			"joints":[
				5,
				0,
				1,
				2,
				3,
				4
			],
			"name":"Armature.001"
		}
	],
	"accessors":[
		{
			"bufferView":0,
			"componentType":5126,
			"count":26,
			"max":[
				-0.10115198791027069,
				0.1752176284790039,
				0.5572185516357422
			],
			"min":[
				-0.470500648021698,
				-0.19413113594055176,
				0.18786990642547607
			],
			"type":"VEC3"
		},
		{
			"bufferView":1,
			"componentType":5126,
			"count":26,
			"type":"VEC3"
		},
		{
			"bufferView":2,
			"componentType":5126,
			"count":26,
			"type":"VEC2"
		},
		{
			"bufferView":3,
			"componentType":5121,
			"count":26,
			"type":"VEC4"
		},
		{
			"bufferView":4,
			"componentType":5126,
			"count":26,
			"type":"VEC4"
		},
		{
			"bufferView":5,
			"componentType":5123,
			"count":72,
			"type":"SCALAR"
		},
		{
			"bufferView":6,
			"componentType":5126,
			"count":6,
			"type":"MAT4"
		},
		{
			"bufferView":7,
			"componentType":5126,
			"count":25,
			"max":[
				-0.13908185064792633,
				0.1536121368408203,
				0.0908592939376831
			],
			"min":[
				-0.44660574197769165,
				-0.15391182899475098,
				0.06138408184051514
			],
			"type":"VEC3"
		},
		{
			"bufferView":8,
			"componentType":5126,
			"count":25,
			"type":"VEC3"
		},
		{
			"bufferView":9,
			"componentType":5126,
			"count":25,
			"type":"VEC2"
		},
		{
			"bufferView":10,
			"componentType":5121,
			"count":25,
			"type":"VEC4"
		},
		{
			"bufferView":11,
			"componentType":5126,
			"count":25,
			"type":"VEC4"
		},
		{
			"bufferView":12,
			"componentType":5123,
			"count":96,
			"type":"SCALAR"
		},
		{
			"bufferView":13,
			"componentType":5126,
			"count":25,
			"max":[
				0.046677976846694946,
				0.339371919631958,
				0.22981536388397217
			],
			"min":[
				-0.6323655843734741,
				-0.33967161178588867,
				0.180334210395813
			],
			"type":"VEC3"
		},
		{
			"bufferView":14,
			"componentType":5126,
			"count":25,
			"type":"VEC3"
		},
		{
			"bufferView":15,
			"componentType":5126,
			"count":25,
			"type":"VEC2"
		},
		{
			"bufferView":16,
			"componentType":5121,
			"count":25,
			"type":"VEC4"
		},
		{
			"bufferView":17,
			"componentType":5126,
			"count":25,
			"type":"VEC4"
		},
		{
			"bufferView":18,
			"componentType":5126,
			"count":33,
			"max":[
				0.12295341491699219,
				0.4270111322402954,
				0.6609132289886475
			],
			"min":[
				-0.7086411118507385,
				-0.4273107051849365,
				0.03167593479156494
			],
			"type":"VEC3"
		},
		{
			"bufferView":19,
			"componentType":5126,
			"count":33,
			"type":"VEC3"
		},
		{
			"bufferView":20,
			"componentType":5126,
			"count":33,
			"type":"VEC2"
		},
		{
			"bufferView":21,
			"componentType":5121,
			"count":33,
			"type":"VEC4"
		},
		{
			"bufferView":22,
			"componentType":5126,
			"count":33,
			"type":"VEC4"
		},
		{
			"bufferView":23,
			"componentType":5123,
			"count":96,
			"type":"SCALAR"
		},
		{
			"bufferView":24,
			"componentType":5126,
			"count":33,
			"max":[
				0.04907733201980591,
				0.32736217975616455,
				0.8477520942687988
			],
			"min":[
				-0.6347659230232239,
				-0.3276616334915161,
				0.019230365753173828
			],
			"type":"VEC3"
		},
		{
			"bufferView":25,
			"componentType":5126,
			"count":33,
			"type":"VEC3"
		},
		{
			"bufferView":26,
			"componentType":5126,
			"count":33,
			"type":"VEC2"
		},
		{
			"bufferView":27,
			"componentType":5121,
			"count":33,
			"type":"VEC4"
		},
		{
			"bufferView":28,
			"componentType":5126,
			"count":33,
			"type":"VEC4"
		},
		{
			"bufferView":29,
			"componentType":5126,
			"count":2,
			"max":[
				0.25
			],
			"min":[
				0.016666666666666666
			],
			"type":"SCALAR"
		},
		{
			"bufferView":30,
			"componentType":5126,
			"count":2,
			"type":"VEC3"
		},
		{
			"bufferView":31,
			"componentType":5126,
			"count":2,
			"type":"VEC4"
		},
		{
			"bufferView":32,
			"componentType":5126,
			"count":2,
			"type":"VEC3"
		},
		{
			"bufferView":33,
			"componentType":5126,
			"count":2,
			"type":"VEC3"
		},
		{
			"bufferView":34,
			"componentType":5126,
			"count":15,
			"max":[
				0.25
			],
			"min":[
				0.016666666666666666
			],
			"type":"SCALAR"
		},
		{
			"bufferView":35,
			"componentType":5126,
			"count":15,
			"type":"VEC4"
		},
		{
			"bufferView":36,
			"componentType":5126,
			"count":15,
			"type":"VEC3"
		},
		{
			"bufferView":37,
			"componentType":5126,
			"count":2,
			"type":"VEC3"
		},
		{
			"bufferView":38,
			"componentType":5126,
			"count":2,
			"type":"VEC4"
		},
		{
			"bufferView":39,
			"componentType":5126,
			"count":15,
			"type":"VEC3"
		},
		{
			"bufferView":40,
			"componentType":5126,
			"count":2,
			"type":"VEC3"
		},
		{
			"bufferView":41,
			"componentType":5126,
			"count":15,
			"type":"VEC4"
		},
		{
			"bufferView":42,
			"componentType":5126,
			"count":15,
			"type":"VEC3"
		},
		{
			"bufferView":43,
			"componentType":5126,
			"count":2,
			"type":"VEC3"
		},
		{
			"bufferView":44,
			"componentType":5126,
			"count":15,
			"type":"VEC4"
		},
		{
			"bufferView":45,
			"componentType":5126,
			"count":15,
			"type":"VEC3"
		},
		{
			"bufferView":46,
			"componentType":5126,
			"count":15,
			"type":"VEC3"
		},
		{
			"bufferView":47,
			"componentType":5126,
			"count":15,
			"type":"VEC4"
		},
		{
			"bufferView":48,
			"componentType":5126,
			"count":15,
			"type":"VEC3"
		}
	],
	"bufferViews":[
		{
			"buffer":0,
			"byteLength":312,
			"byteOffset":0,
			"target":34962
		},
		{
			"buffer":0,
			"byteLength":312,
			"byteOffset":312,
			"target":34962
		},
		{
			"buffer":0,
			"byteLength":208,
			"byteOffset":624,
			"target":34962
		},
		{
			"buffer":0,
			"byteLength":104,
			"byteOffset":832,
			"target":34962
		},
		{
			"buffer":0,
			"byteLength":416,
			"byteOffset":936,
			"target":34962
		},
		{
			"buffer":0,
			"byteLength":144,
			"byteOffset":1352,
			"target":34963
		},
		{
			"buffer":0,
			"byteLength":384,
			"byteOffset":1496
		},
		{
			"buffer":0,
			"byteLength":300,
			"byteOffset":1880,
			"target":34962
		},
		{
			"buffer":0,
			"byteLength":300,
			"byteOffset":2180,
			"target":34962
		},
		{
			"buffer":0,
			"byteLength":200,
			"byteOffset":2480,
			"target":34962
		},
		{
			"buffer":0,
			"byteLength":100,
			"byteOffset":2680,
			"target":34962
		},
		{
			"buffer":0,
			"byteLength":400,
			"byteOffset":2780,
			"target":34962
		},
		{
			"buffer":0,
			"byteLength":192,
			"byteOffset":3180,
			"target":34963
		},
		{
			"buffer":0,
			"byteLength":300,
			"byteOffset":3372,
			"target":34962
		},
		{
			"buffer":0,
			"byteLength":300,
			"byteOffset":3672,
			"target":34962
		},
		{
			"buffer":0,
			"byteLength":200,
			"byteOffset":3972,
			"target":34962
		},
		{
			"buffer":0,
			"byteLength":100,
			"byteOffset":4172,
			"target":34962
		},
		{
			"buffer":0,
			"byteLength":400,
			"byteOffset":4272,
			"target":34962
		},
		{
			"buffer":0,
			"byteLength":396,
			"byteOffset":4672,
			"target":34962
		},
		{
			"buffer":0,
			"byteLength":396,
			"byteOffset":5068,
			"target":34962
		},
		{
			"buffer":0,
			"byteLength":264,
			"byteOffset":5464,
			"target":34962
		},
		{
			"buffer":0,
			"byteLength":132,
			"byteOffset":5728,
			"target":34962
		},
		{
			"buffer":0,
			"byteLength":528,
			"byteOffset":5860,
			"target":34962
		},
		{
			"buffer":0,
			"byteLength":192,
			"byteOffset":6388,
			"target":34963
		},
		{
			"buffer":0,
			"byteLength":396,
			"byteOffset":6580,
			"target":34962
		},
		{
			"buffer":0,
			"byteLength":396,
			"byteOffset":6976,
			"target":34962
		},
		{
			"buffer":0,
			"byteLength":264,
			"byteOffset":7372,
			"target":34962
		},
		{
			"buffer":0,
			"byteLength":132,
			"byteOffset":7636,
			"target":34962
		},
		{
			"buffer":0,
			"byteLength":528,
			"byteOffset":7768,
			"target":34962
		},
		{
			"buffer":0,
			"byteLength":8,
			"byteOffset":8296
		},
		{
			"buffer":0,
			"byteLength":24,
			"byteOffset":8304
		},
		{
			"buffer":0,
			"byteLength":32,
			"byteOffset":8328
		},
		{
			"buffer":0,
			"byteLength":24,
			"byteOffset":8360
		},
		{
			"buffer":0,
			"byteLength":24,
			"byteOffset":8384
		},
		{
			"buffer":0,
			"byteLength":60,
			"byteOffset":8408
		},
		{
			"buffer":0,
			"byteLength":240,
			"byteOffset":8468
		},
		{
			"buffer":0,
			"byteLength":180,
			"byteOffset":8708
		},
		{
			"buffer":0,
			"byteLength":24,
			"byteOffset":8888
		},
		{
			"buffer":0,
			"byteLength":32,
			"byteOffset":8912
		},
		{
			"buffer":0,
			"byteLength":180,
			"byteOffset":8944
		},
		{
			"buffer":0,
			"byteLength":24,
			"byteOffset":9124
		},
		{
			"buffer":0,
			"byteLength":240,
			"byteOffset":9148
		},
		{
			"buffer":0,
			"byteLength":180,
			"byteOffset":9388
		},
		{
			"buffer":0,
			"byteLength":24,
			"byteOffset":9568
		},
		{
			"buffer":0,
			"byteLength":240,
			"byteOffset":9592
		},
		{
			"buffer":0,
			"byteLength":180,
			"byteOffset":9832
		},
		{
			"buffer":0,
			"byteLength":180,
			"byteOffset":10012
		},
		{
			"buffer":0,
			"byteLength":240,
			"byteOffset":10192
		},
		{
			"buffer":0,
			"byteLength":180,
			"byteOffset":10432
		}
	],
	"samplers":[
		{
			"magFilter":9729,
			"minFilter":9987
		}
	],
	"buffers":[
		{
			"byteLength":10612,
			"uri":"shoot.bin"
		}
	]
}
