{
	"asset":{
		"generator":"Khronos glTF Blender I/O v4.3.47",
		"version":"2.0"
	},
	"extensionsUsed":[
		"KHR_materials_specular"
	],
	"scene":0,
	"scenes":[
		{
			"name":"Scene",
			"nodes":[
				0
			]
		}
	],
	"nodes":[
		{
			"mesh":0,
			"name":"prop_scrap1"
		}
	],
	"materials":[
		{
			"doubleSided":true,
			"extensions":{
				"KHR_materials_specular":{
					"specularColorFactor":[
						2.0,
						2.0,
						2.0
					]
				}
			},
			"name":"Scrap1.002",
			"normalTexture":{
				"index":0
			},
			"pbrMetallicRoughness":{
				"baseColorTexture":{
					"index":1
				},
				"metallicRoughnessTexture":{
					"index":2
				}
			}
		}
	],
	"meshes":[
		{
			"name":"Cube.009",
			"primitives":[
				{
					"attributes":{
						"POSITION":0,
						"NORMAL":1,
						"TEXCOORD_0":2
					},
					"indices":3,
					"material":0
				}
			]
		}
	],
	"textures":[
		{
			"sampler":0,
			"source":0
		},
		{
			"sampler":0,
			"source":1
		},
		{
			"sampler":0,
			"source":2
		}
	],
	"images":[
		{
			"mimeType":"image/png",
			"name":"Scrap1_low_Scrap1_Normal.png",
			"uri":"Scrap1_low_Scrap1_Normal_png.png"
		},
		{
			"mimeType":"image/png",
			"name":"Scrap1_low_Scrap1_BaseColor.png",
			"uri":"Scrap1_low_Scrap1_BaseColor_png.png"
		},
		{
			"mimeType":"image/png",
			"name":"Scrap1_low_Scrap1_Metallic.png-Scrap1_low_Scrap1_Roughness.png",
			"uri":"Scrap1_low_Scrap1_Metallic_png-Scrap1_low_Scrap1_Roughness_png.png"
		}
	],
	"accessors":[
		{
			"bufferView":0,
			"componentType":5126,
			"count":445,
			"max":[
				1.4023517370224,
				1.5839357376098633,
				1.472295880317688
			],
			"min":[
				-1.963316798210144,
				-0.18372255563735962,
				-1.6409659385681152
			],
			"type":"VEC3"
		},
		{
			"bufferView":1,
			"componentType":5126,
			"count":445,
			"type":"VEC3"
		},
		{
			"bufferView":2,
			"componentType":5126,
			"count":445,
			"type":"VEC2"
		},
		{
			"bufferView":3,
			"componentType":5123,
			"count":1728,
			"type":"SCALAR"
		}
	],
	"bufferViews":[
		{
			"buffer":0,
			"byteLength":5340,
			"byteOffset":0,
			"target":34962
		},
		{
			"buffer":0,
			"byteLength":5340,
			"byteOffset":5340,
			"target":34962
		},
		{
			"buffer":0,
			"byteLength":3560,
			"byteOffset":10680,
			"target":34962
		},
		{
			"buffer":0,
			"byteLength":3456,
			"byteOffset":14240,
			"target":34963
		}
	],
	"samplers":[
		{
			"magFilter":9729,
			"minFilter":9987
		}
	],
	"buffers":[
		{
			"byteLength":17696,
			"uri":"prop_scrap_v01.bin"
		}
	]
}
