{
	"asset":{
		"generator":"Khronos glTF Blender I/O v4.4.55",
		"version":"2.0"
	},
	"scene":0,
	"scenes":[
		{
			"name":"Scene",
			"nodes":[
				0
			]
		}
	],
	"nodes":[
		{
			"mesh":0,
			"name":"Cylinder.011",
			"scale":[
				29.982254028320312,
				29.982254028320312,
				29.982254028320312
			],
			"translation":[
				0,
				0,
				-95.19139099121094
			]
		}
	],
	"materials":[
		{
			"doubleSided":true,
			"name":"Wall_MAT",
			"normalTexture":{
				"index":0
			},
			"pbrMetallicRoughness":{
				"baseColorTexture":{
					"index":1
				},
				"metallicFactor":0,
				"metallicRoughnessTexture":{
					"index":2
				}
			}
		},
		{
			"doubleSided":true,
			"name":"Columna_MAT",
			"normalTexture":{
				"index":3
			},
			"pbrMetallicRoughness":{
				"baseColorTexture":{
					"index":4
				},
				"metallicRoughnessTexture":{
					"index":5
				}
			}
		},
		{
			"doubleSided":true,
			"name":"vallas.001",
			"normalTexture":{
				"index":6
			},
			"pbrMetallicRoughness":{
				"baseColorTexture":{
					"index":7
				},
				"metallicRoughnessTexture":{
					"index":8
				}
			}
		},
		{
			"doubleSided":true,
			"name":"Suelo_MAT",
			"normalTexture":{
				"index":9
			},
			"pbrMetallicRoughness":{
				"baseColorTexture":{
					"index":10
				},
				"metallicFactor":0,
				"metallicRoughnessTexture":{
					"index":11
				}
			}
		},
		{
			"doubleSided":true,
			"name":"Banco",
			"normalTexture":{
				"index":12
			},
			"pbrMetallicRoughness":{
				"baseColorTexture":{
					"index":13
				},
				"metallicRoughnessTexture":{
					"index":14
				}
			}
		},
		{
			"doubleSided":true,
			"name":"Banco.001",
			"normalTexture":{
				"index":15
			},
			"pbrMetallicRoughness":{
				"baseColorTexture":{
					"index":16
				},
				"metallicRoughnessTexture":{
					"index":17
				}
			}
		},
		{
			"doubleSided":true,
			"name":"vallas.002",
			"normalTexture":{
				"index":18
			},
			"pbrMetallicRoughness":{
				"baseColorTexture":{
					"index":19
				},
				"metallicRoughnessTexture":{
					"index":20
				}
			}
		}
	],
	"meshes":[
		{
			"name":"Cylinder.086",
			"primitives":[
				{
					"attributes":{
						"POSITION":0,
						"NORMAL":1,
						"TEXCOORD_0":2
					},
					"indices":3,
					"material":0
				},
				{
					"attributes":{
						"POSITION":4,
						"NORMAL":5,
						"TEXCOORD_0":6
					},
					"indices":7,
					"material":1
				},
				{
					"attributes":{
						"POSITION":8,
						"NORMAL":9,
						"TEXCOORD_0":10
					},
					"indices":11,
					"material":2
				},
				{
					"attributes":{
						"POSITION":12,
						"NORMAL":13,
						"TEXCOORD_0":14
					},
					"indices":15,
					"material":3
				},
				{
					"attributes":{
						"POSITION":16,
						"NORMAL":17,
						"TEXCOORD_0":18
					},
					"indices":19
				},
				{
					"attributes":{
						"POSITION":20,
						"NORMAL":21,
						"TEXCOORD_0":22
					},
					"indices":23,
					"material":4
				},
				{
					"attributes":{
						"POSITION":24,
						"NORMAL":25,
						"TEXCOORD_0":26
					},
					"indices":27,
					"material":5
				},
				{
					"attributes":{
						"POSITION":28,
						"NORMAL":29,
						"TEXCOORD_0":30
					},
					"indices":31,
					"material":6
				}
			]
		}
	],
	"textures":[
		{
			"sampler":0,
			"source":0
		},
		{
			"sampler":0,
			"source":1
		},
		{
			"sampler":0,
			"source":2
		},
		{
			"sampler":0,
			"source":3
		},
		{
			"sampler":0,
			"source":4
		},
		{
			"sampler":0,
			"source":5
		},
		{
			"sampler":0,
			"source":6
		},
		{
			"sampler":0,
			"source":7
		},
		{
			"sampler":0,
			"source":8
		},
		{
			"sampler":0,
			"source":0
		},
		{
			"sampler":0,
			"source":9
		},
		{
			"sampler":0,
			"source":2
		},
		{
			"sampler":0,
			"source":10
		},
		{
			"sampler":0,
			"source":11
		},
		{
			"sampler":0,
			"source":12
		},
		{
			"sampler":0,
			"source":10
		},
		{
			"sampler":0,
			"source":11
		},
		{
			"sampler":0,
			"source":12
		},
		{
			"sampler":0,
			"source":6
		},
		{
			"sampler":0,
			"source":7
		},
		{
			"sampler":0,
			"source":8
		}
	],
	"images":[
		{
			"mimeType":"image/png",
			"name":"p_wall_2_n",
			"uri":"p_wall_2_n.png"
		},
		{
			"mimeType":"image/png",
			"name":"p_wall_2_bc",
			"uri":"p_wall_2_bc.png"
		},
		{
			"mimeType":"image/png",
			"name":"p_wall_2_r",
			"uri":"p_wall_2_r.png"
		},
		{
			"mimeType":"image/png",
			"name":"Trimsheet_low_DefaultMaterial_Normal",
			"uri":"Trimsheet_low_DefaultMaterial_Normal.png"
		},
		{
			"mimeType":"image/png",
			"name":"Trimsheet_low_DefaultMaterial_BaseColor",
			"uri":"Trimsheet_low_DefaultMaterial_BaseColor.png"
		},
		{
			"mimeType":"image/png",
			"name":"Trimsheet_low_DefaultMaterial_Metallic-Trimsheet_low_DefaultMaterial_Roughness",
			"uri":"Trimsheet_low_DefaultMaterial_Metallic-Trimsheet_low_DefaultMaterial_Roughness.png"
		},
		{
			"mimeType":"image/png",
			"name":"P_Vallas_n",
			"uri":"P_Vallas_n.png"
		},
		{
			"mimeType":"image/png",
			"name":"P_Vallas_bc",
			"uri":"P_Vallas_bc.png"
		},
		{
			"mimeType":"image/png",
			"name":"P_Vallas_m-P_Vallas_r",
			"uri":"P_Vallas_m-P_Vallas_r.png"
		},
		{
			"mimeType":"image/png",
			"name":"p_suelo_1_bc",
			"uri":"p_suelo_1_bc.png"
		},
		{
			"mimeType":"image/png",
			"name":"P_Banco_n",
			"uri":"P_Banco_n.png"
		},
		{
			"mimeType":"image/png",
			"name":"P_Banco_bc",
			"uri":"P_Banco_bc.png"
		},
		{
			"mimeType":"image/png",
			"name":"P_Banco_m-P_Banco_r",
			"uri":"P_Banco_m-P_Banco_r.png"
		}
	],
	"accessors":[
		{
			"bufferView":0,
			"componentType":5126,
			"count":360,
			"max":[
				1.0499999523162842,
				0.6930968761444092,
				4.0025634765625
			],
			"min":[
				-1.0499999523162842,
				-0.6041154265403748,
				-1.0499999523162842
			],
			"type":"VEC3"
		},
		{
			"bufferView":1,
			"componentType":5126,
			"count":360,
			"type":"VEC3"
		},
		{
			"bufferView":2,
			"componentType":5126,
			"count":360,
			"type":"VEC2"
		},
		{
			"bufferView":3,
			"componentType":5123,
			"count":1056,
			"type":"SCALAR"
		},
		{
			"bufferView":4,
			"componentType":5126,
			"count":23698,
			"max":[
				0.791572630405426,
				0.7031092047691345,
				4.026403427124023
			],
			"min":[
				-1.0738400220870972,
				-0.07632123678922653,
				-1.073839783668518
			],
			"type":"VEC3"
		},
		{
			"bufferView":5,
			"componentType":5126,
			"count":23698,
			"type":"VEC3"
		},
		{
			"bufferView":6,
			"componentType":5126,
			"count":23698,
			"type":"VEC2"
		},
		{
			"bufferView":7,
			"componentType":5123,
			"count":71154,
			"type":"SCALAR"
		},
		{
			"bufferView":8,
			"componentType":5126,
			"count":46374,
			"max":[
				0.45873698592185974,
				0.21056737005710602,
				2.5668575763702393
			],
			"min":[
				-0.4685574769973755,
				-0.010627763345837593,
				0.8527069687843323
			],
			"type":"VEC3"
		},
		{
			"bufferView":9,
			"componentType":5126,
			"count":46374,
			"type":"VEC3"
		},
		{
			"bufferView":10,
			"componentType":5126,
			"count":46374,
			"type":"VEC2"
		},
		{
			"bufferView":11,
			"componentType":5123,
			"count":92304,
			"type":"SCALAR"
		},
		{
			"bufferView":12,
			"componentType":5126,
			"count":56,
			"max":[
				1,
				0,
				3.9525632858276367
			],
			"min":[
				-1,
				0,
				-0.9999997615814209
			],
			"type":"VEC3"
		},
		{
			"bufferView":13,
			"componentType":5126,
			"count":56,
			"type":"VEC3"
		},
		{
			"bufferView":14,
			"componentType":5126,
			"count":56,
			"type":"VEC2"
		},
		{
			"bufferView":15,
			"componentType":5123,
			"count":162,
			"type":"SCALAR"
		},
		{
			"bufferView":16,
			"componentType":5126,
			"count":386,
			"max":[
				0.3859083950519562,
				0.004501041024923325,
				3.208277940750122
			],
			"min":[
				-0.3859083950519562,
				-0.004368926864117384,
				-0.3842919170856476
			],
			"type":"VEC3"
		},
		{
			"bufferView":17,
			"componentType":5126,
			"count":386,
			"type":"VEC3"
		},
		{
			"bufferView":18,
			"componentType":5126,
			"count":386,
			"type":"VEC2"
		},
		{
			"bufferView":19,
			"componentType":5123,
			"count":1104,
			"type":"SCALAR"
		},
		{
			"bufferView":20,
			"componentType":5126,
			"count":24066,
			"max":[
				0.39525920152664185,
				0.03123234026134014,
				2.434694290161133
			],
			"min":[
				-0.38992875814437866,
				-7.805573841324076e-05,
				1.081365942955017
			],
			"type":"VEC3"
		},
		{
			"bufferView":21,
			"componentType":5126,
			"count":24066,
			"type":"VEC3"
		},
		{
			"bufferView":22,
			"componentType":5126,
			"count":24066,
			"type":"VEC2"
		},
		{
			"bufferView":23,
			"componentType":5123,
			"count":73080,
			"type":"SCALAR"
		},
		{
			"bufferView":24,
			"componentType":5126,
			"count":36792,
			"max":[
				0.39665889739990234,
				0.03136830031871796,
				2.436394691467285
			],
			"min":[
				-0.40112629532814026,
				-0.001843620091676712,
				1.0813876390457153
			],
			"type":"VEC3"
		},
		{
			"bufferView":25,
			"componentType":5126,
			"count":36792,
			"type":"VEC3"
		},
		{
			"bufferView":26,
			"componentType":5126,
			"count":36792,
			"type":"VEC2"
		},
		{
			"bufferView":27,
			"componentType":5123,
			"count":106872,
			"type":"SCALAR"
		},
		{
			"bufferView":28,
			"componentType":5126,
			"count":2532,
			"max":[
				0.43771597743034363,
				0.19292835891246796,
				2.5608301162719727
			],
			"min":[
				-0.44546744227409363,
				-5.453355544915439e-10,
				0.9093153476715088
			],
			"type":"VEC3"
		},
		{
			"bufferView":29,
			"componentType":5126,
			"count":2532,
			"type":"VEC3"
		},
		{
			"bufferView":30,
			"componentType":5126,
			"count":2532,
			"type":"VEC2"
		},
		{
			"bufferView":31,
			"componentType":5123,
			"count":5796,
			"type":"SCALAR"
		}
	],
	"bufferViews":[
		{
			"buffer":0,
			"byteLength":4320,
			"byteOffset":0,
			"target":34962
		},
		{
			"buffer":0,
			"byteLength":4320,
			"byteOffset":4320,
			"target":34962
		},
		{
			"buffer":0,
			"byteLength":2880,
			"byteOffset":8640,
			"target":34962
		},
		{
			"buffer":0,
			"byteLength":2112,
			"byteOffset":11520,
			"target":34963
		},
		{
			"buffer":0,
			"byteLength":284376,
			"byteOffset":13632,
			"target":34962
		},
		{
			"buffer":0,
			"byteLength":284376,
			"byteOffset":298008,
			"target":34962
		},
		{
			"buffer":0,
			"byteLength":189584,
			"byteOffset":582384,
			"target":34962
		},
		{
			"buffer":0,
			"byteLength":142308,
			"byteOffset":771968,
			"target":34963
		},
		{
			"buffer":0,
			"byteLength":556488,
			"byteOffset":914276,
			"target":34962
		},
		{
			"buffer":0,
			"byteLength":556488,
			"byteOffset":1470764,
			"target":34962
		},
		{
			"buffer":0,
			"byteLength":370992,
			"byteOffset":2027252,
			"target":34962
		},
		{
			"buffer":0,
			"byteLength":184608,
			"byteOffset":2398244,
			"target":34963
		},
		{
			"buffer":0,
			"byteLength":672,
			"byteOffset":2582852,
			"target":34962
		},
		{
			"buffer":0,
			"byteLength":672,
			"byteOffset":2583524,
			"target":34962
		},
		{
			"buffer":0,
			"byteLength":448,
			"byteOffset":2584196,
			"target":34962
		},
		{
			"buffer":0,
			"byteLength":324,
			"byteOffset":2584644,
			"target":34963
		},
		{
			"buffer":0,
			"byteLength":4632,
			"byteOffset":2584968,
			"target":34962
		},
		{
			"buffer":0,
			"byteLength":4632,
			"byteOffset":2589600,
			"target":34962
		},
		{
			"buffer":0,
			"byteLength":3088,
			"byteOffset":2594232,
			"target":34962
		},
		{
			"buffer":0,
			"byteLength":2208,
			"byteOffset":2597320,
			"target":34963
		},
		{
			"buffer":0,
			"byteLength":288792,
			"byteOffset":2599528,
			"target":34962
		},
		{
			"buffer":0,
			"byteLength":288792,
			"byteOffset":2888320,
			"target":34962
		},
		{
			"buffer":0,
			"byteLength":192528,
			"byteOffset":3177112,
			"target":34962
		},
		{
			"buffer":0,
			"byteLength":146160,
			"byteOffset":3369640,
			"target":34963
		},
		{
			"buffer":0,
			"byteLength":441504,
			"byteOffset":3515800,
			"target":34962
		},
		{
			"buffer":0,
			"byteLength":441504,
			"byteOffset":3957304,
			"target":34962
		},
		{
			"buffer":0,
			"byteLength":294336,
			"byteOffset":4398808,
			"target":34962
		},
		{
			"buffer":0,
			"byteLength":213744,
			"byteOffset":4693144,
			"target":34963
		},
		{
			"buffer":0,
			"byteLength":30384,
			"byteOffset":4906888,
			"target":34962
		},
		{
			"buffer":0,
			"byteLength":30384,
			"byteOffset":4937272,
			"target":34962
		},
		{
			"buffer":0,
			"byteLength":20256,
			"byteOffset":4967656,
			"target":34962
		},
		{
			"buffer":0,
			"byteLength":11592,
			"byteOffset":4987912,
			"target":34963
		}
	],
	"samplers":[
		{
			"magFilter":9729,
			"minFilter":9987
		}
	],
	"buffers":[
		{
			"byteLength":4999504,
			"uri":"level3blockoutGLTF.bin"
		}
	]
}
