<?xml version="1.0" standalone="no"?>
<!DOCTYPE svg PUBLIC "-//W3C//DTD SVG 20010904//EN"
 "http://www.w3.org/TR/2001/REC-SVG-20010904/DTD/svg10.dtd">
<svg version="1.0" xmlns="http://www.w3.org/2000/svg"
 width="1024.000000pt" height="1024.000000pt" viewBox="0 0 1024.000000 1024.000000"
 preserveAspectRatio="xMidYMid meet">

<g transform="translate(0.000000,1024.000000) scale(0.100000,-0.100000)"
fill="#000000" stroke="none">
<path d="M5060 5967 c-26 -7 -62 -23 -80 -34 -19 -12 -297 -284 -616 -605
-526 -528 -583 -588 -598 -632 -45 -139 14 -292 139 -359 55 -30 201 -31 260
-3 26 13 202 180 503 480 l462 461 463 -461 c518 -517 495 -499 637 -499 87 1
133 20 191 82 61 64 83 117 83 203 0 62 -5 84 -26 125 -39 74 -1165 1196
-1228 1224 -60 26 -135 33 -190 18z"/>
</g>
</svg>
