<?xml version="1.0" standalone="no"?>
<!DOCTYPE svg PUBLIC "-//W3C//DTD SVG 20010904//EN"
 "http://www.w3.org/TR/2001/REC-SVG-20010904/DTD/svg10.dtd">
<svg version="1.0" xmlns="http://www.w3.org/2000/svg"
 width="500.000000pt" height="500.000000pt" viewBox="0 0 500.000000 500.000000"
 preserveAspectRatio="xMidYMid meet">

<g transform="translate(0.000000,500.000000) scale(0.100000,-0.100000)"
fill="#000000" stroke="none">
<path d="M1890 4209 c-470 -24 -612 -39 -859 -94 -270 -61 -436 -127 -584
-233 -110 -79 -125 -108 -138 -264 -6 -68 -11 -285 -12 -483 -1 -343 0 -368
26 -545 41 -277 55 -336 99 -425 76 -150 146 -238 268 -335 94 -74 195 -139
274 -175 28 -12 95 -43 148 -69 53 -25 101 -46 106 -46 10 0 22 -125 22 -227
0 -36 -4 -63 -10 -63 -5 0 -52 7 -102 16 -189 33 -352 2 -451 -85 -88 -78
-142 -302 -127 -523 3 -48 12 -93 19 -102 20 -24 101 -44 220 -56 189 -18 715
-29 975 -20 250 9 321 17 407 47 41 14 50 14 95 0 77 -24 115 -26 694 -33 617
-7 690 -3 804 49 l68 31 -7 125 c-12 231 -21 295 -51 352 -47 94 -73 120 -160
160 -107 51 -179 69 -296 76 l-98 6 -6 35 c-10 50 3 191 19 216 8 12 55 38
104 59 184 77 353 188 478 313 111 111 163 207 196 362 13 62 24 65 99 27 304
-154 686 24 775 360 20 77 20 223 0 300 -44 168 -184 326 -340 384 -110 41
-269 44 -374 7 -56 -21 -78 -20 -85 2 -3 9 -10 94 -16 187 -16 250 -28 289
-102 341 -144 104 -418 197 -773 263 -195 36 -318 48 -630 61 -267 11 -444 11
-675 -1z m910 -89 c464 -31 977 -170 1141 -310 40 -34 49 -93 57 -369 6 -199
9 -225 25 -235 14 -9 23 -5 51 26 104 113 332 133 504 44 61 -32 158 -133 194
-203 49 -94 63 -153 63 -258 -1 -156 -47 -269 -154 -376 -96 -96 -174 -131
-306 -137 -87 -4 -109 -1 -170 20 -39 13 -94 41 -124 61 -89 61 -131 46 -131
-48 0 -53 -44 -180 -87 -248 -193 -312 -756 -569 -1353 -618 -69 -5 -163 -14
-210 -18 -112 -12 -394 3 -567 30 -155 23 -386 79 -447 109 -23 10 -77 33
-121 50 -268 104 -512 282 -624 454 -60 92 -106 228 -130 390 -12 75 -20 140
-17 144 2 4 -3 61 -11 127 -11 82 -16 222 -17 445 -1 357 8 488 39 537 26 41
135 128 205 163 133 67 404 142 647 179 350 53 1067 72 1543 41z m330 -2700
c-5 -58 -6 -117 -3 -133 4 -21 0 -32 -20 -47 -56 -44 -119 -212 -103 -275 5
-21 12 -25 41 -25 37 0 65 28 65 65 0 27 38 126 57 147 34 38 97 51 209 44
103 -7 189 -29 178 -47 -3 -5 1 -6 9 -3 19 7 123 -100 155 -161 26 -49 27 -55
26 -213 -1 -90 -4 -165 -7 -168 -6 -6 -110 -18 -142 -16 -11 1 -65 0 -120 -1
-55 -1 -311 -1 -570 0 -372 2 -486 5 -549 17 -43 9 -81 18 -84 21 -4 4 17 747
22 752 1 1 66 6 146 13 80 6 190 17 245 26 90 13 367 80 426 103 13 5 25 8 25
7 1 0 -2 -48 -6 -106z m-1654 36 c21 -3 82 -12 134 -20 166 -27 329 -47 419
-52 47 -2 101 -7 120 -10 l33 -5 -7 -282 c-4 -155 -8 -324 -9 -375 -3 -112 -2
-111 -141 -138 -170 -32 -948 -26 -1249 10 -78 10 -133 21 -138 28 -4 7 -6 76
-4 153 4 122 8 152 35 236 33 104 46 120 141 170 42 22 55 24 183 22 121 -2
143 -5 183 -25 60 -30 108 -84 146 -166 17 -37 34 -74 38 -82 10 -21 54 -24
74 -5 9 9 16 26 16 38 0 26 -61 157 -89 193 -14 18 -20 48 -25 131 -4 60 -9
136 -12 170 l-6 62 59 -24 c33 -14 77 -27 99 -29z"/>
<path d="M2030 4035 c-14 -2 -99 -9 -190 -15 -575 -39 -818 -76 -1048 -161
-176 -64 -276 -151 -258 -223 14 -57 133 -136 261 -174 83 -25 286 -74 424
-102 170 -35 289 -49 515 -61 252 -13 977 -6 1101 10 44 6 114 11 155 12 86 1
335 48 454 86 246 77 376 171 376 271 0 64 -114 136 -320 202 -253 80 -476
119 -808 140 -166 11 -620 21 -662 15z m809 -119 c312 -35 406 -54 616 -123
155 -50 253 -95 262 -120 5 -11 -8 -30 -43 -60 -55 -49 -48 -49 -189 -9 -178
50 -455 110 -590 127 -38 5 -113 15 -165 23 -52 8 -176 18 -275 23 -367 15
-647 7 -880 -27 -71 -10 -155 -22 -185 -25 -30 -4 -71 -10 -90 -15 -19 -5 -60
-11 -90 -14 -53 -5 -243 -44 -325 -67 -22 -6 -57 -21 -78 -32 l-38 -21 -67 34
c-37 19 -67 41 -67 49 0 26 126 90 268 135 176 56 315 81 561 102 105 8 252
22 326 29 181 18 858 12 1049 -9z"/>
<path d="M4284 3076 c-135 -33 -224 -142 -224 -276 0 -80 22 -129 81 -189 63
-62 89 -72 200 -78 121 -7 167 7 233 74 59 60 79 103 84 181 10 140 -88 260
-236 291 -63 13 -72 13 -138 -3z m193 -67 c106 -51 150 -175 108 -301 -40
-116 -189 -170 -329 -118 -69 26 -110 72 -132 146 -59 204 154 368 353 273z"/>
<path d="M1402 2844 c-46 -24 -141 -120 -158 -160 -18 -44 -10 -78 28 -109 40
-34 83 -32 144 6 130 82 169 170 107 239 -35 37 -77 46 -121 24z"/>
<path d="M2878 2844 c-30 -16 -58 -61 -58 -94 0 -73 147 -200 230 -200 47 0
90 47 90 98 0 34 -7 49 -50 95 -58 63 -134 117 -164 117 -12 -1 -33 -7 -48
-16z"/>
<path d="M1853 2379 c-21 -21 -15 -48 15 -78 44 -44 227 -85 347 -78 96 6 231
37 280 66 33 19 45 62 24 87 -15 18 -38 15 -144 -15 -99 -28 -272 -28 -375 0
-107 29 -133 32 -147 18z"/>
<path d="M3363 1085 c-3 -42 8 -55 58 -66 24 -6 55 -17 67 -25 27 -18 61 -87
62 -125 0 -14 8 -33 18 -42 69 -62 115 71 56 159 -63 95 -135 138 -220 132
-35 -3 -39 -6 -41 -33z"/>
<path d="M3572 784 c-54 -37 -7 -113 53 -86 33 15 35 64 3 86 -12 9 -25 16
-28 16 -3 0 -16 -7 -28 -16z"/>
<path d="M885 1124 c-46 -24 -83 -63 -110 -118 -41 -82 -31 -136 26 -136 32 0
42 12 57 65 6 22 27 56 46 74 33 32 37 33 65 21 26 -10 35 -10 56 4 83 55 -47
139 -140 90z"/>
<path d="M715 790 c-27 -44 -4 -90 43 -90 38 0 57 33 42 71 -10 24 -18 29 -46
29 -18 0 -36 -5 -39 -10z"/>
</g>
</svg>
