{
	"asset":{
		"generator":"Khronos glTF Blender I/O v4.4.55",
		"version":"2.0"
	},
	"extensionsUsed":[
		"KHR_materials_specular"
	],
	"scene":0,
	"scenes":[
		{
			"name":"Scene",
			"nodes":[
				0,
				1
			]
		}
	],
	"nodes":[
		{
			"mesh":0,
			"name":"Scrap, doors, levers",
			"rotation":[
				0,
				0.9829269647598267,
				0,
				0.18399614095687866
			],
			"translation":[
				10.253166198730469,
				0,
				-15.944704055786133
			]
		},
		{
			"mesh":1,
			"name":"Boxes, barrels",
			"rotation":[
				0,
				-0.34658822417259216,
				0,
				0.9380174875259399
			],
			"translation":[
				36.57368087768555,
				1.0139884948730469,
				-28.884647369384766
			]
		}
	],
	"materials":[
		{
			"doubleSided":true,
			"extensions":{
				"KHR_materials_specular":{
					"specularColorFactor":[
						2.0,
						2.0,
						2.0
					]
				}
			},
			"name":"Scrap1.002",
			"normalTexture":{
				"index":0
			},
			"pbrMetallicRoughness":{
				"baseColorTexture":{
					"index":1
				},
				"metallicRoughnessTexture":{
					"index":2
				}
			}
		},
		{
			"doubleSided":true,
			"name":"Palanca.001",
			"normalTexture":{
				"index":3
			},
			"pbrMetallicRoughness":{
				"baseColorTexture":{
					"index":4
				},
				"metallicRoughnessTexture":{
					"index":5
				}
			}
		},
		{
			"doubleSided":true,
			"name":"Material.008",
			"normalTexture":{
				"index":6
			},
			"pbrMetallicRoughness":{
				"baseColorTexture":{
					"index":7
				},
				"metallicRoughnessTexture":{
					"index":8
				}
			}
		},
		{
			"doubleSided":true,
			"name":"Material.018",
			"pbrMetallicRoughness":{
				"baseColorTexture":{
					"index":9
				},
				"metallicRoughnessTexture":{
					"index":10
				}
			}
		},
		{
			"doubleSided":true,
			"name":"Material.002",
			"normalTexture":{
				"index":11
			},
			"pbrMetallicRoughness":{
				"baseColorTexture":{
					"index":12
				},
				"metallicRoughnessTexture":{
					"index":13
				}
			}
		},
		{
			"doubleSided":true,
			"name":"Material.007",
			"pbrMetallicRoughness":{
				"baseColorTexture":{
					"index":14
				},
				"metallicRoughnessTexture":{
					"index":15
				}
			}
		},
		{
			"doubleSided":true,
			"name":"barrelMAT.001",
			"normalTexture":{
				"index":16
			},
			"pbrMetallicRoughness":{
				"baseColorTexture":{
					"index":17
				},
				"metallicRoughnessTexture":{
					"index":18
				}
			}
		},
		{
			"doubleSided":true,
			"name":"barrelMAT.002",
			"normalTexture":{
				"index":19
			},
			"pbrMetallicRoughness":{
				"baseColorTexture":{
					"index":20
				},
				"metallicRoughnessTexture":{
					"index":21
				}
			}
		}
	],
	"meshes":[
		{
			"name":"Cube.009",
			"primitives":[
				{
					"attributes":{
						"POSITION":0,
						"NORMAL":1,
						"TEXCOORD_0":2,
						"COLOR_0":3,
						"COLOR_1":4,
						"COLOR_2":5
					},
					"indices":6,
					"material":0
				},
				{
					"attributes":{
						"POSITION":7,
						"NORMAL":8,
						"TEXCOORD_0":9,
						"COLOR_0":10,
						"COLOR_1":11,
						"COLOR_2":12
					},
					"indices":13,
					"material":1
				},
				{
					"attributes":{
						"POSITION":14,
						"NORMAL":15,
						"TEXCOORD_0":16,
						"COLOR_0":17,
						"COLOR_1":18,
						"COLOR_2":19
					},
					"indices":20,
					"material":2
				}
			]
		},
		{
			"name":"Cube.134",
			"primitives":[
				{
					"attributes":{
						"POSITION":21,
						"NORMAL":22,
						"TEXCOORD_0":23
					},
					"indices":24,
					"material":3
				},
				{
					"attributes":{
						"POSITION":25,
						"NORMAL":26,
						"TEXCOORD_0":27
					},
					"indices":28,
					"material":4
				},
				{
					"attributes":{
						"POSITION":29,
						"NORMAL":30,
						"TEXCOORD_0":31
					},
					"indices":32,
					"material":5
				},
				{
					"attributes":{
						"POSITION":33,
						"NORMAL":34,
						"TEXCOORD_0":35
					},
					"indices":36,
					"material":6
				},
				{
					"attributes":{
						"POSITION":37,
						"NORMAL":38,
						"TEXCOORD_0":39
					},
					"indices":40,
					"material":7
				}
			]
		}
	],
	"textures":[
		{
			"sampler":0,
			"source":0
		},
		{
			"sampler":0,
			"source":1
		},
		{
			"sampler":0,
			"source":2
		},
		{
			"sampler":0,
			"source":3
		},
		{
			"sampler":0,
			"source":4
		},
		{
			"sampler":0,
			"source":5
		},
		{
			"sampler":0,
			"source":6
		},
		{
			"sampler":0,
			"source":7
		},
		{
			"sampler":0,
			"source":8
		},
		{
			"sampler":0,
			"source":9
		},
		{
			"sampler":0,
			"source":10
		},
		{
			"sampler":0,
			"source":11
		},
		{
			"sampler":0,
			"source":12
		},
		{
			"sampler":0,
			"source":13
		},
		{
			"sampler":0,
			"source":14
		},
		{
			"sampler":0,
			"source":15
		},
		{
			"sampler":0,
			"source":16
		},
		{
			"sampler":0,
			"source":17
		},
		{
			"sampler":0,
			"source":18
		},
		{
			"sampler":0,
			"source":19
		},
		{
			"sampler":0,
			"source":20
		},
		{
			"sampler":0,
			"source":21
		}
	],
	"images":[
		{
			"mimeType":"image/png",
			"name":"P_Scrap_1_n",
			"uri":"P_Scrap_1_n.png"
		},
		{
			"mimeType":"image/png",
			"name":"P_Scrap_1_bc",
			"uri":"P_Scrap_1_bc.png"
		},
		{
			"mimeType":"image/png",
			"name":"P_Scrap_1_m-P_Scrap_1_r",
			"uri":"P_Scrap_1_m-P_Scrap_1_r.png"
		},
		{
			"mimeType":"image/png",
			"name":"P_Lever_n",
			"uri":"P_Lever_n.png"
		},
		{
			"mimeType":"image/png",
			"name":"P_Lever_bc",
			"uri":"P_Lever_bc.png"
		},
		{
			"mimeType":"image/png",
			"name":"P_Lever_m-P_Lever_r",
			"uri":"P_Lever_m-P_Lever_r.png"
		},
		{
			"mimeType":"image/png",
			"name":"P_puertalvl1_n",
			"uri":"P_puertalvl1_n.png"
		},
		{
			"mimeType":"image/png",
			"name":"P_puertalvl1_bc",
			"uri":"P_puertalvl1_bc.png"
		},
		{
			"mimeType":"image/png",
			"name":"P_puertalvl1_m-P_puertalvl1_r",
			"uri":"P_puertalvl1_m-P_puertalvl1_r.png"
		},
		{
			"mimeType":"image/png",
			"name":"P_Box_1_bc",
			"uri":"P_Box_1_bc.png"
		},
		{
			"mimeType":"image/png",
			"name":"P_Box_1_m-P_Box_1_r",
			"uri":"P_Box_1_m-P_Box_1_r.png"
		},
		{
			"mimeType":"image/png",
			"name":"prop_Box_v01_Normal",
			"uri":"prop_Box_v01_Normal.png"
		},
		{
			"mimeType":"image/png",
			"name":"prop_Box_v01_BaseColor",
			"uri":"prop_Box_v01_BaseColor.png"
		},
		{
			"mimeType":"image/png",
			"name":"prop_Box_v01_Metallic-prop_Box_v01_Roughness",
			"uri":"prop_Box_v01_Metallic-prop_Box_v01_Roughness.png"
		},
		{
			"mimeType":"image/png",
			"name":"P_Box_2_bc_png",
			"uri":"P_Box_2_bc_png.png"
		},
		{
			"mimeType":"image/png",
			"name":"P_Box_2_m_png-P_Box_2_r_png",
			"uri":"P_Box_2_m_png-P_Box_2_r_png.png"
		},
		{
			"mimeType":"image/png",
			"name":"P_Barrel_1_n",
			"uri":"P_Barrel_1_n.png"
		},
		{
			"mimeType":"image/png",
			"name":"P_Barrel_1_bc",
			"uri":"P_Barrel_1_bc.png"
		},
		{
			"mimeType":"image/png",
			"name":"P_Barrel_1_m-P_Barrel_1_r",
			"uri":"P_Barrel_1_m-P_Barrel_1_r.png"
		},
		{
			"mimeType":"image/png",
			"name":"P_Barrel_1_n_png",
			"uri":"P_Barrel_1_n_png.png"
		},
		{
			"mimeType":"image/png",
			"name":"P_Barrel_1_bc_png",
			"uri":"P_Barrel_1_bc_png.png"
		},
		{
			"mimeType":"image/png",
			"name":"P_Barrel_1_m_png-P_Barrel_1_r_png",
			"uri":"P_Barrel_1_m_png-P_Barrel_1_r_png.png"
		}
	],
	"accessors":[
		{
			"bufferView":0,
			"componentType":5126,
			"count":14685,
			"max":[
				71.29364776611328,
				7.588738441467285,
				313.72125244140625
			],
			"min":[
				-161.89878845214844,
				-0.3048197627067566,
				-5.048274517059326
			],
			"type":"VEC3"
		},
		{
			"bufferView":1,
			"componentType":5126,
			"count":14685,
			"type":"VEC3"
		},
		{
			"bufferView":2,
			"componentType":5126,
			"count":14685,
			"type":"VEC2"
		},
		{
			"bufferView":3,
			"componentType":5121,
			"count":14685,
			"normalized":true,
			"type":"VEC4"
		},
		{
			"bufferView":4,
			"componentType":5123,
			"count":14685,
			"normalized":true,
			"type":"VEC4"
		},
		{
			"bufferView":5,
			"componentType":5123,
			"count":14685,
			"normalized":true,
			"type":"VEC4"
		},
		{
			"bufferView":6,
			"componentType":5123,
			"count":57024,
			"type":"SCALAR"
		},
		{
			"bufferView":7,
			"componentType":5126,
			"count":3096,
			"max":[
				9.498127937316895,
				1.5943477153778076,
				196.8917694091797
			],
			"min":[
				-113.58794403076172,
				-0.004511213395744562,
				17.104473114013672
			],
			"type":"VEC3"
		},
		{
			"bufferView":8,
			"componentType":5126,
			"count":3096,
			"type":"VEC3"
		},
		{
			"bufferView":9,
			"componentType":5126,
			"count":3096,
			"type":"VEC2"
		},
		{
			"bufferView":10,
			"componentType":5121,
			"count":3096,
			"normalized":true,
			"type":"VEC4"
		},
		{
			"bufferView":11,
			"componentType":5123,
			"count":3096,
			"normalized":true,
			"type":"VEC4"
		},
		{
			"bufferView":12,
			"componentType":5123,
			"count":3096,
			"normalized":true,
			"type":"VEC4"
		},
		{
			"bufferView":13,
			"componentType":5123,
			"count":10134,
			"type":"SCALAR"
		},
		{
			"bufferView":14,
			"componentType":5126,
			"count":540,
			"max":[
				17.009292602539062,
				4.034099578857422,
				183.5120849609375
			],
			"min":[
				-50.09523010253906,
				-1.1300352298349026e-06,
				6.750615119934082
			],
			"type":"VEC3"
		},
		{
			"bufferView":15,
			"componentType":5126,
			"count":540,
			"type":"VEC3"
		},
		{
			"bufferView":16,
			"componentType":5126,
			"count":540,
			"type":"VEC2"
		},
		{
			"bufferView":17,
			"componentType":5121,
			"count":540,
			"normalized":true,
			"type":"VEC4"
		},
		{
			"bufferView":18,
			"componentType":5123,
			"count":540,
			"normalized":true,
			"type":"VEC4"
		},
		{
			"bufferView":19,
			"componentType":5123,
			"count":540,
			"normalized":true,
			"type":"VEC4"
		},
		{
			"bufferView":20,
			"componentType":5123,
			"count":828,
			"type":"SCALAR"
		},
		{
			"bufferView":21,
			"componentType":5126,
			"count":7203,
			"max":[
				20.33746910095215,
				1.2859678268432617,
				31.821422576904297
			],
			"min":[
				-88.38925170898438,
				-1.0196776390075684,
				-140.03866577148438
			],
			"type":"VEC3"
		},
		{
			"bufferView":22,
			"componentType":5126,
			"count":7203,
			"type":"VEC3"
		},
		{
			"bufferView":23,
			"componentType":5126,
			"count":7203,
			"type":"VEC2"
		},
		{
			"bufferView":24,
			"componentType":5123,
			"count":11502,
			"type":"SCALAR"
		},
		{
			"bufferView":25,
			"componentType":5126,
			"count":8922,
			"max":[
				21.542251586914062,
				3.9581446647644043,
				-5.046731472015381
			],
			"min":[
				-78.25379943847656,
				-1.0411070585250854,
				-298.253662109375
			],
			"type":"VEC3"
		},
		{
			"bufferView":26,
			"componentType":5126,
			"count":8922,
			"type":"VEC3"
		},
		{
			"bufferView":27,
			"componentType":5126,
			"count":8922,
			"type":"VEC2"
		},
		{
			"bufferView":28,
			"componentType":5123,
			"count":12354,
			"type":"SCALAR"
		},
		{
			"bufferView":29,
			"componentType":5126,
			"count":64368,
			"max":[
				29.902790069580078,
				1.0004452466964722,
				-267.88177490234375
			],
			"min":[
				-3.3808436393737793,
				-1.015044927597046,
				-294.9336242675781
			],
			"type":"VEC3"
		},
		{
			"bufferView":30,
			"componentType":5126,
			"count":64368,
			"type":"VEC3"
		},
		{
			"bufferView":31,
			"componentType":5126,
			"count":64368,
			"type":"VEC2"
		},
		{
			"bufferView":32,
			"componentType":5123,
			"count":73800,
			"type":"SCALAR"
		},
		{
			"bufferView":33,
			"componentType":5126,
			"count":64032,
			"max":[
				40.585269927978516,
				3.753472328186035,
				31.22580909729004
			],
			"min":[
				-88.64236450195312,
				-1.0678739547729492,
				-310.6101989746094
			],
			"type":"VEC3"
		},
		{
			"bufferView":34,
			"componentType":5126,
			"count":64032,
			"type":"VEC3"
		},
		{
			"bufferView":35,
			"componentType":5126,
			"count":64032,
			"type":"VEC2"
		},
		{
			"bufferView":36,
			"componentType":5123,
			"count":210240,
			"type":"SCALAR"
		},
		{
			"bufferView":37,
			"componentType":5126,
			"count":23277,
			"max":[
				40.185890197753906,
				2.945148229598999,
				-53.83075714111328
			],
			"min":[
				-67.13516998291016,
				-1.0868138074874878,
				-303.8499450683594
			],
			"type":"VEC3"
		},
		{
			"bufferView":38,
			"componentType":5126,
			"count":23277,
			"type":"VEC3"
		},
		{
			"bufferView":39,
			"componentType":5126,
			"count":23277,
			"type":"VEC2"
		},
		{
			"bufferView":40,
			"componentType":5123,
			"count":90012,
			"type":"SCALAR"
		}
	],
	"bufferViews":[
		{
			"buffer":0,
			"byteLength":176220,
			"byteOffset":0,
			"target":34962
		},
		{
			"buffer":0,
			"byteLength":176220,
			"byteOffset":176220,
			"target":34962
		},
		{
			"buffer":0,
			"byteLength":117480,
			"byteOffset":352440,
			"target":34962
		},
		{
			"buffer":0,
			"byteLength":58740,
			"byteOffset":469920,
			"target":34962
		},
		{
			"buffer":0,
			"byteLength":117480,
			"byteOffset":528660,
			"target":34962
		},
		{
			"buffer":0,
			"byteLength":117480,
			"byteOffset":646140,
			"target":34962
		},
		{
			"buffer":0,
			"byteLength":114048,
			"byteOffset":763620,
			"target":34963
		},
		{
			"buffer":0,
			"byteLength":37152,
			"byteOffset":877668,
			"target":34962
		},
		{
			"buffer":0,
			"byteLength":37152,
			"byteOffset":914820,
			"target":34962
		},
		{
			"buffer":0,
			"byteLength":24768,
			"byteOffset":951972,
			"target":34962
		},
		{
			"buffer":0,
			"byteLength":12384,
			"byteOffset":976740,
			"target":34962
		},
		{
			"buffer":0,
			"byteLength":24768,
			"byteOffset":989124,
			"target":34962
		},
		{
			"buffer":0,
			"byteLength":24768,
			"byteOffset":1013892,
			"target":34962
		},
		{
			"buffer":0,
			"byteLength":20268,
			"byteOffset":1038660,
			"target":34963
		},
		{
			"buffer":0,
			"byteLength":6480,
			"byteOffset":1058928,
			"target":34962
		},
		{
			"buffer":0,
			"byteLength":6480,
			"byteOffset":1065408,
			"target":34962
		},
		{
			"buffer":0,
			"byteLength":4320,
			"byteOffset":1071888,
			"target":34962
		},
		{
			"buffer":0,
			"byteLength":2160,
			"byteOffset":1076208,
			"target":34962
		},
		{
			"buffer":0,
			"byteLength":4320,
			"byteOffset":1078368,
			"target":34962
		},
		{
			"buffer":0,
			"byteLength":4320,
			"byteOffset":1082688,
			"target":34962
		},
		{
			"buffer":0,
			"byteLength":1656,
			"byteOffset":1087008,
			"target":34963
		},
		{
			"buffer":0,
			"byteLength":86436,
			"byteOffset":1088664,
			"target":34962
		},
		{
			"buffer":0,
			"byteLength":86436,
			"byteOffset":1175100,
			"target":34962
		},
		{
			"buffer":0,
			"byteLength":57624,
			"byteOffset":1261536,
			"target":34962
		},
		{
			"buffer":0,
			"byteLength":23004,
			"byteOffset":1319160,
			"target":34963
		},
		{
			"buffer":0,
			"byteLength":107064,
			"byteOffset":1342164,
			"target":34962
		},
		{
			"buffer":0,
			"byteLength":107064,
			"byteOffset":1449228,
			"target":34962
		},
		{
			"buffer":0,
			"byteLength":71376,
			"byteOffset":1556292,
			"target":34962
		},
		{
			"buffer":0,
			"byteLength":24708,
			"byteOffset":1627668,
			"target":34963
		},
		{
			"buffer":0,
			"byteLength":772416,
			"byteOffset":1652376,
			"target":34962
		},
		{
			"buffer":0,
			"byteLength":772416,
			"byteOffset":2424792,
			"target":34962
		},
		{
			"buffer":0,
			"byteLength":514944,
			"byteOffset":3197208,
			"target":34962
		},
		{
			"buffer":0,
			"byteLength":147600,
			"byteOffset":3712152,
			"target":34963
		},
		{
			"buffer":0,
			"byteLength":768384,
			"byteOffset":3859752,
			"target":34962
		},
		{
			"buffer":0,
			"byteLength":768384,
			"byteOffset":4628136,
			"target":34962
		},
		{
			"buffer":0,
			"byteLength":512256,
			"byteOffset":5396520,
			"target":34962
		},
		{
			"buffer":0,
			"byteLength":420480,
			"byteOffset":5908776,
			"target":34963
		},
		{
			"buffer":0,
			"byteLength":279324,
			"byteOffset":6329256,
			"target":34962
		},
		{
			"buffer":0,
			"byteLength":279324,
			"byteOffset":6608580,
			"target":34962
		},
		{
			"buffer":0,
			"byteLength":186216,
			"byteOffset":6887904,
			"target":34962
		},
		{
			"buffer":0,
			"byteLength":180024,
			"byteOffset":7074120,
			"target":34963
		}
	],
	"samplers":[
		{
			"magFilter":9729,
			"minFilter":9987
		}
	],
	"buffers":[
		{
			"byteLength":7254144,
			"uri":"AssetDressingLevel1_breakables.bin"
		}
	]
}
