{
	"asset":{
		"generator":"Khronos glTF Blender I/O v4.4.56",
		"version":"2.0"
	},
	"scene":0,
	"scenes":[
		{
			"name":"Scene",
			"nodes":[
				7
			]
		}
	],
	"nodes":[
		{
			"name":"Cylindre"
		},
		{
			"name":"Plane"
		},
		{
			"name":"Explosion"
		},
		{
			"name":"Explosion.001",
			"translation":[
				0,
				1.5202950239181519,
				0
			]
		},
		{
			"name":"Esfera",
			"rotation":[
				0,
				1.1920928244535389e-07,
				0,
				1
			],
			"scale":[
				1,
				0.9999999403953552,
				1
			],
			"translation":[
				0,
				2.581481695175171,
				0
			]
		},
		{
			"children":[
				0,
				1,
				2,
				3,
				4
			],
			"name":"Root"
		},
		{
			"mesh":0,
			"name":"VFX_Explosion",
			"skin":0
		},
		{
			"children":[
				6,
				5
			],
			"name":"Armature",
			"scale":[
				0.2800188958644867,
				0.2800188958644867,
				0.2800188958644867
			]
		}
	],
	"animations":[
		{
			"channels":[
				{
					"sampler":0,
					"target":{
						"node":5,
						"path":"translation"
					}
				},
				{
					"sampler":1,
					"target":{
						"node":5,
						"path":"rotation"
					}
				},
				{
					"sampler":2,
					"target":{
						"node":5,
						"path":"scale"
					}
				},
				{
					"sampler":3,
					"target":{
						"node":0,
						"path":"translation"
					}
				},
				{
					"sampler":4,
					"target":{
						"node":0,
						"path":"rotation"
					}
				},
				{
					"sampler":5,
					"target":{
						"node":0,
						"path":"scale"
					}
				},
				{
					"sampler":6,
					"target":{
						"node":1,
						"path":"translation"
					}
				},
				{
					"sampler":7,
					"target":{
						"node":1,
						"path":"rotation"
					}
				},
				{
					"sampler":8,
					"target":{
						"node":1,
						"path":"scale"
					}
				},
				{
					"sampler":9,
					"target":{
						"node":2,
						"path":"translation"
					}
				},
				{
					"sampler":10,
					"target":{
						"node":2,
						"path":"rotation"
					}
				},
				{
					"sampler":11,
					"target":{
						"node":2,
						"path":"scale"
					}
				},
				{
					"sampler":12,
					"target":{
						"node":3,
						"path":"translation"
					}
				},
				{
					"sampler":13,
					"target":{
						"node":3,
						"path":"rotation"
					}
				},
				{
					"sampler":14,
					"target":{
						"node":3,
						"path":"scale"
					}
				},
				{
					"sampler":15,
					"target":{
						"node":4,
						"path":"translation"
					}
				},
				{
					"sampler":16,
					"target":{
						"node":4,
						"path":"rotation"
					}
				},
				{
					"sampler":17,
					"target":{
						"node":4,
						"path":"scale"
					}
				}
			],
			"name":"VFX_Explosion",
			"samplers":[
				{
					"input":7,
					"interpolation":"STEP",
					"output":8
				},
				{
					"input":7,
					"interpolation":"STEP",
					"output":9
				},
				{
					"input":7,
					"interpolation":"STEP",
					"output":10
				},
				{
					"input":11,
					"interpolation":"LINEAR",
					"output":12
				},
				{
					"input":11,
					"interpolation":"LINEAR",
					"output":13
				},
				{
					"input":11,
					"interpolation":"LINEAR",
					"output":14
				},
				{
					"input":7,
					"interpolation":"STEP",
					"output":15
				},
				{
					"input":11,
					"interpolation":"LINEAR",
					"output":16
				},
				{
					"input":11,
					"interpolation":"LINEAR",
					"output":17
				},
				{
					"input":7,
					"interpolation":"STEP",
					"output":18
				},
				{
					"input":11,
					"interpolation":"LINEAR",
					"output":19
				},
				{
					"input":11,
					"interpolation":"LINEAR",
					"output":20
				},
				{
					"input":7,
					"interpolation":"STEP",
					"output":21
				},
				{
					"input":11,
					"interpolation":"LINEAR",
					"output":22
				},
				{
					"input":11,
					"interpolation":"LINEAR",
					"output":23
				},
				{
					"input":7,
					"interpolation":"STEP",
					"output":24
				},
				{
					"input":11,
					"interpolation":"LINEAR",
					"output":25
				},
				{
					"input":11,
					"interpolation":"LINEAR",
					"output":26
				}
			]
		}
	],
	"materials":[
		{
			"alphaMode":"BLEND",
			"doubleSided":true,
			"emissiveTexture":{
				"index":0
			},
			"name":"VFX_Explosion",
			"pbrMetallicRoughness":{
				"baseColorTexture":{
					"index":1
				},
				"metallicFactor":0,
				"roughnessFactor":0.5
			}
		}
	],
	"meshes":[
		{
			"name":"Cylinder.003",
			"primitives":[
				{
					"attributes":{
						"POSITION":0,
						"NORMAL":1,
						"TEXCOORD_0":2,
						"JOINTS_0":3,
						"WEIGHTS_0":4
					},
					"indices":5,
					"material":0
				}
			]
		}
	],
	"textures":[
		{
			"sampler":0,
			"source":0
		},
		{
			"sampler":0,
			"source":0
		}
	],
	"images":[
		{
			"mimeType":"image/png",
			"name":"Texture_Explosion",
			"uri":"Texture_Explosion.png"
		}
	],
	"skins":[
		{
			"inverseBindMatrices":6,
			"joints":[
				5,
				0,
				1,
				2,
				3,
				4
			],
			"name":"Armature"
		}
	],
	"accessors":[
		{
			"bufferView":0,
			"componentType":5126,
			"count":2080,
			"max":[
				1,
				1.618410587310791,
				1
			],
			"min":[
				-1.0854421854019165,
				-0.008154011331498623,
				-1
			],
			"type":"VEC3"
		},
		{
			"bufferView":1,
			"componentType":5126,
			"count":2080,
			"type":"VEC3"
		},
		{
			"bufferView":2,
			"componentType":5126,
			"count":2080,
			"type":"VEC2"
		},
		{
			"bufferView":3,
			"componentType":5121,
			"count":2080,
			"type":"VEC4"
		},
		{
			"bufferView":4,
			"componentType":5126,
			"count":2080,
			"type":"VEC4"
		},
		{
			"bufferView":5,
			"componentType":5123,
			"count":3150,
			"type":"SCALAR"
		},
		{
			"bufferView":6,
			"componentType":5126,
			"count":6,
			"type":"MAT4"
		},
		{
			"bufferView":7,
			"componentType":5126,
			"count":2,
			"max":[
				1.4583333333333333
			],
			"min":[
				0.041666666666666664
			],
			"type":"SCALAR"
		},
		{
			"bufferView":8,
			"componentType":5126,
			"count":2,
			"type":"VEC3"
		},
		{
			"bufferView":9,
			"componentType":5126,
			"count":2,
			"type":"VEC4"
		},
		{
			"bufferView":10,
			"componentType":5126,
			"count":2,
			"type":"VEC3"
		},
		{
			"bufferView":11,
			"componentType":5126,
			"count":35,
			"max":[
				1.4583333333333333
			],
			"min":[
				0.041666666666666664
			],
			"type":"SCALAR"
		},
		{
			"bufferView":12,
			"componentType":5126,
			"count":35,
			"type":"VEC3"
		},
		{
			"bufferView":13,
			"componentType":5126,
			"count":35,
			"type":"VEC4"
		},
		{
			"bufferView":14,
			"componentType":5126,
			"count":35,
			"type":"VEC3"
		},
		{
			"bufferView":15,
			"componentType":5126,
			"count":2,
			"type":"VEC3"
		},
		{
			"bufferView":16,
			"componentType":5126,
			"count":35,
			"type":"VEC4"
		},
		{
			"bufferView":17,
			"componentType":5126,
			"count":35,
			"type":"VEC3"
		},
		{
			"bufferView":18,
			"componentType":5126,
			"count":2,
			"type":"VEC3"
		},
		{
			"bufferView":19,
			"componentType":5126,
			"count":35,
			"type":"VEC4"
		},
		{
			"bufferView":20,
			"componentType":5126,
			"count":35,
			"type":"VEC3"
		},
		{
			"bufferView":21,
			"componentType":5126,
			"count":2,
			"type":"VEC3"
		},
		{
			"bufferView":22,
			"componentType":5126,
			"count":35,
			"type":"VEC4"
		},
		{
			"bufferView":23,
			"componentType":5126,
			"count":35,
			"type":"VEC3"
		},
		{
			"bufferView":24,
			"componentType":5126,
			"count":2,
			"type":"VEC3"
		},
		{
			"bufferView":25,
			"componentType":5126,
			"count":35,
			"type":"VEC4"
		},
		{
			"bufferView":26,
			"componentType":5126,
			"count":35,
			"type":"VEC3"
		}
	],
	"bufferViews":[
		{
			"buffer":0,
			"byteLength":24960,
			"byteOffset":0,
			"target":34962
		},
		{
			"buffer":0,
			"byteLength":24960,
			"byteOffset":24960,
			"target":34962
		},
		{
			"buffer":0,
			"byteLength":16640,
			"byteOffset":49920,
			"target":34962
		},
		{
			"buffer":0,
			"byteLength":8320,
			"byteOffset":66560,
			"target":34962
		},
		{
			"buffer":0,
			"byteLength":33280,
			"byteOffset":74880,
			"target":34962
		},
		{
			"buffer":0,
			"byteLength":6300,
			"byteOffset":108160,
			"target":34963
		},
		{
			"buffer":0,
			"byteLength":384,
			"byteOffset":114460
		},
		{
			"buffer":0,
			"byteLength":8,
			"byteOffset":114844
		},
		{
			"buffer":0,
			"byteLength":24,
			"byteOffset":114852
		},
		{
			"buffer":0,
			"byteLength":32,
			"byteOffset":114876
		},
		{
			"buffer":0,
			"byteLength":24,
			"byteOffset":114908
		},
		{
			"buffer":0,
			"byteLength":140,
			"byteOffset":114932
		},
		{
			"buffer":0,
			"byteLength":420,
			"byteOffset":115072
		},
		{
			"buffer":0,
			"byteLength":560,
			"byteOffset":115492
		},
		{
			"buffer":0,
			"byteLength":420,
			"byteOffset":116052
		},
		{
			"buffer":0,
			"byteLength":24,
			"byteOffset":116472
		},
		{
			"buffer":0,
			"byteLength":560,
			"byteOffset":116496
		},
		{
			"buffer":0,
			"byteLength":420,
			"byteOffset":117056
		},
		{
			"buffer":0,
			"byteLength":24,
			"byteOffset":117476
		},
		{
			"buffer":0,
			"byteLength":560,
			"byteOffset":117500
		},
		{
			"buffer":0,
			"byteLength":420,
			"byteOffset":118060
		},
		{
			"buffer":0,
			"byteLength":24,
			"byteOffset":118480
		},
		{
			"buffer":0,
			"byteLength":560,
			"byteOffset":118504
		},
		{
			"buffer":0,
			"byteLength":420,
			"byteOffset":119064
		},
		{
			"buffer":0,
			"byteLength":24,
			"byteOffset":119484
		},
		{
			"buffer":0,
			"byteLength":560,
			"byteOffset":119508
		},
		{
			"buffer":0,
			"byteLength":420,
			"byteOffset":120068
		}
	],
	"samplers":[
		{
			"magFilter":9729,
			"minFilter":9987
		}
	],
	"buffers":[
		{
			"byteLength":120488,
			"uri":"VFX_Explosion_v2.bin"
		}
	]
}
