{
	"asset":{
		"generator":"Khronos glTF Blender I/O v4.4.56",
		"version":"2.0"
	},
	"scene":0,
	"scenes":[
		{
			"name":"Scene",
			"nodes":[
				7
			]
		}
	],
	"nodes":[
		{
			"name":"Area"
		},
		{
			"name":"Plane"
		},
		{
			"name":"Sphere.001"
		},
		{
			"name":"Sphere.002"
		},
		{
			"name":"Cylindre"
		},
		{
			"children":[
				0,
				1,
				2,
				3,
				4
			],
			"name":"Root"
		},
		{
			"mesh":0,
			"name":"VFX_Explosion",
			"skin":0
		},
		{
			"children":[
				6,
				5
			],
			"name":"Armature",
			"scale":[
				0.20703792572021484,
				0.20703792572021484,
				0.20703792572021484
			]
		}
	],
	"animations":[
		{
			"channels":[
				{
					"sampler":0,
					"target":{
						"node":5,
						"path":"translation"
					}
				},
				{
					"sampler":1,
					"target":{
						"node":5,
						"path":"rotation"
					}
				},
				{
					"sampler":2,
					"target":{
						"node":5,
						"path":"scale"
					}
				},
				{
					"sampler":3,
					"target":{
						"node":0,
						"path":"translation"
					}
				},
				{
					"sampler":4,
					"target":{
						"node":0,
						"path":"rotation"
					}
				},
				{
					"sampler":5,
					"target":{
						"node":0,
						"path":"scale"
					}
				},
				{
					"sampler":6,
					"target":{
						"node":1,
						"path":"translation"
					}
				},
				{
					"sampler":7,
					"target":{
						"node":1,
						"path":"rotation"
					}
				},
				{
					"sampler":8,
					"target":{
						"node":1,
						"path":"scale"
					}
				},
				{
					"sampler":9,
					"target":{
						"node":2,
						"path":"translation"
					}
				},
				{
					"sampler":10,
					"target":{
						"node":2,
						"path":"rotation"
					}
				},
				{
					"sampler":11,
					"target":{
						"node":2,
						"path":"scale"
					}
				},
				{
					"sampler":12,
					"target":{
						"node":3,
						"path":"translation"
					}
				},
				{
					"sampler":13,
					"target":{
						"node":3,
						"path":"rotation"
					}
				},
				{
					"sampler":14,
					"target":{
						"node":3,
						"path":"scale"
					}
				},
				{
					"sampler":15,
					"target":{
						"node":4,
						"path":"translation"
					}
				},
				{
					"sampler":16,
					"target":{
						"node":4,
						"path":"rotation"
					}
				},
				{
					"sampler":17,
					"target":{
						"node":4,
						"path":"scale"
					}
				}
			],
			"name":"VFX_Explosion",
			"samplers":[
				{
					"input":25,
					"interpolation":"STEP",
					"output":26
				},
				{
					"input":25,
					"interpolation":"STEP",
					"output":27
				},
				{
					"input":25,
					"interpolation":"STEP",
					"output":28
				},
				{
					"input":25,
					"interpolation":"STEP",
					"output":29
				},
				{
					"input":25,
					"interpolation":"STEP",
					"output":30
				},
				{
					"input":31,
					"interpolation":"LINEAR",
					"output":32
				},
				{
					"input":25,
					"interpolation":"STEP",
					"output":33
				},
				{
					"input":31,
					"interpolation":"LINEAR",
					"output":34
				},
				{
					"input":31,
					"interpolation":"LINEAR",
					"output":35
				},
				{
					"input":25,
					"interpolation":"STEP",
					"output":36
				},
				{
					"input":25,
					"interpolation":"STEP",
					"output":37
				},
				{
					"input":31,
					"interpolation":"LINEAR",
					"output":38
				},
				{
					"input":25,
					"interpolation":"STEP",
					"output":39
				},
				{
					"input":25,
					"interpolation":"STEP",
					"output":40
				},
				{
					"input":31,
					"interpolation":"LINEAR",
					"output":41
				},
				{
					"input":25,
					"interpolation":"STEP",
					"output":42
				},
				{
					"input":31,
					"interpolation":"LINEAR",
					"output":43
				},
				{
					"input":31,
					"interpolation":"LINEAR",
					"output":44
				}
			]
		}
	],
	"materials":[
		{
			"alphaMode":"BLEND",
			"doubleSided":true,
			"emissiveTexture":{
				"index":0
			},
			"name":"VFX_Explosion",
			"pbrMetallicRoughness":{
				"baseColorTexture":{
					"index":1
				},
				"metallicFactor":0,
				"roughnessFactor":0.5
			}
		},
		{
			"alphaMode":"BLEND",
			"doubleSided":true,
			"emissiveTexture":{
				"index":2
			},
			"name":"VFX_Area.001",
			"pbrMetallicRoughness":{
				"baseColorTexture":{
					"index":3
				},
				"metallicFactor":0,
				"roughnessFactor":0.5
			}
		},
		{
			"alphaMode":"BLEND",
			"doubleSided":true,
			"emissiveTexture":{
				"index":4
			},
			"name":"VFX_Esfera_2",
			"pbrMetallicRoughness":{
				"baseColorTexture":{
					"index":5
				},
				"metallicFactor":0,
				"roughnessFactor":0.5
			}
		}
	],
	"meshes":[
		{
			"name":"Cylinder.003",
			"primitives":[
				{
					"attributes":{
						"POSITION":0,
						"NORMAL":1,
						"TEXCOORD_0":2,
						"COLOR_0":3,
						"COLOR_1":4,
						"JOINTS_0":5,
						"WEIGHTS_0":6
					},
					"indices":7,
					"material":0
				},
				{
					"attributes":{
						"POSITION":8,
						"NORMAL":9,
						"TEXCOORD_0":10,
						"COLOR_0":11,
						"COLOR_1":12,
						"JOINTS_0":13,
						"WEIGHTS_0":14
					},
					"indices":15,
					"material":1
				},
				{
					"attributes":{
						"POSITION":16,
						"NORMAL":17,
						"TEXCOORD_0":18,
						"COLOR_0":19,
						"COLOR_1":20,
						"JOINTS_0":21,
						"WEIGHTS_0":22
					},
					"indices":23,
					"material":2
				}
			]
		}
	],
	"textures":[
		{
			"sampler":0,
			"source":0
		},
		{
			"sampler":0,
			"source":0
		},
		{
			"sampler":0,
			"source":1
		},
		{
			"sampler":0,
			"source":1
		},
		{
			"sampler":0,
			"source":2
		},
		{
			"sampler":0,
			"source":2
		}
	],
	"images":[
		{
			"mimeType":"image/png",
			"name":"Texture_Explosion",
			"uri":"Texture_Explosion.png"
		},
		{
			"mimeType":"image/png",
			"name":"Area",
			"uri":"Area.png"
		},
		{
			"mimeType":"image/png",
			"name":"Esfera_2",
			"uri":"Esfera_2.png"
		}
	],
	"skins":[
		{
			"inverseBindMatrices":24,
			"joints":[
				5,
				0,
				1,
				2,
				3,
				4
			],
			"name":"Armature"
		}
	],
	"accessors":[
		{
			"bufferView":0,
			"componentType":5126,
			"count":30,
			"max":[
				0.7708262205123901,
				0.8063368201255798,
				0.7708262205123901
			],
			"min":[
				-0.7708262205123901,
				-0.0044656251557171345,
				-0.7708262205123901
			],
			"type":"VEC3"
		},
		{
			"bufferView":1,
			"componentType":5126,
			"count":30,
			"type":"VEC3"
		},
		{
			"bufferView":2,
			"componentType":5126,
			"count":30,
			"type":"VEC2"
		},
		{
			"bufferView":3,
			"componentType":5121,
			"count":30,
			"normalized":true,
			"type":"VEC4"
		},
		{
			"bufferView":4,
			"componentType":5123,
			"count":30,
			"normalized":true,
			"type":"VEC4"
		},
		{
			"bufferView":5,
			"componentType":5121,
			"count":30,
			"type":"VEC4"
		},
		{
			"bufferView":6,
			"componentType":5126,
			"count":30,
			"type":"VEC4"
		},
		{
			"bufferView":7,
			"componentType":5123,
			"count":78,
			"type":"SCALAR"
		},
		{
			"bufferView":8,
			"componentType":5126,
			"count":4,
			"max":[
				2.9961538314819336,
				0,
				2.9961538314819336
			],
			"min":[
				-2.9961538314819336,
				0,
				-2.9961538314819336
			],
			"type":"VEC3"
		},
		{
			"bufferView":9,
			"componentType":5126,
			"count":4,
			"type":"VEC3"
		},
		{
			"bufferView":10,
			"componentType":5126,
			"count":4,
			"type":"VEC2"
		},
		{
			"bufferView":11,
			"componentType":5121,
			"count":4,
			"normalized":true,
			"type":"VEC4"
		},
		{
			"bufferView":12,
			"componentType":5123,
			"count":4,
			"normalized":true,
			"type":"VEC4"
		},
		{
			"bufferView":13,
			"componentType":5121,
			"count":4,
			"type":"VEC4"
		},
		{
			"bufferView":14,
			"componentType":5126,
			"count":4,
			"type":"VEC4"
		},
		{
			"bufferView":15,
			"componentType":5123,
			"count":6,
			"type":"SCALAR"
		},
		{
			"bufferView":16,
			"componentType":5126,
			"count":592,
			"max":[
				0.9454218149185181,
				0.9454221129417419,
				0.9454215168952942
			],
			"min":[
				-0.9454212188720703,
				0,
				-0.9454221129417419
			],
			"type":"VEC3"
		},
		{
			"bufferView":17,
			"componentType":5126,
			"count":592,
			"type":"VEC3"
		},
		{
			"bufferView":18,
			"componentType":5126,
			"count":592,
			"type":"VEC2"
		},
		{
			"bufferView":19,
			"componentType":5121,
			"count":592,
			"normalized":true,
			"type":"VEC4"
		},
		{
			"bufferView":20,
			"componentType":5123,
			"count":592,
			"normalized":true,
			"type":"VEC4"
		},
		{
			"bufferView":21,
			"componentType":5121,
			"count":592,
			"type":"VEC4"
		},
		{
			"bufferView":22,
			"componentType":5126,
			"count":592,
			"type":"VEC4"
		},
		{
			"bufferView":23,
			"componentType":5123,
			"count":2880,
			"type":"SCALAR"
		},
		{
			"bufferView":24,
			"componentType":5126,
			"count":6,
			"type":"MAT4"
		},
		{
			"bufferView":25,
			"componentType":5126,
			"count":2,
			"max":[
				0.5166666666666667
			],
			"min":[
				0.016666666666666666
			],
			"type":"SCALAR"
		},
		{
			"bufferView":26,
			"componentType":5126,
			"count":2,
			"type":"VEC3"
		},
		{
			"bufferView":27,
			"componentType":5126,
			"count":2,
			"type":"VEC4"
		},
		{
			"bufferView":28,
			"componentType":5126,
			"count":2,
			"type":"VEC3"
		},
		{
			"bufferView":29,
			"componentType":5126,
			"count":2,
			"type":"VEC3"
		},
		{
			"bufferView":30,
			"componentType":5126,
			"count":2,
			"type":"VEC4"
		},
		{
			"bufferView":31,
			"componentType":5126,
			"count":31,
			"max":[
				0.5166666666666667
			],
			"min":[
				0.016666666666666666
			],
			"type":"SCALAR"
		},
		{
			"bufferView":32,
			"componentType":5126,
			"count":31,
			"type":"VEC3"
		},
		{
			"bufferView":33,
			"componentType":5126,
			"count":2,
			"type":"VEC3"
		},
		{
			"bufferView":34,
			"componentType":5126,
			"count":31,
			"type":"VEC4"
		},
		{
			"bufferView":35,
			"componentType":5126,
			"count":31,
			"type":"VEC3"
		},
		{
			"bufferView":36,
			"componentType":5126,
			"count":2,
			"type":"VEC3"
		},
		{
			"bufferView":37,
			"componentType":5126,
			"count":2,
			"type":"VEC4"
		},
		{
			"bufferView":38,
			"componentType":5126,
			"count":31,
			"type":"VEC3"
		},
		{
			"bufferView":39,
			"componentType":5126,
			"count":2,
			"type":"VEC3"
		},
		{
			"bufferView":40,
			"componentType":5126,
			"count":2,
			"type":"VEC4"
		},
		{
			"bufferView":41,
			"componentType":5126,
			"count":31,
			"type":"VEC3"
		},
		{
			"bufferView":42,
			"componentType":5126,
			"count":2,
			"type":"VEC3"
		},
		{
			"bufferView":43,
			"componentType":5126,
			"count":31,
			"type":"VEC4"
		},
		{
			"bufferView":44,
			"componentType":5126,
			"count":31,
			"type":"VEC3"
		}
	],
	"bufferViews":[
		{
			"buffer":0,
			"byteLength":360,
			"byteOffset":0,
			"target":34962
		},
		{
			"buffer":0,
			"byteLength":360,
			"byteOffset":360,
			"target":34962
		},
		{
			"buffer":0,
			"byteLength":240,
			"byteOffset":720,
			"target":34962
		},
		{
			"buffer":0,
			"byteLength":120,
			"byteOffset":960,
			"target":34962
		},
		{
			"buffer":0,
			"byteLength":240,
			"byteOffset":1080,
			"target":34962
		},
		{
			"buffer":0,
			"byteLength":120,
			"byteOffset":1320,
			"target":34962
		},
		{
			"buffer":0,
			"byteLength":480,
			"byteOffset":1440,
			"target":34962
		},
		{
			"buffer":0,
			"byteLength":156,
			"byteOffset":1920,
			"target":34963
		},
		{
			"buffer":0,
			"byteLength":48,
			"byteOffset":2076,
			"target":34962
		},
		{
			"buffer":0,
			"byteLength":48,
			"byteOffset":2124,
			"target":34962
		},
		{
			"buffer":0,
			"byteLength":32,
			"byteOffset":2172,
			"target":34962
		},
		{
			"buffer":0,
			"byteLength":16,
			"byteOffset":2204,
			"target":34962
		},
		{
			"buffer":0,
			"byteLength":32,
			"byteOffset":2220,
			"target":34962
		},
		{
			"buffer":0,
			"byteLength":16,
			"byteOffset":2252,
			"target":34962
		},
		{
			"buffer":0,
			"byteLength":64,
			"byteOffset":2268,
			"target":34962
		},
		{
			"buffer":0,
			"byteLength":12,
			"byteOffset":2332,
			"target":34963
		},
		{
			"buffer":0,
			"byteLength":7104,
			"byteOffset":2344,
			"target":34962
		},
		{
			"buffer":0,
			"byteLength":7104,
			"byteOffset":9448,
			"target":34962
		},
		{
			"buffer":0,
			"byteLength":4736,
			"byteOffset":16552,
			"target":34962
		},
		{
			"buffer":0,
			"byteLength":2368,
			"byteOffset":21288,
			"target":34962
		},
		{
			"buffer":0,
			"byteLength":4736,
			"byteOffset":23656,
			"target":34962
		},
		{
			"buffer":0,
			"byteLength":2368,
			"byteOffset":28392,
			"target":34962
		},
		{
			"buffer":0,
			"byteLength":9472,
			"byteOffset":30760,
			"target":34962
		},
		{
			"buffer":0,
			"byteLength":5760,
			"byteOffset":40232,
			"target":34963
		},
		{
			"buffer":0,
			"byteLength":384,
			"byteOffset":45992
		},
		{
			"buffer":0,
			"byteLength":8,
			"byteOffset":46376
		},
		{
			"buffer":0,
			"byteLength":24,
			"byteOffset":46384
		},
		{
			"buffer":0,
			"byteLength":32,
			"byteOffset":46408
		},
		{
			"buffer":0,
			"byteLength":24,
			"byteOffset":46440
		},
		{
			"buffer":0,
			"byteLength":24,
			"byteOffset":46464
		},
		{
			"buffer":0,
			"byteLength":32,
			"byteOffset":46488
		},
		{
			"buffer":0,
			"byteLength":124,
			"byteOffset":46520
		},
		{
			"buffer":0,
			"byteLength":372,
			"byteOffset":46644
		},
		{
			"buffer":0,
			"byteLength":24,
			"byteOffset":47016
		},
		{
			"buffer":0,
			"byteLength":496,
			"byteOffset":47040
		},
		{
			"buffer":0,
			"byteLength":372,
			"byteOffset":47536
		},
		{
			"buffer":0,
			"byteLength":24,
			"byteOffset":47908
		},
		{
			"buffer":0,
			"byteLength":32,
			"byteOffset":47932
		},
		{
			"buffer":0,
			"byteLength":372,
			"byteOffset":47964
		},
		{
			"buffer":0,
			"byteLength":24,
			"byteOffset":48336
		},
		{
			"buffer":0,
			"byteLength":32,
			"byteOffset":48360
		},
		{
			"buffer":0,
			"byteLength":372,
			"byteOffset":48392
		},
		{
			"buffer":0,
			"byteLength":24,
			"byteOffset":48764
		},
		{
			"buffer":0,
			"byteLength":496,
			"byteOffset":48788
		},
		{
			"buffer":0,
			"byteLength":372,
			"byteOffset":49284
		}
	],
	"samplers":[
		{
			"magFilter":9729,
			"minFilter":9987
		}
	],
	"buffers":[
		{
			"byteLength":49656,
			"uri":"VFX_Explosion_v2.bin"
		}
	]
}
