{
	"asset":{
		"generator":"Khronos glTF Blender I/O v4.4.55",
		"version":"2.0"
	},
	"scene":0,
	"scenes":[
		{
			"name":"Scene",
			"nodes":[
				0
			]
		}
	],
	"nodes":[
		{
			"mesh":0,
			"name":"Column_v2"
		}
	],
	"materials":[
		{
			"doubleSided":true,
			"name":"Columna_MAT.004",
			"normalTexture":{
				"index":0
			},
			"pbrMetallicRoughness":{
				"baseColorTexture":{
					"index":1
				},
				"metallicRoughnessTexture":{
					"index":2
				}
			}
		}
	],
	"meshes":[
		{
			"name":"Cylinder.002",
			"primitives":[
				{
					"attributes":{
						"POSITION":0,
						"NORMAL":1,
						"TEXCOORD_0":2
					},
					"indices":3,
					"material":0
				}
			]
		}
	],
	"textures":[
		{
			"sampler":0,
			"source":0
		},
		{
			"sampler":0,
			"source":1
		},
		{
			"sampler":0,
			"source":2
		}
	],
	"images":[
		{
			"mimeType":"image/png",
			"name":"Trimsheet_low_DefaultMaterial_Normal",
			"uri":"Trimsheet_low_DefaultMaterial_Normal.png"
		},
		{
			"mimeType":"image/png",
			"name":"Trimsheet_low_DefaultMaterial_BaseColor",
			"uri":"Trimsheet_low_DefaultMaterial_BaseColor.png"
		},
		{
			"mimeType":"image/png",
			"name":"Trimsheet_low_DefaultMaterial_Metallic",
			"uri":"Trimsheet_low_DefaultMaterial_Metallic.png"
		}
	],
	"accessors":[
		{
			"bufferView":0,
			"componentType":5126,
			"count":325,
			"max":[
				0.8479748964309692,
				4.427286624908447,
				0.8479762077331543
			],
			"min":[
				-0.8479774594306946,
				5.885958671569824e-06,
				-0.8479761481285095
			],
			"type":"VEC3"
		},
		{
			"bufferView":1,
			"componentType":5126,
			"count":325,
			"type":"VEC3"
		},
		{
			"bufferView":2,
			"componentType":5126,
			"count":325,
			"type":"VEC2"
		},
		{
			"bufferView":3,
			"componentType":5123,
			"count":954,
			"type":"SCALAR"
		}
	],
	"bufferViews":[
		{
			"buffer":0,
			"byteLength":3900,
			"byteOffset":0,
			"target":34962
		},
		{
			"buffer":0,
			"byteLength":3900,
			"byteOffset":3900,
			"target":34962
		},
		{
			"buffer":0,
			"byteLength":2600,
			"byteOffset":7800,
			"target":34962
		},
		{
			"buffer":0,
			"byteLength":1908,
			"byteOffset":10400,
			"target":34963
		}
	],
	"samplers":[
		{
			"magFilter":9729,
			"minFilter":9987
		}
	],
	"buffers":[
		{
			"byteLength":12308,
			"uri":"Columnas_v2.bin"
		}
	]
}
