{
	"asset":{
		"generator":"Khronos glTF Blender I/O v4.4.55",
		"version":"2.0"
	},
	"scene":0,
	"scenes":[
		{
			"name":"Scene",
			"nodes":[
				0,
				1,
				2,
				3,
				4,
				5,
				6,
				7,
				8,
				9,
				10,
				11,
				12,
				13,
				14,
				15,
				16,
				17,
				18
			]
		}
	],
	"nodes":[
		{
			"mesh":0,
			"name":"Column_v2_cell",
			"translation":[
				-0.5093874931335449,
				1.90267813205719,
				-0.18074923753738403
			]
		},
		{
			"mesh":1,
			"name":"Column_v2_cell.001",
			"translation":[
				0.694109320640564,
				4.159805774688721,
				0.23996582627296448
			]
		},
		{
			"mesh":2,
			"name":"Column_v2_cell.003",
			"translation":[
				0.15717054903507233,
				0.7411455512046814,
				-0.47866734862327576
			]
		},
		{
			"mesh":3,
			"name":"Column_v2_cell.004",
			"translation":[
				0.5098845958709717,
				4.082095146179199,
				-0.3002285957336426
			]
		},
		{
			"mesh":4,
			"name":"Column_v2_cell.006",
			"translation":[
				-0.4891669452190399,
				0.6789171695709229,
				0.19679635763168335
			]
		},
		{
			"mesh":5,
			"name":"Column_v2_cell.007",
			"translation":[
				-0.1832655370235443,
				1.5138001441955566,
				0.5756635069847107
			]
		},
		{
			"mesh":6,
			"name":"Column_v2_cell.008",
			"translation":[
				-0.04060731828212738,
				3.6478090286254883,
				-0.6620795130729675
			]
		},
		{
			"mesh":7,
			"name":"Column_v2_cell.009",
			"translation":[
				0.35586297512054443,
				3.56223201751709,
				0.4470440745353699
			]
		},
		{
			"mesh":8,
			"name":"Column_v2_cell.010",
			"translation":[
				-0.39380571246147156,
				2.333906888961792,
				0.42042189836502075
			]
		},
		{
			"mesh":9,
			"name":"Column_v2_cell.011",
			"translation":[
				-0.6203099489212036,
				4.133553981781006,
				-0.30000174045562744
			]
		},
		{
			"mesh":10,
			"name":"Column_v2_cell.012",
			"translation":[
				0.06434398889541626,
				2.065457820892334,
				0.7470053434371948
			]
		},
		{
			"mesh":11,
			"name":"Column_v2_cell.013",
			"translation":[
				-0.13995859026908875,
				4.260146617889404,
				-0.4732934832572937
			]
		},
		{
			"mesh":12,
			"name":"Column_v2_cell.014",
			"translation":[
				-0.26250159740448,
				0.5437384843826294,
				0.6694425344467163
			]
		},
		{
			"mesh":13,
			"name":"Column_v2_cell.015",
			"translation":[
				0.5004737377166748,
				2.2283239364624023,
				0.1359996646642685
			]
		},
		{
			"mesh":14,
			"name":"Column_v2_cell.016",
			"translation":[
				0.3970913589000702,
				0.68425053358078,
				0.38903018832206726
			]
		},
		{
			"mesh":15,
			"name":"Column_v2_cell.017",
			"translation":[
				-0.13847288489341736,
				4.305942535400391,
				0.3900883197784424
			]
		},
		{
			"mesh":16,
			"name":"Column_v2_cell.018",
			"translation":[
				-0.06240140646696091,
				2.2412612438201904,
				-0.6459531784057617
			]
		},
		{
			"mesh":17,
			"name":"Column_v2_cell.019",
			"translation":[
				-0.22123989462852478,
				3.4786288738250732,
				-0.015291213989257812
			]
		},
		{
			"mesh":18,
			"name":"Column_v2_cell.002",
			"translation":[
				0.1207432746887207,
				2.322115898132324,
				0.8050408959388733
			]
		}
	],
	"materials":[
		{
			"doubleSided":true,
			"name":"Columna_MAT.004",
			"normalTexture":{
				"index":0
			},
			"pbrMetallicRoughness":{
				"baseColorTexture":{
					"index":1
				},
				"metallicRoughnessTexture":{
					"index":2
				}
			}
		}
	],
	"meshes":[
		{
			"name":"Column_v2_cell.020",
			"primitives":[
				{
					"attributes":{
						"POSITION":0,
						"NORMAL":1,
						"TEXCOORD_0":2
					},
					"indices":3,
					"material":0
				}
			]
		},
		{
			"name":"Column_v2_cell.021",
			"primitives":[
				{
					"attributes":{
						"POSITION":4,
						"NORMAL":5,
						"TEXCOORD_0":6
					},
					"indices":7,
					"material":0
				}
			]
		},
		{
			"name":"Column_v2_cell.001",
			"primitives":[
				{
					"attributes":{
						"POSITION":8,
						"NORMAL":9,
						"TEXCOORD_0":10
					},
					"indices":11,
					"material":0
				}
			]
		},
		{
			"name":"Column_v2_cell.002",
			"primitives":[
				{
					"attributes":{
						"POSITION":12,
						"NORMAL":13,
						"TEXCOORD_0":14
					},
					"indices":15,
					"material":0
				}
			]
		},
		{
			"name":"Column_v2_cell.003",
			"primitives":[
				{
					"attributes":{
						"POSITION":16,
						"NORMAL":17,
						"TEXCOORD_0":18
					},
					"indices":19,
					"material":0
				}
			]
		},
		{
			"name":"Column_v2_cell.004",
			"primitives":[
				{
					"attributes":{
						"POSITION":20,
						"NORMAL":21,
						"TEXCOORD_0":22
					},
					"indices":23,
					"material":0
				}
			]
		},
		{
			"name":"Column_v2_cell.005",
			"primitives":[
				{
					"attributes":{
						"POSITION":24,
						"NORMAL":25,
						"TEXCOORD_0":26
					},
					"indices":27,
					"material":0
				}
			]
		},
		{
			"name":"Column_v2_cell.006",
			"primitives":[
				{
					"attributes":{
						"POSITION":28,
						"NORMAL":29,
						"TEXCOORD_0":30
					},
					"indices":31,
					"material":0
				}
			]
		},
		{
			"name":"Column_v2_cell.007",
			"primitives":[
				{
					"attributes":{
						"POSITION":32,
						"NORMAL":33,
						"TEXCOORD_0":34
					},
					"indices":35,
					"material":0
				}
			]
		},
		{
			"name":"Column_v2_cell.008",
			"primitives":[
				{
					"attributes":{
						"POSITION":36,
						"NORMAL":37,
						"TEXCOORD_0":38
					},
					"indices":39,
					"material":0
				}
			]
		},
		{
			"name":"Column_v2_cell.009",
			"primitives":[
				{
					"attributes":{
						"POSITION":40,
						"NORMAL":41,
						"TEXCOORD_0":42
					},
					"indices":43,
					"material":0
				}
			]
		},
		{
			"name":"Column_v2_cell.010",
			"primitives":[
				{
					"attributes":{
						"POSITION":44,
						"NORMAL":45,
						"TEXCOORD_0":46
					},
					"indices":47,
					"material":0
				}
			]
		},
		{
			"name":"Column_v2_cell.011",
			"primitives":[
				{
					"attributes":{
						"POSITION":48,
						"NORMAL":49,
						"TEXCOORD_0":50
					},
					"indices":51,
					"material":0
				}
			]
		},
		{
			"name":"Column_v2_cell.012",
			"primitives":[
				{
					"attributes":{
						"POSITION":52,
						"NORMAL":53,
						"TEXCOORD_0":54
					},
					"indices":55,
					"material":0
				}
			]
		},
		{
			"name":"Column_v2_cell.013",
			"primitives":[
				{
					"attributes":{
						"POSITION":56,
						"NORMAL":57,
						"TEXCOORD_0":58
					},
					"indices":59,
					"material":0
				}
			]
		},
		{
			"name":"Column_v2_cell.014",
			"primitives":[
				{
					"attributes":{
						"POSITION":60,
						"NORMAL":61,
						"TEXCOORD_0":62
					},
					"indices":63,
					"material":0
				}
			]
		},
		{
			"name":"Column_v2_cell.015",
			"primitives":[
				{
					"attributes":{
						"POSITION":64,
						"NORMAL":65,
						"TEXCOORD_0":66
					},
					"indices":67,
					"material":0
				}
			]
		},
		{
			"name":"Column_v2_cell.016",
			"primitives":[
				{
					"attributes":{
						"POSITION":68,
						"NORMAL":69,
						"TEXCOORD_0":70
					},
					"indices":71,
					"material":0
				}
			]
		},
		{
			"name":"Column_v2_cell.017",
			"primitives":[
				{
					"attributes":{
						"POSITION":72,
						"NORMAL":73,
						"TEXCOORD_0":74
					},
					"indices":75,
					"material":0
				}
			]
		}
	],
	"textures":[
		{
			"sampler":0,
			"source":0
		},
		{
			"sampler":0,
			"source":1
		},
		{
			"sampler":0,
			"source":2
		}
	],
	"images":[
		{
			"mimeType":"image/png",
			"name":"Trimsheet_low_DefaultMaterial_Normal",
			"uri":"Trimsheet_low_DefaultMaterial_Normal.png"
		},
		{
			"mimeType":"image/png",
			"name":"Trimsheet_low_DefaultMaterial_BaseColor",
			"uri":"Trimsheet_low_DefaultMaterial_BaseColor.png"
		},
		{
			"mimeType":"image/png",
			"name":"Trimsheet_low_DefaultMaterial_Metallic",
			"uri":"Trimsheet_low_DefaultMaterial_Metallic.png"
		}
	],
	"accessors":[
		{
			"bufferView":0,
			"componentType":5126,
			"count":117,
			"max":[
				1.0839934349060059,
				0.7306963205337524,
				0.6531516313552856
			],
			"min":[
				-0.3056720197200775,
				-0.9404585957527161,
				-0.4864945113658905
			],
			"type":"VEC3"
		},
		{
			"bufferView":1,
			"componentType":5126,
			"count":117,
			"type":"VEC3"
		},
		{
			"bufferView":2,
			"componentType":5126,
			"count":117,
			"type":"VEC2"
		},
		{
			"bufferView":3,
			"componentType":5123,
			"count":210,
			"type":"SCALAR"
		},
		{
			"bufferView":4,
			"componentType":5126,
			"count":67,
			"max":[
				0.13923192024230957,
				0.2674809694290161,
				0.40148138999938965
			],
			"min":[
				-0.25980669260025024,
				-0.2284577488899231,
				-0.30213645100593567
			],
			"type":"VEC3"
		},
		{
			"bufferView":5,
			"componentType":5126,
			"count":67,
			"type":"VEC3"
		},
		{
			"bufferView":6,
			"componentType":5126,
			"count":67,
			"type":"VEC2"
		},
		{
			"bufferView":7,
			"componentType":5123,
			"count":126,
			"type":"SCALAR"
		},
		{
			"bufferView":8,
			"componentType":5126,
			"count":95,
			"max":[
				0.6738767027854919,
				0.6004631519317627,
				0.5408055782318115
			],
			"min":[
				-0.8819103837013245,
				-0.7411396503448486,
				-0.36377158761024475
			],
			"type":"VEC3"
		},
		{
			"bufferView":9,
			"componentType":5126,
			"count":95,
			"type":"VEC3"
		},
		{
			"bufferView":10,
			"componentType":5126,
			"count":95,
			"type":"VEC2"
		},
		{
			"bufferView":11,
			"componentType":5123,
			"count":228,
			"type":"SCALAR"
		},
		{
			"bufferView":12,
			"componentType":5126,
			"count":100,
			"max":[
				0.313465416431427,
				0.3451915383338928,
				0.40984249114990234
			],
			"min":[
				-0.5322294235229492,
				-0.44258803129196167,
				-0.4951552152633667
			],
			"type":"VEC3"
		},
		{
			"bufferView":13,
			"componentType":5126,
			"count":100,
			"type":"VEC3"
		},
		{
			"bufferView":14,
			"componentType":5126,
			"count":100,
			"type":"VEC2"
		},
		{
			"bufferView":15,
			"componentType":5123,
			"count":192,
			"type":"SCALAR"
		},
		{
			"bufferView":16,
			"componentType":5126,
			"count":94,
			"max":[
				0.744063138961792,
				0.8207511901855469,
				0.5582447052001953
			],
			"min":[
				-0.3532719910144806,
				-0.6789112687110901,
				-0.6159523725509644
			],
			"type":"VEC3"
		},
		{
			"bufferView":17,
			"componentType":5126,
			"count":94,
			"type":"VEC3"
		},
		{
			"bufferView":18,
			"componentType":5126,
			"count":94,
			"type":"VEC2"
		},
		{
			"bufferView":19,
			"componentType":5123,
			"count":210,
			"type":"SCALAR"
		},
		{
			"bufferView":20,
			"componentType":5126,
			"count":80,
			"max":[
				0.5907053351402283,
				0.49178558588027954,
				0.20754963159561157
			],
			"min":[
				-0.5584278106689453,
				-0.44315779209136963,
				-0.36692970991134644
			],
			"type":"VEC3"
		},
		{
			"bufferView":21,
			"componentType":5126,
			"count":80,
			"type":"VEC3"
		},
		{
			"bufferView":22,
			"componentType":5126,
			"count":80,
			"type":"VEC2"
		},
		{
			"bufferView":23,
			"componentType":5123,
			"count":144,
			"type":"SCALAR"
		},
		{
			"bufferView":24,
			"componentType":5126,
			"count":93,
			"max":[
				0.6834786534309387,
				0.5020008683204651,
				0.3663032650947571
			],
			"min":[
				-0.5743421316146851,
				-0.723118782043457,
				-0.17126041650772095
			],
			"type":"VEC3"
		},
		{
			"bufferView":25,
			"componentType":5126,
			"count":93,
			"type":"VEC3"
		},
		{
			"bufferView":26,
			"componentType":5126,
			"count":93,
			"type":"VEC2"
		},
		{
			"bufferView":27,
			"componentType":5123,
			"count":186,
			"type":"SCALAR"
		},
		{
			"bufferView":28,
			"componentType":5126,
			"count":113,
			"max":[
				0.42735016345977783,
				0.5751044750213623,
				0.3862958550453186
			],
			"min":[
				-0.6705503463745117,
				-1.1127678155899048,
				-0.6583894491195679
			],
			"type":"VEC3"
		},
		{
			"bufferView":29,
			"componentType":5126,
			"count":113,
			"type":"VEC3"
		},
		{
			"bufferView":30,
			"componentType":5126,
			"count":113,
			"type":"VEC2"
		},
		{
			"bufferView":31,
			"componentType":5123,
			"count":222,
			"type":"SCALAR"
		},
		{
			"bufferView":32,
			"componentType":5126,
			"count":143,
			"max":[
				0.6408644914627075,
				0.4773774743080139,
				0.42221134901046753
			],
			"min":[
				-0.454171746969223,
				-0.640653133392334,
				-0.7412136793136597
			],
			"type":"VEC3"
		},
		{
			"bufferView":33,
			"componentType":5126,
			"count":143,
			"type":"VEC3"
		},
		{
			"bufferView":34,
			"componentType":5126,
			"count":143,
			"type":"VEC2"
		},
		{
			"bufferView":35,
			"componentType":5123,
			"count":312,
			"type":"SCALAR"
		},
		{
			"bufferView":36,
			"componentType":5126,
			"count":62,
			"max":[
				0.3583749532699585,
				0.29373255372047424,
				0.5060107707977295
			],
			"min":[
				-0.21302872896194458,
				-0.5703873634338379,
				-0.45662587881088257
			],
			"type":"VEC3"
		},
		{
			"bufferView":37,
			"componentType":5126,
			"count":62,
			"type":"VEC3"
		},
		{
			"bufferView":38,
			"componentType":5126,
			"count":62,
			"type":"VEC2"
		},
		{
			"bufferView":39,
			"componentType":5123,
			"count":132,
			"type":"SCALAR"
		},
		{
			"bufferView":40,
			"componentType":5126,
			"count":20,
			"max":[
				0.1671575903892517,
				0.1961519420146942,
				0.036207765340805054
			],
			"min":[
				-0.22862398624420166,
				-0.2106328010559082,
				-0.08234229683876038
			],
			"type":"VEC3"
		},
		{
			"bufferView":41,
			"componentType":5126,
			"count":20,
			"type":"VEC3"
		},
		{
			"bufferView":42,
			"componentType":5126,
			"count":20,
			"type":"VEC2"
		},
		{
			"bufferView":43,
			"componentType":5123,
			"count":30,
			"type":"SCALAR"
		},
		{
			"bufferView":44,
			"componentType":5126,
			"count":48,
			"max":[
				0.37261763215065,
				0.16714006662368774,
				0.5080824494361877
			],
			"min":[
				-0.3924928307533264,
				-0.2862579822540283,
				-0.3600464463233948
			],
			"type":"VEC3"
		},
		{
			"bufferView":45,
			"componentType":5126,
			"count":48,
			"type":"VEC3"
		},
		{
			"bufferView":46,
			"componentType":5126,
			"count":48,
			"type":"VEC2"
		},
		{
			"bufferView":47,
			"componentType":5123,
			"count":84,
			"type":"SCALAR"
		},
		{
			"bufferView":48,
			"componentType":5126,
			"count":39,
			"max":[
				0.2648855149745941,
				0.5612664222717285,
				0.1729964166879654
			],
			"min":[
				-0.41803044080734253,
				-0.5437326431274414,
				-0.7219225168228149
			],
			"type":"VEC3"
		},
		{
			"bufferView":49,
			"componentType":5126,
			"count":39,
			"type":"VEC3"
		},
		{
			"bufferView":50,
			"componentType":5126,
			"count":39,
			"type":"VEC2"
		},
		{
			"bufferView":51,
			"componentType":5123,
			"count":84,
			"type":"SCALAR"
		},
		{
			"bufferView":52,
			"componentType":5126,
			"count":199,
			"max":[
				0.34750115871429443,
				0.9126178026199341,
				0.6546510457992554
			],
			"min":[
				-0.7353697419166565,
				-1.2644773721694946,
				-0.7947633862495422
			],
			"type":"VEC3"
		},
		{
			"bufferView":53,
			"componentType":5126,
			"count":199,
			"type":"VEC3"
		},
		{
			"bufferView":54,
			"componentType":5126,
			"count":199,
			"type":"VEC2"
		},
		{
			"bufferView":55,
			"componentType":5123,
			"count":402,
			"type":"SCALAR"
		},
		{
			"bufferView":56,
			"componentType":5126,
			"count":107,
			"max":[
				0.4453475773334503,
				0.6228281259536743,
				0.4530154764652252
			],
			"min":[
				-0.5646456480026245,
				-0.6842446327209473,
				-0.60172438621521
			],
			"type":"VEC3"
		},
		{
			"bufferView":57,
			"componentType":5126,
			"count":107,
			"type":"VEC3"
		},
		{
			"bufferView":58,
			"componentType":5126,
			"count":107,
			"type":"VEC2"
		},
		{
			"bufferView":59,
			"componentType":5123,
			"count":222,
			"type":"SCALAR"
		},
		{
			"bufferView":60,
			"componentType":5126,
			"count":84,
			"max":[
				0.6768900156021118,
				0.12134408950805664,
				0.4432516098022461
			],
			"min":[
				-0.6602715253829956,
				-0.23819184303283691,
				-0.4196496605873108
			],
			"type":"VEC3"
		},
		{
			"bufferView":61,
			"componentType":5126,
			"count":84,
			"type":"VEC3"
		},
		{
			"bufferView":62,
			"componentType":5126,
			"count":84,
			"type":"VEC2"
		},
		{
			"bufferView":63,
			"componentType":5123,
			"count":156,
			"type":"SCALAR"
		},
		{
			"bufferView":64,
			"componentType":5126,
			"count":122,
			"max":[
				0.6672566533088684,
				0.7810251712799072,
				0.3373749256134033
			],
			"min":[
				-0.6163127422332764,
				-0.9213206171989441,
				-0.202022984623909
			],
			"type":"VEC3"
		},
		{
			"bufferView":65,
			"componentType":5126,
			"count":122,
			"type":"VEC3"
		},
		{
			"bufferView":66,
			"componentType":5126,
			"count":122,
			"type":"VEC2"
		},
		{
			"bufferView":67,
			"componentType":5123,
			"count":264,
			"type":"SCALAR"
		},
		{
			"bufferView":68,
			"componentType":5126,
			"count":159,
			"max":[
				0.9711028337478638,
				0.8538222312927246,
				0.7862958908081055
			],
			"min":[
				-0.6120988130569458,
				-0.9292255640029907,
				-0.6688852906227112
			],
			"type":"VEC3"
		},
		{
			"bufferView":69,
			"componentType":5126,
			"count":159,
			"type":"VEC3"
		},
		{
			"bufferView":70,
			"componentType":5126,
			"count":159,
			"type":"VEC2"
		},
		{
			"bufferView":71,
			"componentType":5123,
			"count":318,
			"type":"SCALAR"
		},
		{
			"bufferView":72,
			"componentType":5126,
			"count":30,
			"max":[
				0.17011213302612305,
				0.046192288398742676,
				0.042935311794281006
			],
			"min":[
				-0.21941635012626648,
				-0.052922844886779785,
				-0.06148487329483032
			],
			"type":"VEC3"
		},
		{
			"bufferView":73,
			"componentType":5126,
			"count":30,
			"type":"VEC3"
		},
		{
			"bufferView":74,
			"componentType":5126,
			"count":30,
			"type":"VEC2"
		},
		{
			"bufferView":75,
			"componentType":5123,
			"count":54,
			"type":"SCALAR"
		}
	],
	"bufferViews":[
		{
			"buffer":0,
			"byteLength":1404,
			"byteOffset":0,
			"target":34962
		},
		{
			"buffer":0,
			"byteLength":1404,
			"byteOffset":1404,
			"target":34962
		},
		{
			"buffer":0,
			"byteLength":936,
			"byteOffset":2808,
			"target":34962
		},
		{
			"buffer":0,
			"byteLength":420,
			"byteOffset":3744,
			"target":34963
		},
		{
			"buffer":0,
			"byteLength":804,
			"byteOffset":4164,
			"target":34962
		},
		{
			"buffer":0,
			"byteLength":804,
			"byteOffset":4968,
			"target":34962
		},
		{
			"buffer":0,
			"byteLength":536,
			"byteOffset":5772,
			"target":34962
		},
		{
			"buffer":0,
			"byteLength":252,
			"byteOffset":6308,
			"target":34963
		},
		{
			"buffer":0,
			"byteLength":1140,
			"byteOffset":6560,
			"target":34962
		},
		{
			"buffer":0,
			"byteLength":1140,
			"byteOffset":7700,
			"target":34962
		},
		{
			"buffer":0,
			"byteLength":760,
			"byteOffset":8840,
			"target":34962
		},
		{
			"buffer":0,
			"byteLength":456,
			"byteOffset":9600,
			"target":34963
		},
		{
			"buffer":0,
			"byteLength":1200,
			"byteOffset":10056,
			"target":34962
		},
		{
			"buffer":0,
			"byteLength":1200,
			"byteOffset":11256,
			"target":34962
		},
		{
			"buffer":0,
			"byteLength":800,
			"byteOffset":12456,
			"target":34962
		},
		{
			"buffer":0,
			"byteLength":384,
			"byteOffset":13256,
			"target":34963
		},
		{
			"buffer":0,
			"byteLength":1128,
			"byteOffset":13640,
			"target":34962
		},
		{
			"buffer":0,
			"byteLength":1128,
			"byteOffset":14768,
			"target":34962
		},
		{
			"buffer":0,
			"byteLength":752,
			"byteOffset":15896,
			"target":34962
		},
		{
			"buffer":0,
			"byteLength":420,
			"byteOffset":16648,
			"target":34963
		},
		{
			"buffer":0,
			"byteLength":960,
			"byteOffset":17068,
			"target":34962
		},
		{
			"buffer":0,
			"byteLength":960,
			"byteOffset":18028,
			"target":34962
		},
		{
			"buffer":0,
			"byteLength":640,
			"byteOffset":18988,
			"target":34962
		},
		{
			"buffer":0,
			"byteLength":288,
			"byteOffset":19628,
			"target":34963
		},
		{
			"buffer":0,
			"byteLength":1116,
			"byteOffset":19916,
			"target":34962
		},
		{
			"buffer":0,
			"byteLength":1116,
			"byteOffset":21032,
			"target":34962
		},
		{
			"buffer":0,
			"byteLength":744,
			"byteOffset":22148,
			"target":34962
		},
		{
			"buffer":0,
			"byteLength":372,
			"byteOffset":22892,
			"target":34963
		},
		{
			"buffer":0,
			"byteLength":1356,
			"byteOffset":23264,
			"target":34962
		},
		{
			"buffer":0,
			"byteLength":1356,
			"byteOffset":24620,
			"target":34962
		},
		{
			"buffer":0,
			"byteLength":904,
			"byteOffset":25976,
			"target":34962
		},
		{
			"buffer":0,
			"byteLength":444,
			"byteOffset":26880,
			"target":34963
		},
		{
			"buffer":0,
			"byteLength":1716,
			"byteOffset":27324,
			"target":34962
		},
		{
			"buffer":0,
			"byteLength":1716,
			"byteOffset":29040,
			"target":34962
		},
		{
			"buffer":0,
			"byteLength":1144,
			"byteOffset":30756,
			"target":34962
		},
		{
			"buffer":0,
			"byteLength":624,
			"byteOffset":31900,
			"target":34963
		},
		{
			"buffer":0,
			"byteLength":744,
			"byteOffset":32524,
			"target":34962
		},
		{
			"buffer":0,
			"byteLength":744,
			"byteOffset":33268,
			"target":34962
		},
		{
			"buffer":0,
			"byteLength":496,
			"byteOffset":34012,
			"target":34962
		},
		{
			"buffer":0,
			"byteLength":264,
			"byteOffset":34508,
			"target":34963
		},
		{
			"buffer":0,
			"byteLength":240,
			"byteOffset":34772,
			"target":34962
		},
		{
			"buffer":0,
			"byteLength":240,
			"byteOffset":35012,
			"target":34962
		},
		{
			"buffer":0,
			"byteLength":160,
			"byteOffset":35252,
			"target":34962
		},
		{
			"buffer":0,
			"byteLength":60,
			"byteOffset":35412,
			"target":34963
		},
		{
			"buffer":0,
			"byteLength":576,
			"byteOffset":35472,
			"target":34962
		},
		{
			"buffer":0,
			"byteLength":576,
			"byteOffset":36048,
			"target":34962
		},
		{
			"buffer":0,
			"byteLength":384,
			"byteOffset":36624,
			"target":34962
		},
		{
			"buffer":0,
			"byteLength":168,
			"byteOffset":37008,
			"target":34963
		},
		{
			"buffer":0,
			"byteLength":468,
			"byteOffset":37176,
			"target":34962
		},
		{
			"buffer":0,
			"byteLength":468,
			"byteOffset":37644,
			"target":34962
		},
		{
			"buffer":0,
			"byteLength":312,
			"byteOffset":38112,
			"target":34962
		},
		{
			"buffer":0,
			"byteLength":168,
			"byteOffset":38424,
			"target":34963
		},
		{
			"buffer":0,
			"byteLength":2388,
			"byteOffset":38592,
			"target":34962
		},
		{
			"buffer":0,
			"byteLength":2388,
			"byteOffset":40980,
			"target":34962
		},
		{
			"buffer":0,
			"byteLength":1592,
			"byteOffset":43368,
			"target":34962
		},
		{
			"buffer":0,
			"byteLength":804,
			"byteOffset":44960,
			"target":34963
		},
		{
			"buffer":0,
			"byteLength":1284,
			"byteOffset":45764,
			"target":34962
		},
		{
			"buffer":0,
			"byteLength":1284,
			"byteOffset":47048,
			"target":34962
		},
		{
			"buffer":0,
			"byteLength":856,
			"byteOffset":48332,
			"target":34962
		},
		{
			"buffer":0,
			"byteLength":444,
			"byteOffset":49188,
			"target":34963
		},
		{
			"buffer":0,
			"byteLength":1008,
			"byteOffset":49632,
			"target":34962
		},
		{
			"buffer":0,
			"byteLength":1008,
			"byteOffset":50640,
			"target":34962
		},
		{
			"buffer":0,
			"byteLength":672,
			"byteOffset":51648,
			"target":34962
		},
		{
			"buffer":0,
			"byteLength":312,
			"byteOffset":52320,
			"target":34963
		},
		{
			"buffer":0,
			"byteLength":1464,
			"byteOffset":52632,
			"target":34962
		},
		{
			"buffer":0,
			"byteLength":1464,
			"byteOffset":54096,
			"target":34962
		},
		{
			"buffer":0,
			"byteLength":976,
			"byteOffset":55560,
			"target":34962
		},
		{
			"buffer":0,
			"byteLength":528,
			"byteOffset":56536,
			"target":34963
		},
		{
			"buffer":0,
			"byteLength":1908,
			"byteOffset":57064,
			"target":34962
		},
		{
			"buffer":0,
			"byteLength":1908,
			"byteOffset":58972,
			"target":34962
		},
		{
			"buffer":0,
			"byteLength":1272,
			"byteOffset":60880,
			"target":34962
		},
		{
			"buffer":0,
			"byteLength":636,
			"byteOffset":62152,
			"target":34963
		},
		{
			"buffer":0,
			"byteLength":360,
			"byteOffset":62788,
			"target":34962
		},
		{
			"buffer":0,
			"byteLength":360,
			"byteOffset":63148,
			"target":34962
		},
		{
			"buffer":0,
			"byteLength":240,
			"byteOffset":63508,
			"target":34962
		},
		{
			"buffer":0,
			"byteLength":108,
			"byteOffset":63748,
			"target":34963
		}
	],
	"samplers":[
		{
			"magFilter":9729,
			"minFilter":9987
		}
	],
	"buffers":[
		{
			"byteLength":63856,
			"uri":"Columnas_v2_rota.bin"
		}
	]
}
